<svg xmlns="http://www.w3.org/2000/svg" width="113.175" height="113.175" viewBox="0 0 113.175 113.175">
  <g id="Chemistry" transform="translate(-2 -2)">
    <rect id="Rectángulo_378262" data-name="Rectángulo 378262" width="26" height="11" rx="2" transform="translate(87 38)" fill="#c6c5ca"/>
    <circle id="Elipse_5904" data-name="Elipse 5904" cx="3.5" cy="3.5" r="3.5" transform="translate(106 4)" fill="#ffde55"/>
    <circle id="Elipse_5905" data-name="Elipse 5905" cx="3.5" cy="3.5" r="3.5" transform="translate(106 23)" fill="#ffde55"/>
    <path id="Trazado_823978" data-name="Trazado 823978" d="M57.545,91.132A7.536,7.536,0,0,1,50,83.587V27H65.09V83.587A7.545,7.545,0,0,1,57.545,91.132Z" transform="translate(42.54 22.156)" fill="#57a4ff"/>
    <circle id="Elipse_5906" data-name="Elipse 5906" cx="6" cy="6" r="6" transform="translate(81 13)" fill="#ffde55"/>
    <path id="Trazado_823979" data-name="Trazado 823979" d="M45.431,75.18a9.431,9.431,0,0,1-8.545-5.489v-.019A9.2,9.2,0,0,1,36,65.749c0-3.867,1.886-7.545,5.659-7.545V45H49.2V58.2c3.772,0,5.659,3.678,5.659,7.545a9.2,9.2,0,0,1-.887,3.923v.019a9.431,9.431,0,0,1-8.545,5.489Z" transform="translate(30.132 38.109)" fill="#00eed1"/>
    <ellipse id="Elipse_5907" data-name="Elipse 5907" cx="3.5" cy="4" rx="3.5" ry="4" transform="translate(57 30)" fill="#ffde55"/>
    <path id="Trazado_823980" data-name="Trazado 823980" d="M32.431,75.18a9.431,9.431,0,0,1-8.545-5.489v-.019c-.132-.3-.264-.6-.377-.924a9.267,9.267,0,0,1-.509-3c0-3.867,1.886-7.545,5.659-7.545V45H36.2V58.2c3.772,0,5.659,3.678,5.659,7.545a9.2,9.2,0,0,1-.887,3.923v.019a9.431,9.431,0,0,1-8.545,5.489Z" transform="translate(18.611 38.109)" fill="#00eed1"/>
    <g id="Grupo_1074256" data-name="Grupo 1074256" transform="translate(4.005 3.886)">
      <circle id="Elipse_5908" data-name="Elipse 5908" cx="3.5" cy="3.5" r="3.5" transform="translate(48.995 0.114)" fill="#ffde55"/>
      <circle id="Elipse_5909" data-name="Elipse 5909" cx="5.5" cy="5.5" r="5.5" transform="translate(37.995 13.114)" fill="#ffde55"/>
      <path id="Trazado_823981" data-name="Trazado 823981" d="M36.463,76.988a3.772,3.772,0,0,1-3.452,5.281H6.83a3.772,3.772,0,0,1-3.452-5.281l10.884-24.9V37H25.579V52.09Z" transform="translate(-3.063 27.132)" fill="#ffde55"/>
    </g>
    <path id="Trazado_823982" data-name="Trazado 823982" d="M63.317,27V83.587A7.534,7.534,0,0,1,52,90.114a7.507,7.507,0,0,0,3.772-6.526V27Z" transform="translate(44.312 22.156)" fill="#2488ff"/>
    <path id="Trazado_823983" data-name="Trazado 823983" d="M25.977,82.27H18.432a3.772,3.772,0,0,0,3.452-5.281L11,52.09V37h7.545V52.09l10.884,24.9a3.772,3.772,0,0,1-3.452,5.281Z" transform="translate(7.976 31.019)" fill="#ffcd00"/>
    <path id="Trazado_823984" data-name="Trazado 823984" d="M28.635,36.772a3.8,3.8,0,0,1-3.772,3.773H9.772a3.773,3.773,0,0,1,0-7.545h15.09A3.784,3.784,0,0,1,28.635,36.772Z" transform="translate(3.545 27.474)" fill="#c6c5ca"/>
    <path id="Trazado_823985" data-name="Trazado 823985" d="M66.317,24.772v3.772a3.784,3.784,0,0,1-3.773,3.772H55a3.784,3.784,0,0,0,3.772-3.772V24.772A3.784,3.784,0,0,0,55,21h7.545A3.784,3.784,0,0,1,66.317,24.772Z" transform="translate(46.971 16.839)" fill="#898890"/>
    <path id="Trazado_823986" data-name="Trazado 823986" d="M23.317,36.772a3.8,3.8,0,0,1-3.772,3.773H12A3.772,3.772,0,1,0,12,33h7.545A3.784,3.784,0,0,1,23.317,36.772Z" transform="translate(8.862 27.474)" fill="#898890"/>
    <circle id="Elipse_5910" data-name="Elipse 5910" cx="5.5" cy="5.5" r="5.5" transform="translate(25 4)" fill="#ffde55"/>
    <circle id="Elipse_5911" data-name="Elipse 5911" cx="3.5" cy="3.5" r="3.5" transform="translate(21 27)" fill="#ffde55"/>
    <ellipse id="Elipse_5912" data-name="Elipse 5912" cx="5.5" cy="6" rx="5.5" ry="6" transform="translate(4 11)" fill="#ffde55"/>
    <path id="Trazado_823987" data-name="Trazado 823987" d="M39.087,80.665,28.355,56.125V43.317a5.659,5.659,0,0,0,0-11.317H13.265a5.659,5.659,0,0,0,0,11.317V56.125L2.532,80.665a5.659,5.659,0,0,0,5.187,7.922H33.9a5.659,5.659,0,0,0,5.187-7.922ZM11.378,37.659a1.886,1.886,0,0,1,1.886-1.886h15.09a1.886,1.886,0,1,1,0,3.772H13.265a1.886,1.886,0,0,1-1.886-1.886ZM35.485,83.966a1.886,1.886,0,0,1-1.584.849H7.719a1.886,1.886,0,0,1-1.584-.849,1.847,1.847,0,0,1-.151-1.792l10.9-24.9a2.075,2.075,0,0,0,.151-.755v-13.2h7.545v13.2a2.075,2.075,0,0,0,.151.755l10.9,24.9a1.847,1.847,0,0,1-.151,1.792Z" transform="translate(0.053 26.587)"/>
    <path id="Trazado_823988" data-name="Trazado 823988" d="M51.976,57.449V47.772h3.772V44H36.886v3.772h3.772v9.676C37.245,58.392,35,61.9,35,66.635a11.025,11.025,0,0,0,.981,4.546,1.664,1.664,0,0,0,.17.377,11.272,11.272,0,0,0,20.334-.019,1.251,1.251,0,0,0,.17-.358,11.025,11.025,0,0,0,.981-4.546c0-4.734-2.245-8.243-5.659-9.186Zm1.207,12.279c-.019.019-.019.038-.038.057a7.5,7.5,0,0,1-13.656,0c-.019-.019-.019-.038-.038-.057a7.573,7.573,0,0,1-.679-3.093c0-2.094.792-5.659,3.772-5.659a1.886,1.886,0,0,0,1.886-1.886V47.772H48.2V59.09a1.886,1.886,0,0,0,1.886,1.886c2.98,0,3.772,3.565,3.772,5.659a7.573,7.573,0,0,1-.679,3.093Z" transform="translate(29.246 37.222)"/>
    <path id="Trazado_823989" data-name="Trazado 823989" d="M38.976,57.449V47.772h3.772V44H23.886v3.772h3.772v9.676C24.245,58.392,22,61.9,22,66.635a11.025,11.025,0,0,0,.981,4.546,1.664,1.664,0,0,0,.17.377,11.272,11.272,0,0,0,20.334-.019,1.251,1.251,0,0,0,.17-.358,11.025,11.025,0,0,0,.981-4.546c0-4.734-2.245-8.243-5.659-9.186Zm1.207,12.279c-.019.019-.019.038-.038.057a7.5,7.5,0,0,1-13.656,0c-.019-.019-.019-.038-.038-.057a7.573,7.573,0,0,1-.679-3.093c0-2.094.792-5.659,3.772-5.659a1.886,1.886,0,0,0,1.886-1.886V47.772H35.2V59.09a1.886,1.886,0,0,0,1.886,1.886c2.98,0,3.772,3.565,3.772,5.659a7.573,7.573,0,0,1-.679,3.093Z" transform="translate(17.725 37.222)"/>
    <path id="Trazado_823990" data-name="Trazado 823990" d="M70.521,20H51.659A5.676,5.676,0,0,0,46,25.659v3.772a5.676,5.676,0,0,0,5.659,5.659v54.7a9.431,9.431,0,0,0,18.862,0V35.09a5.676,5.676,0,0,0,5.659-5.659V25.659A5.676,5.676,0,0,0,70.521,20ZM66.749,89.791a5.659,5.659,0,0,1-11.317,0V35.09H66.749Zm5.659-60.36a1.886,1.886,0,0,1-1.886,1.886H51.659a1.886,1.886,0,0,1-1.886-1.886V25.659a1.886,1.886,0,0,1,1.886-1.886H70.521a1.886,1.886,0,0,1,1.886,1.886Z" transform="translate(38.995 15.952)"/>
    <path id="Trazado_823991" data-name="Trazado 823991" d="M55.294,46.431V38.886A1.886,1.886,0,0,0,53.407,37H28.886A1.886,1.886,0,0,0,27,38.886v7.545h3.772V40.772H51.521v5.659Z" transform="translate(22.156 31.019)"/>
    <path id="Trazado_823992" data-name="Trazado 823992" d="M14.772,27.772H46.839V44.749h3.772V25.886A1.886,1.886,0,0,0,48.725,24H12.886A1.886,1.886,0,0,0,11,25.886v9.431h3.772Z" transform="translate(7.976 19.497)"/>
    <path id="Trazado_823993" data-name="Trazado 823993" d="M41.772,5.772H66.294V32.18h3.772V3.886A1.886,1.886,0,0,0,68.18,2H39.886A1.886,1.886,0,0,0,38,3.886v60.36h3.772Z" transform="translate(31.905 0)"/>
    <path id="Trazado_823994" data-name="Trazado 823994" d="M9.545,21.09A7.545,7.545,0,1,0,2,13.545,7.545,7.545,0,0,0,9.545,21.09Zm0-11.317a3.772,3.772,0,1,1-3.772,3.772A3.772,3.772,0,0,1,9.545,9.772Z" transform="translate(0 3.545)"/>
    <path id="Trazado_823995" data-name="Trazado 823995" d="M16.659,25.317A5.659,5.659,0,1,0,11,19.659,5.659,5.659,0,0,0,16.659,25.317Zm0-7.545a1.886,1.886,0,1,1-1.886,1.886A1.886,1.886,0,0,1,16.659,17.772Z" transform="translate(7.976 10.635)"/>
    <path id="Trazado_823996" data-name="Trazado 823996" d="M20.545,17.09A7.545,7.545,0,1,0,13,9.545,7.545,7.545,0,0,0,20.545,17.09Zm0-11.317a3.772,3.772,0,1,1-3.772,3.772A3.772,3.772,0,0,1,20.545,5.772Z" transform="translate(9.749 0)"/>
    <path id="Trazado_823997" data-name="Trazado 823997" d="M30,21.659A5.659,5.659,0,1,0,35.659,16,5.659,5.659,0,0,0,30,21.659Zm7.545,0a1.886,1.886,0,1,1-1.886-1.886A1.886,1.886,0,0,1,37.545,21.659Z" transform="translate(24.815 12.407)"/>
    <path id="Trazado_823998" data-name="Trazado 823998" d="M33.659,13.317A5.659,5.659,0,1,0,28,7.659a5.659,5.659,0,0,0,5.659,5.659Zm0-7.545a1.886,1.886,0,1,1-1.886,1.886A1.886,1.886,0,0,1,33.659,5.772Z" transform="translate(23.042 0)"/>
    <path id="Trazado_823999" data-name="Trazado 823999" d="M61.659,12a5.659,5.659,0,1,0,5.659,5.659A5.659,5.659,0,0,0,61.659,12Zm0,7.545a1.886,1.886,0,1,1,1.886-1.886A1.886,1.886,0,0,1,61.659,19.545Z" transform="translate(47.857 8.862)"/>
    <path id="Trazado_824000" data-name="Trazado 824000" d="M61.659,13.317A5.659,5.659,0,1,0,56,7.659a5.659,5.659,0,0,0,5.659,5.659Zm0-7.545a1.886,1.886,0,1,1-1.886,1.886A1.886,1.886,0,0,1,61.659,5.772Z" transform="translate(47.857 0)"/>
    <path id="Trazado_824001" data-name="Trazado 824001" d="M29.545,24.09A7.545,7.545,0,1,0,22,16.545,7.545,7.545,0,0,0,29.545,24.09Zm0-11.317a3.772,3.772,0,1,1-3.772,3.772A3.772,3.772,0,0,1,29.545,12.772Z" transform="translate(17.725 6.204)"/>
    <path id="Trazado_824002" data-name="Trazado 824002" d="M43,14.545A7.545,7.545,0,1,0,50.545,7,7.545,7.545,0,0,0,43,14.545Zm11.317,0a3.772,3.772,0,1,1-3.772-3.772A3.772,3.772,0,0,1,54.317,14.545Z" transform="translate(36.336 4.431)"/>
  </g>
</svg>
