<svg xmlns="http://www.w3.org/2000/svg" xmlns:xlink="http://www.w3.org/1999/xlink" width="189.799" height="118.504" viewBox="0 0 189.799 118.504">
  <defs>
    <clipPath id="clip-path">
      <rect id="Rectángulo_380371" data-name="Rectángulo 380371" width="189.799" height="118.504" fill="none"/>
    </clipPath>
    <clipPath id="clip-path-3">
      <rect id="Rectángulo_380353" data-name="Rectángulo 380353" width="48.395" height="20.593" fill="none"/>
    </clipPath>
  </defs>
  <g id="Grupo_1076890" data-name="Grupo 1076890" clip-path="url(#clip-path)">
    <g id="Grupo_1076889" data-name="Grupo 1076889">
      <g id="Grupo_1076888" data-name="Grupo 1076888" clip-path="url(#clip-path)">
        <path id="Trazado_828277" data-name="Trazado 828277" d="M115.317,0V20.62a8.412,8.412,0,0,0,8.388,8.388h17.1c4.613,0,8.218-3.233,9.087-8.388l.758-5.022c.368-2.438,1.763-4.24,4.229-4.24s3.86,1.8,4.229,4.24l.758,5.022c1.039,5.329,4.473,8.388,9.087,8.388h17.1a8.412,8.412,0,0,0,8.388-8.388V0Zm76.327,20.62a5.6,5.6,0,0,1-5.592,5.592h-17.1c-4.441,0-5.873-3.778-6.331-6.072l-.749-4.959c-.606-4.021-3.351-6.619-6.993-6.619s-6.387,2.6-6.994,6.619l-.758,5.022c-.622,3.688-3.047,6.009-6.322,6.009H123.7a5.6,5.6,0,0,1-5.592-5.592V2.8h73.531Z" transform="translate(-9.355)" fill="#9a9378"/>
        <path id="Trazado_828278" data-name="Trazado 828278" d="M158.342,0V2.8h36.792V20.62a5.6,5.6,0,0,1-5.592,5.592h-17.1c-4.442,0-5.873-3.778-6.332-6.071l-.748-4.96c-.607-4.02-3.352-6.619-6.994-6.619l-.026,0v2.8l.026,0c2.465,0,3.861,1.8,4.229,4.24l.758,5.022c1.04,5.33,4.474,8.388,9.087,8.388h17.1a8.413,8.413,0,0,0,8.388-8.388V0Z" transform="translate(-12.845)" fill="#685650"/>
        <path id="Trazado_828279" data-name="Trazado 828279" d="M186.218,27.3h-17.1c-3.731,0-6.367-2.482-7.232-6.81l-.756-5c-.535-3.546-2.923-5.837-6.084-5.837s-5.549,2.291-6.084,5.837l-.758,5.022c-.7,4.132-3.535,6.791-7.231,6.791h-17.1a6.519,6.519,0,0,1-6.511-6.51V2.043h75.369V20.786a6.518,6.518,0,0,1-6.51,6.51M155.044,7.81c4.121,0,7.223,2.9,7.9,7.4l.748,4.959c.479,2.39,1.816,5.29,5.422,5.29h17.1a4.678,4.678,0,0,0,4.672-4.672V3.881H119.2V20.786a4.678,4.678,0,0,0,4.673,4.672h17.1c2.794,0,4.869-2.009,5.415-5.242l.755-5.007c.679-4.5,3.781-7.4,7.9-7.4" transform="translate(-9.52 -0.166)" fill="#372421"/>
        <path id="Trazado_828280" data-name="Trazado 828280" d="M203.693,17.737h-2.269V9.7h2.269a2.446,2.446,0,0,1,2.445,2.446v3.146a2.446,2.446,0,0,1-2.445,2.446" transform="translate(-16.34 -0.787)" fill="#372421"/>
        <path id="Trazado_828281" data-name="Trazado 828281" d="M114.9,17.737h-2.268a2.446,2.446,0,0,1-2.446-2.446V12.145A2.446,2.446,0,0,1,112.633,9.7H114.9Z" transform="translate(-8.939 -0.787)" fill="#372421"/>
        <path id="Trazado_828282" data-name="Trazado 828282" d="M12.125,24.1c4.937,4.507,12.024,4.43,18.71,4.43h.816a7.928,7.928,0,0,0,7.77-6.353l.753-3.071a2.55,2.55,0,0,1,2.391-1.954,2.578,2.578,0,0,1,2.4,1.918l.885,3.287a7.911,7.911,0,0,0,7.719,6.174c6.363,0,13.163.312,18.009-3.812A17.915,17.915,0,0,0,77.55,11.33a6.5,6.5,0,0,0-6.5-6.5H13.774a6.5,6.5,0,0,0-6.5,6.5v.265c0,8.845,4.85,12.507,4.85,12.507" transform="translate(-0.59 -0.392)" fill="#ffb944"/>
        <path id="Trazado_828283" data-name="Trazado 828283" d="M74.191,4.83h-28.2V17.181A2.59,2.59,0,0,1,48.1,19.07l.884,3.287a7.913,7.913,0,0,0,7.719,6.175c6.364,0,13.164.312,18.01-3.813A17.915,17.915,0,0,0,80.69,11.329a6.5,6.5,0,0,0-6.5-6.5" transform="translate(-3.731 -0.392)" fill="#fc9818"/>
        <path id="Trazado_828284" data-name="Trazado 828284" d="M56.045,28.957l-2.52-.006a8.325,8.325,0,0,1-8.167-6.533l-.88-3.268a2.125,2.125,0,0,0-1.953-1.577,2.094,2.094,0,0,0-1.941,1.587l-.757,3.088a8.409,8.409,0,0,1-8.217,6.7H30.128c-6.267,0-13.37,0-18.354-4.55-.173-.128-5-3.876-5-12.848V11.29a6.966,6.966,0,0,1,6.959-6.959H71.009a6.967,6.967,0,0,1,6.96,6.959A18.208,18.208,0,0,1,71.82,25.038c-4.25,3.618-9.887,3.919-15.774,3.919m-13.52-12.3A3.054,3.054,0,0,1,45.37,18.93l.88,3.268a7.417,7.417,0,0,0,7.275,5.835l2.52.006c5.709,0,11.166-.284,15.191-3.71A17.609,17.609,0,0,0,77.05,11.29a6.047,6.047,0,0,0-6.041-6.04H13.734a6.046,6.046,0,0,0-6.04,6.04v.264c0,8.488,4.622,12.106,4.668,12.142,4.753,4.337,11.667,4.337,17.767,4.337H31.61a7.492,7.492,0,0,0,7.32-5.986l.757-3.088a3.019,3.019,0,0,1,2.837-2.3" transform="translate(-0.55 -0.351)" fill="#fff7ca"/>
        <path id="Trazado_828285" data-name="Trazado 828285" d="M56,29.376l-2.521-.006a8.782,8.782,0,0,1-8.614-6.893l-.876-3.249a1.673,1.673,0,0,0-1.509-1.237,1.63,1.63,0,0,0-1.49,1.218l-.761,3.107A8.859,8.859,0,0,1,31.57,29.37H30.088c-6.35,0-13.548,0-18.663-4.671-.015-.008-5.149-3.9-5.149-13.187v-.264a7.426,7.426,0,0,1,7.418-7.418H70.97a7.427,7.427,0,0,1,7.418,7.418,18.694,18.694,0,0,1-6.324,14.108C67.707,29.068,61.981,29.376,56,29.376m14.7-4.115c-4.028,2.932-9.236,3.195-14.663,3.2,5.429,0,10.634-.263,14.663-3.2M40.15,18.8c-.021.068-.039.136-.053.206l-.761,3.106a7.948,7.948,0,0,1-7.75,6.336,7.942,7.942,0,0,0,7.75-6.336L40.1,19.01c.015-.07.032-.138.053-.206m5.743,3.965a7.864,7.864,0,0,0,6.983,5.66,7.874,7.874,0,0,1-6.983-5.66m-3.409-6.615a3.535,3.535,0,0,1,3.293,2.634l.876,3.249a6.972,6.972,0,0,0,6.831,5.495l2.521.006c5.619,0,10.987-.276,14.892-3.6A17.228,17.228,0,0,0,76.55,11.249a5.587,5.587,0,0,0-5.58-5.58H13.693a5.587,5.587,0,0,0-5.58,5.58v.264c0,8.184,4.446,11.744,4.491,11.779,4.65,4.241,11.469,4.241,17.484,4.241H31.57a7.032,7.032,0,0,0,6.87-5.617l.761-3.107a3.487,3.487,0,0,1,3.284-2.655M12.007,23.99q.407.371.831.7c-.281-.22-.557-.451-.826-.7l0,0M77.469,11.249a18.109,18.109,0,0,1-5.984,13.4,17.719,17.719,0,0,0,5.984-13.4m-70.275.264c0,8.811,4.75,12.431,4.813,12.477-.177-.14-4.813-3.948-4.813-12.477m6.5-6.763a6.507,6.507,0,0,0-6.5,6.5v0a6.507,6.507,0,0,1,6.5-6.5H70.97a6.507,6.507,0,0,1,6.5,6.5,6.507,6.507,0,0,0-6.5-6.5Z" transform="translate(-0.509 -0.311)" fill="#9f664d"/>
        <path id="Trazado_828286" data-name="Trazado 828286" d="M74.027,8.5H11.211a1.378,1.378,0,1,1,0-2.757H74.027a1.378,1.378,0,0,1,0,2.757" transform="translate(-0.798 -0.466)" fill="#f0311b"/>
        <path id="Trazado_828287" data-name="Trazado 828287" d="M86.319,27.812a2.5,2.5,0,0,1-.441-.282,1.6,1.6,0,0,1-.6-.821,4.209,4.209,0,0,1-.009-1.263c.032-.471.068-1,.108-1.583.073-1.127.158-2.441.25-3.851.086-1.384.107-2.841.053-4.25a16.621,16.621,0,0,0-.574-3.929,7.889,7.889,0,0,0-.626-1.567,6,6,0,0,0-.81-1.2,6.942,6.942,0,0,0-.912-.839,7.094,7.094,0,0,0-.85-.527,5.119,5.119,0,0,0-.606-.289l-.221-.1-.131-.059a1.153,1.153,0,0,1,.662-2.191l.31.053a7.473,7.473,0,0,1,.877.18l.627.179.721.3a8.263,8.263,0,0,1,1.625,1A9.213,9.213,0,0,1,87.336,8.4a10.631,10.631,0,0,1,1.219,2.135,17.425,17.425,0,0,1,1.262,4.86,36.041,36.041,0,0,1,.244,4.751c.007,1.49-.1,2.849-.147,4-.028.568-.053,1.088-.075,1.549a3.969,3.969,0,0,1-.119,1.155,2.008,2.008,0,0,1-.642.735,2.413,2.413,0,0,1-.449.268,2.827,2.827,0,0,1-2.31-.035" transform="translate(-6.511 -0.409)" fill="#9f664d"/>
        <path id="Trazado_828288" data-name="Trazado 828288" d="M1.435,27.857a2.5,2.5,0,0,1-.449-.264,1.984,1.984,0,0,1-.641-.721,3.82,3.82,0,0,1-.119-1.134C.2,25.285.178,24.774.15,24.215.1,23.088,0,21.752,0,20.289a36.947,36.947,0,0,1,.218-4.662,18.132,18.132,0,0,1,1.16-4.775A9.916,9.916,0,0,1,3.967,7.067c.256-.232.531-.425.782-.611.27-.164.523-.321.766-.454a7.51,7.51,0,0,1,1.312-.533,7.094,7.094,0,0,1,.862-.216l.3-.064a1.153,1.153,0,0,1,.753,2.159l-.136.068-.211.1a4.66,4.66,0,0,0-.574.308,7.447,7.447,0,0,0-.8.554L6.6,8.776c-.13.16-.281.3-.417.479a7.677,7.677,0,0,0-1.317,2.8,17.818,17.818,0,0,0-.5,3.9c-.039,1.391-.014,2.826.077,4.188.093,1.386.179,2.679.254,3.789.04.571.075,1.093.107,1.557a4.042,4.042,0,0,1-.009,1.242,1.566,1.566,0,0,1-.6.81,2.49,2.49,0,0,1-.441.278,2.87,2.87,0,0,1-2.31.036" transform="translate(0 -0.419)" fill="#9f664d"/>
        <path id="Trazado_828289" data-name="Trazado 828289" d="M14.892,62.568V107.7a11.588,11.588,0,0,0,6.095,9.866,48.045,48.045,0,0,0,19.955,4.3v-59.3Z" transform="translate(-1.208 -5.076)" fill="#dee8ff"/>
        <path id="Trazado_828290" data-name="Trazado 828290" d="M43.242,62.568v59.3a48.044,48.044,0,0,0,19.77-4.3,11.59,11.59,0,0,0,6.095-9.866V62.568Z" transform="translate(-3.508 -5.076)" fill="#ccdcff"/>
        <g id="Grupo_1076887" data-name="Grupo 1076887" transform="translate(15.35 55.005)" opacity="0.5">
          <g id="Grupo_1076886" data-name="Grupo 1076886">
            <g id="Grupo_1076885" data-name="Grupo 1076885" clip-path="url(#clip-path-3)">
              <path id="Trazado_828291" data-name="Trazado 828291" d="M60.411,59.861l4.69,4.073A33.43,33.43,0,0,1,53.266,76.9a24.47,24.47,0,0,1-8.112,3.146,22.72,22.72,0,0,1-8.478.017,26.69,26.69,0,0,1-14.561-8.445,37.145,37.145,0,0,1-5.41-7.653l4.688-4.078a30.221,30.221,0,0,0,4.4,6.224,21.487,21.487,0,0,0,11.713,6.8,18.959,18.959,0,0,0,13.32-2.539,27.1,27.1,0,0,0,9.586-10.515" transform="translate(-16.705 -59.861)" fill="#060f1c"/>
            </g>
          </g>
        </g>
        <path id="Trazado_828292" data-name="Trazado 828292" d="M40.747,51.737c-14.335,0-25.957,4.48-25.957,10.008,0,.054,0,.108,0,.164,0,.015,0,.029,0,.044a3.787,3.787,0,0,0,3.787,3.787H40.841v-14h-.094" transform="translate(-1.2 -4.197)" fill="#263248"/>
        <path id="Trazado_828293" data-name="Trazado 828293" d="M69,61.908c0-.054,0-.108,0-.164,0-5.515-11.571-9.987-25.865-10.007v14H65.218A3.787,3.787,0,0,0,69,61.953c0-.016,0-.029,0-.045" transform="translate(-3.5 -4.197)" fill="#1a2230"/>
        <rect id="Rectángulo_380354" data-name="Rectángulo 380354" width="2.841" height="2.975" transform="translate(12.55 58.068)" fill="#060f1c"/>
        <rect id="Rectángulo_380355" data-name="Rectángulo 380355" width="2.841" height="5.689" transform="translate(10.289 56.712)" fill="#263248"/>
        <rect id="Rectángulo_380356" data-name="Rectángulo 380356" width="2.841" height="2.975" transform="translate(63.891 58.068)" fill="#060f1c"/>
        <rect id="Rectángulo_380357" data-name="Rectángulo 380357" width="2.841" height="5.689" transform="translate(66.153 56.712)" fill="#263248"/>
        <rect id="Rectángulo_380358" data-name="Rectángulo 380358" width="26.051" height="4.128" transform="translate(13.59 57.492)" fill="#ffca00"/>
        <rect id="Rectángulo_380359" data-name="Rectángulo 380359" width="25.864" height="4.128" transform="translate(39.641 57.492)" fill="#fdb813"/>
        <rect id="Rectángulo_380360" data-name="Rectángulo 380360" width="3.846" height="7.779" transform="translate(112.947 65.211)" fill="#263248"/>
        <rect id="Rectángulo_380361" data-name="Rectángulo 380361" width="3.846" height="7.779" transform="translate(174.255 65.211)" fill="#263248"/>
        <rect id="Rectángulo_380362" data-name="Rectángulo 380362" width="3.846" height="10.255" transform="translate(172.815 63.973)" fill="#060f1c"/>
        <rect id="Rectángulo_380363" data-name="Rectángulo 380363" width="3.846" height="10.255" transform="translate(114.431 63.973)" fill="#060f1c"/>
        <rect id="Rectángulo_380364" data-name="Rectángulo 380364" width="3.846" height="10.255" transform="translate(172.815 63.973)" fill="#060f1c"/>
        <path id="Trazado_828294" data-name="Trazado 828294" d="M139.583,50.246a11.961,11.961,0,0,0-11.961,11.962V99.455h.022a23.125,23.125,0,0,0,23.125,23.125h5.107V50.246Z" transform="translate(-10.353 -4.076)" fill="#263248"/>
        <path id="Trazado_828295" data-name="Trazado 828295" d="M186.625,98.475V62.207a11.961,11.961,0,0,0-11.961-11.961H158.37V122.58h5.152a23.126,23.126,0,0,0,23.125-23.125c0-.328-.008-.654-.022-.98" transform="translate(-12.847 -4.076)" fill="#1a2230"/>
        <path id="Trazado_828296" data-name="Trazado 828296" d="M127.621,100.23v3.279h.022a23.125,23.125,0,0,0,23.125,23.125h5.108v-26.4Z" transform="translate(-10.353 -8.131)" fill="#1a2230"/>
        <path id="Trazado_828297" data-name="Trazado 828297" d="M186.625,102.53v-2.3H158.37v26.4h5.152a23.126,23.126,0,0,0,23.125-23.125c0-.328-.008-.654-.022-.98" transform="translate(-12.847 -8.131)" fill="#161d28"/>
        <rect id="Rectángulo_380365" data-name="Rectángulo 380365" width="28.255" height="3.146" transform="translate(117.268 92.099)" fill="#060f1c"/>
        <path id="Trazado_828298" data-name="Trazado 828298" d="M186.625,102.53v-2.3H158.37v3.146h28.276q0-.425-.02-.846" transform="translate(-12.847 -8.131)" fill="#040b14"/>
        <rect id="Rectángulo_380366" data-name="Rectángulo 380366" width="23.046" height="25.376" transform="translate(145.523 59.149)" fill="#fdb813"/>
        <rect id="Rectángulo_380367" data-name="Rectángulo 380367" width="23.001" height="25.376" transform="translate(122.521 59.149)" fill="#ffca00"/>
        <rect id="Rectángulo_380368" data-name="Rectángulo 380368" width="20.824" height="20.333" transform="translate(124.7 61.671)" fill="#07101f"/>
        <rect id="Rectángulo_380369" data-name="Rectángulo 380369" width="20.868" height="20.333" transform="translate(145.524 61.67)" fill="#040b14"/>
      </g>
    </g>
  </g>
</svg>
