<svg xmlns="http://www.w3.org/2000/svg" xmlns:xlink="http://www.w3.org/1999/xlink" width="160.667" height="161.671" viewBox="0 0 160.667 161.671">
  <defs>
    <clipPath id="clip-path">
      <rect id="Rectángulo_380403" data-name="Rectángulo 380403" width="160.667" height="161.671" fill="none"/>
    </clipPath>
  </defs>
  <g id="Grupo_1076906" data-name="Grupo 1076906" clip-path="url(#clip-path)">
    <path id="Trazado_828400" data-name="Trazado 828400" d="M118.33,12.147V23.965a12.124,12.124,0,0,0,.419,3.119l-6.713,2.472L109.993,30.6v.009l-.02-.008L92.84,76.3l8.989,3.446,8.164-18.417v6.293l-.737,63.3h14.979l5.983-37.4h.249V0A12.148,12.148,0,0,0,118.33,12.147" transform="translate(-14.064)" fill="#ffca00"/>
    <path id="Trazado_828401" data-name="Trazado 828401" d="M165.823,79.748l8.989-3.446-17.131-45.69V30.6L148.9,27.165a12.137,12.137,0,0,0,.44-3.2V12.147A12.148,12.148,0,0,0,137.2,0h-.011V93.522h.271l5.983,37.4h14.979l-.736-63.192V61.381Z" transform="translate(-20.782 0)" fill="#fdb813"/>
    <path id="Trazado_828402" data-name="Trazado 828402" d="M171.341,106.588a1.485,1.485,0,0,0,1.821-.772c0-.013,1.111-5.229,1.111-5.229.246.681,4.446,11.094,4.446,11.094h0a1.081,1.081,0,0,0,1.958-.788l-3.253-8.64.082-.033,3.89,9.362a1.08,1.08,0,0,0,1.957-.787l-3.661-9.455.125-.05,3.369,8h0a1.077,1.077,0,0,0,1.952-.786h0l0,0-3.078-8.117.134-.053,2.524,5.794v0a.912.912,0,0,0,1.688-.68v0l-2.273-5.895c-.238-.741-1.2-3.1-1.41-3.561-.508-1.079-2.814-5.864-2.814-5.864l-.08-.2-9.469,2.287,1.349,3.263-1.347,9.491h0a1.4,1.4,0,0,0,.974,1.622" transform="translate(-25.803 -13.623)" fill="#161d28"/>
    <path id="Trazado_828403" data-name="Trazado 828403" d="M101.121,104.966h0l-1.347-9.491,1.349-3.263-9.469-2.287-.081.2s-2.305,4.785-2.814,5.864c-.216.457-1.173,2.82-1.411,3.561h0l-2.274,5.895v0a.912.912,0,0,0,1.688.679h0l2.524-5.794.134.053L86.345,108.5l.005,0h0a1.076,1.076,0,0,0,1.952.786v0l3.369-8,.126.05L88.135,110.8a1.08,1.08,0,0,0,1.958.787l3.89-9.362.081.032-3.252,8.641a1.08,1.08,0,0,0,1.957.787h0s4.2-10.414,4.446-11.094c0,0,1.106,5.215,1.111,5.228a1.484,1.484,0,0,0,1.821.773,1.4,1.4,0,0,0,.974-1.622" transform="translate(-12.88 -13.623)" fill="#161d28"/>
    <path id="Trazado_828404" data-name="Trazado 828404" d="M126.691,14.926v4.849a8.915,8.915,0,0,0,8.9,8.915V6.012a8.915,8.915,0,0,0-8.9,8.914" transform="translate(-19.193 -0.911)" fill="#263248"/>
    <path id="Trazado_828405" data-name="Trazado 828405" d="M137.2,6.011h-.011V28.691h.011a8.915,8.915,0,0,0,8.915-8.915V14.926A8.915,8.915,0,0,0,137.2,6.011" transform="translate(-20.782 -0.911)" fill="#1a2230"/>
    <path id="Trazado_828406" data-name="Trazado 828406" d="M127.812,15.4v4.332a7.965,7.965,0,0,0,7.952,7.964V7.437a7.963,7.963,0,0,0-7.952,7.964" transform="translate(-19.362 -1.127)" fill="#fff"/>
    <path id="Trazado_828407" data-name="Trazado 828407" d="M137.2,7.436l-.011,0V27.7l.011,0a7.965,7.965,0,0,0,7.965-7.966V15.4A7.965,7.965,0,0,0,137.2,7.436" transform="translate(-20.782 -1.126)" fill="#ccdcff"/>
    <path id="Trazado_828408" data-name="Trazado 828408" d="M125.895,154.3H110.916v15.129l-5.377,5.377a5.932,5.932,0,0,0,0,8.389l.116.116a5.933,5.933,0,0,0,8.39,0l8.767-8.767a5.9,5.9,0,0,0,1.69-3.49h.02Z" transform="translate(-15.725 -23.375)" fill="#161d28"/>
    <path id="Trazado_828409" data-name="Trazado 828409" d="M164.911,174.8l-5.377-5.377V154.3H144.555l1.373,16.755h.02a5.9,5.9,0,0,0,1.691,3.49l8.767,8.767a5.931,5.931,0,0,0,8.389,0l.116-.116a5.932,5.932,0,0,0,0-8.389" transform="translate(-21.899 -23.375)" fill="#161d28"/>
    <rect id="Rectángulo_380394" data-name="Rectángulo 380394" width="10.508" height="1.443" transform="translate(119.598 39.887)" fill="#fff"/>
    <path id="Trazado_828410" data-name="Trazado 828410" d="M41.115,7.994,35.28,5.82l-22.1,22.129,3.991,3.991Z" transform="translate(-1.996 -0.882)" fill="#1a2230"/>
    <path id="Trazado_828411" data-name="Trazado 828411" d="M7.7,7.994,13.54,5.82,36.165,28.477l-3.991,3.991Z" transform="translate(-1.167 -0.882)" fill="#263248"/>
    <path id="Trazado_828412" data-name="Trazado 828412" d="M13.48,5.819,7.308,7.587V25.279H13.48Z" transform="translate(-1.107 -0.882)" fill="#235a9d"/>
    <path id="Trazado_828413" data-name="Trazado 828413" d="M45.4,7.546,39.226,5.819v19.74H45.4Z" transform="translate(-5.942 -0.882)" fill="#235a9d"/>
    <path id="Trazado_828414" data-name="Trazado 828414" d="M6.2,28.753V50.125A7.224,7.224,0,0,1,0,57.276V163.534H19.541l.217-16.178,2.779-61.029h.291V28.753Z" transform="translate(0 -4.356)" fill="#235a9d"/>
    <path id="Trazado_828415" data-name="Trazado 828415" d="M43.531,50.125V28.753H26.9V86.328H27.2l2.779,61.029.217,16.178H49.732V57.276a7.224,7.224,0,0,1-6.2-7.15" transform="translate(-4.076 -4.356)" fill="#1f508c"/>
    <path id="Trazado_828416" data-name="Trazado 828416" d="M0,143.425v6.36H20.439l.289-6.36Z" transform="translate(0 -21.728)" fill="#ccdcff"/>
    <path id="Trazado_828417" data-name="Trazado 828417" d="M0,156.915v4.876H19.985l.222-4.876Z" transform="translate(0 -23.771)" fill="#ccdcff"/>
    <path id="Trazado_828418" data-name="Trazado 828418" d="M29.994,156.915l.222,4.876H50.2v-4.876Z" transform="translate(-4.544 -23.771)" fill="#ccdcff"/>
    <path id="Trazado_828419" data-name="Trazado 828419" d="M29.379,143.425l.289,6.36H50.108v-6.36Z" transform="translate(-4.451 -21.728)" fill="#ccdcff"/>
    <rect id="Rectángulo_380395" data-name="Rectángulo 380395" width="18.543" height="13.586" transform="translate(13.077 31.953)" fill="#173b66"/>
    <path id="Trazado_828420" data-name="Trazado 828420" d="M33.956,42.481,24.684,45.84l-9.272-3.358V37.658H33.956Z" transform="translate(-2.335 -5.705)" fill="#133054"/>
    <rect id="Rectángulo_380396" data-name="Rectángulo 380396" width="12.373" height="23.428" transform="translate(33.284 93.039)" fill="#173b66"/>
    <rect id="Rectángulo_380397" data-name="Rectángulo 380397" width="12.373" height="6.022" transform="translate(33.284 93.04)" fill="#133054"/>
    <path id="Trazado_828421" data-name="Trazado 828421" d="M0,79.229v-15.4H12.373Z" transform="translate(0 -9.67)" fill="#173b66"/>
    <path id="Trazado_828422" data-name="Trazado 828422" d="M51.6,79.229v-15.4H39.226Z" transform="translate(-5.942 -9.67)" fill="#173b66"/>
    <path id="Trazado_828423" data-name="Trazado 828423" d="M10.334,66.371l2.039-2.538H0v2.538Z" transform="translate(0 -9.67)" fill="#ffca00"/>
    <path id="Trazado_828424" data-name="Trazado 828424" d="M51.6,66.371V63.833H39.226l2.039,2.538Z" transform="translate(-5.942 -9.67)" fill="#ffca00"/>
    <rect id="Rectángulo_380398" data-name="Rectángulo 380398" width="6.172" height="1.702" transform="translate(6.201 22.695)" fill="#ffca00"/>
    <rect id="Rectángulo_380399" data-name="Rectángulo 380399" width="6.172" height="1.702" transform="translate(6.201 21.273)" fill="#fdb813"/>
    <rect id="Rectángulo_380400" data-name="Rectángulo 380400" width="6.172" height="1.702" transform="translate(33.284 22.975)" fill="#ffca00"/>
    <rect id="Rectángulo_380401" data-name="Rectángulo 380401" width="6.172" height="1.702" transform="translate(33.284 21.273)" fill="#fdb813"/>
    <path id="Trazado_828425" data-name="Trazado 828425" d="M27.3,43.134A1.167,1.167,0,1,0,26.131,44.3,1.167,1.167,0,0,0,27.3,43.134" transform="translate(-3.782 -6.358)" fill="#ffca00"/>
    <path id="Trazado_828426" data-name="Trazado 828426" d="M48.437,114.367a1.167,1.167,0,1,0-1.168,1.168,1.167,1.167,0,0,0,1.168-1.168" transform="translate(-6.984 -17.149)" fill="#ffca00"/>
    <rect id="Rectángulo_380402" data-name="Rectángulo 380402" width="8.607" height="2.532" transform="translate(29.089 27.335)" fill="#133054"/>
  </g>
</svg>
