<svg xmlns="http://www.w3.org/2000/svg" xmlns:xlink="http://www.w3.org/1999/xlink" width="177.826" height="172.383" viewBox="0 0 177.826 172.383">
  <defs>
    <clipPath id="clip-path">
      <rect id="Rectángulo_380385" data-name="Rectángulo 380385" width="177.826" height="172.383" fill="none"/>
    </clipPath>
  </defs>
  <g id="Grupo_1076896" data-name="Grupo 1076896" clip-path="url(#clip-path)">
    <path id="Trazado_828360" data-name="Trazado 828360" d="M180.379,52.877a2.7,2.7,0,0,0-3.8-.279l-11.534,9.953c-.087-.43-.187-.862-.3-1.292.024-.019.054-.033.077-.054l15.4-13.291a2.691,2.691,0,1,0-3.517-4.075L162.749,55.888c-.186-.369-.373-.721-.563-1.052l15.085-13.018a2.7,2.7,0,0,0,.279-3.8h0a2.7,2.7,0,0,0-3.8-.278L158.719,50.719c-.332-.3-.667-.59-1-.864l13.42-11.583A2.691,2.691,0,0,0,167.62,34.2l-15.4,13.29c-.029.026-.052.058-.08.087s-.042.019-.06.035c-.521.449-1.917,1.531-3.555,3.021a6.768,6.768,0,0,1-4.25.831l9.819-8.473a2.692,2.692,0,0,0-3.518-4.075L135.176,52.2c-.029.025-.051.056-.078.083s-.064.04-.093.065c-2.194,1.893-3.188,5.715-3.266,9.041l-7.931,6.846,16.806,19.475,8.665-7.479c4.6-.938,10.27-5.826,14.448-9.431a3.935,3.935,0,0,0,.48-.506,2.738,2.738,0,0,0,.493-.332l15.4-13.291a2.7,2.7,0,0,0,.279-3.8" transform="translate(-3.331 -0.903)" fill="#ff6a00"/>
    <rect id="Rectángulo_380378" data-name="Rectángulo 380378" width="2.959" height="25.724" transform="matrix(0.757, -0.653, 0.653, 0.757, 118.271, 69.212)" fill="#c54a00"/>
    <path id="Trazado_828361" data-name="Trazado 828361" d="M159.4,28.083a2.692,2.692,0,1,0-5.047-1.871l-4.507,12.16a6.761,6.761,0,0,1-.706-4.272c.824-2.057,1.35-3.743,1.589-4.388.008-.021.006-.046.012-.068s.039-.068.053-.106l7.07-19.073a2.692,2.692,0,0,0-5.047-1.871l-6.163,16.622c-.375-.219-.763-.432-1.16-.636l6.9-18.624a2.692,2.692,0,1,0-5.047-1.871l-6.926,18.683c-.377-.062-.772-.115-1.182-.159l6.411-17.292A2.692,2.692,0,0,0,140.6,3.446l-7.07,19.073c-.012.03-.014.06-.024.09-.442.047-.882.1-1.315.173l5.3-14.284a2.692,2.692,0,1,0-5.047-1.871L125.372,25.7a2.732,2.732,0,0,0-.139.578,3.841,3.841,0,0,0-.307.626c-1.918,5.174-4.517,12.193-3.787,16.832L117.16,54.47l24.119,8.942,3.642-9.824c3.09-1.235,6.323-3.5,7.33-6.219.014-.036.016-.073.028-.109s.037-.066.051-.1Z" transform="translate(-3.152 -0.046)" fill="#ffa511"/>
    <rect id="Rectángulo_380379" data-name="Rectángulo 380379" width="2.959" height="25.723" transform="translate(112.922 57.178) rotate(-69.659)" fill="#d45200"/>
    <path id="Trazado_828362" data-name="Trazado 828362" d="M84.59,16.377,80.629,28.049,69.144,61.883l-27.9-9.469L51.946,20.9c.021-.087.031-.174.06-.261l6.307-18.58A3.037,3.037,0,0,1,62.153.16l.7.237a3.037,3.037,0,0,1,1.894,3.84L59.138,20.754l1.473.515c.013-.041.015-.082.028-.123L66.96,2.527A3.016,3.016,0,0,1,70.774.646l.18.048a3.016,3.016,0,0,1,1.881,3.814l-6.32,18.619c-.014.041-.037.075-.053.114l1.562.517L73.811,6.707A3.056,3.056,0,0,1,77.674,4.8l.11.051A3.056,3.056,0,0,1,79.69,8.715L73.9,25.766l1.344.439,3.961-11.671a2.926,2.926,0,0,1,3.7-1.825l.245.087a3.161,3.161,0,0,1,1.437,3.582m-15.9,52.379,1.59-4.683L38.927,53.43l-1.589,4.683a2.293,2.293,0,0,0,1.434,2.91l27.01,9.168a2.292,2.292,0,0,0,2.909-1.434" transform="translate(-1.001 0)" fill="#985a4d"/>
    <path id="Trazado_828363" data-name="Trazado 828363" d="M44.6,48.954,62.122,33.443a3.343,3.343,0,0,0,.091-4.713L61.1,27.573a3.342,3.342,0,0,0-4.713-.091L50.025,33.6Z" transform="translate(-1.2 -0.714)" fill="#bd9872"/>
    <path id="Trazado_828364" data-name="Trazado 828364" d="M47.288,12.286,40.912,31.044c-.027.082-.071.153-.105.231L30.12,62.712,3.871,53.789l9.051-26.625,2.1-6.184.346-1.02,4-11.758A2.834,2.834,0,0,1,22.95,6.438l.067.042a2.833,2.833,0,0,1,1.766,3.584l-4,11.757L22,22.2,27.83,5.059a2.958,2.958,0,0,1,3.742-1.843l.235.1A2.959,2.959,0,0,1,33.65,7.055L27.824,24.194l.868.295c0-.01.313.1.316.091L35.4,5.783a2.92,2.92,0,0,1,3.694-1.82L39.237,4a2.92,2.92,0,0,1,1.82,3.694l-6.389,18.8c0,.009-.009.018-.013.026l1.24.415,5.645-16.606a2.942,2.942,0,0,1,3.72-1.832l.2.074a2.941,2.941,0,0,1,1.832,3.72M.119,59.618a2.22,2.22,0,0,0,1.388,2.817l25.3,8.6a2.22,2.22,0,0,0,2.817-1.388L31.236,64.9,1.734,54.866Z" transform="translate(0 -0.082)" fill="#b38961"/>
    <path id="Trazado_828365" data-name="Trazado 828365" d="M153.025,154.344l.143.579,1.7,5.734L128.7,167.11l-2.723-11.51-18.364-19.114h0a3.869,3.869,0,0,1-.437-5.215c1.338-1.786,3.944-2.251,5.334-1.211.029.022,10.943,9.935,10.943,9.935-.548-1.928-7.959-32.079-7.959-32.079h0a2.987,2.987,0,0,1,5.664-1.4l6.672,24.644.236-.058-6.407-27.294a2.986,2.986,0,0,1,5.663-1.4l7.07,27.132.362-.09-5.373-23.393v0a2.977,2.977,0,0,1,5.65-1.393v0l.014,0,6.217,23.185.387-.1-3.7-17.078v0a2.522,2.522,0,0,1,4.886-1.2v0l4.429,16.9h0c.663,2.047,2.335,8.9,2.591,10.27.6,3.243,3.167,17.705,3.167,17.705" transform="translate(-2.862 -2.71)" fill="#a3b0cc"/>
    <path id="Trazado_828366" data-name="Trazado 828366" d="M126.9,159.379l-.221.555-2.464,5.448,25.035,9.964,4.269-11.03,20.8-16.429h0a3.867,3.867,0,0,0,1.144-5.106c-1.081-1.951-3.6-2.768-5.118-1.927-.032.018-12.2,8.347-12.2,8.347.806-1.834,12.265-30.691,12.265-30.691h0a2.987,2.987,0,0,0-5.42-2.157l-9.974,23.5-.227-.09L164.865,113.6a2.986,2.986,0,0,0-5.42-2.157l-10.709,25.912-.345-.137,8.517-22.441v0a2.977,2.977,0,0,0-5.407-2.152v0l-.014-.006-9.324,22.119-.371-.147,6-16.413,0,0a2.522,2.522,0,0,0-4.675-1.861l0,0-6.695,16.136h0c-.935,1.936-3.528,8.494-3.969,9.819-1.041,3.13-5.555,17.107-5.555,17.107" transform="translate(-3.342 -2.962)" fill="#ccdcff"/>
    <path id="Trazado_828367" data-name="Trazado 828367" d="M25.365,103.859h0l-2.132,21.9L6.478,148.731l19.036,13.61,12.827-19.806.288-.4s7.733-9.426,9.451-11.559c.728-.9,4.143-5.658,5.076-7.18h0l8.263-11.919,0,0a2.094,2.094,0,0,0-3.4-2.43l0,0h0L49.251,120.6l-.27-.193,11.26-16.441-.01-.007v0a2.471,2.471,0,0,0-3.929-2.809l0,0L44.456,117.173l-.252-.18L57.49,97.882a2.479,2.479,0,0,0-3.939-2.816L39.8,113.847l-.164-.118L51.572,96.213A2.479,2.479,0,0,0,47.633,93.4h0s-15.006,20.958-15.925,22.344c0,0,.354-12.235.352-12.265a3.406,3.406,0,0,0-3.643-2.709,3.211,3.211,0,0,0-3.052,3.092" transform="translate(-0.174 -2.494)" fill="#ff8d23"/>
    <path id="Trazado_828368" data-name="Trazado 828368" d="M33.98,116.578h0l-2.132,21.9L15.093,161.45l19.036,13.61,12.827-19.805.288-.4s7.733-9.426,9.451-11.559c.728-.9,4.142-5.658,5.076-7.18h0l8.263-11.919,0,0a2.094,2.094,0,0,0-3.4-2.43l0,0L57.866,133.32l-.27-.193,11.26-16.441-.01-.007v0a2.472,2.472,0,0,0-3.929-2.81v0L53.071,129.892l-.252-.18L66.105,110.6a2.479,2.479,0,0,0-3.939-2.816L48.419,126.567l-.164-.119,11.933-17.516a2.479,2.479,0,0,0-3.939-2.816h0s-15.006,20.958-15.925,22.344c0,0,.355-12.235.352-12.265a3.406,3.406,0,0,0-3.643-2.709,3.211,3.211,0,0,0-3.052,3.092" transform="translate(-0.406 -2.836)" fill="#ffca00"/>
    <path id="Trazado_828369" data-name="Trazado 828369" d="M41.079,165.875l.933-1.44-18.4-13.154-1.01,1.386Z" transform="translate(-0.608 -4.07)" fill="#fdb813"/>
    <path id="Trazado_828370" data-name="Trazado 828370" d="M15.976,161.757,15.2,162.82l19.044,13.6.715-1.105Z" transform="translate(-0.409 -4.352)" fill="#fdb813"/>
    <rect id="Rectángulo_380380" data-name="Rectángulo 380380" width="13.654" height="2.322" transform="translate(19.742 162.229) rotate(-54.432)" fill="#fdb813"/>
    <rect id="Rectángulo_380381" data-name="Rectángulo 380381" width="13.654" height="2.322" transform="translate(16.27 159.746) rotate(-54.432)" fill="#fdb813"/>
    <rect id="Rectángulo_380382" data-name="Rectángulo 380382" width="13.654" height="2.322" transform="translate(23.215 164.711) rotate(-54.432)" fill="#fdb813"/>
    <rect id="Rectángulo_380383" data-name="Rectángulo 380383" width="13.654" height="2.322" transform="translate(30.16 169.676) rotate(-54.432)" fill="#fdb813"/>
    <rect id="Rectángulo_380384" data-name="Rectángulo 380384" width="13.654" height="2.322" transform="translate(26.687 167.194) rotate(-54.432)" fill="#fdb813"/>
    <path id="Trazado_828371" data-name="Trazado 828371" d="M35.972,174.895l-1.409,1.971.09.065Z" transform="translate(-0.93 -4.706)" fill="#fdb813"/>
  </g>
</svg>
