<svg id="Grupo_1076808" data-name="Grupo 1076808" xmlns="http://www.w3.org/2000/svg" xmlns:xlink="http://www.w3.org/1999/xlink" width="400" height="337.138" viewBox="0 0 400 337.138">
  <defs>
    <clipPath id="clip-path">
      <rect id="Rectángulo_380315" data-name="Rectángulo 380315" width="400" height="337.138" fill="none"/>
    </clipPath>
    <clipPath id="clip-path-3">
      <rect id="Rectángulo_380231" data-name="Rectángulo 380231" width="75.443" height="63.787" fill="none"/>
    </clipPath>
    <clipPath id="clip-path-4">
      <rect id="Rectángulo_380232" data-name="Rectángulo 380232" width="58.544" height="35.373" fill="none"/>
    </clipPath>
    <clipPath id="clip-path-6">
      <rect id="Rectángulo_380249" data-name="Rectángulo 380249" width="337.793" height="288.581" fill="none"/>
    </clipPath>
    <clipPath id="clip-path-8">
      <rect id="Rectángulo_380253" data-name="Rectángulo 380253" width="35.397" height="61.934" fill="none"/>
    </clipPath>
    <clipPath id="clip-path-14">
      <rect id="Rectángulo_380272" data-name="Rectángulo 380272" width="3.517" height="8.773" fill="none"/>
    </clipPath>
    <clipPath id="clip-path-15">
      <rect id="Rectángulo_380275" data-name="Rectángulo 380275" width="75.535" height="20.015" fill="none"/>
    </clipPath>
    <clipPath id="clip-path-16">
      <rect id="Rectángulo_380313" data-name="Rectángulo 380313" width="2.254" height="4.556" fill="none"/>
    </clipPath>
  </defs>
  <g id="Grupo_1076807" data-name="Grupo 1076807" clip-path="url(#clip-path)">
    <g id="Grupo_1076772" data-name="Grupo 1076772">
      <g id="Grupo_1076771" data-name="Grupo 1076771" clip-path="url(#clip-path)">
        <path id="Trazado_827885" data-name="Trazado 827885" d="M63.7,257.372c19.5,0,35.362-15.411,35.362-34.354S83.2,188.666,63.7,188.666s-35.362,15.411-35.362,34.353S44.2,257.372,63.7,257.372m0-67.177c18.631,0,33.789,14.725,33.789,32.824S82.327,255.844,63.7,255.844s-33.788-14.725-33.788-32.825S45.065,190.195,63.7,190.195" transform="translate(273.834 -13.319)" fill="#ebebeb"/>
        <path id="Trazado_827886" data-name="Trazado 827886" d="M65.3,261.86q.808-.033,1.608-.1l-.131-1.523q-.768.061-1.545.094Zm-5.63-.139.147-1.521q-.772-.071-1.537-.172l-.211,1.516q.8.1,1.6.178m12.806-.789q.788-.173,1.564-.376l-.409-1.476q-.745.194-1.5.361Zm-19.924-.5.428-1.471q-.748-.2-1.482-.437l-.487,1.454q.765.243,1.541.454m26.817-1.667q.743-.309,1.472-.645l-.674-1.381c-.468.216-.939.422-1.416.619Zm-33.58-.842.69-1.375q-.695-.329-1.373-.685l-.748,1.345q.707.371,1.431.715m39.961-2.492q.673-.432,1.328-.889l-.917-1.242q-.63.439-1.277.853ZM39.6,254.28l.932-1.232c-.416-.3-.825-.6-1.227-.914l-.983,1.2q.63.487,1.278.951m51.811-3.232q.583-.541,1.143-1.1l-1.131-1.064q-.538.541-1.1,1.06Zm-57.235-1.423,1.141-1.051q-.532-.546-1.042-1.113l-1.184,1.007q.53.588,1.085,1.158m62.005-3.865q.475-.632.923-1.281l-1.306-.852q-.432.625-.888,1.231Zm-66.5-1.654L31,243.269q-.425-.629-.823-1.276l-1.349.786q.415.672.854,1.327m70.221-4.371q.35-.7.673-1.419l-1.443-.611c-.206.459-.422.914-.645,1.363Zm-73.625-1.84,1.448-.6q-.3-.693-.573-1.4l-1.474.538q.284.736.6,1.457m76.181-4.737q.215-.753.4-1.517l-1.533-.349q-.177.735-.384,1.457ZM24.08,231.186l1.536-.334q-.168-.731-.305-1.472l-1.549.27q.143.774.319,1.535m79.681-4.947q.072-.777.114-1.561L102.3,224.6q-.04.754-.109,1.5Zm-80.609-2.027,1.572-.06q-.03-.749-.03-1.5v-.156H23.121v.146c0,.534.011,1.056.032,1.575m79.057-4.872,1.567-.134q-.07-.782-.171-1.555l-1.561.192q.1.743.166,1.5m-77.119-2.092q.111-.747.251-1.484l-1.548-.278q-.145.767-.261,1.544Zm75.9-4.562,1.518-.4q-.214-.756-.456-1.5l-1.5.463q.234.715.438,1.441m-74.3-2.014q.247-.714.521-1.416l-1.47-.543q-.286.731-.542,1.474Zm71.864-4.321,1.42-.661q-.35-.708-.728-1.4l-1.389.718q.363.664.7,1.344m-69.07-1.865q.373-.659.772-1.3l-1.348-.789q-.415.668-.8,1.353Zm65.509-3.944,1.273-.9q-.474-.634-.971-1.249l-1.237.945q.479.591.935,1.2m-61.625-1.658q.489-.584,1-1.149l-1.182-1.009q-.53.586-1.039,1.192Zm57.055-3.443,1.09-1.1q-.581-.542-1.183-1.061l-1.044,1.144q.58.5,1.138,1.02m-52.2-1.405q.587-.489,1.194-.958l-.978-1.2q-.631.487-1.243,1Zm46.776-2.824.872-1.272q-.669-.432-1.358-.839L83.69,190.4q.662.39,1.3.806M43.879,190.1q.666-.381,1.352-.736l-.742-1.348q-.712.369-1.406.767Zm35-2.11.624-1.4q-.736-.308-1.487-.588l-.566,1.426q.722.27,1.429.567m-28.708-.778q.728-.258,1.469-.49l-.481-1.455q-.771.24-1.528.51Zm22.1-1.326.353-1.49q-.782-.174-1.577-.321l-.291,1.5q.762.139,1.514.308M56.9,185.471q.759-.127,1.53-.225l-.2-1.516q-.8.1-1.592.234Zm8.483-.5.074-1.527q-.8-.036-1.609-.043l-.012,1.528q.776.007,1.548.042" transform="translate(274.006 -12.947)" fill="#ebebeb"/>
        <path id="Trazado_827887" data-name="Trazado 827887" d="M69.784,245.256h-10.9V229.289H42.447V218.7H58.885V202.733h10.9V218.7H86.22v10.588H69.784Z" transform="translate(273.169 -14.312)" fill="#ebebeb"/>
        <path id="Trazado_827888" data-name="Trazado 827888" d="M329.636,71.879a68.306,68.306,0,0,0,22.057,18.593,68.342,68.342,0,0,0,22.048-18.593c7.764-9.98,7.381-25.608-3.726-28.988-12.284-3.738-18.321,14.221-18.321,14.221s-6.125-18.077-18.331-14.221c-11.069,3.5-11.49,19.008-3.726,28.988" transform="translate(-289.351 -2.99)" fill="#ebebeb"/>
        <path id="Trazado_827889" data-name="Trazado 827889" d="M360.367,83.392l3.349-13.543,2.184,4.774h13.525V73.094h-12.5l-3.654-7.985-2.611,10.559-3.69-21.879L353.71,71.1l-2.576-7.228L347.072,75.7l-.9-2.613H323.958v1.529H345.04l2.034,5.91,4.088-11.906,3.018,8.473,2.7-14.355Z" transform="translate(-289.361 -3.797)" fill="#fff"/>
        <path id="Trazado_827890" data-name="Trazado 827890" d="M351.369,95.819c19.5,0,35.362-15.411,35.362-34.354s-15.863-34.353-35.362-34.353-35.362,15.41-35.362,34.353,15.863,34.354,35.362,34.354m0-67.178c18.631,0,33.788,14.725,33.788,32.824S370,94.291,351.369,94.291,317.58,79.566,317.58,61.466s15.158-32.824,33.789-32.824" transform="translate(-289.062 -1.914)" fill="#ebebeb"/>
        <path id="Trazado_827891" data-name="Trazado 827891" d="M352.971,100.307q.806-.033,1.606-.1l-.129-1.524q-.769.063-1.546.095Zm-5.632-.138.151-1.521q-.773-.072-1.54-.172l-.209,1.515q.794.1,1.6.178m12.808-.79q.786-.174,1.563-.376l-.408-1.477q-.746.194-1.5.362Zm-19.924-.5.426-1.472c-.5-.136-.991-.282-1.48-.437l-.488,1.455q.765.241,1.542.454m26.817-1.667q.743-.308,1.471-.644l-.674-1.381q-.7.322-1.415.619Zm-33.58-.844.69-1.374q-.695-.329-1.373-.686l-.748,1.346q.707.369,1.431.714m39.96-2.49q.674-.432,1.328-.889l-.918-1.242q-.629.439-1.276.853Zm-46.147-1.152L328.2,91.5q-.623-.445-1.226-.915l-.983,1.2q.63.488,1.278.952M379.085,89.5q.583-.541,1.143-1.1L379.1,87.33q-.538.541-1.1,1.06Zm-57.236-1.424,1.142-1.052q-.532-.546-1.042-1.113l-1.185,1.007q.531.588,1.085,1.158m62.006-3.864q.474-.632.922-1.281l-1.306-.852q-.432.625-.887,1.231Zm-66.5-1.655,1.316-.836q-.423-.63-.823-1.277l-1.349.786q.415.672.855,1.327m70.221-4.37q.35-.7.672-1.419l-1.443-.61q-.309.687-.645,1.362Zm-73.626-1.841,1.449-.6q-.3-.691-.574-1.4l-1.473.537q.284.736.6,1.457m76.182-4.736q.214-.751.4-1.517L389,69.74q-.178.733-.385,1.456Zm-78.384-1.972,1.535-.333q-.168-.732-.305-1.473l-1.549.27c.1.516.2,1.028.32,1.535m79.682-4.947q.073-.777.114-1.56l-1.572-.078q-.04.754-.11,1.5Zm-80.611-2.027,1.573-.06q-.03-.749-.031-1.5v-.158h-1.574v.148c0,.534.01,1.056.031,1.575m79.058-4.871,1.567-.134q-.07-.782-.171-1.555l-1.561.192q.1.743.165,1.5m-77.12-2.095q.111-.746.251-1.483l-1.547-.278q-.146.767-.262,1.544Zm75.9-4.56,1.518-.4q-.214-.756-.456-1.5l-1.5.463q.234.715.438,1.442m-74.3-2.016q.245-.715.52-1.416l-1.47-.543q-.286.731-.542,1.474ZM386.226,44.8l1.421-.661q-.352-.71-.729-1.4l-1.389.718q.363.664.7,1.344m-69.071-1.867q.373-.659.773-1.3l-1.348-.79q-.415.668-.8,1.353Zm65.51-3.943,1.273-.9q-.474-.633-.971-1.249l-1.237.946q.479.591.935,1.2m-61.625-1.659q.489-.584,1-1.149l-1.182-1.009q-.53.586-1.038,1.192Zm57.055-3.442,1.09-1.1q-.58-.542-1.183-1.061l-1.044,1.143q.578.5,1.138,1.02m-52.2-1.405q.586-.491,1.194-.958l-.978-1.2q-.631.487-1.243,1Zm46.776-2.824.872-1.273q-.669-.432-1.358-.839l-.818,1.306q.662.392,1.3.807m-41.115-1.111q.666-.381,1.352-.736l-.742-1.349q-.712.371-1.406.768Zm35-2.11.624-1.4q-.736-.308-1.487-.588l-.565,1.426c.48.18.958.369,1.428.567m-28.708-.778q.728-.258,1.469-.49l-.481-1.455q-.771.24-1.528.509Zm22.1-1.325.353-1.491q-.782-.174-1.577-.32l-.291,1.5q.762.139,1.514.309m-15.376-.416q.759-.127,1.531-.225l-.2-1.516q-.8.1-1.592.234Zm8.483-.5.074-1.527q-.8-.036-1.609-.043l-.012,1.528q.776.007,1.548.042" transform="translate(-288.889 -1.542)" fill="#ebebeb"/>
        <path id="Trazado_827892" data-name="Trazado 827892" d="M15.163,43.256c0,23.889,19.935,43.256,44.527,43.256s44.526-19.366,44.526-43.256S84.28,0,59.69,0,15.163,19.366,15.163,43.256" transform="translate(281.278)" fill="#ebebeb"/>
        <path id="Trazado_827893" data-name="Trazado 827893" d="M19.426,44.443c0,22.795,19.022,41.274,42.487,41.274S104.4,67.238,104.4,44.443,85.378,3.169,61.913,3.169,19.426,21.648,19.426,44.443" transform="translate(277.015 -0.224)" fill="#dbdbdb"/>
        <path id="Trazado_827894" data-name="Trazado 827894" d="M22.23,44.641c0,21.356,17.821,38.668,39.8,38.668s39.8-17.312,39.8-38.668S84.018,5.973,62.034,5.973s-39.8,17.312-39.8,38.668" transform="translate(276.894 -0.422)" fill="#fff"/>
        <g id="Grupo_1076767" data-name="Grupo 1076767" transform="translate(300.026 9.989)" opacity="0.5">
          <g id="Grupo_1076766" data-name="Grupo 1076766">
            <g id="Grupo_1076765" data-name="Grupo 1076765" clip-path="url(#clip-path-3)">
              <path id="Trazado_827895" data-name="Trazado 827895" d="M25.64,36.771C43.765,47.44,73.555,64.942,90.206,74.536a38.823,38.823,0,0,0,10.877-14.208L46.014,10.748A38.878,38.878,0,0,0,25.64,36.771" transform="translate(-25.639 -10.748)" fill="#ebebeb"/>
            </g>
          </g>
        </g>
        <g id="Grupo_1076770" data-name="Grupo 1076770" transform="translate(299.153 45.569)" opacity="0.5">
          <g id="Grupo_1076769" data-name="Grupo 1076769">
            <g id="Grupo_1076768" data-name="Grupo 1076768" clip-path="url(#clip-path-4)">
              <path id="Trazado_827896" data-name="Trazado 827896" d="M44.216,49.03a37.394,37.394,0,0,0,2.631,12.565L96.491,84.4a40.066,40.066,0,0,0,6.269-2.617c-15-8.42-42.4-23.736-58.545-32.756" transform="translate(-44.216 -49.03)" fill="#ebebeb"/>
            </g>
          </g>
        </g>
        <rect id="Rectángulo_380233" data-name="Rectángulo 380233" width="0.769" height="5.861" transform="translate(338.544 8.358)" fill="#c7c7c7"/>
        <path id="Trazado_828073" data-name="Trazado 828073" d="M.189.028.953.019l-.075,5.9-.764.01Z" transform="translate(354.851 18.544) rotate(-150.004)" fill="#c7c7c7"/>
        <path id="Trazado_828074" data-name="Trazado 828074" d="M.193.028.945.018.871,6.008l-.752.01Z" transform="translate(365.937 29.724) rotate(-120.001)" fill="#c7c7c7"/>
        <rect id="Rectángulo_380236" data-name="Rectángulo 380236" width="6.033" height="0.747" transform="translate(369.81 43.846)" fill="#c7c7c7"/>
        <path id="Trazado_828075" data-name="Trazado 828075" d="M.028.193,6.018.118l-.01.753L.018.946Z" transform="translate(370.632 62.654) rotate(-149.989)" fill="#c7c7c7"/>
        <path id="Trazado_828076" data-name="Trazado 828076" d="M.028.188l5.9-.075-.01.764L.019.953Z" transform="translate(356.901 75.582) rotate(-119.973)" fill="#c7c7c7"/>
        <rect id="Rectángulo_380239" data-name="Rectángulo 380239" width="0.769" height="5.861" transform="translate(338.544 74.22)" fill="#c7c7c7"/>
        <path id="Trazado_828077" data-name="Trazado 828077" d="M.189.028.953.019l-.075,5.9-.764.01Z" transform="matrix(-0.866, -0.5, 0.5, -0.866, 320.953, 75.581)" fill="#c7c7c7"/>
        <path id="Trazado_828078" data-name="Trazado 828078" d="M.193.028.946.018.871,6.008l-.753.01Z" transform="translate(307.223 62.654) rotate(-120.001)" fill="#c7c7c7"/>
        <rect id="Rectángulo_380242" data-name="Rectángulo 380242" width="6.033" height="0.747" transform="translate(302.014 43.846)" fill="#c7c7c7"/>
        <path id="Trazado_828079" data-name="Trazado 828079" d="M.028.193,6.018.118l-.01.753L.018.945Z" transform="translate(311.918 29.724) rotate(-149.989)" fill="#c7c7c7"/>
        <path id="Trazado_828080" data-name="Trazado 828080" d="M.028.188l5.9-.075-.01.764L.019.953Z" transform="translate(323.004 18.545) rotate(-119.973)" fill="#c7c7c7"/>
        <path id="Trazado_827897" data-name="Trazado 827897" d="M63.169,11.848,61.861,47.664l3.776-.045L64.2,11.836Z" transform="translate(275.18 -0.836)" fill="#c7c7c7"/>
        <path id="Trazado_827898" data-name="Trazado 827898" d="M60.632,34.072l24.8,15.381,1.8-3.223L61.121,33.2Z" transform="translate(254.753 -2.343)" fill="#a6a6a6"/>
        <path id="Trazado_827899" data-name="Trazado 827899" d="M62.488,47.483a1.289,1.289,0,1,0,1.289-1.252,1.271,1.271,0,0,0-1.289,1.252" transform="translate(275.151 -3.264)" fill="#c7c7c7"/>
        <path id="Trazado_827900" data-name="Trazado 827900" d="M15.036,270.967l12.557.26,6.373.1c2.13.043,4.27.033,6.4.051l.425,0,0-.418.052-10.4,0-.467-.48,0-12.667.058c-4.222.006-8.445.1-12.667.152l-.264,0,0,.252c.018,1.764.082,3.519.125,5.255Zm0,0,.136-5.255c.043-1.732.107-3.443.125-5.144l-.261.253c4.222.047,8.445.149,12.667.152l12.667.06-.477-.465.052,10.4.426-.414c-2.087.018-4.168.007-6.262.051l-6.294.1Z" transform="translate(345.017 -18.361)" fill="#ebebeb"/>
        <path id="Trazado_827901" data-name="Trazado 827901" d="M.264,285.077l12.557.259,6.373.1c2.13.044,4.27.034,6.4.051l.425,0,0-.417.052-10.4,0-.467-.48,0-12.667.059c-4.222,0-8.444.1-12.667.151l-.264,0,0,.251c.018,1.765.082,3.52.125,5.255Zm0,0L.4,279.822c.043-1.731.107-3.443.125-5.145l-.261.254c4.223.047,8.445.148,12.667.152l12.667.059-.477-.465.052,10.4.426-.414c-2.087.017-4.168.007-6.262.051l-6.294.1Z" transform="translate(373.922 -19.357)" fill="#ebebeb"/>
        <path id="Trazado_827902" data-name="Trazado 827902" d="M271.042,146.4l12.557.259,6.373.1c2.129.044,4.27.034,6.4.051l.425,0,0-.417.052-10.4,0-.467-.48,0-12.667.059c-4.222,0-8.445.1-12.667.151l-.264,0,0,.251c.018,1.765.082,3.52.125,5.255Zm0,0,.136-5.255c.043-1.731.107-3.443.125-5.145l-.261.254c4.222.047,8.445.148,12.667.152l12.667.059L295.9,136l.052,10.4.426-.415c-2.087.017-4.168.007-6.262.051l-6.294.1Z" transform="translate(-155.915 -9.568)" fill="#ebebeb"/>
        <path id="Trazado_827903" data-name="Trazado 827903" d="M256.27,160.514l12.557.259,6.373.1c2.13.044,4.27.034,6.4.051l.425,0,0-.417.052-10.4,0-.467-.48,0-12.667.059c-4.222,0-8.444.1-12.667.152l-.264,0,0,.25c.018,1.765.082,3.52.125,5.255Zm0,0,.136-5.255c.043-1.731.107-3.443.125-5.145l-.261.254c4.223.047,8.445.148,12.667.152l12.667.059-.477-.465.052,10.4.426-.415c-2.087.017-4.168.007-6.262.051l-6.294.1Z" transform="translate(-127.01 -10.564)" fill="#ebebeb"/>
        <path id="Trazado_827904" data-name="Trazado 827904" d="M241.555,146.4l12.557.259,6.373.1c2.13.044,4.27.034,6.405.051l.424,0,0-.417.052-10.4,0-.467-.48,0-12.668.059c-4.222,0-8.444.1-12.667.151l-.263,0,0,.251c.018,1.765.082,3.52.125,5.255Zm0,0,.136-5.255c.043-1.731.107-3.443.125-5.145l-.261.254c4.223.047,8.445.148,12.667.152l12.668.059-.478-.465.052,10.4.427-.415c-2.088.017-4.169.007-6.263.051l-6.294.1Z" transform="translate(-98.219 -9.568)" fill="#ebebeb"/>
        <path id="Trazado_827905" data-name="Trazado 827905" d="M391.1,285.077l12.557.259,6.373.1c2.13.044,4.27.034,6.4.051l.425,0,0-.417.052-10.4,0-.467-.48,0-12.667.059c-4.222,0-8.445.1-12.667.151l-.264,0,0,.251c.018,1.765.082,3.52.125,5.255Zm0,0,.136-5.255c.043-1.731.107-3.443.125-5.145l-.261.254c4.222.047,8.445.148,12.667.152l12.667.059-.477-.465.052,10.4.426-.414c-2.087.017-4.168.007-6.262.051l-6.294.1Z" transform="translate(-390.839 -19.357)" fill="#ebebeb"/>
        <path id="Trazado_827906" data-name="Trazado 827906" d="M376.33,11.4l12.557.259,6.373.1c2.13.044,4.27.034,6.4.051l.425,0,0-.417L402.142,1l0-.467-.48,0L389,.592c-4.222,0-8.445.1-12.667.151l-.264,0,0,.251c.018,1.765.082,3.52.125,5.255Zm0,0,.136-5.255c.043-1.731.107-3.443.125-5.145l-.261.254c4.222.047,8.445.148,12.667.152l12.667.059L401.187,1l.052,10.4.426-.415c-2.087.017-4.168.007-6.262.051l-6.294.1Z" transform="translate(-361.934 -0.037)" fill="#ebebeb"/>
        <path id="Trazado_827907" data-name="Trazado 827907" d="M391.1,25.508l12.557.259,6.373.1c2.13.044,4.27.034,6.4.051l.425,0,0-.417.052-10.4,0-.467-.48,0-12.667.059c-4.222,0-8.445.1-12.667.151l-.264,0,0,.251c.018,1.765.082,3.52.125,5.255Zm0,0,.136-5.255c.043-1.731.107-3.443.125-5.145l-.261.254c4.222.047,8.445.148,12.667.152l12.667.059-.477-.465.052,10.4.426-.415c-2.087.017-4.168.007-6.262.051l-6.294.1Z" transform="translate(-390.839 -1.034)" fill="#ebebeb"/>
        <path id="Trazado_827908" data-name="Trazado 827908" d="M15.036,11.4l12.557.259,6.373.1c2.13.044,4.27.034,6.4.051l.425,0,0-.417L40.848,1l0-.467-.48,0L27.7.592c-4.222,0-8.445.1-12.667.151l-.264,0,0,.251c.018,1.765.082,3.52.125,5.255Zm0,0,.136-5.255C15.215,4.411,15.279,2.7,15.3,1l-.261.254C19.258,1.3,23.481,1.4,27.7,1.4l12.667.059L39.893,1l.052,10.4.426-.415c-2.087.017-4.168.007-6.262.051l-6.294.1Z" transform="translate(345.017 -0.037)" fill="#ebebeb"/>
      </g>
    </g>
    <g id="Grupo_1076774" data-name="Grupo 1076774">
      <g id="Grupo_1076773" data-name="Grupo 1076773" clip-path="url(#clip-path)">
        <path id="Trazado_827909" data-name="Trazado 827909" d="M11.15,338.207c0,11.764,84.816,21.3,189.441,21.3s189.441-9.538,189.441-21.3-84.815-21.3-189.441-21.3S11.15,326.443,11.15,338.207" transform="translate(-0.7 -22.371)" fill="#ebebeb"/>
      </g>
    </g>
    <path id="Trazado_827910" data-name="Trazado 827910" d="M55.61,162.153H67.645V149.539H80.631V137.846H67.645V125.231H55.61v12.615H42.624v11.693H55.61Zm10.323-1.664h-8.61V147.875H44.337V139.51H57.322V126.9h8.61V139.51H78.917v8.365H65.933Z" transform="translate(278.59 -8.84)" fill="#ffae7e"/>
    <path id="Trazado_827911" data-name="Trazado 827911" d="M360.639,251.852h12.036V239.238H385.66V227.546H372.674V214.93H360.639v12.616H347.653v11.692h12.986Zm10.323-1.664h-8.611V237.574H349.366v-8.365h12.986V216.595h8.611v12.615h12.985v8.365H370.962Z" transform="translate(-318.266 -15.173)" fill="#ffae7e"/>
    <path id="Trazado_827912" data-name="Trazado 827912" d="M267.975,22.367v11.7h12.988V46.681h12.031V34.063h12.988v-11.7H292.995V9.758H280.964V22.367Z" transform="translate(-162.36 -0.689)" fill="#ffae7e"/>
    <g id="Grupo_1076776" data-name="Grupo 1076776" transform="translate(6.975 6.136)">
      <g id="Grupo_1076775" data-name="Grupo 1076775" clip-path="url(#clip-path-6)">
        <path id="Trazado_827913" data-name="Trazado 827913" d="M184.408,25.87c-2.5-.078-12.949-2.931-21.6,5.372-8.188,7.856-15.005,34.566-17.412,40.24s-10.52,5.326-13.523,11.884c-2.583,5.64,1.476,8.49,1.219,12.883-.2,3.407-4.5,7.9-2.171,13.343,2.12,4.955,7.315,4.784,10.124,6.668s3.578,9.02,8.9,11.739,11.126-1.5,14.1-1,5.059,9.947,14.934,10.682,14.01-6.841,18.3-7.8,13.938,3.339,19.355-.827,7.284-10.568,9.757-12.646,6.751-1.02,10.25-6.175-1.24-9.51-1.2-14.447c.031-3.438,3.609-6.046,2.294-11.511-1.807-7.514-10.939-7.386-13.135-15.152-1.722-6.091-3.152-31.641-17.513-40.107-9.918-5.848-22.682-3.149-22.682-3.149" transform="translate(30.406 -7.918)" fill="#263238"/>
        <path id="Trazado_827914" data-name="Trazado 827914" d="M244.446,73.517a8.734,8.734,0,0,1-3.127,2.769l-3.611,2.171a26.475,26.475,0,0,0-6.56,4.89,8.119,8.119,0,0,0-2.124,7.043,12.337,12.337,0,0,0,1.5,3.6,14.529,14.529,0,0,1,1.815,3.969,6.915,6.915,0,0,1-1.128,4.391c-.67,1.244-1.378,2.415-1.965,3.621-1.2,2.376-1.836,5.012-.969,7.458a5.635,5.635,0,0,0,2.248,2.961,10.784,10.784,0,0,0,3.755,1.421c1.353.308,2.755.481,4.156.721a7.262,7.262,0,0,1,3.914,1.528,7.722,7.722,0,0,0-3.97-1.116c-1.4-.12-2.819-.175-4.245-.375a11.515,11.515,0,0,1-4.165-1.345,6.786,6.786,0,0,1-2.866-3.391c-1.221-2.8-.4-5.967.807-8.464.6-1.286,1.3-2.5,1.921-3.7a5.586,5.586,0,0,0,.917-3.44c-.481-2.289-2.675-4.614-3.166-7.572a9.069,9.069,0,0,1,2.647-8.119,27.121,27.121,0,0,1,7.092-4.751l3.781-1.86a9.555,9.555,0,0,0,3.344-2.413" transform="translate(-68.121 -11.326)" fill="#263238"/>
        <path id="Trazado_827915" data-name="Trazado 827915" d="M127.305,46.664c1.974,4.566,2.862,9.46,4.231,14.168.687,2.354,1.292,4.733,2.147,7A16.093,16.093,0,0,0,135.21,71a2.278,2.278,0,0,0,.49.623,2.788,2.788,0,0,0,.6.532c.48.351,1,.678,1.522,1a73.138,73.138,0,0,1,6.35,4.161,12.6,12.6,0,0,1,4.61,6.194,7.623,7.623,0,0,1,.154,3.919,10.017,10.017,0,0,1-1.735,3.436c-1.521,1.976-2.976,3.971-3.456,6.432.1-2.506,1.512-4.776,2.787-6.846a9.337,9.337,0,0,0,1.4-3.227,6.546,6.546,0,0,0-.342-3.352,12.258,12.258,0,0,0-4.341-5.437c-1.934-1.471-4.133-2.63-6.309-3.96-.538-.345-1.075-.7-1.6-1.1a5.432,5.432,0,0,1-1.429-1.562A17.3,17.3,0,0,1,132.3,68.3a58.809,58.809,0,0,1-1.966-7.192l-1.457-7.248a62.355,62.355,0,0,0-1.569-7.2" transform="translate(122.105 -9.43)" fill="#263238"/>
        <path id="Trazado_827916" data-name="Trazado 827916" d="M172.564,121.958c-1.3,1.229-1.733,3.021-2.413,4.628-.655,1.639-1.313,3.289-2.059,4.917a25.55,25.55,0,0,1-2.7,4.717,11.833,11.833,0,0,1-4.277,3.745c-3.758,1.589-7.756.711-11.152-.453-1.729-.595-3.4-1.274-5.1-1.823a11.55,11.55,0,0,0-5.249-.794,10.806,10.806,0,0,1,5.465.052c1.789.413,3.517.968,5.25,1.409,3.4.9,7.082,1.523,10.093.188a10.625,10.625,0,0,0,3.741-3.209,31.87,31.87,0,0,0,2.817-4.365c.864-1.527,1.64-3.112,2.448-4.694.425-.783.857-1.564,1.326-2.33a5.179,5.179,0,0,1,1.808-1.987" transform="translate(86.887 -14.745)" fill="#263238"/>
        <path id="Trazado_827917" data-name="Trazado 827917" d="M146.041,343.264h82.871l4.927-99.577h-74.05Z" transform="translate(19.466 -23.339)" fill="#37474f"/>
        <path id="Trazado_827918" data-name="Trazado 827918" d="M146.041,243.687l8.754,67.438.01.1.191,1.4.354,2.76.4,3.076.144,1.1.115.883,2.956,22.817h33.007l4.927-99.577Z" transform="translate(56.404 -23.339)" fill="#263238"/>
        <path id="Trazado_827919" data-name="Trazado 827919" d="M208.2,344.824h2.191c.115-.883.22-1.757.335-2.64,2.947-23.217,5.807-46.452,8.295-69.715.23-2.128.459-4.266.679-6.394.038-.335-.555-.4-.6-.065-.2,1.431-.411,2.863-.6,4.294-3.53,24.824-6.908,49.677-10.294,74.52" transform="translate(-25.865 -24.899)" fill="#263238"/>
        <path id="Trazado_827920" data-name="Trazado 827920" d="M90.561,243.607a.286.286,0,0,0,.019.074c.22.995,2.641,11.906,5.836,25.057.172.716.344,1.441.526,2.166,1.416,5.753,2.956,11.841,4.516,17.659,3.368,12.631,6.821,23.951,9.175,27.678a3.688,3.688,0,0,0,1.043,1.18c.765.437,2.392,1.217,4.41,2.138.431.2.88.4,1.339.6.373.167.756.344,1.148.511,4.592,2.045,10.113,4.387,12.667,5.418.01.009.029.009.038.019v.065l.01.13.89,16.952H210.17L201.9,294.9l-9.979-51.294Z" transform="translate(96.213 -23.333)" fill="#37474f"/>
        <path id="Trazado_827921" data-name="Trazado 827921" d="M185.127,256.241c.024-.3.561-.362.558-.042a277.645,277.645,0,0,0,1.482,28.67c.409,4.42,4.07,28.848,11.96,27.067,1.32-.3,1.995-1.561,2.2-3.5.249-2.325-.652-5.179-1.048-7.491-.875-5.114-1.579-10.243-2.031-15.41a136.207,136.207,0,0,1,.321-28.9.255.255,0,0,1,.508.028c-.011,13.347.348,26.67,2.4,39.891.987,6.353,4.281,15.919-2.558,16.9-6.969,1-11.474-15.027-12.324-19.41-2.373-12.23-2.467-25.434-1.472-37.808" transform="translate(13.337 -24.207)" fill="#263238"/>
        <path id="Trazado_827922" data-name="Trazado 827922" d="M188,316.852a40.519,40.519,0,0,1,1.775,5.063,11.2,11.2,0,0,1,.738,4.162c-.031.27-.4.3-.546.113a14.408,14.408,0,0,1-1.833-4.05c-.6-1.566-1.236-3.121-1.789-4.7a.88.88,0,0,1,1.656-.586" transform="translate(24.249 -28.466)" fill="#263238"/>
        <path id="Trazado_827923" data-name="Trazado 827923" d="M339.382,146.179c-7.146,22.635-38.077,103.508-58.82,115.826-13.574,8.062-81.763,12.639-94.876,6.729-7.287-3.285-5.018-56.788,3.566-57.086,10.71-.372,63.331-1.739,69.16-4.444,5.794-2.691,45.136-53.776,60.116-69.255,25.831-26.69,25.614-6.846,20.855,8.23" transform="translate(-122.306 -14.948)" fill="#ad6359"/>
        <path id="Trazado_827924" data-name="Trazado 827924" d="M179.409,207.427l9.721,65.43s55.374,1.581,70.472-10.411c21.516-17.09,52.368-103.508,55.869-117.047,8.291-32.06-10.194-26.707-24.734-11.11-9.444,10.131-46.588,61.955-60.35,71.5-3.9,2.7-50.978,1.639-50.978,1.639" transform="translate(-96.148 -14.742)" fill="#f6f6f6"/>
        <path id="Trazado_827925" data-name="Trazado 827925" d="M309.073,276.456c-1.139-9.71-7.29-49.284-9.215-57.747-.133-.586-.548-.647-.491-.02,2.69,29.18,7.691,48.328,9.31,57.8.04.237.425.217.4-.03" transform="translate(-202.455 -21.542)" fill="#263238"/>
        <path id="Trazado_827926" data-name="Trazado 827926" d="M107.107,210.388,97.854,272.2s103.694,1.485,129.435-.277c0,0-21-115.553-48.674-144.747-13.843-14.6-30.1-13.511-40.457-3.3-2.621,2.583-33.9,42.738-37.192,58.078-2.874,13.536,6.141,28.434,6.141,28.434" transform="translate(72.117 -14.339)" fill="#d0adea"/>
        <path id="Trazado_827927" data-name="Trazado 827927" d="M214.371,210.1a115.649,115.649,0,0,0-16.621-.271c-2.752.191-5.474.5-8.2.873-1.362.185-2.721.324-4.088.458a18.228,18.228,0,0,1-4.3.027.1.1,0,0,0-.033.19,30.844,30.844,0,0,0,4.018.635,30.088,30.088,0,0,0,3.947-.025c2.793-.167,5.575-.46,8.366-.655,5.628-.393,11.255-.785,16.9-.783a.226.226,0,0,0,.013-.447" transform="translate(5.255 -20.935)" fill="#263238"/>
        <path id="Trazado_827928" data-name="Trazado 827928" d="M195.126,217.408a124.346,124.346,0,0,0-13.364-3.009c-2.26-.372-4.522-.613-6.805-.8q-1.635-.132-3.273-.214c-1.2-.063-2.413.033-3.612-.046-.125-.008-.161.178-.033.19,1.129.107,2.244.4,3.366.569s2.254.335,3.38.507c2.256.343,4.506.71,6.765,1.033,4.522.645,9.018,1.333,13.515,2.129.244.044.288-.3.061-.36" transform="translate(37.06 -21.196)" fill="#263238"/>
        <path id="Trazado_827929" data-name="Trazado 827929" d="M82.031,334.448H163.84c-9.548-58.385-21.067-118.183-32.1-148.278-23.784-64.882-43.2-67.363-43.2-67.363v.074c-.105,2.742-2.851,76.286-4.994,154.068-.574,20.614-1.1,41.526-1.521,61.5" transform="translate(150.704 -14.523)" fill="#f6f6f6"/>
        <path id="Trazado_827930" data-name="Trazado 827930" d="M102.42,312.075c.019-2.268.517-12.965.727-15.177v-.009c-.038-.251.1-.753.306-.753,3.052.037,13.643,1.05,24.31,1.05a199.148,199.148,0,0,0,22.8-1.729c.354.1.354,11.906.545,17.612.383,11.906-.182,25.373-2.794,27.845-4.879,4.638-17.881,4.247-21.957,4.21-4.047-.028-18.656-.047-22.072-7.333-1.5-3.216-1.9-19.834-1.866-25.717m1.885,12.082c.172,5.874.364,11.19,2.688,14.248,1.99,2.612,7.606,5.242,20.531,5.233,9.338-.019,17.2-1.664,19.374-4.08,2.583-2.891,2.9-11.2,2.9-16.163-.01-6.85-.029-12.324-.048-19.164-18.053,4.071-37.915,2.063-45.444.585.019.288-.143,14.74,0,19.341m-.048-20.456c23.449,2.928,37.963.483,45.482-.929,0-2.193,0-3.9.038-6.106-3.224.79-14.073,2.045-22.205,2.045-7.568,0-18.685-1.022-23.4-1.571.124,1.812.029,5.734.086,6.562" transform="translate(143.823 -26.993)" fill="#dbdbdb"/>
        <path id="Trazado_827931" data-name="Trazado 827931" d="M73.684,149.671c4.609,18.51,28.273,84.327,34.161,90.036,7.015,6.8,37.584,27.723,48.249-.128,7.386-19.289-42.807-86.895-66.528-108.7-11.592-10.655-23.6-12.21-15.882,18.79" transform="translate(168.04 -14.887)" fill="#f6f6f6"/>
        <path id="Trazado_827932" data-name="Trazado 827932" d="M129.1,187.348c1.429,2.576,3.01,5.07,4.56,7.58-.363-.919-.719-1.84-1.063-2.765-1.492-4.01-2.88-8.057-4.393-12.057-.05-.131.159-.179.214-.059,1.6,3.493,3.29,6.948,4.853,10.46,1.524,3.424,2.9,6.9,4.279,10.378,2.785,7.022,5.607,14.032,8.19,21.124a114.343,114.343,0,0,1,3.928,11.97c.027.11-.145.2-.2.083-1.709-3.361-3.059-6.892-4.442-10.382s-2.751-6.954-4.094-10.443q-2.058-5.341-4.18-10.659c-.709-1.777-1.44-3.548-2.159-5.324a55.2,55.2,0,0,1-5.578-9.869c-.021-.046.062-.08.087-.035" transform="translate(120.707 -18.841)" fill="#263238"/>
        <path id="Trazado_827933" data-name="Trazado 827933" d="M148.262,118.894q3.8,7.859,7.43,15.791c2.384,5.3,4.86,10.565,7.171,15.9l.288.665-.625.411-10.032,6.588.29-1.364c2.721,3.958,5.364,7.966,8.022,11.964l.259.39-.143.429c-2.687,8.1-5.283,16.219-8.107,24.272-2.752,8.076-5.58,16.129-8.544,24.139,2.267-8.223,4.675-16.4,7.155-24.562,2.409-8.18,5.048-16.291,7.593-24.429l.117.819c-2.7-3.97-5.418-7.932-8.057-11.942l-.55-.836.839-.53,10.152-6.412-.336,1.076c-2.277-5.345-4.388-10.756-6.591-16.131q-3.265-8.077-6.332-16.236" transform="translate(91.847 -14.529)" fill="#dbdbdb"/>
        <path id="Trazado_827934" data-name="Trazado 827934" d="M187.647,334.639H217.19c1.751-20.1,3.549-41.117,5.329-61.778,2.535-29.527,5.042-58.339,7.376-82.782a487.622,487.622,0,0,1,11.031-67.587c.134-.567.22-.892.239-.976.01-.009,0-.009,0-.009a12.939,12.939,0,0,0-3.128,2.649.892.892,0,0,1-.1.093c-.1.112-.21.223-.316.344a2.954,2.954,0,0,0-.239.26c-5.08,5.418-13.576,16.5-21.134,27.864-7.29,10.967-13.719,22.2-15.327,28.877-.029.13-.057.251-.086.372-.048.214-.086.418-.124.623a35.032,35.032,0,0,0-.526,5.353v.009a40.184,40.184,0,0,0,5.654,20.9,1.289,1.289,0,0,0,.086.158c.249.409.4.623.4.623l-.019.1-9.625,64.436Z" transform="translate(-27.671 -14.713)" fill="#f6f6f6"/>
        <path id="Trazado_827935" data-name="Trazado 827935" d="M225.3,164.222c2.891-4.483,5.866-8.917,8.707-13.429.079-.126-.124-.278-.219-.156-2.9,3.693-5.727,7.448-8.531,11.211.928-2.016,1.831-4.043,2.667-6.1.095-.232-.244-.43-.36-.193-1.288,2.648-2.452,5.344-3.594,8.051a76.436,76.436,0,0,0-6.624,10.639c-3.95,7.883-5.651,16.51-3.512,25.139a31.342,31.342,0,0,0,2.583,6.874c.771,1.494,3.261,4.723,3.243,4.814-1.62,8.813-2.839,17.727-4.119,26.591-1.3,8.97-2.609,17.939-3.681,26.939-.608,5.094-1,10.23-1.763,15.3-.028.187.267.259.295.072.664-4.42,1.651-8.8,2.458-13.2s1.574-8.819,2.3-13.237c1.477-8.928,2.793-17.883,4.122-26.832.752-5.062,1.576-10.122,2.17-15.2.066-.557-2.29-4.169-2.986-5.554a35.014,35.014,0,0,1-2.276-5.821,31.529,31.529,0,0,1-1.1-12.513c1.008-8.578,5.579-16.213,10.211-23.4" transform="translate(-42.011 -16.767)" fill="#263238"/>
        <path id="Trazado_827936" data-name="Trazado 827936" d="M210.6,122.571q-4.579,6.738-9.3,13.372c-3.175,4.4-6.278,8.861-9.515,13.223l-.067-1.044,7.771,7.91.643.654-.681.641c-3.271,3.08-6.6,6.1-9.919,9.13l.278-.787c1.2,8.2,2.493,16.379,3.564,24.593,1.139,8.206,2.208,16.421,3.143,24.655-1.607-8.136-3.079-16.293-4.481-24.458-1.47-8.156-2.72-16.345-4.058-24.521l-.076-.457.354-.33c3.284-3.064,6.558-6.141,9.892-9.157l-.038,1.3-7.625-8.045-.475-.5.408-.542c3.263-4.343,6.663-8.59,9.987-12.89q5.018-6.428,10.2-12.741" transform="translate(2.65 -14.789)" fill="#dbdbdb"/>
        <path id="Trazado_827937" data-name="Trazado 827937" d="M201.426,132.229c.775-10.995-12.937-15.366-21.411-16.5-10.042-1.342-16.73-.528-21.557,8.93-5.09,9.973-7.762,21.55-9.761,32.464-.373,2.037-3.644,1.529-3.27-.514,2.3-12.58,5.618-36.043,18.514-42.872,11.871-6.285,42.068.374,40.755,19-.145,2.065-3.415,1.537-3.27-.515" transform="translate(49.183 -14.003)" fill="#455a64"/>
        <path id="Trazado_827938" data-name="Trazado 827938" d="M198.874,165.035a7.42,7.42,0,0,0,6.293,8.478,7.585,7.585,0,0,0,8.727-6.114,7.418,7.418,0,0,0-6.293-8.478,7.585,7.585,0,0,0-8.727,6.114" transform="translate(-11.142 -17.348)" fill="#263238"/>
        <path id="Trazado_827939" data-name="Trazado 827939" d="M202,165.729a4.466,4.466,0,0,0,3.789,5.1,4.566,4.566,0,0,0,5.253-3.68,4.466,4.466,0,0,0-3.789-5.1,4.566,4.566,0,0,0-5.253,3.68" transform="translate(-11.278 -17.571)" fill="#ebebeb"/>
        <path id="Trazado_827940" data-name="Trazado 827940" d="M163.171,170.867c-8.379,30.887-7.088,38.432-4.445,41.985a21.077,21.077,0,0,0,7.461,5.852l.962-2.039-.48,1.02.481-1.019a19.027,19.027,0,0,1-6.553-5.128c-1.911-2.567-3.49-9.517,4.806-40.1Z" transform="translate(75.931 -18.198)" fill="#c7c7c7"/>
        <path id="Trazado_827941" data-name="Trazado 827941" d="M153.815,218.08l-1.351,2.369a1.023,1.023,0,0,0,.416,1.407l5.131,2.758a1.084,1.084,0,0,0,1.448-.4l1.35-2.369a1.023,1.023,0,0,0-.416-1.407l-5.13-2.758a1.085,1.085,0,0,0-1.448.4" transform="translate(86.343 -21.493)" fill="#263238"/>
        <path id="Trazado_827942" data-name="Trazado 827942" d="M131.929,171.656c6.306,23.279,7.829,36.021,4.791,40.1a18.911,18.911,0,0,1-6.554,5.125l.961,2.039a21.047,21.047,0,0,0,7.463-5.85c3.616-4.857,2.333-17.021-4.429-41.986Z" transform="translate(127.927 -18.213)" fill="#c7c7c7"/>
        <path id="Trazado_827943" data-name="Trazado 827943" d="M143.562,218.3l1.349,2.372a1.023,1.023,0,0,1-.417,1.406l-5.131,2.754a1.084,1.084,0,0,1-1.448-.4l-1.349-2.369a1.022,1.022,0,0,1,.417-1.406l5.132-2.757a1.084,1.084,0,0,1,1.448.4" transform="translate(117.454 -21.509)" fill="#263238"/>
        <path id="Trazado_827944" data-name="Trazado 827944" d="M160.347,167.329a126.314,126.314,0,0,0-4.12-15.223,13.576,13.576,0,0,0-4.627-5.512c-.455-.044-.255-3.965-.02-7.168.21-2.825.518-6.112-.178-7.023a2.333,2.333,0,0,0-3.17-.158c-.794.832-.838,4.134-.939,6.967-.111,3.21-.338,7.127-.8,7.124a14.89,14.89,0,0,0-4.929,5.082,104.5,104.5,0,0,0-5.51,15.2c-.741,3.311.378,3.72,1.354,4.047,1.382.457,2.261-.457,3.347-4.118,1.721-5.8,3.893-15.572,8.05-15.541V151c4.128.407,5.8,10.754,7.123,16.523.829,3.611,1.613,3.959,3.04,3.646,1-.221,2.032-.631,1.378-3.836" transform="translate(102.535 -15.433)" fill="#263238"/>
        <path id="Trazado_827945" data-name="Trazado 827945" d="M166.225,116.89s-.913,17.9,2.443,18.207c10.325.935,21.808-12.867,22.439-15.045.158-.559-.674-14.464-1.344-25.272-.432-6.953-.8-12.623-.8-12.623L162.58,96.838l3.4,18.712Z" transform="translate(46.355 -11.936)" fill="#ad6359"/>
        <path id="Trazado_827946" data-name="Trazado 827946" d="M164.005,96.838l3.4,18.712a38.94,38.94,0,0,0,23.788-20.77c-.431-6.953-.8-12.624-.8-12.624l-3.326,1.709Z" transform="translate(44.929 -11.936)" fill="#263238"/>
        <path id="Trazado_827947" data-name="Trazado 827947" d="M156.29,63.13c-5.5,32.918,14.172,39.836,21.48,40.98,6.634,1.039,29.359,3.759,38.333-28.431s-5.042-45.08-20.085-48.236S161.792,30.211,156.29,63.13" transform="translate(25.494 -8.02)" fill="#ad6359"/>
        <path id="Trazado_827948" data-name="Trazado 827948" d="M208.27,61.269A22.943,22.943,0,0,0,210.625,61a3.907,3.907,0,0,0,2.348-.719,1.16,1.16,0,0,0,.134-1.442,3.082,3.082,0,0,0-2.908-.948,4.513,4.513,0,0,0-2.925,1.276,1.263,1.263,0,0,0,1,2.1" transform="translate(-18.239 -10.221)" fill="#263238"/>
        <path id="Trazado_827949" data-name="Trazado 827949" d="M191.13,64.31a22.866,22.866,0,0,1-2.266-.678,3.872,3.872,0,0,1-2.176-1.12,1.159,1.159,0,0,1,.138-1.442,3.1,3.1,0,0,1,3.037-.422,4.452,4.452,0,0,1,2.638,1.769,1.273,1.273,0,0,1-1.371,1.893" transform="translate(21.882 -10.403)" fill="#263238"/>
        <path id="Trazado_827950" data-name="Trazado 827950" d="M193.349,72.673c.029-.084.17.127.156.219-.341,2.247-.341,4.877,1.671,5.861.062.031.042.143-.033.124-2.523-.637-2.487-4.127-1.794-6.2" transform="translate(13.217 -11.265)" fill="#263238"/>
        <path id="Trazado_827951" data-name="Trazado 827951" d="M192.359,70.388c3.768.141,3.2,7.451-.291,7.32-3.435-.129-2.867-7.438.291-7.32" transform="translate(16.56 -11.105)" fill="#263238"/>
        <path id="Trazado_827952" data-name="Trazado 827952" d="M186.755,70.917c.625.461,1.212,1.239,2,1.373.91.155,1.662-.56,2.318-1.251.068-.072.127,0,.122.094-.087,1.4-.754,2.8-2.315,2.893-1.425.087-2.341-1.227-2.591-2.662-.047-.266.216-.634.468-.447" transform="translate(23.612 -11.139)" fill="#263238"/>
        <path id="Trazado_827953" data-name="Trazado 827953" d="M211.185,70.862c-.012-.087-.189.095-.193.189-.084,2.27-.574,4.856-2.736,5.47-.067.019-.068.133.011.127,2.6-.182,3.214-3.622,2.919-5.786" transform="translate(-17.423 -11.137)" fill="#263238"/>
        <path id="Trazado_827954" data-name="Trazado 827954" d="M211.514,68.168c-3.731-.523-4.535,6.765-1.078,7.25,3.4.477,4.206-6.812,1.078-7.25" transform="translate(-19.67 -10.946)" fill="#263238"/>
        <path id="Trazado_827955" data-name="Trazado 827955" d="M215.584,68.45c-.635.324-1.3.966-2.013.937-.826-.033-1.346-.884-1.787-1.694-.046-.084-.112-.029-.125.067-.192,1.389.122,2.89,1.47,3.3,1.229.375,2.285-.724,2.779-2.076.092-.25-.068-.664-.323-.533" transform="translate(-25.357 -10.912)" fill="#263238"/>
        <path id="Trazado_827956" data-name="Trazado 827956" d="M201.3,91.763c-.576.515-1.157,1.231-2.006,1.275a6.32,6.32,0,0,1-2.494-.644.08.08,0,0,0-.1.113,3.183,3.183,0,0,0,2.928,1.319,2.45,2.45,0,0,0,1.9-1.954c.039-.131-.138-.185-.222-.11" transform="translate(3.323 -12.611)" fill="#263238"/>
        <path id="Trazado_827957" data-name="Trazado 827957" d="M201.992,80.412s-.784,3.337-.928,4.931c-.012.15.378.254.932.333.026.01.039.021.064.007a7.975,7.975,0,0,0,7.828-2.187c.127-.147-.066-.328-.224-.242a12.1,12.1,0,0,1-7.3,1.378c-.076-.452,1.54-5.673,1.282-5.714a14.719,14.719,0,0,0-3.8.5c1.426-7,4-13.718,5.308-20.708a.225.225,0,0,0-.419-.139c-3.207,6.858-5.029,14.877-6.693,22.068-.216.894,3.268-.016,3.949-.231" transform="translate(-6.366 -10.263)" fill="#263238"/>
        <path id="Trazado_827958" data-name="Trazado 827958" d="M197.371,87.258a7.789,7.789,0,0,0,3.036,2.5,3.63,3.63,0,0,0,2.139.221c1.569-.33,1.67-1.711,1.439-2.907a8.016,8.016,0,0,0-.614-1.841,10.339,10.339,0,0,1-6,2.028" transform="translate(0.117 -12.153)" fill="#263238"/>
        <path id="Trazado_827959" data-name="Trazado 827959" d="M197.37,89.9a3.629,3.629,0,0,0,2.139.221c1.569-.331,1.67-1.712,1.439-2.908-1.67.1-3.367,1.123-3.578,2.687" transform="translate(3.155 -12.292)" fill="#ff99ba"/>
        <path id="Trazado_827960" data-name="Trazado 827960" d="M211.2,76.851A13.687,13.687,0,0,1,203.228,65.7a36.635,36.635,0,0,1-15.092-11.689c.234.687,1.916,5.639,2.857,8.135-21.782-3.851-28.594-20-28.594-20-7.024,6.875-8.412,11.258-9.424,13.446,0,0-.222-12.969,6.6-21.686a20.092,20.092,0,0,1,20.4-7.325,28.137,28.137,0,0,1,29.5,7.46c14.208,14.9,1.715,42.8,1.715,42.8" transform="translate(30.399 -7.91)" fill="#263238"/>
        <path id="Trazado_827961" data-name="Trazado 827961" d="M197.81,59.759a40.92,40.92,0,0,0,11.183,3.931c.032.007.039-.04.009-.048a34.308,34.308,0,0,1-16.02-9.31,31.452,31.452,0,0,1-4.727-6.354,21.341,21.341,0,0,1-2.931-8.048.169.169,0,0,0-.336.03,24.817,24.817,0,0,0,1.767,8.324,23.183,23.183,0,0,0,4.869,6.976,27.414,27.414,0,0,0,6.187,4.5" transform="translate(7.022 -8.945)" fill="#263238"/>
        <path id="Trazado_827962" data-name="Trazado 827962" d="M189.458,84.176a10.7,10.7,0,0,0,10.568-7.608,10.389,10.389,0,0,0-7.439-12.827,10.77,10.77,0,0,0-13.2,7.226h0a10.388,10.388,0,0,0,7.438,12.825,11.022,11.022,0,0,0,2.636.383m.46-19.426a9.506,9.506,0,0,1,2.282.331,9,9,0,0,1,6.446,11.112,9.331,9.331,0,0,1-11.438,6.26,9,9,0,0,1-6.445-11.111,9.273,9.273,0,0,1,9.155-6.591" transform="translate(21.361 -10.608)" fill="#d5fff5"/>
        <path id="Trazado_827963" data-name="Trazado 827963" d="M213.89,80.464c4.1.091,7.914-3.9,8.695-9.283a12.111,12.111,0,0,0-1.2-7.513,7.074,7.074,0,0,0-5.208-3.876,7.187,7.187,0,0,0-6.109,2.327,12.28,12.28,0,0,0-3.284,6.9c-.823,5.683,2.049,10.792,6.4,11.389a6.383,6.383,0,0,0,.7.056m1.546-19.336a4.846,4.846,0,0,1,.542.043,5.7,5.7,0,0,1,4.145,3.15,10.784,10.784,0,0,1,1.044,6.667c-.716,4.923-4.191,8.537-7.777,8.042s-5.9-4.892-5.187-9.815a10.914,10.914,0,0,1,2.9-6.128,5.984,5.984,0,0,1,4.335-1.958" transform="translate(-27.404 -10.353)" fill="#d5fff5"/>
        <path id="Trazado_827964" data-name="Trazado 827964" d="M206.473,72.623l1.066-.931c-1.42-1.533-4.885-3.808-7.866-1.468l.9,1.082c2.668-2.1,5.77,1.178,5.9,1.317" transform="translate(-5.546 -11.022)" fill="#d5fff5"/>
        <path id="Trazado_827965" data-name="Trazado 827965" d="M177.395,82l1.352-.46c-.222-.612-2.249-6.01-5.345-6.944-2.894-.864-22.161-1.734-22.979-1.771l-.064,1.39c5.523.244,20.385,1.035,22.619,1.71,2.045.615,3.881,4.593,4.418,6.074" transform="translate(70.427 -11.277)" fill="#d5fff5"/>
        <path id="Trazado_827966" data-name="Trazado 827966" d="M151.81,80.641s8.268-9.84,12.919-6.9-2.124,17.58-7.974,19.226a5.816,5.816,0,0,1-7.525-3.585Z" transform="translate(83.98 -11.303)" fill="#ad6359"/>
        <path id="Trazado_827967" data-name="Trazado 827967" d="M163.243,78.248a.077.077,0,0,1,.019.151c-4.112,1.282-6.489,4.724-8.247,8.345,1.3-1.349,2.973-2.018,4.847-.5.1.079-.013.23-.123.2a3.641,3.641,0,0,0-4.012.923,16.737,16.737,0,0,0-2.113,2.943c-.213.334-.844.1-.677-.288.012-.029.028-.059.04-.087.278-4.951,4.764-11.582,10.267-11.685" transform="translate(83.416 -11.66)" fill="#263238"/>
        <path id="Trazado_827968" data-name="Trazado 827968" d="M159.913,92.556a1.2,1.2,0,1,0,1.256-1.109,1.18,1.18,0,0,0-1.256,1.109" transform="translate(77.721 -12.591)" fill="#fff"/>
        <path id="Trazado_827969" data-name="Trazado 827969" d="M157.217,90.584a.759.759,0,1,0,.794-.7.746.746,0,0,0-.794.7" transform="translate(83.879 -12.481)" fill="#fff"/>
        <path id="Trazado_827970" data-name="Trazado 827970" d="M161.524,120.242l5.708,14.609,18.907-18,5.139,5.984s-18.714,28.806-18.8,27.487l-5.9-12.611-9.05,8.529,1.151-21.813Z" transform="translate(51.045 -14.385)" fill="#d0adea"/>
        <path id="Trazado_827971" data-name="Trazado 827971" d="M157.571,135.877c.315-3.6.527-7.225,1.012-10.8.017-.127.224-.18.253-.029.674,3.49-.6,17.232-.652,20.532l.04-.037c.378-.369,8.379-7.5,8.455-7.379,1.3,2.008,5.629,11.192,5.922,12.026,2.96-4.575,15.5-22.6,18.977-26.914a.128.128,0,0,1,.22.13c-2.63,4.84-18.836,28.631-19.058,28.563a138.876,138.876,0,0,1-6.171-13.33c-1.361,1.56-9.455,9.62-9.472,9.085a109.773,109.773,0,0,1,.474-11.844" transform="translate(50.936 -14.834)" fill="#263238"/>
        <path id="Trazado_827972" data-name="Trazado 827972" d="M198.93,170.2s7.4-9.476.339-13.853-12.789,6.135-12.789,6.135Z" transform="translate(12.295 -17.098)" fill="#455a64"/>
        <path id="Trazado_827973" data-name="Trazado 827973" d="M191.139,233.1l0,.01-1.027,11.6-.363,3.824,3.45-1.9,10.4-5.8.011,0,0-.02,46.3-70.494L237.451,162.6l-46.3,70.5Z" transform="translate(-38.419 -17.614)" fill="#455a64"/>
        <path id="Trazado_827974" data-name="Trazado 827974" d="M249.373,250.944l-.354,3.825,3.45-1.907Z" transform="translate(-97.687 -23.851)" fill="#37474f"/>
        <path id="Trazado_828081" data-name="Trazado 828081" d="M.124.577l17.1-.223-.044,3.353L.079,3.93Z" transform="matrix(-0.843, -0.538, 0.538, -0.843, 210.73, 156.33)" fill="#263238"/>
        <path id="Trazado_828082" data-name="Trazado 828082" d="M.124.577l17.1-.223-.044,3.352L.079,3.93Z" transform="matrix(-0.843, -0.538, 0.538, -0.843, 208.695, 159.428)" fill="#263238"/>
        <path id="Trazado_827975" data-name="Trazado 827975" d="M211.309,177.323l-4.69-2.907-14.167,27.107,1.792.975Z" transform="translate(-2.407 -18.449)" fill="#263238"/>
        <path id="Trazado_827976" data-name="Trazado 827976" d="M94.409,198.108c-7.1-1.37-28.655,57.666-18.315,60.167,46.074,11.148,83.8,4.129,92.737-.03,11.712-5.45,12.693-20.073,7.791-26.819-8.48-11.674-71.178-31.189-82.212-33.318" transform="translate(143.46 -20.119)" fill="#ad6359"/>
        <path id="Trazado_827977" data-name="Trazado 827977" d="M159.195,193.541c.112,6.812,17.378,5.12,17.378,5.12a12.634,12.634,0,0,0-5.116,6.957c-1.2,5.046,6.425,9.08,6.425,9.08a15.384,15.384,0,0,0-4.192,8.172c-.645,4.943,6.448,10.078,6.448,10.078a13.237,13.237,0,0,0,.973,9.442c4.278,7.677,52,15.089,57.944,16.143l11.463-60.451s-37.492-20.6-47.829-19.907c-8.708.581-43.666,4.954-43.494,15.366" transform="translate(-9.798 -18.713)" fill="#ad6359"/>
        <path id="Trazado_827978" data-name="Trazado 827978" d="M206.72,199.706c9.106-2.776,18.878-3.429,28.316-3.959a.159.159,0,0,1,.015.318c-9.392.421-18.894,3.292-28.249,4.075a.223.223,0,0,1-.082-.434" transform="translate(-39.805 -19.954)" fill="#263238"/>
        <path id="Trazado_827979" data-name="Trazado 827979" d="M206.45,216.688a25.512,25.512,0,0,1,6.487-.483q3.459-.026,6.916.06c4.614.113,9.227.327,13.829.674.2.016.231.323.015.318-4.6-.105-9.2-.142-13.8-.059q-3.453.063-6.9.179a30.487,30.487,0,0,1-6.511-.077.318.318,0,0,1-.033-.613" transform="translate(-38.128 -21.398)" fill="#263238"/>
        <path id="Trazado_827980" data-name="Trazado 827980" d="M206.553,237.085c1.787-.564,4.012-.216,5.864-.133q3.153.141,6.306.248c4.2.142,8.409.282,12.615.282.21,0,.227.317.015.318-4.275.021-8.547.1-12.822.084q-3.149-.011-6.3-.057c-1.784-.025-4.018.14-5.7-.536a.111.111,0,0,1,.016-.205" transform="translate(-36.019 -22.85)" fill="#263238"/>
        <path id="Trazado_827981" data-name="Trazado 827981" d="M92.421,198.947,71.785,265.467s75.155,3.554,91.276-7.829c11.206-7.913,10.283-22.816,5.221-27.944-11.056-11.2-75.861-30.747-75.861-30.747" transform="translate(152.465 -20.18)" fill="#f6f6f6"/>
        <path id="Trazado_827982" data-name="Trazado 827982" d="M138.2,263.454c3.244-9.251,15.1-47.58,17.086-56.028.138-.587-.21-.813-.435-.222-10.411,27.495-14.317,46.883-17.022,56.113-.068.231.289.374.371.138" transform="translate(105.852 -20.739)" fill="#263238"/>
        <path id="Trazado_827983" data-name="Trazado 827983" d="M88.64,198.2c.409-.079,7.683,1.742,9.965,2.4q6.794,1.96,13.478,4.253a278.979,278.979,0,0,1,26.1,10.434c.425.2.846.4,1.27.592,3.106.728,6.142,1.763,9.165,2.736a.067.067,0,0,1-.04.128c-2.416-.779-4.879-1.4-7.337-2.031,1.364.644,2.723,1.3,4.069,1.976,2.379,1.2,4.707,2.486,7.073,3.707.078.041.006.153-.074.113-3.971-2-8.092-3.772-12.167-5.574-4.136-1.829-8.321-3.551-12.534-5.208q-12.446-4.893-25.318-8.745-3.608-1.079-7.244-2.075c-1.195-.328-6.132-1.954-6.334-1.973a1.927,1.927,0,0,0-.261.56c-.061.191-.288.191-.242.008a5.755,5.755,0,0,1,.433-1.3" transform="translate(156.227 -20.128)" fill="#263238"/>
        <path id="Trazado_827984" data-name="Trazado 827984" d="M96.425,270.606c2.177-.151,10.225.232,12.377.23,4.344-.007,8.682.036,13.025-.075,8.718-.225,17.414-.839,26.095-1.641,2.407-.222,4.809-.478,7.214-.73,2.5-.262,5.042-.433,7.515-.868.1-.017.131.127.036.141-2.16.309-4.291.806-6.444,1.166s-4.315.675-6.478.971c-4.344.6-8.713,1.019-13.084,1.368-8.728.7-17.508.909-26.263.77-2.465-.039-11.675-.416-14.068-.877-.284-.054-.174-.437.075-.454" transform="translate(138.264 -25.021)" fill="#263238"/>
        <path id="Trazado_827985" data-name="Trazado 827985" d="M263.538,277.239l78.924,5.562L312.954,181.846l-78.923-5.562Z" transform="translate(-173.34 -18.58)" fill="#fff"/>
        <path id="Trazado_827986" data-name="Trazado 827986" d="M269.184,276.829l78.924,5.562L318.6,181.437l-78.923-5.562Z" transform="translate(-184.388 -18.552)" fill="#c1e29a"/>
        <path id="Trazado_827987" data-name="Trazado 827987" d="M273.557,180.956a6.819,6.819,0,0,0,3.083,4.243c.722.445,1-.5.279-.921a5.106,5.106,0,0,1-2.1-2.686,5,5,0,0,1-.141-.557,3.516,3.516,0,0,1,.021-1.88,1.2,1.2,0,0,1,.492-.643.206.206,0,0,0,.055-.04c.038-.02.083-.017.1-.037a1.178,1.178,0,0,0,.15-.011.979.979,0,0,1,.551.083,2.222,2.222,0,0,1,.864.629,4.624,4.624,0,0,1,.711,1.079,6.28,6.28,0,0,1,.3.59l.039.134a.8.8,0,0,1,.08.2c.013.045.049.091.04.134l1.119.079a7.947,7.947,0,0,0-.926-1.969,4.3,4.3,0,0,0-2.892-2.086,1.728,1.728,0,0,0-1.882,1.442,4.358,4.358,0,0,0,.055,2.214" transform="translate(-147.73 -18.651)" fill="#ffc727"/>
        <path id="Trazado_827988" data-name="Trazado 827988" d="M280.014,180.488a6.821,6.821,0,0,0,3.083,4.243c.722.445.995-.5.279-.921a5.106,5.106,0,0,1-2.1-2.686,5.216,5.216,0,0,1-.141-.557,3.516,3.516,0,0,1,.021-1.88,1.2,1.2,0,0,1,.492-.643.2.2,0,0,0,.055-.04c.038-.02.083-.017.1-.037a1.2,1.2,0,0,0,.151-.011.984.984,0,0,1,.55.082,2.234,2.234,0,0,1,.864.63,4.639,4.639,0,0,1,.711,1.078,6.186,6.186,0,0,1,.3.591l.038.134a.777.777,0,0,1,.082.2c.012.045.048.091.038.134l1.12.079a7.932,7.932,0,0,0-.926-1.968,4.3,4.3,0,0,0-2.892-2.086,1.728,1.728,0,0,0-1.882,1.442,4.358,4.358,0,0,0,.055,2.214" transform="translate(-160.364 -18.618)" fill="#ffc727"/>
        <path id="Trazado_827989" data-name="Trazado 827989" d="M286.47,180.02a6.819,6.819,0,0,0,3.083,4.243c.722.445,1-.5.279-.921a5.107,5.107,0,0,1-2.1-2.686,5,5,0,0,1-.141-.557,3.515,3.515,0,0,1,.021-1.88,1.2,1.2,0,0,1,.492-.644.193.193,0,0,0,.055-.039c.038-.02.083-.017.1-.037a1.174,1.174,0,0,0,.15-.011.979.979,0,0,1,.551.083,2.221,2.221,0,0,1,.864.629,4.638,4.638,0,0,1,.711,1.078,6.42,6.42,0,0,1,.3.591l.038.134a.812.812,0,0,1,.082.2c.012.045.048.091.038.134l1.12.079a7.945,7.945,0,0,0-.926-1.968,4.3,4.3,0,0,0-2.892-2.086,1.728,1.728,0,0,0-1.882,1.442,4.347,4.347,0,0,0,.055,2.214" transform="translate(-172.997 -18.585)" fill="#ffc727"/>
        <path id="Trazado_827990" data-name="Trazado 827990" d="M292.927,179.551a6.818,6.818,0,0,0,3.083,4.243c.722.445,1-.5.279-.921a5.107,5.107,0,0,1-2.1-2.686,5.269,5.269,0,0,1-.141-.557,3.506,3.506,0,0,1,.021-1.88,1.2,1.2,0,0,1,.492-.643.205.205,0,0,0,.055-.04c.038-.02.083-.017.1-.037a1.175,1.175,0,0,0,.15-.011.979.979,0,0,1,.551.083,2.231,2.231,0,0,1,.865.629,4.651,4.651,0,0,1,.71,1.079,6.275,6.275,0,0,1,.3.59l.039.134a.77.77,0,0,1,.08.2c.013.045.049.091.039.134l1.12.079a7.948,7.948,0,0,0-.926-1.968,4.3,4.3,0,0,0-2.892-2.086,1.728,1.728,0,0,0-1.882,1.442,4.348,4.348,0,0,0,.055,2.214" transform="translate(-185.632 -18.552)" fill="#ffc727"/>
        <path id="Trazado_827991" data-name="Trazado 827991" d="M299.384,179.083a6.825,6.825,0,0,0,3.083,4.243c.722.445.995-.5.279-.921a5.107,5.107,0,0,1-2.1-2.686,5.217,5.217,0,0,1-.141-.557,3.516,3.516,0,0,1,.021-1.88,1.2,1.2,0,0,1,.492-.643.2.2,0,0,0,.055-.041c.038-.019.083-.016.1-.036a1.2,1.2,0,0,0,.151-.011.976.976,0,0,1,.55.083,2.221,2.221,0,0,1,.864.629,4.638,4.638,0,0,1,.711,1.078,6.2,6.2,0,0,1,.3.591l.039.134a.811.811,0,0,1,.081.2c.012.045.048.09.038.134l1.12.079a7.948,7.948,0,0,0-.926-1.969,4.3,4.3,0,0,0-2.891-2.086,1.728,1.728,0,0,0-1.883,1.442,4.358,4.358,0,0,0,.055,2.214" transform="translate(-198.266 -18.519)" fill="#ffc727"/>
        <path id="Trazado_827992" data-name="Trazado 827992" d="M305.84,178.615a6.821,6.821,0,0,0,3.083,4.243c.722.445.995-.5.279-.921a5.107,5.107,0,0,1-2.1-2.686,5.233,5.233,0,0,1-.141-.557,3.516,3.516,0,0,1,.021-1.88,1.21,1.21,0,0,1,.492-.644.2.2,0,0,0,.055-.039c.038-.02.083-.017.1-.037a1.2,1.2,0,0,0,.151-.011.977.977,0,0,1,.55.083,2.231,2.231,0,0,1,.865.629,4.665,4.665,0,0,1,.71,1.078,6.178,6.178,0,0,1,.3.591l.039.134a.805.805,0,0,1,.081.2c.012.045.048.091.039.134l1.119.079a7.946,7.946,0,0,0-.926-1.969,4.293,4.293,0,0,0-2.892-2.086,1.728,1.728,0,0,0-1.882,1.442,4.358,4.358,0,0,0,.055,2.214" transform="translate(-210.899 -18.486)" fill="#ffc727"/>
        <path id="Trazado_827993" data-name="Trazado 827993" d="M312.3,178.146a6.819,6.819,0,0,0,3.083,4.243c.722.445,1-.5.279-.921a5.106,5.106,0,0,1-2.1-2.686,4.992,4.992,0,0,1-.141-.557,3.516,3.516,0,0,1,.021-1.88,1.2,1.2,0,0,1,.492-.643.205.205,0,0,0,.055-.04c.038-.02.083-.017.1-.037a1.18,1.18,0,0,0,.15-.011.979.979,0,0,1,.551.083,2.222,2.222,0,0,1,.864.629,4.625,4.625,0,0,1,.711,1.079,6.289,6.289,0,0,1,.3.59l.039.134a.806.806,0,0,1,.08.2c.013.045.049.091.039.134l1.12.079a7.948,7.948,0,0,0-.926-1.968,4.3,4.3,0,0,0-2.892-2.086,1.728,1.728,0,0,0-1.882,1.442,4.358,4.358,0,0,0,.055,2.214" transform="translate(-223.533 -18.453)" fill="#ffc727"/>
        <path id="Trazado_827994" data-name="Trazado 827994" d="M318.753,177.678a6.818,6.818,0,0,0,3.084,4.243c.722.445.995-.5.279-.921a5.107,5.107,0,0,1-2.1-2.686,5,5,0,0,1-.141-.557,3.515,3.515,0,0,1,.021-1.88,1.2,1.2,0,0,1,.492-.643.207.207,0,0,0,.055-.04c.038-.02.083-.017.1-.037a1.175,1.175,0,0,0,.15-.011.979.979,0,0,1,.551.083,2.222,2.222,0,0,1,.864.629,4.626,4.626,0,0,1,.711,1.079,6.064,6.064,0,0,1,.3.59l.038.134a.779.779,0,0,1,.082.2c.012.045.048.091.038.134l1.12.079a7.945,7.945,0,0,0-.926-1.968,4.3,4.3,0,0,0-2.892-2.086,1.728,1.728,0,0,0-1.882,1.442,4.357,4.357,0,0,0,.055,2.214" transform="translate(-236.166 -18.42)" fill="#ffc727"/>
        <path id="Trazado_827995" data-name="Trazado 827995" d="M325.21,177.21a6.821,6.821,0,0,0,3.083,4.243c.722.445.995-.5.279-.921a4.872,4.872,0,0,1-2.243-3.243,3.516,3.516,0,0,1,.021-1.88,1.2,1.2,0,0,1,.492-.644.194.194,0,0,0,.055-.039c.038-.02.083-.017.1-.037a1.2,1.2,0,0,0,.151-.011.984.984,0,0,1,.55.082,2.244,2.244,0,0,1,.865.63,4.664,4.664,0,0,1,.71,1.078,6.178,6.178,0,0,1,.3.591l.038.134a.763.763,0,0,1,.082.2c.012.045.048.09.038.134l1.12.079a7.952,7.952,0,0,0-.926-1.969,4.3,4.3,0,0,0-2.892-2.085A1.728,1.728,0,0,0,325.155,175a4.357,4.357,0,0,0,.055,2.214" transform="translate(-248.8 -18.387)" fill="#ffc727"/>
        <path id="Trazado_827996" data-name="Trazado 827996" d="M331.667,176.741a6.82,6.82,0,0,0,3.083,4.243c.723.445,1-.5.28-.921a5.107,5.107,0,0,1-2.1-2.686,4.981,4.981,0,0,1-.141-.557,3.505,3.505,0,0,1,.021-1.88,1.2,1.2,0,0,1,.492-.643.206.206,0,0,0,.055-.04c.038-.02.083-.017.1-.037a1.174,1.174,0,0,0,.15-.011.98.98,0,0,1,.551.083,2.222,2.222,0,0,1,.864.629,4.638,4.638,0,0,1,.711,1.078,6.193,6.193,0,0,1,.3.591l.039.134a.776.776,0,0,1,.081.2c.013.045.049.091.039.134l1.12.079a7.947,7.947,0,0,0-.926-1.968,4.3,4.3,0,0,0-2.892-2.086,1.727,1.727,0,0,0-1.882,1.442,4.337,4.337,0,0,0,.055,2.214" transform="translate(-261.434 -18.354)" fill="#ffc727"/>
        <path id="Trazado_827997" data-name="Trazado 827997" d="M338.123,176.273a6.822,6.822,0,0,0,3.084,4.243c.722.445.995-.5.279-.921a5.106,5.106,0,0,1-2.1-2.686,5.2,5.2,0,0,1-.141-.557,3.514,3.514,0,0,1,.021-1.88,1.2,1.2,0,0,1,.493-.643.208.208,0,0,0,.054-.04c.038-.02.083-.017.1-.037a1.179,1.179,0,0,0,.15-.011.978.978,0,0,1,.551.083,2.232,2.232,0,0,1,.865.629,4.65,4.65,0,0,1,.71,1.079,6.054,6.054,0,0,1,.3.59l.039.134a.768.768,0,0,1,.08.2c.013.045.049.091.039.134l1.12.079a7.947,7.947,0,0,0-.926-1.969,4.3,4.3,0,0,0-2.891-2.086,1.729,1.729,0,0,0-1.883,1.442,4.358,4.358,0,0,0,.055,2.214" transform="translate(-274.067 -18.321)" fill="#ffc727"/>
        <path id="Trazado_827998" data-name="Trazado 827998" d="M344.58,175.8a6.819,6.819,0,0,0,3.084,4.243c.722.445.995-.5.279-.921a5.1,5.1,0,0,1-2.1-2.686,5.219,5.219,0,0,1-.141-.557,3.512,3.512,0,0,1,.021-1.879,1.2,1.2,0,0,1,.492-.644.166.166,0,0,0,.055-.041c.038-.018.083-.016.1-.036a1.2,1.2,0,0,0,.151-.011.978.978,0,0,1,.55.084,2.229,2.229,0,0,1,.865.628,4.663,4.663,0,0,1,.71,1.078,6.183,6.183,0,0,1,.3.591l.039.134a.822.822,0,0,1,.081.2c.012.045.048.092.039.134l1.119.079a7.926,7.926,0,0,0-.926-1.968,4.3,4.3,0,0,0-2.892-2.087,1.728,1.728,0,0,0-1.882,1.443,4.354,4.354,0,0,0,.054,2.213" transform="translate(-286.702 -18.288)" fill="#ffc727"/>
        <path id="Trazado_827999" data-name="Trazado 827999" d="M320.724,200.3c-4.178,8.3-14.569,18.549-15.492,25.358a7.858,7.858,0,0,0,4.4,8.369s-7.041,3.314-6.831,9.627c.108,3.248,5.545,5.933,5.545,5.933s-5.525,2.9-4.982,8.5c.434,4.463,5.816,6.486,5.816,6.486s-3.967,5.176-2.024,9.586c3.939,8.943,43.553,9.389,49.84-4.719,2.931-6.575-6.751-6.174-6.751-6.174s13.779-3.844,14.083-11.775-12.244-6.671-12.244-6.671,13.319-3.839,12.78-12.092c-.562-8.593-12.89-5.246-12.89-5.246s8.878-5.7,6.975-11.928c-3.141-10.283-19.974,2.414-28.656.309l-4.638-14Z" transform="translate(-261.551 -20.276)" fill="#ad6359"/>
        <path id="Trazado_828000" data-name="Trazado 828000" d="M349.216,210.873c3.249-8.194-7.122-18.474-5.174-26.744,2.635-11.186,15.5-.047,18.193,16.272l-.2,13.027Z" transform="translate(-298.127 -18.815)" fill="#ad6359"/>
        <path id="Trazado_828001" data-name="Trazado 828001" d="M317.386,269.737a.1.1,0,0,0-.042.2c12.993,3.232,28.288,2.913,40.836-1.9.412-.157.327-.876-.162-.786-13.91,2.561-26.466,3.758-40.632,2.493" transform="translate(-268.951 -25.001)" fill="#263238"/>
        <path id="Trazado_828002" data-name="Trazado 828002" d="M315.364,253.019c-.154-.014-.18.233-.019.272,13.408,3.258,30.624,2.439,44.415-4.767.473-.247.642-.929.076-.685-9.544,4.116-31.725,6.382-44.471,5.18" transform="translate(-268.76 -23.628)" fill="#263238"/>
        <path id="Trazado_828003" data-name="Trazado 828003" d="M357.846,228.649c-13.5,6.413-27.754,7.977-42.635,7.539-.194-.007-.182.261-.021.308,7.219,2.141,16.734,1.461,24.091.323a40.228,40.228,0,0,0,18.8-7.711c.217-.165.057-.595-.232-.458" transform="translate(-266.584 -22.275)" fill="#263238"/>
      </g>
    </g>
    <path id="Trazado_828004" data-name="Trazado 828004" d="M296.893,316.759l48.229.082,48.229.227-48.229.226-48.229.082-96.458.156-96.458-.155-48.23-.082-48.229-.227,48.229-.228,48.23-.082,96.458-.154Z" transform="translate(-0.542 -22.35)" fill="#263238"/>
    <rect id="Rectángulo_380250" data-name="Rectángulo 380250" width="42.498" height="61.934" transform="translate(333.628 249.406)" fill="#74875c"/>
    <rect id="Rectángulo_380251" data-name="Rectángulo 380251" width="52.766" height="16.63" transform="translate(328.495 232.776)" fill="#455a64"/>
    <rect id="Rectángulo_380252" data-name="Rectángulo 380252" width="28.295" height="27.487" transform="translate(340.73 267.23)" fill="#fff"/>
    <g id="Grupo_1076781" data-name="Grupo 1076781">
      <g id="Grupo_1076780" data-name="Grupo 1076780" clip-path="url(#clip-path)">
        <g id="Grupo_1076779" data-name="Grupo 1076779" transform="translate(340.73 249.406)" opacity="0.1">
          <g id="Grupo_1076778" data-name="Grupo 1076778">
            <g id="Grupo_1076777" data-name="Grupo 1076777" clip-path="url(#clip-path-8)">
              <path id="Trazado_828005" data-name="Trazado 828005" d="M60.35,268.35v4.823l-23.926,8.791v48.32H24.953V268.35Z" transform="translate(-24.953 -268.35)"/>
            </g>
          </g>
        </g>
        <path id="Trazado_828006" data-name="Trazado 828006" d="M32.505,333.065v-.015a5.272,5.272,0,0,0-5.353-5.185h-10.6A5.272,5.272,0,0,0,11.2,333.05v.015a5.284,5.284,0,0,0,5.353,5.2h10.6a5.284,5.284,0,0,0,5.353-5.2" transform="translate(356.78 -23.145)" fill="#455a64"/>
        <path id="Trazado_828007" data-name="Trazado 828007" d="M21.86,333.065v-.015a5.272,5.272,0,0,0-5.353-5.185H11.2v10.4h5.307a5.284,5.284,0,0,0,5.353-5.2" transform="translate(367.425 -23.145)" fill="#d5fff5"/>
        <path id="Trazado_828008" data-name="Trazado 828008" d="M64.932,333.065v.015a5.272,5.272,0,0,0,5.353,5.185h10.6a5.272,5.272,0,0,0,5.353-5.185v-.015a5.284,5.284,0,0,0-5.353-5.2h-10.6a5.284,5.284,0,0,0-5.353,5.2" transform="translate(251.641 -23.145)" fill="#455a64"/>
        <path id="Trazado_828009" data-name="Trazado 828009" d="M76.058,333.065v.015a5.272,5.272,0,0,0,5.353,5.185h5.308v-10.4H81.411a5.284,5.284,0,0,0-5.353,5.2" transform="translate(240.515 -23.145)" fill="#d5fff5"/>
        <path id="Trazado_828010" data-name="Trazado 828010" d="M83.949,334.511l.011.01a5.458,5.458,0,0,0,7.56-.01l7.495-7.281a5.089,5.089,0,0,0,.011-7.343l-.011-.011a5.473,5.473,0,0,0-7.571,0l-7.495,7.281a5.1,5.1,0,0,0,0,7.354" transform="translate(220.597 -22.474)" fill="#455a64"/>
        <path id="Trazado_828011" data-name="Trazado 828011" d="M89.5,334.9l.011.01a5.458,5.458,0,0,0,7.56-.01l3.752-3.646-7.57-7.354L89.5,327.548a5.1,5.1,0,0,0,0,7.354" transform="translate(215.043 -22.865)" fill="#d5fff5"/>
        <path id="Trazado_828012" data-name="Trazado 828012" d="M70.406,344.255v-.015a5.272,5.272,0,0,0-5.353-5.185h-10.6A5.272,5.272,0,0,0,49.1,344.24v.015a5.284,5.284,0,0,0,5.353,5.2h10.6a5.284,5.284,0,0,0,5.353-5.2" transform="translate(282.618 -23.935)" fill="#455a64"/>
        <path id="Trazado_828013" data-name="Trazado 828013" d="M59.762,344.255v-.015a5.272,5.272,0,0,0-5.353-5.185H49.1v10.4h5.308a5.284,5.284,0,0,0,5.353-5.2" transform="translate(293.262 -23.935)" fill="#d5fff5"/>
      </g>
    </g>
    <g id="Grupo_1076783" data-name="Grupo 1076783">
      <g id="Grupo_1076782" data-name="Grupo 1076782" clip-path="url(#clip-path)">
        <path id="Trazado_828014" data-name="Trazado 828014" d="M320.727,334.879a16.9,16.9,0,0,1-7.463,2.06,15.648,15.648,0,0,1-6.6-.977c-.234-.094-.468-.214-.7-.321a7.275,7.275,0,0,1-.633-.375,4.177,4.177,0,0,1-2.189-3.036l-.344-3.317a4.2,4.2,0,0,0,2.2,3.049c.192.121.4.241.633.362a6.4,6.4,0,0,0,.688.321,15.633,15.633,0,0,0,6.6.977,16.878,16.878,0,0,0,7.463-2.047c2.328-1.351,3.415-3.077,3.25-4.682l.344,3.318c.165,1.605-.923,3.317-3.25,4.668" transform="translate(-213.686 -23.076)" fill="#dbdbdb"/>
        <path id="Trazado_828015" data-name="Trazado 828015" d="M307.844,332.363l.2,1.935,13.91-8.092-.34-3.314-15.1,8.784a6.878,6.878,0,0,0,.633.366c.227.116.456.226.7.322" transform="translate(-215.202 -22.794)" fill="#ffc727"/>
        <path id="Trazado_828016" data-name="Trazado 828016" d="M320.566,322.89c.241.1.482.2.71.321s.431.235.633.359L306.8,332.362c-.241-.095-.469-.205-.7-.322a6.708,6.708,0,0,1-.634-.365Z" transform="translate(-214.155 -22.794)" fill="#dbdbdb"/>
        <path id="Trazado_828017" data-name="Trazado 828017" d="M320.222,323.622l.341,3.314-15.112,8.792-.341-3.314Z" transform="translate(-212.467 -22.845)" fill="#dbdbdb"/>
        <path id="Trazado_828018" data-name="Trazado 828018" d="M313.881,321.838a15.529,15.529,0,0,1,6.585.976l-15.1,8.785a6.894,6.894,0,0,0,.633.365c.229.116.456.226.7.322l15.112-8.792c3.29,2.071,2.894,5.421-1.055,7.72a16.92,16.92,0,0,1-7.466,2.047,15.55,15.55,0,0,1-6.591-.975c-.241-.1-.469-.205-.7-.322a6.894,6.894,0,0,1-.633-.365c-3.29-2.072-2.894-5.415,1.055-7.713a16.9,16.9,0,0,1,7.46-2.047" transform="translate(-214.055 -22.718)" fill="#fff"/>
        <path id="Trazado_828019" data-name="Trazado 828019" d="M217.754,322.1l.055,3.852a.959.959,0,0,0,.3.669c.689.763,2.451,1.364,4.738,1.712a36.134,36.134,0,0,0,6.968.308c.317-.026.647-.04.963-.067s.633-.053.937-.093c4.269-.455,7.05-1.592,7.037-2.8l-.055-3.838c0,1.191-2.781,2.327-7.037,2.782-.3.041-.633.068-.936.094s-.648.04-.964.067a34.153,34.153,0,0,1-6.968-.308c-2.286-.347-4.049-.95-4.737-1.712a.961.961,0,0,1-.3-.669" transform="translate(-47.084 -22.72)" fill="#dbdbdb"/>
        <path id="Trazado_828020" data-name="Trazado 828020" d="M225.109,324.934l.054,3.851c.313-.028.631-.058.94-.09l-.054-3.85c-.308.032-.628.062-.94.089" transform="translate(-41.469 -22.932)" fill="#dbdbdb"/>
        <path id="Trazado_828021" data-name="Trazado 828021" d="M227.071,318.939c-.321.019-.638.041-.962.066s-.636.053-.944.086l4.977,5.488c.321-.018.649-.039.966-.061s.631-.058.94-.09Z" transform="translate(-47.469 -22.515)" fill="#dbdbdb"/>
        <path id="Trazado_828022" data-name="Trazado 828022" d="M227.1,319.1l.053,3.851,4.978,5.488-.053-3.851Z" transform="translate(-49.406 -22.526)" fill="#dbdbdb"/>
        <path id="Trazado_828023" data-name="Trazado 828023" d="M233.7,319.237a34.9,34.9,0,0,0-6.951-.3l4.978,5.488c-.309.033-.628.062-.94.089s-.645.045-.966.062l-4.977-5.488c-5.047.541-8.026,2.043-6.725,3.477.689.76,2.449,1.358,4.739,1.71a35.025,35.025,0,0,0,6.963.3c.321-.018.649-.039.966-.062s.631-.057.94-.089c5.056-.539,8.03-2.038,6.729-3.473-.7-.761-2.462-1.361-4.756-1.714" transform="translate(-47.146 -22.511)" fill="#fff"/>
        <path id="Trazado_828024" data-name="Trazado 828024" d="M287.735,322.413l-.055,3.852a.959.959,0,0,1-.3.669c-.689.762-2.451,1.364-4.738,1.712a36.138,36.138,0,0,1-6.968.308c-.317-.026-.647-.04-.963-.067s-.633-.053-.937-.093c-4.269-.455-7.05-1.592-7.037-2.8l.055-3.838c0,1.19,2.782,2.327,7.038,2.782.3.04.633.067.936.094s.648.04.964.067a34.153,34.153,0,0,0,6.968-.308c2.286-.348,4.049-.95,4.737-1.712a.961.961,0,0,0,.3-.669" transform="translate(-142.926 -22.742)" fill="#dbdbdb"/>
        <path id="Trazado_828025" data-name="Trazado 828025" d="M281.284,325.249l-.054,3.85c-.312-.027-.631-.057-.94-.089l.054-3.85c.308.032.628.062.94.089" transform="translate(-149.443 -22.954)" fill="#dbdbdb"/>
        <path id="Trazado_828026" data-name="Trazado 828026" d="M279.057,319.254c.322.018.638.041.962.066s.636.053.944.085l-4.977,5.488c-.321-.018-.649-.039-.966-.061s-.631-.058-.94-.09Z" transform="translate(-143.18 -22.537)" fill="#dbdbdb"/>
        <path id="Trazado_828027" data-name="Trazado 828027" d="M279.109,319.417l-.054,3.851-4.977,5.488.053-3.851Z" transform="translate(-141.325 -22.549)" fill="#dbdbdb"/>
        <path id="Trazado_828028" data-name="Trazado 828028" d="M271.792,319.551a34.9,34.9,0,0,1,6.951-.3l-4.978,5.488c.309.033.628.062.94.09s.645.044.966.061l4.977-5.488c5.046.541,8.026,2.043,6.725,3.477-.689.76-2.45,1.358-4.739,1.71a35.025,35.025,0,0,1-6.963.3c-.321-.018-.65-.039-.966-.061s-.631-.058-.94-.09c-5.056-.539-8.03-2.038-6.729-3.472.7-.762,2.462-1.362,4.756-1.715" transform="translate(-142.864 -22.533)" fill="#fff"/>
        <path id="Trazado_828029" data-name="Trazado 828029" d="M262.517,342.835l-.055,3.852a.958.958,0,0,1-.3.669c-.689.762-2.451,1.364-4.738,1.712a36.129,36.129,0,0,1-6.968.308c-.317-.026-.647-.04-.963-.067s-.633-.053-.937-.093c-4.269-.455-7.05-1.592-7.037-2.8l.055-3.838c0,1.191,2.782,2.327,7.038,2.782.3.041.633.067.936.094s.648.04.964.067a34.151,34.151,0,0,0,6.968-.308c2.286-.348,4.049-.95,4.737-1.712a.961.961,0,0,0,.3-.669" transform="translate(-93.581 -24.184)" fill="#dbdbdb"/>
        <path id="Trazado_828030" data-name="Trazado 828030" d="M256.066,345.671l-.054,3.85c-.313-.028-.631-.058-.94-.09l.054-3.85c.308.032.628.062.94.089" transform="translate(-100.099 -24.396)" fill="#dbdbdb"/>
        <path id="Trazado_828031" data-name="Trazado 828031" d="M253.839,339.676c.321.018.638.041.962.066s.636.053.944.086l-4.977,5.488c-.321-.018-.649-.039-.965-.062s-.632-.057-.941-.089Z" transform="translate(-93.835 -23.979)" fill="#dbdbdb"/>
        <path id="Trazado_828032" data-name="Trazado 828032" d="M253.891,339.839l-.054,3.85-4.977,5.489.053-3.851Z" transform="translate(-91.981 -23.99)" fill="#dbdbdb"/>
        <path id="Trazado_828033" data-name="Trazado 828033" d="M246.574,339.973a34.9,34.9,0,0,1,6.951-.3l-4.978,5.488c.309.033.628.062.94.089s.645.045.965.062l4.978-5.488c5.046.541,8.026,2.043,6.725,3.477-.689.76-2.45,1.358-4.739,1.71a35.032,35.032,0,0,1-6.964.3c-.32-.018-.649-.039-.965-.062s-.631-.057-.94-.089c-5.056-.539-8.03-2.038-6.729-3.472.7-.762,2.462-1.362,4.756-1.715" transform="translate(-93.521 -23.975)" fill="#fff"/>
        <path id="Trazado_828034" data-name="Trazado 828034" d="M256.211,332.3l.276,3.639c0,.054.013.121.013.188.207,1.15,1.557,2.113,3.567,2.7a20.351,20.351,0,0,0,6.61.669c.33-.014.661-.04.978-.067s.661-.054.978-.094c5.109-.642,8.882-2.689,8.73-4.816l-.261-3.639c.151,2.127-3.622,4.174-8.731,4.816-.33.04-.661.067-.977.094-.331.04-.661.053-.979.067a20.344,20.344,0,0,1-6.609-.669c-2.024-.588-3.36-1.538-3.567-2.7-.014-.067-.014-.121-.028-.188" transform="translate(-122.49 -23.358)" fill="#dbdbdb"/>
        <path id="Trazado_828035" data-name="Trazado 828035" d="M273.777,327.717a20.455,20.455,0,0,0-6.6-.668l1.466,8.375c-.321.038-.652.073-.975.1s-.654.052-.98.069l-1.465-8.374c-5.26.652-9.1,2.8-8.707,4.993.2,1.163,1.548,2.114,3.567,2.713a20.476,20.476,0,0,0,6.605.668c.325-.017.657-.038.98-.069s.654-.059.975-.1c5.26-.652,9.1-2.8,8.706-4.993-.2-1.162-1.554-2.113-3.574-2.714" transform="translate(-122.769 -23.085)" fill="#fff"/>
        <path id="Trazado_828036" data-name="Trazado 828036" d="M267.575,327.052c-.324.017-.657.038-.98.07s-.653.059-.975.1l1.466,8.375c.324-.017.657-.038.98-.07s.653-.059.974-.1Z" transform="translate(-123.163 -23.088)" fill="#dbdbdb"/>
        <path id="Trazado_828037" data-name="Trazado 828037" d="M298.608,339.62l.025,3.649c0,.053,0,.121,0,.188-.112,1.163-1.378,2.227-3.333,2.97a20.311,20.311,0,0,1-6.533,1.179c-.331.012-.662.011-.981.009s-.663,0-.983-.018c-5.145-.244-9.074-1.991-9.1-4.123l-.038-3.647c.024,2.132,3.953,3.878,9.1,4.123.333.014.665.015.983.017.333.015.663,0,.98-.008a20.309,20.309,0,0,0,6.534-1.18c1.969-.744,3.222-1.794,3.332-2.97.009-.068,0-.121.012-.189" transform="translate(-164.285 -23.975)" fill="#dbdbdb"/>
        <path id="Trazado_828038" data-name="Trazado 828038" d="M281.05,336.352a20.419,20.419,0,0,1,6.521-1.178l-.772,8.461c.323.013.655.022.98.021s.657,0,.983-.007l.772-8.461c5.3.243,9.3,2.086,9.089,4.3-.1,1.174-1.369,2.227-3.331,2.981a20.444,20.444,0,0,1-6.53,1.178c-.325.008-.658.013-.983.007s-.656-.008-.98-.021c-5.3-.243-9.3-2.087-9.089-4.3.107-1.174,1.376-2.228,3.34-2.982" transform="translate(-164.312 -23.661)" fill="#fff"/>
        <path id="Trazado_828039" data-name="Trazado 828039" d="M287.983,335.173c.325-.008.658-.013.982-.007s.657.008.98.021l-.771,8.461c-.325.008-.659.013-.983.006s-.656-.008-.98-.021Z" transform="translate(-164.725 -23.66)" fill="#dbdbdb"/>
        <path id="Trazado_828040" data-name="Trazado 828040" d="M233.012,337.758a16.9,16.9,0,0,0,7.463,2.061,15.648,15.648,0,0,0,6.6-.977c.233-.094.468-.214.7-.322a7.055,7.055,0,0,0,.633-.375,4.181,4.181,0,0,0,2.19-3.036l.343-3.317a4.2,4.2,0,0,1-2.2,3.049c-.192.121-.4.241-.633.362a6.393,6.393,0,0,1-.688.321,15.632,15.632,0,0,1-6.6.977,16.879,16.879,0,0,1-7.463-2.047c-2.328-1.351-3.415-3.077-3.25-4.682l-.344,3.318c-.166,1.605.923,3.317,3.25,4.668" transform="translate(-70.744 -23.28)" fill="#dbdbdb"/>
        <path id="Trazado_828041" data-name="Trazado 828041" d="M246.155,335.241l-.2,1.935-13.91-8.092.34-3.314,15.1,8.784a6.882,6.882,0,0,1-.633.366c-.228.116-.456.226-.7.322" transform="translate(-69.489 -22.997)" fill="#ffc727"/>
        <path id="Trazado_828042" data-name="Trazado 828042" d="M233.388,325.768c-.241.1-.482.2-.709.322s-.431.234-.633.359l15.11,8.791a7.508,7.508,0,0,0,.7-.322,6.557,6.557,0,0,0,.633-.365Z" transform="translate(-70.491 -22.997)" fill="#dbdbdb"/>
        <path id="Trazado_828043" data-name="Trazado 828043" d="M233.777,326.5l-.341,3.314,15.112,8.792.341-3.314Z" transform="translate(-72.224 -23.049)" fill="#dbdbdb"/>
        <path id="Trazado_828044" data-name="Trazado 828044" d="M239.875,324.717a15.53,15.53,0,0,0-6.585.976l15.1,8.785a6.874,6.874,0,0,1-.633.365c-.229.116-.456.226-.7.322l-15.112-8.792c-3.291,2.071-2.894,5.421,1.055,7.72a16.907,16.907,0,0,0,7.466,2.047,15.55,15.55,0,0,0,6.591-.975c.241-.1.469-.205.7-.322a6.874,6.874,0,0,0,.633-.365c3.29-2.072,2.894-5.415-1.055-7.713a16.9,16.9,0,0,0-7.46-2.047" transform="translate(-70.393 -22.921)" fill="#fff"/>
      </g>
    </g>
    <g id="Grupo_1076785" data-name="Grupo 1076785">
      <g id="Grupo_1076784" data-name="Grupo 1076784" clip-path="url(#clip-path)">
        <path id="Trazado_828045" data-name="Trazado 828045" d="M340.986,334.218h43.3a2.994,2.994,0,0,0,3.037-2.95V260.39a8,8,0,0,0-8.109-7.878H346.057a8,8,0,0,0-8.108,7.878v70.878a2.994,2.994,0,0,0,3.037,2.95" transform="translate(-310.643 -17.826)" fill="#aaccc4"/>
        <rect id="Rectángulo_380256" data-name="Rectángulo 380256" width="28.585" height="12.724" transform="translate(37.699 224.318)" fill="#aaccc4"/>
        <rect id="Rectángulo_380257" data-name="Rectángulo 380257" width="49.371" height="32.336" transform="translate(27.306 261.302)" fill="#ebebeb"/>
        <rect id="Rectángulo_380258" data-name="Rectángulo 380258" width="49.371" height="2.928" transform="translate(27.306 287.024)" fill="#455a64"/>
        <rect id="Rectángulo_380259" data-name="Rectángulo 380259" width="49.371" height="2.928" transform="translate(27.306 264.988)" fill="#455a64"/>
        <rect id="Rectángulo_380260" data-name="Rectángulo 380260" width="32.57" height="11.782" transform="translate(35.707 215.409)" fill="#455a64"/>
        <rect id="Rectángulo_380261" data-name="Rectángulo 380261" width="35.987" height="3.489" transform="translate(33.998 227.191)" fill="#37474f"/>
        <path id="Trazado_828046" data-name="Trazado 828046" d="M348.981,242.031h.434a.524.524,0,0,0,.531-.516v-7.459a.524.524,0,0,0-.531-.517h-.434a.524.524,0,0,0-.531.517v7.459a.524.524,0,0,0,.531.516" transform="translate(-283.316 -16.486)" fill="#37474f"/>
        <path id="Trazado_828047" data-name="Trazado 828047" d="M351.885,242.031h.434a.524.524,0,0,0,.531-.516v-7.459a.524.524,0,0,0-.531-.517h-.434a.524.524,0,0,0-.531.517v7.459a.524.524,0,0,0,.531.516" transform="translate(-288.998 -16.486)" fill="#37474f"/>
        <path id="Trazado_828048" data-name="Trazado 828048" d="M354.789,242.031h.434a.524.524,0,0,0,.531-.516v-7.459a.524.524,0,0,0-.531-.517h-.434a.524.524,0,0,0-.531.517v7.459a.524.524,0,0,0,.531.516" transform="translate(-294.68 -16.486)" fill="#37474f"/>
        <path id="Trazado_828049" data-name="Trazado 828049" d="M357.693,242.031h.434a.524.524,0,0,0,.531-.516v-7.459a.524.524,0,0,0-.531-.517h-.434a.524.524,0,0,0-.531.517v7.459a.524.524,0,0,0,.531.516" transform="translate(-300.362 -16.486)" fill="#37474f"/>
        <path id="Trazado_828050" data-name="Trazado 828050" d="M360.6,242.031h.434a.524.524,0,0,0,.531-.516v-7.459a.524.524,0,0,0-.531-.517H360.6a.524.524,0,0,0-.531.517v7.459a.524.524,0,0,0,.531.516" transform="translate(-306.045 -16.486)" fill="#37474f"/>
        <path id="Trazado_828051" data-name="Trazado 828051" d="M363.5,242.031h.434a.524.524,0,0,0,.531-.516v-7.459a.524.524,0,0,0-.531-.517H363.5a.524.524,0,0,0-.531.517v7.459a.524.524,0,0,0,.531.516" transform="translate(-311.727 -16.486)" fill="#37474f"/>
        <path id="Trazado_828052" data-name="Trazado 828052" d="M366.4,242.031h.435a.523.523,0,0,0,.53-.516v-7.459a.524.524,0,0,0-.53-.517H366.4a.524.524,0,0,0-.531.517v7.459a.524.524,0,0,0,.531.516" transform="translate(-317.409 -16.486)" fill="#37474f"/>
        <path id="Trazado_828053" data-name="Trazado 828053" d="M369.308,242.031h.434a.524.524,0,0,0,.531-.516v-7.459a.524.524,0,0,0-.531-.517h-.434a.524.524,0,0,0-.531.517v7.459a.524.524,0,0,0,.531.516" transform="translate(-323.09 -16.486)" fill="#37474f"/>
        <path id="Trazado_828054" data-name="Trazado 828054" d="M372.212,242.031h.434a.524.524,0,0,0,.531-.516v-7.459a.524.524,0,0,0-.531-.517h-.434a.524.524,0,0,0-.531.517v7.459a.524.524,0,0,0,.531.516" transform="translate(-328.772 -16.486)" fill="#37474f"/>
        <path id="Trazado_828055" data-name="Trazado 828055" d="M375.116,242.031h.434a.524.524,0,0,0,.531-.516v-7.459a.524.524,0,0,0-.531-.517h-.434a.524.524,0,0,0-.531.517v7.459a.524.524,0,0,0,.531.516" transform="translate(-334.454 -16.486)" fill="#37474f"/>
        <path id="Trazado_828056" data-name="Trazado 828056" d="M378.02,242.031h.434a.524.524,0,0,0,.531-.516v-7.459a.524.524,0,0,0-.531-.517h-.434a.524.524,0,0,0-.531.517v7.459a.524.524,0,0,0,.531.516" transform="translate(-340.137 -16.486)" fill="#37474f"/>
      </g>
    </g>
    <path id="Trazado_828083" data-name="Trazado 828083" d="M0,.02,26.95.012v3.66L0,3.68Z" transform="translate(274.135 335.844) rotate(-90.573)" fill="#aaccc4"/>
    <path id="Trazado_828111" data-name="Trazado 828111" d="M0,.012l16.5,0V3.668L0,3.673Z" transform="translate(298.99 330.825) rotate(-90.571)" fill="#aaccc4"/>
    <path id="Trazado_828072" data-name="Trazado 828072" d="M.01,21.244l8.752,0L8.768,0,.016.006Z" transform="translate(277.72 327.172) rotate(-90.572)" fill="#aaccc4"/>
    <g id="Grupo_1076806" data-name="Grupo 1076806">
      <g id="Grupo_1076805" data-name="Grupo 1076805" clip-path="url(#clip-path)">
        <g id="Grupo_1076798" data-name="Grupo 1076798" transform="translate(277.636 318.383)" opacity="0.2">
          <g id="Grupo_1076797" data-name="Grupo 1076797">
            <g id="Grupo_1076796" data-name="Grupo 1076796" clip-path="url(#clip-path-14)">
              <path id="Trazado_828057" data-name="Trazado 828057" d="M127.74,351.306l-1.254-8.739-2.263.021.09,8.751Z" transform="translate(-124.224 -342.566)"/>
            </g>
          </g>
        </g>
        <path id="Trazado_828058" data-name="Trazado 828058" d="M257.287,347.659c-3.685-.088-7.37-.111-11.054-.123l-11.052.037-11.05.177-5.525.138c-1.842.067-3.683.114-5.524.2,1.843.05,3.684.061,5.527.093l5.527.031,11.052-.039,11.05-.177c3.683-.084,7.367-.178,11.049-.337" transform="translate(-61.147 -24.534)" fill="#263238"/>
        <path id="Trazado_828112" data-name="Trazado 828112" d="M.056.014,19.341.008l-.021,75.34L.034,75.355Z" transform="translate(198.765 332.798) rotate(-90.572)" fill="#aaccc4"/>
        <g id="Grupo_1076801" data-name="Grupo 1076801" transform="translate(198.581 312.554)" opacity="0.6">
          <g id="Grupo_1076800" data-name="Grupo 1076800" transform="translate(0 0)">
            <g id="Grupo_1076799" data-name="Grupo 1076799" clip-path="url(#clip-path-15)">
              <path id="Trazado_828113" data-name="Trazado 828113" d="M.056.014,19.341.008l-.021,75.34L.034,75.355Z" transform="translate(0.185 20.071) rotate(-90.572)" fill="#fff"/>
            </g>
          </g>
        </g>
        <path id="Trazado_828084" data-name="Trazado 828084" d="M.053.01l14.21,0-.021,71.776-14.21,0Z" transform="translate(198.743 330.261) rotate(-90.573)" fill="#d5fff5"/>
        <path id="Trazado_828059" data-name="Trazado 828059" d="M202.375,341.574l-.036-3.585-.439,0,.036,3.585Z" transform="translate(4.464 -23.86)" fill="#263238"/>
        <path id="Trazado_828085" data-name="Trazado 828085" d="M0,0H3.585V.44H0Z" transform="translate(207.88 317.705) rotate(-90.579)" fill="#263238"/>
        <path id="Trazado_828086" data-name="Trazado 828086" d="M0,0H3.585V.44H0Z" transform="translate(209.362 317.691) rotate(-90.579)" fill="#263238"/>
        <path id="Trazado_828087" data-name="Trazado 828087" d="M0,0H3.585V.44H0Z" transform="translate(210.843 317.676) rotate(-90.579)" fill="#263238"/>
        <path id="Trazado_828088" data-name="Trazado 828088" d="M0,0,6.22,0V.441L0,.443Z" transform="matrix(-0.01, -1, 1, -0.01, 212.351, 320.296)" fill="#263238"/>
        <path id="Trazado_828089" data-name="Trazado 828089" d="M0,0H3.585V.44H0Z" transform="translate(213.734 317.648) rotate(-90.579)" fill="#263238"/>
        <path id="Trazado_828090" data-name="Trazado 828090" d="M0,0H3.585V.44H0Z" transform="translate(215.215 317.634) rotate(-90.579)" fill="#263238"/>
        <path id="Trazado_828060" data-name="Trazado 828060" d="M191.609,341.467l-.036-3.585-.439,0,.036,3.585Z" transform="translate(25.529 -23.852)" fill="#263238"/>
        <path id="Trazado_828114" data-name="Trazado 828114" d="M0,0H3.585V.44H0Z" transform="translate(218.179 317.605) rotate(-90.564)" fill="#263238"/>
        <path id="Trazado_828091" data-name="Trazado 828091" d="M0,0,6.22,0V.441L0,.443Z" transform="translate(219.687 320.225) rotate(-90.574)" fill="#263238"/>
        <path id="Trazado_828092" data-name="Trazado 828092" d="M0,0H3.585V.44H0Z" transform="translate(221.07 317.577) rotate(-90.579)" fill="#263238"/>
        <path id="Trazado_828115" data-name="Trazado 828115" d="M0,0H3.585V.44H0Z" transform="translate(222.552 317.563) rotate(-90.564)" fill="#263238"/>
        <path id="Trazado_828061" data-name="Trazado 828061" d="M183.941,341.39l-.036-3.585-.439,0,.036,3.585Z" transform="translate(40.533 -23.847)" fill="#263238"/>
        <path id="Trazado_828093" data-name="Trazado 828093" d="M0,0H3.585V.44H0Z" transform="translate(225.515 317.534) rotate(-90.579)" fill="#263238"/>
        <path id="Trazado_828094" data-name="Trazado 828094" d="M0,0,6.22,0V.441L0,.443Z" transform="matrix(-0.01, -1, 1, -0.01, 227.023, 320.154)" fill="#263238"/>
        <path id="Trazado_828095" data-name="Trazado 828095" d="M0,0H3.585V.44H0Z" transform="translate(228.406 317.506) rotate(-90.579)" fill="#263238"/>
        <path id="Trazado_828062" data-name="Trazado 828062" d="M177.822,341.329l-.036-3.585-.439,0,.036,3.585Z" transform="translate(52.507 -23.842)" fill="#263238"/>
        <path id="Trazado_828096" data-name="Trazado 828096" d="M0,0H3.585V.44H0Z" transform="translate(231.369 317.477) rotate(-90.579)" fill="#263238"/>
        <path id="Trazado_828116" data-name="Trazado 828116" d="M0,0H3.585V.44H0Z" transform="translate(232.851 317.463) rotate(-90.564)" fill="#263238"/>
        <path id="Trazado_828097" data-name="Trazado 828097" d="M0,0,6.22,0V.441L0,.443Z" transform="matrix(-0.01, -1, 1, -0.01, 234.358, 320.083)" fill="#263238"/>
        <path id="Trazado_828063" data-name="Trazado 828063" d="M171.7,341.268l-.036-3.585-.439,0,.036,3.585Z" transform="translate(64.48 -23.838)" fill="#263238"/>
        <path id="Trazado_828117" data-name="Trazado 828117" d="M0,0H3.585V.44H0Z" transform="translate(237.224 317.42) rotate(-90.564)" fill="#263238"/>
        <path id="Trazado_828098" data-name="Trazado 828098" d="M0,0H3.585V.44H0Z" transform="translate(238.705 317.406) rotate(-90.579)" fill="#263238"/>
        <path id="Trazado_828064" data-name="Trazado 828064" d="M167.057,341.222l-.036-3.585-.439,0,.036,3.585Z" transform="translate(73.572 -23.835)" fill="#263238"/>
        <path id="Trazado_828099" data-name="Trazado 828099" d="M0,0,6.22,0V.441L0,.443Z" transform="translate(241.695 320.012) rotate(-90.574)" fill="#263238"/>
        <path id="Trazado_828065" data-name="Trazado 828065" d="M164.035,341.191,164,337.607l-.439,0,.036,3.585Z" transform="translate(79.484 -23.833)" fill="#263238"/>
        <path id="Trazado_828100" data-name="Trazado 828100" d="M0,0H3.585V.44H0Z" transform="translate(244.56 317.349) rotate(-90.579)" fill="#263238"/>
        <path id="Trazado_828101" data-name="Trazado 828101" d="M0,0H3.585V.44H0Z" transform="translate(246.041 317.335) rotate(-90.579)" fill="#263238"/>
        <path id="Trazado_828066" data-name="Trazado 828066" d="M159.389,341.145l-.036-3.585-.439,0,.036,3.585Z" transform="translate(88.576 -23.829)" fill="#263238"/>
        <path id="Trazado_828102" data-name="Trazado 828102" d="M0,0,6.22,0V.441L0,.443Z" transform="matrix(-0.01, -1, 1, -0.01, 249.03, 319.941)" fill="#263238"/>
        <path id="Trazado_828118" data-name="Trazado 828118" d="M0,0H3.585V.44H0Z" transform="translate(250.414 317.292) rotate(-90.564)" fill="#263238"/>
        <path id="Trazado_828067" data-name="Trazado 828067" d="M154.818,341.1l-.036-3.585-.439,0,.036,3.585Z" transform="translate(97.519 -23.826)" fill="#263238"/>
        <path id="Trazado_828068" data-name="Trazado 828068" d="M153.27,341.084l-.036-3.585-.439,0,.036,3.585Z" transform="translate(100.549 -23.825)" fill="#263238"/>
        <path id="Trazado_828119" data-name="Trazado 828119" d="M0,0H3.585V.44H0Z" transform="translate(254.859 317.249) rotate(-90.564)" fill="#263238"/>
        <path id="Trazado_828103" data-name="Trazado 828103" d="M0,0,6.22,0V.441L0,.443Z" transform="translate(256.366 319.869) rotate(-90.574)" fill="#263238"/>
        <path id="Trazado_828069" data-name="Trazado 828069" d="M148.7,341.038l-.036-3.585-.439,0,.036,3.585Z" transform="translate(109.492 -23.822)" fill="#263238"/>
        <path id="Trazado_828120" data-name="Trazado 828120" d="M0,0H3.585V.44H0Z" transform="translate(259.232 317.207) rotate(-90.564)" fill="#263238"/>
        <path id="Trazado_828121" data-name="Trazado 828121" d="M0,0H3.585V.44H0Z" transform="translate(260.713 317.192) rotate(-90.564)" fill="#263238"/>
        <path id="Trazado_828104" data-name="Trazado 828104" d="M0,0H3.585V.44H0Z" transform="translate(262.195 317.178) rotate(-90.579)" fill="#263238"/>
        <path id="Trazado_828105" data-name="Trazado 828105" d="M0,0,6.22,0V.441L0,.443Z" transform="matrix(-0.01, -1, 1, -0.01, 263.702, 319.798)" fill="#263238"/>
        <path id="Trazado_828122" data-name="Trazado 828122" d="M0,0H3.585V.44H0Z" transform="translate(265.086 317.15) rotate(-90.564)" fill="#263238"/>
        <path id="Trazado_828106" data-name="Trazado 828106" d="M0,0H3.585V.44H0Z" transform="translate(266.568 317.136) rotate(-90.579)" fill="#263238"/>
        <path id="Trazado_828107" data-name="Trazado 828107" d="M0,0H3.585V.44H0Z" transform="translate(268.049 317.121) rotate(-90.579)" fill="#263238"/>
        <path id="Trazado_828108" data-name="Trazado 828108" d="M0,0H3.585V.44H0Z" transform="translate(269.531 317.107) rotate(-90.579)" fill="#263238"/>
        <path id="Trazado_828109" data-name="Trazado 828109" d="M0,0,6.22,0V.441L0,.443Z" transform="matrix(-0.01, -1, 1, -0.01, 271.039, 319.727)" fill="#263238"/>
        <path id="Trazado_828123" data-name="Trazado 828123" d="M0,.014,19.29.008l0,5.678L0,5.692Z" transform="translate(198.765 332.747) rotate(-90.572)" fill="#263238"/>
        <path id="Trazado_828110" data-name="Trazado 828110" d="M0,.01l13.028,0,0,6.5L0,6.514Z" transform="matrix(-0.01, -1, 1, -0.01, 192.233, 329.682)" fill="#aaccc4"/>
        <path id="Trazado_828070" data-name="Trazado 828070" d="M217.236,349.29l-.034-3.356,7.791-.676.047,4.556Z" transform="translate(-32.84 -24.373)" fill="#aaccc4"/>
        <g id="Grupo_1076804" data-name="Grupo 1076804" transform="translate(189.943 320.887)" opacity="0.1">
          <g id="Grupo_1076803" data-name="Grupo 1076803">
            <g id="Grupo_1076802" data-name="Grupo 1076802" clip-path="url(#clip-path-16)">
              <path id="Trazado_828071" data-name="Trazado 828071" d="M219.458,349.816l-.047-4.556-2.208.19.387,4.241Z" transform="translate(-217.204 -345.26)"/>
            </g>
          </g>
        </g>
      </g>
    </g>
  </g>
</svg>
