<svg xmlns="http://www.w3.org/2000/svg" xmlns:xlink="http://www.w3.org/1999/xlink" width="611" height="752" viewBox="0 0 611 752">
  <defs>
    <clipPath id="clip-path">
      <rect id="Rectángulo_380425" data-name="Rectángulo 380425" width="611" height="752" transform="translate(494.5 3449)" fill="#fff" stroke="#707070" stroke-width="1"/>
    </clipPath>
    <clipPath id="clip-path-2">
      <rect id="Rectángulo_380330" data-name="Rectángulo 380330" width="859.307" height="707.334" fill="none"/>
    </clipPath>
    <clipPath id="clip-path-4">
      <rect id="Rectángulo_380319" data-name="Rectángulo 380319" width="859.307" height="64.492" fill="none"/>
    </clipPath>
    <clipPath id="clip-path-5">
      <path id="Trazado_828124" data-name="Trazado 828124" d="M859.307,308.809c0,17.812-192.359,32.248-429.657,32.248S0,326.62,0,308.809s192.363-32.244,429.65-32.244S859.307,291,859.307,308.809" transform="translate(0 -276.565)" fill="none"/>
    </clipPath>
    <radialGradient id="radial-gradient" cx="0.5" cy="0.5" r="5.766" gradientTransform="matrix(0.075, 0, 0, -0.105, 0, 1.105)" gradientUnits="objectBoundingBox">
      <stop offset="0"/>
      <stop offset="0.332"/>
      <stop offset="0.343" stop-color="#0d0d0d"/>
      <stop offset="0.393" stop-color="#3f3f3f"/>
      <stop offset="0.446" stop-color="#6c6c6c"/>
      <stop offset="0.501" stop-color="#949494"/>
      <stop offset="0.56" stop-color="#b5b5b5"/>
      <stop offset="0.622" stop-color="#d0d0d0"/>
      <stop offset="0.69" stop-color="#e5e5e5"/>
      <stop offset="0.766" stop-color="#f3f3f3"/>
      <stop offset="0.857" stop-color="#fcfcfc"/>
      <stop offset="1" stop-color="#fff"/>
    </radialGradient>
    <clipPath id="clip-path-6">
      <rect id="Rectángulo_380320" data-name="Rectángulo 380320" width="80.754" height="165.786" fill="none"/>
    </clipPath>
    <clipPath id="clip-path-7">
      <rect id="Rectángulo_380321" data-name="Rectángulo 380321" width="45.428" height="81.481" fill="none"/>
    </clipPath>
    <clipPath id="clip-path-8">
      <rect id="Rectángulo_380322" data-name="Rectángulo 380322" width="66.426" height="165.786" fill="none"/>
    </clipPath>
    <clipPath id="clip-path-9">
      <rect id="Rectángulo_380323" data-name="Rectángulo 380323" width="53.537" height="84.9" fill="none"/>
    </clipPath>
    <clipPath id="clip-path-10">
      <rect id="Rectángulo_380324" data-name="Rectángulo 380324" width="148.405" height="257.856" fill="none"/>
    </clipPath>
    <clipPath id="clip-path-11">
      <rect id="Rectángulo_380325" data-name="Rectángulo 380325" width="6.624" height="34.196" fill="none"/>
    </clipPath>
    <clipPath id="clip-path-12">
      <rect id="Rectángulo_380326" data-name="Rectángulo 380326" width="14.946" height="21.858" fill="none"/>
    </clipPath>
    <clipPath id="clip-path-13">
      <rect id="Rectángulo_380327" data-name="Rectángulo 380327" width="49.305" height="86.169" fill="none"/>
    </clipPath>
    <clipPath id="clip-path-14">
      <rect id="Rectángulo_380328" data-name="Rectángulo 380328" width="9.865" height="85.877" fill="none"/>
    </clipPath>
  </defs>
  <g id="Enmascarar_grupo_425" data-name="Enmascarar grupo 425" transform="translate(-494.5 -3449)" clip-path="url(#clip-path)">
    <g id="Grupo_1076855" data-name="Grupo 1076855" transform="translate(374.5 3486.133)">
      <g id="Grupo_1076854" data-name="Grupo 1076854" clip-path="url(#clip-path-2)">
        <g id="Grupo_1076853" data-name="Grupo 1076853">
          <g id="Grupo_1076852" data-name="Grupo 1076852" clip-path="url(#clip-path-2)">
            <g id="Grupo_1076824" data-name="Grupo 1076824" transform="translate(0 642.842)" opacity="0.3">
              <g id="Grupo_1076823" data-name="Grupo 1076823">
                <g id="Grupo_1076822" data-name="Grupo 1076822" clip-path="url(#clip-path-4)">
                  <g id="Grupo_1076821" data-name="Grupo 1076821" transform="translate(0 0)">
                    <g id="Grupo_1076820" data-name="Grupo 1076820" clip-path="url(#clip-path-5)">
                      <rect id="Rectángulo_380318" data-name="Rectángulo 380318" width="859.307" height="64.492" fill="url(#radial-gradient)"/>
                    </g>
                  </g>
                </g>
              </g>
            </g>
            <path id="Trazado_828125" data-name="Trazado 828125" d="M232.632,165.071c0,20.754-17.442,7.515-31.237,7.515s-31.235,13.24-31.235-7.515S187.6,7.232,201.4,7.232s31.237,137.085,31.237,157.839" transform="translate(225.357 9.578)" fill="#681e1e"/>
            <path id="Trazado_828126" data-name="Trazado 828126" d="M151.292,244.949H120.868c0-88.826,47.317-155.452,65.3-165.786l15.153,26.379.3-.184c-8.884,6.278-50.33,62.663-50.33,139.591" transform="translate(160.075 104.842)" fill="#ffcc80"/>
            <g id="Grupo_1076827" data-name="Grupo 1076827" transform="translate(280.943 184.005)" opacity="0.05">
              <g id="Grupo_1076826" data-name="Grupo 1076826">
                <g id="Grupo_1076825" data-name="Grupo 1076825" clip-path="url(#clip-path-6)">
                  <path id="Trazado_828127" data-name="Trazado 828127" d="M201.324,105.542,186.169,79.163c-.2.112-.411.267-.614.393l13.8,24.016.3-.186c-8.886,6.278-50.332,62.665-50.332,139.593H120.9c-.007.658-.033,1.309-.033,1.971h30.424c0-76.928,41.446-133.312,50.33-139.593Z" transform="translate(-120.868 -79.163)" fill="#212121"/>
                </g>
              </g>
            </g>
            <path id="Trazado_828128" data-name="Trazado 828128" d="M117.444,181.606c-.681,17.93,7.984,32.948,19.339,33.513,30.868,1.543,21.129-13.514,21.814-31.449s-7.977-32.946-19.337-33.515c-19.188-.962-20.58-1.034-21.817,31.451" transform="translate(155.491 198.509)" fill="#ff8f00"/>
            <path id="Trazado_828129" data-name="Trazado 828129" d="M136.266,175.125c6.878,10.392,15.2,16.424,18.6,13.461s.574-13.791-6.3-24.188-15.2-16.44-18.6-13.477-.583,13.793,6.3,24.2" transform="translate(170.213 198.879)" fill="#ff8f00"/>
            <path id="Trazado_828130" data-name="Trazado 828130" d="M160.212,144.891c.586,8.326-3.243,24.836-3.243,24.836l-36.637,2.489s-4.293-23.739-1.548-30.745c6.239,2.6,33.8,6.12,41.427,3.419" transform="translate(156.101 187.363)" fill="#ff8f00"/>
            <g id="Grupo_1076830" data-name="Grupo 1076830" transform="translate(281.092 332.254)" opacity="0.5">
              <g id="Grupo_1076829" data-name="Grupo 1076829">
                <g id="Grupo_1076828" data-name="Grupo 1076828" clip-path="url(#clip-path-7)">
                  <path id="Trazado_828131" data-name="Trazado 828131" d="M158.621,173.966a56.915,56.915,0,0,0-5.506-7.094c.774-3.521,3.542-16.752,3.04-23.93a12.532,12.532,0,0,1-1.925.474c-.109,7.408-2.394,18.33-3.089,21.487a56.639,56.639,0,0,1,5.509,7.089c6.871,10.4,9.7,21.231,6.3,24.19-2.192,1.911-6.436.046-11.015-4.277-.307,17.484,8.493,31.953-21.793,30.44a15.021,15.021,0,0,1-9.211-4.044c3.133,3.6,6.971,5.8,11.185,6.016,30.284,1.513,21.487-12.956,21.793-30.442,4.577,4.326,8.823,6.188,11.013,4.279,3.4-2.957.572-13.788-6.3-24.188" transform="translate(-120.933 -142.943)" fill="#212121"/>
                </g>
              </g>
            </g>
            <path id="Trazado_828132" data-name="Trazado 828132" d="M292.33,244.949H261.913c0-76.932-41.448-133.315-50.327-139.591l15.448-26.2c17.984,10.332,65.3,76.953,65.3,165.786" transform="translate(280.22 104.842)" fill="#ffcc80"/>
            <g id="Grupo_1076833" data-name="Grupo 1076833" transform="translate(506.124 184.005)" opacity="0.05">
              <g id="Grupo_1076832" data-name="Grupo 1076832">
                <g id="Grupo_1076831" data-name="Grupo 1076831" clip-path="url(#clip-path-8)">
                  <path id="Trazado_828133" data-name="Trazado 828133" d="M218.876,79.163l-1.13,1.92C237.38,96,280.23,160.391,280.23,244.949h3.942c0-88.833-47.315-155.455-65.3-165.786" transform="translate(-217.746 -79.163)" fill="#212121"/>
                </g>
              </g>
            </g>
            <path id="Trazado_828134" data-name="Trazado 828134" d="M273.759,181.606c.681,17.93-7.982,32.948-19.339,33.513-30.872,1.543-21.138-13.514-21.814-31.449s7.973-32.946,19.33-33.515c19.195-.962,20.589-1.034,21.824,31.451" transform="translate(306.813 198.509)" fill="#ff8f00"/>
            <path id="Trazado_828135" data-name="Trazado 828135" d="M246.764,175.125c-6.878,10.392-15.208,16.424-18.6,13.461s-.572-13.791,6.306-24.188,15.2-16.44,18.6-13.477.581,13.793-6.3,24.2" transform="translate(300.265 198.879)" fill="#ff8f00"/>
            <path id="Trazado_828136" data-name="Trazado 828136" d="M231.148,144.891c-.59,8.326,3.238,24.836,3.238,24.836l36.635,2.489s4.3-23.739,1.553-30.745c-6.241,2.6-33.8,6.12-41.425,3.419" transform="translate(306.046 187.363)" fill="#ff8f00"/>
            <g id="Grupo_1076836" data-name="Grupo 1076836" transform="translate(527.072 328.835)" opacity="0.5">
              <g id="Grupo_1076835" data-name="Grupo 1076835">
                <g id="Grupo_1076834" data-name="Grupo 1076834" clip-path="url(#clip-path-9)">
                  <path id="Trazado_828137" data-name="Trazado 828137" d="M280.261,192.752c-.5-13.035-1.037-20.771-2.724-25.368,1.088-7.312,2.736-20.892.772-25.912a23.521,23.521,0,0,1-3.105.962c.363,6.287-.781,15.45-1.608,21.008,1.685,4.6,2.224,12.333,2.719,25.366.681,17.93-7.98,32.948-19.339,33.515-8.617.43-14.06-.437-17.461-2.3,2.28,4.451,8.021,6.908,21.405,6.239,11.359-.565,20.022-15.583,19.341-33.513m-52.15,7.35c1.49,1.3,3.935.82,6.783-.955,2.7-1.929,5.083-3.342,4.839-6.176-3.159,2.989-10.7,3.67-12.975,3.877a4.852,4.852,0,0,0,1.353,3.254" transform="translate(-226.758 -141.472)" fill="#212121"/>
                </g>
              </g>
            </g>
            <path id="Trazado_828138" data-name="Trazado 828138" d="M240.6,417.388h-32.79L185.949,174.7,267.93,159.53Z" transform="translate(246.267 211.279)" fill="#184054"/>
            <path id="Trazado_828139" data-name="Trazado 828139" d="M173.3,417.388h32.788L227.961,174.7,145.975,159.53Z" transform="translate(193.327 211.279)" fill="#184054"/>
            <path id="Trazado_828140" data-name="Trazado 828140" d="M217.915,239.7l-14.841-8.77H189.037l-14.846,8.77V156.268h43.724Z" transform="translate(230.695 206.959)" fill="#184054"/>
            <g id="Grupo_1076839" data-name="Grupo 1076839" transform="translate(365.792 370.811)" opacity="0.4">
              <g id="Grupo_1076838" data-name="Grupo 1076838">
                <g id="Grupo_1076837" data-name="Grupo 1076837" clip-path="url(#clip-path-10)">
                  <path id="Trazado_828141" data-name="Trazado 828141" d="M296.877,161.177,270.565,409.5H244.948l.711,7.887h32.792l27.325-257.857ZM223.8,218.721H203.425l-3.3,1.948L183.11,409.5H157.372l.834,7.887H191l17.017-188.835,3.3-1.945h14.037l3.3,1.945Z" transform="translate(-157.372 -159.531)" fill="#212121"/>
                </g>
              </g>
            </g>
            <path id="Trazado_828142" data-name="Trazado 828142" d="M146.956,205.015c0-112.746,38.136-142.812,85.175-142.812S317.3,92.269,317.3,205.015Z" transform="translate(194.626 82.38)" fill="#153d51"/>
            <path id="Trazado_828143" data-name="Trazado 828143" d="M238.48,159.993c34.066,0,39.752-30.057,39.752-37.574S261.192,84.835,221.447,69.8s-5.678,60.132-5.678,60.132Z" transform="translate(267.763 89.812)" fill="#153d51"/>
            <path id="Trazado_828144" data-name="Trazado 828144" d="M172.042,159.993c-34.066,0-39.742-30.057-39.742-37.574S149.328,84.835,189.078,69.8s5.676,60.132,5.676,60.132Z" transform="translate(175.215 89.812)" fill="#153d51"/>
            <path id="Trazado_828145" data-name="Trazado 828145" d="M335.121,118.576c0,31.135-43.219,56.369-96.522,56.369s-96.529-25.233-96.529-56.369S185.29,62.2,238.6,62.2s96.522,25.236,96.522,56.373" transform="translate(188.155 82.38)" fill="#153d51"/>
            <path id="Trazado_828146" data-name="Trazado 828146" d="M268.808,193.655C243.373,181.022,237.9,139.239,249.57,81.239c.353-1.769.707-3.487,1.072-5.237L214.576,62.2,183.6,145.763v146.25c0,11.527,7.343,20.892,16.4,20.892l60.12-6.966c9.051,0,16.4-9.358,16.4-20.9l-5.723-87.59c-.384-2.106.662-2.489-1.985-3.8" transform="translate(243.155 82.379)" fill="#f57f17"/>
            <path id="Trazado_828147" data-name="Trazado 828147" d="M268.585,190.906c-.381-2.1.649-2.485-1.957-3.782L268.91,273.1c0,11.541-7.35,20.9-16.4,20.9l-60.12,6.966a13.447,13.447,0,0,1-7.124-2.157c3.01,4.579,7.468,7.554,12.521,7.554l60.12-6.966c9.053,0,16.4-9.356,16.4-20.894ZM254.72,177.392c-14.96-18.651-16.905-55.234-7.359-102.7.353-1.767.709-3.487,1.072-5.235L242.4,67.147c-.144.714-.291,1.42-.439,2.145-10.583,52.645-7,91.848,12.761,108.1" transform="translate(245.361 88.928)" fill="#e26910"/>
            <path id="Trazado_828148" data-name="Trazado 828148" d="M272.845,142.043H183.6V128.115h88.38Z" transform="translate(243.154 169.673)" fill="#212121"/>
            <path id="Trazado_828149" data-name="Trazado 828149" d="M275.146,157.021H183.6V143.1h90.628Z" transform="translate(243.154 189.513)" fill="#212121"/>
            <path id="Trazado_828150" data-name="Trazado 828150" d="M228.576,67.366,201.455,212.236l-1.316,6.962-10.664-3.2.711-3.759L221.349,64.6Z" transform="translate(250.937 85.552)" fill="#212121"/>
            <path id="Trazado_828151" data-name="Trazado 828151" d="M151.332,193.655c25.433-12.633,30.9-54.416,19.237-112.416-.356-1.769-.714-3.487-1.069-5.237l36.058-13.8,30.982,83.561v146.25c0,11.527-7.345,20.892-16.4,20.892l-60.122-6.966c-9.056,0-16.392-9.358-16.392-20.9l5.72-87.59c.386-2.106-.662-2.489,1.987-3.8" transform="translate(190.213 82.379)" fill="#f57f17"/>
            <path id="Trazado_828152" data-name="Trazado 828152" d="M203.054,62.2l-2.176.832,29.213,78.787V288.075c0,11.522-7.345,20.887-16.4,20.887L153.568,302a13.689,13.689,0,0,1-8.052-2.794c2.994,4.119,7.243,6.736,11.994,6.736l60.122,6.966c9.056,0,16.4-9.363,16.4-20.889V145.764Z" transform="translate(192.718 82.38)" fill="#e26910"/>
            <path id="Trazado_828153" data-name="Trazado 828153" d="M145.2,142.043h89.254V128.115h-88.38Z" transform="translate(192.299 169.673)" fill="#212121"/>
            <path id="Trazado_828154" data-name="Trazado 828154" d="M144.212,157.021h91.55V143.1H145.137Z" transform="translate(190.991 189.513)" fill="#212121"/>
            <path id="Trazado_828155" data-name="Trazado 828155" d="M160.968,67.3l26.97,144.934,1.306,6.961,10.662-3.2-.709-3.759L168.041,64.6Z" transform="translate(213.182 85.553)" fill="#212121"/>
            <path id="Trazado_828156" data-name="Trazado 828156" d="M187.887,240.921c0,1.922-1.218,3.48-2.729,3.48s-2.736-1.557-2.736-3.48V101.639c0-1.922,1.227-3.484,2.736-3.484s2.729,1.562,2.729,3.484Z" transform="translate(241.596 129.995)" fill="#212121"/>
            <path id="Trazado_828157" data-name="Trazado 828157" d="M191,101.149h-5.469l-5.462,20.894,2.727,6.964h10.939l2.731-6.964Zm-2.733,24.641a4.28,4.28,0,1,1,4.281-4.279,4.277,4.277,0,0,1-4.281,4.279" transform="translate(238.482 133.96)" fill="#e0e0e0"/>
            <path id="Trazado_828158" data-name="Trazado 828158" d="M229.777,81.134c-4.3,8.986-15.8,15.415-29.415,15.415s-25.12-6.429-29.42-15.415c.7-5.96,1.483-12.545,2.422-19.515,5.4-6.892,15.415-11.541,27-11.541s21.594,4.649,27,11.541c.939,6.971,1.72,13.556,2.42,19.515" transform="translate(226.392 66.322)" fill="#ffb74d"/>
            <path id="Trazado_828159" data-name="Trazado 828159" d="M262.639,65.051c0,37.436-22.544,79.752-50.348,79.752s-50.355-42.315-50.355-79.752S184.477,9.226,212.29,9.226s50.348,18.386,50.348,55.825" transform="translate(214.463 12.219)" fill="#ffcc80"/>
            <path id="Trazado_828160" data-name="Trazado 828160" d="M212.329,49.255c-1.22,9.5,1.109,17.561-4.121,17.005s-8.472-8.719-7.252-18.221,6.466-16.756,11.7-16.2.907,7.905-.323,17.419" transform="translate(265.803 42.124)" fill="#ffcc80"/>
            <path id="Trazado_828161" data-name="Trazado 828161" d="M163.117,49.255c1.22,9.5-1.118,17.561,4.121,17.005s8.477-8.719,7.25-18.221-6.466-16.756-11.7-16.2-.9,7.905.325,17.419" transform="translate(212.254 42.124)" fill="#ffcc80"/>
            <path id="Trazado_828162" data-name="Trazado 828162" d="M228.215,74.064c0,15.694-12.721,26.14-28.423,26.14S171.37,89.758,171.37,74.064c0-9.628,6.42-19.671,14.007-26,4.784-3.982,6.824-9.676,14.416-9.676,7.8,0,9.642,5.7,14.43,9.683,7.577,6.325,13.993,16.364,13.993,25.989" transform="translate(226.959 50.846)" fill="#f5f5f5"/>
            <path id="Trazado_828163" data-name="Trazado 828163" d="M194.014,64.926a1.944,1.944,0,0,1-1.3-.5L161.743,36.35a1.935,1.935,0,0,1,2.6-2.864l30.97,28.067a1.939,1.939,0,0,1-1.3,3.373" transform="translate(213.368 43.681)" fill="#f5f5f5"/>
            <path id="Trazado_828164" data-name="Trazado 828164" d="M193.031,64.928a1.94,1.94,0,0,1-1.32-3.354l30-28.069a1.937,1.937,0,0,1,2.647,2.829l-30,28.072a1.932,1.932,0,0,1-1.325.523" transform="translate(253.087 43.679)" fill="#f5f5f5"/>
            <path id="Trazado_828165" data-name="Trazado 828165" d="M185.743,73.3a1.921,1.921,0,0,1-1.369-.567L165,53.362a1.935,1.935,0,0,1,2.733-2.74l19.376,19.369a1.94,1.94,0,0,1,0,2.738,1.92,1.92,0,0,1-1.371.572" transform="translate(217.77 66.29)" fill="#f5f5f5"/>
            <path id="Trazado_828166" data-name="Trazado 828166" d="M194.693,73.3a1.906,1.906,0,0,1-1.357-.567,1.93,1.93,0,0,1,0-2.743l19.357-19.369a1.937,1.937,0,0,1,2.738,2.74L196.074,72.733a1.951,1.951,0,0,1-1.381.567" transform="translate(255.293 66.291)" fill="#f5f5f5"/>
            <path id="Trazado_828167" data-name="Trazado 828167" d="M207.915,52.241a1.863,1.863,0,0,1-1.934,1.941c-1.939,0-9.683-7.754-13.553-7.749s-11.624,7.749-13.56,7.749a1.937,1.937,0,0,1-1.934-1.941,1.832,1.832,0,0,1,1.934-1.939c1.936,0,5.811-7.745,13.56-7.747S204.042,50.3,205.981,50.3a1.935,1.935,0,0,1,1.934,1.939" transform="translate(234.327 56.359)" fill="#757575"/>
            <path id="Trazado_828168" data-name="Trazado 828168" d="M201.169,53.308a1.252,1.252,0,0,1-1.058,1.339c-6.745.2-13.526.2-20.273,0a1.247,1.247,0,0,1-1.055-1.339A1.206,1.206,0,0,1,179.845,52h20.262a1.209,1.209,0,0,1,1.062,1.306" transform="translate(236.777 68.87)" fill="#bdbdbd"/>
            <path id="Trazado_828169" data-name="Trazado 828169" d="M204.642,56.569a1.524,1.524,0,0,1-1.253,1.462,83.184,83.184,0,0,1-24.306,0,1.531,1.531,0,0,1-1.253-1.462,1.1,1.1,0,0,1,1.258-1.116,110,110,0,0,0,24.3,0,1.1,1.1,0,0,1,1.258,1.116" transform="translate(235.515 73.431)" fill="#bdbdbd"/>
            <path id="Trazado_828170" data-name="Trazado 828170" d="M202.823,60.044a1.658,1.658,0,0,1-1.139,1.574,48,48,0,0,1-22.216,0,1.661,1.661,0,0,1-1.139-1.574A.96.96,0,0,1,179.473,59a55.554,55.554,0,0,0,22.207,0,.959.959,0,0,1,1.144,1.041" transform="translate(236.175 78.114)" fill="#bdbdbd"/>
            <path id="Trazado_828171" data-name="Trazado 828171" d="M250.493,48.814c0,32.416-34.87,10.8-42.618,10.8s-42.611,21.526-42.611-10.885c0-23.244,0-19.371,42.611-19.371s42.618-3.872,42.618,19.453" transform="translate(218.874 38.565)" fill="#263238"/>
            <path id="Trazado_828172" data-name="Trazado 828172" d="M262.643,33.24c0,2.685-1.734,4.87-3.868,4.87H165.812c-2.138,0-3.877-2.185-3.877-4.87s1.739-4.874,3.877-4.874h92.964c2.134,0,3.868,2.183,3.868,4.874" transform="translate(214.463 37.567)" fill="#263238"/>
            <path id="Trazado_828173" data-name="Trazado 828173" d="M204.144,48.593c2.134,0,3.872-8.668,3.872-19.369h-7.754c0,10.7,1.729,19.369,3.882,19.369" transform="translate(265.223 38.704)" fill="#263238"/>
            <path id="Trazado_828174" data-name="Trazado 828174" d="M167.469,48.593c2.145,0,3.886-8.668,3.886-19.369H163.6c0,10.7,1.732,19.369,3.868,19.369" transform="translate(216.67 38.704)" fill="#263238"/>
            <path id="Trazado_828175" data-name="Trazado 828175" d="M201.658,41.545V33.8l-.967-1.936c-6.12,0-7.489-.074-11.989-.144-3.317-.053-6.22-.1-8.765-.1-8.956,0-10.892.73-11.248,1.16-.923,1.113-.923,7.24-.923,12.645,0,4.856.9,8.368,2.61,10.158.453.481,1.829,1.929,5.962,1.929,5.425,0,12.242-2.38,17.716-4.288,4.521-1.581,5.667-2.72,5.667-2.72Z" transform="translate(222.186 41.874)" fill="#bbdefb"/>
            <path id="Trazado_828176" data-name="Trazado 828176" d="M177.533,42.925c-2.4,0-4.347-1.636-4.347-3.656s1.943-3.654,4.347-3.654,4.351,1.636,4.351,3.654-1.95,3.656-4.351,3.656" transform="translate(229.364 47.168)" fill="#90caf9"/>
            <path id="Trazado_828177" data-name="Trazado 828177" d="M217.811,32.785c-.358-.435-2.3-1.165-11.285-1.165-2.543,0-5.444.042-8.768.1-4.491.067-5.848.144-11.945.144l-.967,1.936v7.747l1.934,8.956s1.162,1.146,5.7,2.736c5.479,1.922,12.3,4.319,17.726,4.319,3.4,0,8.526,0,8.526-12.059,0-5.7,0-11.587-.925-12.71" transform="translate(244.808 41.877)" fill="#bbdefb"/>
            <path id="Trazado_828178" data-name="Trazado 828178" d="M194.612,42.937c-2.4,0-4.344-1.636-4.344-3.656s1.943-3.656,4.344-3.656,4.349,1.639,4.349,3.656-1.943,3.656-4.349,3.656" transform="translate(251.987 47.181)" fill="#90caf9"/>
            <path id="Trazado_828179" data-name="Trazado 828179" d="M216.706,10.31c28.309,0,51.262,26.012,51.262,58.1h6.841c0-36.37-26.017-65.852-58.1-65.852s-58.1,29.482-58.1,65.852h6.834c0-32.09,22.953-58.1,51.271-58.1" transform="translate(210.048 3.392)" fill="#ff8f00"/>
            <path id="Trazado_828180" data-name="Trazado 828180" d="M170.524,71.341a4.581,4.581,0,0,1-9.146.525l-2.359-41.135a4.58,4.58,0,1,1,9.144-.525Z" transform="translate(210.591 34.288)" fill="#212121"/>
            <path id="Trazado_828181" data-name="Trazado 828181" d="M168.545,69.108c-7.578.432-14.244-8.421-14.89-19.778s4.96-20.924,12.528-21.356Z" transform="translate(203.428 37.047)" fill="#ff8f00"/>
            <g id="Grupo_1076842" data-name="Grupo 1076842" transform="translate(365.362 71.956)" opacity="0.1">
              <g id="Grupo_1076841" data-name="Grupo 1076841">
                <g id="Grupo_1076840" data-name="Grupo 1076840" clip-path="url(#clip-path-11)">
                  <path id="Trazado_828182" data-name="Trazado 828182" d="M157.187,63.052c3.233-6.624,5.088-23.974,4.651-32.1l1.973,34.185a10.343,10.343,0,0,1-6.624-2.09" transform="translate(-157.187 -30.957)" fill="#212121"/>
                </g>
              </g>
            </g>
            <path id="Trazado_828183" data-name="Trazado 828183" d="M203.236,71.341a4.582,4.582,0,0,0,9.149.525l2.345-41.135a4.574,4.574,0,1,0-9.133-.525Z" transform="translate(269.152 34.288)" fill="#212121"/>
            <path id="Trazado_828184" data-name="Trazado 828184" d="M207.164,69.108c7.577.432,14.237-8.421,14.895-19.778S217.1,28.405,209.521,27.973Z" transform="translate(274.364 37.047)" fill="#ff8f00"/>
            <g id="Grupo_1076845" data-name="Grupo 1076845" transform="translate(481.514 84.298)" opacity="0.1">
              <g id="Grupo_1076844" data-name="Grupo 1076844">
                <g id="Grupo_1076843" data-name="Grupo 1076843" clip-path="url(#clip-path-12)">
                  <path id="Trazado_828185" data-name="Trazado 828185" d="M222.1,36.267c0,.669,0,1.381-.037,2.09-.672,11.357-7.336,20.19-14.909,19.753l.274-4.574c9.065-.63,12.9-12.14,14.671-17.268" transform="translate(-207.158 -36.267)" fill="#212121"/>
                </g>
              </g>
            </g>
            <path id="Trazado_828186" data-name="Trazado 828186" d="M269.2,59.853c-2.369,0-18.611,5.165-50.664,5.165s-48.3-5.165-50.7-5.165c-10.374,0-15.5-1.892-4.342-11.159,3.04-14.074,9.818-25.352,19.52-33.081a3.987,3.987,0,0,1,1.539-5.4l7.017-4.1a4.1,4.1,0,0,1,5.555,1.5l.042.119c.079-.04.158-.04.239-.081a56.963,56.963,0,0,1,13.01-3.073V4.063a2.747,2.747,0,0,1,.037-.553A4.084,4.084,0,0,1,214.48,0H222.6a4.054,4.054,0,0,1,4.058,4.063v.511a.256.256,0,0,1,.16.037A55.659,55.659,0,0,1,239.9,7.729l.042-.119c0-.04.042-.04.081-.079a4.03,4.03,0,0,1,5.481-1.42l7.017,4.1a3.985,3.985,0,0,1,1.534,5.4c9.7,7.729,16.484,19.006,19.518,33.081,11.159,9.267,6.036,11.159-4.374,11.159" transform="translate(208.213)" fill="#f57f17"/>
            <path id="Trazado_828187" data-name="Trazado 828187" d="M201.7,4.9l-2.171,20.464a6.7,6.7,0,0,1-13.37-.672,4.075,4.075,0,0,1,.042-.711l2.287-22A55.677,55.677,0,0,1,201.576,5.1l.042-.116c0-.04.04-.04.081-.079" transform="translate(246.544 2.628)" fill="#e26910"/>
            <path id="Trazado_828188" data-name="Trazado 828188" d="M190,24.008a3.836,3.836,0,0,1,.039.672,6.742,6.742,0,0,1-6.034,6.7,6.672,6.672,0,0,1-7.371-5.992L174.507,5.043a56.872,56.872,0,0,1,13.01-3.075Z" transform="translate(231.114 2.606)" fill="#e26910"/>
            <path id="Trazado_828189" data-name="Trazado 828189" d="M238.637,32.406C201.619,42.775,192.7,39.74,183.6,39.74c11.2-2.917,54.686-1.813,47.036-27.442a62.03,62.03,0,0,1,8,20.108" transform="translate(243.154 16.287)" fill="#e26910"/>
            <path id="Trazado_828190" data-name="Trazado 828190" d="M280.536,336.268a2.646,2.646,0,0,1,.349-1.309,14.964,14.964,0,0,0,.876-5.279A8.646,8.646,0,0,0,280,324.4a15.624,15.624,0,0,0-5.1-2.878l-3.886-1.292a53.048,53.048,0,0,0-6.808-1.687l-14.183-2.369a12.919,12.919,0,0,1-5.964-3.061l-5.581-5.583a8.188,8.188,0,0,1-2.048-5.985l2.652-21.184c.237-1.92.572-5.065.753-6.994l2.071-22.9h-50.56l2.078,22.9c.184,1.929.581,5.074.9,6.98l2.366,14.176a51.69,51.69,0,0,1,.576,6.989,25.753,25.753,0,0,1-1.123,6.866l-1.283,3.872a25.766,25.766,0,0,0-1.118,6.869v12.322a9.47,9.47,0,0,0,.881,3.517,2.4,2.4,0,0,1,.328,1.39c12.28-2.041,56.8,1.395,85.574-.081" transform="translate(253.423 331.721)" fill="#dedede"/>
            <g id="Grupo_1076848" data-name="Grupo 1076848" transform="translate(485.879 582.195)" opacity="0.5">
              <g id="Grupo_1076847" data-name="Grupo 1076847">
                <g id="Grupo_1076846" data-name="Grupo 1076846" clip-path="url(#clip-path-13)">
                  <path id="Trazado_828191" data-name="Trazado 828191" d="M256.584,324.4a15.58,15.58,0,0,0-5.1-2.875l-3.886-1.295a53.082,53.082,0,0,0-6.81-1.687l-14.181-2.366a12.948,12.948,0,0,1-5.967-3.061l-5.579-5.586a8.178,8.178,0,0,1-2.048-5.985l2.65-21.182c.237-1.92.574-5.067.755-7l2.069-22.9h-3.94l-2.071,22.9c-.181,1.929-.521,5.076-.758,7l-2.645,21.182a8.182,8.182,0,0,0,2.041,5.985l5.581,5.586a12.968,12.968,0,0,0,5.969,3.061l14.183,2.366a53.3,53.3,0,0,1,6.806,1.687l3.889,1.295a15.592,15.592,0,0,1,5.1,2.875,8.659,8.659,0,0,1,1.753,5.279,14.954,14.954,0,0,1-.876,5.279,2.626,2.626,0,0,0-.346,1.309c-4.863.251-10.192.351-15.717.372,6.948.021,13.653-.063,19.66-.372a2.658,2.658,0,0,1,.349-1.309,14.954,14.954,0,0,0,.876-5.279,8.66,8.66,0,0,0-1.757-5.279" transform="translate(-209.036 -250.473)" fill="#212121"/>
                </g>
              </g>
            </g>
            <path id="Trazado_828192" data-name="Trazado 828192" d="M279.517,288c-.223,0-.33-.181-.349-.453-28.778,1.474-73.3-1.962-85.577.081-.035.218-.13.372-.325.372-.481,0-.881,1.185-.881,2.638a11.293,11.293,0,0,0,.439,3.526c.237.481,2.025.874,3.958.874h16.726c1.934,0,3.512-.793,3.512-1.76s1.59-1.762,3.528-1.762h3.514a8.61,8.61,0,0,1,5.279,1.762,8.644,8.644,0,0,0,5.29,1.76h40.479c1.936,0,3.919-.393,4.4-.874a6.243,6.243,0,0,0,.876-3.526c0-1.453-.4-2.638-.876-2.638" transform="translate(254.791 380.049)" fill="#212121"/>
            <path id="Trazado_828193" data-name="Trazado 828193" d="M138.173,336.268a2.665,2.665,0,0,0-.346-1.309,14.956,14.956,0,0,1-.879-5.279,8.646,8.646,0,0,1,1.757-5.279,15.623,15.623,0,0,1,5.1-2.878l3.889-1.292a52.919,52.919,0,0,1,6.806-1.687l14.183-2.369a12.926,12.926,0,0,0,5.967-3.061l5.581-5.583a8.193,8.193,0,0,0,2.043-5.985l-2.65-21.184c-.232-1.92-.572-5.065-.753-6.994l-2.073-22.9h50.56l-2.078,22.9c-.181,1.929-.581,5.074-.9,6.98l-2.369,14.176a52.065,52.065,0,0,0-.574,6.989,25.847,25.847,0,0,0,1.123,6.866l1.288,3.872a25.95,25.95,0,0,1,1.116,6.869v12.322a9.474,9.474,0,0,1-.883,3.517,2.443,2.443,0,0,0-.328,1.39c-12.28-2.041-56.8,1.395-85.574-.081" transform="translate(181.371 331.721)" fill="#dedede"/>
            <g id="Grupo_1076851" data-name="Grupo 1076851" transform="translate(398.864 582.195)" opacity="0.5">
              <g id="Grupo_1076850" data-name="Grupo 1076850">
                <g id="Grupo_1076849" data-name="Grupo 1076849" clip-path="url(#clip-path-14)">
                  <path id="Trazado_828194" data-name="Trazado 828194" d="M178.484,280.351c.321-1.906.723-5.053.9-6.982l2.078-22.9h-3.942l-2.08,22.9c-.179,1.929-.581,5.076-.9,6.982l-2.369,14.176a51.663,51.663,0,0,0-.574,6.987,25.849,25.849,0,0,0,1.123,6.869l1.285,3.872a25.858,25.858,0,0,1,1.118,6.869v12.319a9.474,9.474,0,0,1-.883,3.517,2.962,2.962,0,0,0-.3.99c1.5.1,2.864.228,3.919.4a2.447,2.447,0,0,1,.328-1.392,9.474,9.474,0,0,0,.883-3.517V319.124a25.949,25.949,0,0,0-1.116-6.869l-1.288-3.872a25.849,25.849,0,0,1-1.123-6.869,52.031,52.031,0,0,1,.574-6.987Z" transform="translate(-171.601 -250.473)" fill="#212121"/>
                </g>
              </g>
            </g>
            <path id="Trazado_828195" data-name="Trazado 828195" d="M137.827,288c.221,0,.328-.181.346-.453,28.778,1.474,73.3-1.962,85.577.081.033.218.13.372.328.372.479,0,.881,1.185.881,2.638a11.277,11.277,0,0,1-.442,3.526c-.237.481-2.022.874-3.958.874H203.834c-1.939,0-3.514-.793-3.514-1.76s-1.592-1.762-3.528-1.762h-3.517A8.614,8.614,0,0,0,188,293.282a8.64,8.64,0,0,1-5.286,1.76H142.229c-1.936,0-3.917-.393-4.4-.874a6.24,6.24,0,0,1-.879-3.526c0-1.453.4-2.638.879-2.638" transform="translate(181.371 380.049)" fill="#212121"/>
          </g>
        </g>
      </g>
    </g>
  </g>
</svg>
