<svg xmlns="http://www.w3.org/2000/svg" xmlns:xlink="http://www.w3.org/1999/xlink" width="189.799" height="157.863" viewBox="0 0 189.799 157.863">
  <defs>
    <clipPath id="clip-path">
      <rect id="Rectángulo_380335" data-name="Rectángulo 380335" width="189.799" height="157.863" fill="none"/>
    </clipPath>
    <clipPath id="clip-path-3">
      <rect id="Rectángulo_380332" data-name="Rectángulo 380332" width="39.568" height="43.814" transform="translate(133.669 100.465)" fill="none"/>
    </clipPath>
  </defs>
  <g id="Grupo_1076869" data-name="Grupo 1076869" clip-path="url(#clip-path)">
    <g id="Grupo_1076868" data-name="Grupo 1076868">
      <g id="Grupo_1076867" data-name="Grupo 1076867" clip-path="url(#clip-path)">
        <path id="Trazado_828197" data-name="Trazado 828197" d="M189.8,40.036l-.214-10.462A30.186,30.186,0,0,0,158.968,0L153.619.1a30.187,30.187,0,0,0-29.57,30.616l.195,4.674Z" fill="#e3381b"/>
        <path id="Trazado_828198" data-name="Trazado 828198" d="M156.354,12.951c.135-4.3.3-8.607.544-12.91L153.618.1a30.186,30.186,0,0,0-29.569,30.617l.195,4.674,12.229.867c.267-11.607,9.094-25.76,19.881-23.305" fill="#ff4c1b"/>
        <path id="Trazado_828199" data-name="Trazado 828199" d="M186.06,39.151a.93.93,0,0,1-.93-.913l-.149-8.584A25.611,25.611,0,0,0,159.495,4.6l-.446,0L153.7,4.7a25.525,25.525,0,0,0-25.047,25.934.93.93,0,1,1-1.859.032A27.385,27.385,0,0,1,153.667,2.842l5.828-.1a27.481,27.481,0,0,1,27.346,26.876l.149,8.584a.93.93,0,0,1-.914.946Z" fill="#d4220f"/>
        <path id="Trazado_828200" data-name="Trazado 828200" d="M111.555,42.435h76.651a1.592,1.592,0,1,0,0-3.184l-63.792-5.144-12.859,5.144c-.972.338-1.592.716-1.592,1.592a1.6,1.6,0,0,0,1.592,1.592" fill="#e3381b"/>
        <path id="Trazado_828201" data-name="Trazado 828201" d="M178.236,68.814c-10.885-2.983-18.2-11.925-18.2-22.252h9.553c0,5.968,4.489,11.208,11.171,13.039Z" fill="#9d3128"/>
        <rect id="Rectángulo_380331" data-name="Rectángulo 380331" width="29.531" height="2.939" transform="translate(141.015 77.296) rotate(-40.542)" fill="#9d3128"/>
        <path id="Trazado_828202" data-name="Trazado 828202" d="M156.043,65.94c-4.284-4.8-8.861-12.62-8.861-20.2h2.939c0,6.755,4.192,13.853,8.114,18.243Z" fill="#9d3128"/>
        <path id="Trazado_828203" data-name="Trazado 828203" d="M116.042,16.9h-3.26c-.053,0-.1.007-.156.008V35.4c.052,0,.1.008.156.008h3.26a5.681,5.681,0,0,0,5.665-5.665v-7.18a5.681,5.681,0,0,0-5.665-5.665" fill="#753a21"/>
        <path id="Trazado_828204" data-name="Trazado 828204" d="M160.9,34.768V27.016a.861.861,0,1,0-1.723,0v7.752a.861.861,0,0,0,1.723,0" fill="#9d3128"/>
        <path id="Trazado_828205" data-name="Trazado 828205" d="M165.275,34.768V27.016a.861.861,0,1,0-1.723,0v7.752a.861.861,0,0,0,1.723,0" fill="#9d3128"/>
        <path id="Trazado_828206" data-name="Trazado 828206" d="M169.65,34.768V27.016a.861.861,0,1,0-1.723,0v7.752a.861.861,0,0,0,1.723,0" fill="#9d3128"/>
        <path id="Trazado_828207" data-name="Trazado 828207" d="M54.881,75.408l-.942-.7-.5-.367-.723-.585a22.194,22.194,0,0,1-1.674-1.469,23.662,23.662,0,0,1-1.726-1.8,24.889,24.889,0,0,1-1.74-2.174c-.3-.379-.551-.805-.822-1.223s-.552-.833-.781-1.291l-.719-1.357c-.22-.465-.42-.945-.626-1.418a14.543,14.543,0,0,1-.546-1.451c-.162-.49-.347-.967-.459-1.468s-.247-.985-.368-1.47q-.125-.741-.245-1.462a12.981,12.981,0,0,1-.158-1.423c-.028-.468-.091-.92-.08-1.368a21.571,21.571,0,0,1,.09-2.507c.039-.386.076-.756.111-1.107.063-.348.122-.678.178-.988a13.568,13.568,0,0,1,.354-1.587c.248-.864,1.033-3.16,1.033-3.16l7.175,2.031s-.7,2.137-.788,2.722a7.2,7.2,0,0,0-.106,1.055q-.021.306-.045.648c.007.229.013.47.02.721a13.283,13.283,0,0,0,.13,1.609c.019.284.109.572.158.867a6.914,6.914,0,0,0,.208.9c.086.3.174.6.262.913q.176.451.353.912a8.566,8.566,0,0,0,.407.905,7.947,7.947,0,0,0,.46.888l.507.864.571.818a9.322,9.322,0,0,0,.6.773,8.254,8.254,0,0,0,.624.727,15.346,15.346,0,0,0,1.3,1.275,14.573,14.573,0,0,0,1.26,1.035,11.16,11.16,0,0,0,1.036.714c.159.1.26.184.436.289l.535.309,1.014.586Z" fill="#d3e8e0"/>
        <path id="Trazado_828208" data-name="Trazado 828208" d="M50.64,2.376h0c-17.445-4.613-35.6,8.276-39.057,28.96A60.269,60.269,0,0,1,1.539,35.5a1.408,1.408,0,0,0-.494,2.762A78,78,0,0,0,12.2,40.39l22.1,1.733a12.844,12.844,0,0,1,2.6.479l13.874,4.077a14.288,14.288,0,0,1,5.5,3.07l4.363,3.923a11.686,11.686,0,0,0,4.652,2.555l11.335,3.157a1.385,1.385,0,0,0,.379.052,1.41,1.41,0,0,0,.378-2.768l-.6-.166,1.671-6.321A39.222,39.222,0,0,0,50.64,2.376" fill="#f87043"/>
        <path id="Trazado_828209" data-name="Trazado 828209" d="M27.687,35.158a38.818,38.818,0,0,1,3.744-8.3C35.456,20.3,41.092,17.9,47.22,19.269Q49.953,11.133,53,3.09c-.775-.258-1.56-.5-2.361-.713C33.222-2.229,15.1,10.615,11.6,31.245c5.313,1.257,10.715,2.521,16.086,3.913" fill="#ff8b4a"/>
        <path id="Trazado_828210" data-name="Trazado 828210" d="M73.165,52.686a.894.894,0,0,1-.863-1.121l.743-2.814A33.63,33.63,0,0,0,49.211,7.783a22.481,22.481,0,0,0-5.743-.749c-11.728,0-22.312,9.139-25.737,22.224A.893.893,0,0,1,16,28.806C19.635,14.936,30.928,5.248,43.468,5.248a24.276,24.276,0,0,1,6.2.809,35.415,35.415,0,0,1,25.1,43.151l-.743,2.813a.9.9,0,0,1-.863.665" fill="#d65b28"/>
        <path id="Trazado_828211" data-name="Trazado 828211" d="M187.792,135.291a35.614,35.614,0,0,1-.374,5.155q-.126.864-.294,1.712l-.007.034-.839.053-20.031,1.277-3.106-.167-9.218-.5-10.3.583-1.939.11-20.736-1.284-1.183-.074c0-.016-.007-.033-.01-.051q-.167-.843-.291-1.7a35.541,35.541,0,0,1-.374-5.149,34.93,34.93,0,0,1,14.577-28.481,33.981,33.981,0,0,1,39.569.017,34.926,34.926,0,0,1,14.554,28.464" fill="#ffca00"/>
        <g id="Grupo_1076866" data-name="Grupo 1076866" opacity="0.5" style="mix-blend-mode: multiply;isolation: isolate">
          <g id="Grupo_1076865" data-name="Grupo 1076865">
            <g id="Grupo_1076864" data-name="Grupo 1076864" clip-path="url(#clip-path-3)">
              <path id="Trazado_828212" data-name="Trazado 828212" d="M173.237,106.827a226.362,226.362,0,0,0-10.1,36.528q-.084.462-.163.924a88.818,88.818,0,0,0-19.2,0q-.078-.418-.157-.835a270.006,270.006,0,0,0-9.956-36.63,33.979,33.979,0,0,1,39.568.017" fill="#ffca00"/>
            </g>
          </g>
        </g>
        <path id="Trazado_828213" data-name="Trazado 828213" d="M187.418,140.446q-.126.864-.294,1.712l-.846.088c-5.943.609-12.742,1.043-20.031,1.277-4.11.132-8.376.2-12.732.2-4.037,0-8-.059-11.83-.173-7.533-.224-14.573-.66-20.735-1.284q-.6-.062-1.193-.124-.167-.845-.291-1.7a324.261,324.261,0,0,0,34.049,1.62,328.52,328.52,0,0,0,33.9-1.614" fill="#ffc832"/>
        <path id="Trazado_828214" data-name="Trazado 828214" d="M188.963,143.45a1.725,1.725,0,0,1-1.383,1.63,209.748,209.748,0,0,1-68.276,0,1.722,1.722,0,0,1-1.383-1.63v-3.56a1.14,1.14,0,0,1,1.383-1.156,209.748,209.748,0,0,0,68.276,0,1.14,1.14,0,0,1,1.383,1.156Z" fill="#ff8d23"/>
        <path id="Trazado_828215" data-name="Trazado 828215" d="M120.438,143.3v.838a10.6,10.6,0,0,0,6.938,9.471,90.41,90.41,0,0,0,52.131,0,10.6,10.6,0,0,0,6.938-9.471V143.3c-6.078.517-12.085,1.644-18.164,2.144-4.924.4-9.9.359-14.84.359-5.227,0-10.5.046-15.709-.435-5.783-.535-11.5-1.575-17.294-2.068" fill="#ffca00"/>
        <path id="Trazado_828216" data-name="Trazado 828216" d="M170.973,103.71a2.169,2.169,0,0,1,1.018,2.594A207.361,207.361,0,0,0,162.054,142a80.251,80.251,0,0,0-17.343,0,247.022,247.022,0,0,0-9.892-36.036,2.192,2.192,0,0,1,1.1-2.618,38.54,38.54,0,0,1,35.057.37" fill="#ff8d23"/>
        <rect id="Rectángulo_380333" data-name="Rectángulo 380333" width="3.748" height="26.295" transform="translate(44.539 131.568)" fill="#1a2230"/>
        <path id="Trazado_828217" data-name="Trazado 828217" d="M32.18,136.879a4.135,4.135,0,0,0-.23-.345c-1.456-1.984-4.941-3.006-9.009-3.006s-7.552,1.022-9.008,3.006c-.083.113-.16.228-.23.345L3.4,137.224v2.11H13.7a6.729,6.729,0,0,1,2.991-2.455,14.939,14.939,0,0,1,6.247-1.271,14.949,14.949,0,0,1,6.249,1.271,6.731,6.731,0,0,1,2.99,2.455H68.094l1.167-2.455Z" fill="#1a2230"/>
        <path id="Trazado_828218" data-name="Trazado 828218" d="M5.035,135.637v-4.069c5.467,9.154,13.493,14.639,22.135,14.639s16.669-5.485,22.136-14.639v4.069c-5.467,9.154-13.493,14.639-22.136,14.639S10.5,144.791,5.035,135.637" fill="#1a2230"/>
        <path id="Trazado_828219" data-name="Trazado 828219" d="M35.812,98.077A34.927,34.927,0,0,0,1.128,133.242a35.984,35.984,0,0,0,.331,4.865H13.7c1.289-2.165,4.937-3.726,9.238-3.726s7.949,1.561,9.238,3.726H70.165a35.961,35.961,0,0,0,.331-4.865A34.927,34.927,0,0,0,35.812,98.077" fill="#ffc832"/>
        <path id="Trazado_828220" data-name="Trazado 828220" d="M16.694,135.651a6.72,6.72,0,0,0-2.99,2.455H1.459a1.227,1.227,0,0,1-.129-2.441c.023,0,.045-.006.069-.008s.071-.005.107-.005Z" fill="#ff8d23"/>
        <path id="Trazado_828221" data-name="Trazado 828221" d="M71.344,136.879a1.227,1.227,0,0,1-1.179,1.226.41.41,0,0,1-.049,0H32.18a6.724,6.724,0,0,0-2.991-2.456H70.116c.031,0,.062,0,.093,0a1.246,1.246,0,0,1,.2.032,1.228,1.228,0,0,1,.932,1.192" fill="#ff8d23"/>
        <path id="Trazado_828222" data-name="Trazado 828222" d="M88.44,136.682q-9.582-.717-19.18-1.031v2.456q9.6.315,19.18,1.03A1.119,1.119,0,0,0,89.666,138a1.347,1.347,0,0,0-1.226-1.322" fill="#ff8d23"/>
        <path id="Trazado_828223" data-name="Trazado 828223" d="M47.792,130.821a1.379,1.379,0,0,1-2.758,0V125.93a1.379,1.379,0,0,1,2.758,0Z" fill="#ff8d23"/>
        <path id="Trazado_828224" data-name="Trazado 828224" d="M52.608,130.821a1.38,1.38,0,0,1-2.759,0V125.93a1.38,1.38,0,0,1,2.759,0Z" fill="#ff8d23"/>
        <path id="Trazado_828225" data-name="Trazado 828225" d="M58.183,130.821a1.379,1.379,0,0,1-2.759,0V125.93a1.379,1.379,0,0,1,2.759,0Z" fill="#ff8d23"/>
        <path id="Trazado_828226" data-name="Trazado 828226" d="M32.18,135.651a4.135,4.135,0,0,0-.23-.345c-1.456-1.984-4.941-3.006-9.009-3.006s-7.552,1.022-9.008,3.006c-.083.113-.16.228-.23.345L5.035,136v2.11H13.7a6.729,6.729,0,0,1,2.991-2.455,14.939,14.939,0,0,1,6.247-1.271,14.949,14.949,0,0,1,6.249,1.271,6.731,6.731,0,0,1,2.99,2.455H47.621V136Z" fill="#ff8d23"/>
        <path id="Trazado_828227" data-name="Trazado 828227" d="M22.313,116.977a3.832,3.832,0,0,1-3.832,3.832H14.058a3.832,3.832,0,1,1,0-7.664h4.423a3.832,3.832,0,0,1,3.832,3.832" fill="#ff8d23"/>
      </g>
    </g>
  </g>
</svg>
