<svg xmlns="http://www.w3.org/2000/svg" xmlns:xlink="http://www.w3.org/1999/xlink" width="505" height="462.002" viewBox="0 0 505 462.002">
  <defs>
    <clipPath id="clip-path">
      <rect id="Rectángulo_379623" data-name="Rectángulo 379623" width="505" height="462.002" transform="translate(0 0)" fill="none"/>
    </clipPath>
    <clipPath id="clip-path-2">
      <rect id="Rectángulo_379593" data-name="Rectángulo 379593" width="505" height="517.939" fill="none"/>
    </clipPath>
    <clipPath id="clip-path-5">
      <rect id="Rectángulo_379596" data-name="Rectángulo 379596" width="52.838" height="60.856" fill="none"/>
    </clipPath>
    <clipPath id="clip-path-6">
      <rect id="Rectángulo_379597" data-name="Rectángulo 379597" width="28.485" height="96.115" fill="none"/>
    </clipPath>
    <clipPath id="clip-path-7">
      <rect id="Rectángulo_379598" data-name="Rectángulo 379598" width="4.663" height="4.664" fill="none"/>
    </clipPath>
    <clipPath id="clip-path-8">
      <rect id="Rectángulo_379599" data-name="Rectángulo 379599" width="4.663" height="4.663" fill="none"/>
    </clipPath>
    <clipPath id="clip-path-9">
      <rect id="Rectángulo_379600" data-name="Rectángulo 379600" width="2.332" height="2.332" fill="none"/>
    </clipPath>
    <clipPath id="clip-path-10">
      <rect id="Rectángulo_379601" data-name="Rectángulo 379601" width="64.029" height="28.105" fill="none"/>
    </clipPath>
    <linearGradient id="linear-gradient" x1="0.5" x2="0.5" y2="1" gradientUnits="objectBoundingBox">
      <stop offset="0" stop-color="#1c9279"/>
      <stop offset="0.803" stop-color="#eaf5ff"/>
      <stop offset="1" stop-color="#f0feff"/>
    </linearGradient>
    <clipPath id="clip-path-11">
      <rect id="Rectángulo_379603" data-name="Rectángulo 379603" width="44.357" height="68.039" fill="none"/>
    </clipPath>
    <clipPath id="clip-path-12">
      <rect id="Rectángulo_379604" data-name="Rectángulo 379604" width="30.628" height="67.999" fill="none"/>
    </clipPath>
    <clipPath id="clip-path-13">
      <rect id="Rectángulo_379605" data-name="Rectángulo 379605" width="3.304" height="3.636" fill="none"/>
    </clipPath>
    <clipPath id="clip-path-14">
      <rect id="Rectángulo_379606" data-name="Rectángulo 379606" width="3.298" height="3.63" fill="none"/>
    </clipPath>
    <clipPath id="clip-path-15">
      <rect id="Rectángulo_379607" data-name="Rectángulo 379607" width="5.882" height="6.472" fill="none"/>
    </clipPath>
    <clipPath id="clip-path-16">
      <rect id="Rectángulo_379608" data-name="Rectángulo 379608" width="1.984" height="2.183" fill="none"/>
    </clipPath>
    <clipPath id="clip-path-19">
      <rect id="Rectángulo_379611" data-name="Rectángulo 379611" width="36.751" height="19.287" fill="none"/>
    </clipPath>
    <clipPath id="clip-path-20">
      <rect id="Rectángulo_379612" data-name="Rectángulo 379612" width="47.309" height="24.831" fill="none"/>
    </clipPath>
    <clipPath id="clip-path-21">
      <rect id="Rectángulo_379613" data-name="Rectángulo 379613" width="38.443" height="14.237" fill="none"/>
    </clipPath>
    <clipPath id="clip-path-24">
      <rect id="Rectángulo_379619" data-name="Rectángulo 379619" width="46.831" height="74.024" fill="none"/>
    </clipPath>
    <clipPath id="clip-path-25">
      <rect id="Rectángulo_379620" data-name="Rectángulo 379620" width="25.836" height="105.201" fill="none"/>
    </clipPath>
    <clipPath id="clip-path-26">
      <rect id="Rectángulo_379621" data-name="Rectángulo 379621" width="67.413" height="44.845" fill="none"/>
    </clipPath>
  </defs>
  <g id="Grupo_1075890" data-name="Grupo 1075890" clip-path="url(#clip-path)">
    <g id="Grupo_1075816" data-name="Grupo 1075816" transform="translate(0 -55.937)">
      <g id="Grupo_1075815" data-name="Grupo 1075815" clip-path="url(#clip-path-2)">
        <path id="Trazado_826130" data-name="Trazado 826130" d="M17.735,267.859a7.543,7.543,0,1,1-.208-10.667,7.542,7.542,0,0,1,.208,10.667" transform="translate(0.82 43.98)" fill="#e0e0e0"/>
        <path id="Trazado_826131" data-name="Trazado 826131" d="M51.085,266.905a10.873,10.873,0,1,1-.3-15.374,10.873,10.873,0,0,1,.3,15.374" transform="translate(5.582 42.843)" fill="#e0e0e0"/>
        <rect id="Rectángulo_379590" data-name="Rectángulo 379590" width="30.225" height="1.172" transform="translate(13.393 305.644) rotate(-8.576)" fill="#e0e0e0"/>
        <path id="Trazado_826132" data-name="Trazado 826132" d="M43.487,286.024a7.544,7.544,0,1,1-9.447-4.956,7.543,7.543,0,0,1,9.447,4.956" transform="translate(4.955 48.4)" fill="#e0e0e0"/>
        <rect id="Rectángulo_379591" data-name="Rectángulo 379591" width="30.225" height="1.173" transform="translate(40.361 332.797) rotate(-69.773)" fill="#e0e0e0"/>
        <path id="Trazado_826133" data-name="Trazado 826133" d="M36.58,234.915a4.8,4.8,0,1,1,6.789.095,4.8,4.8,0,0,1-6.789-.095" transform="translate(6.072 39.097)" fill="#e0e0e0"/>
        <rect id="Rectángulo_379592" data-name="Rectángulo 379592" width="1.172" height="23.034" transform="translate(45.07 271.875) rotate(-6.696)" fill="#e0e0e0"/>
        <path id="Trazado_826134" data-name="Trazado 826134" d="M403.195,378.881H336.183v64.546a8.989,8.989,0,0,0,8.99,8.989h41.356a8.989,8.989,0,0,0,8.99-8.989V385.615Z" transform="translate(57.962 65.324)" fill="#fff"/>
        <path id="Trazado_826135" data-name="Trazado 826135" d="M403.224,378.906,395.6,385.7l.026-.056c.019,10.045.049,27.087.088,48.64q0,4.043.008,8.294a14.541,14.541,0,0,1-.1,2.155,6.885,6.885,0,0,1-.216,1.074,8.306,8.306,0,0,1-.342,1.049,9.242,9.242,0,0,1-2.589,3.6,9.379,9.379,0,0,1-4.065,1.987,11.938,11.938,0,0,1-2.3.189h-2.3l-9.386,0-19.661.007c-3.372-.014-6.759.034-10.228-.032a9.179,9.179,0,0,1-8-6.113,9.612,9.612,0,0,1-.326-1.137,11.011,11.011,0,0,1-.163-1.17c-.059-.794-.031-1.552-.038-2.321q0-2.3,0-4.584,0-4.564,0-9.038c0-5.963,0-11.8,0-17.47.007-11.347.014-22.052.02-31.865v-.171h.17l67.012.17-67.012.17.17-.17c.007,9.813.013,20.518.02,31.865,0,5.673,0,11.507.006,17.47q0,4.472,0,9.038v4.584c.007.763-.02,1.545.036,2.29a10.617,10.617,0,0,0,.156,1.12,9.163,9.163,0,0,0,.312,1.089,8.791,8.791,0,0,0,7.655,5.85c3.413.065,6.841.019,10.2.034l19.661.007,9.386,0a27.025,27.025,0,0,0,4.522-.177,9.008,9.008,0,0,0,3.908-1.9,8.879,8.879,0,0,0,2.495-3.455,7.891,7.891,0,0,0,.331-1.007,6.407,6.407,0,0,0,.209-1.034,13.971,13.971,0,0,0,.1-2.107q.005-4.249.008-8.294c.039-21.552.07-38.595.088-48.64v-.034l.026-.022,7.725-6.678" transform="translate(57.933 65.298)" fill="#e0e0e0"/>
        <path id="Trazado_826136" data-name="Trazado 826136" d="M398.1,378.881H339.35v60.563a8.173,8.173,0,0,0,7.881,8.436h36.258a8.172,8.172,0,0,0,7.881-8.436V385.2Z" transform="translate(58.508 65.324)" fill="#f5f5f5"/>
        <path id="Trazado_826137" data-name="Trazado 826137" d="M373.928,400.566a144.188,144.188,0,0,1,15.068,0,144.188,144.188,0,0,1-15.068,0" transform="translate(64.47 69.028)" fill="#e0e0e0"/>
        <path id="Trazado_826138" data-name="Trazado 826138" d="M374.232,384.809a144.165,144.165,0,0,1,15.067,0,144.165,144.165,0,0,1-15.067,0" transform="translate(64.522 66.312)" fill="#e0e0e0"/>
        <path id="Trazado_826139" data-name="Trazado 826139" d="M368.844,409.164c0-.109,4.707-.2,10.513-.2s10.515.088,10.515.2-4.707.2-10.515.2-10.513-.088-10.513-.2" transform="translate(63.593 70.511)" fill="#e0e0e0"/>
        <path id="Trazado_826140" data-name="Trazado 826140" d="M374.535,417.763a130.9,130.9,0,0,1,14.356,0,130.9,130.9,0,0,1-14.356,0" transform="translate(64.574 71.993)" fill="#e0e0e0"/>
        <path id="Trazado_826141" data-name="Trazado 826141" d="M368.844,426.361c0-.109,4.707-.2,10.513-.2s10.515.088,10.515.2-4.707.2-10.515.2-10.513-.088-10.513-.2" transform="translate(63.593 73.476)" fill="#e0e0e0"/>
        <path id="Trazado_826142" data-name="Trazado 826142" d="M403.2,378.9c0,.109-15,.234-33.5.281s-33.508,0-33.508-.113,15-.234,33.508-.281,33.5,0,33.5.113" transform="translate(57.962 65.304)" fill="#263238"/>
        <path id="Trazado_826143" data-name="Trazado 826143" d="M368.844,391.968c0-.109,4.707-.2,10.513-.2s10.515.088,10.515.2-4.707.2-10.515.2-10.513-.088-10.513-.2" transform="translate(63.593 67.546)" fill="#e0e0e0"/>
        <path id="Trazado_826144" data-name="Trazado 826144" d="M404.225,379.44H335.388a1.656,1.656,0,0,1,0-3.312h68.837a1.656,1.656,0,0,1,0,3.312" transform="translate(57.54 64.849)" fill="#fff"/>
        <path id="Trazado_826145" data-name="Trazado 826145" d="M404.254,379.469c0-.012.131,0,.374-.064a1.643,1.643,0,0,0,.9-.6,1.613,1.613,0,0,0,.17-1.672,1.585,1.585,0,0,0-.785-.764,2.917,2.917,0,0,0-1.276-.135l-15.867.062-52.348.059a1.458,1.458,0,0,0-.394,2.863,3.417,3.417,0,0,0,.884.054h1.874l7.352,0,13.9.012,23.535.042,15.866.062,4.313.038,1.122.02c.253.006.382.02.382.02s-.129.014-.382.02l-1.122.02-4.313.036-15.866.063-23.535.042-13.9.012-7.352,0h-2.344a1.955,1.955,0,0,1-.518-.069,1.826,1.826,0,0,1-.885-.551,1.851,1.851,0,0,1,1.383-3.086l52.348.059,15.867.062a3.019,3.019,0,0,1,1.332.165,1.706,1.706,0,0,1,.623,2.609,1.647,1.647,0,0,1-.953.589,1.2,1.2,0,0,1-.383.026" transform="translate(57.511 64.82)" fill="#e0e0e0"/>
        <path id="Trazado_826146" data-name="Trazado 826146" d="M377.5,438.291c0,.109-6.746.2-15.064.2s-15.067-.088-15.067-.2,6.744-.2,15.067-.2,15.064.088,15.064.2" transform="translate(59.891 75.533)" fill="#e0e0e0"/>
        <path id="Trazado_826147" data-name="Trazado 826147" d="M125.545,58.151l3.126,1.175-2.714.77a2.831,2.831,0,0,0-1.917,1.842l-.982,3-1.208-3.011a2.823,2.823,0,0,0-1.66-1.605l-2.745-1,2.973-1.222a2.827,2.827,0,0,0,1.565-1.6l1.074-2.79.771,2.595a2.831,2.831,0,0,0,1.716,1.843" transform="translate(20.249 61.558)" fill="#ebebeb"/>
        <path id="Trazado_826148" data-name="Trazado 826148" d="M405.714,44.5l3.126,1.175-2.714.77a2.831,2.831,0,0,0-1.917,1.842l-.981,3-1.208-3.011a2.829,2.829,0,0,0-1.661-1.605l-2.745-1,2.973-1.222a2.827,2.827,0,0,0,1.565-1.6l1.075-2.79.77,2.595a2.831,2.831,0,0,0,1.716,1.843" transform="translate(68.553 35.913)" fill="#ebebeb"/>
        <path id="Trazado_826149" data-name="Trazado 826149" d="M35.35,342.469l3.126,1.175-2.714.77a2.831,2.831,0,0,0-1.917,1.842l-.982,3-1.208-3.011a2.829,2.829,0,0,0-1.66-1.606l-2.745-1,2.973-1.222a2.827,2.827,0,0,0,1.565-1.6l1.074-2.79.771,2.595a2.831,2.831,0,0,0,1.716,1.843" transform="translate(4.698 58.281)" fill="#ebebeb"/>
        <path id="Trazado_826150" data-name="Trazado 826150" d="M109.619,35.2l5.821,2.188-5.054,1.434a5.268,5.268,0,0,0-3.57,3.43l-1.829,5.589-2.249-5.605a5.263,5.263,0,0,0-3.092-2.991l-5.112-1.857,5.537-2.274a5.267,5.267,0,0,0,2.915-2.98l2-5.2,1.435,4.833a5.269,5.269,0,0,0,3.2,3.432" transform="translate(16.299 56.941)" fill="#ebebeb"/>
        <path id="Trazado_826151" data-name="Trazado 826151" d="M408.187,271.536l3.126,1.175-2.714.77a2.831,2.831,0,0,0-1.917,1.842l-.981,3-1.208-3.011a2.828,2.828,0,0,0-1.661-1.605l-2.745-1,2.973-1.222a2.827,2.827,0,0,0,1.565-1.6l1.075-2.79.77,2.595a2.83,2.83,0,0,0,1.716,1.843" transform="translate(68.98 46.051)" fill="#ebebeb"/>
        <path id="Trazado_826152" data-name="Trazado 826152" d="M314.306,375.611l3.126,1.175-2.714.77A2.831,2.831,0,0,0,312.8,379.4l-.981,3-1.208-3.011a2.834,2.834,0,0,0-1.661-1.606l-2.745-1,2.973-1.222a2.827,2.827,0,0,0,1.565-1.6l1.075-2.79.77,2.595a2.831,2.831,0,0,0,1.716,1.843" transform="translate(52.794 63.995)" fill="#ebebeb"/>
        <path id="Trazado_826153" data-name="Trazado 826153" d="M392.261,248.587l5.821,2.188-5.054,1.434a5.268,5.268,0,0,0-3.57,3.43l-1.829,5.589-2.249-5.606a5.265,5.265,0,0,0-3.091-2.99l-5.113-1.857,5.537-2.274a5.27,5.27,0,0,0,2.915-2.98l2-5.2,1.435,4.833a5.272,5.272,0,0,0,3.2,3.432" transform="translate(65.03 41.435)" fill="#ebebeb"/>
        <path id="Trazado_826154" data-name="Trazado 826154" d="M293.365,130.244l5.821,2.188-5.054,1.434a5.268,5.268,0,0,0-3.57,3.43l-1.829,5.589-2.249-5.606a5.265,5.265,0,0,0-3.091-2.99l-5.113-1.857,5.537-2.274a5.267,5.267,0,0,0,2.915-2.98l2-5.2,1.435,4.833a5.269,5.269,0,0,0,3.2,3.432" transform="translate(47.979 21.031)" fill="#ebebeb"/>
        <path id="Trazado_826155" data-name="Trazado 826155" d="M375.847,28.129l5.821,2.188-5.054,1.434a5.268,5.268,0,0,0-3.57,3.43l-1.829,5.589-2.249-5.605a5.266,5.266,0,0,0-3.092-2.991l-5.112-1.857,5.537-2.274a5.267,5.267,0,0,0,2.915-2.98l2-5.2L372.65,24.7a5.27,5.27,0,0,0,3.2,3.432" transform="translate(62.2 32.43)" fill="#ebebeb"/>
        <path id="Trazado_826156" data-name="Trazado 826156" d="M84.257,25.65a21.686,21.686,0,0,0-24.263,4.285C49.918,28.388,39.559,37.7,40.187,47.914c-11.239-2.545-23.84,3.833-28.445,14.395s-.7,24.135,8.81,30.637S44.129,98.159,52.3,90.034a17.664,17.664,0,0,0,21.9-2.557,17.663,17.663,0,0,0,1.162-22.02A21.61,21.61,0,0,0,95.526,49.065,21.609,21.609,0,0,0,84.257,25.65" transform="translate(1.691 56.376)" fill="#f5f5f5"/>
        <path id="Trazado_826157" data-name="Trazado 826157" d="M188.718,21.193c-1.041-6.488-8.13-11.324-14.551-9.926-.261-6.653-7.146-12.24-13.71-11.125s-11.488,7.554-9.539,13.92c-7.188,1.348-14.192,10.212-11.862,17.144s11.352,10.662,17.9,7.4A10.949,10.949,0,0,0,178,35.172c6.536-.681,11.756-7.491,10.715-13.98" transform="translate(23.896 52.297)" fill="#f5f5f5"/>
        <path id="Trazado_826158" data-name="Trazado 826158" d="M435.579,206.791c-1.041-6.489-8.129-11.324-14.551-9.927-.261-6.652-7.146-12.239-13.71-11.124s-11.488,7.554-9.539,13.92c-7.188,1.348-14.192,10.212-11.862,17.144s11.351,10.662,17.9,7.4a10.949,10.949,0,0,0,21.052-3.429c6.536-.681,11.756-7.491,10.715-13.98" transform="translate(66.458 31.999)" fill="#f5f5f5"/>
        <path id="Trazado_826159" data-name="Trazado 826159" d="M116.38,340.1a9.963,9.963,0,0,0-11,5.387l.007-.026c-6.782-4.345-13.915,1.172-15.505,6.278a14.241,14.241,0,1,0,2.007,22.829,13.169,13.169,0,0,0,24.641-9.235c4.642-2.732,8.171-7.637,8.406-13.017S121.61,341.38,116.38,340.1" transform="translate(11.789 58.595)" fill="#f5f5f5"/>
      </g>
    </g>
    <g id="Grupo_1075818" data-name="Grupo 1075818" transform="translate(0 -55.937)">
      <g id="Grupo_1075817" data-name="Grupo 1075817" clip-path="url(#clip-path-2)">
        <path id="Trazado_826160" data-name="Trazado 826160" d="M505,441.518c0,.169-113.057.3-252.488.3-139.479,0-252.512-.136-252.512-.3s113.032-.3,252.512-.3c139.431,0,252.488.136,252.488.3" transform="translate(0 76.07)" fill="#263238"/>
      </g>
    </g>
    <g id="Grupo_1075865" data-name="Grupo 1075865" transform="translate(0 -55.937)">
      <g id="Grupo_1075864" data-name="Grupo 1075864" clip-path="url(#clip-path-2)">
        <path id="Trazado_826161" data-name="Trazado 826161" d="M96.408,147.369,114.475,95.8,88.2,86.6,70.13,138.161c-15.192.367-29.107,9.622-34.271,24.358-6.73,19.209,3.958,40.438,23.874,47.416S101.25,207,107.981,187.789c5.163-14.735.067-30.653-11.573-40.42" transform="translate(5.835 14.931)" fill="#fff"/>
        <path id="Trazado_826162" data-name="Trazado 826162" d="M96.447,147.418s.244.2.688.583c.431.406,1.126.92,1.918,1.754a37.8,37.8,0,0,1,6.134,7.936c.555.94,1.06,1.98,1.6,3.066.462,1.121,1.018,2.271,1.407,3.545a34.441,34.441,0,0,1,1.83,8.445A36.126,36.126,0,0,1,98.3,202.787,37.87,37.87,0,0,1,87,209.743a38.679,38.679,0,0,1-13.945,2.7,39.844,39.844,0,0,1-28.077-11.367,38.083,38.083,0,0,1-9.021-13.809,37.329,37.329,0,0,1-2.129-16.946c.159-1.448.48-2.884.746-4.327.442-1.4.762-2.849,1.308-4.224a34.815,34.815,0,0,1,4.129-7.9,34,34,0,0,1,6.029-6.712,36.4,36.4,0,0,1,7.372-4.99,40.494,40.494,0,0,1,8.2-3.1,43.187,43.187,0,0,1,8.542-1.161l-.274.2c6.528-18.59,12.635-35.981,18.1-51.551l.087-.246.245.087,26.267,9.243.21.074-.074.21c-5.611,15.876-10.157,28.73-13.3,37.637-1.583,4.442-2.814,7.9-3.656,10.26q-.631,1.746-.966,2.675c-.222.6-.351.918-.351.918s.087-.3.287-.9q.315-.925.9-2.663l3.536-10.262,13.13-37.81.136.283L88.149,86.892l.332-.159L70.45,138.309l-.067.192-.208.007a42.617,42.617,0,0,0-8.41,1.148,39.95,39.95,0,0,0-8.071,3.054,35.777,35.777,0,0,0-7.25,4.91,33.414,33.414,0,0,0-5.927,6.6,34.225,34.225,0,0,0-4.06,7.761c-.538,1.353-.851,2.776-1.287,4.154-.26,1.419-.577,2.829-.734,4.253a36.751,36.751,0,0,0,2.085,16.667,37.536,37.536,0,0,0,8.872,13.6,38.856,38.856,0,0,0,13.072,8.491A39.249,39.249,0,0,0,73.056,211.9a38.23,38.23,0,0,0,13.763-2.632,37.393,37.393,0,0,0,11.17-6.835,35.793,35.793,0,0,0,11.7-29.658,34.3,34.3,0,0,0-1.766-8.382c-.378-1.269-.922-2.413-1.373-3.53-.529-1.081-1.022-2.12-1.566-3.059a38.779,38.779,0,0,0-6.014-7.965c-.775-.844-1.477-1.4-1.888-1.815-.429-.4-.632-.61-.632-.61" transform="translate(5.797 14.882)" fill="#263238"/>
        <path id="Trazado_826163" data-name="Trazado 826163" d="M91.075,148.3l16.892-48.342L88.479,93.152,71.933,141.571a31.116,31.116,0,0,0-31.885,20.986c-5.84,16.664,3.432,35.08,20.708,41.133s36.015-2.548,41.854-19.211c4.48-12.783-1.437-27.7-11.535-36.175" transform="translate(6.603 16.061)" fill="#e0e0e0"/>
        <path id="Trazado_826164" data-name="Trazado 826164" d="M102.4,175.143c-.4-2.137-1.251-3-2.971-4.361a29.159,29.159,0,0,0-10.289-5.22c-5.044-1.4-10.413-1.416-15.368-3.1-7.4-2.516-13.072-8.428-19.855-12.309-2.8-1.6-8.156-3.238-11.341-2.77a19.621,19.621,0,0,0-3.033,8.656l26.684,16.418L86.12,173.5l9.338,3.271Z" transform="translate(6.817 25.397)" fill="#9bc4ff"/>
        <path id="Trazado_826166" data-name="Trazado 826166" d="M40.047,152.351c-5.839,16.663,3.434,35.08,20.711,41.133s36.015-2.548,41.854-19.211c0,0-4.9-4.166-14.315-6.252-3.736-.828-17.175-1.451-24.237-3.2-19.114-4.733-24.012-12.469-24.012-12.469" transform="translate(6.603 26.267)" fill="#4793ff"/>
        <path id="Trazado_826167" data-name="Trazado 826167" d="M105.873,102.9,77.857,93.083a3.47,3.47,0,0,1-2.128-4.422l.468-1.334A3.472,3.472,0,0,1,80.62,85.2l28.015,9.817a3.471,3.471,0,0,1,2.128,4.424l-.467,1.333a3.471,3.471,0,0,1-4.424,2.128" transform="translate(13.023 14.656)" fill="#fff"/>
        <path id="Trazado_826168" data-name="Trazado 826168" d="M105.917,102.945c.009-.032.288.079.838.116a3.45,3.45,0,0,0,2.239-.655,3.36,3.36,0,0,0,1.068-1.3c.225-.564.457-1.277.667-1.963a3.323,3.323,0,0,0-.246-2.23,3.273,3.273,0,0,0-1.865-1.646L80.565,85.533a3.183,3.183,0,0,0-3.528,1.02,5.8,5.8,0,0,0-.824,1.81,3.675,3.675,0,0,0-.308,1.882,3.206,3.206,0,0,0,2.259,2.666L81.8,94.2l12.578,4.476,8.462,3.067,2.291.864a4.54,4.54,0,0,1,.784.34,4.451,4.451,0,0,1-.825-.224l-2.328-.755L94.237,99.08,81.616,94.728,77.97,93.461a3.8,3.8,0,0,1-2.659-3.141,4.277,4.277,0,0,1,.333-2.156l.353-1a3.659,3.659,0,0,1,.564-.993,3.791,3.791,0,0,1,4.205-1.219l28,9.9a3.655,3.655,0,0,1,2.3,4.367c-.247.752-.465,1.374-.735,2a3.568,3.568,0,0,1-1.194,1.368,3.479,3.479,0,0,1-2.388.584,2.379,2.379,0,0,1-.827-.239" transform="translate(12.979 14.611)" fill="#263238"/>
        <g id="Grupo_1075824" data-name="Grupo 1075824" transform="translate(44.903 160.833)" opacity="0.2">
          <g id="Grupo_1075823" data-name="Grupo 1075823">
            <g id="Grupo_1075822" data-name="Grupo 1075822" clip-path="url(#clip-path-5)">
              <path id="Trazado_826169" data-name="Trazado 826169" d="M63.006,186.428c-8.359-4.953-14.729-13.443-16.362-23.021s1.8-20.047,9.3-26.225l-.6.105a31.519,31.519,0,0,0-15.293,17.679c-5.839,16.663,3.433,35.08,20.708,41.133a33.615,33.615,0,0,0,26.608-1.766,31.877,31.877,0,0,0,3.774-2.843c-9.609,1.433-19.775-.109-28.132-5.062" transform="translate(-38.3 -137.181)"/>
            </g>
          </g>
        </g>
        <g id="Grupo_1075827" data-name="Grupo 1075827" transform="translate(84.114 112.669)" opacity="0.3">
          <g id="Grupo_1075826" data-name="Grupo 1075826">
            <g id="Grupo_1075825" data-name="Grupo 1075825" clip-path="url(#clip-path-6)">
              <path id="Trazado_826170" data-name="Trazado 826170" d="M92.577,96.1l-18.56,48.73s10.581,26.234-2.272,42.012l13.093,5.373s7.411-10.261,6.036-23.624S83.2,147.136,83.2,147.136l17.033-48.375Z" transform="translate(-71.744 -96.1)" fill="#fff"/>
            </g>
          </g>
        </g>
        <path id="Trazado_826171" data-name="Trazado 826171" d="M40.587,177.215a1.551,1.551,0,0,1-.225-.447c-.121-.3-.327-.742-.517-1.334a29.084,29.084,0,0,1-1.26-5.111A31.705,31.705,0,0,1,51.26,139.677a28.934,28.934,0,0,1,4.5-2.727c.552-.285,1.008-.45,1.307-.579a1.53,1.53,0,0,1,.475-.157,14.8,14.8,0,0,1-1.672.946,34.718,34.718,0,0,0-4.353,2.862,32.355,32.355,0,0,0-12.507,30.241,34.6,34.6,0,0,0,1.06,5.1,14.879,14.879,0,0,1,.515,1.852" transform="translate(6.586 23.484)" fill="#263238"/>
        <path id="Trazado_826172" data-name="Trazado 826172" d="M98.057,165.777a6.685,6.685,0,0,1-.113,1.563,27,27,0,0,1-.919,4.173,30.341,30.341,0,0,1-18.776,19.818,27.061,27.061,0,0,1-4.118,1.143,6.74,6.74,0,0,1-1.553.2c-.027-.118,2.192-.438,5.517-1.745a31.489,31.489,0,0,0,18.518-19.545c1.123-3.391,1.324-5.624,1.443-5.6" transform="translate(12.513 28.582)" fill="#263238"/>
        <path id="Trazado_826173" data-name="Trazado 826173" d="M69.131,134.353c-.159-.056,2.521-8.117,5.984-18s6.4-17.859,6.562-17.8-2.521,8.115-5.985,18-6.4,17.857-6.561,17.8" transform="translate(11.918 16.991)" fill="#263238"/>
        <g id="Grupo_1075830" data-name="Grupo 1075830" transform="translate(62.29 195.041)" opacity="0.2">
          <g id="Grupo_1075829" data-name="Grupo 1075829">
            <g id="Grupo_1075828" data-name="Grupo 1075828" clip-path="url(#clip-path-7)">
              <path id="Trazado_826174" data-name="Trazado 826174" d="M57.661,169.461a2.331,2.331,0,1,1-1.429-2.971,2.332,2.332,0,0,1,1.429,2.971" transform="translate(-53.13 -166.359)"/>
            </g>
          </g>
        </g>
        <g id="Grupo_1075833" data-name="Grupo 1075833" transform="translate(76.918 200.167)" opacity="0.2">
          <g id="Grupo_1075832" data-name="Grupo 1075832">
            <g id="Grupo_1075831" data-name="Grupo 1075831" clip-path="url(#clip-path-8)">
              <path id="Trazado_826175" data-name="Trazado 826175" d="M70.138,173.833a2.331,2.331,0,1,1-1.429-2.971,2.332,2.332,0,0,1,1.429,2.971" transform="translate(-65.607 -170.731)"/>
            </g>
          </g>
        </g>
        <g id="Grupo_1075836" data-name="Grupo 1075836" transform="translate(65.603 202.572)" opacity="0.2">
          <g id="Grupo_1075835" data-name="Grupo 1075835">
            <g id="Grupo_1075834" data-name="Grupo 1075834" clip-path="url(#clip-path-9)">
              <path id="Trazado_826176" data-name="Trazado 826176" d="M58.221,174.333a1.165,1.165,0,1,1-.714-1.485,1.165,1.165,0,0,1,.714,1.485" transform="translate(-55.955 -172.782)"/>
            </g>
          </g>
        </g>
        <path id="Trazado_826177" data-name="Trazado 826177" d="M325.637,278.711c.064.458-.839,18.507-1.783,36.908-.543,10.561-1.1,21.239-1.491,28.775-.28,5.357,4.008,9.769,8.836,9.091l61.487-8.622c4.8-.673,7.706-6.033,6.023-11.091l-20.775-62.393Z" transform="translate(55.577 46.789)" fill="#fff"/>
        <path id="Trazado_826178" data-name="Trazado 826178" d="M325.674,278.751s.3-.059.906-.154l2.711-.407,10.441-1.525,38.205-5.486.2-.028.063.19c3.654,10.932,7.827,23.41,12.36,36.969,2.263,6.782,4.616,13.833,7.039,21.1l.911,2.734a23.858,23.858,0,0,1,.839,2.816,9.268,9.268,0,0,1-.777,5.9,7.8,7.8,0,0,1-4.468,4.017,16.691,16.691,0,0,1-2.991.563l-2.978.417-53.057,7.417-3.039.423a8.561,8.561,0,0,1-3.1.042,8.026,8.026,0,0,1-5.023-3.263,8.711,8.711,0,0,1-1.338-2.656,8.951,8.951,0,0,1-.441-2.893c.05-1.917.185-3.756.272-5.59.392-7.309.757-14.118,1.09-20.338,1.328-24.6,2.083-38.579,2.174-40.244a5.808,5.808,0,0,1,.019.712c-.012.491-.029,1.184-.052,2.085-.074,1.855-.181,4.55-.318,8.012-.329,6.978-.8,17.036-1.392,29.458-.311,6.221-.651,13.031-1.017,20.341-.081,1.823-.211,3.7-.256,5.564a8.477,8.477,0,0,0,.423,2.733,8.208,8.208,0,0,0,1.267,2.5,7.484,7.484,0,0,0,4.688,3.038,7.992,7.992,0,0,0,2.921-.052l3.038-.429,53.052-7.464,2.978-.417a16.207,16.207,0,0,0,2.879-.537,7.186,7.186,0,0,0,4.12-3.709,8.666,8.666,0,0,0,.727-5.514,23.593,23.593,0,0,0-.818-2.74q-.455-1.372-.909-2.734c-2.415-7.267-4.76-14.321-7.015-21.106-4.5-13.57-8.641-26.058-12.268-37l.26.162-38.092,5.214L329.4,278.282l-2.762.36c-.626.079-.963.109-.963.109" transform="translate(55.54 46.75)" fill="#263238"/>
        <path id="Trazado_826179" data-name="Trazado 826179" d="M328.628,279.876c.094.667-1.566,47.585-2.383,63.2-.147,2.807,2.1,5.118,4.629,4.762l59.642-8.364a4.028,4.028,0,0,0,2.936-5.4L373.7,273.556Z" transform="translate(56.247 47.164)" fill="#e0e0e0"/>
        <g id="Grupo_1075839" data-name="Grupo 1075839" transform="translate(379.884 337.288)" opacity="0.3">
          <g id="Grupo_1075838" data-name="Grupo 1075838">
            <g id="Grupo_1075837" data-name="Grupo 1075837" clip-path="url(#clip-path-10)">
              <path id="Trazado_826180" data-name="Trazado 826180" d="M324.019,313.862a25.333,25.333,0,0,0,19.753-.1C354.69,309.252,369,293.733,388.048,299.8l-2.523-7.576a18.015,18.015,0,0,0-16.328-4.008c-9.934,2.386-16.968,18.117-25.615,19.615s-18.728-8.149-18.728-8.149Z" transform="translate(-324.019 -287.687)" fill="#fff"/>
            </g>
          </g>
        </g>
        <path id="Trazado_826181" data-name="Trazado 826181" d="M388.349,312.488l5.1,15.629a4.029,4.029,0,0,1-2.935,5.4l-59.642,8.365c-2.53.354-4.776-1.957-4.629-4.764.21-4.03.477-10.145.756-17.011a106.254,106.254,0,0,0,25.19-.924c13.068-2.176,34.729-11.078,34.729-11.078Z" transform="translate(56.247 53.122)" fill="#4793ff"/>
        <path id="Trazado_826182" data-name="Trazado 826182" d="M379.037,273.568l-54.464,7.638a1.747,1.747,0,0,1-1.973-1.488l-.239-1.7a1.748,1.748,0,0,1,1.488-1.973l54.466-7.638a1.747,1.747,0,0,1,1.972,1.488l.239,1.7a1.748,1.748,0,0,1-1.488,1.973" transform="translate(55.576 46.273)" fill="#fff"/>
        <path id="Trazado_826183" data-name="Trazado 826183" d="M379.082,273.588a2.023,2.023,0,0,0,1.036-.635,1.7,1.7,0,0,0,.354-1.378,19.77,19.77,0,0,0-.363-2.028,1.676,1.676,0,0,0-2.029-.936l-3.082.457c-2.221.326-4.738.694-7.516,1.1l-43.542,6.2a1.445,1.445,0,0,0-1.057.721,1.836,1.836,0,0,0-.11,1.358c.081.5.129,1.109.237,1.51a1.434,1.434,0,0,0,1.514.975l.761-.1,1.536-.213,3.034-.423,11.567-1.6L361.01,275.9c5.544-.736,10.046-1.335,13.214-1.755l3.6-.447.938-.1a1.242,1.242,0,0,1,.322-.014,1.225,1.225,0,0,1-.313.075l-.93.162-3.582.559-13.187,1.947L341.5,279.143l-11.562,1.639-3.033.428-1.536.217-.783.107a2.044,2.044,0,0,1-2.154-1.387c-.158-.617-.17-1.07-.263-1.617a4.748,4.748,0,0,1-.08-.851,2.056,2.056,0,0,1,1.766-1.918l43.568-6.019,7.528-1.011,3.089-.408a2.125,2.125,0,0,1,1.42.162,1.852,1.852,0,0,1,.871.974,17.281,17.281,0,0,1,.322,2.092,1.816,1.816,0,0,1-.44,1.482,1.492,1.492,0,0,1-1.13.556" transform="translate(55.531 46.253)" fill="#263238"/>
        <path id="Trazado_826184" data-name="Trazado 826184" d="M326.888,320.234s4.877-2.1,17.635-4.721,42.013-8.113,42.013-8.113l.272.832s-21.6,9.071-36.924,11.412-23,.59-23,.59" transform="translate(56.359 52.999)" fill="url(#linear-gradient)"/>
        <path id="Trazado_826186" data-name="Trazado 826186" d="M360.841,297.258c.023.167-5.4,1.066-12.111,2.007s-12.174,1.569-12.2,1.4,5.4-1.066,12.113-2.007,12.172-1.569,12.2-1.4" transform="translate(58.022 51.246)" fill="#263238"/>
        <path id="Trazado_826187" data-name="Trazado 826187" d="M362.734,310.756c.023.168-5.4,1.066-12.111,2.007s-12.174,1.569-12.2,1.4,5.4-1.066,12.113-2.007,12.172-1.569,12.2-1.4" transform="translate(58.348 53.573)" fill="#263238"/>
        <path id="Trazado_826188" data-name="Trazado 826188" d="M364.778,325.33c.023.166-5.4,1.066-12.111,2.007s-12.174,1.569-12.2,1.4,5.4-1.066,12.112-2.007,12.172-1.569,12.2-1.4" transform="translate(58.701 56.086)" fill="#263238"/>
        <path id="Trazado_826189" data-name="Trazado 826189" d="M359.087,284.747c.023.166-5.4,1.066-12.111,2.007s-12.174,1.569-12.2,1.4,5.4-1.066,12.113-2.007,12.172-1.569,12.2-1.4" transform="translate(57.72 49.089)" fill="#263238"/>
        <path id="Trazado_826190" data-name="Trazado 826190" d="M349.7,292.28c.023.169-3.1.744-6.978,1.289s-7.04.849-7.064.682,3.1-.743,6.979-1.288,7.039-.848,7.063-.682" transform="translate(57.872 50.385)" fill="#263238"/>
        <path id="Trazado_826191" data-name="Trazado 826191" d="M351.5,305.106c.023.168-3.1.743-6.978,1.287s-7.04.849-7.064.682,3.1-.743,6.978-1.287,7.04-.849,7.064-.682" transform="translate(58.182 52.596)" fill="#263238"/>
        <path id="Trazado_826192" data-name="Trazado 826192" d="M353.458,319.045c.023.167-3.1.743-6.978,1.287s-7.04.849-7.064.682,3.1-.743,6.979-1.287,7.039-.849,7.063-.682" transform="translate(58.519 54.999)" fill="#263238"/>
        <g id="Grupo_1075845" data-name="Grupo 1075845" transform="translate(382.488 327.038)" opacity="0.3">
          <g id="Grupo_1075844" data-name="Grupo 1075844">
            <g id="Grupo_1075843" data-name="Grupo 1075843" clip-path="url(#clip-path-11)">
              <path id="Trazado_826193" data-name="Trazado 826193" d="M328.894,278.945l-2.65,63.279c-.117,2.8,2.124,5.077,4.642,4.724l39.712-5.569s-34.345,3.616-37.956-.768-3.748-61.665-3.748-61.665" transform="translate(-326.24 -278.945)"/>
            </g>
          </g>
        </g>
        <g id="Grupo_1075848" data-name="Grupo 1075848" transform="translate(415.225 320.84)" opacity="0.3">
          <g id="Grupo_1075847" data-name="Grupo 1075847">
            <g id="Grupo_1075846" data-name="Grupo 1075846" clip-path="url(#clip-path-12)">
              <path id="Trazado_826194" data-name="Trazado 826194" d="M354.163,275.378l15.878,66.28,14.741-1.773c.5-1.609-18.353-66.227-18.353-66.227Z" transform="translate(-354.163 -273.658)" fill="#fff"/>
            </g>
          </g>
        </g>
        <path id="Trazado_826195" data-name="Trazado 826195" d="M380.945,331.015c.023.168-10.117,1.727-22.646,3.484s-22.711,3.047-22.734,2.879,10.116-1.726,22.649-3.484,22.708-3.046,22.732-2.879" transform="translate(57.855 57.068)" fill="#263238"/>
        <g id="Grupo_1075851" data-name="Grupo 1075851" transform="translate(418.537 376.062)" opacity="0.2">
          <g id="Grupo_1075850" data-name="Grupo 1075850">
            <g id="Grupo_1075849" data-name="Grupo 1075849" clip-path="url(#clip-path-13)">
              <path id="Trazado_826196" data-name="Trazado 826196" d="M360.273,322.348a1.657,1.657,0,1,1-1.885-1.575,1.74,1.74,0,0,1,1.885,1.575" transform="translate(-356.988 -320.759)"/>
            </g>
          </g>
        </g>
        <g id="Grupo_1075854" data-name="Grupo 1075854" transform="translate(392.426 382.117)" opacity="0.2">
          <g id="Grupo_1075853" data-name="Grupo 1075853">
            <g id="Grupo_1075852" data-name="Grupo 1075852" clip-path="url(#clip-path-14)">
              <path id="Trazado_826197" data-name="Trazado 826197" d="M338,327.51a1.654,1.654,0,1,1-1.882-1.572A1.737,1.737,0,0,1,338,327.51" transform="translate(-334.717 -325.924)"/>
            </g>
          </g>
        </g>
        <g id="Grupo_1075857" data-name="Grupo 1075857" transform="translate(426.734 378.976)" opacity="0.2">
          <g id="Grupo_1075856" data-name="Grupo 1075856">
            <g id="Grupo_1075855" data-name="Grupo 1075855" clip-path="url(#clip-path-15)">
              <path id="Trazado_826198" data-name="Trazado 826198" d="M369.827,326.074a2.949,2.949,0,1,1-3.357-2.8,3.1,3.1,0,0,1,3.357,2.8" transform="translate(-363.98 -323.245)"/>
            </g>
          </g>
        </g>
        <g id="Grupo_1075860" data-name="Grupo 1075860" transform="translate(414.312 376.369)" opacity="0.2">
          <g id="Grupo_1075859" data-name="Grupo 1075859">
            <g id="Grupo_1075858" data-name="Grupo 1075858" clip-path="url(#clip-path-16)">
              <path id="Trazado_826199" data-name="Trazado 826199" d="M355.356,321.975a.995.995,0,1,1-1.131-.945,1.044,1.044,0,0,1,1.131.945" transform="translate(-353.384 -321.021)"/>
            </g>
          </g>
        </g>
        <g id="Grupo_1075863" data-name="Grupo 1075863" transform="translate(441.814 368.16)" opacity="0.2">
          <g id="Grupo_1075862" data-name="Grupo 1075862">
            <g id="Grupo_1075861" data-name="Grupo 1075861" clip-path="url(#clip-path-16)">
              <path id="Trazado_826200" data-name="Trazado 826200" d="M378.814,314.973a.995.995,0,1,1-1.131-.945,1.044,1.044,0,0,1,1.131.945" transform="translate(-376.842 -314.019)"/>
            </g>
          </g>
        </g>
      </g>
    </g>
    <g id="Grupo_1075876" data-name="Grupo 1075876" transform="translate(0 -55.937)">
      <g id="Grupo_1075875" data-name="Grupo 1075875" clip-path="url(#clip-path-2)">
        <path id="Trazado_826201" data-name="Trazado 826201" d="M65.745,411.686H32.013a9.647,9.647,0,0,1,0-19.286H65.745Z" transform="translate(3.905 67.654)" fill="#c1e29a"/>
        <path id="Trazado_826202" data-name="Trazado 826202" d="M126.4,395.608h-75V392.4h75a1.6,1.6,0,0,1,0,3.208" transform="translate(8.862 67.654)" fill="#c1e29a"/>
        <path id="Trazado_826203" data-name="Trazado 826203" d="M126.4,409.319h-75v-3.188h75a1.56,1.56,0,0,1,1.558,1.564v.02a1.581,1.581,0,0,1-1.558,1.6" transform="translate(8.862 70.022)" fill="#c1e29a"/>
        <path id="Trazado_826204" data-name="Trazado 826204" d="M125.331,408.027H59.637a6.448,6.448,0,0,1,0-12.891h65.694a16.478,16.478,0,0,0,0,12.891" transform="translate(9.205 68.126)" fill="#ebebeb"/>
        <g id="Grupo_1075868" data-name="Grupo 1075868" transform="translate(26.552 460.054)" opacity="0.3">
          <g id="Grupo_1075867" data-name="Grupo 1075867">
            <g id="Grupo_1075866" data-name="Grupo 1075866" clip-path="url(#clip-path-19)">
              <path id="Trazado_826205" data-name="Trazado 826205" d="M58.687,411.686H32.052a9.525,9.525,0,0,1-9.4-9.643v-.02a9.506,9.506,0,0,1,9.345-9.623H59.4c-6.788,4.237-6.27,14.375-.712,19.286" transform="translate(-22.647 -392.4)"/>
            </g>
          </g>
        </g>
        <path id="Trazado_826206" data-name="Trazado 826206" d="M116.8,401.147s-13.462.118-30.116.118-30.117,0-30.117-.118,13.463-.1,30.117-.1,30.116.04,30.116.1" transform="translate(9.753 69.145)" fill="#263238"/>
        <path id="Trazado_826207" data-name="Trazado 826207" d="M122.08,403.6s-13.462.118-30.1.118-30.116,0-30.116-.118,13.462-.118,30.116-.118,30.1.059,30.1.118" transform="translate(10.667 69.565)" fill="#263238"/>
        <path id="Trazado_826208" data-name="Trazado 826208" d="M120.522,397.677s-13.462.118-30.1.118-30.116,0-30.116-.118,13.462,0,30.116,0,30.1-.06,30.1,0" transform="translate(10.398 68.555)" fill="#263238"/>
        <path id="Trazado_826209" data-name="Trazado 826209" d="M54.711,407.719s-6.308.118-14.077.118-14.116,0-14.116-.118,6.328-.118,14.116-.118,14.077.059,14.077.118" transform="translate(4.572 70.275)" fill="#263238"/>
        <path id="Trazado_826210" data-name="Trazado 826210" d="M54.711,393.785s-6.308.118-14.077.118-14.116,0-14.116-.118,6.328-.118,14.116-.118,14.077.059,14.077.118" transform="translate(4.572 67.873)" fill="#263238"/>
        <path id="Trazado_826211" data-name="Trazado 826211" d="M63.079,445.234H21.271a12.421,12.421,0,0,1,0-24.832H63.079a1.62,1.62,0,0,1,1.616,1.624V443.59a1.621,1.621,0,0,1-1.6,1.644h-.019" transform="translate(1.588 72.482)" fill="#cc8b64"/>
        <path id="Trazado_826212" data-name="Trazado 826212" d="M142.825,424.522H46.284V420.4h96.541a2.07,2.07,0,0,1,.161,4.113c-.054,0-.107.006-.161.006" transform="translate(7.98 72.482)" fill="#cc8b64"/>
        <path id="Trazado_826213" data-name="Trazado 826213" d="M142.825,442.188H46.284v-4.119h96.541a2.07,2.07,0,0,1,.161,4.113c-.054,0-.107.006-.161.006" transform="translate(7.98 75.528)" fill="#cc8b64"/>
        <path id="Trazado_826214" data-name="Trazado 826214" d="M141.452,440.509H56.835a8.159,8.159,0,0,1-8.057-8.257v-.04a8.179,8.179,0,0,1,8.057-8.3h84.618a21.069,21.069,0,0,0,0,16.593" transform="translate(8.41 73.088)" fill="#ebebeb"/>
        <g id="Grupo_1075871" data-name="Grupo 1075871" transform="translate(10.802 492.885)" opacity="0.4">
          <g id="Grupo_1075870" data-name="Grupo 1075870">
            <g id="Grupo_1075869" data-name="Grupo 1075869" clip-path="url(#clip-path-20)">
              <path id="Trazado_826215" data-name="Trazado 826215" d="M55.618,445.234H21.136A12.1,12.1,0,0,1,9.213,432.956,12.379,12.379,0,0,1,21.406,420.4H56.522c-8.731,5.486-8.077,18.495-.9,24.832" transform="translate(-9.213 -420.403)"/>
            </g>
          </g>
        </g>
        <path id="Trazado_826216" data-name="Trazado 826216" d="M130.454,431.668s-17.308.118-38.77.118-38.789,0-38.789-.118,17.308-.118,38.789-.118,38.77.059,38.77.118" transform="translate(9.12 74.404)" fill="#263238"/>
        <path id="Trazado_826217" data-name="Trazado 826217" d="M137.28,434.81s-17.308.118-38.789.118-38.789,0-38.789-.118,17.308-.118,38.789-.118,38.789.059,38.789.118" transform="translate(10.293 74.946)" fill="#263238"/>
        <path id="Trazado_826218" data-name="Trazado 826218" d="M135.26,428.746s-17.308.118-38.77.118-38.789,0-38.789-.118,17.308-.118,38.789-.118,38.77.059,38.77.118" transform="translate(9.948 73.901)" fill="#263238"/>
        <path id="Trazado_826219" data-name="Trazado 826219" d="M50.508,440.111s-8.134.118-18.155.118-18.154,0-18.154-.118,8.134-.1,18.154-.1,18.155.039,18.155.1" transform="translate(2.448 75.863)" fill="#263238"/>
        <path id="Trazado_826220" data-name="Trazado 826220" d="M50.508,422.176s-8.134.118-18.155.118-18.154,0-18.154-.118,8.134-.118,18.154-.118,18.155.059,18.155.118" transform="translate(2.448 72.768)" fill="#263238"/>
        <path id="Trazado_826221" data-name="Trazado 826221" d="M75.451,422.581H37.277a7.122,7.122,0,0,1,0-14.238H75.451Z" transform="translate(5.237 70.403)" fill="#7816c2"/>
        <path id="Trazado_826222" data-name="Trazado 826222" d="M138.933,411.71H60.49v-3.366h78.443a1.684,1.684,0,0,1,0,3.366" transform="translate(10.429 70.403)" fill="#7816c2"/>
        <path id="Trazado_826223" data-name="Trazado 826223" d="M138.933,420.982H60.49v-3.366h78.443a1.684,1.684,0,0,1,0,3.366" transform="translate(10.429 72.002)" fill="#7816c2"/>
        <path id="Trazado_826224" data-name="Trazado 826224" d="M137.81,418.72H66.193a3.754,3.754,0,0,1,0-7.5H137.81a5.77,5.77,0,0,0,0,7.5" transform="translate(10.782 70.898)" fill="#fafafa"/>
        <g id="Grupo_1075874" data-name="Grupo 1075874" transform="translate(35.61 478.747)" opacity="0.3">
          <g id="Grupo_1075873" data-name="Grupo 1075873">
            <g id="Grupo_1075872" data-name="Grupo 1075872" clip-path="url(#clip-path-21)">
              <path id="Trazado_826225" data-name="Trazado 826225" d="M68.086,422.581H37.22a6.969,6.969,0,0,1-6.846-7.07,7.067,7.067,0,0,1,6.961-7.168H68.816c-7.1,3.129-6.557,10.594-.73,14.238" transform="translate(-30.373 -408.344)"/>
            </g>
          </g>
        </g>
        <path id="Trazado_826226" data-name="Trazado 826226" d="M128.89,413.934s-14.116.1-31.5.1-31.52,0-31.52-.1,14.1-.118,31.52-.118,31.5.039,31.5.118" transform="translate(11.357 71.347)" fill="#263238"/>
        <path id="Trazado_826227" data-name="Trazado 826227" d="M134.418,415.657s-14.1.118-31.5.118-31.52,0-31.52-.118,14.116-.118,31.52-.118,31.5.059,31.5.118" transform="translate(12.31 71.644)" fill="#263238"/>
        <path id="Trazado_826228" data-name="Trazado 826228" d="M63.925,419.288s-6.6.118-14.75.118-14.75,0-14.75-.118,6.615-.118,14.75-.118,14.75.059,14.75.118" transform="translate(5.935 72.27)" fill="#263238"/>
        <path id="Trazado_826229" data-name="Trazado 826229" d="M63.925,409.8s-6.6.118-14.75.118-14.75,0-14.75-.118,6.615-.118,14.75-.118,14.75.059,14.75.118" transform="translate(5.935 70.633)" fill="#263238"/>
        <path id="Trazado_826230" data-name="Trazado 826230" d="M143.882,408.352s-24.211.118-54.1.118-54.1,0-54.1-.118,24.211,0,54.1,0,54.1-.06,54.1,0" transform="translate(6.153 70.396)" fill="#263238"/>
        <path id="Trazado_826231" data-name="Trazado 826231" d="M77.138,397.754v7.723l2.6-1.723,2.9,1.723v-7.723Z" transform="translate(13.3 68.577)" fill="#c1e29a"/>
      </g>
    </g>
    <g id="Grupo_1075878" data-name="Grupo 1075878" transform="translate(0 -55.937)">
      <g id="Grupo_1075877" data-name="Grupo 1075877" clip-path="url(#clip-path-2)">
        <path id="Trazado_826232" data-name="Trazado 826232" d="M275.686,61.555a8.75,8.75,0,1,1-5.806-10.929,8.751,8.751,0,0,1,5.806,10.929" transform="translate(44.58 57.962)" fill="#ff725e"/>
        <path id="Trazado_826233" data-name="Trazado 826233" d="M309.934,41.989a12.612,12.612,0,1,1-8.367-15.753,12.612,12.612,0,0,1,8.367,15.753" transform="translate(49.182 53.728)" fill="#ff725e"/>
        <line id="Línea_1067" data-name="Línea 1067" y1="20.347" x2="28.553" transform="translate(312.076 46.727)" fill="#ff725e"/>
        <rect id="Rectángulo_379615" data-name="Rectángulo 379615" width="35.061" height="1.172" transform="matrix(0.814, -0.58, 0.58, 0.814, 311.736, 115.896)" fill="#ff725e"/>
        <path id="Trazado_826234" data-name="Trazado 826234" d="M311.855,66.852a8.751,8.751,0,1,1-12.374-.175,8.751,8.751,0,0,1,12.374.175" transform="translate(51.177 60.369)" fill="#ff725e"/>
        <line id="Línea_1068" data-name="Línea 1068" x1="4.081" y1="34.823" transform="translate(350.425 45.569)" fill="#ff725e"/>
        <rect id="Rectángulo_379616" data-name="Rectángulo 379616" width="1.173" height="35.061" transform="matrix(0.993, -0.116, 0.116, 0.993, 349.844, 94.937)" fill="#ff725e"/>
        <path id="Trazado_826235" data-name="Trazado 826235" d="M278.077,17.323a5.57,5.57,0,1,1,7.076-3.461,5.569,5.569,0,0,1-7.076,3.461" transform="translate(47.295 50.418)" fill="#ff725e"/>
        <line id="Línea_1069" data-name="Línea 1069" x2="14.772" y2="22.265" transform="translate(327.32 14.587)" fill="#ff725e"/>
        <rect id="Rectángulo_379617" data-name="Rectángulo 379617" width="1.173" height="26.72" transform="translate(326.831 64.211) rotate(-33.563)" fill="#ff725e"/>
      </g>
    </g>
    <g id="Grupo_1075889" data-name="Grupo 1075889" transform="translate(0 -55.937)">
      <g id="Grupo_1075888" data-name="Grupo 1075888" clip-path="url(#clip-path-2)">
        <path id="Trazado_826236" data-name="Trazado 826236" d="M189.576,166.64,174.44,187.417c-1.886,0-38.387,16.9-38.387,16.9l16.979,133.941L136.053,488.549H310.869s-10-223.428-6.859-236.634L292,174.761l-33.355-.434-17.654-11.746Z" transform="translate(23.457 28.031)" fill="#fff"/>
        <path id="Trazado_826237" data-name="Trazado 826237" d="M177.112,184.039c-1.059,1.086,18.034,23.026,18.034,23.026L233.32,268.92l12.639-92.394-12.9-13.614L180.7,165.57Z" transform="translate(30.529 28.088)" fill="#bf9cd9"/>
        <path id="Trazado_826238" data-name="Trazado 826238" d="M146.916,198.179a43.21,43.21,0,0,0-13.263,14.363c-5.486,9.6-58.058,89.658-60.344,107s10.294,48.744,41.38,27.715S172.257,275.1,172.257,275.1Z" transform="translate(12.594 34.168)" fill="#fff"/>
        <path id="Trazado_826239" data-name="Trazado 826239" d="M110.81,256.8c-.987.987-7.68,9.386-7.68,9.386l11.134,45.624,11.675-25.562Z" transform="translate(17.781 44.276)" fill="#ffc09d"/>
        <path id="Trazado_826240" data-name="Trazado 826240" d="M77.193,298.031a6.079,6.079,0,0,1,.435-.835l1.346-2.351c1.2-2.029,3.021-4.936,5.433-8.464A216.522,216.522,0,0,1,105.9,260.059l.378-.394.13.535c.669,2.726,1.369,5.581,2.083,8.489,3.667,15.119,6.985,28.8,9.4,38.768,1.165,4.93,2.113,8.936,2.781,11.765q.461,2.031.726,3.207l.175.837a1.055,1.055,0,0,1,.039.29,1.024,1.024,0,0,1-.1-.276c-.062-.219-.138-.49-.233-.823-.2-.774-.483-1.836-.837-3.178-.714-2.817-1.726-6.808-2.97-11.718-2.461-9.954-5.841-23.623-9.576-38.726-.71-2.909-1.409-5.765-2.075-8.492l.506.141a231.178,231.178,0,0,0-21.591,26.126c-2.45,3.49-4.319,6.357-5.575,8.35q-.907,1.449-1.435,2.294a6.09,6.09,0,0,1-.531.777" transform="translate(13.309 44.769)" fill="#263238"/>
        <path id="Trazado_826241" data-name="Trazado 826241" d="M119.751,290.432s.846,27.819-1.739,28.667c0,0-1.539,1.053-3.257-3.916-1.87-5.413-2.348-8.671-2.121-9.168l7.117-15.582" transform="translate(19.411 50.074)" fill="#263238"/>
        <path id="Trazado_826242" data-name="Trazado 826242" d="M271.186,181.57s15.323,2.365,16.032,2.365,3.537-5.188,9.2-4.48,4.481,5.659,9.9,4.48,1.179-5.895,7.546-6.6,13.914.472,15.328,0,32.544-54.709,33.251-54.238,32.307,39.618,32.307,39.618-20.045,53.294-28.77,65.321a37.488,37.488,0,0,1-26.411,15.8c-6.367.707-44.188.94-51.264,4.477s-5.612,16.868-5.612,16.868l-25.9-60.727Z" transform="translate(44.275 21.222)" fill="#fff"/>
        <path id="Trazado_826243" data-name="Trazado 826243" d="M282.1,196.676a3.406,3.406,0,0,1,0,.74c-.028.549-.064,1.249-.109,2.114-.115,1.911-.274,4.543-.469,7.764-.4,6.554-.884,15.612-1.247,25.624s-.523,19.086-.6,25.652c-.039,3.225-.069,5.862-.091,7.777-.018.865-.033,1.566-.043,2.115a3.4,3.4,0,0,1-.057.737,3.335,3.335,0,0,1-.066-.736c-.019-.549-.042-1.249-.072-2.115-.05-1.836-.088-4.5-.1-7.78-.032-6.57.063-15.649.423-25.672s.922-19.081,1.427-25.631c.252-3.276.48-5.925.662-7.753.091-.862.165-1.559.223-2.1a3.418,3.418,0,0,1,.12-.73" transform="translate(48.144 33.909)" fill="#263238"/>
        <path id="Trazado_826244" data-name="Trazado 826244" d="M225.094,468.385c-.169,0-.3-48.145-.3-107.522,0-59.4.136-107.531.3-107.531s.3,48.135.3,107.531c0,59.377-.136,107.522-.3,107.522" transform="translate(38.756 43.677)" fill="#263238"/>
        <path id="Trazado_826245" data-name="Trazado 826245" d="M235.257,265.3a1.085,1.085,0,0,1-.25-.165l-.692-.53-2.626-2.074c-2.311-1.762-5.681-4.278-10.007-7.156s-9.589-6.134-15.435-9.756-12.253-7.671-18.575-12.5l-2.345-1.814-2.259-1.862c-1.5-1.225-2.929-2.488-4.32-3.746a55.8,55.8,0,0,1-7.372-7.931,26.905,26.905,0,0,1-4.5-8.711,30.442,30.442,0,0,1-1.039-8.48,76.076,76.076,0,0,1,1.3-12.263c.257-1.393.461-2.494.608-3.294.072-.346.13-.626.178-.854a1.089,1.089,0,0,1,.081-.287,1.078,1.078,0,0,1-.02.3l-.118.863c-.12.805-.285,1.912-.495,3.312a82.514,82.514,0,0,0-1.1,12.226,30.327,30.327,0,0,0,1.094,8.341,26.56,26.56,0,0,0,4.461,8.514,55.792,55.792,0,0,0,7.323,7.825c1.386,1.247,2.814,2.505,4.309,3.724l2.249,1.85,2.335,1.806c6.295,4.807,12.684,8.851,18.5,12.507s11.083,6.931,15.379,9.875,7.643,5.506,9.913,7.328c1.126.923,1.977,1.668,2.558,2.167l.653.577c.144.132.216.2.209.212" transform="translate(28.593 31.703)" fill="#263238"/>
        <path id="Trazado_826246" data-name="Trazado 826246" d="M225.049,267.25a1,1,0,0,1,.107-.263l.366-.743,1.455-2.831,5.422-10.378c2.291-4.4,5.006-9.613,8.019-15.4,2.98-5.812,6.322-12.184,9.536-18.988,3.13-6.849,5.731-13.551,8-19.675.537-1.526,1.168-3.045,1.56-4.473a8.081,8.081,0,0,0-.374-4.29,22.781,22.781,0,0,0-4.126-6.8,65.085,65.085,0,0,0-8.362-8.121c-1.065-.879-1.909-1.541-2.481-1.988l-.652-.512c-.145-.116-.218-.178-.212-.188a.963.963,0,0,1,.249.137l.688.463c.6.416,1.467,1.049,2.557,1.9a60.723,60.723,0,0,1,8.543,8.03,22.992,22.992,0,0,1,4.275,6.914,8.584,8.584,0,0,1,.419,4.568c-.421,1.559-1.018,2.992-1.556,4.551-2.24,6.145-4.828,12.864-7.97,19.739-3.23,6.835-6.581,13.187-9.591,18.992-3.028,5.793-5.8,10.988-8.137,15.343-2.344,4.306-4.249,7.811-5.595,10.287L225.63,266.3c-.169.287-.306.523-.419.715-.1.159-.152.238-.162.232" transform="translate(38.801 29.758)" fill="#263238"/>
        <path id="Trazado_826247" data-name="Trazado 826247" d="M333.156,203.109a6.657,6.657,0,0,1-.907-1.13c-.557-.748-1.318-1.862-2.22-3.263a94.826,94.826,0,0,1-10.855-23.6c-.477-1.6-.827-2.9-1.032-3.809a6.569,6.569,0,0,1-.267-1.424,6.753,6.753,0,0,1,.5,1.361c.275.888.687,2.168,1.215,3.741A117.742,117.742,0,0,0,330.4,198.488c.851,1.424,1.555,2.57,2.049,3.358a6.616,6.616,0,0,1,.711,1.263" transform="translate(54.804 29.289)" fill="#263238"/>
        <path id="Trazado_826248" data-name="Trazado 826248" d="M339.46,196.559a5.834,5.834,0,0,1-1-.911c-.613-.613-1.477-1.522-2.527-2.66-2.1-2.278-4.923-5.5-7.9-9.173s-5.535-7.112-7.323-9.641c-.9-1.265-1.6-2.3-2.074-3.027a5.693,5.693,0,0,1-.683-1.163,5.774,5.774,0,0,1,.877,1.026q.907,1.185,2.228,2.909c1.875,2.46,4.483,5.842,7.451,9.512s5.731,6.923,7.746,9.27l2.38,2.787a5.78,5.78,0,0,1,.819,1.072" transform="translate(54.819 29.307)" fill="#263238"/>
        <path id="Trazado_826249" data-name="Trazado 826249" d="M215.824,198.224l7.712-1.548,8.6,6.588L226.87,216.47l-10.291.747-6.325-9.2Z" transform="translate(36.25 33.909)" fill="#480d74"/>
        <path id="Trazado_826250" data-name="Trazado 826250" d="M245.953,174.524a3.739,3.739,0,0,1-.046.662c-.055.475-.128,1.109-.219,1.913-.217,1.718-.524,4.154-.91,7.22-.827,6.241-1.992,15.04-3.373,25.472l-.063.483-.38-.308-16.41-13.319.455-.086-3.461,6.087-7,12.285-.179.314-.273-.236c-10.776-9.253-20.12-17.39-26.725-23.269-3.3-2.939-5.918-5.316-7.683-6.985a14.746,14.746,0,0,1-2.58-2.721,1,1,0,0,1,.162.183c.114.113.278.288.509.505.455.44,1.15,1.068,2.049,1.881,1.807,1.62,4.461,3.95,7.8,6.849,6.672,5.8,16.066,13.878,26.859,23.106l-.451.079c2.23-3.925,4.575-8.053,6.984-12.293,1.186-2.083,2.358-4.141,3.463-6.085l.178-.312.277.227c5.839,4.765,11.367,9.277,16.373,13.364l-.443.175c1.47-10.419,2.711-19.208,3.591-25.441.451-3.058.809-5.486,1.062-7.2.127-.8.227-1.43.3-1.9a3.741,3.741,0,0,1,.134-.65" transform="translate(30.535 30.09)" fill="#263238"/>
        <path id="Trazado_826251" data-name="Trazado 826251" d="M216.517,214.307l-5.91,18.447,16.932,27.436,4.616-33.75L226.81,213.56Z" transform="translate(36.311 36.82)" fill="#480d74"/>
        <path id="Trazado_826252" data-name="Trazado 826252" d="M143.621,375.272l-4.289,17.514,51.164,5,4.236-18.943Z" transform="translate(24.023 64.701)" fill="#e0e0e0"/>
        <path id="Trazado_826253" data-name="Trazado 826253" d="M143.658,375.273a.935.935,0,0,1,.234,0l.721.03,2.822.157,10.623.66,36.732,2.436.341.023-.075.335c-1.284,5.755-2.665,11.952-4.093,18.353-.045.2-.089.4-.132.592l-.059.264-.268-.027-51.155-5.1-.236-.023.057-.227c1.385-5.463,2.494-9.841,3.269-12.9q.57-2.189.89-3.419c.1-.358.175-.645.237-.871a1.332,1.332,0,0,1,.091-.279,2.135,2.135,0,0,1-.056.326c-.053.237-.118.538-.2.913q-.287,1.25-.8,3.482c-.719,3.042-1.748,7.4-3.034,12.84l-.177-.25,51.175,4.9-.328.237c.043-.192.088-.392.132-.592,1.435-6.4,2.824-12.594,4.115-18.348l.266.358-36.534-2.687-10.67-.829-2.874-.241-.749-.072a1.529,1.529,0,0,1-.265-.039" transform="translate(23.985 64.7)" fill="#263238"/>
        <path id="Trazado_826254" data-name="Trazado 826254" d="M252.582,379.824l3.991,17.825,38.026-2.863-6.19-18.7Z" transform="translate(43.548 64.841)" fill="#e0e0e0"/>
        <path id="Trazado_826255" data-name="Trazado 826255" d="M252.582,379.869a4.572,4.572,0,0,1,.64-.1l1.934-.236,7.355-.845,25.868-2.844.227-.025.073.219c1.916,5.767,4.014,12.089,6.209,18.7l.123.372-.39.029-.334.025-37.7,2.758-.2.014-.041-.189c-1.178-5.5-2.137-9.981-2.814-13.137-.311-1.5-.556-2.678-.734-3.535-.073-.368-.131-.667-.179-.907a1.318,1.318,0,0,1-.043-.3,2.213,2.213,0,0,1,.1.334c.062.249.139.557.234.939.208.864.492,2.055.855,3.563.727,3.109,1.756,7.518,3.024,12.94l-.237-.175,37.686-2.918.334-.025-.266.4c-2.182-6.614-4.268-12.939-6.17-18.711l.3.195-25.7,2.539-7.439.7-2,.176a6.9,6.9,0,0,1-.718.042" transform="translate(43.548 64.796)" fill="#263238"/>
        <path id="Trazado_826256" data-name="Trazado 826256" d="M261.808,283.534a6.493,6.493,0,0,1-.488.9l-1.5,2.527c-1.3,2.194-3.277,5.318-5.793,9.126s-5.621,8.273-9.2,13.133c-3.605,4.842-7.69,10.076-12.166,15.414-4.5,5.325-8.955,10.247-13.11,14.627-4.178,4.357-8.038,8.187-11.368,11.31s-6.061,5.608-8,7.268l-2.232,1.911a6.588,6.588,0,0,1-.805.635,6.331,6.331,0,0,1,.725-.728l2.155-2c1.889-1.713,4.582-4.237,7.861-7.4s7.108-7.015,11.258-11.386c4.126-4.394,8.563-9.317,13.05-14.632,4.468-5.329,8.559-10.542,12.183-15.356,3.6-4.835,6.741-9.26,9.291-13.038s4.585-6.857,5.951-9.012l1.6-2.464a6.5,6.5,0,0,1,.592-.838" transform="translate(33.99 48.885)" fill="#263238"/>
        <path id="Trazado_826257" data-name="Trazado 826257" d="M355.439,115.495c-.791.633-9.063,22.953-9.063,22.953l31.383,25.486,4.273-34.984Z" transform="translate(59.719 19.913)" fill="#ffc09d"/>
        <path id="Trazado_826258" data-name="Trazado 826258" d="M355.281,107.259l-2.374,4.275s-9.023.95-5.857,7.439S385.2,138.286,385.2,138.286l1.267-14.88Z" transform="translate(59.719 18.493)" fill="#aaccc4"/>
        <path id="Trazado_826259" data-name="Trazado 826259" d="M395.746,106.168s3.836-7.212-1.535-12.122c-.292-.267-.543-.495-.78-.707.46-1.886,1.809-8.249-.141-11.109-2.3-3.375-8.9-7.058-8.9-7.058s2.762-5.217-.92-8.285-13.349-2.609-13.349-2.609l-11.816,3.99c-.46,0-3.683,0-4.756,7.058s-2.455,18.413-2.3,21.788S353.7,116.6,353.7,116.6l29.614,13.962s13.5-15.19,13.963-19.179-1.535-5.217-1.535-5.217" transform="translate(60.557 11.078)" fill="#aaccc4"/>
        <path id="Trazado_826260" data-name="Trazado 826260" d="M407.165,120.372a26.879,26.879,0,0,0-26.814-18.145L365.41,58.5l-13.939,4.762,14.941,43.726a26.871,26.871,0,1,0,40.753,13.382" transform="translate(60.598 10.086)" fill="#fff"/>
        <path id="Trazado_826261" data-name="Trazado 826261" d="M407.22,120.424s.075.191.195.572c.123.406.294.968.516,1.7.222.75.349,1.714.577,2.837.086.566.111,1.184.176,1.842q.04.5.083,1.021c-.006.352-.011.714-.016,1.088a27.031,27.031,0,0,1-11.323,21.725,27.215,27.215,0,0,1-42.461-17.837,27.551,27.551,0,0,1-.279-5.857,24.792,24.792,0,0,1,1.011-5.89,26.311,26.311,0,0,1,2.32-5.623,27.362,27.362,0,0,1,3.575-5.047,29.3,29.3,0,0,1,4.7-4.163l-.115.348c-1.17-3.426-2.418-7.072-3.677-10.757-3.9-11.436-7.683-22.508-11.255-32.973l-.095-.279.279-.095,13.942-4.751.268-.091.09.267,14.87,43.75-.206-.14a27.088,27.088,0,0,1,22.493,10.222,27.97,27.97,0,0,1,3.516,5.894c.29.727.487,1.291.625,1.665s.191.571.191.571-.093-.183-.246-.551c-.161-.389-.386-.932-.677-1.638a29.119,29.119,0,0,0-3.585-5.8,26.927,26.927,0,0,0-22.3-9.95l-.156.008-.05-.148L365.2,58.645l.359.175-13.935,4.773.183-.372c3.579,10.463,7.365,21.533,11.276,32.965,1.258,3.685,2.5,7.332,3.674,10.758l.073.212-.188.136a28.791,28.791,0,0,0-4.6,4.068,26.865,26.865,0,0,0-3.5,4.932,25.788,25.788,0,0,0-2.274,5.5,28.008,28.008,0,0,0-.674,2.863,28.556,28.556,0,0,0-.321,2.9,26.994,26.994,0,0,0,.265,5.732A26.665,26.665,0,0,0,380.78,155.7a26.747,26.747,0,0,0,27.744-26.22c.011-.37.021-.729.03-1.079-.025-.348-.048-.687-.07-1.014-.054-.653-.072-1.269-.147-1.832-.21-1.118-.318-2.08-.519-2.833-.2-.736-.35-1.3-.46-1.709-.1-.387-.138-.591-.138-.591" transform="translate(60.543 10.034)" fill="#263238"/>
        <path id="Trazado_826262" data-name="Trazado 826262" d="M404.215,120.292c-2.69-10.316-16-16.549-26.145-16.02L363.523,60.728l-9.977,3.408,15.945,42.7c-9.033,4.985-15.716,19.883-11.514,29.68,5.249,12.236,18.944,19.182,31.13,15.019s18.641-17.692,15.109-31.241" transform="translate(60.956 10.47)" fill="#e0e0e0"/>
        <path id="Trazado_826263" data-name="Trazado 826263" d="M367.644,60.284,351.1,65.939a1.8,1.8,0,1,1-1.164-3.407l16.546-5.655a1.8,1.8,0,1,1,1.164,3.407" transform="translate(60.122 9.79)" fill="#fff"/>
        <path id="Trazado_826264" data-name="Trazado 826264" d="M367.688,60.312c-.009-.026.147-.082.385-.26a1.756,1.756,0,0,0,.668-1.059,1.67,1.67,0,0,0-.694-1.713,1.623,1.623,0,0,0-1.14-.265,13.29,13.29,0,0,0-1.378.458c-3.944,1.406-9.407,3.309-15.452,5.374a1.5,1.5,0,0,0,.154,2.877,1.555,1.555,0,0,0,.937-.081l1.041-.351,2.015-.678,6.982-2.317c1.913-.613,3.5-1.122,4.724-1.511a10.358,10.358,0,0,1,1.759-.476,10.368,10.368,0,0,1-1.682.7l-4.66,1.7-6.94,2.441-2.008.7-1.039.36a2.174,2.174,0,0,1-1.26.1,2.1,2.1,0,0,1-.219-4.039c6.046-2.066,11.531-3.9,15.511-5.206a12.394,12.394,0,0,1,1.469-.435,1.966,1.966,0,0,1,1.385.373,1.925,1.925,0,0,1,.728,2.046,1.8,1.8,0,0,1-.83,1.106c-.28.157-.45.172-.454.158" transform="translate(60.078 9.762)" fill="#263238"/>
        <path id="Trazado_826265" data-name="Trazado 826265" d="M358.588,84.328c1.04-3.119.26-10.134-1.429-13.9-.8-1.779-3.991-2.612-4.965-.709-1.363,2.663-4.649,14.48-4.909,18.9s6.616,11.622,6.616,11.622l5.037-7.595s-1.389-5.2-.349-8.315" transform="translate(59.875 11.833)" fill="#aaccc4"/>
        <path id="Trazado_826266" data-name="Trazado 826266" d="M355.22,90.159c-.165-.036.251-2.53.93-5.569s1.36-5.474,1.525-5.438-.252,2.53-.93,5.57-1.361,5.473-1.525,5.436" transform="translate(61.238 13.647)" fill="#263238"/>
        <path id="Trazado_826267" data-name="Trazado 826267" d="M400.271,113.588a21.1,21.1,0,1,1-38.876-2.625s11.995-1.406,20.929,3.385,17.947-.76,17.947-.76" transform="translate(61.928 19.098)" fill="#ffae7e"/>
        <g id="Grupo_1075881" data-name="Grupo 1075881" transform="translate(417.896 71.475)" opacity="0.4">
          <g id="Grupo_1075880" data-name="Grupo 1075880">
            <g id="Grupo_1075879" data-name="Grupo 1075879" clip-path="url(#clip-path-24)">
              <path id="Trazado_826268" data-name="Trazado 826268" d="M356.441,62.867c.136.312,15.05,44.106,15.05,44.106s21.582,11.908,22.568,28.015l9.084-3.117s3.543-25.611-26.588-27.361L362.008,60.965Z" transform="translate(-356.441 -60.964)" fill="#fff"/>
            </g>
          </g>
        </g>
        <path id="Trazado_826269" data-name="Trazado 826269" d="M366.058,64.815a2.534,2.534,0,0,0-1.169,3.858c1.558,2.767,3.248,3.287,3.248,3.287s-4.86.78-3.729,3.768a5.894,5.894,0,0,0,3.729,3.637s-3.248,3.379,1.689,6.626l3.9,1.818s-1.818,4.028,1.949,8.056l3.768,4.027s11.433,3.119,11.3.78-.13-5.326-4.027-7.146c0,0,3.248-7.705-.26-11.648a72,72,0,0,0-7.535-7.19s3.638-2.418-.521-6.016-9.223-5.418-12.342-3.858" transform="translate(62.799 11.078)" fill="#aaccc4"/>
        <path id="Trazado_826270" data-name="Trazado 826270" d="M383.278,75.007c-.1.176-3.257-2.276-7.932-3.346-4.662-1.133-8.579-.348-8.591-.551a7.422,7.422,0,0,1,2.525-.505,19.862,19.862,0,0,1,11.966,2.822,7.445,7.445,0,0,1,2.033,1.58" transform="translate(63.233 12.161)" fill="#263238"/>
        <path id="Trazado_826271" data-name="Trazado 826271" d="M385.826,81.682c-.082.177-3.967-1.8-9.152-3.012-5.176-1.252-9.535-1.237-9.528-1.432a10.29,10.29,0,0,1,2.849-.111A36.17,36.17,0,0,1,383.331,80.3a10.361,10.361,0,0,1,2.495,1.383" transform="translate(63.3 13.294)" fill="#263238"/>
        <path id="Trazado_826272" data-name="Trazado 826272" d="M386.6,88.617c-.086.165-3.109-1.379-7.092-2.58-3.977-1.225-7.348-1.631-7.326-1.816a7.007,7.007,0,0,1,2.235.091,32.6,32.6,0,0,1,10.279,3.134,7,7,0,0,1,1.905,1.171" transform="translate(64.168 14.512)" fill="#263238"/>
        <path id="Trazado_826273" data-name="Trazado 826273" d="M385.457,96.247a12.612,12.612,0,0,1-2.94-.491,20.591,20.591,0,0,1-6.707-2.682c-2.376-1.565-4.072-3.821-4.259-5.782a3.837,3.837,0,0,1,.382-2.2c.257-.47.495-.654.521-.631a4.58,4.58,0,0,0-.475,2.776c.265,1.747,1.891,3.833,4.169,5.332a23.932,23.932,0,0,0,6.48,2.774,16.824,16.824,0,0,1,2.83.909" transform="translate(64.055 14.561)" fill="#263238"/>
        <path id="Trazado_826274" data-name="Trazado 826274" d="M147.6,206.789V272.73l-16.853,39.813a5.918,5.918,0,0,0,5.449,8.224h61.092a5.919,5.919,0,0,0,5.394-8.356L184.747,272.73V206.789Z" transform="translate(22.461 35.653)" fill="#fff"/>
        <path id="Trazado_826275" data-name="Trazado 826275" d="M147.643,206.817s.2-.013.619-.019l1.862-.02,7.267-.047,27.4-.1h.189v.19c.023,17.107.056,39.837.091,65.941l-.026-.115,13.327,29.436q1.736,3.836,3.5,7.738l.884,1.956a8.635,8.635,0,0,1,.723,2.106,6.758,6.758,0,0,1-.05,2.263,6.275,6.275,0,0,1-2.421,3.762,6.727,6.727,0,0,1-2.065.99,8.823,8.823,0,0,1-2.257.208H185.6l-28.955,0-13.9-.006c-2.284-.008-4.525.015-6.789-.021a6.175,6.175,0,0,1-5.422-3.777,6.057,6.057,0,0,1-.422-3.366,14.63,14.63,0,0,1,1.115-3.112q1.261-2.972,2.494-5.881,2.471-5.814,4.82-11.356c3.136-7.382,6.1-14.375,8.882-20.913l-.018.094c.053-20.18.1-36.686.127-48.166.027-5.7.046-10.145.06-13.19.013-1.492.021-2.638.028-3.43.007-.771.026-1.155.026-1.155s.018.417.025,1.205q.009,1.2.028,3.475c.013,3.058.035,7.523.06,13.244.03,11.445.074,27.9.127,48.017v.049l-.018.045c-2.761,6.546-5.716,13.546-8.833,20.935q-2.339,5.541-4.8,11.365-1.227,2.909-2.486,5.884a14.323,14.323,0,0,0-1.074,2.979,5.5,5.5,0,0,0,.388,3.051,5.6,5.6,0,0,0,4.918,3.421c2.212.033,4.492.007,6.764.013l13.9,0,28.955,0h11.089a8.167,8.167,0,0,0,2.1-.186,6.119,6.119,0,0,0,1.859-.891,5.66,5.66,0,0,0,2.188-3.4,6.138,6.138,0,0,0,.048-2.039,21.691,21.691,0,0,0-1.559-3.912q-1.762-3.9-3.5-7.74l-13.292-29.451-.025-.055v-.061c.035-26.1.066-48.834.09-65.941l.19.19-27.284-.1-7.31-.047-1.9-.02c-.428-.006-.654-.019-.654-.019" transform="translate(22.419 35.625)" fill="#263238"/>
        <path id="Trazado_826276" data-name="Trazado 826276" d="M149.762,208.865v64.988l-15.7,38.375a2.873,2.873,0,0,0,2.564,4h59a2.876,2.876,0,0,0,2.538-4.068l-16.736-38.312V208.865Z" transform="translate(23.075 36.011)" fill="#e0e0e0"/>
        <path id="Trazado_826277" data-name="Trazado 826277" d="M186.385,274.278l11.784,26.977a2.876,2.876,0,0,1-2.538,4.068h-59a2.873,2.873,0,0,1-2.564-4l11.519-28.16s7.516-1.491,12.1-.851,9.393,3.732,15.1,3.732a54.529,54.529,0,0,0,13.6-1.761" transform="translate(23.075 46.922)" fill="#4793ff"/>
        <path id="Trazado_826278" data-name="Trazado 826278" d="M184.22,209.44H144.9a1.954,1.954,0,0,1,0-3.908h39.32a1.954,1.954,0,0,1,0,3.908" transform="translate(24.646 35.436)" fill="#fff"/>
        <path id="Trazado_826279" data-name="Trazado 826279" d="M184.264,209.485a3.058,3.058,0,0,0,.861-.271,1.887,1.887,0,0,0,.912-2.151,1.826,1.826,0,0,0-1.183-1.239,2.92,2.92,0,0,0-1.035-.088l-1.182.013-5.55.045-32.141.09a1.649,1.649,0,0,0-.294,3.271,9.237,9.237,0,0,0,1.077.029l2.239,0,8.533.018,14.45.066c4.065.04,7.377.073,9.74.1l2.648.056a5.2,5.2,0,0,1,.924.062,5.3,5.3,0,0,1-.924.061l-2.648.057-9.74.1-14.45.066-8.533.018-2.239,0a9.039,9.039,0,0,1-1.184-.035,2.257,2.257,0,0,1,.4-4.479l32.141.089,5.55.046,1.182.012a3.19,3.19,0,0,1,1.13.129A2.079,2.079,0,0,1,186.267,207a2.049,2.049,0,0,1-.234,1.551,1.977,1.977,0,0,1-.851.77,1.482,1.482,0,0,1-.917.161" transform="translate(24.601 35.391)" fill="#263238"/>
        <g id="Grupo_1075884" data-name="Grupo 1075884" transform="translate(188.959 244.876)" opacity="0.4">
          <g id="Grupo_1075883" data-name="Grupo 1075883">
            <g id="Grupo_1075882" data-name="Grupo 1075882" clip-path="url(#clip-path-25)">
              <path id="Trazado_826280" data-name="Trazado 826280" d="M161.571,211.406c.233,11.358-.354,57.093-.4,60.591a2.391,2.391,0,0,0,.033.429l6.523,39.551a2.5,2.5,0,0,0,2.46,2.088h14.325a2.494,2.494,0,0,0,2.306-3.44l-15.576-37.963a2.493,2.493,0,0,1-.186-.946V211.359a2.493,2.493,0,0,0-2.493-2.494h-4.5a2.489,2.489,0,0,0-2.493,2.541" transform="translate(-161.171 -208.865)" fill="#fff"/>
            </g>
          </g>
        </g>
        <path id="Trazado_826281" data-name="Trazado 826281" d="M110.253,261.509l10.361-12.246s11.988-25.091,15.934-27.558,9.868-6.908,18.749-7.4,24.421,3.453,22.942,6.413a5.866,5.866,0,0,1-4.441,3.208l10.853,2.289a4.421,4.421,0,0,1,3.393,5.368,6.06,6.06,0,0,1-4.871,4.9s1.233,3.474-.987,5.694-14.8,1.233-14.8,1.233-10.114,8.14-9.375,7.894,21.708-5.921,23.435-3.454.246,4.194-1.727,5.181-21.955,7.4-23.682,8.634-15.788,16.2-20.229,17.105-4.934,1.89-4.934,1.89l-5.921,14.307s-9.373-8.634-14.307-18.5-.394-14.961-.394-14.961" transform="translate(18.68 36.942)" fill="#aaccc4"/>
        <path id="Trazado_826282" data-name="Trazado 826282" d="M141.612,222.757a3.541,3.541,0,0,1,1.008-.306c.659-.157,1.613-.38,2.809-.566a60.336,60.336,0,0,1,9.418-.834,53.825,53.825,0,0,1,9.437.667,11.03,11.03,0,0,1,3.78,1.039,5.9,5.9,0,0,1-1.032-.185c-.661-.12-1.619-.277-2.81-.427a71.034,71.034,0,0,0-9.368-.483,82.993,82.993,0,0,0-9.363.65,33.739,33.739,0,0,1-3.88.446" transform="translate(24.416 38.111)" fill="#263238"/>
        <path id="Trazado_826283" data-name="Trazado 826283" d="M151.012,231.908c0-.034.325-.147.918-.465a13.464,13.464,0,0,1,2.665-.974,34.925,34.925,0,0,1,9.282-.81,24.972,24.972,0,0,1,9.189,1.556,6.119,6.119,0,0,1,2.332,1.658c.434.543.46.966.419.964a4.937,4.937,0,0,0-.6-.809,6.644,6.644,0,0,0-2.32-1.414,27.711,27.711,0,0,0-9.036-1.344,41.152,41.152,0,0,0-9.168.62c-2.287.482-3.619,1.229-3.683,1.019" transform="translate(26.036 39.592)" fill="#263238"/>
        <path id="Trazado_826284" data-name="Trazado 826284" d="M184.473,185.357l-22.964-61.243c-8.37-22.084-2.495-45.363,19.813-53.118l2.1-.6a42.221,42.221,0,0,1,51.083,25.865c7.149,19.183,14.8,40.468,17.658,51.036,5.912,21.878-14.933,31.451-14.933,31.451-.048.016-.181-.334,1.909,5.98l-11.083,29.911Z" transform="translate(27.219 11.86)" fill="#ffc09d"/>
        <path id="Trazado_826285" data-name="Trazado 826285" d="M230.086,162.631s-13.513,4.7-30.766-.344c0,0,11.477,14.455,32.675,6.324Z" transform="translate(34.365 27.98)" fill="#ff9b6c"/>
        <path id="Trazado_826286" data-name="Trazado 826286" d="M223.336,110.356a3.235,3.235,0,0,1-2.112,3.992,3.094,3.094,0,0,1-4-1.9,3.239,3.239,0,0,1,2.107-3.994,3.1,3.1,0,0,1,4.01,1.9" transform="translate(37.426 18.668)" fill="#263238"/>
        <path id="Trazado_826287" data-name="Trazado 826287" d="M223.431,101.835c-.271.515-3.124-.562-6.473.4-3.358.91-5.327,3.33-5.807,3.022-.23-.13-.046-.975.8-2.059a8.882,8.882,0,0,1,4.508-2.922,8.53,8.53,0,0,1,5.295.191c1.254.5,1.811,1.133,1.673,1.369" transform="translate(36.389 17.232)" fill="#263238"/>
        <path id="Trazado_826288" data-name="Trazado 826288" d="M199.628,119.174a3.236,3.236,0,0,1-2.111,3.992,3.094,3.094,0,0,1-4-1.9,3.237,3.237,0,0,1,2.108-3.993,3.1,3.1,0,0,1,4.008,1.9" transform="translate(33.339 20.188)" fill="#263238"/>
        <path id="Trazado_826289" data-name="Trazado 826289" d="M195.606,110.439c-.272.516-3.128-.559-6.474.4-3.357.91-5.327,3.331-5.808,3.022-.229-.13-.047-.973.807-2.058a8.886,8.886,0,0,1,4.506-2.923,8.546,8.546,0,0,1,5.3.19c1.251.5,1.81,1.135,1.673,1.369" transform="translate(31.592 18.716)" fill="#263238"/>
        <path id="Trazado_826290" data-name="Trazado 826290" d="M211.656,133.256c-.069-.186,1.911-1.136,5.163-2.525.831-.331,1.592-.729,1.57-1.354A4.517,4.517,0,0,0,217.1,127q-2.086-2.765-4.377-5.8c-6.143-8.28-10.849-15.184-10.514-15.429s5.588,6.268,11.731,14.546c1.494,2.049,2.92,4,4.282,5.867.6.882,1.469,1.827,1.4,3.232a2.232,2.232,0,0,1-1.053,1.65,6.05,6.05,0,0,1-1.4.614c-3.344,1.145-5.446,1.757-5.513,1.571" transform="translate(34.86 18.236)" fill="#263238"/>
        <path id="Trazado_826291" data-name="Trazado 826291" d="M194.464,101.228c-.212.985-3.719,1.007-7.7,2.044-4,.958-7.108,2.586-7.759,1.817-.294-.369.155-1.33,1.352-2.418a13.85,13.85,0,0,1,11.778-2.942c1.568.4,2.416,1.033,2.33,1.5" transform="translate(30.848 17.14)" fill="#263238"/>
        <path id="Trazado_826292" data-name="Trazado 826292" d="M221.366,93.4c-.467.965-3.419.993-6.7,1.934-3.3.845-5.878,2.318-6.753,1.715-.394-.3-.186-1.19.807-2.27a10.978,10.978,0,0,1,5.055-2.868,10.8,10.8,0,0,1,5.781-.073c1.387.433,2,1.1,1.806,1.56" transform="translate(35.815 15.773)" fill="#263238"/>
        <path id="Trazado_826293" data-name="Trazado 826293" d="M168.22,129.318c-.416-.055-16.236-.183-11.534,14.587s19.848,6.911,19.739,6.48-8.2-21.067-8.2-21.067" transform="translate(26.864 22.295)" fill="#ffc09d"/>
        <path id="Trazado_826294" data-name="Trazado 826294" d="M168.221,145.421c-.08-.027-.2.261-.571.6a2.7,2.7,0,0,1-1.911.652c-1.742-.075-3.846-2.135-4.765-4.774a8.928,8.928,0,0,1-.453-3.913,3.123,3.123,0,0,1,1.306-2.591,1.374,1.374,0,0,1,1.743.223c.329.349.329.674.416.674.053.025.238-.348-.075-.92a1.722,1.722,0,0,0-.876-.74,2.037,2.037,0,0,0-1.543.076,3.8,3.8,0,0,0-1.959,3.146,9.178,9.178,0,0,0,.42,4.4c1.042,2.946,3.452,5.247,5.783,5.183a2.891,2.891,0,0,0,2.229-1.14c.341-.511.314-.865.254-.876" transform="translate(27.488 23.192)" fill="#ff9b6c"/>
        <path id="Trazado_826295" data-name="Trazado 826295" d="M261.5,69.633a3.687,3.687,0,0,0-2.291-1.525c-2.011-.463-3.918.286-5.813.852a32.676,32.676,0,0,1-14.6.878,16.179,16.179,0,0,0,3.094-4.048c1.637-3.14,1.856-7.221-.247-10.069a2.156,2.156,0,0,0-1.606-1.046c-1.053.008-1.6,1.217-2.028,2.177-1.423,3.154-3.122,4.853-6.512,5.56a13.738,13.738,0,0,1-6.143.115c-.084-.046-.165-.1-.251-.148-1.019-.55-2.008-1.07-2.979-1.57l-.008,0,0,0c-7.3-3.756-13.293-6.066-18.843-6.49-8.134-.625-20.573,2.013-27.474,6.366s-11.726,12.593-10.336,20.63c-5.346-2.233-11.671-.2-16.157,3.491l-.148-.015c-5.078,3.849-6.418,10.923-6.262,17.293.009.349.032.7.046,1.046a23.776,23.776,0,0,1-5.324,9.956c-.451.5-.96,1.094-.827,1.752s.831,1.007,1.463,1.212a11.983,11.983,0,0,0,5.241.461,26.941,26.941,0,0,1-.626,4.62c-.3,1.3-.653,2.852.271,3.81a2.529,2.529,0,0,0,2.875.3,7.422,7.422,0,0,0,2.283-2.047q-.234,2.594-.465,5.19A14.149,14.149,0,0,0,153.928,126c2.943,5.074,7.052,14.893,9.627,18.148,3.945-1.172,4.762-1.9,6.95-1.868,2.827.04,3.283,4.878,6.207,2.538,1.488-1.191,2.06-8.439,2.081-10.345a88.489,88.489,0,0,0-7.639-36.878,28.442,28.442,0,0,1,6.466-8.693l-.183.31C182.816,85.2,189,80.977,195.629,82c5.143.795,9.216,4.583,13.707,7.214,8.508,4.987,16.819,6.458,26.343,3.891,2.91,6.258,6.534,16.849,8.778,22.836l1.347-13.831.019.049c.195-.848.314-1.677.421-2.5l.046-.256-.008-.027a39.792,39.792,0,0,1,.617-4.006c.026.012.05.021.075.034,4.219,1.868,7.673-4.119,3.95-6.845A9.006,9.006,0,0,0,248.5,87.29a6.31,6.31,0,0,0,6.2-.325,4.953,4.953,0,0,0,1.863-5.725,4.216,4.216,0,0,0-3.412-2.466,14.2,14.2,0,0,0,7.175-4.139c1.249-1.349,2.291-3.251,1.169-5" transform="translate(23.581 9.349)" fill="#263238"/>
        <path id="Trazado_826296" data-name="Trazado 826296" d="M170.751,77.613a19.7,19.7,0,0,0-1.543,2.671,16.278,16.278,0,0,0-1.049,8.232,28.614,28.614,0,0,0,1.185,5.671c.621,2,1.456,4.078,2.319,6.277a59.772,59.772,0,0,1,2.4,7.043,26.106,26.106,0,0,1,.7,3.9,8.177,8.177,0,0,1-.379,4.113,3.423,3.423,0,0,1-2.728,1.991,5.088,5.088,0,0,1-3.238-.684c-1.905-1.184-2.9-3.134-3.822-4.841l.471-.088a19.034,19.034,0,0,1-1.2,5.363,6.761,6.761,0,0,1-3.484,3.623,4.366,4.366,0,0,1-2.353.314,3.775,3.775,0,0,1-1.987-1.014,3.893,3.893,0,0,1-1.066-1.772,2.825,2.825,0,0,1,.163-1.9l.294.131a14.634,14.634,0,0,1-3.544,4.955,12.856,12.856,0,0,1-1.264,1.015,2.561,2.561,0,0,1-.475.291,2.81,2.81,0,0,1,.422-.362c.28-.233.7-.578,1.2-1.069a15.073,15.073,0,0,0,3.367-4.955l.294.131a2.907,2.907,0,0,0,.872,3.259,3.393,3.393,0,0,0,1.787.889,3.976,3.976,0,0,0,2.127-.31,6.337,6.337,0,0,0,3.217-3.413,18.742,18.742,0,0,0,1.133-5.236l.091-.791.38.7c.919,1.7,1.913,3.565,3.646,4.628a4.579,4.579,0,0,0,2.9.611,2.889,2.889,0,0,0,2.321-1.691,7.735,7.735,0,0,0,.335-3.841,25.814,25.814,0,0,0-.674-3.819,60.791,60.791,0,0,0-2.357-6.992c-.85-2.2-1.673-4.3-2.284-6.325a28.438,28.438,0,0,1-1.137-5.766,16.037,16.037,0,0,1,1.235-8.351,9.2,9.2,0,0,1,1.73-2.585" transform="translate(25.888 13.381)" fill="#455a64"/>
        <path id="Trazado_826297" data-name="Trazado 826297" d="M241.31,79.945a.818.818,0,0,1-.127.2l-.415.564a7.551,7.551,0,0,1-.73.878,12.532,12.532,0,0,1-1.1,1.109,20.14,20.14,0,0,1-8.732,4.592,25.711,25.711,0,0,1-14.579-.694,44.524,44.524,0,0,1-15.3-9.382c-2.4-2.121-4.533-4.4-6.73-6.434a30.085,30.085,0,0,0-6.915-5.057,15.494,15.494,0,0,0-7.43-1.813,11.075,11.075,0,0,0-3.406.66A12.233,12.233,0,0,0,173.02,66.1a13.134,13.134,0,0,0-5.092,8.08,15.781,15.781,0,0,0-.091,3.6.783.783,0,0,1-.054-.232c-.029-.189-.064-.416-.107-.7a11.393,11.393,0,0,1,.048-2.7,12.925,12.925,0,0,1,1.385-4.048,13.278,13.278,0,0,1,3.687-4.3,12.548,12.548,0,0,1,2.906-1.611,11.462,11.462,0,0,1,3.534-.716,15.858,15.858,0,0,1,7.664,1.815,30.3,30.3,0,0,1,7.05,5.113c2.221,2.045,4.35,4.318,6.73,6.42a44.551,44.551,0,0,0,15.1,9.314,25.555,25.555,0,0,0,14.334.793,20.418,20.418,0,0,0,8.684-4.382,31.8,31.8,0,0,0,2.508-2.6" transform="translate(28.899 10.941)" fill="#455a64"/>
        <path id="Trazado_826298" data-name="Trazado 826298" d="M232.926,68.882a3.511,3.511,0,0,1-.6.786,17.435,17.435,0,0,1-1.929,1.893,23.394,23.394,0,0,1-3.259,2.344,24.721,24.721,0,0,1-9.239,3.25,23.6,23.6,0,0,1-4.008.212,17.617,17.617,0,0,1-2.688-.27,3.552,3.552,0,0,1-.964-.233c.015-.1,1.4.138,3.657.127a26.475,26.475,0,0,0,3.932-.32,26.459,26.459,0,0,0,9.064-3.188,26.883,26.883,0,0,0,3.268-2.211c1.763-1.4,2.7-2.457,2.772-2.389" transform="translate(36.247 11.876)" fill="#455a64"/>
        <path id="Trazado_826299" data-name="Trazado 826299" d="M204.343,134.265c.489-.2,1.647,3.123,5.315,4.5s7.08-.218,7.268.238c.118.193-.566.92-2.049,1.48a8.768,8.768,0,0,1-6-.011,7.634,7.634,0,0,1-4.242-3.846c-.61-1.347-.524-2.3-.29-2.36" transform="translate(35.201 23.147)" fill="#263238"/>
        <g id="Grupo_1075887" data-name="Grupo 1075887" transform="translate(205.661 110.109)" opacity="0.5">
          <g id="Grupo_1075886" data-name="Grupo 1075886">
            <g id="Grupo_1075885" data-name="Grupo 1075885" clip-path="url(#clip-path-26)">
              <path id="Trazado_826300" data-name="Trazado 826300" d="M175.8,119.42a5.784,5.784,0,0,1,3.484-7.507c14.228-5.036,51.559-17.986,54.13-18,1.113,0,11.267,23.9,9.121,26.565-4.556,5.665-13.652,7.065-17.431,4.494s-8.144-9.274-10.872-6.542.141,11.941-4.481,14.584-17.607,8.369-23.658,4.366c-3.962-2.619-7.986-11.877-10.294-17.963" transform="translate(-175.417 -93.917)" fill="#fff"/>
            </g>
          </g>
        </g>
        <path id="Trazado_826301" data-name="Trazado 826301" d="M177.744,113.609c-.215.306-17.767,20.047-17.767,20.047l8.187-1.637,14.019-7.492Z" transform="translate(27.582 19.588)" fill="#455a64"/>
      </g>
    </g>
  </g>
</svg>
