<svg xmlns="http://www.w3.org/2000/svg" xmlns:xlink="http://www.w3.org/1999/xlink" width="525" height="416.429" viewBox="0 0 525 416.429">
  <defs>
    <clipPath id="clip-path">
      <rect id="Rectángulo_379700" data-name="Rectángulo 379700" width="525" height="416.429" fill="none"/>
    </clipPath>
    <clipPath id="clip-path-3">
      <rect id="Rectángulo_379675" data-name="Rectángulo 379675" width="55.229" height="26.128" fill="#7816c2"/>
    </clipPath>
    <clipPath id="clip-path-6">
      <rect id="Rectángulo_379685" data-name="Rectángulo 379685" width="3.133" height="3.134" fill="none"/>
    </clipPath>
    <clipPath id="clip-path-7">
      <rect id="Rectángulo_379686" data-name="Rectángulo 379686" width="1.567" height="1.567" fill="none"/>
    </clipPath>
    <clipPath id="clip-path-10">
      <rect id="Rectángulo_379690" data-name="Rectángulo 379690" width="38.277" height="54.151" fill="none"/>
    </clipPath>
    <clipPath id="clip-path-12">
      <rect id="Rectángulo_379693" data-name="Rectángulo 379693" width="1.566" height="1.567" fill="none"/>
    </clipPath>
    <clipPath id="clip-path-13">
      <rect id="Rectángulo_379694" data-name="Rectángulo 379694" width="3.134" height="3.134" fill="none"/>
    </clipPath>
    <clipPath id="clip-path-15">
      <rect id="Rectángulo_379696" data-name="Rectángulo 379696" width="2.89" height="19.347" fill="none"/>
    </clipPath>
    <clipPath id="clip-path-17">
      <rect id="Rectángulo_379698" data-name="Rectángulo 379698" width="12.484" height="61.284" fill="none"/>
    </clipPath>
  </defs>
  <g id="Grupo_1076034" data-name="Grupo 1076034" clip-path="url(#clip-path)">
    <g id="Grupo_1075986" data-name="Grupo 1075986">
      <g id="Grupo_1075985" data-name="Grupo 1075985" clip-path="url(#clip-path)">
        <path id="Trazado_826432" data-name="Trazado 826432" d="M405.27,384.193c-20.288-12.054-26.512-36.75-27.409-59.3-.15-3.763-.854-7.69.688-11.116s5.543-5.983,9.021-4.649c2.884,1.106,4.339,4.259,6.1,6.826a22.019,22.019,0,0,0,9.425,7.758c2.481,1.064,5.5,1.6,7.758.129,3.106-2.025,3.158-6.528,2.859-10.26q-.836-10.434-1.671-20.866c-.3-3.732-.591-7.543.309-11.172s3.222-7.11,6.7-8.369,8.022.467,9.042,4.066c.425,1.5.231,3.1.449,4.641s1.066,3.2,2.57,3.527c1.523.328,2.939-.841,3.974-2.016,3.576-4.054,5.832-9.1,7.919-14.113s4.094-10.13,7.288-14.5,7.789-7.986,13.113-8.684,11.266,2.183,13.005,7.332-.933,10.73-3.961,15.238a83.586,83.586,0,0,1-16.13,17.822c-1.115.922-2.325,1.919-2.672,3.335-.628,2.549,1.913,4.847,4.431,5.484,2.852.721,5.85.209,8.786.337s6.186,1.179,7.49,3.849c1.811,3.7-1.085,7.939-4.032,10.791a71.6,71.6,0,0,1-20.229,13.757c-2.672,1.207-5.5,2.3-7.57,4.4s-3.162,5.548-1.629,8.078,5.029,3.123,7.867,2.376,5.3-2.5,7.961-3.734c4.988-2.316,11.64-2.451,15.255,1.741,2.375,2.754,2.864,6.8,2.029,10.354a27.313,27.313,0,0,1-4.979,9.646c-7.511,10.255-17.464,18.8-29.064,23.805s-22.543,6.937-34.691,3.485" transform="translate(41.442 27.001)" fill="#f5f5f5"/>
        <path id="Trazado_826433" data-name="Trazado 826433" d="M405.872,384.984c.158-8.969-1.4-4,1.092-15.586a335.308,335.308,0,0,1,10.622-37q1.661-4.839,3.282-9.555c1.085-3.134,2.16-6.242,3.4-9.217a167.675,167.675,0,0,1,8.1-16.685c2.834-5.183,5.712-10,8.436-14.479s5.361-8.6,7.917-12.262a132.946,132.946,0,0,1,13.329-16.349c1.719-1.8,3.1-3.154,4.045-4.058l1.083-1.021a2.684,2.684,0,0,1,.386-.331,2.679,2.679,0,0,1-.336.382l-1.035,1.071c-.914.936-2.262,2.318-3.95,4.144a140.555,140.555,0,0,0-13.124,16.446c-2.522,3.666-5.12,7.8-7.829,12.282s-5.557,9.31-8.369,14.488a169.38,169.38,0,0,0-8.032,16.636c-1.229,2.96-2.292,6.042-3.376,9.183s-2.171,6.328-3.278,9.552a343.78,343.78,0,0,0-10.653,36.912c-2.52,11.543-1.007,6.523-1.225,15.459" transform="translate(44.512 27.269)" fill="#e0e0e0"/>
        <path id="Trazado_826434" data-name="Trazado 826434" d="M423.43,311.166a7.658,7.658,0,0,1-.483-1.566c-.272-1.018-.617-2.5-1.017-4.341-.8-3.679-1.737-8.8-2.747-14.442s-2.014-10.739-2.87-14.395c-.423-1.829-.78-3.307-1.04-4.325a7.54,7.54,0,0,1-.328-1.6,7.465,7.465,0,0,1,.585,1.529c.34,1,.77,2.46,1.254,4.28.981,3.639,2.066,8.735,3.076,14.389.981,5.575,1.869,10.618,2.547,14.47.317,1.739.586,3.2.8,4.38a7.547,7.547,0,0,1,.221,1.625" transform="translate(45.544 29.689)" fill="#e0e0e0"/>
        <path id="Trazado_826435" data-name="Trazado 826435" d="M469.93,295.867a10.353,10.353,0,0,1-1.9.371c-1.224.2-3,.482-5.174.9-4.361.8-10.347,2.114-16.888,3.854s-12.39,3.589-16.584,5.041c-2.1.71-3.789,1.332-4.957,1.753a10.281,10.281,0,0,1-1.839.6,10.437,10.437,0,0,1,1.741-.85c1.14-.5,2.8-1.193,4.892-1.966,4.164-1.574,10.012-3.492,16.571-5.25a169.723,169.723,0,0,1,16.983-3.664c2.2-.356,3.984-.564,5.223-.681a10.172,10.172,0,0,1,1.931-.1" transform="translate(46.384 32.472)" fill="#e0e0e0"/>
        <path id="Trazado_826436" data-name="Trazado 826436" d="M410.135,362.487a2.478,2.478,0,0,1-.373-.562l-.949-1.676c-.818-1.459-1.945-3.6-3.3-6.266-2.722-5.328-6.25-12.807-10.032-21.111s-7.238-15.809-9.845-21.185c-1.275-2.613-2.325-4.763-3.105-6.361-.335-.694-.61-1.265-.836-1.736a2.478,2.478,0,0,1-.251-.628,2.494,2.494,0,0,1,.373.563l.949,1.675c.818,1.459,1.947,3.6,3.3,6.266,2.722,5.329,6.25,12.807,10.033,21.115s7.237,15.8,9.844,21.183l3.106,6.359c.334.694.609,1.267.836,1.736a2.512,2.512,0,0,1,.25.628" transform="translate(41.867 33.253)" fill="#e0e0e0"/>
        <path id="Trazado_826437" data-name="Trazado 826437" d="M469.567,333.831a2.576,2.576,0,0,1-.614.307l-1.807.758-6.667,2.718c-5.629,2.3-13.367,5.558-21.913,9.171s-16.326,6.81-22,8.989c-2.839,1.092-5.145,1.951-6.751,2.513-.742.254-1.355.464-1.852.636a2.571,2.571,0,0,1-.663.176,2.619,2.619,0,0,1,.614-.31l1.807-.756,6.666-2.718c5.63-2.3,13.369-5.558,21.917-9.173s16.321-6.807,22-8.988c2.839-1.091,5.145-1.95,6.752-2.511l1.852-.636a2.558,2.558,0,0,1,.663-.176" transform="translate(44.705 36.641)" fill="#e0e0e0"/>
        <path id="Trazado_826438" data-name="Trazado 826438" d="M81.986,295.37h0a1.776,1.776,0,0,0,1.777,1.777h3.159v32.186L67.51,372.454a7.368,7.368,0,0,0,6.718,10.392h38.586a7.367,7.367,0,0,0,6.71-10.408L99.362,327.951V297.344h2.863a1.876,1.876,0,0,0,0-3.751H83.762a1.777,1.777,0,0,0-1.777,1.777" transform="translate(7.338 32.225)" fill="#ebebeb"/>
        <path id="Trazado_826439" data-name="Trazado 826439" d="M139.117,381.152H106.465a6.8,6.8,0,0,1-6.8-6.8V318.273h51.45l-5.2,5.168v50.914a6.8,6.8,0,0,1-6.8,6.8" transform="translate(10.94 34.934)" fill="#f5f5f5"/>
        <path id="Trazado_826440" data-name="Trazado 826440" d="M112.059,332.593a31.422,31.422,0,0,1-6,.289,31.419,31.419,0,0,1-6-.289,31.421,31.421,0,0,1,6-.289,31.423,31.423,0,0,1,6,.289" transform="translate(10.982 36.474)" fill="#e0e0e0"/>
        <path id="Trazado_826441" data-name="Trazado 826441" d="M105.383,326.581a6.393,6.393,0,0,1-2.665.289,6.385,6.385,0,0,1-2.663-.289,6.385,6.385,0,0,1,2.663-.289,6.393,6.393,0,0,1,2.665.289" transform="translate(10.982 35.814)" fill="#e0e0e0"/>
        <path id="Trazado_826442" data-name="Trazado 826442" d="M112.059,344.535a31.429,31.429,0,0,1-6,.289,31.427,31.427,0,0,1-6-.289,31.418,31.418,0,0,1,6-.289,31.42,31.42,0,0,1,6,.289" transform="translate(10.982 37.785)" fill="#e0e0e0"/>
        <path id="Trazado_826443" data-name="Trazado 826443" d="M105.383,338.522a6.394,6.394,0,0,1-2.665.289,6.386,6.386,0,0,1-2.663-.289,6.385,6.385,0,0,1,2.663-.289,6.392,6.392,0,0,1,2.665.289" transform="translate(10.982 37.125)" fill="#e0e0e0"/>
        <path id="Trazado_826444" data-name="Trazado 826444" d="M112.059,356.475a31.422,31.422,0,0,1-6,.289,31.419,31.419,0,0,1-6-.289,31.424,31.424,0,0,1,6-.289,31.426,31.426,0,0,1,6,.289" transform="translate(10.982 39.095)" fill="#e0e0e0"/>
        <path id="Trazado_826445" data-name="Trazado 826445" d="M105.383,350.462a6.393,6.393,0,0,1-2.665.289,6.385,6.385,0,0,1-2.663-.289,6.387,6.387,0,0,1,2.663-.289,6.394,6.394,0,0,1,2.665.289" transform="translate(10.982 38.435)" fill="#e0e0e0"/>
        <path id="Trazado_826446" data-name="Trazado 826446" d="M112.059,368.418a31.426,31.426,0,0,1-6,.289,31.424,31.424,0,0,1-6-.289,31.415,31.415,0,0,1,6-.289,31.417,31.417,0,0,1,6,.289" transform="translate(10.982 40.406)" fill="#e0e0e0"/>
        <path id="Trazado_826447" data-name="Trazado 826447" d="M105.383,362.4a6.394,6.394,0,0,1-2.665.289,6.386,6.386,0,0,1-2.663-.289,6.385,6.385,0,0,1,2.663-.289,6.393,6.393,0,0,1,2.665.289" transform="translate(10.982 39.746)" fill="#e0e0e0"/>
        <path id="Trazado_826448" data-name="Trazado 826448" d="M88.881,31.9H46.206A12.556,12.556,0,0,1,33.65,19.345V18.329A12.556,12.556,0,0,1,46.206,5.774H88.881Z" transform="translate(3.693 0.634)" fill="#d8e4cb"/>
        <rect id="Rectángulo_379663" data-name="Rectángulo 379663" width="55.231" height="26.127" transform="translate(92.573 6.408)" fill="#c1e29a"/>
        <rect id="Rectángulo_379666" data-name="Rectángulo 379666" width="55.231" height="26.127" transform="translate(147.805 6.408)" fill="#74875c"/>
        <path id="Trazado_826563" data-name="Trazado 826563" d="M0,0H55.231V26.127H0Z" transform="translate(203.034 6.408)" fill="#ffae7e"/>
        <rect id="Rectángulo_379672" data-name="Rectángulo 379672" width="55.231" height="26.127" transform="translate(258.037 6.408)" fill="#cc8b64"/>
        <rect id="Rectángulo_379673" data-name="Rectángulo 379673" width="55.231" height="26.127" transform="translate(313.079 6.408)" fill="#e8505b"/>
        <g id="Grupo_1075978" data-name="Grupo 1075978" transform="translate(313.08 6.407)" opacity="0.2">
          <g id="Grupo_1075977" data-name="Grupo 1075977">
            <g id="Grupo_1075976" data-name="Grupo 1075976" clip-path="url(#clip-path-3)">
              <rect id="Rectángulo_379674" data-name="Rectángulo 379674" width="55.231" height="26.127" transform="translate(-0.001 0.001)" fill="#7816c2"/>
            </g>
          </g>
        </g>
        <rect id="Rectángulo_379676" data-name="Rectángulo 379676" width="55.231" height="26.127" transform="translate(368.122 6.408)" fill="#60119b"/>
        <path id="Trazado_826450" data-name="Trazado 826450" d="M423.986,31.9H381.311V5.774h42.675a12.556,12.556,0,0,1,12.556,12.555v1.017A12.556,12.556,0,0,1,423.986,31.9" transform="translate(41.853 0.634)" fill="#480d74"/>
        <path id="Trazado_826452" data-name="Trazado 826452" d="M163.321,19.053A19.054,19.054,0,1,1,144.268,0a19.054,19.054,0,0,1,19.053,19.053" transform="translate(13.743)" fill="#263238"/>
        <path id="Trazado_826453" data-name="Trazado 826453" d="M167.694,19.053A19.054,19.054,0,1,1,148.641,0a19.054,19.054,0,0,1,19.053,19.053" transform="translate(14.223)" fill="#455a64"/>
        <path id="Trazado_826454" data-name="Trazado 826454" d="M165.037,18.831a26.211,26.211,0,0,0-.613-4.033,15.893,15.893,0,0,0-1.854-4.38,16.429,16.429,0,0,0-19.728-6.977A15.364,15.364,0,0,0,138.7,5.675a18.28,18.28,0,0,0-1.857,1.58,18.508,18.508,0,0,0-1.6,1.9,16.3,16.3,0,0,0,0,19.353,18.512,18.512,0,0,0,1.6,1.9,18.29,18.29,0,0,0,1.857,1.581,15.418,15.418,0,0,0,4.144,2.234,16.477,16.477,0,0,0,19.729-6.978,15.9,15.9,0,0,0,1.853-4.379,26.211,26.211,0,0,0,.613-4.033,1.063,1.063,0,0,1,.011.27c0,.206-.009.467-.016.792a7.591,7.591,0,0,1-.107,1.284,11.667,11.667,0,0,1-.315,1.733,15.72,15.72,0,0,1-1.8,4.473,16.76,16.76,0,0,1-11.28,7.967,16.83,16.83,0,0,1-8.84-.7,15.767,15.767,0,0,1-4.269-2.283,18.78,18.78,0,0,1-1.914-1.621,19.07,19.07,0,0,1-1.655-1.951,16.747,16.747,0,0,1,0-19.925,19.175,19.175,0,0,1,1.655-1.95A18.924,18.924,0,0,1,138.419,5.3a15.787,15.787,0,0,1,4.268-2.282,16.837,16.837,0,0,1,8.839-.7,16.754,16.754,0,0,1,11.28,7.966,15.681,15.681,0,0,1,1.8,4.475,11.529,11.529,0,0,1,.316,1.732,7.611,7.611,0,0,1,.107,1.285c.007.325.012.586.016.792a1.063,1.063,0,0,1-.011.27" transform="translate(14.441 0.222)" fill="#263238"/>
        <path id="Trazado_826455" data-name="Trazado 826455" d="M142.535,21.12A26.187,26.187,0,0,1,138.544,18l-.043-.037-.222-.192.227-.185a25.745,25.745,0,0,1,4.028-2.973,25.835,25.835,0,0,1-3.718,3.354l.006-.376.043.037a26.157,26.157,0,0,1,3.669,3.49" transform="translate(15.178 1.604)" fill="#263238"/>
        <path id="Trazado_826456" data-name="Trazado 826456" d="M152.15,14.615a26.188,26.188,0,0,1,3.991,3.117l.043.037.222.192-.228.185a25.743,25.743,0,0,1-4.028,2.973,25.836,25.836,0,0,1,3.718-3.354l-.006.376-.043-.037a26.235,26.235,0,0,1-3.669-3.49" transform="translate(16.7 1.604)" fill="#263238"/>
        <path id="Trazado_826457" data-name="Trazado 826457" d="M157,17.49a85.73,85.73,0,0,1-9.187.246,85.727,85.727,0,0,1-9.188-.246,86.076,86.076,0,0,1,9.188-.246A86.08,86.08,0,0,1,157,17.49" transform="translate(15.215 1.893)" fill="#263238"/>
      </g>
    </g>
    <g id="Grupo_1075988" data-name="Grupo 1075988">
      <g id="Grupo_1075987" data-name="Grupo 1075987" clip-path="url(#clip-path)">
        <path id="Trazado_826458" data-name="Trazado 826458" d="M525,374.962c0,.16-117.535.289-262.487.289-145,0-262.513-.129-262.513-.289s117.509-.289,262.513-.289c144.953,0,262.487.129,262.487.289" transform="translate(0 41.124)" fill="#263238"/>
      </g>
    </g>
    <g id="Grupo_1076002" data-name="Grupo 1076002">
      <g id="Grupo_1076001" data-name="Grupo 1076001" clip-path="url(#clip-path)">
        <path id="Trazado_826459" data-name="Trazado 826459" d="M361.7,150.123l-47.919-2.2c-.27-5.083,2.325-36.541,2.325-36.541s-18.112-2.815-18.337-20.925,2.916-59.694,2.916-59.694c20.963-9.009,46.5-10.539,64.583,3.378l2.685,2.065Z" transform="translate(32.682 2.617)" fill="#b78876"/>
        <path id="Trazado_826460" data-name="Trazado 826460" d="M314.265,103.154a42.111,42.111,0,0,0,23.609-6.71s-5.581,13.033-23.651,11.4Z" transform="translate(34.489 10.586)" fill="#aa6550"/>
        <path id="Trazado_826461" data-name="Trazado 826461" d="M357.857,56.064c.309-.134,12.443-3.68,12.048,8.7s-12.743,9.43-12.755,9.075.707-17.775.707-17.775" transform="translate(39.201 6.091)" fill="#b78876"/>
        <path id="Trazado_826462" data-name="Trazado 826462" d="M360.694,68.869c.056-.038.211.158.57.336a2.15,2.15,0,0,0,1.61.084c1.324-.437,2.491-2.479,2.622-4.709a7.128,7.128,0,0,0-.5-3.107,2.49,2.49,0,0,0-1.569-1.707,1.1,1.1,0,0,0-1.292.55c-.176.341-.107.59-.172.609-.036.03-.26-.215-.144-.724a1.383,1.383,0,0,1,.513-.76,1.63,1.63,0,0,1,1.2-.277,3.034,3.034,0,0,1,2.192,1.992,7.333,7.333,0,0,1,.637,3.475c-.159,2.491-1.51,4.785-3.317,5.246a2.315,2.315,0,0,1-1.962-.391c-.374-.317-.429-.6-.386-.618" transform="translate(39.589 6.492)" fill="#aa6550"/>
        <path id="Trazado_826463" data-name="Trazado 826463" d="M303.99,55.887a2.585,2.585,0,0,0,2.493,2.609,2.473,2.473,0,0,0,2.666-2.332,2.586,2.586,0,0,0-2.489-2.611,2.475,2.475,0,0,0-2.669,2.334" transform="translate(33.366 5.878)" fill="#263238"/>
        <path id="Trazado_826464" data-name="Trazado 826464" d="M303.485,53.3c.321.337,2.279-1.113,5.063-1.105,2.78-.032,4.823,1.4,5.125,1.058.148-.15-.179-.759-1.069-1.406a7.1,7.1,0,0,0-4.1-1.265,6.813,6.813,0,0,0-4.03,1.3c-.856.656-1.145,1.266-.988,1.417" transform="translate(33.306 5.552)" fill="#263238"/>
        <path id="Trazado_826465" data-name="Trazado 826465" d="M328.548,56.476a2.587,2.587,0,0,0,2.494,2.609,2.473,2.473,0,0,0,2.666-2.332,2.588,2.588,0,0,0-2.491-2.611,2.476,2.476,0,0,0-2.668,2.334" transform="translate(36.061 5.942)" fill="#263238"/>
        <path id="Trazado_826466" data-name="Trazado 826466" d="M328.134,53.773c.321.337,2.283-1.112,5.064-1.105,2.78-.032,4.822,1.4,5.125,1.059.148-.151-.176-.759-1.069-1.407a7.1,7.1,0,0,0-4.1-1.265,6.82,6.82,0,0,0-4.031,1.3c-.853.657-1.144,1.266-.988,1.417" transform="translate(36.012 5.604)" fill="#263238"/>
        <path id="Trazado_826467" data-name="Trazado 826467" d="M319.731,74.394c.013-.159-1.717-.457-4.52-.816-.71-.073-1.383-.214-1.5-.7a3.618,3.618,0,0,1,.474-2.106q1-2.58,2.1-5.411c2.919-7.7,5.031-14.04,4.72-14.154s-2.93,6.036-5.848,13.741c-.7,1.9-1.374,3.71-2.013,5.443a4.114,4.114,0,0,0-.368,2.789,1.783,1.783,0,0,0,1.169,1.039,4.839,4.839,0,0,0,1.206.169c2.821.151,4.571.164,4.582.006" transform="translate(34.316 5.62)" fill="#263238"/>
        <path id="Trazado_826468" data-name="Trazado 826468" d="M327.287,73.836c-.453-.027-.458,2.994-3.044,5.138s-5.8,1.812-5.824,2.234c-.042.19.717.587,2.075.624a7.516,7.516,0,0,0,4.863-1.693,6.554,6.554,0,0,0,2.358-4.308c.115-1.263-.222-2.012-.428-1.994" transform="translate(34.95 8.104)" fill="#263238"/>
        <path id="Trazado_826469" data-name="Trazado 826469" d="M327.484,43.883c.274.757,3.053.4,6.318.791,3.274.328,5.906,1.284,6.339.606.193-.325-.265-1.037-1.331-1.77a11.069,11.069,0,0,0-9.643-1.064c-1.2.484-1.8,1.078-1.684,1.437" transform="translate(35.943 4.588)" fill="#263238"/>
        <path id="Trazado_826470" data-name="Trazado 826470" d="M304.41,46.064c.489.631,2.407-.024,4.712-.054,2.3-.112,4.257.424,4.707-.236.2-.322-.11-.954-.963-1.553a6.82,6.82,0,0,0-7.589.234c-.815.65-1.083,1.3-.867,1.609" transform="translate(33.404 4.74)" fill="#263238"/>
        <path id="Trazado_826471" data-name="Trazado 826471" d="M366.429,23.695c-2.39-1.712-5.247-3.477-7.951-2.878.018-4.588-6.762-9.962-11.928-11.591-6.045-1.905-14.007,1.041-20.023,3.036-3.8,1.26-7.579,3.015-11.574,2.851a27.057,27.057,0,0,1-7.765-1.979,19.8,19.8,0,0,0-7.835-1.547c-2.676.182-5.43,1.606-6.445,4.087a4.915,4.915,0,0,0,1.727,5.744c-3.208-.7-7,1.585-7.475,4.922-.433,3.01,1.955,5.947,4.832,6.671a3.366,3.366,0,0,0-1.789,3.1c.215,2.175,2.187,3.758,4.188,4.635,5.107,2.244,11.062,1.527,16.349-.252s10.19-4.551,15.431-6.461,14.02-5.339,19.28-3.485a9.417,9.417,0,0,1,1.979,1.008h0l.1.078a14.1,14.1,0,0,1,5.238,9.113c.018.127.034.246.05.361.7,5.11.574,10.309,1.324,15.411s2.518,10.294,6.291,13.81c1.553,1.447,4.3,2.441,5.573.747a4.367,4.367,0,0,0,.638-2.342c.954-12.337,4.325-23.284,4.3-36.186a10.877,10.877,0,0,0-4.513-8.853" transform="translate(31.513 0.945)" fill="#263238"/>
        <path id="Trazado_826472" data-name="Trazado 826472" d="M354.885,20.637c-.033.057-.823-.494-2.411-1.129a18.3,18.3,0,0,0-7.081-1.192A29.483,29.483,0,0,0,334.969,20.6c-3.778,1.468-7.7,3.632-11.97,5.621a60.209,60.209,0,0,1-23.344,5.583,54.252,54.252,0,0,1-7.3-.25c-.86-.071-1.521-.186-1.971-.249a3.083,3.083,0,0,1-.68-.133,3.111,3.111,0,0,1,.694.018c.454.024,1.116.1,1.975.14a64.112,64.112,0,0,0,7.269.065,62.171,62.171,0,0,0,23.119-5.7c4.244-1.974,8.188-4.134,12.019-5.592a29.191,29.191,0,0,1,10.613-2.2A17.7,17.7,0,0,1,352.56,19.3a11.487,11.487,0,0,1,1.76.933,3.141,3.141,0,0,1,.565.4" transform="translate(31.798 1.966)" fill="#455a64"/>
        <path id="Trazado_826473" data-name="Trazado 826473" d="M294.191,19.565a9.044,9.044,0,0,0,2.02,1.63,13.038,13.038,0,0,0,6.9,1.2,50.569,50.569,0,0,0,10.424-1.749,50.952,50.952,0,0,0,5.906-2.036c2-.823,4.008-1.846,6.073-2.888,4.1-2.089,8.227-4,12.321-4.321a17.937,17.937,0,0,1,15.71,7.181,14.172,14.172,0,0,1,1.038,1.662,3.018,3.018,0,0,1,.292.618c-.057.032-.479-.811-1.509-2.145a18.288,18.288,0,0,0-5.386-4.572,17.447,17.447,0,0,0-10.1-2.214c-3.966.336-8.009,2.217-12.108,4.307-2.062,1.041-4.085,2.069-6.117,2.894a49.918,49.918,0,0,1-5.982,2.028,48.792,48.792,0,0,1-10.549,1.644,12.855,12.855,0,0,1-7.026-1.416,6.793,6.793,0,0,1-1.513-1.263,2.866,2.866,0,0,1-.394-.562" transform="translate(32.29 1.244)" fill="#455a64"/>
        <path id="Trazado_826474" data-name="Trazado 826474" d="M363.428,46.125a5.091,5.091,0,0,1-1.374-.065,17.544,17.544,0,0,1-3.656-.852,20.283,20.283,0,0,1-4.976-2.521,20.574,20.574,0,0,1-2.545-2.112,12.278,12.278,0,0,1-2.235-2.784,17.578,17.578,0,0,1-2.061-6.523,18.329,18.329,0,0,1,.129-5.579A13.215,13.215,0,0,1,347.9,22.12a5.157,5.157,0,0,1,.759-1.15,17.645,17.645,0,0,0-1.545,4.786,19.038,19.038,0,0,0,0,5.441,17.669,17.669,0,0,0,2.033,6.3,11.969,11.969,0,0,0,2.132,2.671,20.538,20.538,0,0,0,7.262,4.652,36.188,36.188,0,0,0,4.891,1.3" transform="translate(38.024 2.302)" fill="#455a64"/>
        <path id="Trazado_826475" data-name="Trazado 826475" d="M363.966,37.508a2.871,2.871,0,0,1-.927-.21,19.627,19.627,0,0,1-2.416-.918,25.274,25.274,0,0,1-3.356-1.862c-.606-.392-1.23-.817-1.871-1.264a14.01,14.01,0,0,1-1.922-1.53,18.79,18.79,0,0,1-4.437-7.274,13.055,13.055,0,0,1-.583-2.527,2.682,2.682,0,0,1-.016-.952c.1-.011.209,1.336.983,3.343a20.351,20.351,0,0,0,4.455,7,31.612,31.612,0,0,0,3.683,2.763,30.24,30.24,0,0,0,3.24,1.94c1.921.97,3.2,1.4,3.165,1.495" transform="translate(38.242 2.302)" fill="#455a64"/>
        <path id="Trazado_826476" data-name="Trazado 826476" d="M265.679,296.849l3.333,87h73.13l-.294-24.922,8.59,24.922h75.731L401.833,297.77Z" transform="translate(29.161 32.582)" fill="#455a64"/>
        <path id="Trazado_826477" data-name="Trazado 826477" d="M317.811,118.61h0c-1.851.223-3.232.63-6.312.994l-.6.072A45.911,45.911,0,0,0,270.922,168.3l4.755,34.166s-9.84,112.478-9.478,127.485h137.78l.111-62.972-.032-17.14-.758-46.495,18.517-50.354c-3.843-12.924-17.674-26.922-36.892-30.6-6.1-1.169-12.044-3.378-19.218-3.682l-.007.006c-13.471,10.641-34.172,10.22-47.891-.1" transform="translate(29.217 13.019)" fill="#bf9cd9"/>
        <path id="Trazado_826478" data-name="Trazado 826478" d="M360.31,155.253c0,.16-11.442.5-25.557.756s-25.564.338-25.568.179,11.437-.5,25.558-.757,25.562-.337,25.567-.178" transform="translate(33.936 17.032)" fill="#fafafa"/>
        <path id="Trazado_826479" data-name="Trazado 826479" d="M360.1,162.5c0,.16-11.5.031-25.687-.286s-25.679-.7-25.675-.863,11.5-.032,25.689.286,25.677.7,25.673.863" transform="translate(33.888 17.703)" fill="#fafafa"/>
        <path id="Trazado_826480" data-name="Trazado 826480" d="M162.89,101.645s55.155,66.133,59.524,69.877,69.35-35.447,69.35-35.447v.012c7.13-6.347,13.08-10.033,21.019-12.386l.317-.1v.01a93.692,93.692,0,0,1,15.112-2.825c.982-.117,1.883-.218,2.743-.312l-8.769,153.794.448.239s-.191.3-.506.771l-3.185,55.853-.055,0,6.935,74.141h-57.25l10.23-98.9c.3-3.235.586-7.074.849-11.373l7.293-73.428,2.024-16.83s-55.924,22.324-74.755,21.444c-24.41-1.14-82.032-99.79-82.032-99.79Z" transform="translate(14.508 11.157)" fill="#e8505b"/>
        <path id="Trazado_826481" data-name="Trazado 826481" d="M441.806,266.467l-26.218-114.16c-3.842-12.925-17.673-26.923-36.891-30.6-6.1-1.169-13.689-2.788-20.861-3.092l-.321,121-2.222-.316-14.083,25.224,16.222,6.21-.121,45.682.435,12.855,10.27,74.143h50.43L397.818,291l.007-3.957,7.054,3.179a27.05,27.05,0,0,0,25.647-1.879,27.632,27.632,0,0,0,10.559-13.062,14.6,14.6,0,0,0,.722-8.815" transform="translate(37.452 13.019)" fill="#e8505b"/>
        <path id="Trazado_826482" data-name="Trazado 826482" d="M162.89,101.645s55.155,66.133,59.524,69.877,69.35-35.447,69.35-35.447v.012c7.13-6.347,13.08-10.033,21.019-12.386l.317-.1v.01a93.692,93.692,0,0,1,15.112-2.825c.982-.117,1.883-.218,2.743-.312l-8.769,153.794.448.239s-.191.3-.506.771l-3.185,55.853-.055,0,6.935,74.141h-57.25l10.23-98.9c.3-3.235.586-7.074.849-11.373l7.293-73.428,2.024-16.83s-55.924,22.324-74.755,21.444c-24.41-1.14-82.032-99.79-82.032-99.79Z" transform="translate(14.508 11.157)" fill="#f6f6f6"/>
        <path id="Trazado_826483" data-name="Trazado 826483" d="M441.806,266.467l-26.218-114.16c-3.842-12.925-17.673-26.923-36.891-30.6-6.1-1.169-13.689-2.788-20.861-3.092l-.321,121-2.222-.316-14.083,25.224,16.222,6.21-.121,45.682.435,12.855,10.27,74.143h50.43L397.818,291l.007-3.957,7.054,3.179a27.05,27.05,0,0,0,25.647-1.879,27.632,27.632,0,0,0,10.559-13.062,14.6,14.6,0,0,0,.722-8.815" transform="translate(37.452 13.019)" fill="#f6f6f6"/>
        <path id="Trazado_826486" data-name="Trazado 826486" d="M365.642,239.954a.933.933,0,0,1,.061-.235c.059-.178.132-.4.224-.677q.325-.941.9-2.61c.782-2.279,1.9-5.611,3.135-9.85a137.938,137.938,0,0,0,3.58-15.325,87.093,87.093,0,0,0,1.276-19.843l.314.256-10.873,1.594-1.354.2,1.163-.725a35.762,35.762,0,0,0,8.149-6.286,14.249,14.249,0,0,0,2.038-2.945,11.421,11.421,0,0,0,1.053-3.347,18.891,18.891,0,0,0-.663-6.894L371.4,160.3c-2.1-8.258-4.16-15.647-6.087-21.792s-3.713-11.044-5.005-14.406c-.638-1.686-1.163-2.982-1.514-3.863l-.388-1.008a1.6,1.6,0,0,1-.114-.351,1.868,1.868,0,0,1,.169.328c.112.25.257.575.442.984.386.868.944,2.152,1.615,3.825,1.358,3.34,3.2,8.229,5.186,14.366s4.087,13.528,6.214,21.783c1.045,4.134,2.142,8.472,3.279,12.969a19.392,19.392,0,0,1,.681,7.1,11.968,11.968,0,0,1-1.106,3.527,14.878,14.878,0,0,1-2.12,3.07,36.157,36.157,0,0,1-8.283,6.39l-.191-.526,10.877-1.575.3-.043.017.3a86.4,86.4,0,0,1-1.363,19.957,132.615,132.615,0,0,1-3.713,15.341c-1.283,4.235-2.455,7.553-3.292,9.815-.414,1.133-.76,2-.988,2.581-.11.27-.2.487-.269.66a.9.9,0,0,1-.105.219" transform="translate(39.326 13.048)" fill="#263238"/>
        <path id="Trazado_826487" data-name="Trazado 826487" d="M394.785,237.5c-.159.017-1.711-13.6-3.468-30.4s-3.051-30.452-2.892-30.468,1.711,13.6,3.467,30.409,3.052,30.447,2.893,30.464" transform="translate(42.632 19.386)" fill="#263238"/>
        <path id="Trazado_826488" data-name="Trazado 826488" d="M400.557,276.618a1.275,1.275,0,0,1-.274-.084l-.788-.3-3.033-1.185-11.293-4.512-38.687-15.652-.235-.1.072-.244c1.782-5.962,3.688-12.339,5.653-18.915.854-2.853,1.7-5.668,2.495-8.327l.068-.229.236.026,49.053,5.112,14.592,1.58,3.937.454,1.019.132a1.724,1.724,0,0,1,.345.062,1.615,1.615,0,0,1-.351-.008l-1.024-.078-3.947-.353L403.783,232.6l-49.071-4.925.305-.2-2.491,8.328c-1.972,6.574-3.884,12.95-5.671,18.91l-.162-.34L385.3,270.211l11.231,4.664,3,1.272.769.34a1.239,1.239,0,0,1,.255.131" transform="translate(38.004 24.924)" fill="#263238"/>
        <path id="Trazado_826489" data-name="Trazado 826489" d="M303.48,264.967a1.925,1.925,0,0,1-.175-.333c-.117-.25-.272-.582-.467-1-.393-.89-1.029-2.18-1.725-3.9a144.779,144.779,0,0,1-5.309-14.875,152.38,152.38,0,0,1-6.048-52.515l.019-.312.31.046,9.409,1.368,1.467.214-.193.532a43.1,43.1,0,0,1-6.9-4.984,14.1,14.1,0,0,1-4.4-6.994,17.045,17.045,0,0,1,.448-7.968q.935-3.782,1.94-7.357c2.681-9.534,5.661-17.932,8.259-24.93s4.854-12.6,6.4-16.47c.773-1.908,1.377-3.4,1.8-4.447l.482-1.15a2.272,2.272,0,0,1,.183-.385,2.379,2.379,0,0,1-.129.406c-.105.29-.247.677-.428,1.171-.4,1.055-.971,2.561-1.7,4.486-1.483,3.9-3.666,9.52-6.227,16.529s-5.483,15.411-8.129,24.932c-.659,2.379-1.3,4.832-1.915,7.341a16.531,16.531,0,0,0-.434,7.712,13.544,13.544,0,0,0,4.239,6.7,42.727,42.727,0,0,0,6.816,4.912l1.2.734-1.388-.2-1.467-.213L290,192.644l.329-.266a154.714,154.714,0,0,0,5.845,52.371,157.494,157.494,0,0,0,5.133,14.9c.666,1.73,1.27,3.033,1.629,3.936.175.429.314.767.418,1.023a1.942,1.942,0,0,1,.125.355" transform="translate(31.738 13.117)" fill="#263238"/>
        <rect id="Rectángulo_379684" data-name="Rectángulo 379684" width="21.382" height="7.186" transform="translate(401.741 211.809)" fill="#455a64"/>
        <path id="Trazado_826490" data-name="Trazado 826490" d="M413.907,227.006c-.031.1-1.224-.284-3.2-.542a22.229,22.229,0,0,0-14.87,3.371c-1.676,1.088-2.586,1.948-2.658,1.871-.028-.029.18-.264.58-.667A14.211,14.211,0,0,1,395.6,229.5a20.31,20.31,0,0,1,15.162-3.438,14.245,14.245,0,0,1,2.332.594,2.613,2.613,0,0,1,.811.352" transform="translate(43.155 24.78)" fill="#263238"/>
        <path id="Trazado_826491" data-name="Trazado 826491" d="M282.052,143.229a5.489,5.489,0,0,1-.078.919q-.125.975-.335,2.616c-.3,2.329-.725,5.6-1.244,9.62-1.024,8.177-2.428,19.38-3.978,31.756-1.556,12.406-3,23.632-4.147,31.745-.569,4.056-1.063,7.336-1.426,9.6q-.278,1.633-.443,2.6a5.363,5.363,0,0,1-.193.9,5.594,5.594,0,0,1,.079-.919q.125-.975.334-2.616c.3-2.329.725-5.6,1.244-9.619,1.024-8.178,2.428-19.382,3.98-31.761,1.555-12.4,3-23.627,4.146-31.739.57-4.057,1.063-7.336,1.427-9.6q.276-1.633.442-2.6a5.475,5.475,0,0,1,.193-.9" transform="translate(29.657 15.721)" fill="#263238"/>
        <path id="Trazado_826492" data-name="Trazado 826492" d="M158.759,111.662c.036.049-.235.224-.56.669a3.842,3.842,0,0,0-.694,2.166,3.77,3.77,0,0,0,1.282,2.973,3.535,3.535,0,0,0,5.42-3.378,3.764,3.764,0,0,0-2.105-2.46,3.831,3.831,0,0,0-2.249-.333c-.543.1-.82.263-.848.209a1.627,1.627,0,0,1,.8-.427,3.785,3.785,0,0,1,2.466.176,4.114,4.114,0,0,1,2.459,2.716,3.318,3.318,0,0,1-.242,2.238,4.4,4.4,0,0,1-3.917,2.44,3.307,3.307,0,0,1-2.114-.768,4.111,4.111,0,0,1-1.356-3.4,3.775,3.775,0,0,1,.928-2.291,1.6,1.6,0,0,1,.735-.527" transform="translate(17.242 12.178)" fill="#263238"/>
        <path id="Trazado_826493" data-name="Trazado 826493" d="M361.247,228,367,200.028H292.846l3.759,62.66s57.648-.1,55.814.072Z" transform="translate(32.143 21.955)" fill="#263238"/>
        <path id="Trazado_826494" data-name="Trazado 826494" d="M366,213.741h0a6.583,6.583,0,0,0-6.155,4.2c-1.028,2.673-2.529,5.8-4.2,6.706-3.077,1.679-8.392,3.019-11.19,1.649s-13.987-11.441-15.946-10.321-3.637,3.637-1.679,5.875,12.309,8.951,10.351,11.19-23.778-7.613-27.136-6.744-5.315,2.933-3.356,4.279,16.784,6.94,17.624,8.9c0,0-22.381-5.875-23.22-4.477s-2.238,3.637,0,4.477,21.54,5.874,23.22,6.714a40.673,40.673,0,0,0,8.627,2.517,92.16,92.16,0,0,1,9.015,2.86,19.751,19.751,0,0,0,13.919-.373l2.266-.923a8.885,8.885,0,0,0,5.517-8.759l-.458-7.631,2.441-6.3Z" transform="translate(32.916 23.46)" fill="#b78876"/>
        <path id="Trazado_826495" data-name="Trazado 826495" d="M163.013,107.8s-10.939-18.5-13.524-20.44S123.943,77.443,122,78.089s-29.519,5.83-26.288,9.06,22.457-.653,22.457-.653l2.61,1.251s-16.616,2.932-20.091,5.017c-3.2,1.92-2.025,5.854,1.021,5.488s17.477-3.408,18.348-2.829-15.684,4.167-17.454,5.254c-2.383,1.462-2.552,5.742.481,5.482,1.788-.153,17.386-4.457,17.386-4.457s-12.342,4.992-13.469,6.1c-1.844,1.81-.313,4.49,2.367,3.852,1.84-.438,10.545-4.766,13.011-5.347,0,0,2.322.58,4.5,5.223s13.733,13.824,13.733,13.824Z" transform="translate(10.477 8.567)" fill="#b78876"/>
        <path id="Trazado_826496" data-name="Trazado 826496" d="M95.74,86.475c-.044.15,1.836.9,5.063,1.31a29.9,29.9,0,0,0,5.7.143c2.11-.271,4.415-.636,6.838-1.011l5.146-.84-.312-.023c6.862,2.317,11.888,3.818,11.989,3.543s-4.763-2.242-11.586-4.72l-.138-.05-.175.027-5.106.776-6.758,1.1a36.664,36.664,0,0,1-5.522.134c-3.154-.165-5.095-.588-5.142-.393" transform="translate(10.508 9.311)" fill="#aa6550"/>
        <path id="Trazado_826497" data-name="Trazado 826497" d="M140.158,67.989h0a2.389,2.389,0,0,1-2.389,2.471h-2.257v60.4a6.924,6.924,0,0,1-13.848,0V70.529l-2.151.024a2.437,2.437,0,1,1-.029-4.873h18.284a2.392,2.392,0,0,1,2.389,2.309" transform="translate(12.847 7.209)" fill="#f5f5f5"/>
        <path id="Trazado_826498" data-name="Trazado 826498" d="M140.177,68.008c-.019,0-.016-.193-.119-.547a2.381,2.381,0,0,0-.94-1.277,2.341,2.341,0,0,0-1.1-.394c-.432-.018-.932,0-1.459,0l-3.659.029-10.01.052-3.022.012a2.648,2.648,0,0,0-1.442.281,2.3,2.3,0,0,0-.984,1.1,2.249,2.249,0,0,0,.85,2.742,2.471,2.471,0,0,0,1.576.348l1.812-.026.222,0v.223c.019,15.524.042,36,.069,58.383a15.314,15.314,0,0,0,.194,3.511,6.5,6.5,0,0,0,1.6,2.965,6.653,6.653,0,0,0,2.817,1.79,6.638,6.638,0,0,0,8.161-3.789,7.592,7.592,0,0,0,.5-3.166q0-1.658,0-3.289c.014-8.7.027-16.815.039-24.13.06-14.579.108-25.942.134-32.343v-.1h.1c1-.007,1.9.05,2.636-.009a2.314,2.314,0,0,0,1.537-.943,2.721,2.721,0,0,0,.474-1.417,2.105,2.105,0,0,1-.387,1.478,2.415,2.415,0,0,1-1.6,1.037c-.78.08-1.649.036-2.66.06l.1-.1c.026,6.4.073,17.763.133,32.343.012,7.314.026,15.432.039,24.13q0,1.631,0,3.289a8.168,8.168,0,0,1-.543,3.38,7.209,7.209,0,0,1-8.855,4.122,7.218,7.218,0,0,1-3.063-1.943,7.081,7.081,0,0,1-1.745-3.224,7.564,7.564,0,0,1-.21-1.844v-1.8c.027-22.382.051-42.859.069-58.383l.222.219-1.811.017a2.9,2.9,0,0,1-1.809-.427,2.657,2.657,0,0,1-.988-3.247,2.685,2.685,0,0,1,1.164-1.28,3.034,3.034,0,0,1,1.627-.316l3.022.012,10.01.052,3.659.029c.534.01,1.012,0,1.475.027a2.466,2.466,0,0,1,1.157.446,2.4,2.4,0,0,1,.93,1.366,1.7,1.7,0,0,1,.055.564" transform="translate(12.827 7.19)" fill="#263238"/>
        <path id="Trazado_826499" data-name="Trazado 826499" d="M128.027,133.108h0a5.179,5.179,0,0,0,5.179-5.179V87.707H122.848v40.222a5.18,5.18,0,0,0,5.179,5.179" transform="translate(13.484 9.627)" fill="#4793ff"/>
        <path id="Trazado_826500" data-name="Trazado 826500" d="M123.115,70.176a24.046,24.046,0,0,1,5.244-.289,24.043,24.043,0,0,1,5.245.289,24.044,24.044,0,0,1-5.245.289,24.046,24.046,0,0,1-5.244-.289" transform="translate(13.513 7.671)" fill="#263238"/>
        <path id="Trazado_826501" data-name="Trazado 826501" d="M133.208,87.87a1.81,1.81,0,0,0-1.5-1.556,6.932,6.932,0,0,0-2.631.14l-5.082.738a1.7,1.7,0,0,0-.957.347.589.589,0,0,0,0,.894" transform="translate(13.482 9.464)" fill="#e8505b"/>
        <g id="Grupo_1075997" data-name="Grupo 1075997" transform="translate(141.754 101.685)" opacity="0.21">
          <g id="Grupo_1075996" data-name="Grupo 1075996">
            <g id="Grupo_1075995" data-name="Grupo 1075995" clip-path="url(#clip-path-6)">
              <path id="Trazado_826502" data-name="Trazado 826502" d="M127.734,93.195a1.567,1.567,0,1,0,1.567-1.567,1.567,1.567,0,0,0-1.567,1.567" transform="translate(-127.734 -91.628)" fill="#fff"/>
            </g>
          </g>
        </g>
        <g id="Grupo_1076000" data-name="Grupo 1076000" transform="translate(141.715 109.486)" opacity="0.21">
          <g id="Grupo_1075999" data-name="Grupo 1075999">
            <g id="Grupo_1075998" data-name="Grupo 1075998" clip-path="url(#clip-path-7)">
              <path id="Trazado_826503" data-name="Trazado 826503" d="M127.7,99.44a.783.783,0,1,0,.784-.783.783.783,0,0,0-.784.783" transform="translate(-127.699 -98.657)" fill="#fff"/>
            </g>
          </g>
        </g>
        <path id="Trazado_826504" data-name="Trazado 826504" d="M157.091,104.952c-1.518,1.458-4.06,1.147-5.882.091s-3.232-2.7-4.974-3.881c-5.207-3.541-12.608-2.557-17.64-6.343-.7-.528-1.4-1.4-1.034-2.2.34-.738,1.331-.839,2.144-.832l20.857.155" transform="translate(13.99 10.075)" fill="#b78876"/>
        <path id="Trazado_826505" data-name="Trazado 826505" d="M150.619,92a8.356,8.356,0,0,0-2.254-.249c-1.452-.082-3.552-.162-6.149-.235l-9.121-.2-2.636-.039c-.838.051-1.952-.254-3.051.686a1.756,1.756,0,0,0-.309,1.949,3.614,3.614,0,0,0,1.069,1.331,13.606,13.606,0,0,0,2.645,1.569c3.788,1.677,7.637,1.931,10.852,2.91a15.705,15.705,0,0,1,4.311,1.877c1.225.8,2.255,1.79,3.3,2.6a7.343,7.343,0,0,0,5.9,1.976c1.537-.324,2.028-1.169,1.976-1.171a6.1,6.1,0,0,1-2.043.712,7.112,7.112,0,0,1-5.3-2.17c-.975-.819-1.974-1.851-3.28-2.766a16.182,16.182,0,0,0-4.548-2.109c-3.334-1.064-7.177-1.377-10.673-2.942a12.757,12.757,0,0,1-2.4-1.408c-.684-.532-1.028-1.262-.663-1.551.348-.377,1.307-.372,2.2-.357h2.637l9.123-.06c2.6-.033,4.7-.082,6.151-.142A8.38,8.38,0,0,0,150.619,92" transform="translate(13.932 10.018)" fill="#aa6550"/>
      </g>
    </g>
    <g id="Grupo_1076007" data-name="Grupo 1076007">
      <g id="Grupo_1076006" data-name="Grupo 1076006" clip-path="url(#clip-path)">
        <path id="Trazado_826506" data-name="Trazado 826506" d="M41.369,335.029c-1.351,3.7-5.865,3.8-8.338,2.419s-4.04-3.911-5.5-6.338c-3.33-5.544-6.753-11.379-7.1-17.837a10.582,10.582,0,0,1,1.017-5.635,5.532,5.532,0,0,1,4.617-3.039c2.288-.006,4.175,1.735,5.666,3.469A45.452,45.452,0,0,1,41.1,325.755c.82,3.032,1.312,6.31.267,9.273" transform="translate(2.24 33.433)" fill="#9ab47b"/>
        <path id="Trazado_826508" data-name="Trazado 826508" d="M37.478,348.236a19.564,19.564,0,0,0-12.109,1.7c-2.033.919-4.082,2.147-5.1,4.132s-.545,4.871,1.484,5.8a5.746,5.746,0,0,0,3.9-.048c3.091-.863,6.386-2.327,9.36-1.122,1.7.687,3.11,2.205,4.94,2.278a4.136,4.136,0,0,0,3.873-3.128,7.063,7.063,0,0,0-.848-5.17,7.959,7.959,0,0,0-5.5-4.446" transform="translate(2.167 38.184)" fill="#74875c"/>
        <path id="Trazado_826509" data-name="Trazado 826509" d="M46.218,337.8c-3.118-2.18-4.661-6.159-4.547-9.961a20.806,20.806,0,0,1,3.788-10.612,34.425,34.425,0,0,1,9.323-9.48,12.2,12.2,0,0,1,4.75-2.173,5.4,5.4,0,0,1,4.851,1.413c1.757,1.91,1.358,4.9.737,7.421A87.17,87.17,0,0,1,60.8,327.418c-1.429,3.389-3.185,6.825-6.166,8.979s-6.47,2.925-8.844,1.093" transform="translate(4.573 33.531)" fill="#74875c"/>
        <path id="Trazado_826510" data-name="Trazado 826510" d="M53.091,376.791a7.07,7.07,0,0,1-.575-1.363l-1.407-3.763a57.837,57.837,0,0,0-2.38-5.436,45.308,45.308,0,0,0-3.844-6.139,25.548,25.548,0,0,0-5.029-5.14,13.213,13.213,0,0,0-5.276-2.438,12.536,12.536,0,0,0-3.939-.162,7.01,7.01,0,0,1-1.464.172,6.9,6.9,0,0,1,1.428-.405,11.422,11.422,0,0,1,4.055-.024,13.165,13.165,0,0,1,5.521,2.406,24.932,24.932,0,0,1,5.187,5.229,42.343,42.343,0,0,1,3.859,6.252,49.743,49.743,0,0,1,2.284,5.538c.56,1.608.961,2.924,1.229,3.836a6.929,6.929,0,0,1,.352,1.437" transform="translate(3.202 38.627)" fill="#263238"/>
        <path id="Trazado_826511" data-name="Trazado 826511" d="M52.171,377.843a2.924,2.924,0,0,1-.213-.647c-.131-.494-.3-1.116-.5-1.88-.431-1.631-1.061-3.99-1.925-6.879-1.7-5.789-4.346-13.7-7.673-22.278s-6.751-16.193-9.452-21.585c-.66-1.356-1.284-2.569-1.849-3.624s-1.029-1.98-1.447-2.712l-.926-1.709a2.809,2.809,0,0,1-.287-.617,2.834,2.834,0,0,1,.392.555l1.027,1.655c.449.716.956,1.618,1.538,2.667s1.247,2.246,1.933,3.592a220.454,220.454,0,0,1,9.635,21.559c3.335,8.6,5.924,16.549,7.52,22.379.815,2.912,1.383,5.292,1.743,6.944.156.775.285,1.406.386,1.908a2.871,2.871,0,0,1,.094.674" transform="translate(3.062 34.675)" fill="#263238"/>
        <path id="Trazado_826512" data-name="Trazado 826512" d="M46.163,362.565a12.959,12.959,0,0,1-.509-1.966c-.264-1.28-.577-3.148-.818-5.476a72.59,72.59,0,0,1-.337-8.208,70.98,70.98,0,0,1,.795-10.029,50.515,50.515,0,0,1,5.561-17.349,24.987,24.987,0,0,1,1.682-2.677c.266-.383.493-.752.74-1.064l.709-.83a12.761,12.761,0,0,1,1.369-1.5,60.487,60.487,0,0,0-4.126,6.275,53.232,53.232,0,0,0-5.338,17.232,75.615,75.615,0,0,0-.835,9.95,81.359,81.359,0,0,0,.205,8.16c.184,2.317.432,4.185.623,5.472a13.01,13.01,0,0,1,.279,2.008" transform="translate(4.883 34.406)" fill="#263238"/>
      </g>
    </g>
    <g id="Grupo_1076033" data-name="Grupo 1076033">
      <g id="Grupo_1076032" data-name="Grupo 1076032" clip-path="url(#clip-path)">
        <path id="Trazado_826513" data-name="Trazado 826513" d="M172.031,188.976v4.152H177.8v37.6L155.122,281.1a8.607,8.607,0,0,0,7.848,12.14h45.073a8.607,8.607,0,0,0,7.839-12.16L192.33,229.112V193.358h5.535v-4.382Z" transform="translate(16.942 20.742)" fill="#f5f5f5"/>
        <path id="Trazado_826514" data-name="Trazado 826514" d="M172.057,188.992s.137-.01.421-.016l1.274-.017,5.007-.038,19.132-.089h.159v.16c0,1.349.008,2.84.012,4.382v.17h-.171l-5.535.013.183-.184c.017,10.027.037,22.161.06,35.753l-.022-.1c4.977,10.956,10.446,23,16.272,35.82q2.182,4.811,4.43,9.763,1.122,2.475,2.261,4.983a23.063,23.063,0,0,1,1.07,2.587,8.84,8.84,0,0,1,.338,2.838,9,9,0,0,1-2.038,5.312A8.868,8.868,0,0,1,210,293.317l-.722.141-.735.051c-.5.046-.964.026-1.444.03h-8.647l-30.648-.006h-3.7a11.839,11.839,0,0,1-3.708-.4,8.865,8.865,0,0,1-5.605-11.85c.931-2.16,1.9-4.24,2.832-6.326l20.01-44.3-.018.085c.048-16.68.087-29.663.109-37.6l.1.1-5.766-.034h-.065v-.064c.017-1.4.029-2.44.038-3.148.011-.685.027-1,.027-1s.016.351.027,1.04.021,1.727.038,3.112l-.064-.064,5.766-.034h.1v.1c.023,7.936.061,20.919.109,37.6v.043l-.018.042c-5.693,12.688-12.436,27.713-19.9,44.354-.924,2.079-1.9,4.186-2.815,6.312a8.314,8.314,0,0,0,5.264,11.107,11.255,11.255,0,0,0,3.546.368h3.7l30.648-.006H207.1c.475,0,.961.014,1.414-.03l.688-.047.676-.133a8.277,8.277,0,0,0,4.591-2.791,8.431,8.431,0,0,0,1.909-4.969,8.268,8.268,0,0,0-.315-2.653,22.532,22.532,0,0,0-1.04-2.514l-2.256-4.984-4.421-9.767-16.21-35.847-.021-.048v-.052c.022-13.592.042-25.726.059-35.753v-.184h.184l5.535.013-.171.17c0-1.543.009-3.033.012-4.382l.159.159-19.039-.089-5.043-.038-1.3-.017c-.294-.006-.451-.016-.451-.016" transform="translate(16.916 20.726)" fill="#263238"/>
        <path id="Trazado_826515" data-name="Trazado 826515" d="M162.927,263.912a7.5,7.5,0,0,1,7.548-4.562c2.457.212,4.906.759,7.36.539,4.271-.382,7.953-3,11.751-4.988s8.514-3.377,12.266-1.3l9.534,18.916a6.591,6.591,0,0,1-5.886,9.557H165.2a6.59,6.59,0,0,1-6.073-9.152Z" transform="translate(17.408 27.722)" fill="#4793ff"/>
        <path id="Trazado_826516" data-name="Trazado 826516" d="M200.32,256.97a19.9,19.9,0,0,0-4.71,2.584c-1.343.988-2.827,2.318-4.587,3.692a15.235,15.235,0,0,1-6.5,3.262,18.2,18.2,0,0,1-7.267-.434c-2.174-.508-4.088-1.059-5.712-1.49l-3.826-1.075a7.13,7.13,0,0,1-1.384-.471,7.066,7.066,0,0,1,1.44.253l3.872.9c1.632.381,3.571.893,5.724,1.367a18.3,18.3,0,0,0,7.048.385,15.114,15.114,0,0,0,6.285-3.116c1.755-1.333,3.279-2.642,4.671-3.6a14.79,14.79,0,0,1,3.527-1.891,6.721,6.721,0,0,1,1.045-.3c.243-.056.372-.074.376-.056" transform="translate(18.257 28.204)" fill="#fafafa"/>
        <path id="Trazado_826517" data-name="Trazado 826517" d="M204.685,305.552c-1.379-5.912-5.23-11.48-10.865-13.741-1.023-.409-2.309-.666-3.133.067a3.369,3.369,0,0,0-.779,2.459q-.253,6.2-.5,12.407c-.454-1.607-.972-3.315-2.259-4.378s-3.6-1.025-4.316.482c-.566,1.189.085,2.557.517,3.8a11.453,11.453,0,0,1-3.145,12.02c-2.283,2.024-5.3,3.041-7.672,4.964a12.5,12.5,0,0,0,5.326,21.932h8.16c4.725-.1,10.248-4.679,13.2-8.368s4.984-8.776,6.178-13.348c1.534-5.874.669-12.385-.71-18.3" transform="translate(18.432 31.986)" fill="#e8505b"/>
        <g id="Grupo_1076010" data-name="Grupo 1076010" transform="translate(186.364 323.399)" opacity="0.8">
          <g id="Grupo_1076009" data-name="Grupo 1076009">
            <g id="Grupo_1076008" data-name="Grupo 1076008" clip-path="url(#clip-path-10)">
              <path id="Trazado_826518" data-name="Trazado 826518" d="M204.685,305.552c-1.379-5.912-5.23-11.48-10.865-13.741-1.023-.409-2.309-.666-3.133.067a3.369,3.369,0,0,0-.779,2.459q-.253,6.2-.5,12.407c-.454-1.607-.972-3.315-2.259-4.378s-3.6-1.025-4.316.482c-.566,1.189.085,2.557.517,3.8a11.453,11.453,0,0,1-3.145,12.02c-2.283,2.024-5.3,3.041-7.672,4.964a12.5,12.5,0,0,0,5.326,21.932h8.16c4.725-.1,10.248-4.679,13.2-8.368s4.984-8.776,6.178-13.348c1.534-5.874.669-12.385-.71-18.3" transform="translate(-167.932 -291.414)" fill="#fff"/>
            </g>
          </g>
        </g>
        <path id="Trazado_826519" data-name="Trazado 826519" d="M178.4,343.321c-3.553-1.814-5.466-6.72-5.47-9.635s2.213-6.091,4.588-7.783c2.747-1.957,6.618-2.139,8.928-4.594,1.761-1.871,2.174-4.608,3.349-6.893.69-1.343,1.915-2.663,3.421-2.555,1.807.131,2.793,2.157,3.192,3.924,1.126,4.992,1.657,11.8-.082,15.465-2.2,4.623-5.016,10.324-10.866,12.071" transform="translate(18.981 34.229)" fill="#ffae7e"/>
        <path id="Trazado_826520" data-name="Trazado 826520" d="M196.061,302.749a2.432,2.432,0,0,0-1.409-.69h-.391a2.1,2.1,0,0,0-2.153,2.352,2.05,2.05,0,0,0,1.557,1.755,2.5,2.5,0,0,0,2.3-.7,2.106,2.106,0,0,0,.637-1.267,1.887,1.887,0,0,0-.538-1.453" transform="translate(21.085 33.154)" fill="#f9947a"/>
        <rect id="Rectángulo_379691" data-name="Rectángulo 379691" width="11.448" height="28.521" transform="translate(196.796 376.726)" fill="#455a64"/>
        <path id="Trazado_826521" data-name="Trazado 826521" d="M162.793,376h0a7.633,7.633,0,0,1,7.633-7.633h28.521A7.633,7.633,0,0,1,206.579,376Z" transform="translate(17.868 40.432)" fill="#263238"/>
        <path id="Trazado_826522" data-name="Trazado 826522" d="M198.251,368.762H169.128a4.017,4.017,0,0,1,4.016-4.017h21.09a4.018,4.018,0,0,1,4.017,4.017" transform="translate(18.564 40.035)" fill="#455a64"/>
        <path id="Trazado_826523" data-name="Trazado 826523" d="M237.883,200.8c0,.16-17.048.289-38.073.289s-38.076-.129-38.076-.289,17.045-.289,38.076-.289,38.073.129,38.073.289" transform="translate(17.752 22.008)" fill="#263238"/>
        <path id="Trazado_826524" data-name="Trazado 826524" d="M232.133,393.7c-.16,0-.289-46.07-.289-102.887,0-56.836.129-102.9.289-102.9s.289,46.059.289,102.9c0,56.818-.129,102.887-.289,102.887" transform="translate(25.447 20.626)" fill="#263238"/>
        <path id="Trazado_826525" data-name="Trazado 826525" d="M244.628,376.06a11.4,11.4,0,1,0-22.794,0Z" transform="translate(24.349 40.026)" fill="#455a64"/>
        <path id="Trazado_826526" data-name="Trazado 826526" d="M232.668,195.634a5.7,5.7,0,1,0,0,11.4Z" transform="translate(24.912 21.473)" fill="#455a64"/>
        <path id="Trazado_826527" data-name="Trazado 826527" d="M319.1,293.222h0a2.389,2.389,0,0,0,2.389,2.471h2.257v60.4a6.924,6.924,0,0,0,13.848,0V295.761l2.151.024a2.436,2.436,0,1,0,.029-4.872H321.492a2.391,2.391,0,0,0-2.389,2.308" transform="translate(35.025 31.931)" fill="#f5f5f5"/>
        <path id="Trazado_826528" data-name="Trazado 826528" d="M319.1,293.241a1.687,1.687,0,0,1,.057-.564,2.388,2.388,0,0,1,.929-1.366,2.467,2.467,0,0,1,1.157-.446c.463-.029.941-.017,1.475-.027l3.659-.029,10.01-.052,3.022-.012a3.034,3.034,0,0,1,1.627.316,2.69,2.69,0,0,1,1.164,1.28,2.657,2.657,0,0,1-.988,3.247,2.9,2.9,0,0,1-1.809.427L337.6,296l.222-.219c.018,15.524.042,36,.069,58.383v1.8a7.563,7.563,0,0,1-.21,1.844,7.075,7.075,0,0,1-1.745,3.224,7.218,7.218,0,0,1-3.063,1.943,7.2,7.2,0,0,1-8.855-4.122,8.165,8.165,0,0,1-.543-3.38q0-1.658,0-3.289c.014-8.7.027-16.815.039-24.13.06-14.579.107-25.942.134-32.343l.1.1c-1.011-.024-1.88.02-2.66-.06a2.415,2.415,0,0,1-1.6-1.037,2.106,2.106,0,0,1-.387-1.478,2.721,2.721,0,0,0,.474,1.417,2.311,2.311,0,0,0,1.537.943c.731.059,1.636,0,2.636.009h.1v.1c.027,6.4.074,17.763.134,32.343.012,7.314.024,15.432.039,24.13q0,1.631,0,3.289a7.592,7.592,0,0,0,.5,3.166,6.643,6.643,0,0,0,8.161,3.789,6.653,6.653,0,0,0,2.817-1.79,6.5,6.5,0,0,0,1.6-2.965,15.313,15.313,0,0,0,.194-3.511c.026-22.382.051-42.859.069-58.383v-.223l.222,0,1.812.027a2.479,2.479,0,0,0,1.576-.35,2.248,2.248,0,0,0,.85-2.741,2.3,2.3,0,0,0-.984-1.1,2.648,2.648,0,0,0-1.442-.281l-3.022-.012-10.01-.052-3.659-.029c-.527,0-1.028-.021-1.459,0a2.353,2.353,0,0,0-1.1.394,2.381,2.381,0,0,0-.94,1.277c-.1.354-.1.549-.119.547" transform="translate(35.023 31.912)" fill="#263238"/>
        <path id="Trazado_826529" data-name="Trazado 826529" d="M329.973,358.341h0a5.18,5.18,0,0,1-5.18-5.179V312.94h10.36v40.222a5.18,5.18,0,0,1-5.179,5.179" transform="translate(35.649 34.349)" fill="#4793ff"/>
        <path id="Trazado_826530" data-name="Trazado 826530" d="M334.9,295.409a47.795,47.795,0,0,1-10.488,0,47.8,47.8,0,0,1,10.488,0" transform="translate(35.607 32.393)" fill="#263238"/>
        <path id="Trazado_826531" data-name="Trazado 826531" d="M324.793,313.1a1.81,1.81,0,0,1,1.5-1.556,6.932,6.932,0,0,1,2.631.14l5.082.738a1.7,1.7,0,0,1,.957.347.589.589,0,0,1,0,.894" transform="translate(35.649 34.186)" fill="#e8505b"/>
        <g id="Grupo_1076013" data-name="Grupo 1076013" transform="translate(362.246 351.64)" opacity="0.21">
          <g id="Grupo_1076012" data-name="Grupo 1076012">
            <g id="Grupo_1076011" data-name="Grupo 1076011" clip-path="url(#clip-path-6)">
              <path id="Trazado_826532" data-name="Trazado 826532" d="M329.551,318.428a1.567,1.567,0,1,1-1.567-1.567,1.567,1.567,0,0,1,1.567,1.567" transform="translate(-326.418 -316.861)" fill="#fff"/>
            </g>
          </g>
        </g>
        <g id="Grupo_1076016" data-name="Grupo 1076016" transform="translate(363.852 359.44)" opacity="0.21">
          <g id="Grupo_1076015" data-name="Grupo 1076015">
            <g id="Grupo_1076014" data-name="Grupo 1076014" clip-path="url(#clip-path-12)">
              <path id="Trazado_826533" data-name="Trazado 826533" d="M329.431,324.672a.783.783,0,1,1-.783-.784.783.783,0,0,1,.783.784" transform="translate(-327.865 -323.89)" fill="#fff"/>
            </g>
          </g>
        </g>
        <path id="Trazado_826534" data-name="Trazado 826534" d="M351.326,293.222h0a2.389,2.389,0,0,0,2.389,2.471h2.257v60.4a6.924,6.924,0,1,0,13.848,0V295.761l2.151.024a2.436,2.436,0,1,0,.029-4.872H353.715a2.391,2.391,0,0,0-2.389,2.308" transform="translate(38.562 31.931)" fill="#f5f5f5"/>
        <path id="Trazado_826535" data-name="Trazado 826535" d="M351.328,293.241a1.7,1.7,0,0,1,.055-.564,2.4,2.4,0,0,1,.93-1.366,2.467,2.467,0,0,1,1.158-.446c.463-.029.941-.017,1.475-.027l3.659-.029,10.01-.052,3.022-.012a3.034,3.034,0,0,1,1.627.316,2.69,2.69,0,0,1,1.164,1.28,2.657,2.657,0,0,1-.988,3.247,2.9,2.9,0,0,1-1.809.427L369.82,296l.222-.219c.018,15.524.042,36,.069,58.383v1.8a7.565,7.565,0,0,1-.21,1.844,7.075,7.075,0,0,1-1.745,3.224,7.219,7.219,0,0,1-3.063,1.943,7.2,7.2,0,0,1-8.855-4.122,8.147,8.147,0,0,1-.543-3.38q0-1.658,0-3.289c.013-8.7.027-16.815.039-24.13.06-14.579.107-25.942.133-32.343l.1.1c-1.011-.024-1.88.02-2.66-.06a2.415,2.415,0,0,1-1.6-1.037,2.106,2.106,0,0,1-.387-1.478,2.721,2.721,0,0,0,.474,1.417,2.311,2.311,0,0,0,1.537.943c.731.059,1.636,0,2.636.009h.1v.1c.027,6.4.074,17.763.134,32.343.012,7.314.024,15.432.039,24.13q0,1.631,0,3.289a7.592,7.592,0,0,0,.5,3.166,6.643,6.643,0,0,0,8.161,3.789,6.653,6.653,0,0,0,2.817-1.79,6.507,6.507,0,0,0,1.6-2.965,15.254,15.254,0,0,0,.193-3.511c.027-22.382.051-42.859.07-58.383v-.223l.222,0,1.812.027a2.478,2.478,0,0,0,1.576-.35,2.248,2.248,0,0,0,.85-2.741,2.3,2.3,0,0,0-.984-1.1,2.648,2.648,0,0,0-1.442-.281l-3.022-.012-10.01-.052-3.659-.029c-.527,0-1.029-.021-1.459,0a2.349,2.349,0,0,0-1.1.394,2.381,2.381,0,0,0-.94,1.277c-.1.354-.1.549-.119.547" transform="translate(38.56 31.912)" fill="#263238"/>
        <path id="Trazado_826536" data-name="Trazado 826536" d="M362.2,358.341h0a5.179,5.179,0,0,1-5.179-5.179V312.94h10.359v40.222a5.179,5.179,0,0,1-5.179,5.179" transform="translate(39.186 34.349)" fill="#4793ff"/>
        <path id="Trazado_826537" data-name="Trazado 826537" d="M367.12,295.409a47.795,47.795,0,0,1-10.488,0,47.8,47.8,0,0,1,10.488,0" transform="translate(39.144 32.393)" fill="#263238"/>
        <path id="Trazado_826538" data-name="Trazado 826538" d="M357.016,313.1a1.81,1.81,0,0,1,1.5-1.556,6.932,6.932,0,0,1,2.631.14l5.082.738a1.7,1.7,0,0,1,.957.347.589.589,0,0,1,0,.894" transform="translate(39.186 34.186)" fill="#e8505b"/>
        <g id="Grupo_1076019" data-name="Grupo 1076019" transform="translate(398.005 351.64)" opacity="0.21">
          <g id="Grupo_1076018" data-name="Grupo 1076018">
            <g id="Grupo_1076017" data-name="Grupo 1076017" clip-path="url(#clip-path-13)">
              <path id="Trazado_826539" data-name="Trazado 826539" d="M361.774,318.428a1.567,1.567,0,1,1-1.567-1.567,1.567,1.567,0,0,1,1.567,1.567" transform="translate(-358.64 -316.861)" fill="#fff"/>
            </g>
          </g>
        </g>
        <g id="Grupo_1076022" data-name="Grupo 1076022" transform="translate(399.61 359.44)" opacity="0.21">
          <g id="Grupo_1076021" data-name="Grupo 1076021">
            <g id="Grupo_1076020" data-name="Grupo 1076020" clip-path="url(#clip-path-7)">
              <path id="Trazado_826540" data-name="Trazado 826540" d="M361.654,324.672a.783.783,0,1,1-.783-.784.783.783,0,0,1,.783.784" transform="translate(-360.087 -323.89)" fill="#fff"/>
            </g>
          </g>
        </g>
        <g id="Grupo_1076025" data-name="Grupo 1076025" transform="translate(362.368 366.86)" opacity="0.3">
          <g id="Grupo_1076024" data-name="Grupo 1076024">
            <g id="Grupo_1076023" data-name="Grupo 1076023" clip-path="url(#clip-path-15)">
              <path id="Trazado_826541" data-name="Trazado 826541" d="M327.973,349.922c-.8,0-1.445-4.331-1.445-9.673s.647-9.674,1.445-9.674,1.445,4.33,1.445,9.674-.647,9.673-1.445,9.673" transform="translate(-326.528 -330.576)" fill="#fff"/>
            </g>
          </g>
        </g>
        <g id="Grupo_1076028" data-name="Grupo 1076028" transform="translate(397.626 366.86)" opacity="0.3">
          <g id="Grupo_1076027" data-name="Grupo 1076027">
            <g id="Grupo_1076026" data-name="Grupo 1076026" clip-path="url(#clip-path-15)">
              <path id="Trazado_826542" data-name="Trazado 826542" d="M359.745,349.922c-.8,0-1.446-4.331-1.446-9.673s.647-9.674,1.446-9.674,1.444,4.33,1.444,9.674-.647,9.673-1.444,9.673" transform="translate(-358.299 -330.576)" fill="#fff"/>
            </g>
          </g>
        </g>
        <path id="Trazado_826543" data-name="Trazado 826543" d="M297.25,290.914c.16,0,.289,20.6.289,46.013s-.129,46.016-.289,46.016-.289-20.6-.289-46.016.129-46.013.289-46.013" transform="translate(32.595 31.931)" fill="#263238"/>
        <path id="Trazado_826544" data-name="Trazado 826544" d="M418.1,291.008c.16,0,.289,20.6.289,46.013s-.129,46.016-.289,46.016-.289-20.6-.289-46.016.129-46.013.289-46.013" transform="translate(45.86 31.941)" fill="#263238"/>
        <path id="Trazado_826545" data-name="Trazado 826545" d="M431.55,305.617c0,.16-30.225.289-67.5.289s-67.509-.129-67.509-.289,30.219-.289,67.509-.289,67.5.129,67.5.289" transform="translate(32.548 33.513)" fill="#263238"/>
        <path id="Trazado_826546" data-name="Trazado 826546" d="M309.746,376.06a11.4,11.4,0,1,0-22.794,0Z" transform="translate(31.496 40.026)" fill="#455a64"/>
        <path id="Trazado_826547" data-name="Trazado 826547" d="M430.6,376.369a11.4,11.4,0,1,0-22.794,0Z" transform="translate(44.761 40.06)" fill="#455a64"/>
        <path id="Trazado_826548" data-name="Trazado 826548" d="M296.539,313.023a5.7,5.7,0,0,0,0-11.4Z" transform="translate(32.548 33.107)" fill="#455a64"/>
        <path id="Trazado_826549" data-name="Trazado 826549" d="M418.762,301.626a5.7,5.7,0,1,0,0,11.4Z" transform="translate(45.338 33.107)" fill="#455a64"/>
        <path id="Trazado_826550" data-name="Trazado 826550" d="M407.082,288.624s-.411.02-1.211.03l-3.555.028-13.667.054-50.264.092-16.654.019-8.86.009c-1.5,0-3.031-.02-4.531.089A17.624,17.624,0,0,0,303.9,290a15.6,15.6,0,0,0-4.076,2.21,17.091,17.091,0,0,0-3.4,3.267A17.927,17.927,0,0,0,294,299.6a18.6,18.6,0,0,0-1.2,4.711c-.253,3.265.047,6.664-.255,10.1a36.2,36.2,0,0,1-2.494,10.127,34.1,34.1,0,0,1-14.109,16.021,33.281,33.281,0,0,1-21.809,4.269,33.8,33.8,0,0,1-29-32.8c0-32.391-.007-63.245-.009-91.309.009-14.031.018-27.363.027-39.843a21.265,21.265,0,0,0-22.182-21.252,20.977,20.977,0,0,0-13.545,5.655,22.237,22.237,0,0,0-4.238,5.412A23,23,0,0,0,183,176.775a30.838,30.838,0,0,0-.411,6.045q-.007,2.938-.012,5.646c-.009,3.61-.018,6.908-.024,9.876-.024,5.925-.042,10.528-.054,13.666-.013,1.553-.022,2.74-.029,3.553s-.03,1.211-.03,1.211-.02-.411-.029-1.211-.017-2-.029-3.553c-.012-3.137-.031-7.741-.054-13.666-.008-2.967-.017-6.266-.026-9.876q0-2.708-.012-5.646a31.108,31.108,0,0,1,.393-6.106,23.305,23.305,0,0,1,2.2-6.187,22.612,22.612,0,0,1,4.291-5.516,21.35,21.35,0,0,1,13.778-5.8,21.7,21.7,0,0,1,22.679,21.66c.008,12.479.017,25.812.027,39.843.017,28.061.034,58.912.054,91.3a33.235,33.235,0,0,0,28.505,32.251,32.744,32.744,0,0,0,21.452-4.185,33.569,33.569,0,0,0,13.9-15.752,35.724,35.724,0,0,0,2.466-9.965c.3-3.384.006-6.745.269-10.11a19.114,19.114,0,0,1,1.241-4.846,18.374,18.374,0,0,1,2.5-4.243,17.5,17.5,0,0,1,3.5-3.354,16,16,0,0,1,4.193-2.265,18.085,18.085,0,0,1,4.562-1.073c1.558-.11,3.072-.084,4.577-.084l8.86.009,16.654.019,50.264.092,13.667.053,3.555.029c.8.01,1.211.03,1.211.03" transform="translate(20.008 17.473)" fill="#263238"/>
        <path id="Trazado_826551" data-name="Trazado 826551" d="M329.144,275.822a40.706,40.706,0,0,1,.287,6.82,40.706,40.706,0,0,1-.287,6.819,40.271,40.271,0,0,1-.29-6.819,40.272,40.272,0,0,1,.29-6.82" transform="translate(36.095 30.274)" fill="#263238"/>
        <path id="Trazado_826552" data-name="Trazado 826552" d="M359.63,275.822a40.491,40.491,0,0,1,.289,6.82,40.49,40.49,0,0,1-.289,6.819,40.484,40.484,0,0,1-.289-6.819,40.485,40.485,0,0,1,.289-6.82" transform="translate(39.441 30.274)" fill="#263238"/>
        <path id="Trazado_826553" data-name="Trazado 826553" d="M84.811,164.611l6.717,7.348a11.247,11.247,0,0,1,2.49,10.761L68.644,269.045a16.37,16.37,0,0,0,15.705,20.986h47.763A17.318,17.318,0,0,0,148.656,267.6l-26.484-85.625a11.247,11.247,0,0,1,2.667-11.15l6.016-6.21Z" transform="translate(7.46 18.068)" fill="#f5f5f5"/>
        <path id="Trazado_826554" data-name="Trazado 826554" d="M84.836,164.63l46.044-.188.445,0-.31.321-4.577,4.74a32.581,32.581,0,0,0-2.309,2.517,10.867,10.867,0,0,0-1.617,3.056,11.074,11.074,0,0,0-.03,7.094q1.119,3.6,2.289,7.37l10.112,32.587c3.6,11.621,7.42,23.943,11.4,36.794q.746,2.409,1.5,4.843.378,1.217.756,2.44c.262.809.5,1.632.7,2.488a17.948,17.948,0,0,1,.474,5.21l-.159,1.312-.081.657-.155.644L149,277.8l-.455,1.249A17.525,17.525,0,0,1,131.7,290.338l-38.132-.006-9.154,0a16.685,16.685,0,0,1-16.667-17.272c.057-.715.138-1.429.224-2.137.164-.694.312-1.394.488-2.075q.593-2.009,1.177-3.993,1.169-3.967,2.306-7.825l4.414-14.962c2.85-9.652,5.506-18.643,7.929-26.853l6.555-22.15,2.7-9.085c.205-.7.421-1.381.576-2.048a11.93,11.93,0,0,0,.255-2,11.249,11.249,0,0,0-.494-3.7,11.4,11.4,0,0,0-1.455-3.01,21.83,21.83,0,0,0-1.915-2.271l-3.133-3.487-2.535-2.838,2.651,2.835,3.158,3.393a21.113,21.113,0,0,1,1.937,2.254,11.374,11.374,0,0,1,2.035,6.828,12.169,12.169,0,0,1-.247,2.046c-.158.69-.367,1.369-.569,2.069q-1.222,4.195-2.649,9.1c-1.907,6.529-4.076,13.961-6.474,22.174S79.642,232.54,76.816,242.2q-2.122,7.244-4.385,14.97Q71.3,261.028,70.137,265c-.712,2.663-1.8,5.288-1.858,8.08a16.141,16.141,0,0,0,16.136,16.691l9.154,0,38.132-.006a16.954,16.954,0,0,0,16.311-10.917l.442-1.207.3-1.247.151-.623.078-.635.155-1.268a17.412,17.412,0,0,0-.458-5.041c-.18-.819-.419-1.637-.684-2.453s-.5-1.628-.755-2.44q-.752-2.434-1.5-4.844l-11.363-36.806c-3.583-11.626-6.953-22.551-10.052-32.606q-1.16-3.77-2.271-7.374a11.511,11.511,0,0,1,.053-7.361,11.272,11.272,0,0,1,1.688-3.166,32.507,32.507,0,0,1,2.349-2.547l4.593-4.725.134.318-46.044-.188" transform="translate(7.435 18.049)" fill="#263238"/>
        <path id="Trazado_826555" data-name="Trazado 826555" d="M55.029,392.608c-.161,0-.29-49.31-.29-110.123,0-60.835.129-110.134.29-110.134s.287,49.3.287,110.134c0,60.813-.129,110.123-.287,110.123" transform="translate(6.008 18.917)" fill="#263238"/>
        <path id="Trazado_826556" data-name="Trazado 826556" d="M154.054,184.294c0,.16-21.469.289-47.946.289s-47.952-.129-47.952-.289S79.621,184,106.108,184s47.946.129,47.946.289" transform="translate(6.383 20.197)" fill="#263238"/>
        <path id="Trazado_826557" data-name="Trazado 826557" d="M129.469,213.267a29.248,29.248,0,0,1-14.3-.314c-4.491-1.245-8.618-3.549-13.041-5.021s-9.477-2.04-13.6.14l-15.17,54.975a13.908,13.908,0,0,0,13.407,17.607h42.815A13.908,13.908,0,0,0,143,263.1Z" transform="translate(7.996 22.68)" fill="#4793ff"/>
        <path id="Trazado_826558" data-name="Trazado 826558" d="M67.523,376.369a11.4,11.4,0,1,0-22.794,0Z" transform="translate(4.909 40.06)" fill="#455a64"/>
        <path id="Trazado_826559" data-name="Trazado 826559" d="M55,192.742a7.211,7.211,0,0,0,7.21-7.211h0A7.211,7.211,0,0,0,55,178.318Z" transform="translate(6.037 19.572)" fill="#455a64"/>
        <path id="Trazado_826560" data-name="Trazado 826560" d="M128.419,165.477a11.161,11.161,0,0,1-1.629.856,20.42,20.42,0,0,1-1.978.87c-.785.3-1.666.692-2.683,1-1.008.336-2.114.694-3.332.978-1.2.343-2.518.572-3.9.839a50.188,50.188,0,0,1-18.186-.232c-1.372-.3-2.681-.566-3.875-.938-1.21-.316-2.307-.7-3.3-1.063-1.01-.33-1.88-.74-2.658-1.064a20.289,20.289,0,0,1-1.953-.92,11.1,11.1,0,0,1-1.607-.9,11.188,11.188,0,0,1,1.7.692c.536.247,1.194.539,1.982.826s1.658.676,2.668.977c1,.334,2.094.694,3.3.987,1.187.35,2.488.592,3.849.878a52.561,52.561,0,0,0,18,.23c1.367-.252,2.673-.459,3.87-.779,1.211-.262,2.314-.593,3.32-.9,1.018-.275,1.9-.634,2.692-.908s1.462-.54,2-.775a11.258,11.258,0,0,1,1.72-.649" transform="translate(9.145 18.099)" fill="#263238"/>
        <g id="Grupo_1076031" data-name="Grupo 1076031" transform="translate(89.779 236.871)" opacity="0.3">
          <g id="Grupo_1076030" data-name="Grupo 1076030">
            <g id="Grupo_1076029" data-name="Grupo 1076029" clip-path="url(#clip-path-17)">
              <path id="Trazado_826561" data-name="Trazado 826561" d="M91.412,274.577c-.013.163-1.024.323-2.74-.276a11.515,11.515,0,0,1-5.613-5.015,15.1,15.1,0,0,1-1.839-4.965A22.23,22.23,0,0,1,81,258.348c.368-4.185,1.616-8.434,2.695-12.893,4.509-17.876,8.79-32.205,9.565-32.01s-2.254,14.84-6.763,32.717c-1.091,4.485-2.388,8.686-2.848,12.464a21.429,21.429,0,0,0-.063,5.33,14.039,14.039,0,0,0,1.268,4.361,11.955,11.955,0,0,0,4.306,4.973c1.365.823,2.286,1.061,2.248,1.287" transform="translate(-80.899 -213.443)" fill="#fff"/>
            </g>
          </g>
        </g>
        <path id="Trazado_826562" data-name="Trazado 826562" d="M126.348,220.144a8.037,8.037,0,0,1-1.437.687c-.942.4-2.313.965-4.058,1.543a24.737,24.737,0,0,1-6.339,1.27,16.29,16.29,0,0,1-3.84-.253,20.343,20.343,0,0,1-3.935-1.226c-2.6-1.093-4.906-2.421-7.1-3.391a19.837,19.837,0,0,0-6.08-1.712,10.818,10.818,0,0,0-4.219.377c-.961.31-1.454.6-1.482.547-.01-.017.107-.1.338-.24a6.854,6.854,0,0,1,1.07-.52,10.238,10.238,0,0,1,4.325-.572,19.36,19.36,0,0,1,6.261,1.631c2.239.959,4.561,2.274,7.11,3.346a20.288,20.288,0,0,0,3.822,1.2,16.075,16.075,0,0,0,3.708.276,25.865,25.865,0,0,0,6.241-1.128c1.743-.522,3.133-1.027,4.1-1.362a8.636,8.636,0,0,1,1.518-.477" transform="translate(9.643 23.777)" fill="#fafafa"/>
      </g>
    </g>
  </g>
</svg>
