<svg xmlns="http://www.w3.org/2000/svg" xmlns:xlink="http://www.w3.org/1999/xlink" width="505" height="497.171" viewBox="0 0 505 497.171">
  <defs>
    <clipPath id="clip-path">
      <rect id="Rectángulo_379744" data-name="Rectángulo 379744" width="505" height="497.171" fill="none"/>
    </clipPath>
    <clipPath id="clip-path-3">
      <rect id="Rectángulo_379701" data-name="Rectángulo 379701" width="91.574" height="79.702" fill="none"/>
    </clipPath>
    <clipPath id="clip-path-4">
      <rect id="Rectángulo_379702" data-name="Rectángulo 379702" width="71.062" height="44.199" fill="none"/>
    </clipPath>
    <clipPath id="clip-path-7">
      <rect id="Rectángulo_379717" data-name="Rectángulo 379717" width="132.306" height="131.764" fill="#aaccc4"/>
    </clipPath>
    <clipPath id="clip-path-9">
      <rect id="Rectángulo_379719" data-name="Rectángulo 379719" width="87.882" height="159.542" fill="none"/>
    </clipPath>
    <clipPath id="clip-path-10">
      <rect id="Rectángulo_379720" data-name="Rectángulo 379720" width="48.661" height="34.535" fill="none"/>
    </clipPath>
    <clipPath id="clip-path-11">
      <rect id="Rectángulo_379721" data-name="Rectángulo 379721" width="48.355" height="32.381" fill="none"/>
    </clipPath>
    <clipPath id="clip-path-13">
      <rect id="Rectángulo_379729" data-name="Rectángulo 379729" width="27.904" height="8.577" fill="none"/>
    </clipPath>
    <clipPath id="clip-path-14">
      <rect id="Rectángulo_379730" data-name="Rectángulo 379730" width="22.699" height="82.284" fill="none"/>
    </clipPath>
    <clipPath id="clip-path-15">
      <rect id="Rectángulo_379731" data-name="Rectángulo 379731" width="17.994" height="70.408" fill="none"/>
    </clipPath>
    <clipPath id="clip-path-16">
      <rect id="Rectángulo_379732" data-name="Rectángulo 379732" width="90.753" height="116.586" fill="none"/>
    </clipPath>
  </defs>
  <g id="Grupo_1076077" data-name="Grupo 1076077" clip-path="url(#clip-path)">
    <g id="Grupo_1076042" data-name="Grupo 1076042">
      <g id="Grupo_1076041" data-name="Grupo 1076041" clip-path="url(#clip-path)">
        <path id="Trazado_826564" data-name="Trazado 826564" d="M32.775,334.233a1.234,1.234,0,0,1-.614-.165L4.3,317.982a1.227,1.227,0,0,1-.614-1.063V284.748a1.23,1.23,0,0,1,.614-1.063L32.161,267.6a1.232,1.232,0,0,1,1.228,0L61.25,283.685a1.23,1.23,0,0,1,.614,1.063v32.171a1.227,1.227,0,0,1-.614,1.063L33.389,334.068a1.228,1.228,0,0,1-.614.165M6.142,316.21l26.633,15.376L59.408,316.21V285.456L32.775,270.08,6.142,285.456Z" transform="translate(0.84 60.935)" fill="#ebebeb"/>
        <path id="Trazado_826565" data-name="Trazado 826565" d="M78.157,334.233a1.234,1.234,0,0,1-.614-.165L49.682,317.982a1.224,1.224,0,0,1-.614-1.063V284.748a1.227,1.227,0,0,1,.614-1.063L77.543,267.6a1.232,1.232,0,0,1,1.228,0l27.861,16.086a1.23,1.23,0,0,1,.614,1.063v32.171a1.227,1.227,0,0,1-.614,1.063L78.771,334.068a1.228,1.228,0,0,1-.614.165M51.524,316.21l26.633,15.376L104.79,316.21V285.456L78.157,270.08,51.524,285.456Z" transform="translate(11.18 60.935)" fill="#ebebeb"/>
        <path id="Trazado_826566" data-name="Trazado 826566" d="M72.987,273.434a1.228,1.228,0,0,1-1.228-1.228V253.114a1.228,1.228,0,0,1,2.456,0v19.092a1.228,1.228,0,0,1-1.228,1.228" transform="translate(16.35 57.392)" fill="#ebebeb"/>
        <path id="Trazado_826567" data-name="Trazado 826567" d="M95.679,284.639a1.228,1.228,0,0,1-.592-2.3l16.21-8.88a1.228,1.228,0,0,1,1.18,2.154l-16.21,8.88a1.226,1.226,0,0,1-.588.151" transform="translate(21.52 62.272)" fill="#ebebeb"/>
        <path id="Trazado_826568" data-name="Trazado 826568" d="M9.046,310.816a1.228,1.228,0,0,1-1.228-1.228V285.031a1.228,1.228,0,0,1,2.456,0v24.557a1.228,1.228,0,0,1-1.228,1.228" transform="translate(1.781 64.665)" fill="#ebebeb"/>
        <path id="Trazado_826569" data-name="Trazado 826569" d="M55.879,310.816a1.228,1.228,0,0,1-1.228-1.228V285.031a1.228,1.228,0,0,1,2.456,0v24.557a1.228,1.228,0,0,1-1.228,1.228" transform="translate(12.452 64.665)" fill="#ebebeb"/>
        <path id="Trazado_826570" data-name="Trazado 826570" d="M49.613,287.47A1.222,1.222,0,0,1,49,287.3l-21.225-12.35a1.228,1.228,0,1,1,1.235-2.123l21.225,12.351a1.228,1.228,0,0,1-.619,2.289" transform="translate(6.189 62.126)" fill="#ebebeb"/>
        <path id="Trazado_826571" data-name="Trazado 826571" d="M94.694,287.47a1.222,1.222,0,0,1-.616-.167l-21.226-12.35a1.228,1.228,0,0,1,1.235-2.123l21.226,12.351a1.228,1.228,0,0,1-.619,2.289" transform="translate(16.46 62.126)" fill="#ebebeb"/>
        <path id="Trazado_826572" data-name="Trazado 826572" d="M351.852,214.694a1.227,1.227,0,0,1-.614-.165l-27.861-16.085a1.227,1.227,0,0,1-.614-1.063V165.21a1.23,1.23,0,0,1,.614-1.065l27.861-16.085a1.226,1.226,0,0,1,1.228,0l27.861,16.085a1.23,1.23,0,0,1,.614,1.065v32.171a1.227,1.227,0,0,1-.614,1.063l-27.861,16.085a1.234,1.234,0,0,1-.614.165m-26.633-18.021,26.633,15.375,26.633-15.375V165.918l-26.633-15.376-26.633,15.376Z" transform="translate(73.542 33.698)" fill="#ebebeb"/>
        <path id="Trazado_826573" data-name="Trazado 826573" d="M346.681,153.895a1.228,1.228,0,0,1-1.228-1.228V133.575a1.228,1.228,0,0,1,2.456,0v19.092a1.228,1.228,0,0,1-1.228,1.228" transform="translate(78.711 30.155)" fill="#ebebeb"/>
        <path id="Trazado_826574" data-name="Trazado 826574" d="M389.788,150.395a1.227,1.227,0,0,1-1.228-1.228V130.075a1.228,1.228,0,0,1,2.456,0v19.092a1.227,1.227,0,0,1-1.228,1.228" transform="translate(88.533 29.358)" fill="#ebebeb"/>
        <path id="Trazado_826575" data-name="Trazado 826575" d="M369.374,165.1a1.228,1.228,0,0,1-.592-2.3l16.21-8.881a1.228,1.228,0,0,1,1.18,2.154l-16.21,8.881a1.227,1.227,0,0,1-.588.151" transform="translate(83.882 35.035)" fill="#ebebeb"/>
        <path id="Trazado_826576" data-name="Trazado 826576" d="M412.929,165.1a1.235,1.235,0,0,1-.589-.151l-16.209-8.881a1.228,1.228,0,0,1,1.18-2.154l16.21,8.881a1.228,1.228,0,0,1-.592,2.3" transform="translate(90.113 35.035)" fill="#ebebeb"/>
        <path id="Trazado_826577" data-name="Trazado 826577" d="M365.038,191.276a1.227,1.227,0,0,1-1.228-1.228V165.491a1.228,1.228,0,0,1,2.456,0v24.557a1.227,1.227,0,0,1-1.228,1.228" transform="translate(82.894 37.427)" fill="#ebebeb"/>
        <path id="Trazado_826578" data-name="Trazado 826578" d="M329.044,167.931a1.228,1.228,0,0,1-.619-2.289l21.226-12.351a1.228,1.228,0,0,1,1.235,2.123l-21.226,12.35a1.209,1.209,0,0,1-.616.167" transform="translate(74.693 34.889)" fill="#ebebeb"/>
        <path id="Trazado_826579" data-name="Trazado 826579" d="M230.781,104.323a1.234,1.234,0,0,1-.614-.165L202.306,88.072a1.224,1.224,0,0,1-.614-1.063V54.838a1.224,1.224,0,0,1,.614-1.063l27.861-16.086a1.232,1.232,0,0,1,1.228,0l27.861,16.086a1.227,1.227,0,0,1,.614,1.063V87.009a1.227,1.227,0,0,1-.614,1.063l-27.861,16.086a1.227,1.227,0,0,1-.614.165M204.148,86.3l26.633,15.376L257.414,86.3V55.546L230.781,40.17,204.148,55.546Z" transform="translate(45.956 8.55)" fill="#ebebeb"/>
        <path id="Trazado_826580" data-name="Trazado 826580" d="M248.3,54.729a1.228,1.228,0,0,1-.591-2.3l16.21-8.88A1.228,1.228,0,0,1,265.1,45.7l-16.211,8.88a1.213,1.213,0,0,1-.588.151" transform="translate(56.296 9.887)" fill="#ebebeb"/>
        <path id="Trazado_826581" data-name="Trazado 826581" d="M207.973,80.9a1.227,1.227,0,0,1-1.228-1.228V55.12a1.228,1.228,0,1,1,2.456,0V79.677a1.227,1.227,0,0,1-1.228,1.228" transform="translate(47.107 12.279)" fill="#ebebeb"/>
        <path id="Trazado_826582" data-name="Trazado 826582" d="M247.816,57.559a1.222,1.222,0,0,1-.616-.167l-21.226-12.35a1.228,1.228,0,0,1,1.235-2.123l21.226,12.351a1.228,1.228,0,0,1-.619,2.289" transform="translate(51.349 9.741)" fill="#ebebeb"/>
        <path id="Trazado_826583" data-name="Trazado 826583" d="M226.592,89.725a1.228,1.228,0,0,1-.619-2.289L247.2,75.085a1.228,1.228,0,0,1,1.235,2.123l-21.226,12.35a1.222,1.222,0,0,1-.616.167" transform="translate(51.349 17.07)" fill="#ebebeb"/>
        <path id="Trazado_826584" data-name="Trazado 826584" d="M368.556,355.374a118.666,118.666,0,0,0-2.4-12.1,61.388,61.388,0,0,0,9.171-2.842,2.646,2.646,0,0,0-2.078-4.867,59.1,59.1,0,0,1-8.456,2.581c-1.034-3.637-2.321-7.646-3.918-11.807-7.862-20.516-19.434-34.851-33.464-41.461-12.77-6.015-27.395-4.471-41.852-2.092-.642-5.186-1.093-10.4-1.537-15.471-1.136-13.068-2.166-24.859-5.961-33.122a21.275,21.275,0,0,0-6-8.047,30.936,30.936,0,0,0-8.031-4.608.008.008,0,0,0-.01,0c0-.007-.009-.011-.016-.007s0-.009-.011,0l0,0c-.167-.072-.338-.14-.512-.2a.781.781,0,0,0-.108-.031c-9.653-3.606-20.808-2.809-31.849-1.66.088-.243.18-.48.275-.721,8.732-22.672,17.76-46.122-1.3-64.794-8.289-8.127-19.024-12.287-32.809-12.717-8.481-.262-17.32.829-26.539,2.369,6.163-23.488,11.986-47.692-9.586-69.622C147.061,59.4,119.621,57.864,80,69.567c-2.587.761-5.146,1.563-7.658,2.386q.193-2.89.4-5.748C74.547,40.512,76.112,18.319,62.98,9.79A2.647,2.647,0,1,0,60.1,14.23c10.517,6.832,8.987,28.578,7.36,51.605q-.278,3.94-.545,7.952A362.151,362.151,0,0,0,25.5,91.16a2.648,2.648,0,1,0,2.418,4.711A355.392,355.392,0,0,1,66.567,79.534c-1.476,27.532-.176,55.51,21.753,68.235.029.021.061.036.091.056a.4.4,0,0,0,.071.039c21.637,12.447,47.186,7.742,71.887,3.2,1.2-.22,2.4-.442,3.588-.654-5.174,20.44-8.572,41.269,7.746,60.307,14.68,17.125,33.993,16.807,51.824,15.071-6.842,18.687-11.453,37.463,1.678,53.409a33.138,33.138,0,0,0,11.574,9.12c12.791,6.026,28.524,3.314,43.866.672.134-.022.27-.048.4-.07,2.657,17.545,8.063,34.242,22.7,43.909A76.456,76.456,0,0,0,342.3,345.448a.3.3,0,0,0,.074.009c.169.015.335.021.508.025l0,0a81.621,81.621,0,0,0,9.765-.134c2.993-.22,5.773-.578,8.276-1.011a118.388,118.388,0,0,1,2.381,11.72,2.645,2.645,0,0,0,5.245-.685M71.977,77.673C91.54,71.116,114.242,65.7,132.6,67.43L75.318,122.988c-4.4-12.949-4.279-29.25-3.341-45.315m17.486,64.584a33.665,33.665,0,0,1-12-13.984l61.72-59.861c7.368,1.536,13.763,4.53,18.6,9.443q1.284,1.306,2.426,2.624Zm25.862,8.04a58.018,58.018,0,0,1-20.947-5.309L163.485,84.65a42.752,42.752,0,0,1,6.925,15.639,2.677,2.677,0,0,0-1.357.661l-53.039,48.339a2.618,2.618,0,0,0-.689,1.007m44.086-4.44c-12.337,2.273-24.886,4.582-36.9,4.672L171.3,106.071c1.1,12.108-2.22,24.728-5.637,37.755q-.122.468-.246.936c-1.987.357-3.983.722-6,1.094m6.014,38.939c-1.561-11.327,1.079-23.174,4.25-35.415,15.36-2.653,29.9-4.3,42.164-.416Zm8.448,20.181a42.152,42.152,0,0,1-7.259-14.446,2,2,0,0,0,.3-.2l50.35-38.866a2.612,2.612,0,0,0,.242-.211,36.6,36.6,0,0,1,9.283,6.639,34.66,34.66,0,0,1,3.292,3.695Zm15.472,9.835a2.624,2.624,0,0,0-1.106,2.225,37.483,37.483,0,0,1-10.939-8.017l55.665-42.967a31.322,31.322,0,0,1,3.47,15.3Zm3.427,4.056,43.048-30.592c-1.428,9.127-5.152,18.808-8.969,28.73q-.628,1.623-1.245,3.251c-11.225,1.166-22.568,2.031-32.834-1.39m29.556,40.424c-1.127-10.551,2.55-22.091,7.064-34.115,10.148-1.084,19.9-2.087,28.335-.087Zm6.964,16.534a30.573,30.573,0,0,1-5.716-10.445,2.216,2.216,0,0,0,.363-.29L263.371,227a25.877,25.877,0,0,1,5.4,3.291,14.9,14.9,0,0,1,3.7,4.582l-39.792,44.464a30.492,30.492,0,0,1-3.39-3.513m47.54-24.054L255.461,286.66c-6.753.014-13-1.072-18.455-4.219l37.7-42.124a73.55,73.55,0,0,1,2.34,11.161,1.834,1.834,0,0,0-.217.293m2.914,32c-6.127,1.055-12.143,2.1-17.89,2.592l16.179-26.418c.254,2.561.486,5.184.713,7.83.458,5.2.923,10.558,1.579,15.893-.194.038-.39.07-.582.1m6.525,4.262A128.831,128.831,0,0,1,305.685,286l-5.625,36.767c-8.149-8.865-11.769-21.486-13.79-34.731m20.4,40.375c-.7-.462-1.379-.948-2.032-1.45a2.691,2.691,0,0,0,.265-.824l6.118-39.976A44.692,44.692,0,0,1,320,287.726l-2.537,46.586a72.281,72.281,0,0,1-10.8-5.9m15.764,7.875a2.648,2.648,0,0,0,.282-1.056l2.48-45.541a44.373,44.373,0,0,1,9.721,6.327,2.231,2.231,0,0,0-.006.634l4.854,43.359a70.581,70.581,0,0,1-17.331-3.723m29.637,3.805c-2.345.168-4.658.227-6.946.189l-4.3-38.39c9.684,11.16,15.457,25.991,18.721,37.314-2.283.378-4.79.7-7.476.887" transform="translate(5.482 2.133)" fill="#ebebeb"/>
        <path id="Trazado_826585" data-name="Trazado 826585" d="M244.565,237.668c-.371-.018-.743-.025-1.117-.007a4.313,4.313,0,0,1,1.117.007" transform="translate(55.47 54.144)" fill="#ebebeb"/>
        <path id="Trazado_826586" data-name="Trazado 826586" d="M117.562,60.29A54.047,54.047,0,1,1,63.514,6.244,54.047,54.047,0,0,1,117.562,60.29" transform="translate(2.157 1.423)" fill="#ebebeb"/>
        <path id="Trazado_826587" data-name="Trazado 826587" d="M116.643,60.811A51.572,51.572,0,1,1,65.072,9.24a51.57,51.57,0,0,1,51.571,51.571" transform="translate(3.076 2.105)" fill="#dbdbdb"/>
        <path id="Trazado_826588" data-name="Trazado 826588" d="M112.781,60.207A48.315,48.315,0,1,1,64.467,11.892a48.314,48.314,0,0,1,48.315,48.315" transform="translate(3.68 2.71)" fill="#fff"/>
        <g id="Grupo_1076037" data-name="Grupo 1076037" transform="translate(23.794 20.147)" opacity="0.5">
          <g id="Grupo_1076036" data-name="Grupo 1076036">
            <g id="Grupo_1076035" data-name="Grupo 1076035" clip-path="url(#clip-path-3)">
              <path id="Trazado_826589" data-name="Trazado 826589" d="M110.952,48.924c-22,13.331-58.161,35.2-78.371,47.186a48.355,48.355,0,0,1-13.2-17.752l66.843-61.95a48.373,48.373,0,0,1,24.73,32.516" transform="translate(-19.378 -16.408)" fill="#ebebeb"/>
            </g>
          </g>
        </g>
        <g id="Grupo_1076040" data-name="Grupo 1076040" transform="translate(45.365 64.603)" opacity="0.5">
          <g id="Grupo_1076039" data-name="Grupo 1076039">
            <g id="Grupo_1076038" data-name="Grupo 1076038" clip-path="url(#clip-path-4)">
              <path id="Trazado_826590" data-name="Trazado 826590" d="M108.009,52.615a47.888,47.888,0,0,1-3.194,15.7l-60.259,28.5a47.868,47.868,0,0,1-7.609-3.271c18.2-10.519,51.464-29.657,71.062-40.928" transform="translate(-36.947 -52.615)" fill="#ebebeb"/>
            </g>
          </g>
        </g>
        <rect id="Rectángulo_379703" data-name="Rectángulo 379703" width="0.933" height="7.323" transform="translate(67.68 18.11)" fill="#c7c7c7"/>
        <rect id="Rectángulo_379704" data-name="Rectángulo 379704" width="0.934" height="7.324" transform="matrix(0.866, -0.5, 0.5, 0.866, 45.339, 24.345)" fill="#c7c7c7"/>
        <rect id="Rectángulo_379705" data-name="Rectángulo 379705" width="0.933" height="7.324" transform="translate(29.109 40.916) rotate(-59.992)" fill="#c7c7c7"/>
        <rect id="Rectángulo_379706" data-name="Rectángulo 379706" width="7.323" height="0.933" transform="translate(23.34 62.451)" fill="#c7c7c7"/>
        <rect id="Rectángulo_379707" data-name="Rectángulo 379707" width="7.323" height="0.933" transform="translate(29.109 84.917) rotate(-30.007)" fill="#c7c7c7"/>
        <rect id="Rectángulo_379708" data-name="Rectángulo 379708" width="7.323" height="0.934" transform="translate(45.341 101.489) rotate(-60.033)" fill="#c7c7c7"/>
        <rect id="Rectángulo_379709" data-name="Rectángulo 379709" width="0.933" height="7.324" transform="translate(67.68 100.401)" fill="#c7c7c7"/>
        <rect id="Rectángulo_379710" data-name="Rectángulo 379710" width="0.934" height="7.323" transform="translate(86.485 95.613) rotate(-30)" fill="#c7c7c7"/>
        <rect id="Rectángulo_379711" data-name="Rectángulo 379711" width="0.933" height="7.323" transform="translate(100.377 82.063) rotate(-60)" fill="#c7c7c7"/>
        <rect id="Rectángulo_379712" data-name="Rectángulo 379712" width="7.323" height="0.933" transform="translate(105.632 62.451)" fill="#c7c7c7"/>
        <rect id="Rectángulo_379713" data-name="Rectángulo 379713" width="7.324" height="0.933" transform="matrix(0.866, -0.5, 0.5, 0.866, 100.377, 43.771)" fill="#c7c7c7"/>
        <rect id="Rectángulo_379714" data-name="Rectángulo 379714" width="7.324" height="0.934" transform="translate(86.487 30.222) rotate(-60.033)" fill="#c7c7c7"/>
        <path id="Trazado_826591" data-name="Trazado 826591" d="M56.629,17.452,58.218,62.2l-4.584-.057,1.75-44.71Z" transform="translate(12.221 3.973)" fill="#c7c7c7"/>
        <path id="Trazado_826592" data-name="Trazado 826592" d="M84.769,38.734,54.66,57.952l-2.188-4.027,31.7-16.285Z" transform="translate(11.956 8.576)" fill="#a6a6a6"/>
        <path id="Trazado_826593" data-name="Trazado 826593" d="M57.356,51.531a1.564,1.564,0,1,1-1.564-1.564,1.565,1.565,0,0,1,1.564,1.564" transform="translate(12.356 11.385)" fill="#c7c7c7"/>
      </g>
    </g>
    <path id="Trazado_826594" data-name="Trazado 826594" d="M126.25,362.4l-63.126.108L0,362.81l63.124.3,63.126.108,126.249.206,126.251-.2,63.124-.108,63.126-.3-63.126-.3L378.75,362.4,252.5,362.2Z" transform="translate(0 82.527)" fill="#263238"/>
    <g id="Grupo_1076044" data-name="Grupo 1076044">
      <g id="Grupo_1076043" data-name="Grupo 1076043" clip-path="url(#clip-path)">
        <path id="Trazado_826595" data-name="Trazado 826595" d="M453.5,392.609c0,10.8-93.6,19.563-209.061,19.563S35.378,403.413,35.378,392.609s93.6-19.563,209.061-19.563S453.5,381.805,453.5,392.609" transform="translate(8.061 84.999)" fill="#ebebeb"/>
      </g>
    </g>
    <g id="Grupo_1076049" data-name="Grupo 1076049">
      <g id="Grupo_1076048" data-name="Grupo 1076048" clip-path="url(#clip-path)">
        <g id="Grupo_1076047" data-name="Grupo 1076047" transform="translate(288.208)" opacity="0.5">
          <g id="Grupo_1076046" data-name="Grupo 1076046">
            <g id="Grupo_1076045" data-name="Grupo 1076045" clip-path="url(#clip-path-7)">
              <path id="Trazado_826596" data-name="Trazado 826596" d="M316.361,129.959s16.006-14.517,10.507-25.16c-7.669-14.842-39.7-3.4-46.439-29.018-5.092-19.357,11.119-35.027-1.13-50.134C271.071,15.5,234.725,18.3,234.725,18.3c23.41-18.293,57.436-25.723,77.79-8.847,18.3,15.174,10.03,38.294,17.954,49.814C341.7,75.6,367.481,76.143,367.026,97.647c-.528,24.927-32.953,30.959-35.2,34.117Z" transform="translate(-234.726 0)" fill="#aaccc4"/>
            </g>
          </g>
        </g>
      </g>
    </g>
    <path id="Trazado_826597" data-name="Trazado 826597" d="M346.263,85.145,341.624,86l-1.036,4.889L339.552,86l-4.639-.861,4.618-1.128,1.057-4.619,1.056,4.619Z" transform="translate(76.31 18.09)" fill="#fff"/>
    <path id="Trazado_826598" data-name="Trazado 826598" d="M300.453,59.539l-4.639.858-1.036,4.889L293.741,60.4l-4.639-.861,4.618-1.128,1.057-4.619,1.056,4.619Z" transform="translate(65.872 12.256)" fill="#fff"/>
    <path id="Trazado_826599" data-name="Trazado 826599" d="M308.209,47.055l-2.592.479-.58,2.733-.58-2.733-2.593-.48,2.582-.631.591-2.581.591,2.581Z" transform="translate(68.78 9.989)" fill="#fff"/>
    <path id="Trazado_826600" data-name="Trazado 826600" d="M278.34,36.892l-2.593.479-.578,2.733-.58-2.733L272,36.891l2.582-.631.591-2.581.589,2.581Z" transform="translate(61.974 7.674)" fill="#fff"/>
    <path id="Trazado_826601" data-name="Trazado 826601" d="M322.41,98.707l-2.593.479-.578,2.733-.58-2.733-2.593-.48,2.582-.631.591-2.581.589,2.581Z" transform="translate(72.016 21.758)" fill="#fff"/>
    <path id="Trazado_826602" data-name="Trazado 826602" d="M290.5,2.828l-2.582.63,2.593.481.58,2.733.578-2.733,2.593-.479-2.582-.632L291.088.246Z" transform="translate(65.601 0.056)" fill="#fff"/>
    <g id="Grupo_1076060" data-name="Grupo 1076060">
      <g id="Grupo_1076059" data-name="Grupo 1076059" clip-path="url(#clip-path)">
        <path id="Trazado_826603" data-name="Trazado 826603" d="M331.144,75.085a.752.752,0,0,0,0,1.5.752.752,0,0,0,0-1.5" transform="translate(75.286 17.108)" fill="#fff"/>
        <path id="Trazado_826604" data-name="Trazado 826604" d="M260.03,2.251a.752.752,0,0,0,0,1.5.752.752,0,0,0,0-1.5" transform="translate(59.082 0.513)" fill="#fff"/>
        <path id="Trazado_826605" data-name="Trazado 826605" d="M279.008,21.17a.752.752,0,0,0,0,1.5.752.752,0,0,0,0-1.5" transform="translate(63.406 4.824)" fill="#fff"/>
        <path id="Trazado_826606" data-name="Trazado 826606" d="M248.486,9.948a.532.532,0,0,0,0,1.063.532.532,0,0,0,0-1.063" transform="translate(56.501 2.267)" fill="#fff"/>
        <path id="Trazado_826607" data-name="Trazado 826607" d="M307.234,71.622a.532.532,0,0,0,0,1.063.532.532,0,0,0,0-1.063" transform="translate(69.886 16.319)" fill="#fff"/>
        <path id="Trazado_826608" data-name="Trazado 826608" d="M273.862,58.038a.532.532,0,0,0,0,1.063.532.532,0,0,0,0-1.063" transform="translate(62.282 13.224)" fill="#fff"/>
        <path id="Trazado_826609" data-name="Trazado 826609" d="M333.552,65.812a1.442,1.442,0,0,0,0,2.882,1.442,1.442,0,0,0,0-2.882" transform="translate(75.683 14.995)" fill="#fff"/>
        <path id="Trazado_826610" data-name="Trazado 826610" d="M285.424,64.639a1.442,1.442,0,0,0,0,2.882,1.442,1.442,0,0,0,0-2.882" transform="translate(64.717 14.728)" fill="#fff"/>
        <path id="Trazado_826611" data-name="Trazado 826611" d="M150.636,261.653a102.748,102.748,0,0,0,19.819,9.675c-11.17-15.155-11.064-50.657-9.57-45.67,7.161,23.845,25.461,49.442,32.053,50.42.044,0,.069.015.113.011,17.633,1.138,33.4-3.843,46.445-11.079a.145.145,0,0,0-.049-.076c-14.306-17.059-15.268-53.1-14.258-50.955,10.938,23,32.079,35.691,35.635,35.481l.022,0c12.724-11.813,19.247-23.294,17.315-24.327-14.032-7.534-26.574-28.148-38.029-50.025l0-.02c-11.32-21.566-18.87-54.174-34.315-73.155-14.137-17.375-41-19.458-55.735-9.479-38.672,26.181-8.159,163.762.556,169.2" transform="translate(29.839 19.703)" fill="#263238"/>
        <path id="Trazado_826612" data-name="Trazado 826612" d="M153.442,90.044a26.709,26.709,0,0,0-8.526,6.819,57.369,57.369,0,0,0-6.118,8.7,90.839,90.839,0,0,0-7.668,19.264c-3.8,13.217-3.409,38.747-3.145,52.254a210.761,210.761,0,0,0,5.385,40.13c.718,3.3,1.658,6.56,2.477,9.84l2.813,9.758,3.237,9.642L145.451,256l-2.9-9.717-2.664-9.764-2.456-9.8c-.7-3.289-1.519-6.554-2.117-9.86a229.6,229.6,0,0,1-4.811-39.868c-.49-13.369-.809-38.682,2.454-51.807a91.773,91.773,0,0,1,6.9-19.177A55.528,55.528,0,0,1,145.43,97.2a35.835,35.835,0,0,1,3.614-3.919,19.2,19.2,0,0,1,4.4-3.233" transform="translate(29.126 20.517)" fill="#263238"/>
        <path id="Trazado_826613" data-name="Trazado 826613" d="M267.7,220.222a174.193,174.193,0,0,1-12.26-13.5c-3.89-4.629-7.578-9.391-11-14.3-3.385-4.921-6.667-9.9-9.548-15.056s-5.577-10.465-8.38-15.7c-5.728-10.423-12.859-32.733-19.285-42.857-3.243-5.045-6.589-10.046-10.318-14.834a81.057,81.057,0,0,0-6.057-6.876,23.078,23.078,0,0,0-7.593-5.466,24.061,24.061,0,0,1,7.072,5.856,78.245,78.245,0,0,1,5.534,7.108c3.483,4.868,6.621,9.938,9.636,15.061,6.036,10.246,13.169,32.515,18.711,43.007,2.877,5.21,5.615,10.447,8.611,15.645a145.564,145.564,0,0,0,9.97,15.06,169.081,169.081,0,0,0,24.9,26.847" transform="translate(41.756 20.88)" fill="#263238"/>
        <path id="Trazado_826614" data-name="Trazado 826614" d="M172.151,204.721c23.855,22.745,68.128,56.787,86.5,62.075,20.42,5.878,61.035-43.579,87.734-73.821,5.308-6.013-38.814-50.134-44.151-43.423-13.946,17.53-41.905,57.052-46.949,57.319-4.126.219-43.549-13.991-65.711-22.263-35.276-13.167-34.209,4.107-17.422,20.113" transform="translate(36.649 33.918)" fill="#d3766a"/>
        <path id="Trazado_826615" data-name="Trazado 826615" d="M291.533,158.394l44.027,52.491s-50.137,56.077-70.345,56.319-75.345-44.637-92.995-63.321-15.456-32.446,11.322-23.914,68.253,22.536,71.973,21.664,36.018-43.239,36.018-43.239" transform="translate(36.646 36.09)" fill="#fff"/>
        <path id="Trazado_826616" data-name="Trazado 826616" d="M297.634,220.067C282.763,196.579,263.572,174.149,260.5,170c-.145-.2-.444.06-.287.25,3.221,3.912,22.371,31.924,37.1,50.091.171.21.46-.05.317-.276" transform="translate(59.28 38.719)" fill="#263238"/>
        <path id="Trazado_826617" data-name="Trazado 826617" d="M282.859,255.064c-6.638,4.426-12.837,7.343-17.644,7.4-20.209.243-75.351-44.636-93-63.315-7.548-8-11.472-15.084-11.383-19.93,29.187,18.27,97.373,60.577,122.024,75.85" transform="translate(36.646 40.834)" fill="#e8e8e8"/>
        <path id="Trazado_826618" data-name="Trazado 826618" d="M307.164,220.868l-39.284-47.4c.57-1.359,3.692-4.585,6.438-9.032-.011-.022,6.077-15.831,6.1-31.26.043-12.959-1.378-32.207,5.593-32.443,10.162-.374,14.883,23.747,16.748,37.759,6.141-4.623,11.86-8.025,15.917-8.786,13.477-2.526,32.4,56.2,23.313,66.774-8.764,10.2-27.245,23.476-34.826,24.39" transform="translate(61.036 22.951)" fill="#d3766a"/>
        <g id="Grupo_1076052" data-name="Grupo 1076052" transform="translate(320.557 128.7)" opacity="0.7">
          <g id="Grupo_1076051" data-name="Grupo 1076051">
            <g id="Grupo_1076050" data-name="Grupo 1076050" clip-path="url(#clip-path-9)">
              <path id="Trazado_826619" data-name="Trazado 826619" d="M348.583,225.408a43.762,43.762,0,1,1-49.951-48.359l7.508-64.5-3.513-.4.8-6.909,29.789,3.474-.8,6.909-3.526-.405-7.522,64.5a43.748,43.748,0,0,1,27.215,45.694" transform="translate(-261.009 -104.722)" fill="#fff"/>
              <path id="Trazado_826620" data-name="Trazado 826620" d="M348.646,225.5a44.064,44.064,0,0,1-9.2,22.193l-.933,1.2c-.332.383-.691.743-1.035,1.116-.7.731-1.376,1.494-2.106,2.2a46.725,46.725,0,0,1-4.709,3.858,47.328,47.328,0,0,1-5.156,3.242c-.9.459-1.841.862-2.759,1.3-.464.207-.918.44-1.39.626l-1.44.5a42.532,42.532,0,0,1-11.9,2.5l-3.05.117c-1.017.015-2.031-.106-3.048-.152a47.643,47.643,0,0,1-6.047-.81,44.094,44.094,0,0,1-21.3-11.356l-1.114-1.049-1.013-1.146c-.663-.775-1.368-1.516-2-2.319a46.161,46.161,0,0,1-3.4-5.081,47.688,47.688,0,0,1-2.742-5.47c-.367-.952-.681-1.925-1.025-2.887-.162-.484-.35-.96-.49-1.45l-.361-1.489a44.129,44.129,0,0,1,14.1-44.413A44.841,44.841,0,0,1,298.613,176.6l-.467.48c1.232-10.752,2.41-21.511,3.72-32.253l3.847-32.24.432.546-3.512-.415-.48-.056.056-.478.815-6.907.055-.462.459.055,29.778,3.558.376.045-.044.373-.817,6.905-.042.356-.355-.042-3.524-.415.384-.3-7.706,64.478-.1-.169A43.87,43.87,0,0,1,348.646,225.5m0,0A43.705,43.705,0,0,0,321.37,179.96l-.117-.045.015-.125,7.339-64.521.039-.344.345.039,3.528.394-.4.314.777-6.91.332.419-29.8-3.389.513-.406-.776,6.91-.425-.535,3.514.4.489.054-.055.492-3.663,32.261c-1.193,10.757-2.518,21.5-3.789,32.246l-.049.417-.417.064a43.8,43.8,0,0,0-21.62,9.78A43.3,43.3,0,0,0,263.1,230.981l.347,1.467c.135.484.318.954.475,1.432.333.948.636,1.908.992,2.849a47.11,47.11,0,0,0,2.673,5.4,45.549,45.549,0,0,0,3.329,5.032c.615.8,1.308,1.531,1.957,2.3l.993,1.137,1.094,1.041a43.6,43.6,0,0,0,21,11.348,47.457,47.457,0,0,0,5.989.837c1.007.052,2.012.177,3.022.168l3.027-.1a42.274,42.274,0,0,0,11.827-2.418l1.434-.491c.47-.183.922-.411,1.384-.615.916-.426,1.849-.82,2.752-1.272a48.525,48.525,0,0,0,9.858-7.011c.731-.7,1.4-1.455,2.109-2.181.345-.37.7-.726,1.039-1.105l.936-1.195a43.992,43.992,0,0,0,9.308-22.107" transform="translate(-261.072 -104.817)" fill="#263238"/>
            </g>
          </g>
        </g>
        <path id="Trazado_826621" data-name="Trazado 826621" d="M339.322,206.52a35.908,35.908,0,1,1-66.6-22.381,79.371,79.371,0,0,0,21.735,8.347c15.222,3.445,27.428-3.788,41.054-6.729a35.859,35.859,0,0,1,3.813,20.763" transform="translate(61.005 41.956)" fill="#809993"/>
        <path id="Trazado_826622" data-name="Trazado 826622" d="M267.943,201.194s1.869-24.782,27.969-30.161" transform="translate(61.051 38.97)" fill="#fff"/>
        <path id="Trazado_826623" data-name="Trazado 826623" d="M293.5,134.382c-1.184,7.026,7.774,4.4,7.774,4.4s-11.983,6.888-10.4,14.6c1.545,7.433,12.254,3.879,13.024,3.634-.63.37-11.477,6.988-9.09,14.577,2.486,7.886,12.626,2.473,13.279,2.12-.486.535-6.791,7.735-3.666,13.089,5.373,9.2,22-8.767,30.628-8.736,0,0,1.618,14.622,1.755,15.036,0,0,16.172-16.768,15.562-28.4a7.439,7.439,0,0,0-6.1-7.044s5.811-4.83,4.121-10.865c-.875-3.1-6.607-4.449-6.607-4.449s4.491-4.062,2.653-9.337c-1.454-4.214-6.977-4.915-6.977-4.915s2.5-5.9-.381-9.723c-5.8-7.723-43.02.969-45.569,16.011" transform="translate(66.241 26.316)" fill="#d3766a"/>
        <path id="Trazado_826624" data-name="Trazado 826624" d="M336.754,125.594a.1.1,0,0,0-.007-.2c-12.938-.128-27.193,3.693-37.81,11.225-.349.247-.1.92.336.72,12.428-5.668,23.909-9.706,37.481-11.744" transform="translate(68.075 28.57)" fill="#263238"/>
        <path id="Trazado_826625" data-name="Trazado 826625" d="M341.634,137.317c.147-.021.113-.266-.047-.266-13.332-.061-29.27,4.687-40.486,14.807-.384.349-.382,1.045.092.679,7.968-6.164,28.214-13.449,40.44-15.219" transform="translate(68.543 31.227)" fill="#263238"/>
        <path id="Trazado_826626" data-name="Trazado 826626" d="M304.488,166.939c11.13-9.287,24.117-14.074,38.164-17.072.183-.039.109-.293-.053-.3-7.271-.406-16.025,2.439-22.65,5.227a38.219,38.219,0,0,0-15.785,11.758c-.166.21.087.588.324.389" transform="translate(69.292 34.07)" fill="#263238"/>
        <path id="Trazado_826627" data-name="Trazado 826627" d="M301.345,134.4c-.417.3.476.581.068.89-1.718,1.3-11.378,10.039-9.425,14.255,1.575,3.374,7.2,3.6,9.4,2.839l5.519-1.913-4.52,3.718a23.933,23.933,0,0,0-5.157,5.776c-1.331,2.156-2.085,4.658-1.394,6.85a4.883,4.883,0,0,0,4.857,3.766,14.786,14.786,0,0,0,7.085-2.149l6.028-3.4-4.563,5.164a22.531,22.531,0,0,0-3.223,4.741,9.253,9.253,0,0,0-1.144,5.216,4.4,4.4,0,0,0,2.9,3.618,9.732,9.732,0,0,0,5.421-.5c3.74-1.214,7.269-3.249,10.866-5.091,1.8-.937,3.6-1.881,5.448-2.738a14.458,14.458,0,0,1,5.838-1.676,15.581,15.581,0,0,0-5.586,2.177c-1.759.985-3.472,2.055-5.193,3.127a65.245,65.245,0,0,1-10.83,5.781,11.369,11.369,0,0,1-6.482.8,6.241,6.241,0,0,1-4.484-5.173,11.319,11.319,0,0,1,1.245-6.51,24.655,24.655,0,0,1,3.512-5.333l1.465,1.761a16.95,16.95,0,0,1-8.343,2.623,7.079,7.079,0,0,1-4.534-1.551,7.988,7.988,0,0,1-2.533-4c-.9-3.136.237-6.292,1.762-8.672a25.946,25.946,0,0,1,5.771-6.266l1,1.8c-2.823.872-9.139,1.305-12.238-3.622-3.079-7.026,9.132-15.012,11.468-16.314" transform="translate(65.936 30.622)" fill="#263238"/>
        <path id="Trazado_826628" data-name="Trazado 826628" d="M300.977,136.4a14.355,14.355,0,0,1-4.365-.273,3.306,3.306,0,0,1-2.517-2.213,6.737,6.737,0,0,1,.42-3.8c.489-1.349,1.069-2.743,1.729-4.16a11.381,11.381,0,0,0-3.145,3.512,6.668,6.668,0,0,0-.917,5.017,4.734,4.734,0,0,0,1.642,2.311,4.937,4.937,0,0,0,2.544.869,7.667,7.667,0,0,0,4.609-1.26" transform="translate(66.534 28.698)" fill="#263238"/>
        <path id="Trazado_826629" data-name="Trazado 826629" d="M121.529,283.334s1.75,19.719,4.336,48.254v.012c.079.823.157,1.659.236,2.495,1.266,14.012,2.716,29.971,4.243,46.687h89.626c-6.424-50.225-11.975-93.5-12.445-97.187-.026-.171-.038-.262-.038-.262Z" transform="translate(27.69 64.558)" fill="#37474f"/>
        <path id="Trazado_826630" data-name="Trazado 826630" d="M131.761,292.564q.842,10.343,1.737,20.7v.012c.169,2,.365,3.984.535,5.982v.052c1.736,19.811,3.564,39.623,5.6,59.407h1.292c-2.193-20.359-4.231-40.732-6.294-61.117v-.052c-.222-2.208-.444-4.414-.665-6.635v-.038c-.614-6.112-1.241-12.2-1.868-18.31-.039-.209-.366-.209-.34,0" transform="translate(30.021 66.625)" fill="#263238"/>
        <path id="Trazado_826631" data-name="Trazado 826631" d="M104.49,283.334s4.088,23.128,9.82,55.528v.013c.1.522.2,1.031.287,1.579v.013c2.194,12.394,4.623,26.08,7.144,40.314h62.436l1.424-9.389v-.014l.274-1.841.079-.484,1.031-6.9v-.012l.405-2.586,11.57-76.227Z" transform="translate(23.808 64.558)" fill="#263238"/>
        <path id="Trazado_826632" data-name="Trazado 826632" d="M84.931,380.8h84.808c.026-.366.052-.653.065-.888.026-.379.052-.575.052-.575.47-.262.941-.523,1.424-.771,4.989-2.716,9.364-4.832,12.967-6.438.614-.275,1.2-.535,1.777-.8,1.632-.7,3.094-1.306,4.309-1.777,3.121-1.24,4.859-1.789,4.859-1.789.1-.26.2-.508.287-.77,12.288-31.277,19.693-78.943,20.386-83.385.026-.234.039-.339.039-.339H94.765s-4.611,44.846-9.834,97.527" transform="translate(19.352 64.543)" fill="#37474f"/>
        <path id="Trazado_826633" data-name="Trazado 826633" d="M94.6,378.4h1.123c2.22-28.077,4.283-56.168,6.438-84.259.039-.457-.679-.457-.7.014Q98.105,336.27,94.6,378.4" transform="translate(21.554 66.942)" fill="#263238"/>
        <path id="Trazado_826634" data-name="Trazado 826634" d="M183.793,350.269c-10.272,3.535-20.186,8.554-29.665,13.816a.335.335,0,0,0,.275.61c9.993-4.291,20.185-8.4,29.929-13.234a.655.655,0,0,0-.539-1.192" transform="translate(35.076 79.799)" fill="#263238"/>
        <path id="Trazado_826635" data-name="Trazado 826635" d="M184.624,294.468c-.027-.345-.634-.422-.631-.049a332.992,332.992,0,0,1-1.676,33.39c-.464,5.147-4.606,33.6-13.531,31.521-1.494-.348-2.258-1.818-2.493-4.072-.281-2.709.738-6.031,1.186-8.725.991-5.954,1.787-11.929,2.3-17.945a163.2,163.2,0,0,0-.363-33.653.289.289,0,0,0-.576.033c.014,15.545-.393,31.06-2.717,46.457-1.117,7.4-4.844,18.538,2.894,19.678,7.884,1.159,12.982-17.5,13.943-22.6,2.685-14.243,2.791-29.619,1.666-44.031" transform="translate(37.422 67.027)" fill="#263238"/>
        <path id="Trazado_826636" data-name="Trazado 826636" d="M168.668,347.978a48.174,48.174,0,0,0-2.008,5.9,13.409,13.409,0,0,0-.835,4.848c.034.313.451.344.619.131a17.048,17.048,0,0,0,2.074-4.716c.679-1.823,1.4-3.634,2.023-5.476a1,1,0,0,0-1.874-.683" transform="translate(37.776 79.145)" fill="#263238"/>
        <path id="Trazado_826637" data-name="Trazado 826637" d="M141.948,302.7a15.854,15.854,0,0,0-.381-3.693.188.188,0,0,0-.36.009,14.663,14.663,0,0,0-.417,3.19c-.126,1.224-.287,2.445-.419,3.671a54.026,54.026,0,0,1-1.308,7.431,26.432,26.432,0,0,1-6.815,12.247,35.493,35.493,0,0,1-11.527,7.591c-4.794,2.032-9.839,2.788-14.792,4.243a.188.188,0,0,0,.059.366,42.605,42.605,0,0,0,16.017-3.153,34.229,34.229,0,0,0,12.023-7.67,26.788,26.788,0,0,0,7.01-12.6,37.694,37.694,0,0,0,.96-7.453,34.377,34.377,0,0,0-.052-4.178" transform="translate(24.107 68.1)" fill="#263238"/>
        <path id="Trazado_826638" data-name="Trazado 826638" d="M226.683,332.793,216.435,275.8s10.8-16.5,9.227-36.017c-1.146-14.2-31.886-63.865-34.494-66.3-10.482-9.768-28.169-5.87-35.428-.384-40.207,30.388-55.484,95.593-69.085,159.692Z" transform="translate(19.744 38.165)" fill="#bf9cd9"/>
        <path id="Trazado_826639" data-name="Trazado 826639" d="M161.317,251.44a117.288,117.288,0,0,1,17.378.265c2.868.3,5.7.724,8.543,1.213,1.417.244,2.833.44,4.256.629a18.478,18.478,0,0,0,4.493.173.1.1,0,0,1,.027.206,31.521,31.521,0,0,1-4.22.548,30.451,30.451,0,0,1-4.124-.16c-2.912-.274-5.81-.681-8.719-.985-5.869-.611-11.735-1.222-17.634-1.408-.271-.009-.273-.469,0-.481" transform="translate(36.709 57.246)" fill="#263238"/>
        <path id="Trazado_826640" data-name="Trazado 826640" d="M150.422,257.9a126.859,126.859,0,0,1,14.07-2.79c2.372-.324,4.746-.508,7.138-.631,1.142-.059,2.285-.1,3.427-.12,1.259-.027,2.521.115,3.777.071.13,0,.161.2.027.205-1.184.077-2.36.352-3.537.5s-2.366.285-3.55.432c-2.368.293-4.732.614-7.1.885-4.748.543-9.469,1.131-14.2,1.838-.257.039-.291-.329-.052-.389" transform="translate(34.237 57.954)" fill="#263238"/>
        <path id="Trazado_826641" data-name="Trazado 826641" d="M173.477,174.12l13.889,64.509,12.527,167.035h28.651S198.891,271.328,199,270.247s13.063-15.305,9.446-34.812S175.973,175.9,173.477,174.12" transform="translate(39.527 39.673)" fill="#fff"/>
        <path id="Trazado_826642" data-name="Trazado 826642" d="M175.937,178.346c1.33,3.321,2.711,6.619,4.094,9.916s2.75,6.6,4.171,9.882q4.21,9.863,8.57,19.658l.279-1.247c-3.1,2.523-9.391,8.333-9.391,8.333l11.146,15.2s-1,46.171-1.348,50.37c.813-4.134,3.229-50.84,3.229-50.84l-11.057-15.06-.279,1.461q4.564-3.888,9.068-7.848l.611-.539-.333-.708q-4.551-9.708-9.227-19.358c-1.547-3.222-3.14-6.423-4.728-9.626s-3.169-6.411-4.806-9.592" transform="translate(40.087 40.636)" fill="#dbdbdb"/>
        <path id="Trazado_826643" data-name="Trazado 826643" d="M151.772,181.382c.726,2.544,12.281,17.45,24.014,16.33,3.821-.371,4.259-20.113,4.259-20.113l.274-1.566,3.8-21.9-26.245-15.105-3.783-1.985s-.645,6.062-1.372,13.618c-.036.35-.071.7-.1,1.077-.052.426-.107.828-.136,1.228-.124,1.127-.244,2.279-.34,3.428-.077.875-.157,1.725-.2,2.647-.071.923-.122,1.82-.193,2.743-.506,9.117-.262,18.521.031,19.6" transform="translate(34.508 31.224)" fill="#d3766a"/>
        <path id="Trazado_826644" data-name="Trazado 826644" d="M152.484,150.656a44.6,44.6,0,0,0,27.6,25.377l3.8-21.9-26.245-15.106-3.783-1.984s-.645,6.062-1.372,13.618" transform="translate(34.744 31.224)" fill="#263238"/>
        <path id="Trazado_826645" data-name="Trazado 826645" d="M214.687,127.023c8.228,38.142-13.688,47.377-21.915,49.142-7.468,1.6-33.1,6.109-45.225-30.979s3.008-52.971,19.894-57.538,39.019,1.232,47.246,39.375" transform="translate(32.62 19.667)" fill="#d3766a"/>
        <path id="Trazado_826646" data-name="Trazado 826646" d="M195.744,115.6a25.54,25.54,0,0,1-2.689-.176,4.35,4.35,0,0,1-2.709-.7,1.388,1.388,0,0,1-.238-1.677,3.441,3.441,0,0,1,3.244-1.278,5.055,5.055,0,0,1,3.4,1.32,1.481,1.481,0,0,1-1,2.515" transform="translate(43.275 25.464)" fill="#263238"/>
        <path id="Trazado_826647" data-name="Trazado 826647" d="M174.14,123.826a25.537,25.537,0,0,0,2.531-.926,4.354,4.354,0,0,0,2.4-1.435,1.387,1.387,0,0,0-.243-1.677,3.439,3.439,0,0,0-3.472-.314,5.058,5.058,0,0,0-2.888,2.221,1.481,1.481,0,0,0,1.671,2.132" transform="translate(39.25 27.15)" fill="#263238"/>
        <path id="Trazado_826648" data-name="Trazado 826648" d="M179.444,126.837c-.037-.1-.184.158-.163.265.522,2.607.681,5.679-1.543,6.946-.07.039-.039.169.045.142,2.825-.891,2.574-4.968,1.661-7.354" transform="translate(40.489 28.895)" fill="#263238"/>
        <path id="Trazado_826649" data-name="Trazado 826649" d="M177.349,124.926c-4.268.386-3.183,8.893.771,8.536,3.891-.351,2.806-8.859-.771-8.536" transform="translate(39.785 28.462)" fill="#263238"/>
        <path id="Trazado_826650" data-name="Trazado 826650" d="M176.46,125.477c-.681.576-1.3,1.519-2.186,1.721-1.024.235-1.92-.556-2.706-1.327-.082-.08-.146,0-.134.117.184,1.634,1.024,3.226,2.8,3.246,1.623.018,2.585-1.572,2.782-3.262.037-.313-.285-.727-.559-.495" transform="translate(39.061 28.574)" fill="#263238"/>
        <path id="Trazado_826651" data-name="Trazado 826651" d="M191.093,124.068c.014-.1.216.111.22.22.1,2.656.659,5.681,3.118,6.4.077.022.079.156-.011.15-2.954-.21-3.658-4.234-3.326-6.765" transform="translate(43.523 28.263)" fill="#263238"/>
        <path id="Trazado_826652" data-name="Trazado 826652" d="M193.264,121.682c4.241-.618,5.164,7.909,1.236,8.481-3.867.564-4.791-7.963-1.236-8.481" transform="translate(43.529 27.718)" fill="#263238"/>
        <path id="Trazado_826653" data-name="Trazado 826653" d="M194.339,122.044c.8.4,1.618,1.174,2.526,1.165,1.051-.01,1.739-.987,2.324-1.919.06-.1.142-.031.156.082.2,1.632-.246,3.375-1.969,3.809-1.574.4-2.878-.927-3.464-2.526-.109-.3.107-.774.427-.611" transform="translate(44.176 27.625)" fill="#263238"/>
        <path id="Trazado_826654" data-name="Trazado 826654" d="M181.525,143.444c.684.568,1.387,1.37,2.355,1.373a7.011,7.011,0,0,0,2.791-.9.093.093,0,0,1,.126.126,3.583,3.583,0,0,1-3.244,1.713,2.831,2.831,0,0,1-2.274-2.172c-.053-.151.146-.225.246-.141" transform="translate(41.303 32.676)" fill="#263238"/>
        <path id="Trazado_826655" data-name="Trazado 826655" d="M190.995,139.17s1.092,3.854,1.351,5.708c.023.173-.414.318-1.038.443-.029.014-.044.027-.072.012a8.893,8.893,0,0,1-9.017-2.1c-.153-.163.054-.387.239-.295a13.41,13.41,0,0,0,8.369,1.184c.059-.532-2.09-6.538-1.8-6.6a16.305,16.305,0,0,1,4.343.366c-2.041-8.094-5.362-15.8-7.273-23.885a.255.255,0,0,1,.467-.188c4.053,7.825,6.6,17.089,8.928,25.394.3,1.033-3.712.173-4.5-.039" transform="translate(41.506 25.904)" fill="#263238"/>
        <path id="Trazado_826656" data-name="Trazado 826656" d="M146.249,144.433c6.632.513,8.153-13.39,8.153-13.39s13.474.039,17.919-19.336c0,0-.291,9.019-5.965,16.022,0,0,23.758-2.52,33.761-22.4,0,0-3.989,10.127-7.732,13.729,0,0,9.965-2.78,14.824-10.87,0,0,4.16,11.474,7.363,14.645,0,0-.982-41.571-39.494-37.149,0,0-24.114,1.6-32.773,20.689s3.943,38.062,3.943,38.062" transform="translate(31.732 19.447)" fill="#263238"/>
        <path id="Trazado_826657" data-name="Trazado 826657" d="M168.552,122s-23.145,4.425-27.52,8.18c-1.793,1.538.223,9.941,1.686,10.975.92.65,13.5-5.008,27.025-6.845,0,0-2.489-7.023-1.191-12.309" transform="translate(31.973 27.798)" fill="#455a64"/>
        <g id="Grupo_1076055" data-name="Grupo 1076055" transform="translate(200.337 134.287)" opacity="0.2">
          <g id="Grupo_1076054" data-name="Grupo 1076054">
            <g id="Grupo_1076053" data-name="Grupo 1076053" clip-path="url(#clip-path-10)">
              <path id="Trazado_826658" data-name="Trazado 826658" d="M210.9,134.4a10.415,10.415,0,0,1-.972,1.282c-1.426,1.583-3.3,2.327-6.477,1.521-2.081-.529-3.692-2.558-7.079-2.184a11.439,11.439,0,0,0-5.841,2.134,32.858,32.858,0,0,0-3.221,2.578c-.259.206-.513.441-.766.674a8.312,8.312,0,0,1-.749.6,10.184,10.184,0,0,1-1.261.781c-5.023,2.691-13.344,2.8-16.542.432-2.911-2.163-5.145-8.483-4.8-14.591a18.66,18.66,0,0,1,.6-3.88,14.92,14.92,0,0,1,1.437-3.574c.118-.2.231-.4.356-.584a9.14,9.14,0,0,1,1.19-1.473c3.036-3.131,8.872-5.655,15.229-7.167.647-.146,1.293-.293,1.949-.425,1.408-.291,2.841-.524,4.25-.711,1.633-.209,3.264-.352,4.833-.408,5.577-.22,10.482.571,13.056,2.636a13.407,13.407,0,0,1,3.938,5.884,23.71,23.71,0,0,1,1.006,3.34,31.524,31.524,0,0,1,.518,11.042,6.171,6.171,0,0,1-.647,2.091" transform="translate(-163.161 -109.368)" fill="#fff"/>
            </g>
          </g>
        </g>
        <g id="Grupo_1076058" data-name="Grupo 1076058" transform="translate(200.372 134.323)" opacity="0.2">
          <g id="Grupo_1076057" data-name="Grupo 1076057">
            <g id="Grupo_1076056" data-name="Grupo 1076056" clip-path="url(#clip-path-11)">
              <path id="Trazado_826659" data-name="Trazado 826659" d="M204.841,131.386a10.415,10.415,0,0,1-.972,1.282L190.8,126.115a1.866,1.866,0,0,1-.829-2.5,1.886,1.886,0,0,1,2.139-.974,2.022,2.022,0,0,1,.367.133l13.015,6.526a6.171,6.171,0,0,1-.647,2.091" transform="translate(-157.133 -106.393)" fill="#fff"/>
              <path id="Trazado_826660" data-name="Trazado 826660" d="M190.528,134.481a32.533,32.533,0,0,0-3.219,2.578l-24.12-12.1a18.741,18.741,0,0,1,.6-3.88Z" transform="translate(-163.189 -106.735)" fill="#fff"/>
              <path id="Trazado_826661" data-name="Trazado 826661" d="M182.594,126.029a1.26,1.26,0,0,1-1.438.659.991.991,0,0,1-.249-.088l-16.061-8.052c.117-.2.23-.394.355-.583a9.088,9.088,0,0,1,1.19-1.473l15.649,7.842a1.264,1.264,0,0,1,.555,1.7" transform="translate(-162.812 -107.781)" fill="#fff"/>
              <path id="Trazado_826662" data-name="Trazado 826662" d="M206.387,121.256,183.554,109.8c1.634-.208,3.265-.351,4.834-.408l16.992,8.52a23.927,23.927,0,0,1,1.007,3.34" transform="translate(-158.549 -109.397)" fill="#fff"/>
              <path id="Trazado_826663" data-name="Trazado 826663" d="M203.073,122.353a.628.628,0,0,1-.717.323.477.477,0,0,1-.131-.045l-23.717-11.9c.647-.146,1.293-.293,1.949-.425l22.34,11.2a.625.625,0,0,1,.278.847" transform="translate(-159.699 -109.189)" fill="#fff"/>
              <path id="Trazado_826664" data-name="Trazado 826664" d="M184.168,136.347a10.186,10.186,0,0,1-1.261.781l-12.245-6.137a.631.631,0,0,1-.276-.847.619.619,0,0,1,.716-.324.588.588,0,0,1,.131.047Z" transform="translate(-161.565 -104.748)" fill="#fff"/>
            </g>
          </g>
        </g>
        <path id="Trazado_826665" data-name="Trazado 826665" d="M171.5,144.659a9.192,9.192,0,0,1-3.778-1.857c-4.46-3.848-7.559-15.648-2.537-23.44,3.377-5.239,13.52-8.547,21.179-9.787,7.1-1.15,16.151-1.207,20.251,2.091,6.768,5.441,6.8,18.876,5,23.09-1.228,2.877-4.444,4.121-8.193,3.17a11.547,11.547,0,0,1-2.269-.933,8.776,8.776,0,0,0-4.622-1.243c-3.147.157-4.888,1.41-9.452,5.245a18.862,18.862,0,0,1-15.581,3.663m-5.259-24.616c-4.532,7.032-1.849,18.227,2.3,21.809,3.805,3.283,12.752,2.365,17.73-1.817,4.412-3.708,6.517-5.355,10.2-5.539a9.926,9.926,0,0,1,5.242,1.372,10.635,10.635,0,0,0,2.021.841c2.48.63,5.551.317,6.729-2.445,1.639-3.842,1.572-16.629-4.634-21.619-3.16-2.54-10.541-3.242-19.262-1.829-9.752,1.579-17.73,5.2-20.325,9.227" transform="translate(37.049 24.804)" fill="#455a64"/>
        <path id="Trazado_826666" data-name="Trazado 826666" d="M155.271,137.08s-9.978-11.014-15.079-7.307,3.469,20.418,10.208,22a6.6,6.6,0,0,0,8.326-4.629Z" transform="translate(31.59 29.395)" fill="#d3766a"/>
        <path id="Trazado_826667" data-name="Trazado 826667" d="M142.017,133.484a.09.09,0,0,0-.012.177c4.744,1.257,7.651,5.141,9.863,9.269-1.553-1.5-3.5-2.183-5.531-.3-.107.1.028.269.152.226a4.059,4.059,0,0,1,4.609.845,19.555,19.555,0,0,1,2.576,3.315c.263.377.964.069.751-.376-.016-.033-.034-.066-.05-.1-.615-5.768-6.106-13.255-12.358-13.052" transform="translate(32.34 30.413)" fill="#263238"/>
        <path id="Trazado_826668" data-name="Trazado 826668" d="M149.006,148.154a2.135,2.135,0,1,0,2.135-2.134,2.135,2.135,0,0,0-2.135,2.134" transform="translate(33.951 33.271)" fill="#fff"/>
        <path id="Trazado_826669" data-name="Trazado 826669" d="M179.912,171.942l-1.049,10.875c-.506,11.914-2.054,16.674-4.627,16.852-8.433.583-21.605-21.422-22.52-26.033s28.2-1.694,28.2-1.694" transform="translate(34.564 38.97)" fill="#d3766a"/>
        <path id="Trazado_826670" data-name="Trazado 826670" d="M74.188,406.979h113.9L168.882,168.345s-4.086-.277-14.241,6.754c-10.833,7.5-21.857,22.867-36.746,55.07C83.514,304.533,74.188,406.979,74.188,406.979" transform="translate(16.904 38.357)" fill="#fff"/>
        <path id="Trazado_826671" data-name="Trazado 826671" d="M165.583,194.051c-3.822,12.31-36.731,92.941-48.7,107.378-9.095,10.974-37.7,25.094-45.345-3.894-5.091-19.315,53.491-97.268,79.907-120.087,12.131-10.481,22.153-9.227,14.133,16.6" transform="translate(16.23 39.027)" fill="#ebebeb"/>
        <path id="Trazado_826672" data-name="Trazado 826672" d="M86.846,305.174a33.153,33.153,0,0,0,13.955-3.881,38.3,38.3,0,0,0,11.3-8.92,50.149,50.149,0,0,0,4.328-5.78c1.3-2.035,2.483-4.17,3.645-6.309,2.3-4.3,4.444-8.7,6.526-13.12,4.266-8.8,8.22-17.763,12.223-26.7l11.938-26.868c-1.632,4.627-3.41,9.194-5.15,13.78q-2.695,6.842-5.486,13.648-5.61,13.6-11.866,26.935c-2.141,4.418-4.347,8.81-6.718,13.127-1.2,2.151-2.416,4.3-3.779,6.374a41.771,41.771,0,0,1-4.62,5.862,39.117,39.117,0,0,1-11.952,8.778,35.6,35.6,0,0,1-7.021,2.371,26.823,26.823,0,0,1-7.328.706" transform="translate(19.788 48.667)" fill="#263238"/>
        <path id="Trazado_826673" data-name="Trazado 826673" d="M135.314,223.856a38.236,38.236,0,0,1,2.869-4.072c1.024-1.3,2.052-2.544,3.131-3.846a12.819,12.819,0,0,1-2.408,4.414,17.737,17.737,0,0,1-3.593,3.5" transform="translate(30.831 49.202)" fill="#263238"/>
        <path id="Trazado_826674" data-name="Trazado 826674" d="M154.5,168.346c-1.73,3.957-13.7,39.238-16.917,47.249l-.291.726.632.5q6.439,5.1,12.948,10.106l-.222-1.653-12.033,15.9-.4.526.242.61c3.479,8.806,25.563,49.405,27.51,53.726-1.511-4.491-21.889-45.761-25.329-54.582l-.157,1.136L152.539,226.7l.712-.938-.934-.716q-6.522-4.991-13.1-9.909l.341,1.225c3.076-8.066,13.528-43.94,14.944-48.021" transform="translate(31.282 38.358)" fill="#dbdbdb"/>
        <path id="Trazado_826675" data-name="Trazado 826675" d="M98.366,318.282c-.449,14.362.211,30.614,3.267,33.6,5.725,5.6,20.967,5.121,25.743,5.083,4.742-.037,21.863-.054,25.866-8.854,1.767-3.882,2.235-23.931,2.188-31.031-.02-2.879-.669-17.057-.882-18.645-.05-.375-1.067-.332-1.1-.085-.242,1.623-.086,7.508-.171,8.627-27.482,3.531-44.494.58-53.311-1.122.006-2.65,0-4.714-.044-7.365,3.779.949,16.5,2.466,26.029,2.466a285.069,285.069,0,0,0,28.546-2.027c.219-.028.056-1.084-.273-1.079-3.579.048-16,1.265-28.5,1.265A227.92,227.92,0,0,1,99,297.032c-.409.126-.415,14.368-.63,21.25m4.935,31.961c-3.034-3.485-3.406-13.519-3.4-19.506,0-8.265.032-14.864.059-23.127,21.157,4.92,44.443,2.5,53.271.711-.025.354.161,17.785,0,23.338-.205,7.092-.436,13.506-3.157,17.19-2.334,3.16-8.919,6.331-24.062,6.312-10.948-.013-20.171-2-22.709-4.919" transform="translate(22.384 67.679)" fill="#dbdbdb"/>
        <path id="Trazado_826676" data-name="Trazado 826676" d="M83.1,174.988c4.084-16.226,11.262-38.7,17.68-42.864,6.735-4.375,31.03-18.8,37.758-20.336s31.893,2.052,36.864,5.7c3.981,2.925-.878,11.96-14.81,12.775-13.026.759-16.178.3-19.8,1.414-3.692,1.137-13.42,11.615-11.662,16.92,1.036,3.126,9.313,7.57,14.965,5.725s8.346-8.029,15.05-12.383,17.49-2.55,17.8.449-3.428,3.975-10.075,13.326c-4.274,6.013-6.393,17.029-15.7,27.16-4.678,5.091-13.387,19.05-13.387,19.05Z" transform="translate(18.935 25.388)" fill="#d3766a"/>
        <path id="Trazado_826677" data-name="Trazado 826677" d="M97.5,132.9c6.133-7.65,21.157-21.01,34.986-24.652,9.348-2.462,38.58,15.945,37.036,21.749S162.7,135.242,155,133.461c-2.809-.65-17.266-7.695-20.174-4.819-4.182,4.134-10.558,19.129-10.558,19.129Z" transform="translate(22.216 24.613)" fill="#d3766a"/>
        <path id="Trazado_826678" data-name="Trazado 826678" d="M159.331,126.683c-3.125-6.735-11.141-11.02-19.193-14.594-.125-.055-.22.135-.1.19,2.051.912,14.963,8.651,19.185,14.494.048.066.134-.022.1-.09" transform="translate(31.896 25.537)" fill="#263238"/>
        <path id="Trazado_826679" data-name="Trazado 826679" d="M97.5,132.892c6.133-7.65,21.157-21.01,34.986-24.652,9.348-2.462,31.674,19.445,30.128,25.249s-9.174,5.444-17.23,1.616c-2.6-1.238-10.981-8.617-13.889-5.741-4.181,4.134-14.4,14.416-14.4,14.416Z" transform="translate(22.216 24.619)" fill="#d3766a"/>
        <path id="Trazado_826680" data-name="Trazado 826680" d="M118.333,137.5c.984-1.2,1.32-1.628,2.326-2.818s2.021-2.353,3.105-3.46a11.821,11.821,0,0,1,3.086-2.615,5.963,5.963,0,0,1,3.784-.324c2.874.586,5.3,2.717,7.605,4.4,2.577,1.877,8,5.062,12.422,5.076a8.647,8.647,0,0,0,3.552-.559,5.429,5.429,0,0,0,2.245-1.422c2.245-3.008.277-6.935-1.859-9.8-3.981-5.334-9.663-9.508-15.234-13.036-1.368-.867-2.758-1.7-4.146-2.531a13.1,13.1,0,0,0-5.134-2.092c-3.034-.354-8.343,2.187-9.991,2.951-.124.059-.19-.142-.069-.2,1.993-.961,7.031-4.24,11.9-3.459,1.782.289,3.357,1.39,4.91,2.273,1.627.922,3.226,1.9,4.8,2.912a69.329,69.329,0,0,1,8.734,6.542c2.566,2.295,5.282,4.942,6.849,8.051,1.358,2.694,1.455,6.327-.421,8.8-1.583,2.08-4.5,2.306-5.826,2.332a14.549,14.549,0,0,1-3.862-.459,61.559,61.559,0,0,1-8.127-3.372c-2.539-1.347-4.736-3.4-7.383-4.523a5.147,5.147,0,0,0-3.989-.174,13.726,13.726,0,0,0-3.255,2.378,41.894,41.894,0,0,0-5.588,5.325c-.458.539-.844.313-.432-.192" transform="translate(26.922 24.492)" fill="#263238"/>
        <path id="Trazado_826681" data-name="Trazado 826681" d="M93.7,141.731c2.35-3.7,7.355-19.469,11.005-24.072s19.729-20.153,26.285-18.688c8.238,1.841-2.092,15.918-7.136,21.631s-5.453,16.31-5.453,16.31Z" transform="translate(21.349 22.528)" fill="#d3766a"/>
        <path id="Trazado_826682" data-name="Trazado 826682" d="M126.465,108.763c-1.766,1.79-3.378,3.811-4.956,5.768a49.241,49.241,0,0,0-4.4,5.728,21.722,21.722,0,0,0-2.376,6.691c-.237,1.149-.4,2.3-.534,3.465-.146,1.271-.172,2.564-.34,3.828-.018.135.187.178.208.042a54.567,54.567,0,0,1,1.659-6.815,29.723,29.723,0,0,1,2.841-6.656c2.425-4.155,5.7-7.738,8.166-11.868.1-.167-.145-.309-.27-.183" transform="translate(25.943 24.771)" fill="#263238"/>
        <path id="Trazado_826683" data-name="Trazado 826683" d="M113.788,131.3a20.372,20.372,0,0,0,.608,5.845,42.854,42.854,0,0,0,1.666,5.635,55.855,55.855,0,0,0,2.268,5.407c.819,1.771,1.866,3.4,2.879,5.12a37.85,37.85,0,0,1,4.768,10.977,33.911,33.911,0,0,1,.643,11.883,42.172,42.172,0,0,0-1.519-11.65,43.811,43.811,0,0,0-4.936-10.587,49.622,49.622,0,0,1-2.9-5.236,44.638,44.638,0,0,1-2.139-5.6c-1.094-3.8-2.057-7.839-1.335-11.791" transform="translate(25.87 29.916)" fill="#263238"/>
        <path id="Trazado_826684" data-name="Trazado 826684" d="M130.431,149.656a10.457,10.457,0,0,0,6.956-3.529c1.694-1.7,3.281-3.509,4.991-5.2a24.836,24.836,0,0,1,5.581-4.484,28.3,28.3,0,0,1,7.638-2.43,15.451,15.451,0,0,1,7.691.011c2.06.631,4.364,2.332,3.661,4.828a9.416,9.416,0,0,1-1.758,3.065,24.181,24.181,0,0,1-2.362,2.561c-1.7,1.635-3.534,3.14-5.076,4.938-2.059,2.4-3.25,5.437-4.618,8.274-.5,1.049-3.677,8.165-4.929,10.6a38.7,38.7,0,0,1-3.652,5.908,54.159,54.159,0,0,1-4.464,4.85,32.358,32.358,0,0,0-4.6,5.5c-.059.095-.194,0-.158-.1,1.5-3.946,4.738-6.913,7.653-9.8,3.787-3.747,10.849-21.277,12.233-23.72,2.3-4.065,6.354-6.436,9.132-10.086.637-.837,1.622-2.051,1.434-3.191a3.247,3.247,0,0,0-2.29-2.187c-2.4-.858-5.108-.39-7.5.2A33.872,33.872,0,0,0,148.652,138a24.823,24.823,0,0,0-5.55,4c-1.907,1.771-3.727,3.593-5.759,5.218a10.443,10.443,0,0,1-6.946,2.641c-.126,0-.1-.192.033-.2" transform="translate(29.693 30.426)" fill="#263238"/>
        <path id="Trazado_826685" data-name="Trazado 826685" d="M155.78,115.553c-1.821-.587-3.634-1.24-5.465-1.784-.048-.015-.037-.09.014-.077,2.157.516,4.358.885,6.526,1.381,1.709.393,3.524,1.068,4.451,2.669a4.823,4.823,0,0,1-.281,4.812,12.98,12.98,0,0,1-4.035,3.684.079.079,0,0,1-.093-.126c2.258-1.783,5.676-5.215,3.194-8.2a8.847,8.847,0,0,0-4.31-2.359" transform="translate(34.242 25.904)" fill="#263238"/>
        <path id="Trazado_826686" data-name="Trazado 826686" d="M149.977,130.832c1.949-.223,4.079-.572,5.647-1.845a4.145,4.145,0,0,0,1.655-3.436,2.055,2.055,0,0,0-.384-1.372c-.1-.091.08-.205.123-.088a6.4,6.4,0,0,0,.424.71,3.024,3.024,0,0,1,.241.653,3.519,3.519,0,0,1,.083,1.368,4.462,4.462,0,0,1-1.373,2.621c-1.731,1.663-4.15,1.885-6.42,1.552a.083.083,0,0,1,0-.163" transform="translate(34.156 28.263)" fill="#263238"/>
        <path id="Trazado_826687" data-name="Trazado 826687" d="M140.6,190.453c-2.019,15.848-24.725,99.157-32.037,111.912S82.335,323.273,73.3,303.421s8.2-123.453,12.625-139.91c2.466-9.163,55.41,21.209,54.68,26.941" transform="translate(16.113 36.866)" fill="#d3766a"/>
        <path id="Trazado_826688" data-name="Trazado 826688" d="M149.187,197.766,80.943,170.328s-13.6,96.281-9.973,124.844c2.6,20.505,27.523,31.437,42.907,1s35.309-98.41,35.309-98.41" transform="translate(16.03 38.809)" fill="#fff"/>
        <path id="Trazado_826689" data-name="Trazado 826689" d="M140.169,207.533c-10.277-3.742-51.775-20.591-60.495-24.838-.605-.293-.565-.749.1-.523,31.067,10.471,50.633,20.764,60.524,24.95.247.1.128.506-.134.411" transform="translate(18.056 41.494)" fill="#263238"/>
        <path id="Trazado_826690" data-name="Trazado 826690" d="M118.695,257.749c4.85-13.447,9.416-26.992,13.291-40.752q1.626-5.776,3.145-11.58c.968-3.722,1.969-7.453,2.774-11.216-1.454-.732-7.786-3.679-8.5-4.172a.26.26,0,0,1,.206-.454c.808.177,8.087,3.1,9.664,3.957.222.12-1.637,7.491-2.461,11.005s-1.687,7.018-2.6,10.51q-2.707,10.373-5.931,20.6-3.457,11.021-7.473,21.829c-2.308,6.177-8.368,17.586-2.124.274" transform="translate(26.42 43.193)" fill="#263238"/>
      </g>
    </g>
    <rect id="Rectángulo_379723" data-name="Rectángulo 379723" width="4.833" height="94.371" transform="translate(268.452 395.536)" fill="#263238"/>
    <rect id="Rectángulo_379724" data-name="Rectángulo 379724" width="103.098" height="6.611" transform="translate(273.284 483.297)" fill="#263238"/>
    <g id="Grupo_1076074" data-name="Grupo 1076074">
      <g id="Grupo_1076073" data-name="Grupo 1076073" clip-path="url(#clip-path)">
        <path id="Trazado_826691" data-name="Trazado 826691" d="M254.8,317.051l-.356,79a9.32,9.32,0,0,1-18.64-.083l.356-79Z" transform="translate(53.727 72.221)" fill="#ebebeb"/>
        <path id="Trazado_826692" data-name="Trazado 826692" d="M253.412,335.66l-.253,56.094a8.238,8.238,0,1,1-16.477-.075l.253-56.094Z" transform="translate(53.928 76.463)" fill="#82938f"/>
        <rect id="Rectángulo_379725" data-name="Rectángulo 379725" width="12.28" height="24.482" transform="matrix(0.005, -1, 1, 0.005, 286.941, 394.493)" fill="#ffc727"/>
        <path id="Trazado_826693" data-name="Trazado 826693" d="M278.188,317.051l-.356,79a9.32,9.32,0,0,1-18.64-.083l.356-79Z" transform="translate(59.057 72.221)" fill="#ebebeb"/>
        <path id="Trazado_826694" data-name="Trazado 826694" d="M276.8,335.66l-.253,56.094a8.238,8.238,0,1,1-16.477-.075l.253-56.094Z" transform="translate(59.258 76.463)" fill="#6ca8ff"/>
        <rect id="Rectángulo_379726" data-name="Rectángulo 379726" width="12.28" height="24.482" transform="translate(315.66 394.493) rotate(-89.741)" fill="#455a64"/>
        <path id="Trazado_826695" data-name="Trazado 826695" d="M325.668,350.841l-.026,8.828H222.572v-8.828h16.743V353.8c0,1.457,4.116,2.634,9.184,2.634s9.178-1.176,9.178-2.634v-2.958h10.359V353.8c0,1.457,4.108,2.634,9.178,2.634s9.177-1.176,9.177-2.634v-2.958H296.76V353.8c0,1.457,4.107,2.634,9.177,2.634s9.177-1.176,9.177-2.634v-2.958Z" transform="translate(50.713 79.939)" fill="#455a64"/>
        <rect id="Rectángulo_379727" data-name="Rectángulo 379727" width="103.098" height="3.556" transform="translate(273.284 439.612)" fill="#263238"/>
        <rect id="Rectángulo_379728" data-name="Rectángulo 379728" width="4.833" height="94.371" transform="translate(376.381 395.536)" fill="#263238"/>
        <path id="Trazado_826696" data-name="Trazado 826696" d="M167.642,400.482H77.432S89.453,360.6,95.371,346.653A16.746,16.746,0,0,0,98.4,348.7a14.457,14.457,0,0,0,2.7,1.105,13.292,13.292,0,0,0,1.768.442,1.076,1.076,0,0,0,.2.025,4.835,4.835,0,0,0,.589.074c5.083.417,12.463-3.438,19.6-6.066a32.956,32.956,0,0,1,9.6-2.321c6.311-.27,13.052,2.935,16.957,5.182,5.869,13.826,17.828,53.338,17.828,53.338" transform="translate(17.643 77.913)" fill="#4793ff"/>
        <path id="Trazado_826697" data-name="Trazado 826697" d="M119.932,344.309c-7.514,2.768-15.3,6.9-20.384,5.965a16.092,16.092,0,0,1-7.5-3.591c-.436-2.443,7.166-5.547,16.693-4.711a70.627,70.627,0,0,1,11.193,2.338" transform="translate(20.969 77.886)" fill="#4793ff"/>
        <g id="Grupo_1076063" data-name="Grupo 1076063" transform="translate(112.997 424.791)" opacity="0.2">
          <g id="Grupo_1076062" data-name="Grupo 1076062" transform="translate(0 -4)">
            <g id="Grupo_1076061" data-name="Grupo 1076061" clip-path="url(#clip-path-13)">
              <path id="Trazado_826698" data-name="Trazado 826698" d="M119.932,344.309c-7.514,2.768-15.3,6.9-20.384,5.965a16.092,16.092,0,0,1-7.5-3.591c-.436-2.443,7.166-5.547,16.693-4.711a70.627,70.627,0,0,1,11.193,2.338" transform="translate(-92.028 -341.831)"/>
            </g>
          </g>
        </g>
        <g id="Grupo_1076066" data-name="Grupo 1076066" transform="translate(106.201 368.969)" opacity="0.3">
          <g id="Grupo_1076065" data-name="Grupo 1076065">
            <g id="Grupo_1076064" data-name="Grupo 1076064" clip-path="url(#clip-path-14)">
              <path id="Trazado_826699" data-name="Trazado 826699" d="M87.943,382.784a1.436,1.436,0,0,1-.581-.123,1.451,1.451,0,0,1-.748-1.911c7.487-17.1,19.449-45.224,19.676-47.869V301.951a1.451,1.451,0,1,1,2.9,0v30.964c0,3.242-15.246,38.325-19.918,49a1.45,1.45,0,0,1-1.33.869" transform="translate(-86.494 -300.5)" fill="#fff"/>
            </g>
          </g>
        </g>
        <g id="Grupo_1076069" data-name="Grupo 1076069" transform="translate(113.898 373.891)" opacity="0.3">
          <g id="Grupo_1076068" data-name="Grupo 1076068">
            <g id="Grupo_1076067" data-name="Grupo 1076067" clip-path="url(#clip-path-15)">
              <path id="Trazado_826700" data-name="Trazado 826700" d="M93.052,374.917a.3.3,0,0,1-.117-.025.289.289,0,0,1-.149-.382c6.014-13.741,17.389-40.3,17.389-42.474V304.8a.29.29,0,1,1,.581,0v27.237c0,2.835-16.726,41.079-17.438,42.706a.291.291,0,0,1-.266.174" transform="translate(-92.762 -304.509)" fill="#fff"/>
            </g>
          </g>
        </g>
        <g id="Grupo_1076072" data-name="Grupo 1076072" transform="translate(94.532 362.213)" opacity="0.2">
          <g id="Grupo_1076071" data-name="Grupo 1076071">
            <g id="Grupo_1076070" data-name="Grupo 1076070" clip-path="url(#clip-path-16)">
              <path id="Trazado_826701" data-name="Trazado 826701" d="M167.642,411.077H77.432s12.021-39.88,17.939-53.829L96,355.774c4.813-11.37,8.939-21.377,8.939-22.6V295.45h35.1v37.72c0,1.289,4.592,12.4,9.774,24.569,5.869,13.826,17.828,53.338,17.828,53.338" transform="translate(-77.432 -294.895)" fill="#fff"/>
              <path id="Trazado_826702" data-name="Trazado 826702" d="M167.743,411.18l-44.974.262-45.236.141-.543,0,.156-.522q4.347-14.416,8.963-28.745c1.553-4.773,3.124-9.54,4.786-14.281,1.647-4.733,3.426-9.474,5.423-14.069,1.938-4.625,3.871-9.254,5.719-13.908l1.352-3.5.626-1.755a7.685,7.685,0,0,0,.431-1.627l-.017-7.525.054-30.1V295h.553l35.1.08h.475v.473l-.068,30.109-.017,7.527a7.714,7.714,0,0,0,.443,1.692l.629,1.761,1.351,3.5c1.849,4.66,3.782,9.29,5.724,13.915,4.052,9.208,7.092,18.8,10.195,28.344q4.6,14.338,8.871,28.775m0,0q-4.488-14.37-9.249-28.651c-1.6-4.755-3.221-9.5-4.926-14.22-1.685-4.73-3.481-9.387-5.513-13.984-1.965-4.619-3.919-9.242-5.793-13.9l-1.372-3.514-.646-1.779a7.792,7.792,0,0,1-.492-1.94l-.017-7.527-.068-30.109.474.474-35.1.079.554-.553.053,30.1-.016,7.525a7.736,7.736,0,0,1-.5,2l-.646,1.785-1.375,3.515c-1.876,4.662-3.832,9.284-5.791,13.9-2.025,4.6-3.792,9.251-5.465,13.985s-3.27,9.477-4.843,14.238Q82.3,396.9,77.919,411.3l-.387-.521,44.974.142Z" transform="translate(-76.99 -294.998)" fill="#263238"/>
              <path id="Trazado_826703" data-name="Trazado 826703" d="M100.09,302.353a19.463,19.463,0,0,1,8.417,0,19.463,19.463,0,0,1-8.417,0" transform="translate(-71.726 -293.427)" fill="#263238"/>
              <path id="Trazado_826704" data-name="Trazado 826704" d="M100.09,305.9a4.614,4.614,0,0,1,2.1-.46,4.566,4.566,0,0,1,2.1.46,4.566,4.566,0,0,1-2.1.46,4.615,4.615,0,0,1-2.1-.46" transform="translate(-71.726 -292.619)" fill="#263238"/>
              <path id="Trazado_826705" data-name="Trazado 826705" d="M100.09,308.615a4.614,4.614,0,0,1,2.1-.46,4.566,4.566,0,0,1,2.1.46,4.566,4.566,0,0,1-2.1.46,4.614,4.614,0,0,1-2.1-.46" transform="translate(-71.726 -292)" fill="#263238"/>
              <path id="Trazado_826706" data-name="Trazado 826706" d="M100.09,311.331a4.616,4.616,0,0,1,2.1-.46,4.566,4.566,0,0,1,2.1.46,4.566,4.566,0,0,1-2.1.46,4.614,4.614,0,0,1-2.1-.46" transform="translate(-71.726 -291.381)" fill="#263238"/>
              <path id="Trazado_826707" data-name="Trazado 826707" d="M100.09,313.825a17.357,17.357,0,0,1,4.208-.46,17.184,17.184,0,0,1,4.209.46,19.463,19.463,0,0,1-8.417,0" transform="translate(-71.726 -290.813)" fill="#263238"/>
              <path id="Trazado_826708" data-name="Trazado 826708" d="M100.09,317.372a4.615,4.615,0,0,1,2.1-.46,4.566,4.566,0,0,1,2.1.46,4.565,4.565,0,0,1-2.1.46,4.614,4.614,0,0,1-2.1-.46" transform="translate(-71.726 -290.005)" fill="#263238"/>
              <path id="Trazado_826709" data-name="Trazado 826709" d="M100.09,320.088a4.615,4.615,0,0,1,2.1-.46,4.566,4.566,0,0,1,2.1.46,4.566,4.566,0,0,1-2.1.46,4.614,4.614,0,0,1-2.1-.46" transform="translate(-71.726 -289.386)" fill="#263238"/>
              <path id="Trazado_826710" data-name="Trazado 826710" d="M100.09,322.8a4.615,4.615,0,0,1,2.1-.46,4.566,4.566,0,0,1,2.1.46,4.566,4.566,0,0,1-2.1.46,4.615,4.615,0,0,1-2.1-.46" transform="translate(-71.726 -288.767)" fill="#263238"/>
            </g>
          </g>
        </g>
        <path id="Trazado_826711" data-name="Trazado 826711" d="M36.181,399.507H7.263V360.649A10.407,10.407,0,0,1,17.67,350.243h8.105a10.407,10.407,0,0,1,10.406,10.406Z" transform="translate(1.655 79.803)" fill="#dbdbdb"/>
        <rect id="Rectángulo_379733" data-name="Rectángulo 379733" width="14.904" height="8.661" transform="translate(15.925 422.805)" fill="#dbdbdb"/>
        <rect id="Rectángulo_379734" data-name="Rectángulo 379734" width="20.16" height="7.707" transform="translate(13.298 418.767)" fill="#ffc727"/>
        <rect id="Rectángulo_379735" data-name="Rectángulo 379735" width="21.334" height="19.497" transform="translate(11.336 448.319)" fill="#fff"/>
        <path id="Trazado_826712" data-name="Trazado 826712" d="M64.558,399.507H35.641V360.649a10.406,10.406,0,0,1,10.406-10.406h8.105a10.406,10.406,0,0,1,10.406,10.406Z" transform="translate(8.121 79.803)" fill="#dbdbdb"/>
        <rect id="Rectángulo_379736" data-name="Rectángulo 379736" width="14.904" height="8.661" transform="translate(50.768 422.805)" fill="#dbdbdb"/>
        <rect id="Rectángulo_379737" data-name="Rectángulo 379737" width="20.16" height="7.707" transform="translate(48.14 418.767)" fill="#455a64"/>
        <rect id="Rectángulo_379738" data-name="Rectángulo 379738" width="21.334" height="19.497" transform="translate(46.177 448.319)" fill="#fff"/>
      </g>
    </g>
    <g id="Grupo_1076076" data-name="Grupo 1076076">
      <g id="Grupo_1076075" data-name="Grupo 1076075" clip-path="url(#clip-path)">
        <path id="Trazado_826713" data-name="Trazado 826713" d="M415.317,371.334h-10.9s-2.6-40.1-26.868-42.105c-12.841-1.061-24.681,8.08-33.9,18.358,9.127-10.359,25.3-23.731,40.73-23.731,23.237,0,30.932,47.478,30.932,47.478" transform="translate(78.302 73.791)" fill="#263238"/>
        <path id="Trazado_826714" data-name="Trazado 826714" d="M343.456,267.7l16.707-34.062,5.655,7.651L351.488,267.7Z" transform="translate(78.257 53.235)" fill="#263238"/>
        <rect id="Rectángulo_379740" data-name="Rectángulo 379740" width="40.853" height="9.803" transform="translate(426.178 325.257) rotate(-62.186)" fill="#455a64"/>
        <path id="Trazado_826715" data-name="Trazado 826715" d="M354.155,275.33l5.2-1.41,15.692-29.062-1.826-5.662Z" transform="translate(80.694 54.501)" fill="#37474f"/>
        <path id="Trazado_826716" data-name="Trazado 826716" d="M312,288.2l-.51-.226a3.25,3.25,0,0,1-1.653-4.288l7.856-17.708a3.249,3.249,0,0,1,4.288-1.651l.51.226a3.25,3.25,0,0,1,1.653,4.288L316.29,286.55A3.249,3.249,0,0,1,312,288.2" transform="translate(70.533 60.164)" fill="#37474f"/>
        <path id="Trazado_826717" data-name="Trazado 826717" d="M328.185,297.921l-.51-.226a3.25,3.25,0,0,1-1.653-4.288l7.856-17.708a3.249,3.249,0,0,1,4.288-1.651l.51.226a3.25,3.25,0,0,1,1.653,4.288l-7.856,17.707a3.249,3.249,0,0,1-4.288,1.653" transform="translate(74.221 62.378)" fill="#37474f"/>
        <path id="Trazado_826718" data-name="Trazado 826718" d="M317.195,301.394l-.9-.4a4.408,4.408,0,0,1-2.242-5.816l9.937-22.4a4.407,4.407,0,0,1,5.815-2.242l.9.4a4.406,4.406,0,0,1,2.241,5.815l-9.937,22.4a4.406,4.406,0,0,1-5.815,2.241" transform="translate(71.47 61.556)" fill="#37474f"/>
        <path id="Trazado_826719" data-name="Trazado 826719" d="M348.081,220.655l-.9-.4a4.408,4.408,0,0,1-2.241-5.816l9.937-22.4a4.408,4.408,0,0,1,5.815-2.242l.9.4a4.406,4.406,0,0,1,2.241,5.815l-9.937,22.4a4.406,4.406,0,0,1-5.815,2.241" transform="translate(78.508 43.16)" fill="#37474f"/>
        <path id="Trazado_826720" data-name="Trazado 826720" d="M360.018,225.951l-.9-.4a4.408,4.408,0,0,1-2.242-5.816l9.937-22.4a4.408,4.408,0,0,1,5.815-2.242l.9.4a4.406,4.406,0,0,1,2.241,5.815l-9.936,22.4a4.408,4.408,0,0,1-5.816,2.241" transform="translate(81.228 44.366)" fill="#37474f"/>
        <path id="Trazado_826721" data-name="Trazado 826721" d="M316.3,278.416l35.081-73.04s10.014.341,27.36,12.368L341.48,290.61A69.886,69.886,0,0,1,316.3,278.416" transform="translate(72.07 46.795)" fill="#37474f"/>
        <path id="Trazado_826722" data-name="Trazado 826722" d="M350.308,284.444s-33.056-9.752-42.14-18.694l2.893-6.519A89.013,89.013,0,0,1,353.2,277.925Z" transform="translate(70.216 59.066)" fill="#455a64"/>
        <path id="Trazado_826723" data-name="Trazado 826723" d="M373.908,221.033s-13.085-11.151-30.848-14.507l3.035-6.454c18.769-.323,30.849,14.507,30.849,14.507Z" transform="translate(78.166 45.585)" fill="#455a64"/>
        <path id="Trazado_826724" data-name="Trazado 826724" d="M353.489,257.1s-14.459-9.566-26.921-12.659a1.345,1.345,0,0,1-.684-1.9l3.4-7.227a1.543,1.543,0,0,1,1.9-.683C347.957,238.893,358.1,247.3,358.1,247.3a1.425,1.425,0,0,1,.684,1.9l-3.4,7.227a1.425,1.425,0,0,1-1.9.683" transform="translate(74.22 53.445)" fill="#455a64"/>
        <path id="Trazado_826725" data-name="Trazado 826725" d="M367.321,245.888l2.614-1.166s36.482,16.177,34.59,59.677c-1.252,28.818-22.273,48.737-22.273,48.737s25.568-32.985,16.009-63.522-30.939-43.726-30.939-43.726" transform="translate(83.694 55.76)" fill="#455a64"/>
        <path id="Trazado_826726" data-name="Trazado 826726" d="M409.429,307.183c-2.1,26.574-19.328,45.736-19.328,45.736H363.941c-11.991-15.779-31.078-25-31.078-25l20.907,3.661,1.864-.955,3.676-1.88s5.3,8.105,13.268,7.925a12.381,12.381,0,0,0,4.721-1.061c9.314-4.021,14.013-28.739,9.661-43.5s-23.425-23.883-23.425-23.883l11.638-22.546c20.816,9.338,36.347,34.942,34.257,61.509" transform="translate(75.843 55.977)" fill="#37474f"/>
        <path id="Trazado_826727" data-name="Trazado 826727" d="M368.36,321.26s-6.849,2.323-16.952-6.052l3.676-1.879s5.3,8.1,13.268,7.923Z" transform="translate(80.068 71.392)" fill="#455a64"/>
        <path id="Trazado_826728" data-name="Trazado 826728" d="M407.621,370.353H329.6c1.947-3.045,5.323-8.525,9.8-14.554,0,0,.1-.136.286-.392.12-.157.241-.316.352-.473.068-.091.144-.2.226-.3l.677-.88a2.925,2.925,0,0,1,.188-.248c.241-.308.481-.624.729-.932.39-.5.826-1.045,1.308-1.631.332-.414.669-.82,1.015-1.233.534-.64,1.105-1.316,1.714-2.015.308-.361.624-.722.963-1.09,9.216-10.277,21.056-19.418,33.9-18.358,24.267,2.006,26.868,42.105,26.868,42.105" transform="translate(75.1 74.772)" fill="#455a64"/>
        <rect id="Rectángulo_379741" data-name="Rectángulo 379741" width="9.745" height="76.957" transform="matrix(0.083, -0.997, 0.997, 0.083, 349.572, 381.551)" fill="#263238"/>
        <rect id="Rectángulo_379742" data-name="Rectángulo 379742" width="9.745" height="17.061" transform="translate(426.262 387.957) rotate(-85.224)" fill="#37474f"/>
        <path id="Trazado_826729" data-name="Trazado 826729" d="M343.12,357.782a2.641,2.641,0,1,1-2.641-2.64,2.64,2.64,0,0,1,2.641,2.64" transform="translate(76.977 80.919)" fill="#263238"/>
        <path id="Trazado_826730" data-name="Trazado 826730" d="M387.781,357.782a2.64,2.64,0,1,1-2.641-2.64,2.64,2.64,0,0,1,2.641,2.64" transform="translate(87.153 80.919)" fill="#263238"/>
        <path id="Trazado_826731" data-name="Trazado 826731" d="M370.068,335.658a2.641,2.641,0,1,1-2.64-2.64,2.64,2.64,0,0,1,2.64,2.64" transform="translate(83.117 75.878)" fill="#263238"/>
        <path id="Trazado_826732" data-name="Trazado 826732" d="M353.543,220.263a2.64,2.64,0,1,1-2.64-2.64,2.64,2.64,0,0,1,2.64,2.64" transform="translate(79.352 49.585)" fill="#263238"/>
        <path id="Trazado_826733" data-name="Trazado 826733" d="M334.927,259.721a2.64,2.64,0,1,1-2.64-2.64,2.64,2.64,0,0,1,2.64,2.64" transform="translate(75.11 58.576)" fill="#263238"/>
        <path id="Trazado_826734" data-name="Trazado 826734" d="M374.3,260.477a2.641,2.641,0,1,1-2.641-2.64,2.641,2.641,0,0,1,2.641,2.64" transform="translate(84.08 58.748)" fill="#263238"/>
        <path id="Trazado_826735" data-name="Trazado 826735" d="M358.214,322.622a2.641,2.641,0,1,1-2.64-2.64,2.64,2.64,0,0,1,2.64,2.64" transform="translate(80.416 72.908)" fill="#263238"/>
      </g>
    </g>
  </g>
</svg>
