<svg xmlns="http://www.w3.org/2000/svg" xmlns:xlink="http://www.w3.org/1999/xlink" width="505" height="596" viewBox="0 0 505 596">
  <defs>
    <clipPath id="clip-path">
      <rect id="Rectángulo_380015" data-name="Rectángulo 380015" width="505" height="596" transform="translate(180 4257)" fill="#fff" stroke="#707070" stroke-width="1"/>
    </clipPath>
    <clipPath id="clip-path-2">
      <rect id="Rectángulo_380014" data-name="Rectángulo 380014" width="577.211" height="596.432" fill="none"/>
    </clipPath>
    <clipPath id="clip-path-6">
      <rect id="Rectángulo_379972" data-name="Rectángulo 379972" width="28.853" height="44.742" fill="none"/>
    </clipPath>
    <clipPath id="clip-path-7">
      <rect id="Rectángulo_379973" data-name="Rectángulo 379973" width="25.733" height="12.307" fill="none"/>
    </clipPath>
    <clipPath id="clip-path-9">
      <rect id="Rectángulo_379975" data-name="Rectángulo 379975" width="14.391" height="17.608" fill="none"/>
    </clipPath>
    <clipPath id="clip-path-10">
      <rect id="Rectángulo_379976" data-name="Rectángulo 379976" width="18.513" height="20.838" fill="none"/>
    </clipPath>
    <clipPath id="clip-path-11">
      <rect id="Rectángulo_379977" data-name="Rectángulo 379977" width="14.226" height="16.707" fill="none"/>
    </clipPath>
    <clipPath id="clip-path-12">
      <rect id="Rectángulo_379979" data-name="Rectángulo 379979" width="24.273" height="77.196" fill="none"/>
    </clipPath>
    <clipPath id="clip-path-13">
      <rect id="Rectángulo_379984" data-name="Rectángulo 379984" width="8.179" height="46.581" fill="#7816c2"/>
    </clipPath>
    <clipPath id="clip-path-14">
      <rect id="Rectángulo_379985" data-name="Rectángulo 379985" width="11.268" height="45.303" fill="#7816c2"/>
    </clipPath>
    <clipPath id="clip-path-16">
      <rect id="Rectángulo_379987" data-name="Rectángulo 379987" width="9.503" height="36.751" fill="none"/>
    </clipPath>
    <clipPath id="clip-path-18">
      <rect id="Rectángulo_379989" data-name="Rectángulo 379989" width="9.501" height="36.751" fill="none"/>
    </clipPath>
    <clipPath id="clip-path-19">
      <rect id="Rectángulo_379993" data-name="Rectángulo 379993" width="32.546" height="36.202" fill="none"/>
    </clipPath>
    <clipPath id="clip-path-20">
      <rect id="Rectángulo_379994" data-name="Rectángulo 379994" width="20.278" height="11.899" fill="none"/>
    </clipPath>
    <clipPath id="clip-path-21">
      <rect id="Rectángulo_379995" data-name="Rectángulo 379995" width="13.714" height="4.34" fill="none"/>
    </clipPath>
    <clipPath id="clip-path-22">
      <rect id="Rectángulo_379996" data-name="Rectángulo 379996" width="4.001" height="8.535" fill="#ffae7e"/>
    </clipPath>
    <clipPath id="clip-path-23">
      <rect id="Rectángulo_379997" data-name="Rectángulo 379997" width="2.304" height="4.915" fill="#ffae7e"/>
    </clipPath>
    <clipPath id="clip-path-24">
      <rect id="Rectángulo_380000" data-name="Rectángulo 380000" width="296.381" height="247.948" fill="none"/>
    </clipPath>
    <clipPath id="clip-path-25">
      <rect id="Rectángulo_380002" data-name="Rectángulo 380002" width="63.751" height="247.948" fill="none"/>
    </clipPath>
    <clipPath id="clip-path-26">
      <rect id="Rectángulo_380003" data-name="Rectángulo 380003" width="201.014" height="214.147" fill="none"/>
    </clipPath>
    <clipPath id="clip-path-27">
      <rect id="Rectángulo_380011" data-name="Rectángulo 380011" width="155.848" height="155.848" fill="none"/>
    </clipPath>
    <clipPath id="clip-path-28">
      <rect id="Rectángulo_380012" data-name="Rectángulo 380012" width="83.924" height="11.058" fill="none"/>
    </clipPath>
  </defs>
  <g id="Enmascarar_grupo_420" data-name="Enmascarar grupo 420" transform="translate(-180 -4257)" clip-path="url(#clip-path)">
    <g id="Grupo_1076457" data-name="Grupo 1076457" transform="translate(195.789 4256.741)">
      <g id="Grupo_1076456" data-name="Grupo 1076456" clip-path="url(#clip-path-2)">
        <path id="Trazado_827746" data-name="Trazado 827746" d="M0,0H339.8V195.35H0Z" transform="translate(27.813 0)" fill="#eeffde"/>
        <rect id="Rectángulo_379956" data-name="Rectángulo 379956" width="154.917" height="168.888" transform="translate(37.824 14.555)" fill="#fafafa"/>
        <path id="Trazado_827640" data-name="Trazado 827640" d="M334.674,17.71h26.76l13.38,23.175-13.38,23.176h-26.76l-13.38-23.176Z" transform="translate(-275.853 8.652)" fill="#f0f0f0"/>
        <path id="Trazado_827641" data-name="Trazado 827641" d="M307.707,64.419h26.76l13.38,23.176-13.38,23.175h-26.76l-13.38-23.175Z" transform="translate(-208.745 31.469)" fill="#fff"/>
        <path id="Trazado_827642" data-name="Trazado 827642" d="M307.707,33.28h26.76l13.38,23.175L334.468,79.63h-26.76l-13.38-23.176Z" transform="translate(-208.745 16.257)" fill="#ebebeb"/>
        <rect id="Rectángulo_379957" data-name="Rectángulo 379957" width="126.523" height="29.091" transform="translate(220.326 151.1)" fill="#fafafa"/>
        <g id="Grupo_1076368" data-name="Grupo 1076368">
          <g id="Grupo_1076367" data-name="Grupo 1076367" clip-path="url(#clip-path-2)">
            <path id="Trazado_827643" data-name="Trazado 827643" d="M176.38,29.442A10.716,10.716,0,1,0,185.036,17a10.715,10.715,0,0,0-8.656,12.439" transform="translate(117.276 8.223)" fill="#ebebeb"/>
            <path id="Trazado_827644" data-name="Trazado 827644" d="M163.629,71.331a10.716,10.716,0,1,0,8.656-12.439,10.716,10.716,0,0,0-8.656,12.439" transform="translate(149.007 28.686)" fill="#ebebeb"/>
            <path id="Trazado_827645" data-name="Trazado 827645" d="M208.17,89.809a10.716,10.716,0,1,0,8.656-12.439,10.716,10.716,0,0,0-8.656,12.439" transform="translate(38.166 37.713)" fill="#ebebeb"/>
            <path id="Trazado_827646" data-name="Trazado 827646" d="M218.581,46.036A10.716,10.716,0,1,0,227.237,33.6a10.716,10.716,0,0,0-8.656,12.439" transform="translate(12.259 16.329)" fill="#ebebeb"/>
            <path id="Trazado_827647" data-name="Trazado 827647" d="M236.592,40.3a4.52,4.52,0,1,0,3.651-5.246,4.519,4.519,0,0,0-3.651,5.246" transform="translate(-20.412 17.09)" fill="#ebebeb"/>
            <path id="Trazado_827648" data-name="Trazado 827648" d="M246.953,44.25a1.769,1.769,0,0,0,.323-3.508l-20.76-3.879a1.77,1.77,0,0,0-.65,3.48l20.76,3.878a1.752,1.752,0,0,0,.327.03" transform="translate(-5.563 17.994)" fill="#ebebeb"/>
            <path id="Trazado_827649" data-name="Trazado 827649" d="M165.222,46.037a4.52,4.52,0,1,0,4.829,4.189,4.52,4.52,0,0,0-4.829-4.189" transform="translate(167.465 22.484)" fill="#ebebeb"/>
            <path id="Trazado_827650" data-name="Trazado 827650" d="M164.639,76.509a1.769,1.769,0,0,0,1.648-1.125l9.824-25.1a1.77,1.77,0,1,0-3.3-1.291l-9.823,25.1a1.77,1.77,0,0,0,1.646,2.416" transform="translate(158.544 23.386)" fill="#ebebeb"/>
            <path id="Trazado_827651" data-name="Trazado 827651" d="M198.253,60.819a11.665,11.665,0,1,0,9.422-13.541,11.665,11.665,0,0,0-9.422,13.541" transform="translate(60.984 23.005)" fill="#ebebeb"/>
            <path id="Trazado_827652" data-name="Trazado 827652" d="M223.706,88.735a1.77,1.77,0,0,0,.527-3.459L174.122,69.651l32.033-44a1.769,1.769,0,1,0-2.861-2.081L169.81,69.563a1.769,1.769,0,0,0,.9,2.73l52.467,16.36a1.751,1.751,0,0,0,.527.082" transform="translate(99.48 11.16)" fill="#ebebeb"/>
            <path id="Trazado_827653" data-name="Trazado 827653" d="M221.983,108.134a1.771,1.771,0,0,0,1.686-1.238L237.5,63.031a1.769,1.769,0,0,0-.649-1.963l-29.33-21.292a1.77,1.77,0,1,0-2.079,2.864l28.3,20.543-13.452,42.649a1.768,1.768,0,0,0,1.155,2.219,1.745,1.745,0,0,0,.533.083" transform="translate(34.901 19.266)" fill="#ebebeb"/>
            <rect id="Rectángulo_379958" data-name="Rectángulo 379958" width="4.466" height="195.35" transform="translate(23.346 0)" fill="#e6e6e6"/>
            <rect id="Rectángulo_379959" data-name="Rectángulo 379959" width="114.063" height="212.788" transform="translate(270.242 316.418)" fill="#f0f0f0"/>
            <rect id="Rectángulo_379960" data-name="Rectángulo 379960" width="79.268" height="62.371" transform="translate(287.639 322.639)" fill="#f5f5f5"/>
            <rect id="Rectángulo_379961" data-name="Rectángulo 379961" width="79.268" height="62.371" transform="translate(287.639 390.609)" fill="#f5f5f5"/>
            <rect id="Rectángulo_379962" data-name="Rectángulo 379962" width="79.268" height="62.371" transform="translate(287.639 458.577)" fill="#f5f5f5"/>
            <path id="Trazado_827654" data-name="Trazado 827654" d="M159.711,216.2h24.412a6.467,6.467,0,0,1-6.466,6.468H166.179a6.467,6.467,0,0,1-6.468-6.468" transform="translate(155.357 105.615)" fill="#e6e6e6"/>
            <path id="Trazado_827655" data-name="Trazado 827655" d="M159.711,261.861h24.412a6.468,6.468,0,0,1-6.466,6.468H166.179a6.468,6.468,0,0,1-6.468-6.468" transform="translate(155.357 127.921)" fill="#e6e6e6"/>
            <path id="Trazado_827656" data-name="Trazado 827656" d="M159.711,307.524h24.412a6.468,6.468,0,0,1-6.466,6.468H166.179a6.468,6.468,0,0,1-6.468-6.468" transform="translate(155.357 150.228)" fill="#e6e6e6"/>
            <rect id="Rectángulo_379963" data-name="Rectángulo 379963" width="31.911" height="212.788" transform="translate(238.331 316.418)" fill="#e6e6e6"/>
            <rect id="Rectángulo_379964" data-name="Rectángulo 379964" width="216.468" height="212.788" transform="translate(46.421 316.418)" fill="#f0f0f0"/>
            <path id="Trazado_827657" data-name="Trazado 827657" d="M330.881,202.686V191.811a.591.591,0,0,1-.442-.566.6.6,0,0,1,.6-.6h5.738a.6.6,0,0,1,.6.6.59.59,0,0,1-.441.566v10.875a10.524,10.524,0,1,1-6.049,0" transform="translate(-248.574 93.133)" fill="#f0f0f0"/>
            <path id="Trazado_827658" data-name="Trazado 827658" d="M320.634,202.791v-4.354a.491.491,0,0,1-.366-.472.5.5,0,0,1,.5-.5h4.781a.5.5,0,0,1,.5.5.494.494,0,0,1-.368.472v4.354a8.768,8.768,0,1,1-5.042,0" transform="translate(-222.678 96.465)" fill="#f0f0f0"/>
            <path id="Trazado_827659" data-name="Trazado 827659" d="M347.42,207.379V186.709a.7.7,0,0,1-.527-.674.714.714,0,0,1,.713-.713h6.852a.715.715,0,0,1,.713.713.7.7,0,0,1-.527.674v20.669a11.474,11.474,0,0,0,4.372,8.809,12.6,12.6,0,0,1,3.624,4.878,3.528,3.528,0,0,1-3.306,4.821h-16.6a3.527,3.527,0,0,1-3.3-4.821,12.583,12.583,0,0,1,3.623-4.878,11.474,11.474,0,0,0,4.372-8.809" transform="translate(-290.536 90.531)" fill="#f0f0f0"/>
            <rect id="Rectángulo_379965" data-name="Rectángulo 379965" width="181.672" height="62.371" transform="translate(63.818 322.639)" fill="#f5f5f5"/>
            <rect id="Rectángulo_379966" data-name="Rectángulo 379966" width="181.672" height="62.371" transform="translate(63.818 390.609)" fill="#f5f5f5"/>
            <rect id="Rectángulo_379967" data-name="Rectángulo 379967" width="181.672" height="62.371" transform="translate(63.818 458.577)" fill="#f5f5f5"/>
            <path id="Trazado_827660" data-name="Trazado 827660" d="M275.679,216.2h24.412a6.467,6.467,0,0,1-6.466,6.468H282.147a6.467,6.467,0,0,1-6.468-6.468" transform="translate(-133.23 105.615)" fill="#e6e6e6"/>
            <path id="Trazado_827661" data-name="Trazado 827661" d="M275.679,261.861h24.412a6.468,6.468,0,0,1-6.466,6.468H282.147a6.468,6.468,0,0,1-6.468-6.468" transform="translate(-133.23 127.921)" fill="#e6e6e6"/>
            <path id="Trazado_827662" data-name="Trazado 827662" d="M275.679,307.524h24.412a6.468,6.468,0,0,1-6.466,6.468H282.147a6.468,6.468,0,0,1-6.468-6.468" transform="translate(-133.23 150.228)" fill="#e6e6e6"/>
            <rect id="Rectángulo_379968" data-name="Rectángulo 379968" width="31.911" height="212.788" transform="translate(14.508 316.418)" fill="#e6e6e6"/>
          </g>
        </g>
        <g id="Grupo_1076370" data-name="Grupo 1076370">
          <g id="Grupo_1076369" data-name="Grupo 1076369" clip-path="url(#clip-path-2)">
            <path id="Trazado_827663" data-name="Trazado 827663" d="M0,394.9c0,9.309,109.514,16.854,244.605,16.854s244.605-7.545,244.605-16.854S379.7,378.045,244.605,378.045,0,385.592,0,394.9" transform="translate(0 184.678)" fill="#e2e8e7"/>
          </g>
        </g>
        <g id="Grupo_1076414" data-name="Grupo 1076414">
          <g id="Grupo_1076413" data-name="Grupo 1076413" clip-path="url(#clip-path-2)">
            <path id="Trazado_827664" data-name="Trazado 827664" d="M281.522,85.278c8.08-3.887,27.6,2.316,23.3,17.532-3.656,12.938,6.78,20.095-2.068,27.454s7.911,24.078-29.026,22.576c-30.514-1.24-41.925-13.52-39.818-24,2.655-13.193,14.031-9.315,13.16-18.164s34.456-25.4,34.456-25.4" transform="translate(-77.012 41.107)" fill="#263238"/>
            <path id="Trazado_827665" data-name="Trazado 827665" d="M195.278,149.618c.433,1.2.768,2.062,1.161,3.063.387.963.8,1.907,1.2,2.85.811,1.889,1.713,3.729,2.624,5.57a109.155,109.155,0,0,0,6.225,10.793,79.324,79.324,0,0,0,7.943,10.3,52.407,52.407,0,0,0,5.021,4.827c.912.774,1.9,1.523,2.907,2.257l1.59,1.066c.214.147.671.426,1.042.646.388.24.774.429,1.164.633a24.037,24.037,0,0,0,8.788,2.408,37.931,37.931,0,0,0,7.471-.121,62.216,62.216,0,0,0,12.727-2.986,100.1,100.1,0,0,0,21.827-10.689l-4.623-9.742a196.47,196.47,0,0,1-21.134,4.649,55.54,55.54,0,0,1-9.781.683,18.665,18.665,0,0,1-3.927-.485,5.228,5.228,0,0,1-2.075-.9c-.024-.033-.067-.055-.071-.083-.027-.04.018,0-.146-.146l-.713-.619c-.479-.46-.963-.914-1.447-1.438-.957-1.039-1.934-2.173-2.886-3.4a81.855,81.855,0,0,1-5.394-8.217c-1.684-2.952-3.318-6.024-4.836-9.18-.779-1.57-1.5-3.174-2.237-4.762l-1.067-2.388-.975-2.233Z" transform="translate(9.566 69.353)" fill="#fff"/>
            <path id="Trazado_827667" data-name="Trazado 827667" d="M195.853,170.206l8.681,1.1-.033-11.677s-8.6,1-12.222,5.305Z" transform="translate(86.468 77.982)" fill="#ffb573"/>
            <g id="Grupo_1076376" data-name="Grupo 1076376" transform="translate(278.747 234.538)" opacity="0.2">
              <g id="Grupo_1076375" data-name="Grupo 1076375" transform="translate(0)">
                <g id="Grupo_1076374" data-name="Grupo 1076374" clip-path="url(#clip-path-6)">
                  <path id="Trazado_827669" data-name="Trazado 827669" d="M191.409,174.068V159.159a.808.808,0,0,1-.6-.774.82.82,0,0,1,.817-.819h7.867a.82.82,0,0,1,.817.819.808.808,0,0,1-.6.774v14.909a14.426,14.426,0,1,1-8.292,0" transform="translate(-181.129 -157.566)" fill="#407bff"/>
                </g>
              </g>
            </g>
            <g id="Grupo_1076379" data-name="Grupo 1076379" transform="translate(280.311 266.242)" opacity="0.5">
              <g id="Grupo_1076378" data-name="Grupo 1076378" transform="translate(0)">
                <g id="Grupo_1076377" data-name="Grupo 1076377" clip-path="url(#clip-path-7)">
                  <path id="Trazado_827670" data-name="Trazado 827670" d="M182.173,179.729a12.959,12.959,0,0,0,25.733.063c-8.583,3.016-17.165-3.08-25.733-.062" transform="translate(-182.173 -178.865)" fill="#407bff"/>
                </g>
              </g>
            </g>
            <g id="Grupo_1076382" data-name="Grupo 1076382" transform="translate(280.311 266.242)" opacity="0.7">
              <g id="Grupo_1076381" data-name="Grupo 1076381" transform="translate(0)">
                <g id="Grupo_1076380" data-name="Grupo 1076380" clip-path="url(#clip-path-7)">
                  <path id="Trazado_827671" data-name="Trazado 827671" d="M207.906,179.729a12.959,12.959,0,0,1-25.733.063c8.583,3.016,17.165-3.08,25.733-.062" transform="translate(-182.173 -178.865)" fill="#407bff"/>
                </g>
              </g>
            </g>
            <path id="Trazado_827672" data-name="Trazado 827672" d="M264.1,387.7l13.818,1.3,1.021-31.638-13.818-1.3Z" transform="translate(-94.845 173.937)" fill="#ffb573"/>
            <path id="Trazado_827673" data-name="Trazado 827673" d="M310.195,375.736l12.669,5.555,11.317-29.653-12.669-5.555Z" transform="translate(-218.697 169.065)" fill="#ffb573"/>
            <path id="Trazado_827674" data-name="Trazado 827674" d="M331.187,371.205l-12.475-9.275a1.057,1.057,0,0,0-1.424.106l-8.425,8.894a2.275,2.275,0,0,0,.378,3.313c4.4,3.159,6.68,4.46,12.166,8.538,3.376,2.51,10.49,8.56,15.15,12.026,4.558,3.389,8.179-1,6.535-2.861-7.374-8.356-9.348-14.011-10.533-18.673a3.726,3.726,0,0,0-1.371-2.068" transform="translate(-225.207 176.696)" fill="#263238"/>
            <path id="Trazado_827675" data-name="Trazado 827675" d="M268.264,375.425H251.939a1.309,1.309,0,0,0-1.262.993l-3.187,12.916a2.094,2.094,0,0,0,2.065,2.584c5.755.051,8.48-.4,15.659-.4,4.416,0,15.842.432,21.942.432,5.964,0,7.044-6.031,4.559-6.578-11.136-2.449-17.609-5.826-21.114-9.049a3.446,3.446,0,0,0-2.337-.893" transform="translate(-84.05 183.398)" fill="#263238"/>
            <g id="Grupo_1076385" data-name="Grupo 1076385" transform="translate(169.702 530.002)" opacity="0.2">
              <g id="Grupo_1076384" data-name="Grupo 1076384" transform="translate(0)">
                <g id="Grupo_1076383" data-name="Grupo 1076383" clip-path="url(#clip-path-9)">
                  <path id="Trazado_827676" data-name="Trazado 827676" d="M278.492,357.362l-.524,16.308H264.1l.566-17.608Z" transform="translate(-264.101 -356.062)"/>
                </g>
              </g>
            </g>
            <g id="Grupo_1076388" data-name="Grupo 1076388" transform="translate(96.969 515.156)" opacity="0.2">
              <g id="Grupo_1076387" data-name="Grupo 1076387" transform="translate(0)">
                <g id="Grupo_1076386" data-name="Grupo 1076386" clip-path="url(#clip-path-10)">
                  <path id="Trazado_827677" data-name="Trazado 827677" d="M316.034,346.089l12.675,5.557-5.839,15.281L310.2,361.37Z" transform="translate(-310.195 -346.089)"/>
                </g>
              </g>
            </g>
            <path id="Trazado_827678" data-name="Trazado 827678" d="M237.141,208.77c10.467,2.653,32.707,8.282,54.213,13.736,13.273-33,19.688-52.256,22.707-63.485a18.038,18.038,0,0,0-10.378-21.3c-1.759-.746-3.6-1.5-5.457-2.219-1.378-.537-2.772-1.055-4.144-1.538-7.867-2.773-15.4-4.381-24.615-6.252-1.228-.255-2.453-.473-3.677-.691l-.314-.054a18.036,18.036,0,0,0-20.924,16.522c-1.378,19.065-3.9,48.28-7.411,65.279" transform="translate(-90.457 61.905)" fill="#c5abea"/>
            <path id="Trazado_827679" data-name="Trazado 827679" d="M258.014,117.841c-1.151,6.78-3.4,13.559-7.609,16,0,0-1.084,5.659,12.572,17.621a5.952,5.952,0,0,0,7.922-.031c7.87-7.251,4.125-11.348,4.125-11.348-8.358-4.36-7.21-10.293-2.626-19.516l-6.423-4.5a4.4,4.4,0,0,0-7.961,1.765" transform="translate(-71.403 55.775)" fill="#ffb573"/>
            <g id="Grupo_1076391" data-name="Grupo 1076391" transform="translate(186.76 169.948)" opacity="0.2">
              <g id="Grupo_1076390" data-name="Grupo 1076390" transform="translate(0)">
                <g id="Grupo_1076389" data-name="Grupo 1076389" clip-path="url(#clip-path-11)">
                  <path id="Trazado_827680" data-name="Trazado 827680" d="M260.559,116.072a4.394,4.394,0,0,0-7.806,1.16c2.292,5.464,5.448,10.2,10.693,13.648.2-2.906,1.539-6.3,3.532-10.314Z" transform="translate(-252.753 -114.173)"/>
                </g>
              </g>
            </g>
            <path id="Trazado_827681" data-name="Trazado 827681" d="M241.3,102.766c-2.827,13.492-4.3,19.138.383,27.895,7.05,13.173,23.861,13.974,30.569,1.667,6.039-11.077,9.647-31.281-1.6-40.343-11.08-8.928-26.528-2.711-29.355,10.781" transform="translate(-55.989 42.895)" fill="#ffb573"/>
            <path id="Trazado_827682" data-name="Trazado 827682" d="M240.475,119.635a5.221,5.221,0,0,0,3.59-1.85,15.947,15.947,0,0,0,3.75-12.895c-.433-2.076-1.439-3.443-2.836-3.848s-2.979.207-4.455,1.728a15.961,15.961,0,0,0-3.75,12.895c.433,2.075,1.439,3.441,2.836,3.846a3.029,3.029,0,0,0,.865.124m3.642-17.987a2.381,2.381,0,0,1,.658.092c1.125.326,1.953,1.5,2.327,3.3a15.241,15.241,0,0,1-3.558,12.24c-1.282,1.319-2.6,1.855-3.73,1.536s-1.951-1.5-2.327-3.3a15.23,15.23,0,0,1,3.559-12.239,4.535,4.535,0,0,1,3.071-1.63" transform="translate(-22.935 49.299)" fill="#fff"/>
            <path id="Trazado_827683" data-name="Trazado 827683" d="M269.557,99.339c2.4,1.992-.971,14.511-7.307,12.506s-.549-19.04,7.307-12.506" transform="translate(-79.459 47.803)" fill="#263238"/>
            <rect id="Rectángulo_379978" data-name="Rectángulo 379978" width="16.197" height="0.744" transform="translate(200.276 154.361) rotate(-172.988)" fill="#fff"/>
            <path id="Trazado_827684" data-name="Trazado 827684" d="M249.868,117.552a6.648,6.648,0,0,0,4.2-1.694,12.668,12.668,0,0,0,3.872-6.216c1.547-5.318-.179-10.513-3.846-11.579s-7.908,2.394-9.455,7.713.18,10.513,3.848,11.579a4.972,4.972,0,0,0,1.386.2m2.839-18.94a4.218,4.218,0,0,1,1.176.165c3.272.951,4.771,5.732,3.339,10.658a11.894,11.894,0,0,1-3.632,5.848,5.333,5.333,0,0,1-4.9,1.356c-3.272-.95-4.771-5.731-3.339-10.656,1.262-4.343,4.39-7.371,7.356-7.371" transform="translate(-44.589 47.811)" fill="#fff"/>
            <path id="Trazado_827685" data-name="Trazado 827685" d="M261.393,107.091a10.369,10.369,0,0,0,2.672,7.249c2.388,2.592,5.338.869,6.145-2.376.726-2.922.359-7.789-2.745-9.174-3.059-1.365-5.948,1.026-6.072,4.3" transform="translate(-82.391 50.023)" fill="#ffb573"/>
            <path id="Trazado_827686" data-name="Trazado 827686" d="M278.087,84.564c17.5,7.53,13.277,19.434-4.324,23.337-9.768,2.167-20.041,7.373-20.48,13.1s-17.271-13.5-7.222-18.745c10.085-5.263,10.062-27.149,32.027-17.7" transform="translate(-73.576 40.167)" fill="#263238"/>
            <path id="Trazado_827687" data-name="Trazado 827687" d="M229.832,90.737c-.609,6.579,10.058,23.984,22.573,13.827-6.895.283-7.843-4.3-10.723-11.47-2.642-6.579-11.139-10.052-11.85-2.356" transform="translate(-17.264 42.181)" fill="#263238"/>
            <path id="Trazado_827688" data-name="Trazado 827688" d="M303.368,194.793s-.314,70.063-.2,123.895C303.26,361.48,290.646,451.6,290.646,451.6l-20.023-1.983s.043-97.063,3.851-127.6c-12.493-60.2-32.33-117.488-14.642-138.564Z" transform="translate(-102.472 89.617)" fill="#263238"/>
            <path id="Trazado_827689" data-name="Trazado 827689" d="M259.266,358.984l26.4.8-1.444,9.013-24.691-.372Z" transform="translate(-94.375 175.367)" fill="#480d74"/>
            <g id="Grupo_1076394" data-name="Grupo 1076394" transform="translate(150.912 310.211)" opacity="0.3">
              <g id="Grupo_1076393" data-name="Grupo 1076393">
                <g id="Grupo_1076392" data-name="Grupo 1076392" clip-path="url(#clip-path-12)">
                  <path id="Trazado_827690" data-name="Trazado 827690" d="M292.047,222.378,270.086,208.4c2.03,21.339,9.031,48.368,15.71,77.2,7.332-22.265,11.412-45.7,6.252-63.223" transform="translate(-270.087 -208.404)"/>
                </g>
              </g>
            </g>
            <path id="Trazado_827691" data-name="Trazado 827691" d="M351.409,192.747s-21.872,66.038-32.173,117.876a343.393,343.393,0,0,1-10.335,39.7c-13.456,41.206-30.9,90.561-30.9,90.561l-17.209-8.08s14.12-84.468,26.022-113.159c.452-60.225-.557-117.875,22.258-137.8Z" transform="translate(-162.385 88.832)" fill="#263238"/>
            <path id="Trazado_827692" data-name="Trazado 827692" d="M322.319,127.617s2.635,64.31-15.9,146.8c-23.855-2.574-38.179-9.9-38.179-9.9s13.417-54.287,17.931-76.112c3.312-16.015,7.733-41.585,9.851-54.064a10.033,10.033,0,0,1,9.05-8.312c4.533-.393,10.838.49,17.243,1.585" transform="translate(-144.521 61.521)" fill="#fff"/>
            <path id="Trazado_827694" data-name="Trazado 827694" d="M259.462,131.032s1.672,30.5-23.338,143.372c7.514,4.491,24.1,3.872,24.1,3.872s6.28-49.85,11.322-74.247c3.863-18.694,7.961-43.29,9.665-53.769a10.063,10.063,0,0,0-3.257-9.122c-4.131-3.7-10.97-8.788-18.489-10.105" transform="translate(-55.599 64.01)" fill="#fff"/>
            <path id="Trazado_827696" data-name="Trazado 827696" d="M269.709,160.112c14.756,6.189,28.8,11.88,38.749,14.665a2.8,2.8,0,0,1,1.758,3.815l-24.337,50.5a3.46,3.46,0,0,1-4.324,1.515c-13.842-5.985-34.1-12.655-38.162-17.594,11.152-20.279,21.51-39.678,26.317-52.9" transform="translate(-95.556 78.216)" fill="#fff"/>
            <path id="Trazado_827697" data-name="Trazado 827697" d="M266.957,160.946c15.168,5.1,29.595,9.745,39.716,11.8a2.8,2.8,0,0,1,2.03,3.677l-20.583,52.142a3.46,3.46,0,0,1-4.2,1.826c-14.242-4.958-34.929-10.132-39.344-14.76,9.643-21.04,18.556-41.142,22.384-54.682" transform="translate(-95.726 78.624)" fill="#480d74"/>
            <path id="Trazado_827698" data-name="Trazado 827698" d="M245.105,219.465l37.435,12.1a3.518,3.518,0,0,0,4.3-1.71l22.25-51.557a2.8,2.8,0,0,0-1.951-3.733l-37.434-12.1a3.517,3.517,0,0,0-4.3,1.71l-22.252,51.559a2.8,2.8,0,0,0,1.953,3.732" transform="translate(-93.712 79.276)" fill="#480d74"/>
            <path id="Trazado_827700" data-name="Trazado 827700" d="M328.568,365.06l-22.018-9.351,2.227-9.266,24.418,11.216Z" transform="translate(-212.286 169.24)" fill="#480d74"/>
            <path id="Trazado_827701" data-name="Trazado 827701" d="M247.763,105.469c-.295,1.079.025,2.121.714,2.327s1.488-.5,1.783-1.581-.024-2.121-.714-2.327-1.489.5-1.783,1.581" transform="translate(-41.795 50.733)" fill="#263238"/>
            <path id="Trazado_827702" data-name="Trazado 827702" d="M239.75,107.861c-.295,1.079.025,2.121.714,2.327s1.488-.5,1.783-1.581-.025-2.121-.714-2.327-1.489.5-1.783,1.581" transform="translate(-21.853 51.901)" fill="#263238"/>
            <path id="Trazado_827703" data-name="Trazado 827703" d="M238.569,106.247l2.739.009s-1.853,1.637-2.739-.009" transform="translate(-19.209 51.903)" fill="#263238"/>
            <path id="Trazado_827704" data-name="Trazado 827704" d="M246.306,107.58s.158,5.768,1.432,9.005c-2.015.869-4.343-.762-4.343-.762Z" transform="translate(-32.821 52.554)" fill="#ed893e"/>
            <path id="Trazado_827705" data-name="Trazado 827705" d="M256.086,116.578a.321.321,0,0,0,.269-.235.335.335,0,0,0-.223-.409,8.957,8.957,0,0,1-5.9-5.378.322.322,0,1,0-.615.192,9.462,9.462,0,0,0,6.344,5.82.342.342,0,0,0,.128.01" transform="translate(-50.689 53.894)" fill="#263238"/>
            <path id="Trazado_827706" data-name="Trazado 827706" d="M248.073,102.049a.61.61,0,0,0,.307-.127,5,5,0,0,1,4.549-.93.634.634,0,0,0,.823-.39.673.673,0,0,0-.39-.848,6.227,6.227,0,0,0-5.762,1.109.672.672,0,0,0-.122.924.644.644,0,0,0,.6.262" transform="translate(-44.756 48.594)" fill="#263238"/>
            <path id="Trazado_827707" data-name="Trazado 827707" d="M243.054,105.366a.527.527,0,0,0,.091-.082.671.671,0,0,0-.03-.933,6.322,6.322,0,0,0-5.616-1.837.662.662,0,0,0,.307,1.288,5.049,5.049,0,0,1,4.431,1.5.629.629,0,0,0,.817.061" transform="translate(-18.901 50.031)" fill="#263238"/>
            <path id="Trazado_827708" data-name="Trazado 827708" d="M317.23,373.323a1.75,1.75,0,0,0,.219-.009,1.8,1.8,0,0,0,1.427-1.085,1.143,1.143,0,0,0,0-1.134c-.877-1.55-5.793-1.864-6.351-1.893a.308.308,0,0,0-.3.182.336.336,0,0,0,.049.36c1.145,1.352,3.27,3.557,4.957,3.58m-3.946-3.406c1.963.185,4.576.683,5.037,1.5a.476.476,0,0,1-.018.5,1.186,1.186,0,0,1-.933.743c-.926.1-2.428-.915-4.086-2.74" transform="translate(-206.518 180.358)" fill="#407bff"/>
            <path id="Trazado_827709" data-name="Trazado 827709" d="M313.25,371c1.654.022,4.89-.862,5.482-2.2a1.179,1.179,0,0,0-.365-1.4,1.685,1.685,0,0,0-1.363-.473c-1.966.18-4.25,3.391-4.345,3.528a.336.336,0,0,0,.231.524c.109.012.229.019.36.022m3.958-3.424a1.038,1.038,0,0,1,.725.3c.307.29.272.494.21.639-.389.881-2.925,1.759-4.579,1.825.816-1.029,2.337-2.653,3.51-2.76.045,0,.091-.006.134-.006" transform="translate(-206.924 179.241)" fill="#407bff"/>
            <path id="Trazado_827710" data-name="Trazado 827710" d="M261.2,378.369a5.324,5.324,0,0,0,3.166-.762,1.966,1.966,0,0,0,.784-1.569.974.974,0,0,0-.435-.887c-1.511-1-7,1.523-8.081,2.039a.315.315,0,0,0-.177.33.341.341,0,0,0,.262.283,22.082,22.082,0,0,0,4.48.566m2.522-2.816a1.194,1.194,0,0,1,.644.138.31.31,0,0,1,.132.31,1.342,1.342,0,0,1-.54,1.087c-.936.723-3.19.819-6.127.28a19.75,19.75,0,0,1,5.89-1.814" transform="translate(-69.668 183.151)" fill="#407bff"/>
            <path id="Trazado_827711" data-name="Trazado 827711" d="M258.819,378.887a.325.325,0,0,0,.124-.024c1.82-.755,5.452-3.733,5.2-5.272-.055-.338-.3-.761-1.14-.862-3.258-.384-4.463,5.509-4.513,5.759a.337.337,0,0,0,.329.4m3.9-5.524a1.852,1.852,0,0,1,.22.013c.344.04.53.141.557.3.146.893-2.356,3.248-4.205,4.278.39-1.423,1.474-4.592,3.428-4.592" transform="translate(-71.7 182.073)" fill="#407bff"/>
            <path id="Trazado_827712" data-name="Trazado 827712" d="M246.583,103.854l2.739.009s-1.853,1.637-2.739-.009" transform="translate(-39.152 50.734)" fill="#263238"/>
            <path id="Trazado_827713" data-name="Trazado 827713" d="M313.707,127.649c-3.882,3.239-7.392,6.46-10.948,9.858-3.513,3.4-6.977,6.869-10.311,10.554a136.76,136.76,0,0,0-9.727,11.746,66.842,66.842,0,0,0-4.547,6.959,41.22,41.22,0,0,0-2.1,4.3,23.8,23.8,0,0,0-1.673,6.058l-.214,1.578.214,1.191a23.355,23.355,0,0,0,3.127,8.15,33.153,33.153,0,0,0,4.55,5.774,49.818,49.818,0,0,0,10.03,7.652,77.037,77.037,0,0,0,10.442,5.085,78.572,78.572,0,0,0,10.886,3.482l4.029-10c-2.664-1.814-5.579-3.77-8.227-5.744a94.337,94.337,0,0,1-7.574-6.125,39.975,39.975,0,0,1-5.866-6.354c-1.483-2.054-2.081-4.014-1.94-4.681V179.9c.018.238.126-.156.445-.7.3-.548.729-1.24,1.228-1.965,1.011-1.454,2.234-3.081,3.589-4.677,2.716-3.208,5.795-6.445,8.956-9.643,3.194-3.179,6.466-6.366,9.815-9.5,3.313-3.121,6.783-6.3,10.039-9.29Z" transform="translate(-158.84 62.358)" fill="#fff"/>
            <path id="Trazado_827715" data-name="Trazado 827715" d="M278.835,183.763l5.766,4.853,3.468-11.11a13.786,13.786,0,0,0-9.689-.092Z" transform="translate(-125.231 86.263)" fill="#ffb573"/>
            <g id="Grupo_1076409" data-name="Grupo 1076409" transform="translate(170.729 187.82)" opacity="0.7">
              <g id="Grupo_1076408" data-name="Grupo 1076408" transform="translate(0)">
                <g id="Grupo_1076407" data-name="Grupo 1076407" clip-path="url(#clip-path-13)">
                  <path id="Trazado_827716" data-name="Trazado 827716" d="M274.939,127.347s2.617,31.08-1.465,45.414c-1.353-13.667-5.5-26.885-5.176-31.16a32,32,0,0,0,4.113-2.3,24.886,24.886,0,0,0-4.826-3.467c0-1.944-.033-9.071.323-9.653,3.791.518,7.03,1.165,7.03,1.165" transform="translate(-267.586 -126.18)" fill="#7816c2"/>
                </g>
              </g>
            </g>
            <g id="Grupo_1076412" data-name="Grupo 1076412" transform="translate(199.408 194.798)" opacity="0.7">
              <g id="Grupo_1076411" data-name="Grupo 1076411" transform="translate(0)">
                <g id="Grupo_1076410" data-name="Grupo 1076410" clip-path="url(#clip-path-14)">
                  <path id="Trazado_827717" data-name="Trazado 827717" d="M250.462,130.868s-1.215,24.574-4.218,45.3c4.817-11.982,10.85-23.2,10.553-27.777a56.022,56.022,0,0,1-3.948-4.077A14.141,14.141,0,0,1,257.5,142.7c.006-2.018.063-9.4-.277-10.156-3.647-1.018-6.765-1.676-6.765-1.676" transform="translate(-246.243 -130.868)" fill="#7816c2"/>
                </g>
              </g>
            </g>
            <path id="Trazado_827718" data-name="Trazado 827718" d="M279.133,191.018l4.6-7.725-5.722-6.09-3.468,11.11Z" transform="translate(-115.168 86.565)" fill="#ffb573"/>
            <path id="Trazado_827745" data-name="Trazado 827745" d="M195.808,170.612l-1.2-7.989-9.488-2.992.033,11.677Z" transform="translate(105.844 77.981)" fill="#ffb573"/>
          </g>
        </g>
        <g id="Grupo_1076455" data-name="Grupo 1076455">
          <g id="Grupo_1076454" data-name="Grupo 1076454" clip-path="url(#clip-path-2)">
            <g id="Grupo_1076417" data-name="Grupo 1076417" transform="translate(416.93 272.936)" opacity="0.2">
              <g id="Grupo_1076416" data-name="Grupo 1076416" transform="translate(0)">
                <g id="Grupo_1076415" data-name="Grupo 1076415" clip-path="url(#clip-path-16)">
                  <path id="Trazado_827719" data-name="Trazado 827719" d="M109.993,183.912V215.7a4.146,4.146,0,1,1-8.292,0V183.912Z" transform="translate(-101.095 -183.093)" fill="#407bff"/>
                  <path id="Trazado_827720" data-name="Trazado 827720" d="M102.114,185h7.867a.818.818,0,0,0,0-1.636h-7.867a.818.818,0,1,0,0,1.636" transform="translate(-101.295 -183.362)" fill="#407bff"/>
                </g>
              </g>
            </g>
            <g id="Grupo_1076420" data-name="Grupo 1076420" transform="translate(400.401 272.936)" opacity="0.2">
              <g id="Grupo_1076419" data-name="Grupo 1076419" transform="translate(0)">
                <g id="Grupo_1076418" data-name="Grupo 1076418" clip-path="url(#clip-path-16)">
                  <path id="Trazado_827721" data-name="Trazado 827721" d="M121.1,183.912V215.7a4.146,4.146,0,1,1-8.292,0V183.912Z" transform="translate(-112.202 -183.093)" fill="#407bff"/>
                  <path id="Trazado_827722" data-name="Trazado 827722" d="M113.218,185h7.867a.818.818,0,0,0,0-1.636h-7.867a.818.818,0,1,0,0,1.636" transform="translate(-112.399 -183.362)" fill="#407bff"/>
                </g>
              </g>
            </g>
            <g id="Grupo_1076423" data-name="Grupo 1076423" transform="translate(383.873 272.936)" opacity="0.2">
              <g id="Grupo_1076422" data-name="Grupo 1076422" transform="translate(0)">
                <g id="Grupo_1076421" data-name="Grupo 1076421" clip-path="url(#clip-path-18)">
                  <path id="Trazado_827723" data-name="Trazado 827723" d="M132.2,183.912V215.7a4.147,4.147,0,1,1-8.294,0V183.912Z" transform="translate(-123.307 -183.093)" fill="#407bff"/>
                  <path id="Trazado_827724" data-name="Trazado 827724" d="M124.323,185h7.867a.818.818,0,0,0,0-1.636h-7.867a.818.818,0,1,0,0,1.636" transform="translate(-123.505 -183.362)" fill="#407bff"/>
                </g>
              </g>
            </g>
            <path id="Trazado_827725" data-name="Trazado 827725" d="M95.814,188.772h59.72a.864.864,0,0,0,0-1.728H95.814a.864.864,0,0,0,0,1.728" transform="translate(279.477 91.373)" fill="#809993"/>
            <rect id="Rectángulo_379990" data-name="Rectángulo 379990" width="1.728" height="43.494" transform="translate(429.133 277.077)" fill="#809993"/>
            <rect id="Rectángulo_379991" data-name="Rectángulo 379991" width="1.728" height="43.494" transform="translate(379.443 277.077)" fill="#809993"/>
            <path id="Trazado_827726" data-name="Trazado 827726" d="M152.223,170.842h34.783a.864.864,0,1,0,0-1.728H152.223a.864.864,0,0,0,0,1.728" transform="translate(164.039 82.614)" fill="#809993"/>
            <path id="Trazado_827727" data-name="Trazado 827727" d="M167.5,171.874h10.54a.68.68,0,0,0,.68-.68v-1.923a.68.68,0,0,0-.68-.679H167.5a.68.68,0,0,0-.68.679v1.923a.68.68,0,0,0,.68.68" transform="translate(150.175 82.359)" fill="#809993"/>
            <rect id="Rectángulo_379992" data-name="Rectángulo 379992" width="1.728" height="70.183" transform="translate(345.167 250.388)" fill="#809993"/>
            <g id="Grupo_1076426" data-name="Grupo 1076426" transform="translate(241.384 284.411)" opacity="0.1">
              <g id="Grupo_1076425" data-name="Grupo 1076425" transform="translate(0)">
                <g id="Grupo_1076424" data-name="Grupo 1076424" clip-path="url(#clip-path-19)">
                  <path id="Trazado_827728" data-name="Trazado 827728" d="M215.07,201.9v-8.927a.968.968,0,0,1-.722-.926.979.979,0,0,1,.976-.976h9.394a.98.98,0,0,1,.976.976.966.966,0,0,1-.722.926V201.9a15.731,15.731,0,0,0,5.993,12.076,17.238,17.238,0,0,1,4.969,6.688,4.836,4.836,0,0,1-4.533,6.607H208.641a4.836,4.836,0,0,1-4.532-6.607,17.253,17.253,0,0,1,4.969-6.688A15.729,15.729,0,0,0,215.07,201.9" transform="translate(-203.748 -191.071)" fill="#407bff"/>
                </g>
              </g>
            </g>
            <g id="Grupo_1076429" data-name="Grupo 1076429" transform="translate(312.807 308.672)" opacity="0.6">
              <g id="Grupo_1076428" data-name="Grupo 1076428" transform="translate(0)">
                <g id="Grupo_1076427" data-name="Grupo 1076427" clip-path="url(#clip-path-20)">
                  <path id="Trazado_827729" data-name="Trazado 827729" d="M168.747,219.27h10.8a4.741,4.741,0,0,0,4.741-4.741V212.11a4.741,4.741,0,0,0-4.741-4.739h-10.8a4.741,4.741,0,0,0-4.741,4.739v2.419a4.741,4.741,0,0,0,4.741,4.741" transform="translate(-164.006 -207.37)" fill="#407bff"/>
                </g>
              </g>
            </g>
            <g id="Grupo_1076432" data-name="Grupo 1076432" transform="translate(316.089 304.332)" opacity="0.8">
              <g id="Grupo_1076431" data-name="Grupo 1076431" transform="translate(0)">
                <g id="Grupo_1076430" data-name="Grupo 1076430" clip-path="url(#clip-path-21)">
                  <path id="Trazado_827730" data-name="Trazado 827730" d="M168,208.794h10.144a1.785,1.785,0,0,0,1.785-1.785v-.771a1.785,1.785,0,0,0-1.785-1.785H168a1.785,1.785,0,0,0-1.785,1.785v.771A1.785,1.785,0,0,0,168,208.794" transform="translate(-166.212 -204.454)" fill="#407bff"/>
                </g>
              </g>
            </g>
            <path id="Trazado_827731" data-name="Trazado 827731" d="M170.777,207.3h.488a.371.371,0,0,0,.371-.372V205.58a.37.37,0,0,0-.371-.371h-.488a.371.371,0,0,0-.372.371v1.352a.372.372,0,0,0,.372.372" transform="translate(151.926 100.246)" fill="#407bff"/>
            <path id="Trazado_827732" data-name="Trazado 827732" d="M172.257,207.3h.488a.371.371,0,0,0,.371-.372V205.58a.37.37,0,0,0-.371-.371h-.488a.37.37,0,0,0-.371.371v1.352a.371.371,0,0,0,.371.372" transform="translate(148.242 100.246)" fill="#407bff"/>
            <path id="Trazado_827733" data-name="Trazado 827733" d="M173.738,207.3h.488a.371.371,0,0,0,.371-.372V205.58a.37.37,0,0,0-.371-.371h-.488a.371.371,0,0,0-.372.371v1.352a.372.372,0,0,0,.372.372" transform="translate(144.557 100.246)" fill="#407bff"/>
            <path id="Trazado_827734" data-name="Trazado 827734" d="M175.218,207.3h.488a.371.371,0,0,0,.371-.372V205.58a.37.37,0,0,0-.371-.371h-.488a.37.37,0,0,0-.371.371v1.352a.371.371,0,0,0,.371.372" transform="translate(140.873 100.246)" fill="#407bff"/>
            <path id="Trazado_827735" data-name="Trazado 827735" d="M169.3,207.3h.488a.371.371,0,0,0,.371-.372V205.58a.37.37,0,0,0-.371-.371H169.3a.371.371,0,0,0-.372.371v1.352a.372.372,0,0,0,.372.372" transform="translate(155.609 100.246)" fill="#407bff"/>
            <path id="Trazado_827736" data-name="Trazado 827736" d="M167.815,207.3h.488a.371.371,0,0,0,.371-.372V205.58a.37.37,0,0,0-.371-.371h-.488a.37.37,0,0,0-.371.371v1.352a.371.371,0,0,0,.371.372" transform="translate(159.296 100.246)" fill="#407bff"/>
            <path id="Trazado_827737" data-name="Trazado 827737" d="M166.335,207.3h.488a.371.371,0,0,0,.371-.372V205.58a.37.37,0,0,0-.371-.371h-.488a.371.371,0,0,0-.372.371v1.352a.372.372,0,0,0,.372.372" transform="translate(162.98 100.246)" fill="#407bff"/>
            <g id="Grupo_1076435" data-name="Grupo 1076435" transform="translate(320.821 295.002)" opacity="0.6">
              <g id="Grupo_1076434" data-name="Grupo 1076434" transform="translate(0)">
                <g id="Grupo_1076433" data-name="Grupo 1076433" clip-path="url(#clip-path-22)">
                  <path id="Trazado_827738" data-name="Trazado 827738" d="M171.683,206.7c2.087.412,2.883-4.32,0-8.508-.767,1.554-4.373,7.645,0,8.508" transform="translate(-169.558 -198.186)" fill="#ffae7e"/>
                </g>
              </g>
            </g>
            <g id="Grupo_1076438" data-name="Grupo 1076438" transform="translate(321.67 298.427)" opacity="0.6">
              <g id="Grupo_1076437" data-name="Grupo 1076437" transform="translate(0)">
                <g id="Grupo_1076436" data-name="Grupo 1076436" clip-path="url(#clip-path-23)">
                  <path id="Trazado_827739" data-name="Trazado 827739" d="M171.353,205.387c1.2.237,1.66-2.487,0-4.9-.442.9-2.519,4.4,0,4.9" transform="translate(-170.129 -200.487)" fill="#ffae7e"/>
                </g>
              </g>
            </g>
            <rect id="Rectángulo_379998" data-name="Rectángulo 379998" width="296.381" height="247.948" transform="translate(178.911 331.629)" fill="#74875c"/>
            <g id="Grupo_1076441" data-name="Grupo 1076441" transform="translate(174.211 320.629)" opacity="0.7">
              <g id="Grupo_1076440" data-name="Grupo 1076440" transform="translate(5 11)">
                <g id="Grupo_1076439" data-name="Grupo 1076439" clip-path="url(#clip-path-24)">
                  <rect id="Rectángulo_379999" data-name="Rectángulo 379999" width="296.381" height="247.948" transform="translate(0)" fill="#fff"/>
                </g>
              </g>
            </g>
            <g id="Grupo_1076444" data-name="Grupo 1076444" transform="translate(178.911 331.629)" opacity="0.2">
              <g id="Grupo_1076443" data-name="Grupo 1076443" transform="translate(0)">
                <g id="Grupo_1076442" data-name="Grupo 1076442" clip-path="url(#clip-path-25)">
                  <rect id="Rectángulo_380001" data-name="Rectángulo 380001" width="63.751" height="247.948" transform="translate(0)" fill="#407bff"/>
                </g>
              </g>
            </g>
            <g id="Grupo_1076447" data-name="Grupo 1076447" transform="translate(258.471 348.53)" opacity="0.3">
              <g id="Grupo_1076446" data-name="Grupo 1076446">
                <g id="Grupo_1076445" data-name="Grupo 1076445" clip-path="url(#clip-path-26)">
                  <path id="Trazado_827740" data-name="Trazado 827740" d="M79.09,448.294H280.1V234.147H79.09Zm199.459-1.555H80.646V235.7h197.9Z" transform="translate(-79.09 -234.147)" fill="#407bff"/>
                </g>
              </g>
            </g>
            <g id="Grupo_1076450" data-name="Grupo 1076450" transform="translate(281.054 377.679)" opacity="0.3">
              <g id="Grupo_1076449" data-name="Grupo 1076449">
                <g id="Grupo_1076448" data-name="Grupo 1076448" clip-path="url(#clip-path-27)">
                  <path id="Trazado_827741" data-name="Trazado 827741" d="M238.118,398.777l1.191-1.192c-11.438-11.435-13.151-30.467-14.806-48.871-1.617-17.948-3.142-34.9-13.152-44.914-11.869-11.868-31.21-13.608-49.913-15.291-17.636-1.587-34.3-3.087-43.874-12.667l-1.191,1.192c10.012,10.01,26.964,11.536,44.914,13.152,18.4,1.655,37.434,3.37,48.872,14.806,9.577,9.579,11.077,26.237,12.666,43.872,1.682,18.7,3.424,38.043,15.293,49.913" transform="translate(-116.375 -242.929)" fill="#407bff"/>
                  <path id="Trazado_827742" data-name="Trazado 827742" d="M216.006,376.666l1.191-1.192c-11.869-11.869-31.21-13.608-49.913-15.291-17.636-1.588-34.294-3.087-43.874-12.667-11.436-11.438-13.149-30.468-14.806-48.871-1.615-17.95-3.142-34.9-13.152-44.914l-1.191,1.192c9.58,9.579,11.079,26.236,12.666,43.872,1.684,18.7,3.425,38.043,15.293,49.913,10.01,10.009,26.964,11.536,44.914,13.152,18.4,1.655,37.434,3.368,48.872,14.806" transform="translate(-61.349 -253.73)" fill="#407bff"/>
                  <rect id="Rectángulo_380004" data-name="Rectángulo 380004" width="1.685" height="28.529" transform="matrix(-0.707, -0.707, 0.707, -0.707, 68.433, 88.606)" fill="#407bff"/>
                  <rect id="Rectángulo_380005" data-name="Rectángulo 380005" width="1.685" height="18.183" transform="translate(86.762 99.62) rotate(-135)" fill="#407bff"/>
                  <rect id="Rectángulo_380006" data-name="Rectángulo 380006" width="1.685" height="28.529" transform="matrix(-0.707, -0.707, 0.707, -0.707, 7.561, 27.734)" fill="#407bff"/>
                  <rect id="Rectángulo_380007" data-name="Rectángulo 380007" width="1.685" height="18.183" transform="translate(25.89 38.748) rotate(-135)" fill="#407bff"/>
                  <rect id="Rectángulo_380008" data-name="Rectángulo 380008" width="1.685" height="18.183" transform="translate(57.419 70.276) rotate(-135)" fill="#407bff"/>
                  <rect id="Rectángulo_380009" data-name="Rectángulo 380009" width="1.685" height="28.529" transform="matrix(-0.707, -0.707, 0.707, -0.707, 129.305, 149.478)" fill="#407bff"/>
                  <rect id="Rectángulo_380010" data-name="Rectángulo 380010" width="1.685" height="18.183" transform="translate(118.291 131.148) rotate(-135)" fill="#407bff"/>
                </g>
              </g>
            </g>
            <path id="Trazado_827743" data-name="Trazado 827743" d="M67.236,226.422H372.692a5.528,5.528,0,1,0,0-11.057H67.236a5.528,5.528,0,0,0,0,11.057" transform="translate(107.138 105.208)" fill="#9ab47b"/>
            <g id="Grupo_1076453" data-name="Grupo 1076453" transform="translate(168.846 320.571)" opacity="0.3">
              <g id="Grupo_1076452" data-name="Grupo 1076452">
                <g id="Grupo_1076451" data-name="Grupo 1076451" clip-path="url(#clip-path-28)">
                  <path id="Trazado_827744" data-name="Trazado 827744" d="M223.492,226.422h72.867a5.528,5.528,0,0,0,0-11.057H223.492a5.528,5.528,0,1,0,0,11.057" transform="translate(-217.964 -215.364)"/>
                </g>
              </g>
            </g>
          </g>
        </g>
      </g>
    </g>
  </g>
</svg>
