<svg xmlns="http://www.w3.org/2000/svg" xmlns:xlink="http://www.w3.org/1999/xlink" width="446.115" height="570.861" viewBox="0 0 446.115 570.861">
  <defs>
    <clipPath id="clip-path">
      <rect id="Rectángulo_379954" data-name="Rectángulo 379954" width="446.115" height="570.861" fill="none"/>
    </clipPath>
    <clipPath id="clip-path-4">
      <rect id="Rectángulo_379938" data-name="Rectángulo 379938" width="27.113" height="30.03" fill="none"/>
    </clipPath>
    <clipPath id="clip-path-5">
      <rect id="Rectángulo_379939" data-name="Rectángulo 379939" width="11.782" height="14.261" fill="none"/>
    </clipPath>
    <clipPath id="clip-path-6">
      <rect id="Rectángulo_379940" data-name="Rectángulo 379940" width="13.583" height="14.053" fill="none"/>
    </clipPath>
    <clipPath id="clip-path-7">
      <rect id="Rectángulo_379942" data-name="Rectángulo 379942" width="7.949" height="28.569" fill="none"/>
    </clipPath>
    <clipPath id="clip-path-8">
      <rect id="Rectángulo_379943" data-name="Rectángulo 379943" width="10.08" height="12.97" fill="none"/>
    </clipPath>
    <clipPath id="clip-path-9">
      <rect id="Rectángulo_379944" data-name="Rectángulo 379944" width="14.789" height="15.603" fill="none"/>
    </clipPath>
    <clipPath id="clip-path-10">
      <rect id="Rectángulo_379945" data-name="Rectángulo 379945" width="12.316" height="74.078" fill="none"/>
    </clipPath>
    <clipPath id="clip-path-12">
      <rect id="Rectángulo_379949" data-name="Rectángulo 379949" width="307.708" height="403.458" fill="none"/>
    </clipPath>
    <clipPath id="clip-path-13">
      <rect id="Rectángulo_379952" data-name="Rectángulo 379952" width="279.791" height="376.32" fill="none"/>
    </clipPath>
  </defs>
  <g id="Grupo_1076365" data-name="Grupo 1076365" clip-path="url(#clip-path)">
    <g id="Grupo_1076321" data-name="Grupo 1076321">
      <g id="Grupo_1076320" data-name="Grupo 1076320" clip-path="url(#clip-path)">
        <path id="Trazado_827552" data-name="Trazado 827552" d="M442.9,383.181c0,9.173-98.121,16.607-219.158,16.607S4.583,392.354,4.583,383.181,102.7,366.574,223.74,366.574,442.9,374.01,442.9,383.181" transform="translate(2.139 171.072)" fill="#e2e8e7"/>
      </g>
    </g>
    <path id="Trazado_827553" data-name="Trazado 827553" d="M243.795,378.42l-11.754-.185-.048-27.308,11.754.183Z" transform="translate(108.266 163.77)" fill="#ffb573"/>
    <path id="Trazado_827554" data-name="Trazado 827554" d="M285.623,378.375H273.85l-3.494-27.263h11.773Z" transform="translate(126.169 163.857)" fill="#ffb573"/>
    <g id="Grupo_1076356" data-name="Grupo 1076356">
      <g id="Grupo_1076355" data-name="Grupo 1076355" clip-path="url(#clip-path)">
        <path id="Trazado_827555" data-name="Trazado 827555" d="M278.951,368.772H293.3a.973.973,0,0,1,.968.8l1.885,10.465a1.814,1.814,0,0,1-1.813,2.093c-4.613-.079-7.971-.349-13.788-.349-3.579,0-14.385.371-19.326.371-4.833,0-5.381-4.886-3.34-5.328,9.155-1.984,16.106-4.721,19.12-7.332a2.981,2.981,0,0,1,1.942-.723" transform="translate(119.829 172.098)" fill="#263238"/>
        <path id="Trazado_827556" data-name="Trazado 827556" d="M239.239,368.617l12.844.2a.962.962,0,0,1,.946.82l1.606,10.5a1.819,1.819,0,0,1-1.836,2.068c-4.627-.152-11.3-.529-17.128-.62-6.81-.107-7.561.173-15.547.047-4.828-.075-5.833-4.982-3.781-5.393,9.338-1.87,11.711-1.968,20-6.75a5.693,5.693,0,0,1,2.9-.873" transform="translate(100.493 172.026)" fill="#263238"/>
        <path id="Trazado_827557" data-name="Trazado 827557" d="M259.212,132.8a262.038,262.038,0,0,1-10.777,24.868c-2.011,4.048-4.126,8.076-6.436,12.041a130.872,130.872,0,0,1-7.543,11.776l-2.222,2.976a16.13,16.13,0,0,1-5,4.248,14.655,14.655,0,0,1-6.56,1.731,17.922,17.922,0,0,1-5.569-.738,28.382,28.382,0,0,1-7.866-3.8,54.913,54.913,0,0,1-5.928-4.661,105.159,105.159,0,0,1-17.585-21.5l6.971-5.436c3.007,2.9,6.182,5.893,9.379,8.628a106.557,106.557,0,0,0,9.728,7.627,40.371,40.371,0,0,0,4.856,2.91,15.084,15.084,0,0,0,4.157,1.5,1.7,1.7,0,0,0,.959-.035c.1-.073-.1-.092-.276-.048s-.223.081-.126-.117l1.543-2.436a209.791,209.791,0,0,0,11.511-22.3c3.532-7.729,6.936-15.771,10.1-23.558Z" transform="translate(85.741 59.023)" fill="#ffb573"/>
        <path id="Trazado_827558" data-name="Trazado 827558" d="M250.9,128.251c3.874,10.569-16.5,41.406-16.5,41.406l-23.43-13s5.628-15.422,13.851-27.439c8.444-12.339,21.832-12.569,26.082-.971" transform="translate(98.456 55.887)" fill="#c1adcc"/>
        <g id="Grupo_1076327" data-name="Grupo 1076327" transform="translate(318.611 195.51)" opacity="0.2">
          <g id="Grupo_1076326" data-name="Grupo 1076326">
            <g id="Grupo_1076325" data-name="Grupo 1076325" clip-path="url(#clip-path-4)">
              <path id="Trazado_827560" data-name="Trazado 827560" d="M234.972,133.5c-4.5,2.279-14.737,13.447-17.739,21.933l14.241,7.9a180.064,180.064,0,0,0,12.872-23.418c-3.231-3.111-7-7.614-9.374-6.414" transform="translate(-217.233 -133.301)" fill="#407bff"/>
            </g>
          </g>
        </g>
        <path id="Trazado_827561" data-name="Trazado 827561" d="M193.458,147.624l-7.154-6.472-6.756,11.572s6.868,8.065,14.489,4.139l1.024-2.882a5.908,5.908,0,0,0-1.6-6.357" transform="translate(83.791 65.873)" fill="#ffb573"/>
        <path id="Trazado_827562" data-name="Trazado 827562" d="M176.9,137.831l-1.986,11.241,6.788,5.2,6.757-11.574Z" transform="translate(81.631 64.323)" fill="#ffb573"/>
        <g id="Grupo_1076330" data-name="Grupo 1076330" transform="translate(340.261 514.703)" opacity="0.2">
          <g id="Grupo_1076329" data-name="Grupo 1076329">
            <g id="Grupo_1076328" data-name="Grupo 1076328" clip-path="url(#clip-path-5)">
              <path id="Trazado_827563" data-name="Trazado 827563" d="M231.994,350.931l.023,14.076,11.758.185-.023-14.076Z" transform="translate(-231.994 -350.931)"/>
            </g>
          </g>
        </g>
        <g id="Grupo_1076333" data-name="Grupo 1076333" transform="translate(396.525 514.977)" opacity="0.2">
          <g id="Grupo_1076332" data-name="Grupo 1076332">
            <g id="Grupo_1076331" data-name="Grupo 1076331" clip-path="url(#clip-path-6)">
              <path id="Trazado_827564" data-name="Trazado 827564" d="M282.133,351.118H270.356l1.807,14.052H283.94Z" transform="translate(-270.356 -351.118)"/>
            </g>
          </g>
        </g>
        <path id="Trazado_827565" data-name="Trazado 827565" d="M296.845,121.04c-9.733,45.452-4.08,92.65-4.6,102.308-9.233-.066-44.011-.38-62.969-.553-12.6-66.326,1.606-101.757,1.606-101.757s3.978-1.047,9.42-1.967c1.707-.289,3.551-.566,5.474-.793,1.062-.133,2.143-.239,3.238-.331,7.083-.581,18.732-.213,26.771.241,1.684.1,3.4.238,5.061.4,1.544.16,3.059.339,4.488.529,6.478.857,11.5,1.924,11.5,1.924" transform="translate(104.569 54.904)" fill="#c1adcc"/>
        <g id="Grupo_1076339" data-name="Grupo 1076339" transform="translate(389.139 195.963)" opacity="0.2">
          <g id="Grupo_1076338" data-name="Grupo 1076338">
            <g id="Grupo_1076337" data-name="Grupo 1076337" clip-path="url(#clip-path-7)">
              <path id="Trazado_827567" data-name="Trazado 827567" d="M265.478,133.61c-.845,4.391,1.734,24.007,6.559,28.569.2-6.348.59-12.987,1.232-19.79Z" transform="translate(-265.32 -133.61)"/>
            </g>
          </g>
        </g>
        <path id="Trazado_827568" data-name="Trazado 827568" d="M266.148,97.449c-1.766,8.6-3.592,24.362,2.383,30.162-4.723,4.611-10.89,9.932-21.12,10.2s-8.381-6.75-5.647-10.438c9.624-2.207,9.44-9.335,7.828-16.043Z" transform="translate(111.824 45.477)" fill="#ffb573"/>
        <path id="Trazado_827569" data-name="Trazado 827569" d="M264.436,115.77s-3.1,8.147-19.78,13.5a13.023,13.023,0,0,1,6.194,6.057s19.5-4.965,18.02-17.3a18.971,18.971,0,0,0-4.434-2.251" transform="translate(114.176 54.027)" fill="#fff"/>
        <path id="Trazado_827570" data-name="Trazado 827570" d="M241.554,133.915a12.86,12.86,0,0,1,6.377-5.364c-1.888-1.723-4.913-7.077-3.583-11.246a13.8,13.8,0,0,0-3.918.5s-6.965,6.678,1.123,16.11" transform="translate(110.903 54.744)" fill="#fff"/>
        <path id="Trazado_827571" data-name="Trazado 827571" d="M245.061,132.153c-.126,1.163-.738,2.05-1.364,1.983s-1.031-1.068-.9-2.231.736-2.05,1.363-1.981,1.033,1.066.9,2.229" transform="translate(113.296 60.631)" fill="#fff"/>
        <path id="Trazado_827572" data-name="Trazado 827572" d="M244.284,140.343c-.023,1.17-.553,2.108-1.184,2.1s-1.121-.972-1.1-2.141.553-2.108,1.182-2.1,1.122.971,1.1,2.141" transform="translate(112.937 64.496)" fill="#fff"/>
        <g id="Grupo_1076342" data-name="Grupo 1076342" transform="translate(361.423 148.591)" opacity="0.2">
          <g id="Grupo_1076341" data-name="Grupo 1076341">
            <g id="Grupo_1076340" data-name="Grupo 1076340" clip-path="url(#clip-path-8)">
              <path id="Trazado_827573" data-name="Trazado 827573" d="M256.222,101.311l-9.8,8.21a27.63,27.63,0,0,1,.783,4.758c3.673-.5,8.749-4.479,9.173-8.318a12.917,12.917,0,0,0-.157-4.651" transform="translate(-246.423 -101.311)"/>
            </g>
          </g>
        </g>
        <path id="Trazado_827574" data-name="Trazado 827574" d="M250.94,85.309c-5.59,6.038-5.356,13.191-4.726,15.352-2.709,2.336-7.614,1.923-7.614,1.923l-1.555-1.561a7.285,7.285,0,0,1-2.106-5.738c.282-3.432,1.062-8.636,3.231-11.931,3.467-5.265,12.769,1.955,12.769,1.955" transform="translate(109.63 38.002)" fill="#263238"/>
        <path id="Trazado_827575" data-name="Trazado 827575" d="M269.162,94.113c-.82,11.657-.708,18.52-6.651,24.452-8.939,8.925-23.286,3.456-25.965-8.209-2.411-10.5-.666-27.8,10.79-32.336a15.936,15.936,0,0,1,21.826,16.092" transform="translate(109.951 35.861)" fill="#ffb573"/>
        <path id="Trazado_827576" data-name="Trazado 827576" d="M251.844,83.991a18.585,18.585,0,0,1,.546,13.8,3.6,3.6,0,0,0,2.234,4.7,10.3,10.3,0,0,0,3.128.428l5.622-1.071s2.363-8.364.815-14.476-12.345-3.381-12.345-3.381" transform="translate(117.53 38.913)" fill="#263238"/>
        <path id="Trazado_827577" data-name="Trazado 827577" d="M260.023,89.739a91.318,91.318,0,0,1-25.789-1.345s2.757-8.718,8.947-11.713,19.266-2.75,23.3-1.038,9.309,6.885,7.322,19.555c-4.158,4.583-13.779-5.459-13.779-5.459" transform="translate(109.312 34.714)" fill="#263238"/>
        <path id="Trazado_827578" data-name="Trazado 827578" d="M277.433,90.234s-32.849-4.767-46.459-7.157a.893.893,0,0,1,.047-1.764c7.7-1.063,17.065.769,17.065.769Z" transform="translate(107.449 37.792)" fill="#cb8a64"/>
        <path id="Trazado_827579" data-name="Trazado 827579" d="M234.392,85.789c.6-2.916,5.669-18.094,26.965-13.489C281.078,76.563,275.5,94.689,275.5,94.689Z" transform="translate(109.386 33.338)" fill="#ffae7e"/>
        <path id="Trazado_827580" data-name="Trazado 827580" d="M243.492,73.011l7.132-2.113,8.587.7v1.486l-5.456,1.266Z" transform="translate(113.633 33.086)" fill="#cb8a64"/>
        <g id="Grupo_1076345" data-name="Grupo 1076345" transform="translate(357.642 105.051)" opacity="0.2">
          <g id="Grupo_1076344" data-name="Grupo 1076344">
            <g id="Grupo_1076343" data-name="Grupo 1076343" clip-path="url(#clip-path-9)">
              <path id="Trazado_827581" data-name="Trazado 827581" d="M244.4,87.228h0a.551.551,0,0,1-.549-.55c0-.119.161-11.912,14.118-15.041a.551.551,0,0,1,.241,1.075c-13.077,2.93-13.257,13.517-13.259,13.967a.551.551,0,0,1-.55.549" transform="translate(-243.845 -71.625)"/>
            </g>
          </g>
        </g>
        <path id="Trazado_827582" data-name="Trazado 827582" d="M265.549,99.19a11.106,11.106,0,0,1-6.767,5.114c-3.775.953-5.566-2.446-4.434-5.959,1.018-3.162,4.209-7.467,7.96-6.861,3.7.6,5.038,4.583,3.241,7.706" transform="translate(118.542 42.667)" fill="#ffb573"/>
        <path id="Trazado_827583" data-name="Trazado 827583" d="M231.782,437.63l19.932.3s5.4-78.865,4.8-115.545c-.182-11.158,1.033-26.861,2.879-43.726,2.336-21.251,3.573-29.747,6.634-56.611,2.184-19.156,4.374-32.343,4.374-32.343l-41.394-.367s-5.3,96.063-4.212,131.976c1.128,37.343,6.984,116.312,6.984,116.312" transform="translate(104.84 88.362)" fill="#263238"/>
        <g id="Grupo_1076348" data-name="Grupo 1076348" transform="translate(358.738 304.108)" opacity="0.2">
          <g id="Grupo_1076347" data-name="Grupo 1076347">
            <g id="Grupo_1076346" data-name="Grupo 1076346" clip-path="url(#clip-path-10)">
              <path id="Trazado_827584" data-name="Trazado 827584" d="M248.248,207.345c-6.2,18.926-3.517,62.139.689,74.078.349-3.639.738-7.367,1.151-11.157,2.341-21.259,3.579-29.749,6.641-56.612.054-.532.123-1.052.177-1.569a28.624,28.624,0,0,0-8.659-4.739" transform="translate(-244.592 -207.345)"/>
            </g>
          </g>
        </g>
        <path id="Trazado_827585" data-name="Trazado 827585" d="M242.851,189.477s14.054,98.872,19.061,133c5.482,37.374,17.637,115.406,17.637,115.406h21.563S297.058,364.34,292.42,327.8c-5.283-41.62-8.939-137.963-8.939-137.963Z" transform="translate(113.333 88.425)" fill="#263238"/>
        <path id="Trazado_827586" data-name="Trazado 827586" d="M267.064,361.732h25.391v-7.586l-28.383-.493Z" transform="translate(123.237 165.042)" fill="#480d74"/>
        <path id="Trazado_827587" data-name="Trazado 827587" d="M227.992,361.5l23.706.373,1.088-7.674-26.443-.821Z" transform="translate(105.63 164.915)" fill="#480d74"/>
        <path id="Trazado_827588" data-name="Trazado 827588" d="M247.119,91.283c-.009.949-.519,1.715-1.14,1.709s-1.116-.779-1.109-1.729.519-1.715,1.14-1.709,1.118.78,1.109,1.729" transform="translate(114.276 41.793)" fill="#263238"/>
        <path id="Trazado_827589" data-name="Trazado 827589" d="M239.8,91.218c-.009.949-.519,1.715-1.14,1.709s-1.116-.779-1.107-1.729.518-1.715,1.138-1.709,1.118.78,1.109,1.729" transform="translate(110.861 41.763)" fill="#263238"/>
        <path id="Trazado_827590" data-name="Trazado 827590" d="M242.655,91.344s-2.207,5.459-4.608,8.08c1.666,1.584,4.528.892,4.528.892Z" transform="translate(111.091 42.628)" fill="#ed893e"/>
        <path id="Trazado_827591" data-name="Trazado 827591" d="M244.549,100.5a7.821,7.821,0,0,0,5.392-3.064.279.279,0,0,0-.463-.309,7.546,7.546,0,0,1-6.16,2.886.279.279,0,0,0,0,.557,9.262,9.262,0,0,0,1.236-.07" transform="translate(113.42 45.269)" fill="#263238"/>
        <path id="Trazado_827592" data-name="Trazado 827592" d="M250.165,89.418a.557.557,0,0,0,.377-.886,5.533,5.533,0,0,0-4.519-2.342.558.558,0,0,0,.066,1.113,4.421,4.421,0,0,1,3.558,1.893.554.554,0,0,0,.518.221" transform="translate(114.57 40.222)" fill="#263238"/>
        <path id="Trazado_827593" data-name="Trazado 827593" d="M236.155,89.367a.555.555,0,0,0,.43-.305,4.427,4.427,0,0,1,3.168-2.493.558.558,0,0,0-.132-1.107,5.542,5.542,0,0,0-4.035,3.1.557.557,0,0,0,.252.747.547.547,0,0,0,.317.054" transform="translate(109.916 39.881)" fill="#263238"/>
        <path id="Trazado_827594" data-name="Trazado 827594" d="M270.06,371.123a14.06,14.06,0,0,0,3.1-.424.3.3,0,0,0,.22-.226.271.271,0,0,0-.116-.282c-.418-.267-4.117-2.6-5.447-1.932a.939.939,0,0,0-.512.789,1.617,1.617,0,0,0,.515,1.473,3.453,3.453,0,0,0,2.241.6m2.307-.815c-2.015.4-3.551.329-4.171-.213a1.093,1.093,0,0,1-.336-1.012.361.361,0,0,1,.189-.327c.692-.348,2.813.66,4.318,1.552" transform="translate(124.739 171.803)" fill="#407bff"/>
        <path id="Trazado_827595" data-name="Trazado 827595" d="M272.294,371.587a.293.293,0,0,0,.154-.046.29.29,0,0,0,.136-.255c0-.145-.144-3.541-1.464-4.66a1.48,1.48,0,0,0-1.173-.358.957.957,0,0,0-.917.73c-.305,1.313,1.942,3.893,3.131,4.554a.281.281,0,0,0,.132.034m-2.175-4.773a.95.95,0,0,1,.631.245c.846.716,1.14,2.7,1.235,3.687-1.173-.918-2.592-2.867-2.411-3.643.016-.07.056-.236.419-.282a1.245,1.245,0,0,1,.126-.007" transform="translate(125.538 170.924)" fill="#407bff"/>
        <path id="Trazado_827596" data-name="Trazado 827596" d="M233,370.555a.3.3,0,0,0,.2-.221.263.263,0,0,0-.128-.289c-.515-.285-5.079-2.757-6.562-1.983a.948.948,0,0,0-.512.733h0a1.5,1.5,0,0,0,.43,1.364c1.212,1.163,4.614.752,6.534.4a.156.156,0,0,0,.038-.009m-6.148-2.046c.908-.293,3.4.724,5.208,1.644-2.627.392-4.554.248-5.235-.4a.974.974,0,0,1-.274-.9.359.359,0,0,1,.2-.295.67.67,0,0,1,.1-.042" transform="translate(105.46 171.697)" fill="#407bff"/>
        <path id="Trazado_827597" data-name="Trazado 827597" d="M232.02,371.42a.306.306,0,0,0,.073-.035.3.3,0,0,0,.133-.252c0-.133-.1-3.31-1.515-4.563a1.95,1.95,0,0,0-1.512-.5c-.771.065-1.019.45-1.091.763-.307,1.327,2.332,3.918,3.708,4.576a.272.272,0,0,0,.2.013m-3.092-4.743a1.25,1.25,0,0,1,.289-.054,1.424,1.424,0,0,1,1.112.373c.927.824,1.216,2.727,1.3,3.654-1.389-.893-3.164-2.925-2.979-3.721.012-.048.04-.175.276-.251m.28-.331h0Z" transform="translate(106.442 170.832)" fill="#407bff"/>
        <path id="Trazado_827598" data-name="Trazado 827598" d="M268.761,115.966a4.627,4.627,0,0,0-4.035,1.423c-4.049,4.346-13.7,17.842-15.7,49.236-2.549,39.967,6.475,70.522,6.475,70.522l25.076-7.116a3.523,3.523,0,0,0,2.542-3.8c-.685-5.919-2.137-19.984-2.542-35.777-.283-11.129.553-21.136.51-25.682-2.75-5.4-7.716-14.218-5.928-23.819,2-10.723,7.9-12.2,11.911-14.161a3.161,3.161,0,0,0-.082-5.661,64.96,64.96,0,0,0-18.225-5.17" transform="translate(116.003 54.098)" fill="#ffae7e"/>
        <path id="Trazado_827599" data-name="Trazado 827599" d="M245.677,236.606l-17.2-5.39a3.531,3.531,0,0,1-2.442-2.91c-1.49-11.346-7.592-63.457.329-102.147a7.663,7.663,0,0,1,4.99-5.733,69.51,69.51,0,0,1,15.259-3.338.938.938,0,0,1,1,1.185c-3.269,11.926-8.686,77.448-1.936,118.333" transform="translate(103.785 54.64)" fill="#ffae7e"/>
        <path id="Trazado_827600" data-name="Trazado 827600" d="M222.893,171.379c.307,5.485.7,10.545,1.1,14.989,6.233.7,12.612,1.188,18.949,1.5-.295-4.855-.5-9.827-.6-14.828-6.569-.352-13.112-.88-19.447-1.657" transform="translate(104.019 79.979)" fill="#fff"/>
        <path id="Trazado_827601" data-name="Trazado 827601" d="M242.736,154.271c-6.967-.293-13.816-.836-20.328-1.672-.044,5.075.015,10.061.161,14.857,6.468.792,13.156,1.305,19.9,1.584.015-5,.117-9.959.264-14.769" transform="translate(103.786 71.215)" fill="#fff"/>
        <path id="Trazado_827602" data-name="Trazado 827602" d="M280.607,171.839c-9.167.895-20.064,1.437-31.534,1.452.411,5.383.968,10.34,1.6,14.755,11.22-.073,21.824-.66,30.918-1.555-.381-4.459-.733-9.445-.983-14.652" transform="translate(116.237 80.194)" fill="#fff"/>
        <path id="Trazado_827603" data-name="Trazado 827603" d="M280.956,152.659c-9.753,1.012-20.842,1.7-32.194,1.848-.205,5.119-.235,10.061-.132,14.769,11.22-.147,22.132-.807,31.9-1.789.015-5.72.264-10.9.425-14.828" transform="translate(116.004 71.243)" fill="#fff"/>
        <path id="Trazado_827604" data-name="Trazado 827604" d="M325.412,219.973l-66.627,11.114a3.067,3.067,0,0,1-3.633-2.832l-3.183-41.3A3.8,3.8,0,0,1,255.079,183l66.627-11.114a3.067,3.067,0,0,1,3.633,2.832l3.183,41.3a3.8,3.8,0,0,1-3.109,3.957" transform="translate(117.584 80.193)" fill="#74875c"/>
        <path id="Trazado_827606" data-name="Trazado 827606" d="M280.73,125.054c3.7,8.448,6.995,16.864,9.97,25.536,1.517,4.315,2.894,8.687,4.24,13.093.657,2.213,1.285,4.431,1.882,6.679l.452,1.681.475,1.936c.346,1.319.525,2.631.763,3.942,1.43,10.518-.113,20.355-2.6,29.554a113.656,113.656,0,0,1-4.626,13.405q-1.379,3.243-2.908,6.4c-1.021,2.135-2.07,4.14-3.334,6.3l-7.983-3.8c1.272-3.973,2.565-8.254,3.524-12.445,1.037-4.2,1.872-8.423,2.495-12.612a88.634,88.634,0,0,0,1.008-12.415,50.492,50.492,0,0,0-1.112-11.621c-.238-.886-.411-1.8-.708-2.64l-.424-1.316-.553-1.539c-.717-2.053-1.518-4.1-2.273-6.159-1.522-4.121-3.183-8.216-4.789-12.339l-9.909-24.639Z" transform="translate(123.352 58.36)" fill="#ffb573"/>
        <path id="Trazado_827607" data-name="Trazado 827607" d="M279.49,120.391c10.567,3.876,17.423,34.3,17.423,34.3l-23.4,16.132s-7.184-17.967-11.138-31.966c-4.308-15.249,4.316-23.162,17.118-18.467" transform="translate(121.921 55.555)" fill="#c1adcc"/>
        <path id="Trazado_827609" data-name="Trazado 827609" d="M273.024,198.989l-2.042,9.022,14.1-.408s1.126-10.894-4.453-12.616l-4.352.845a4.15,4.15,0,0,0-3.256,3.158" transform="translate(126.462 90.996)" fill="#ffb573"/>
        <path id="Trazado_827610" data-name="Trazado 827610" d="M275.4,215.257l8.466-1.725a2.11,2.11,0,0,0,1.685-2.2l-.471-7.748-14.1.408,1.932,9.61a2.109,2.109,0,0,0,2.489,1.651" transform="translate(126.462 95.01)" fill="#ffb573"/>
      </g>
    </g>
    <g id="Grupo_1076364" data-name="Grupo 1076364">
      <g id="Grupo_1076363" data-name="Grupo 1076363" clip-path="url(#clip-path)">
        <path id="Trazado_827611" data-name="Trazado 827611" d="M290.237,18.668H6a6,6,0,0,0-6,6.181L11.468,416.3a6.006,6.006,0,0,0,6,5.83H301.7a6,6,0,0,0,6-6.181L296.238,24.5a6,6,0,0,0-6-5.829" transform="translate(0 8.712)" fill="#5c6b49"/>
        <g id="Grupo_1076359" data-name="Grupo 1076359" transform="translate(0 27.38)" opacity="0.2">
          <g id="Grupo_1076358" data-name="Grupo 1076358">
            <g id="Grupo_1076357" data-name="Grupo 1076357" clip-path="url(#clip-path-12)">
              <path id="Trazado_827612" data-name="Trazado 827612" d="M17.471,422.126H301.7a6,6,0,0,0,6-6.181L296.238,24.5a6,6,0,0,0-6-5.829" transform="translate(0 -18.668)" fill="#5c6b49"/>
            </g>
          </g>
        </g>
        <rect id="Rectángulo_379950" data-name="Rectángulo 379950" width="26.667" height="1.647" transform="translate(41.742 21.617)" fill="#5c6b49"/>
        <rect id="Rectángulo_379951" data-name="Rectángulo 379951" width="6.767" height="1.647" transform="translate(25.46 21.617)" fill="#5c6b49"/>
        <path id="Trazado_827613" data-name="Trazado 827613" d="M292.106,18.668H7.873a6,6,0,0,0-6,6.181L13.337,416.3a6.006,6.006,0,0,0,6,5.83H303.571a6.005,6.005,0,0,0,6-6.181L298.107,24.5a6,6,0,0,0-6-5.829" transform="translate(0.872 8.712)" fill="#74875c"/>
        <g id="Grupo_1076362" data-name="Grupo 1076362" transform="translate(14.92 42.727)" opacity="0.2">
          <g id="Grupo_1076361" data-name="Grupo 1076361">
            <g id="Grupo_1076360" data-name="Grupo 1076360" clip-path="url(#clip-path-13)">
              <path id="Trazado_827614" data-name="Trazado 827614" d="M10.176,34.994l10.677,364.6a6.076,6.076,0,0,0,6.035,5.862H284.272a5.658,5.658,0,0,0,5.689-5.862l-10.677-364.6a6.076,6.076,0,0,0-6.037-5.862H15.867a5.658,5.658,0,0,0-5.691,5.862" transform="translate(-10.172 -29.132)"/>
            </g>
          </g>
        </g>
        <path id="Trazado_827615" data-name="Trazado 827615" d="M11.388,33.781l10.679,364.6a6.075,6.075,0,0,0,6.035,5.862H285.485a5.658,5.658,0,0,0,5.689-5.862L280.5,33.781a6.074,6.074,0,0,0-6.035-5.862H17.079a5.66,5.66,0,0,0-5.691,5.862" transform="translate(5.313 13.029)" fill="#fff"/>
        <path id="Trazado_827616" data-name="Trazado 827616" d="M81.541,127.717H32.078L30.629,78.253H80.092Z" transform="translate(14.294 36.519)" fill="#f5f5f5"/>
        <path id="Trazado_827617" data-name="Trazado 827617" d="M219.723,94.583H79.868L79.6,85.352H219.453Z" transform="translate(37.146 39.832)" fill="#e0e0e0"/>
        <path id="Trazado_827618" data-name="Trazado 827618" d="M189.692,107.815H80.255l-.27-9.231H189.422Z" transform="translate(37.327 46.007)" fill="#e0e0e0"/>
        <path id="Trazado_827619" data-name="Trazado 827619" d="M83.314,188.219H33.85L32.4,138.755H81.865Z" transform="translate(15.121 64.754)" fill="#f5f5f5"/>
        <path id="Trazado_827620" data-name="Trazado 827620" d="M133.018,155.085H81.639l-.27-9.231h51.379Z" transform="translate(37.973 68.067)" fill="#e0e0e0"/>
        <path id="Trazado_827621" data-name="Trazado 827621" d="M161.876,155.085H124.083l-.27-9.231h37.793Z" transform="translate(57.781 68.067)" fill="#e0e0e0"/>
        <path id="Trazado_827622" data-name="Trazado 827622" d="M204.41,168.318H82.026l-.27-9.231H204.14Z" transform="translate(38.154 74.242)" fill="#e0e0e0"/>
        <path id="Trazado_827623" data-name="Trazado 827623" d="M85.086,248.721H35.622l-1.449-49.464H83.637Z" transform="translate(15.948 92.989)" fill="#f5f5f5"/>
        <path id="Trazado_827624" data-name="Trazado 827624" d="M223.384,219.589H83.529l.27,9.231H223.654Z" transform="translate(38.981 102.478)" fill="#e0e0e0"/>
        <path id="Trazado_827625" data-name="Trazado 827625" d="M192.579,206.357H83.141l.27,9.231H192.849Z" transform="translate(38.8 96.302)" fill="#e0e0e0"/>
        <path id="Trazado_827626" data-name="Trazado 827626" d="M55.711,113.007a2.16,2.16,0,0,1-3.62-.173c-3.213-5.273-9.352-10.076-12.88-12.458a2.177,2.177,0,0,1-.7-2.878l0,0a2.125,2.125,0,0,1,3.054-.657,59.379,59.379,0,0,1,10.647,9.148,2.141,2.141,0,0,0,3.274,0C61.466,98.534,69.714,90.85,80.524,82.66a2.183,2.183,0,0,1,3.04.465,2.138,2.138,0,0,1-.384,3C70.542,95.7,61.545,104.511,55.711,113.007" transform="translate(17.843 38.379)" fill="#9ab47b"/>
        <path id="Trazado_827627" data-name="Trazado 827627" d="M57.484,173.51a2.162,2.162,0,0,1-3.621-.173c-3.212-5.273-9.352-10.076-12.879-12.458a2.178,2.178,0,0,1-.7-2.878l0,0a2.125,2.125,0,0,1,3.052-.659,59.457,59.457,0,0,1,10.648,9.149,2.14,2.14,0,0,0,3.272,0c5.975-7.454,14.224-15.138,25.032-23.328a2.183,2.183,0,0,1,3.04.465,2.137,2.137,0,0,1-.384,3C72.315,156.208,63.317,165.014,57.484,173.51Z" transform="translate(18.671 66.614)" fill="#9ab47b"/>
        <path id="Trazado_827628" data-name="Trazado 827628" d="M59.26,234.143a2.162,2.162,0,0,1-3.621-.173c-3.212-5.273-9.352-10.076-12.879-12.458a2.179,2.179,0,0,1-.7-2.878l0,0a2.124,2.124,0,0,1,3.052-.657,59.382,59.382,0,0,1,10.648,9.148,2.139,2.139,0,0,0,3.272,0c5.975-7.454,14.224-15.138,25.033-23.328a2.181,2.181,0,0,1,3.039.465,2.135,2.135,0,0,1-.384,3c-12.637,9.576-21.635,18.382-27.468,26.878" transform="translate(19.499 94.91)" fill="#9ab47b"/>
        <path id="Trazado_827629" data-name="Trazado 827629" d="M176.209,273.714c-7.581,0-11.634-2.8-15.208-5.274-3.419-2.363-6.648-4.6-13.055-4.6s-9.5,2.234-12.785,4.6c-3.431,2.473-7.319,5.274-14.9,5.274s-11.631-2.8-15.207-5.274c-3.417-2.363-6.647-4.6-13.052-4.6s-9.5,2.234-12.782,4.6c-3.431,2.473-7.319,5.274-14.9,5.274s-11.632-2.8-15.207-5.274c-3.419-2.363-6.647-4.6-13.052-4.6l-.109-3.7c7.58,0,11.631,2.8,15.207,5.274,3.417,2.363,6.647,4.6,13.052,4.6s9.5-2.232,12.782-4.6c3.431-2.473,7.317-5.274,14.9-5.274s11.632,2.8,15.207,5.274c3.419,2.363,6.647,4.6,13.052,4.6s9.506-2.232,12.786-4.6c3.429-2.471,7.317-5.273,14.9-5.273s11.634,2.8,15.208,5.273c3.419,2.364,6.648,4.6,13.055,4.6Z" transform="translate(16.78 121.403)" fill="#ebebeb"/>
        <path id="Trazado_827630" data-name="Trazado 827630" d="M191.869,38.665h-.3l-.026-.088c-3.8-12.069-12.914-20.07-22.876-20.07H148.393a7.6,7.6,0,0,1-6.964-5.327C138.705,5.482,132.045,0,124.392,0s-14.029,5.482-16.358,13.18a7.121,7.121,0,0,1-6.69,5.327H81.069c-9.96,0-18.668,8-21.84,20.07l-.023.088h-.3A4.352,4.352,0,0,0,54.866,43.4c.067,2.6,2,4.732,4.286,4.732H192.113a4.352,4.352,0,0,0,4.042-4.732c-.067-2.6-2-4.733-4.286-4.733" transform="translate(25.604)" fill="#263238"/>
        <path id="Trazado_827631" data-name="Trazado 827631" d="M77.661,57.023H73.693l-.5,1.867H69.629l3.919-11.308H77.36L81.94,58.89H78.281Zm-.8-2.445L75.5,50.512l-1.116,4.066Z" transform="translate(32.494 22.206)" fill="#263238"/>
        <path id="Trazado_827632" data-name="Trazado 827632" d="M78.29,55.21,81.608,55a2.6,2.6,0,0,0,.477,1.233,1.9,1.9,0,0,0,1.562.688,1.669,1.669,0,0,0,1.144-.352,1.014,1.014,0,0,0,.38-.814,1.068,1.068,0,0,0-.408-.786,4.587,4.587,0,0,0-1.808-.656,7.857,7.857,0,0,1-3.319-1.373,2.851,2.851,0,0,1-1.052-2.182,2.907,2.907,0,0,1,.458-1.647,3.212,3.212,0,0,1,1.484-1.219,6.984,6.984,0,0,1,2.768-.443,5.807,5.807,0,0,1,3.328.805,3.6,3.6,0,0,1,1.429,2.565l-3.287.192a1.833,1.833,0,0,0-.585-1.11,1.807,1.807,0,0,0-1.17-.348,1.374,1.374,0,0,0-.911.258.772.772,0,0,0-.289.629.644.644,0,0,0,.268.485,2.918,2.918,0,0,0,1.185.417,15.142,15.142,0,0,1,3.31,1,3.619,3.619,0,0,1,1.48,1.254,3.258,3.258,0,0,1,.5,1.673,3.5,3.5,0,0,1-.544,2,3.608,3.608,0,0,1-1.64,1.393,6.709,6.709,0,0,1-2.709.474q-2.884,0-4.027-1.11A4.521,4.521,0,0,1,78.29,55.21" transform="translate(36.536 22.144)" fill="#263238"/>
        <path id="Trazado_827633" data-name="Trazado 827633" d="M86.068,55.21,89.387,55a2.581,2.581,0,0,0,.475,1.233,1.9,1.9,0,0,0,1.562.688,1.669,1.669,0,0,0,1.144-.352,1.014,1.014,0,0,0,.38-.814,1.068,1.068,0,0,0-.408-.786,4.587,4.587,0,0,0-1.808-.656,7.857,7.857,0,0,1-3.319-1.373,2.851,2.851,0,0,1-1.052-2.182,2.906,2.906,0,0,1,.458-1.647A3.212,3.212,0,0,1,88.3,47.894a6.984,6.984,0,0,1,2.768-.443,5.807,5.807,0,0,1,3.328.805,3.6,3.6,0,0,1,1.429,2.565l-3.287.192a1.833,1.833,0,0,0-.585-1.11,1.807,1.807,0,0,0-1.17-.348,1.374,1.374,0,0,0-.911.258.772.772,0,0,0-.289.629.644.644,0,0,0,.268.485,2.918,2.918,0,0,0,1.185.417,15.142,15.142,0,0,1,3.31,1,3.609,3.609,0,0,1,1.48,1.254,3.258,3.258,0,0,1,.5,1.673,3.512,3.512,0,0,1-.543,2,3.619,3.619,0,0,1-1.641,1.393,6.709,6.709,0,0,1-2.709.474q-2.884,0-4.027-1.11a4.521,4.521,0,0,1-1.341-2.823" transform="translate(40.166 22.144)" fill="#263238"/>
        <path id="Trazado_827634" data-name="Trazado 827634" d="M101.467,47.582h3.486l.2,6.738a5.644,5.644,0,0,1-.257,1.891,3.953,3.953,0,0,1-.934,1.558,3.733,3.733,0,0,1-1.371.936,6.945,6.945,0,0,1-2.436.378,15.327,15.327,0,0,1-1.8-.116,4.792,4.792,0,0,1-1.644-.459,4.291,4.291,0,0,1-1.229-.974,3.746,3.746,0,0,1-.782-1.3,6.846,6.846,0,0,1-.38-1.911l-.2-6.738H97.6l.2,6.9a2.016,2.016,0,0,0,.554,1.445,1.958,1.958,0,0,0,1.439.521,1.861,1.861,0,0,0,1.4-.512,1.912,1.912,0,0,0,.471-1.453Z" transform="translate(43.922 22.206)" fill="#263238"/>
        <path id="Trazado_827635" data-name="Trazado 827635" d="M103.445,58.89l-.331-11.308h5.823a8.567,8.567,0,0,1,2.485.277,2.755,2.755,0,0,1,1.411,1.031,3.194,3.194,0,0,1,.578,1.832,3.09,3.09,0,0,1-.353,1.624,3,3,0,0,1-1.072,1.106,4.05,4.05,0,0,1-1.213.447,3.644,3.644,0,0,1,.921.417,3.564,3.564,0,0,1,.576.6,4.669,4.669,0,0,1,.51.7l1.788,3.277h-3.948l-1.968-3.455a2.755,2.755,0,0,0-.659-.871,1.493,1.493,0,0,0-.864-.263h-.308l.133,4.589Zm3.312-6.726h1.474a5.216,5.216,0,0,0,.921-.154.892.892,0,0,0,.556-.355,1.022,1.022,0,0,0,.2-.656,1.072,1.072,0,0,0-.373-.84,2.13,2.13,0,0,0-1.311-.293H106.69Z" transform="translate(48.121 22.206)" fill="#263238"/>
        <path id="Trazado_827636" data-name="Trazado 827636" d="M118.944,57.023h-3.967l-.5,1.867h-3.568l3.919-11.308h3.812l4.58,11.308h-3.659Zm-.8-2.445-1.367-4.066-1.116,4.066Z" transform="translate(51.76 22.206)" fill="#263238"/>
        <path id="Trazado_827637" data-name="Trazado 827637" d="M119.853,47.582h3.263l4.44,6.255-.182-6.255h3.293L131,58.89H127.7l-4.416-6.21.182,6.21h-3.285Z" transform="translate(55.933 22.205)" fill="#263238"/>
        <path id="Trazado_827638" data-name="Trazado 827638" d="M136.612,54.323l3.089.925a5.453,5.453,0,0,1-.908,2.152,4.046,4.046,0,0,1-1.609,1.3,6.062,6.062,0,0,1-2.49.44,7.363,7.363,0,0,1-3.027-.537,4.957,4.957,0,0,1-2.072-1.885,6.516,6.516,0,0,1-.95-3.453,5.725,5.725,0,0,1,1.367-4.312,5.527,5.527,0,0,1,4.179-1.508,5.87,5.87,0,0,1,3.385.864,5.289,5.289,0,0,1,1.893,2.653l-3.065.686a2.707,2.707,0,0,0-.361-.755,2.058,2.058,0,0,0-1.691-.833,1.985,1.985,0,0,0-1.792.955,3.982,3.982,0,0,0-.412,2.226,4.323,4.323,0,0,0,.645,2.578,2.021,2.021,0,0,0,1.625.7,1.894,1.894,0,0,0,1.5-.563,3.372,3.372,0,0,0,.7-1.635" transform="translate(60.033 22.144)" fill="#263238"/>
        <path id="Trazado_827639" data-name="Trazado 827639" d="M137.181,47.582h9.363L146.616,50h-5.862l.053,1.8h5.437l.067,2.307h-5.437l.065,2.229h6.032l.075,2.561h-9.533Z" transform="translate(64.02 22.205)" fill="#263238"/>
      </g>
    </g>
  </g>
</svg>
