<svg xmlns="http://www.w3.org/2000/svg" xmlns:xlink="http://www.w3.org/1999/xlink" width="400" height="352" viewBox="0 0 400 352">
  <defs>
    <clipPath id="clip-path">
      <rect id="Rectángulo_379922" data-name="Rectángulo 379922" width="400" height="352" transform="translate(1020 2417)" fill="#fff" stroke="#707070" stroke-width="1"/>
    </clipPath>
    <clipPath id="clip-path-2">
      <rect id="Rectángulo_379921" data-name="Rectángulo 379921" width="400" height="390.625" transform="translate(0 -40)" fill="none"/>
    </clipPath>
    <clipPath id="clip-path-3">
      <rect id="Rectángulo_379906" data-name="Rectángulo 379906" width="400" height="390.625" transform="translate(0 -43.183)" fill="none"/>
    </clipPath>
    <clipPath id="clip-path-5">
      <rect id="Rectángulo_379908" data-name="Rectángulo 379908" width="400" height="390.625" fill="none"/>
    </clipPath>
    <clipPath id="clip-path-6">
      <rect id="Rectángulo_379920" data-name="Rectángulo 379920" width="400" height="349.564" transform="translate(0 2.032)" fill="none"/>
    </clipPath>
    <clipPath id="clip-path-7">
      <rect id="Rectángulo_379909" data-name="Rectángulo 379909" width="38.14" height="6.144" fill="none"/>
    </clipPath>
    <clipPath id="clip-path-8">
      <rect id="Rectángulo_379910" data-name="Rectángulo 379910" width="41.116" height="6.581" fill="none"/>
    </clipPath>
    <clipPath id="clip-path-11">
      <rect id="Rectángulo_379913" data-name="Rectángulo 379913" width="49.043" height="47.31" fill="none"/>
    </clipPath>
    <clipPath id="clip-path-12">
      <rect id="Rectángulo_379914" data-name="Rectángulo 379914" width="16.142" height="16.356" fill="none"/>
    </clipPath>
    <clipPath id="clip-path-13">
      <rect id="Rectángulo_379915" data-name="Rectángulo 379915" width="59.983" height="30.467" fill="none"/>
    </clipPath>
  </defs>
  <g id="Enmascarar_grupo_412" data-name="Enmascarar grupo 412" transform="translate(-1020 -2417)" clip-path="url(#clip-path)">
    <g id="Grupo_1076303" data-name="Grupo 1076303" transform="translate(1020 2418.171)">
      <g id="Grupo_1076302" data-name="Grupo 1076302" clip-path="url(#clip-path-2)">
        <g id="Grupo_1076274" data-name="Grupo 1076274">
          <g id="Grupo_1076273" data-name="Grupo 1076273" clip-path="url(#clip-path-3)">
            <path id="Trazado_827418" data-name="Trazado 827418" d="M175.583,133.564l-62.6-.836-18.97-.163-5.158-.006-1.341.013a2.92,2.92,0,0,0-.458.023,2.924,2.924,0,0,0,.457.032l1.341.037,5.157.084,18.97.174,62.6.273c24.434.088,46.559.2,62.576.381,8.009.087,14.49.188,18.969.291,2.239.051,3.978.1,5.157.153a9.391,9.391,0,0,1,1.8.143,9.584,9.584,0,0,1-1.8.111c-1.18.029-2.92.05-5.159.062-4.48.023-10.963.009-18.971-.046-16.017-.106-38.142-.383-62.573-.727" transform="translate(-6.101 -9.29)" fill="#ebebeb"/>
            <path id="Trazado_827419" data-name="Trazado 827419" d="M175.129,138.461,113.423,127.9,94.708,124.8l-5.094-.807-1.328-.194a2.686,2.686,0,0,0-.455-.046,2.849,2.849,0,0,0,.445.1l1.319.246,5.082.886L113.39,128.1l61.8,9.993c24.123,3.882,45.963,7.431,61.757,10.1,7.9,1.331,14.285,2.437,18.693,3.236,2.2.4,3.914.722,5.07.955a9.307,9.307,0,0,1,1.754.422,9.325,9.325,0,0,1-1.8-.168c-1.17-.153-2.892-.4-5.106-.738-4.429-.672-10.831-1.693-18.733-2.992-15.807-2.594-37.619-6.307-61.7-10.447" transform="translate(-6.155 -8.672)" fill="#ebebeb"/>
            <path id="Trazado_827420" data-name="Trazado 827420" d="M173.918,143.21l-59.272-20.147-17.992-6.016-4.9-1.6-1.281-.4a2.744,2.744,0,0,0-.443-.117,2.676,2.676,0,0,0,.424.172l1.264.451,4.878,1.677,17.987,6.029,59.456,19.6c23.212,7.631,44.22,14.574,59.4,19.693,7.59,2.558,13.723,4.658,17.95,6.141,2.114.742,3.751,1.33,4.856,1.743a9.286,9.286,0,0,1,1.665.694,9.138,9.138,0,0,1-1.747-.447c-1.131-.336-2.793-.852-4.927-1.533-4.268-1.36-10.429-3.377-18.028-5.9-15.2-5.049-36.156-12.154-59.283-20.035" transform="translate(-6.309 -8.054)" fill="#ebebeb"/>
            <path id="Trazado_827421" data-name="Trazado 827421" d="M171.975,147.7l-55.367-29.218-16.821-8.772L95.2,107.363l-1.2-.6a2.806,2.806,0,0,0-.418-.186,2.788,2.788,0,0,0,.391.236l1.177.643,4.554,2.422,16.816,8.784,55.629,28.714c21.721,11.19,41.374,21.354,55.557,28.8,7.092,3.721,12.819,6.758,16.761,8.887,1.971,1.065,3.5,1.9,4.522,2.483a9.332,9.332,0,0,1,1.535.946,9.3,9.3,0,0,1-1.653-.719c-1.064-.51-2.623-1.282-4.624-2.29-4-2.016-9.767-4.977-16.874-8.668-14.217-7.38-33.793-17.691-55.394-29.111" transform="translate(-6.558 -7.469)" fill="#ebebeb"/>
            <path id="Trazado_827422" data-name="Trazado 827422" d="M169.347,151.844,119.229,114.33c-6.428-4.761-11.631-8.617-15.243-11.294-1.8-1.312-3.2-2.334-4.167-3.04l-1.094-.777a2.8,2.8,0,0,0-.383-.25,2.746,2.746,0,0,0,.35.295l1.063.82,4.12,3.1,15.235,11.305c12.925,9.491,30.755,22.586,50.458,37.055,19.705,14.447,37.528,27.559,50.373,37.128,6.424,4.783,11.605,8.678,15.165,11.4,1.781,1.36,3.155,2.425,4.079,3.16a9.312,9.312,0,0,1,1.369,1.174,9.428,9.428,0,0,1-1.521-.969c-.972-.67-2.391-1.676-4.209-2.984-3.637-2.617-8.87-6.442-15.312-11.2-12.889-9.511-30.613-22.755-50.163-37.412" transform="translate(-6.892 -6.936)" fill="#ebebeb"/>
            <path id="Trazado_827423" data-name="Trazado 827423" d="M166.1,155.529l-43.675-44.852-13.3-13.527L105.484,93.5l-.959-.938a2.812,2.812,0,0,0-.34-.307,2.84,2.84,0,0,0,.3.346l.922.975,3.587,3.707,13.291,13.536,44.08,44.454c17.217,17.337,32.783,33.061,43.984,44.511,5.6,5.725,10.114,10.378,13.209,13.618,1.546,1.62,2.74,2.886,3.537,3.756a9.287,9.287,0,0,1,1.169,1.373,9.4,9.4,0,0,1-1.352-1.193c-.855-.813-2.1-2.028-3.693-3.6-3.185-3.151-7.759-7.743-13.384-13.444-11.252-11.4-26.7-27.239-43.733-44.758" transform="translate(-7.301 -6.465)" fill="#ebebeb"/>
            <path id="Trazado_827424" data-name="Trazado 827424" d="M162.326,158.663l-36.166-51.1L115.124,92.132l-3.031-4.173-.8-1.077a2.612,2.612,0,0,0-.288-.355,2.823,2.823,0,0,0,.243.388l.759,1.107,2.967,4.22L126,107.68c9.382,13,22.326,30.944,36.63,50.768,14.311,19.8,27.243,37.758,36.526,50.811,4.643,6.525,8.377,11.824,10.928,15.506,1.277,1.84,2.258,3.277,2.911,4.26a9.274,9.274,0,0,1,.941,1.538,9.45,9.45,0,0,1-1.149-1.388c-.719-.936-1.759-2.33-3.088-4.134-2.657-3.608-6.46-8.857-11.13-15.363-9.342-13.011-22.14-31.061-36.239-51.015" transform="translate(-7.779 -6.064)" fill="#ebebeb"/>
            <path id="Trazado_827425" data-name="Trazado 827425" d="M158.113,161.167c-10.829-21.916-20.627-41.75-27.73-56.126L121.9,88.074l-2.342-4.6-.623-1.188a2.6,2.6,0,0,0-.231-.4,2.76,2.76,0,0,0,.179.421c.137.288.328.69.577,1.212l2.269,4.632c2.01,4.023,4.9,9.816,8.475,16.973L158.443,161c11.04,21.8,21.006,41.551,28.135,55.9,3.565,7.171,6.424,12.988,8.369,17.024.973,2.018,1.717,3.59,2.208,4.664a9.387,9.387,0,0,1,.689,1.666,9.3,9.3,0,0,1-.92-1.551c-.564-1.037-1.374-2.576-2.4-4.565-2.06-3.978-5-9.758-8.592-16.914-7.193-14.311-17.009-34.14-27.815-56.055" transform="translate(-8.318 -5.739)" fill="#ebebeb"/>
            <path id="Trazado_827426" data-name="Trazado 827426" d="M153.564,162.976c-7.245-23.348-13.8-44.475-18.554-59.79-2.409-7.628-4.358-13.8-5.713-18.091-.687-2.119-1.222-3.769-1.589-4.907-.186-.548-.328-.969-.429-1.271a2.743,2.743,0,0,0-.165-.428,2.624,2.624,0,0,0,.109.445c.09.306.217.733.379,1.288.35,1.144.858,2.8,1.512,4.931,1.35,4.289,3.295,10.465,5.7,18.094,4.894,15.27,11.643,36.338,19.1,59.618,7.472,23.262,14.207,44.338,18.99,59.626,2.393,7.643,4.3,13.838,5.587,18.13.644,2.145,1.13,3.815,1.447,4.952a9.316,9.316,0,0,1,.417,1.755,9.319,9.319,0,0,1-.665-1.677c-.393-1.112-.95-2.76-1.656-4.887-1.409-4.253-3.4-10.421-5.823-18.054-4.852-15.266-11.426-36.392-18.649-59.733" transform="translate(-8.908 -5.5)" fill="#ebebeb"/>
            <path id="Trazado_827427" data-name="Trazado 827427" d="M148.784,164.047c-3.482-24.2-6.632-46.093-8.916-61.965-1.178-7.91-2.132-14.316-2.794-18.764-.344-2.2-.613-3.912-.8-5.1-.1-.57-.17-1.008-.223-1.321a2.657,2.657,0,0,0-.095-.448,2.778,2.778,0,0,0,.039.455c.041.318.1.759.172,1.331.166,1.186.407,2.9.718,5.109.659,4.447,1.608,10.854,2.78,18.767,2.429,15.849,5.779,37.716,9.482,61.88,3.72,24.148,7.053,46.022,9.371,61.871,1.161,7.924,2.07,14.342,2.665,18.783.3,2.22.516,3.946.649,5.118a9.229,9.229,0,0,1,.137,1.8,9.479,9.479,0,0,1-.391-1.76c-.213-1.161-.5-2.875-.866-5.087-.723-4.422-1.718-10.826-2.911-18.746-2.39-15.838-5.558-37.736-9.019-61.923" transform="translate(-9.528 -5.358)" fill="#ebebeb"/>
            <path id="Trazado_827428" data-name="Trazado 827428" d="M143.756,164.359c.312-24.444.593-46.564.8-62.6.064-8,.115-14.474.151-18.97,0-2.228,0-3.961,0-5.158-.007-.577-.011-1.023-.014-1.342a2.811,2.811,0,0,0-.024-.457,3.02,3.02,0,0,0-.031.457c-.008.319-.02.763-.036,1.341-.019,1.2-.046,2.93-.081,5.157-.038,4.5-.094,10.972-.162,18.97-.06,16.036-.143,38.157-.235,62.6-.073,24.434-.175,46.559-.343,62.576-.082,8.008-.179,14.49-.279,18.969-.05,2.24-.1,3.979-.151,5.157a9.4,9.4,0,0,1-.141,1.8,9.5,9.5,0,0,1-.112-1.8c-.031-1.179-.052-2.919-.065-5.159-.027-4.479-.017-10.962.033-18.97.1-16.018.359-38.143.688-62.573" transform="translate(-10.023 -5.314)" fill="#ebebeb"/>
            <path id="Trazado_827429" data-name="Trazado 827429" d="M136.8,163.908c4.107-24.1,7.823-45.906,10.518-61.712,1.3-7.892,2.361-14.281,3.095-18.717.348-2.2.617-3.913.8-5.1.083-.572.147-1.012.193-1.328a2.818,2.818,0,0,0,.046-.456,2.787,2.787,0,0,0-.1.446c-.058.314-.14.751-.245,1.32-.2,1.179-.5,2.886-.883,5.082-.736,4.436-1.8,10.823-3.109,18.715-2.55,15.831-6.067,37.671-9.954,61.806-3.867,24.126-7.4,45.967-10.057,61.763-1.326,7.9-2.429,14.286-3.224,18.7-.4,2.2-.719,3.914-.952,5.071a9.155,9.155,0,0,1-.421,1.753,9.353,9.353,0,0,1,.167-1.795c.152-1.171.4-2.892.736-5.107.669-4.43,1.687-10.832,2.979-18.736,2.584-15.808,6.284-37.622,10.41-61.7" transform="translate(-8.585 -5.368)" fill="#ebebeb"/>
            <path id="Trazado_827430" data-name="Trazado 827430" d="M130.009,162.7l20.11-59.285,6-18,1.6-4.905.4-1.28a2.648,2.648,0,0,0,.117-.443,2.625,2.625,0,0,0-.172.424c-.107.3-.256.72-.45,1.264-.389,1.133-.95,2.772-1.673,4.879-1.426,4.265-3.481,10.406-6.018,17.992l-19.561,59.468c-7.616,23.215-14.546,44.229-19.656,59.41-2.553,7.591-4.649,13.725-6.129,17.953-.74,2.114-1.327,3.752-1.74,4.858a9.25,9.25,0,0,1-.693,1.665,9.259,9.259,0,0,1,.446-1.747c.335-1.132.85-2.793,1.53-4.928,1.358-4.269,3.369-10.432,5.891-18.033,5.04-15.2,12.131-36.163,20-59.3" transform="translate(-7.158 -5.522)" fill="#ebebeb"/>
            <path id="Trazado_827431" data-name="Trazado 827431" d="M123.576,160.76c11.4-21.627,21.708-41.2,29.184-55.385l8.761-16.827,2.348-4.592.6-1.2a2.837,2.837,0,0,0,.186-.418,2.772,2.772,0,0,0-.236.392l-.643,1.177c-.562,1.056-1.374,2.588-2.42,4.556l-8.773,16.82C145.233,119.535,135.1,139.2,123.9,160.929c-11.177,21.728-21.329,41.387-28.762,55.575-3.716,7.1-6.75,12.824-8.877,16.766-1.063,1.971-1.9,3.5-2.48,4.524a9.4,9.4,0,0,1-.945,1.536,9.35,9.35,0,0,1,.718-1.654c.51-1.065,1.281-2.623,2.288-4.624,2.013-4,4.97-9.771,8.658-16.88,7.371-14.222,17.669-33.8,29.076-55.412" transform="translate(-5.805 -5.77)" fill="#ebebeb"/>
            <path id="Trazado_827432" data-name="Trazado 827432" d="M117.66,158.134l37.482-50.14c4.757-6.431,8.609-11.636,11.285-15.251,1.311-1.8,2.332-3.2,3.037-4.169.335-.472.592-.834.777-1.094a2.834,2.834,0,0,0,.249-.385,3,3,0,0,0-.295.352l-.818,1.063c-.72.955-1.762,2.342-3.1,4.12l-11.295,15.243-37.025,50.481c-14.435,19.713-27.535,37.544-37.1,50.4-4.779,6.427-8.672,11.61-11.389,15.173-1.359,1.781-2.422,3.156-3.157,4.08a9.285,9.285,0,0,1-1.174,1.369,9.392,9.392,0,0,1,.967-1.521c.67-.972,1.676-2.392,2.982-4.211,2.614-3.639,6.437-8.873,11.19-15.32,9.5-12.894,22.736-30.627,37.38-50.186" transform="translate(-4.565 -6.104)" fill="#ebebeb"/>
            <path id="Trazado_827433" data-name="Trazado 827433" d="M112.4,154.892c17.5-17.064,33.343-32.507,44.825-43.7l13.518-13.309,3.649-3.646.938-.959a2.8,2.8,0,0,0,.306-.34,2.7,2.7,0,0,0-.345.3l-.975.922-3.7,3.589-13.528,13.3-44.425,44.107c-17.326,17.227-33.041,32.8-44.484,44.011-5.721,5.606-10.371,10.121-13.61,13.218-1.619,1.546-2.885,2.741-3.753,3.538a9.355,9.355,0,0,1-1.372,1.171,9.368,9.368,0,0,1,1.192-1.353c.813-.856,2.026-2.1,3.6-3.7,3.149-3.186,7.739-7.764,13.436-13.393,11.392-11.259,27.223-26.718,44.73-43.761" transform="translate(-3.465 -6.513)" fill="#ebebeb"/>
            <path id="Trazado_827434" data-name="Trazado 827434" d="M107.927,151.118,159,114.92l15.425-11.045,4.172-3.034,1.076-.8a2.9,2.9,0,0,0,.355-.288,2.674,2.674,0,0,0-.389.243l-1.106.76-4.217,2.969-15.433,11.034-50.745,36.661c-19.794,14.324-37.74,27.266-50.788,36.558-6.522,4.647-11.819,8.384-15.5,10.939-1.839,1.278-3.276,2.26-4.258,2.913a9.441,9.441,0,0,1-1.537.942,9.319,9.319,0,0,1,1.387-1.151c.936-.719,2.329-1.761,4.132-3.09,3.606-2.659,8.852-6.467,15.356-11.14,13.006-9.35,31.047-22.158,50.993-36.271" transform="translate(-2.527 -6.99)" fill="#ebebeb"/>
            <path id="Trazado_827435" data-name="Trazado 827435" d="M104.34,146.905l56.109-27.765,16.962-8.5L182,108.3l1.188-.625a2.785,2.785,0,0,0,.4-.229,2.806,2.806,0,0,0-.421.179l-1.211.577c-1.075.526-2.631,1.292-4.631,2.273l-16.967,8.486-55.852,28.277C82.715,158.289,62.967,168.267,48.627,175.4c-7.17,3.571-12.985,6.433-17.019,8.38-2.018.974-3.589,1.719-4.663,2.211a9.275,9.275,0,0,1-1.665.689,9.307,9.307,0,0,1,1.55-.92c1.037-.564,2.575-1.376,4.564-2.408,3.977-2.063,9.754-5,16.908-8.6,14.308-7.2,34.131-17.031,56.038-27.851" transform="translate(-1.772 -7.53)" fill="#ebebeb"/>
            <path id="Trazado_827436" data-name="Trazado 827436" d="M101.737,142.358l59.779-18.591,18.087-5.724,4.905-1.594,1.271-.429a2.794,2.794,0,0,0,.428-.166,2.792,2.792,0,0,0-.444.111l-1.287.379-4.93,1.515-18.092,5.711-59.605,19.139c-23.258,7.489-44.33,14.236-59.614,19.029-7.641,2.4-13.834,4.309-18.126,5.6-2.145.644-3.815,1.133-4.952,1.45a9.33,9.33,0,0,1-1.754.418,9.272,9.272,0,0,1,1.677-.665c1.112-.394,2.759-.954,4.885-1.66,4.253-1.412,10.42-3.406,18.052-5.835,15.262-4.862,36.384-11.449,59.721-18.687" transform="translate(-1.219 -8.119)" fill="#ebebeb"/>
            <path id="Trazado_827437" data-name="Trazado 827437" d="M100.188,137.579l61.959-8.955,18.763-2.806,5.1-.8,1.323-.223a2.769,2.769,0,0,0,.447-.1,2.79,2.79,0,0,0-.456.039l-1.331.172-5.107.722-18.765,2.793-61.874,9.521c-24.146,3.735-46.018,7.082-61.866,9.41-7.924,1.165-14.341,2.079-18.781,2.676-2.221.3-3.946.519-5.118.653a9.458,9.458,0,0,1-1.8.139,9.265,9.265,0,0,1,1.76-.393c1.161-.214,2.875-.507,5.086-.869,4.421-.724,10.825-1.724,18.744-2.922,15.837-2.4,37.732-5.582,61.918-9.058" transform="translate(-0.889 -8.738)" fill="#ebebeb"/>
            <path id="Trazado_827438" data-name="Trazado 827438" d="M99.728,132.559l62.6.758,18.97.139h5.158l1.341-.015a2.923,2.923,0,0,0,.458-.023,2.873,2.873,0,0,0-.457-.031l-1.341-.035-5.158-.078-18.97-.15-62.6-.2c-24.434-.059-46.559-.146-62.576-.3-8.008-.077-14.49-.169-18.969-.267-2.239-.049-3.978-.1-5.157-.148a9.4,9.4,0,0,1-1.8-.14,9.557,9.557,0,0,1,1.8-.113c1.18-.031,2.919-.054,5.159-.069,4.48-.029,10.962-.022,18.971.021,16.018.086,38.142.336,62.573.65" transform="translate(-0.787 -9.241)" fill="#ebebeb"/>
            <path id="Trazado_827439" data-name="Trazado 827439" d="M100.353,125.607l61.72,10.48,18.718,3.083,5.1.8,1.328.192a2.822,2.822,0,0,0,.455.047,2.838,2.838,0,0,0-.445-.1l-1.32-.245-5.083-.88-18.717-3.1-61.813-9.915c-24.128-3.851-45.972-7.372-61.77-10.017-7.9-1.321-14.287-2.42-18.7-3.213-2.2-.4-3.914-.717-5.071-.949a9.211,9.211,0,0,1-1.754-.42,9.43,9.43,0,0,1,1.8.166c1.17.153,2.892.4,5.107.733,4.43.666,10.833,1.679,18.737,2.967,15.811,2.573,37.626,6.259,61.712,10.369" transform="translate(-0.911 -7.804)" fill="#ebebeb"/>
            <path id="Trazado_827440" data-name="Trazado 827440" d="M102.065,118.812l59.3,20.071,18,5.992,4.906,1.592,1.281.4a2.6,2.6,0,0,0,.443.117,2.793,2.793,0,0,0-.425-.171l-1.264-.45-4.88-1.67-18-6.006-59.481-19.522c-23.221-7.6-44.238-14.518-59.423-19.618C34.932,97,28.8,94.907,24.568,93.428c-2.115-.739-3.753-1.324-4.859-1.736A9.2,9.2,0,0,1,18.044,91a9.308,9.308,0,0,1,1.747.445c1.132.335,2.793.849,4.929,1.527,4.27,1.355,10.434,3.363,18.037,5.88,15.207,5.031,36.171,12.108,59.309,19.96" transform="translate(-1.264 -6.377)" fill="#ebebeb"/>
            <path id="Trazado_827441" data-name="Trazado 827441" d="M104.824,112.376l55.4,29.148c7.1,3.689,12.843,6.676,16.833,8.751l4.595,2.345,1.2.6a2.625,2.625,0,0,0,.418.185,2.731,2.731,0,0,0-.392-.235l-1.177-.643-4.558-2.416-16.826-8.763L104.655,112.7c-21.734-11.163-41.4-21.3-55.593-28.727-7.1-3.711-12.827-6.742-16.772-8.866-1.972-1.062-3.5-1.9-4.525-2.477a9.435,9.435,0,0,1-1.537-.944,9.3,9.3,0,0,1,1.655.716c1.064.51,2.624,1.28,4.625,2.285,4,2.011,9.773,4.965,16.886,8.647,14.225,7.361,33.815,17.647,55.43,29.041" transform="translate(-1.838 -5.024)" fill="#ebebeb"/>
            <path id="Trazado_827442" data-name="Trazado 827442" d="M108.555,106.457l50.166,37.451,15.257,11.274c1.8,1.311,3.2,2.33,4.171,3.035l1.095.776a2.872,2.872,0,0,0,.384.249,2.721,2.721,0,0,0-.351-.295l-1.064-.818-4.123-3.1-15.25-11.285-50.5-36.993C88.613,92.332,70.773,79.243,57.916,69.69,51.487,64.915,46.3,61.026,42.737,58.311c-1.782-1.357-3.159-2.421-4.083-3.154a9.445,9.445,0,0,1-1.37-1.173,9.334,9.334,0,0,1,1.523.966c.972.669,2.392,1.673,4.212,2.979,3.64,2.612,8.878,6.43,15.327,11.18,12.9,9.494,30.642,22.717,50.209,37.348" transform="translate(-2.613 -3.783)" fill="#ebebeb"/>
            <path id="Trazado_827443" data-name="Trazado 827443" d="M113.158,101.2l43.73,44.8,13.318,13.511,3.648,3.646.959.937a2.771,2.771,0,0,0,.341.306,2.775,2.775,0,0,0-.3-.345l-.922-.974-3.591-3.7-13.309-13.52-44.136-44.4C95.656,84.143,80.07,68.438,68.855,57,63.246,51.284,58.728,46.636,55.63,43.4c-1.549-1.618-2.743-2.883-3.542-3.751a9.326,9.326,0,0,1-1.171-1.371,9.388,9.388,0,0,1,1.353,1.191c.856.812,2.1,2.025,3.7,3.6,3.19,3.146,7.769,7.733,13.4,13.427C80.635,67.881,96.1,83.7,113.158,101.2" transform="translate(-3.568 -2.682)" fill="#ebebeb"/>
            <path id="Trazado_827444" data-name="Trazado 827444" d="M118.523,96.718c14.148,19.936,26.95,37.977,36.231,51.054l11.054,15.418,3.037,4.169.8,1.076a2.941,2.941,0,0,0,.289.355,2.673,2.673,0,0,0-.243-.389c-.181-.262-.433-.629-.761-1.1-.689-.978-1.688-2.4-2.972-4.216l-11.044-15.425c-9.4-12.992-22.365-30.916-36.694-50.723-14.336-19.785-27.29-37.722-36.59-50.764-4.651-6.52-8.392-11.814-10.949-15.492-1.279-1.839-2.262-3.274-2.915-4.257a9.368,9.368,0,0,1-.944-1.536,9.348,9.348,0,0,1,1.152,1.387c.72.935,1.762,2.328,3.093,4.129,2.661,3.6,6.471,8.848,11.15,15.349,9.359,13,22.179,31.033,36.3,50.97" transform="translate(-4.683 -1.744)" fill="#ebebeb"/>
            <path id="Trazado_827445" data-name="Trazado 827445" d="M124.525,93.128c10.856,21.9,20.681,41.724,27.8,56.091,3.589,7.149,6.493,12.937,8.509,16.956l2.348,4.593.625,1.188a2.719,2.719,0,0,0,.23.4,2.682,2.682,0,0,0-.179-.421l-.577-1.211L161,166.09l-8.5-16.963c-7.252-14.3-17.257-34.031-28.313-55.834-11.067-21.783-21.058-41.525-28.2-55.86-3.575-7.167-6.442-12.981-8.392-17.014-.975-2.017-1.721-3.589-2.214-4.661a9.213,9.213,0,0,1-.69-1.665,9.426,9.426,0,0,1,.921,1.55c.565,1.036,1.378,2.574,2.41,4.562,2.065,3.975,5.009,9.75,8.613,16.9,7.212,14.3,17.053,34.12,27.886,56.02" transform="translate(-5.935 -0.988)" fill="#ebebeb"/>
            <path id="Trazado_827446" data-name="Trazado 827446" d="M131.022,90.52c7.275,23.338,13.858,44.459,18.629,59.767,2.419,7.624,4.376,13.8,5.736,18.083.69,2.118,1.226,3.767,1.6,4.905.186.547.328.968.431,1.27a2.691,2.691,0,0,0,.166.427,2.674,2.674,0,0,0-.111-.444l-.38-1.287c-.352-1.144-.862-2.8-1.519-4.93-1.356-4.287-3.309-10.462-5.722-18.088-4.912-15.264-11.688-36.323-19.177-59.593-7.5-23.253-14.265-44.321-19.067-59.6-2.4-7.64-4.319-13.833-5.609-18.122-.646-2.145-1.135-3.815-1.453-4.951a9.316,9.316,0,0,1-.419-1.754,9.3,9.3,0,0,1,.667,1.676c.394,1.111.955,2.758,1.662,4.884,1.414,4.252,3.414,10.417,5.847,18.047,4.872,15.26,11.472,36.378,18.725,59.71" transform="translate(-7.296 -0.435)" fill="#ebebeb"/>
            <path id="Trazado_827447" data-name="Trazado 827447" d="M137.852,88.968c3.512,24.192,6.69,46.085,8.994,61.953,1.188,7.911,2.15,14.314,2.818,18.761.347,2.2.617,3.912.8,5.1.1.569.171,1.008.225,1.322a2.98,2.98,0,0,0,.1.448,2.623,2.623,0,0,0-.04-.457c-.04-.316-.1-.757-.172-1.331-.168-1.185-.413-2.9-.725-5.106-.664-4.448-1.622-10.852-2.8-18.763-2.448-15.847-5.826-37.71-9.56-61.869-3.751-24.144-7.112-46.013-9.449-61.859-1.171-7.923-2.089-14.34-2.688-18.78-.3-2.22-.522-3.946-.657-5.117a9.419,9.419,0,0,1-.139-1.8,9.3,9.3,0,0,1,.394,1.76c.215,1.161.51,2.874.872,5.085.728,4.421,1.732,10.824,2.935,18.743,2.409,15.836,5.606,37.73,9.1,61.912" transform="translate(-8.727 -0.103)" fill="#ebebeb"/>
            <path id="Trazado_827448" data-name="Trazado 827448" d="M144.728,88.5c-.281,24.444-.535,46.565-.719,62.6-.053,8-.1,14.474-.126,18.971,0,2.227,0,3.961,0,5.157.007.578.012,1.023.016,1.342a2.848,2.848,0,0,0,.024.458,2.886,2.886,0,0,0,.031-.458c.008-.319.02-.763.034-1.341.018-1.2.043-2.93.074-5.157.033-4.5.08-10.972.139-18.971.04-16.035.095-38.157.156-62.6.043-24.433.116-46.559.264-62.576.073-8.009.161-14.49.256-18.969.047-2.239.1-3.978.144-5.157a9.335,9.335,0,0,1,.139-1.8,9.482,9.482,0,0,1,.113,1.8c.032,1.179.056,2.919.072,5.159.033,4.479.03,10.962-.009,18.97-.075,16.018-.312,38.143-.61,62.574" transform="translate(-10.083 0)" fill="#ebebeb"/>
            <path id="Trazado_827449" data-name="Trazado 827449" d="M149.627,89.123c-4.077,24.1-7.766,45.916-10.44,61.726-1.294,7.893-2.343,14.284-3.072,18.721l-.8,5.1c-.083.572-.146,1.012-.192,1.328a2.819,2.819,0,0,0-.047.456,2.622,2.622,0,0,0,.1-.446c.058-.314.139-.751.244-1.32.2-1.179.5-2.887.877-5.083.731-4.437,1.784-10.826,3.085-18.719,2.529-15.834,6.018-37.679,9.875-61.818,3.835-24.131,7.343-45.977,9.977-61.777,1.316-7.9,2.41-14.289,3.2-18.7.4-2.2.714-3.916.945-5.073a9.3,9.3,0,0,1,.419-1.754,9.267,9.267,0,0,1-.165,1.8c-.152,1.171-.4,2.893-.729,5.108-.663,4.43-1.672,10.834-2.955,18.739-2.563,15.811-6.235,37.631-10.329,61.719" transform="translate(-9.466 -0.123)" fill="#ebebeb"/>
            <path id="Trazado_827450" data-name="Trazado 827450" d="M154.378,90.832c-7.822,23.161-14.9,44.119-20.033,59.311-2.521,7.591-4.562,13.736-5.98,18l-1.589,4.908c-.171.551-.3.976-.4,1.281a2.774,2.774,0,0,0-.117.443,2.624,2.624,0,0,0,.172-.424c.107-.3.255-.721.448-1.265.387-1.133.948-2.773,1.667-4.881l5.994-18c4.991-15.239,11.875-36.262,19.484-59.494,7.585-23.226,14.489-44.248,19.579-59.435,2.543-7.595,4.631-13.731,6.107-17.961.737-2.116,1.322-3.754,1.732-4.86a9.176,9.176,0,0,1,.692-1.665,9.242,9.242,0,0,1-.445,1.747c-.333,1.132-.846,2.794-1.523,4.93-1.352,4.271-3.356,10.436-5.868,18.04-5.021,15.211-12.084,36.18-19.922,59.322" transform="translate(-8.848 -0.476)" fill="#ebebeb"/>
            <path id="Trazado_827451" data-name="Trazado 827451" d="M158.876,93.586c-11.369,21.642-21.656,41.226-29.112,55.422-3.686,7.1-6.669,12.847-8.74,16.838l-2.342,4.6-.6,1.2a2.8,2.8,0,0,0-.187.418,2.85,2.85,0,0,0,.237-.392c.151-.28.365-.671.64-1.179.56-1.057,1.372-2.589,2.413-4.558,2.076-3.989,5.062-9.734,8.752-16.832,7.328-14.263,17.437-33.94,28.607-55.685C169.7,71.675,179.825,52,187.24,37.8c3.708-7.1,6.734-12.831,8.857-16.777,1.06-1.973,1.894-3.5,2.474-4.528a9.32,9.32,0,0,1,.943-1.537,9.423,9.423,0,0,1-.715,1.655c-.509,1.065-1.278,2.625-2.282,4.627-2.009,4.005-4.958,9.777-8.636,16.891-7.352,14.232-17.625,33.828-29,55.449" transform="translate(-8.262 -1.049)" fill="#ebebeb"/>
            <path id="Trazado_827452" data-name="Trazado 827452" d="M163.021,97.313c-14.612,19.6-27.834,37.334-37.418,50.19l-11.265,15.265-3.032,4.173-.776,1.095a2.873,2.873,0,0,0-.249.384,2.77,2.77,0,0,0,.294-.351l.818-1.064c.718-.958,1.758-2.343,3.1-4.125l11.275-15.257,36.961-50.528c14.41-19.732,27.488-37.579,37.031-50.443,4.771-6.433,8.657-11.621,11.369-15.187,1.357-1.784,2.42-3.161,3.152-4.085a9.4,9.4,0,0,1,1.172-1.371,9.276,9.276,0,0,1-.965,1.523c-.668.973-1.672,2.394-2.977,4.214-2.609,3.642-6.425,8.882-11.169,15.333-9.487,12.906-22.7,30.656-37.317,50.233" transform="translate(-7.728 -1.823)" fill="#ebebeb"/>
            <path id="Trazado_827453" data-name="Trazado 827453" d="M166.711,101.913l-44.769,43.759L108.441,159l-3.644,3.65-.937.961a2.934,2.934,0,0,0-.306.34,2.775,2.775,0,0,0,.345-.3l.974-.923,3.7-3.594,13.511-13.317,44.369-44.164c17.3-17.25,33-32.846,44.428-44.068,5.713-5.613,10.358-10.134,13.593-13.234,1.617-1.55,2.881-2.745,3.749-3.545a9.475,9.475,0,0,1,1.37-1.173,9.268,9.268,0,0,1-1.19,1.355c-.811.856-2.023,2.1-3.6,3.7-3.144,3.191-7.729,7.774-13.419,13.41-11.379,11.273-27.189,26.752-44.675,43.818" transform="translate(-7.257 -2.777)" fill="#ebebeb"/>
            <path id="Trazado_827454" data-name="Trazado 827454" d="M169.853,107.275l-51.03,36.263c-6.5,4.664-11.758,8.442-15.411,11.064l-4.168,3.039-1.075.8a2.671,2.671,0,0,0-.354.289,2.91,2.91,0,0,0,.388-.244l1.1-.761,4.213-2.975L118.94,143.7l50.7-36.725c19.776-14.35,37.7-27.316,50.741-36.623,6.517-4.656,11.808-8.4,15.485-10.958,1.838-1.281,3.273-2.264,4.255-2.919a9.319,9.319,0,0,1,1.536-.944,9.366,9.366,0,0,1-1.387,1.152c-.936.721-2.327,1.764-4.128,3.1-3.6,2.664-8.844,6.478-15.342,11.16-12.993,9.367-31.018,22.2-50.947,36.336" transform="translate(-6.855 -3.891)" fill="#ebebeb"/>
            <path id="Trazado_827455" data-name="Trazado 827455" d="M172.365,113.274l-56.073,27.838-16.951,8.52-4.591,2.35c-.511.269-.9.477-1.187.626a2.7,2.7,0,0,0-.4.231,2.761,2.761,0,0,0,.421-.179c.287-.139.689-.329,1.211-.579l4.627-2.278,16.957-8.508L172.2,112.945c21.776-11.082,41.512-21.086,55.842-28.242,7.165-3.579,12.977-6.449,17.009-8.4,2.016-.977,3.587-1.724,4.659-2.217a9.231,9.231,0,0,1,1.665-.693,9.253,9.253,0,0,1-1.549.922c-1.036.565-2.573,1.379-4.56,2.413-3.975,2.068-9.747,5.015-16.9,8.625-14.3,7.22-34.109,17.075-56,27.922" transform="translate(-6.529 -5.143)" fill="#ebebeb"/>
            <path id="Trazado_827456" data-name="Trazado 827456" d="M174.183,119.77l-59.755,18.668-18.08,5.747-4.9,1.6-1.27.431a2.679,2.679,0,0,0-.427.166,2.775,2.775,0,0,0,.444-.112l1.286-.38,4.929-1.522,18.084-5.733,59.581-19.216c23.248-7.518,44.312-14.294,59.589-19.105,7.638-2.408,13.83-4.328,18.119-5.621,2.144-.647,3.814-1.138,4.95-1.456a9.332,9.332,0,0,1,1.754-.421,9.3,9.3,0,0,1-1.676.668c-1.111.4-2.758.957-4.883,1.665-4.251,1.417-10.415,3.42-18.043,5.859-15.256,4.881-36.37,11.5-59.7,18.763" transform="translate(-6.289 -6.504)" fill="#ebebeb"/>
            <path id="Trazado_827457" data-name="Trazado 827457" d="M175.264,126.6l-61.948,9.034-18.758,2.83-5.1.808-1.322.225a2.831,2.831,0,0,0-.448.1,2.622,2.622,0,0,0,.457-.04l1.33-.173,5.107-.728,18.761-2.817,61.862-9.6c24.142-3.765,46.009-7.141,61.854-9.489,7.922-1.175,14.338-2.1,18.777-2.7,2.22-.3,3.946-.524,5.117-.659a9.287,9.287,0,0,1,1.8-.14,9.336,9.336,0,0,1-1.76.4c-1.16.216-2.874.511-5.084.876-4.421.73-10.824,1.738-18.741,2.946-15.835,2.42-37.726,5.631-61.907,9.137" transform="translate(-6.145 -7.935)" fill="#ebebeb"/>
            <path id="Trazado_827458" data-name="Trazado 827458" d="M68.933,311.776c5.341-2.755,11.629-3.113,17.558-2.134,3.185.527,6.506,1.48,8.673,3.872s2.578,6.6.089,8.659c-1.481,1.224-3.547,1.41-5.469,1.387-4.641-.054-9.791-.871-13.5,1.921-2.116,1.593-3.523,4.242-6.053,5.025-2.475.767-5.267-.694-6.58-2.927a10.23,10.23,0,0,1-.744-7.543,11.516,11.516,0,0,1,6.024-8.262" transform="translate(-4.382 -64.847)" fill="#e9f5dc"/>
            <path id="Trazado_827459" data-name="Trazado 827459" d="M56.026,282.924c3.266,4.664,9.613,3.12,12.556.273s4.187-6.974,5.318-10.908c2.587-8.99,5.2-18.422,3.272-27.577a15.326,15.326,0,0,0-3.523-7.5,8.005,8.005,0,0,0-7.584-2.524c-3.2.845-5.189,3.98-6.627,6.961a65.728,65.728,0,0,0-6.5,28.21c-.017,4.544.52,9.309,3.083,13.061" transform="translate(-3.71 -59.615)" fill="#e9f5dc"/>
            <path id="Trazado_827460" data-name="Trazado 827460" d="M43.781,290.747C47.327,286.539,48,280.4,46.422,275.13s-5.142-9.757-9.25-13.418a49.788,49.788,0,0,0-16.564-9.773,17.663,17.663,0,0,0-7.45-1.266,7.819,7.819,0,0,0-6.252,3.782c-1.743,3.324-.072,7.358,1.736,10.648a126.164,126.164,0,0,0,10.879,16.567c3.261,4.2,7,8.352,11.966,10.251S41.62,293.6,44.254,290.15" transform="translate(-0.432 -60.746)" fill="#e9f5dc"/>
            <path id="Trazado_827461" data-name="Trazado 827461" d="M56.016,359a10.111,10.111,0,0,0,.3-2.119c.15-1.543.338-3.48.563-5.784a83.638,83.638,0,0,1,1.3-8.484A65.488,65.488,0,0,1,61.259,332.6a36.888,36.888,0,0,1,5.114-9.06,19.09,19.09,0,0,1,6.464-5.374,18.075,18.075,0,0,1,5.444-1.7,10.232,10.232,0,0,0,2.11-.305,9.893,9.893,0,0,0-2.147-.033,16.509,16.509,0,0,0-5.676,1.477,19.054,19.054,0,0,0-6.819,5.421,36.054,36.054,0,0,0-5.3,9.242,61.2,61.2,0,0,0-3.062,10.177,71.846,71.846,0,0,0-1.128,8.591c-.183,2.457-.253,4.446-.286,5.82a9.929,9.929,0,0,0,.045,2.14" transform="translate(-3.921 -65.335)" fill="#e0e0e0"/>
            <path id="Trazado_827462" data-name="Trazado 827462" d="M56.415,350.242a4.3,4.3,0,0,0,.056-.984c0-.738,0-1.67-.007-2.812-.007-2.44-.006-5.973.126-10.333.215-8.723.966-18.109,2.416-31.344,1.375-12.444,3.218-26.927,5.163-36.343.418-2.142.838-4.068,1.233-5.756.378-1.691.7-3.15,1.011-4.329.267-1.11.484-2.015.657-2.734a4.194,4.194,0,0,0,.171-.97,4.249,4.249,0,0,0-.341.922c-.215.709-.484,1.6-.816,2.695-.363,1.169-.734,2.618-1.156,4.3-.443,1.68-.9,3.6-1.363,5.741a319.439,319.439,0,0,0-5.428,33.723c-1.453,13.262-2.107,25.337-2.166,34.082-.051,4.372.041,7.911.153,10.353.07,1.142.126,2.073.172,2.811a4.122,4.122,0,0,0,.12.976" transform="translate(-3.921 -61.027)" fill="#e0e0e0"/>
            <path id="Trazado_827463" data-name="Trazado 827463" d="M54.164,327.489a18.743,18.743,0,0,0-.02-2.938c-.108-1.888-.367-4.616-.9-7.958A105.008,105.008,0,0,0,50.656,305a94.987,94.987,0,0,0-4.849-13.721A73.113,73.113,0,0,0,31.567,269.1a36.313,36.313,0,0,0-3.351-3.113c-.514-.434-.968-.868-1.431-1.212l-1.3-.9a18.8,18.8,0,0,0-2.474-1.584c-.14.191,3.5,2.336,8.107,7.232A77.041,77.041,0,0,1,45,291.624a108.272,108.272,0,0,1,4.877,13.595,117.792,117.792,0,0,1,2.754,11.48c.606,3.309.958,6.01,1.17,7.881a18.934,18.934,0,0,0,.36,2.91" transform="translate(-1.612 -61.564)" fill="#e0e0e0"/>
            <path id="Trazado_827464" data-name="Trazado 827464" d="M32.3,376.582l2.334,31.973H75.712l2.334-31.973Z" transform="translate(-2.264 -69.573)" fill="#ffe3d2"/>
            <rect id="Rectángulo_379905" data-name="Rectángulo 379905" width="54.61" height="12.602" transform="translate(26.073 294.407)" fill="#ffe3d2"/>
            <path id="Trazado_827465" data-name="Trazado 827465" d="M28.038,409.648v3.494H81.746v-3.494Z" transform="translate(-1.965 -71.89)" fill="#ebebeb"/>
            <path id="Trazado_827466" data-name="Trazado 827466" d="M33.313,419.552,30.8,413.4H79.983l-2.935,6.148Z" transform="translate(-2.158 -72.154)" fill="#ffe3d2"/>
            <path id="Trazado_827467" data-name="Trazado 827467" d="M77.336,387.479a1.33,1.33,0,0,1-.192.294c-.163.216-.365.484-.614.814l-2.393,3.062-.106.136-.1-.142-5.879-8.13h.339l-5.788,8.2-.181.257-.2-.242-6.864-8.167.4,0-.378.474c-2.129,2.669-4.188,5.252-6.137,7.694l-.2.257-.189-.267c-2.083-2.949-4.03-5.7-5.791-8.193l.338.016-7.132,8.125-.126.144-.1-.162L33.8,387.889l-.573-1a1.52,1.52,0,0,1-.175-.356,1.63,1.63,0,0,1,.239.317l.633.961,2.344,3.683-.223-.018,7.017-8.224.177-.207.16.223,5.843,8.156-.393-.011,6.123-7.705.378-.474.2-.246.2.24,6.845,8.182-.385.016c2.113-2.946,4.08-5.69,5.845-8.154l.171-.239.167.239,5.754,8.219-.209-.006,2.489-2.984c.271-.313.489-.567.667-.772.153-.172.237-.257.246-.249" transform="translate(-2.316 -70.022)" fill="#f5f5f5"/>
            <path id="Trazado_827468" data-name="Trazado 827468" d="M78.644,376.336c0,.141-10.291.256-22.984.256s-22.987-.114-22.987-.256,10.29-.256,22.987-.256,22.984.114,22.984.256" transform="translate(-2.29 -69.538)" fill="#f5f5f5"/>
            <path id="Trazado_827469" data-name="Trazado 827469" d="M80.574,413.756c0,.141-11.185.256-24.98.256s-24.982-.114-24.982-.256S41.8,413.5,55.594,413.5s24.98.114,24.98.256" transform="translate(-2.145 -72.16)" fill="#f5f5f5"/>
          </g>
        </g>
        <g id="Grupo_1076276" data-name="Grupo 1076276">
          <g id="Grupo_1076275" data-name="Grupo 1076275" clip-path="url(#clip-path-2)">
            <path id="Trazado_827470" data-name="Trazado 827470" d="M276.693,209.948c-6.361-6.137-20.939-4.194-24.129.327a11.2,11.2,0,0,0-14.3,5.822l-15.353,4.43c-2.619.755-5.357,1.58-7.281,3.51s-2.661,5.337-.836,7.361c-5.394,1.786-7.009,10.1-2.677,13.775a5.917,5.917,0,0,0,1.438,8.486,59.285,59.285,0,0,0-8.9,18.006c-.8,2.7-1.388,5.69-.238,8.26s4.733,4.157,6.9,2.363a6.923,6.923,0,0,0,.165,7.483c-2.632.237-3.149,4.363-1.213,6.16s4.891,1.8,7.523,1.57,5.477-.558,7.741.8a2.4,2.4,0,0,1-.75,1.728c-4.284,3.976-5.152,10.4-1.448,14.922.343.419.663.806.945,1.154,1.67,2.066,5.578,3.8,8.008,4.875,6.163,2.715,9.674,1.9,16.389,2.42-1.532,4.409,9.894,13.2,21.647,3.051,25.105,5.007,43.054,6.356,68.6,4.746,3.645-.23,7.994-1.011,9.4-4.385,3.006.59,6.107-.993,8.149-3.276s3.232-5.184,4.382-8.024a15.913,15.913,0,0,0,10.49-15.058,19.673,19.673,0,0,0,6.486-14.444c6.014-2.274,8.872-10.458,5.582-15.982a69.638,69.638,0,0,0-8.993-21.008c4.12-1.177,5.322-6.915,3.347-10.717s-5.943-6.071-9.7-8.129c3.178.628,5.645-3.476,4.693-6.573s-3.922-5.081-6.8-6.563a58.89,58.89,0,0,0-13.328-4.925c-1.848-5.4-9.287-11.2-14.6-13.3-21.419-8.464-36.138-10-61.338,11.135" transform="translate(-14.28 -53.524)" fill="#263238"/>
            <path id="Trazado_827471" data-name="Trazado 827471" d="M347.6,293.25a7.541,7.541,0,0,1,2.81-2.233l-.23.007a4.513,4.513,0,0,1,.63-.166,2.978,2.978,0,0,1,2.359.079h-.022A5.542,5.542,0,0,1,356.4,293.3a6.563,6.563,0,0,1-.166,6.805,5.017,5.017,0,0,1-9.322-.894,6.228,6.228,0,0,1,.684-5.958" transform="translate(-24.279 -60.369)" fill="#aaccc4"/>
            <path id="Trazado_827472" data-name="Trazado 827472" d="M341.315,247.617C338.72,233.424,327.168,217,313.1,220.2L269.94,236.711a8.444,8.444,0,0,0-6.495,9.392l12.793,95.149a26.327,26.327,0,0,0,52.346-5.474c-.49-6.567-.844-11.5-.839-11.471,0,0,17.909-5.2,18.871-29.48.479-12.077-2.419-31.442-5.3-47.21" transform="translate(-18.456 -55.403)" fill="#876760"/>
            <path id="Trazado_827473" data-name="Trazado 827473" d="M339.062,271.128a3.078,3.078,0,0,1-2.582,3.433A2.945,2.945,0,0,1,333,272.178a3.08,3.08,0,0,1,2.579-3.434,2.946,2.946,0,0,1,3.482,2.384" transform="translate(-23.334 -58.83)" fill="#263238"/>
            <path id="Trazado_827474" data-name="Trazado 827474" d="M343.03,260.93c-.331.444-2.85-1-6.139-.6-3.29.351-5.5,2.329-5.909,1.969-.2-.157.105-.922,1.066-1.812a8.447,8.447,0,0,1,4.671-2.069,8.109,8.109,0,0,1,4.945.974c1.1.656,1.532,1.337,1.366,1.537" transform="translate(-23.191 -58.106)" fill="#263238"/>
            <path id="Trazado_827475" data-name="Trazado 827475" d="M307.2,274.307a3.078,3.078,0,0,1-2.582,3.433,2.944,2.944,0,0,1-3.477-2.382,3.08,3.08,0,0,1,2.58-3.435,2.945,2.945,0,0,1,3.48,2.384" transform="translate(-21.101 -59.053)" fill="#263238"/>
            <path id="Trazado_827476" data-name="Trazado 827476" d="M308.339,265.709c-.333.444-2.855-1-6.14-.6-3.29.351-5.5,2.329-5.91,1.969-.2-.158.1-.922,1.067-1.813a8.445,8.445,0,0,1,4.671-2.069,8.119,8.119,0,0,1,4.945.974c1.1.656,1.531,1.337,1.367,1.537" transform="translate(-20.76 -58.441)" fill="#263238"/>
            <path id="Trazado_827477" data-name="Trazado 827477" d="M324.835,288.562c-.037-.185,1.965-.78,5.229-1.6.829-.186,1.6-.447,1.678-1.036a4.311,4.311,0,0,0-.855-2.424q-1.547-2.908-3.242-6.1c-4.528-8.7-7.913-15.891-7.56-16.069s4.308,6.725,8.836,15.423q1.643,3.222,3.141,6.152a4.893,4.893,0,0,1,.827,3.245,2.125,2.125,0,0,1-1.236,1.392,5.69,5.69,0,0,1-1.4.366c-3.313.576-5.381.835-5.415.649" transform="translate(-22.429 -58.314)" fill="#263238"/>
            <path id="Trazado_827478" data-name="Trazado 827478" d="M330.115,331.827a61.067,61.067,0,0,1-32.931-4.734s9.684,15.456,33.276,10.4Z" transform="translate(-20.826 -62.922)" fill="#664d49"/>
            <path id="Trazado_827479" data-name="Trazado 827479" d="M324.795,298.874a8.149,8.149,0,0,0-7.082-2.745,5.3,5.3,0,0,0-4.05,2.868,4.863,4.863,0,0,0,6.274,6.594,12.1,12.1,0,0,0,4.49-3.569,3.8,3.8,0,0,0,.895-1.354,1.69,1.69,0,0,0-.326-1.653" transform="translate(-21.95 -60.747)" fill="#664d49"/>
            <path id="Trazado_827480" data-name="Trazado 827480" d="M315.048,294.294c.531-.094.961,3.475,4.318,5.647s7.11,1.33,7.2,1.825c.077.219-.765.794-2.366,1.029a8.96,8.96,0,0,1-5.985-1.322,7.791,7.791,0,0,1-3.391-4.762c-.313-1.477-.02-2.408.227-2.417" transform="translate(-22.053 -60.624)" fill="#263238"/>
            <path id="Trazado_827481" data-name="Trazado 827481" d="M307.969,251.018c-.219.933-3.553.9-7.357,1.82-3.824.846-6.8,2.344-7.409,1.6-.273-.357.169-1.262,1.325-2.277a13.178,13.178,0,0,1,11.248-2.608c1.485.4,2.281,1.022,2.192,1.463" transform="translate(-20.542 -57.464)" fill="#263238"/>
            <path id="Trazado_827482" data-name="Trazado 827482" d="M340.405,248.887c-.49.816-2.847.309-5.577.594-2.74.192-4.973,1.1-5.6.38-.278-.352,0-1.144.922-1.97a8.122,8.122,0,0,1,9-.785c1.054.654,1.461,1.387,1.249,1.781" transform="translate(-23.065 -57.246)" fill="#263238"/>
            <path id="Trazado_827483" data-name="Trazado 827483" d="M354.505,257.721a16.483,16.483,0,0,0-4.724-10.009c-1.517-1.4-3.381-2.41-4.748-3.956-2.952-3.338-2.929-8.276-4.388-12.487a18.12,18.12,0,0,0-12.082-11.334c-4.607-1.273-9.675-.684-14.049-2.609-3.233-1.424-5.812-4.116-9.124-5.345-6.449-2.395-13.453,1.339-19.091,5.282-.825,4.767,2.435,8.6,5.575,12.281a16.774,16.774,0,0,0,12.8,5.8c3.753-.049,8.054-1.214,10.877,1.259,2.969,2.6,2.26,7.621,4.768,10.67,3.584,4.358,10.842,2.067,15.907,4.551,3.911,1.919,5.818,6.291,7.993,10.065s5.74,7.617,10.065,7.093a49.008,49.008,0,0,0,.226-11.264" transform="translate(-20.054 -54.803)" fill="#263238"/>
            <path id="Trazado_827484" data-name="Trazado 827484" d="M293.971,226.147a85.042,85.042,0,0,0-31.612,8.131c-2.944,1.407-5.97,3.141-7.5,6.026-1.341,2.536-1.3,5.56-1.06,8.419.763,8.952,5.177,19.655,9.2,27.688l11.681,5.874c8.467-2.672,3.418-17.257,2.453-24.683a17.655,17.655,0,0,0,9.144-16.3,19.542,19.542,0,0,0,7.688-15.152" transform="translate(-17.777 -55.848)" fill="#263238"/>
            <path id="Trazado_827485" data-name="Trazado 827485" d="M274.744,282.729c-.715-5.1-7.08-5.631-11.29-2.667-2.31,1.627-3.921,4.627-3.208,10.045,1.9,14.446,16.01,9.56,15.981,9.143-.019-.259-.644-10.551-1.482-16.521" transform="translate(-18.226 -59.5)" fill="#876760"/>
            <path id="Trazado_827486" data-name="Trazado 827486" d="M271.38,294.734c-.07-.037-.229.21-.629.46a2.539,2.539,0,0,1-1.876.286c-1.6-.36-3.2-2.614-3.616-5.208a8.378,8.378,0,0,1,.232-3.7,2.927,2.927,0,0,1,1.639-2.181,1.292,1.292,0,0,1,1.576.495c.246.379.193.679.272.694.045.031.278-.283.084-.865a1.626,1.626,0,0,0-.688-.83,1.915,1.915,0,0,0-1.44-.184,3.566,3.566,0,0,0-2.335,2.584,8.622,8.622,0,0,0-.343,4.142c.475,2.9,2.323,5.427,4.491,5.755A2.715,2.715,0,0,0,271,295.5c.4-.416.434-.749.381-.768" transform="translate(-18.511 -59.877)" fill="#664d49"/>
            <path id="Trazado_827487" data-name="Trazado 827487" d="M263.369,299.5a7.54,7.54,0,0,1,2.81-2.233l-.23.006a4.517,4.517,0,0,1,.63-.166,2.978,2.978,0,0,1,2.359.079h-.022a5.542,5.542,0,0,1,3.257,2.358,6.563,6.563,0,0,1-.166,6.805,5.017,5.017,0,0,1-9.322-.894,6.228,6.228,0,0,1,.684-5.958" transform="translate(-18.377 -60.807)" fill="#aaccc4"/>
            <path id="Trazado_827488" data-name="Trazado 827488" d="M268.555,296.873a.872.872,0,0,1-.028.2,1.987,1.987,0,0,1-.154.566,3.371,3.371,0,0,1-1.572,1.631,8.931,8.931,0,0,1-3.533,1.012,12.127,12.127,0,0,1-2.34.02,8.592,8.592,0,0,1-2.6-.581l.167-.1a7.236,7.236,0,0,1-11.153,5.428l.243-.06a3,3,0,0,1-1.808,1.409,4.138,4.138,0,0,1-2.365-.024,3.807,3.807,0,0,1-2-1.395,5.079,5.079,0,0,1-.912-2.335,7.442,7.442,0,0,1,1.224-4.956,21.858,21.858,0,0,1,3.55-4.005l.05.333a5.127,5.127,0,0,1-2.555-3.268,7.471,7.471,0,0,1,.1-4.31,11.5,11.5,0,0,1,2.272-3.805,34.667,34.667,0,0,1,3.219-3.159l0,.328a5.459,5.459,0,0,1-1.74-4.1,7.871,7.871,0,0,1,1.322-4.429c1.691-2.515,4.3-4.034,6.712-5.46l-.1.259a9.657,9.657,0,0,1,9.588-12.663l-.205.265a8.331,8.331,0,0,1,1.442-7.205A8.215,8.215,0,0,1,271.291,243l-.167.2a8.167,8.167,0,0,1,2.827-6.567,7.987,7.987,0,0,1,5.94-2.122l-.155.154a8.013,8.013,0,0,1,.9-3.809,10.3,10.3,0,0,1,2.006-2.824,8.348,8.348,0,0,1,4.8-2.505l.541-.077c.177-.009.349,0,.514,0a7.7,7.7,0,0,1,.927.038,10.068,10.068,0,0,1,1.414.289l.834.286a1.723,1.723,0,0,1,.278.11,1.628,1.628,0,0,1-.291-.072l-.842-.247a10.82,10.82,0,0,0-1.406-.248,7.468,7.468,0,0,0-.913-.02c-.163,0-.331,0-.5.007l-.531.086a8.228,8.228,0,0,0-4.666,2.51,10.1,10.1,0,0,0-1.935,2.778,7.778,7.778,0,0,0-.849,3.674l.008.167-.164-.013a7.7,7.7,0,0,0-5.7,2.079,7.838,7.838,0,0,0-2.684,6.294l.014.183-.182.014a7.849,7.849,0,0,0-5.619,3.329,7.941,7.941,0,0,0-1.363,6.855l.084.277-.289-.012a9.238,9.238,0,0,0-9.153,12.115l.055.167-.153.09c-2.408,1.424-4.956,2.925-6.565,5.326a7.444,7.444,0,0,0-1.25,4.178,5.022,5.022,0,0,0,1.588,3.781l.189.162-.187.167c-2.232,1.985-4.47,4.072-5.378,6.772a7.037,7.037,0,0,0-.1,4.059,4.71,4.71,0,0,0,2.334,3.016l.264.13-.214.2a21.505,21.505,0,0,0-3.5,3.92,7.056,7.056,0,0,0-1.183,4.693,3.9,3.9,0,0,0,2.644,3.433,3.2,3.2,0,0,0,3.767-1.2l.087-.163.156.1a7.042,7.042,0,0,0,7.36.153,7.125,7.125,0,0,0,3.366-5.319l.016-.165.152.065a8.4,8.4,0,0,0,2.52.589,12.071,12.071,0,0,0,2.3.008,8.932,8.932,0,0,0,3.488-.938,3.358,3.358,0,0,0,1.573-1.546c.2-.465.215-.743.243-.736" transform="translate(-16.85 -55.799)" fill="#455a64"/>
            <path id="Trazado_827489" data-name="Trazado 827489" d="M209.887,284.851a4.894,4.894,0,0,1-.61-.836,7.465,7.465,0,0,1-.979-2.816,7.328,7.328,0,0,1,.855-4.639,7.729,7.729,0,0,1,5.011-3.729l-.11.183a9.975,9.975,0,0,1,.787-7.256,9.72,9.72,0,0,1,2.62-3.226,23.023,23.023,0,0,1,3.83-2.159,7.99,7.99,0,0,0,1.818-1.267,4.946,4.946,0,0,0,1.194-1.883c.543-1.438.63-3.1,1.335-4.654a8.844,8.844,0,0,1,8.515-5.029l-.232.264a11.656,11.656,0,0,1,11.912-14.118l-.224.258a10.234,10.234,0,0,1,15.174-10.7l-.232.04a13.99,13.99,0,0,1,4.842-3.465,20.987,20.987,0,0,1,5.118-1.576,24.422,24.422,0,0,1,8.645-.048,17.363,17.363,0,0,1,5.266,1.749,10.117,10.117,0,0,1,1.242.77c.273.186.405.293.405.293-.021.033-.573-.375-1.7-.963a17.935,17.935,0,0,0-5.249-1.639,24.534,24.534,0,0,0-8.554.133,20.823,20.823,0,0,0-5.033,1.588,13.7,13.7,0,0,0-4.7,3.4l-.1.116-.133-.076a9.838,9.838,0,0,0-14.562,10.3l.048.27-.272-.012a11.229,11.229,0,0,0-11.467,13.589l.063.288-.295-.024a8.43,8.43,0,0,0-8.1,4.768c-.671,1.457-.766,3.106-1.336,4.623a5.349,5.349,0,0,1-1.3,2.023,8.334,8.334,0,0,1-1.911,1.325,23.028,23.028,0,0,0-3.787,2.107,9.4,9.4,0,0,0-2.541,3.1,9.689,9.689,0,0,0-.812,7.018l.042.151-.152.033a7.5,7.5,0,0,0-4.873,3.557,7.209,7.209,0,0,0-.9,4.505,7.674,7.674,0,0,0,.893,2.8c.329.589.558.863.539.877" transform="translate(-14.592 -55.265)" fill="#455a64"/>
            <path id="Trazado_827490" data-name="Trazado 827490" d="M355.114,278.584a1.426,1.426,0,0,1-.142-1.186,2.824,2.824,0,0,1,.761-1.264,4.927,4.927,0,0,1,1.727-1.033,8.507,8.507,0,0,0,2.2-1.111,4.509,4.509,0,0,0,1.464-2.448,8.879,8.879,0,0,0,.124-3.348c-.139-1.193-.419-2.448-.519-3.8-.228-2.751.734-5.629,1.22-8.712a12.051,12.051,0,0,0-.152-4.785A5.828,5.828,0,0,0,358.864,247c-1.543-.8-3.386-.938-5.212-1.353a8.791,8.791,0,0,1-2.688-1.02,5.849,5.849,0,0,1-2-2.16,28.252,28.252,0,0,1-1.944-5.6,9.662,9.662,0,0,0-1.206-2.678,4.444,4.444,0,0,0-2.276-1.719,16.273,16.273,0,0,0-4.054-.257,6.281,6.281,0,0,1-2.07-.361,4.008,4.008,0,0,1-1.7-1.238,14.161,14.161,0,0,1-1.789-3.6,8.936,8.936,0,0,0-2.06-3.141,8.766,8.766,0,0,0-6.539-2.561,9.011,9.011,0,0,0-6,2.679l-.18.187-.124-.228a13.851,13.851,0,0,0-9.16-6.81,12.753,12.753,0,0,0-4.879-.066,11.66,11.66,0,0,0-3.906,1.4A10.8,10.8,0,0,0,296.5,224.1c-.06.151-.107.271-.146.371a.492.492,0,0,1-.06.123.475.475,0,0,1,.031-.132c.032-.1.071-.226.119-.381a8.684,8.684,0,0,1,.572-1.45,10.157,10.157,0,0,1,3.945-4.344,11.787,11.787,0,0,1,3.972-1.473,12.971,12.971,0,0,1,4.99.025,14.15,14.15,0,0,1,9.43,6.933l-.3-.04a9.389,9.389,0,0,1,6.252-2.822,9.177,9.177,0,0,1,6.857,2.663,9.383,9.383,0,0,1,2.16,3.277,13.866,13.866,0,0,0,1.728,3.484,4.259,4.259,0,0,0,3.45,1.438,16.364,16.364,0,0,1,4.169.273,4.891,4.891,0,0,1,2.51,1.891,10.111,10.111,0,0,1,1.263,2.8,28.238,28.238,0,0,0,1.9,5.517,5.43,5.43,0,0,0,1.854,2.012,8.4,8.4,0,0,0,2.555.972c1.781.414,3.661.551,5.305,1.4a5.6,5.6,0,0,1,2.039,1.767,7.388,7.388,0,0,1,1.078,2.386,12.427,12.427,0,0,1,.139,4.938c-.514,3.132-1.477,5.963-1.271,8.636.086,1.326.355,2.581.485,3.794a9.087,9.087,0,0,1-.163,3.443,4.732,4.732,0,0,1-1.572,2.55,8.566,8.566,0,0,1-2.263,1.106,4.876,4.876,0,0,0-1.7.967,2.781,2.781,0,0,0-.767,1.193,1.783,1.783,0,0,0,.057,1.162" transform="translate(-20.764 -55.178)" fill="#455a64"/>
            <path id="Trazado_827491" data-name="Trazado 827491" d="M381.391,253.248a1.621,1.621,0,0,1-.169-.259c-.115-.2-.267-.456-.458-.785l-1.726-3.037c-.756-1.314-1.616-2.964-2.8-4.75a12.963,12.963,0,0,0-5.239-4.854c-1.22-.551-2.607-.872-4.013-1.378a9.218,9.218,0,0,1-2.067-1.015,5.025,5.025,0,0,1-1.618-1.785c-.8-1.456-.943-3.162-1.606-4.679a4.1,4.1,0,0,0-1.542-1.88,7.805,7.805,0,0,0-2.409-.909,15.009,15.009,0,0,1-2.638-.8,4.681,4.681,0,0,1-2.132-1.908c-1-1.7-1.156-3.686-1.652-5.538a7,7,0,0,0-1.157-2.593,3.643,3.643,0,0,0-2.413-1.347c-1.938-.258-3.939.557-6.088.378a5.131,5.131,0,0,1-2.9-1.276,13.233,13.233,0,0,1-1.989-2.365,27.791,27.791,0,0,0-1.776-2.386,5.619,5.619,0,0,0-2.266-1.67c-1.785-.67-3.717-.1-5.477.445a12.827,12.827,0,0,1-5.476.881,14.771,14.771,0,0,1-4.953-1.834,25.021,25.021,0,0,0-4.443-2.06,15.007,15.007,0,0,0-8.63.352,16.1,16.1,0,0,0-6.138,3.75,17.947,17.947,0,0,0-3.216,4.423,20.3,20.3,0,0,0-1.279,3.23l-.275.866a1.567,1.567,0,0,1-.109.291,1.613,1.613,0,0,1,.065-.3c.059-.22.135-.511.233-.88a18.58,18.58,0,0,1,1.21-3.282,17.807,17.807,0,0,1,3.2-4.521,16.253,16.253,0,0,1,6.212-3.87,15.278,15.278,0,0,1,8.832-.408A25.182,25.182,0,0,1,317,207.562a14.449,14.449,0,0,0,4.823,1.774,12.492,12.492,0,0,0,5.3-.88,18.294,18.294,0,0,1,2.79-.7,5.555,5.555,0,0,1,5.407,2.037,27.86,27.86,0,0,1,1.808,2.422,12.908,12.908,0,0,0,1.918,2.285,4.684,4.684,0,0,0,2.653,1.169c2,.183,4-.637,6.107-.373a4.075,4.075,0,0,1,2.692,1.509,7.386,7.386,0,0,1,1.236,2.755c.5,1.9.665,3.855,1.594,5.431a4.255,4.255,0,0,0,1.944,1.747,14.626,14.626,0,0,0,2.564.778,8.162,8.162,0,0,1,2.528.971,4.5,4.5,0,0,1,1.68,2.058c.685,1.606.823,3.295,1.572,4.661a5.951,5.951,0,0,0,3.48,2.655c1.375.506,2.771.838,4.025,1.414a13.155,13.155,0,0,1,5.315,5c1.18,1.817,2.017,3.477,2.75,4.8.708,1.319,1.263,2.351,1.653,3.078l.419.805a1.578,1.578,0,0,1,.13.282" transform="translate(-20.514 -54.368)" fill="#455a64"/>
            <path id="Trazado_827492" data-name="Trazado 827492" d="M368.478,241.761a1.148,1.148,0,0,1,.261-.065,1.644,1.644,0,0,1,.785.114,3.123,3.123,0,0,1,1.632,2.466,7.712,7.712,0,0,1-.152,2.192,8.925,8.925,0,0,0-.192,2.54,5.592,5.592,0,0,0,1.217,2.6c.627.834,1.407,1.639,2.062,2.639a4.177,4.177,0,0,1,.629,3.626c-.373,1.269-1.195,2.369-1.544,3.656a5.425,5.425,0,0,0,.688,3.964c.661,1.285,1.562,2.512,2.224,3.945a6.529,6.529,0,0,1,.638,2.322,5.92,5.92,0,0,1-.375,2.442,28.264,28.264,0,0,1-2.457,4.339,6.69,6.69,0,0,0-1.2,4.706c.308,1.664,1.362,3.127,2.112,4.768a7.563,7.563,0,0,1,.734,2.628,6.017,6.017,0,0,1-.489,2.659,22.212,22.212,0,0,1-2.831,4.332,11.816,11.816,0,0,0-2.236,4.293,35.259,35.259,0,0,1-1.175,4.626,5.274,5.274,0,0,1-1.339,1.944,6.712,6.712,0,0,1-1.98,1.139,17.994,17.994,0,0,0-1.959.864,7.2,7.2,0,0,0-1.593,1.264,14.828,14.828,0,0,0-2.151,3.279c-.588,1.129-1.129,2.237-1.754,3.24a9.97,9.97,0,0,1-4.783,4.088,10.706,10.706,0,0,1-4.706.8,9.537,9.537,0,0,1-2.954-.634,7.33,7.33,0,0,1-.949-.457,11.067,11.067,0,0,0,3.91.919,10.674,10.674,0,0,0,4.6-.856,9.744,9.744,0,0,0,4.612-4.026c.605-.989,1.134-2.091,1.717-3.231a15.079,15.079,0,0,1,2.185-3.372,7.528,7.528,0,0,1,1.676-1.343,18.137,18.137,0,0,1,2-.895,6.35,6.35,0,0,0,1.865-1.077,4.887,4.887,0,0,0,1.227-1.8,35.935,35.935,0,0,0,1.144-4.577,12.224,12.224,0,0,1,2.3-4.443,22.025,22.025,0,0,0,2.772-4.243,5.581,5.581,0,0,0,.456-2.464,7.152,7.152,0,0,0-.7-2.469c-.721-1.594-1.8-3.075-2.143-4.871a5.548,5.548,0,0,1,.164-2.659,10.716,10.716,0,0,1,1.094-2.352,28.283,28.283,0,0,0,2.434-4.263,5.515,5.515,0,0,0,.356-2.267,6.152,6.152,0,0,0-.594-2.183c-.631-1.383-1.524-2.611-2.2-3.935a5.789,5.789,0,0,1-.7-4.238c.39-1.378,1.219-2.466,1.571-3.658a3.847,3.847,0,0,0-.565-3.361c-.621-.966-1.392-1.781-2.023-2.638a5.839,5.839,0,0,1-1.238-2.743,9.05,9.05,0,0,1,.23-2.606,7.652,7.652,0,0,0,.189-2.134,3.053,3.053,0,0,0-1.5-2.406,1.876,1.876,0,0,0-1.01-.131" transform="translate(-24.152 -56.937)" fill="#455a64"/>
            <path id="Trazado_827493" data-name="Trazado 827493" d="M209.751,283.367a5.409,5.409,0,0,1-1.159-.029,7.936,7.936,0,0,1-3.153-1.086,7.755,7.755,0,0,1-3.374-4.05,8.174,8.174,0,0,1,.676-6.937,20.524,20.524,0,0,1,2.68-3.2,9.807,9.807,0,0,0,2.459-3.65,6.413,6.413,0,0,0-.566-4.593c-.67-1.515-1.633-2.969-2.292-4.652a14.272,14.272,0,0,1,9.372-18.915l-.106.351a7.246,7.246,0,0,1-1.493-3.077,9.141,9.141,0,0,1-.04-3.469,10.005,10.005,0,0,1,1.219-3.3,11.858,11.858,0,0,1,2.272-2.734,22.535,22.535,0,0,1,9.259-4.568,34.123,34.123,0,0,1,9.725-1.147l-.218.221a10.337,10.337,0,0,1,5.166-9.356,10.527,10.527,0,0,1,5.024-1.36,16.975,16.975,0,0,1,4.853.9,9.6,9.6,0,0,0,2.276.35,5.891,5.891,0,0,0,2.168-.392,17.9,17.9,0,0,0,3.7-2.155,15.6,15.6,0,0,1,3.543-1.95,12.634,12.634,0,0,1,3.629-.763,12.238,12.238,0,0,1,6.149,1.194,12.615,12.615,0,0,1,3.758,2.8,12.012,12.012,0,0,1,1.711,2.384,6.65,6.65,0,0,1,.432.917c-.02.01-.158-.31-.5-.881a12.845,12.845,0,0,0-1.752-2.322,12.652,12.652,0,0,0-3.743-2.711,12.069,12.069,0,0,0-6.041-1.115,12.4,12.4,0,0,0-3.544.772,15.358,15.358,0,0,0-3.465,1.939A18.075,18.075,0,0,1,254.618,209a6.2,6.2,0,0,1-2.29.424,9.931,9.931,0,0,1-2.362-.351,16.725,16.725,0,0,0-4.758-.873,10.152,10.152,0,0,0-4.832,1.325,9.936,9.936,0,0,0-4.939,8.99l.01.228-.229-.006a33.789,33.789,0,0,0-9.6,1.145,22.146,22.146,0,0,0-9.075,4.473,11.456,11.456,0,0,0-2.189,2.631,9.583,9.583,0,0,0-1.166,3.151,8.677,8.677,0,0,0,.035,3.3,6.8,6.8,0,0,0,1.4,2.889l.215.258-.321.092a13.878,13.878,0,0,0-9.136,18.359c.631,1.635,1.586,3.092,2.266,4.643a6.752,6.752,0,0,1,.56,4.838,10.074,10.074,0,0,1-2.555,3.765,20.447,20.447,0,0,0-2.664,3.13,7.957,7.957,0,0,0-.709,6.716,7.633,7.633,0,0,0,3.244,3.992,8.128,8.128,0,0,0,3.084,1.139c.75.106,1.149.083,1.148.107" transform="translate(-14.127 -54.281)" fill="#263238"/>
            <path id="Trazado_827494" data-name="Trazado 827494" d="M368.706,227.777a1.374,1.374,0,0,1-.061-.273l-.139-.81c-.124-.739-.3-1.783-.522-3.112-.242-1.347-.556-2.994-1.065-4.868a28.148,28.148,0,0,0-2.382-6.119,18.65,18.65,0,0,0-5.093-6.015,13.759,13.759,0,0,0-3.891-2.019,39.414,39.414,0,0,0-4.608-.967,13.179,13.179,0,0,1-4.727-1.692,20.8,20.8,0,0,1-3.971-3.4c-1.226-1.275-2.4-2.629-3.746-3.833a14.822,14.822,0,0,0-4.594-2.893,26.242,26.242,0,0,0-10.649-1.456,68.446,68.446,0,0,0-10.059,1.156,51.867,51.867,0,0,0-16.067,5.792,36.785,36.785,0,0,0-8.99,7.2c-.447.516-.864.961-1.193,1.37l-.8,1.063-.5.649a1.289,1.289,0,0,1-.184.213,1.318,1.318,0,0,1,.147-.239l.467-.675.772-1.093c.321-.419.728-.874,1.168-1.4a35.861,35.861,0,0,1,8.963-7.356,51.509,51.509,0,0,1,16.146-5.921,68.006,68.006,0,0,1,10.122-1.189,26.565,26.565,0,0,1,10.829,1.479,15.234,15.234,0,0,1,4.723,2.977c1.37,1.229,2.55,2.594,3.765,3.86a20.506,20.506,0,0,0,3.88,3.346,12.8,12.8,0,0,0,4.582,1.65,39.541,39.541,0,0,1,4.65,1,14.081,14.081,0,0,1,3.991,2.1,18.867,18.867,0,0,1,5.149,6.16,27.955,27.955,0,0,1,2.345,6.2c.489,1.891.779,3.549,1,4.9s.351,2.411.44,3.128c.039.338.071.608.095.816a1.321,1.321,0,0,1,.017.28" transform="translate(-20.005 -13.305)" fill="#263238"/>
            <path id="Trazado_827495" data-name="Trazado 827495" d="M366.366,414.378l-1.837-46.917s-3.481-9.738-4.641-9.738L323.4,345.26S310.923,359,296.215,357.454s-26.662-13.576-26.662-13.576l-40.618,9.7c-2.942.59-8.311,2.449-13.442,9.782-5.726,8.181-35.874,50.775-35.874,50.775" transform="translate(-12.588 -64.099)" fill="#bf9cd9"/>
            <path id="Trazado_827496" data-name="Trazado 827496" d="M372.034,358.482s14.87,4.737,20.612,13.349,23.486,43.7,23.486,43.7H377.249l-13.244-44.487Z" transform="translate(-25.509 -65.122)" fill="#bf9cd9"/>
            <path id="Trazado_827497" data-name="Trazado 827497" d="M378.587,416.739a11.446,11.446,0,0,1-.017-1.556,28.034,28.034,0,0,0-.5-4.193,71.911,71.911,0,0,0-4.227-13.3c-2.052-5.066-4.213-9.527-5.777-12.751l-1.877-3.81c-.2-.414-.362-.757-.5-1.042a1.388,1.388,0,0,1-.147-.378,1.427,1.427,0,0,1,.225.336l.572,1c.494.875,1.178,2.156,2,3.749,1.639,3.192,3.848,7.64,5.908,12.725a65.253,65.253,0,0,1,4.125,13.409,23.82,23.82,0,0,1,.366,4.247c-.025.5-.067.895-.091,1.158a1.384,1.384,0,0,1-.064.4" transform="translate(-25.617 -66.61)" fill="#263238"/>
            <path id="Trazado_827498" data-name="Trazado 827498" d="M178.064,364.714c-.83-.668,2.806-13.953,2.806-13.953s-9.628-14.915-9.882-19.726,3.8-14.674,3.8-14.674l27.62-6.736s8.872,15.637,10.644,21.17-3.043,24.3-3.043,24.3l-4.678,9.623s-14.109,10.584-27.267,0" transform="translate(-11.982 -61.698)" fill="#876760"/>
            <path id="Trazado_827499" data-name="Trazado 827499" d="M170.661,331.49a56.5,56.5,0,0,1-2.909-5.823c-1.749-3.936-3.9-7.8,0-10a5.324,5.324,0,0,1,4.161-.624s-.6-3.313,1.488-4.558a4.7,4.7,0,0,1,4.1-.338s-.658-4.675,2.344-6.657a7.616,7.616,0,0,1,7.649-.207s-2.377-20.462-2.583-21.546c-.757-3.978.794-7.5,4.964-6.517,1.528.359,2.376,1.889,4.169,8.552s4.671,18.036,4.671,18.036,4.85,8,7.142,12.343,6.821,14.222,7.2,16.84c.975,6.769-3.2,15.731-3.2,15.731l-29.359,1.617s-8.712-14.908-9.829-16.849" transform="translate(-11.602 -59.275)" fill="#876760"/>
            <path id="Trazado_827500" data-name="Trazado 827500" d="M172.657,319.006a23.34,23.34,0,0,1,2.273,3.011l2.321,3.353a14,14,0,0,1,1.263,2.1,4.067,4.067,0,0,1,.346,2.658A2.722,2.722,0,0,1,177,332.188a3.855,3.855,0,0,1-2.63-.308,12,12,0,0,1-1.962-1.151c-.577-.394-1.106-.772-1.582-1.125-.951-.707-1.692-1.312-2.19-1.746s-.752-.695-.725-.724c.059-.067,1.222.817,3.176,2.138a26.193,26.193,0,0,0,3.516,2.116,3.3,3.3,0,0,0,2.213.253A2.142,2.142,0,0,0,178.258,330a3.561,3.561,0,0,0-.3-2.307,14.476,14.476,0,0,0-1.185-2.029l-2.21-3.421a22.822,22.822,0,0,1-1.9-3.232" transform="translate(-11.767 -62.356)" fill="#664d49"/>
            <path id="Trazado_827501" data-name="Trazado 827501" d="M198.9,320.985c-.159.007-.305-2,.308-4.38a9.243,9.243,0,0,1,1.831-4.032c.164.075-.653,1.858-1.231,4.169-.6,2.306-.726,4.247-.908,4.243" transform="translate(-13.929 -61.905)" fill="#664d49"/>
            <path id="Trazado_827502" data-name="Trazado 827502" d="M209.217,327.638a19.829,19.829,0,0,0-9.821-4.866,38.874,38.874,0,0,0-11.184-.408c-2.987.258-6.4.991-7.757,3.528-1.4,2.611.285,5.978,2.935,7.48s5.925,1.561,9,1.3,6.175-.81,9.224-.358" transform="translate(-12.611 -62.576)" fill="#876760"/>
            <path id="Trazado_827503" data-name="Trazado 827503" d="M201.59,334.29c-.007.05-.828-.074-2.317-.058-1.492,0-3.629.258-6.292.567a28.092,28.092,0,0,1-4.407.177,12.485,12.485,0,0,1-4.946-1.179,7.34,7.34,0,0,1-3.675-4.057,5.24,5.24,0,0,1-.208-2.9,4.922,4.922,0,0,1,1.62-2.578,10.859,10.859,0,0,1,5.644-2.08,50.374,50.374,0,0,1,5.579-.32,29.649,29.649,0,0,1,9.334,1.342,19.051,19.051,0,0,1,5.6,2.87,13.312,13.312,0,0,1,1.285,1.1,2.166,2.166,0,0,1,.388.441c-.041.04-.614-.535-1.818-1.363a20.366,20.366,0,0,0-5.6-2.659,30.209,30.209,0,0,0-9.193-1.195,51.931,51.931,0,0,0-5.5.349,10.348,10.348,0,0,0-5.313,1.945,4.354,4.354,0,0,0-1.435,2.271,4.7,4.7,0,0,0,.183,2.594,6.806,6.806,0,0,0,3.367,3.762,12.083,12.083,0,0,0,4.712,1.171,28.675,28.675,0,0,0,4.332-.1,51.991,51.991,0,0,1,6.338-.383,15.48,15.48,0,0,1,1.726.152,2.281,2.281,0,0,1,.589.134" transform="translate(-12.588 -62.556)" fill="#664d49"/>
            <path id="Trazado_827504" data-name="Trazado 827504" d="M173.244,319.233a161.361,161.361,0,0,1,8.419,14.073,8.814,8.814,0,0,0,2.95,3.642c1.114.652,3.877-.53,5.115-.933l-8.482-18.323" transform="translate(-12.141 -62.264)" fill="#876760"/>
            <path id="Trazado_827505" data-name="Trazado 827505" d="M181.246,317.692a8.241,8.241,0,0,1,.753,1.365l1.878,3.838c1.571,3.266,3.725,7.833,6.13,13l.133.285-.313.106c-.917.31-1.9.7-2.961.955a6.421,6.421,0,0,1-1.3.184,2.4,2.4,0,0,1-.7-.07,1.948,1.948,0,0,1-.639-.3,6.409,6.409,0,0,1-1.708-1.734c-.872-1.3-1.487-2.6-2.177-3.814-1.333-2.436-2.554-4.619-3.613-6.433s-1.948-3.266-2.568-4.266a11.841,11.841,0,0,1-.926-1.579,9.751,9.751,0,0,1,1.129,1.457c.683.966,1.636,2.388,2.743,4.184s2.375,3.961,3.736,6.387c.7,1.2,1.347,2.528,2.177,3.747a5.9,5.9,0,0,0,1.555,1.574,2.676,2.676,0,0,0,2.134.095c1-.238,1.957-.616,2.91-.936l-.18.391c-2.386-5.178-4.473-9.773-5.944-13.081l-1.708-3.908a8.138,8.138,0,0,1-.55-1.45" transform="translate(-12.141 -62.263)" fill="#664d49"/>
            <path id="Trazado_827506" data-name="Trazado 827506" d="M179.39,311.571l8.18,19.473a13.131,13.131,0,0,0,2.2,3.906,4.875,4.875,0,0,0,4.119,1.7c2.13-.3,3.523-2.448,3.632-4.491s-.744-4.006-1.532-5.91a118.615,118.615,0,0,1-5.865-18.225" transform="translate(-12.571 -61.586)" fill="#876760"/>
            <path id="Trazado_827507" data-name="Trazado 827507" d="M190.122,308.029a2.429,2.429,0,0,1,.206.593c.129.457.289,1.026.485,1.72.423,1.494,1.039,3.655,1.9,6.293s1.977,5.754,3.386,9.152a18.193,18.193,0,0,1,1.713,5.571,5.77,5.77,0,0,1-.618,3.093,4.67,4.67,0,0,1-2.459,2.286,4.327,4.327,0,0,1-3.435-.264,6.333,6.333,0,0,1-2.415-2.159,33.575,33.575,0,0,1-2.475-5.291l-3.732-9.055-2.466-6.123-.642-1.676a2.4,2.4,0,0,1-.184-.6,2.466,2.466,0,0,1,.3.555l.75,1.635c.658,1.506,1.555,3.555,2.648,6.054,1.108,2.588,2.411,5.636,3.855,9.008A34.236,34.236,0,0,0,189.393,334a5.746,5.746,0,0,0,2.192,1.957,3.687,3.687,0,0,0,2.929.236,4.087,4.087,0,0,0,2.132-2,5.218,5.218,0,0,0,.565-2.8,17.989,17.989,0,0,0-1.639-5.408c-1.385-3.423-2.462-6.566-3.273-9.229s-1.367-4.845-1.719-6.358c-.172-.757-.3-1.347-.373-1.748a2.426,2.426,0,0,1-.085-.619" transform="translate(-12.571 -61.586)" fill="#664d49"/>
            <path id="Trazado_827508" data-name="Trazado 827508" d="M178.631,360.67s-18.731,52.41-19.471,54.984h36.824l13.509-58.5Z" transform="translate(-11.154 -65.029)" fill="#876760"/>
            <path id="Trazado_827509" data-name="Trazado 827509" d="M199.08,351.628a3.717,3.717,0,0,1-1.762-.22,9.888,9.888,0,0,1-3.726-2.034,9.258,9.258,0,0,1-2.457-3.349,3.2,3.2,0,0,1-.382-1.648c.178-.07.828,2.494,3.256,4.565,2.382,2.117,5.129,2.51,5.072,2.685" transform="translate(-13.366 -64.133)" fill="#664d49"/>
            <path id="Trazado_827510" data-name="Trazado 827510" d="M243.7,394.642c.118.063-2.55,5.295-5.958,11.684s-6.267,11.521-6.385,11.458,2.549-5.294,5.958-11.686,6.267-11.52,6.385-11.457" transform="translate(-16.213 -67.656)" fill="#263238"/>
          </g>
        </g>
        <g id="Grupo_1076278" data-name="Grupo 1076278">
          <g id="Grupo_1076277" data-name="Grupo 1076277" clip-path="url(#clip-path-5)">
            <path id="Trazado_827511" data-name="Trazado 827511" d="M400,419.673c0,.134-89.551.242-199.991.242C89.531,419.915,0,419.807,0,419.673s89.531-.242,200.009-.242c110.44,0,199.991.108,199.991.242" transform="translate(0 -29.393)" fill="#263238"/>
          </g>
        </g>
        <g id="Grupo_1076301" data-name="Grupo 1076301">
          <g id="Grupo_1076300" data-name="Grupo 1076300" clip-path="url(#clip-path-6)">
            <path id="Trazado_827512" data-name="Trazado 827512" d="M195.527,123.105a55.709,55.709,0,1,0-86.262,37.56L107.1,174.552l48.243,7.523s1.506-7.749,2.7-14.689a55.688,55.688,0,0,0,37.485-44.281" transform="translate(-5.94 -4.121)" fill="#ffae7e"/>
            <path id="Trazado_827513" data-name="Trazado 827513" d="M150.658,184.867s0-.235.016-.695.049-1.15.086-2.038c.086-1.792.232-4.433.469-7.832.491-6.794,1.353-16.625,3.113-28.683q.653-4.522,1.491-9.445.432-2.456.883-5.01a17.419,17.419,0,0,1,1.457-5.1,5.893,5.893,0,0,1,1.8-2.09,3.594,3.594,0,0,1,2.73-.674,3.37,3.37,0,0,1,2.222,1.791,5.273,5.273,0,0,1,.587,2.841,6.5,6.5,0,0,1-3.176,4.8,9.8,9.8,0,0,1-5.8,1.441,10.578,10.578,0,0,1-5.752-2.126,11.16,11.16,0,0,1-3.669-5.092,13.328,13.328,0,0,1-.7-6.378,9.744,9.744,0,0,1,.926-3.157,4.6,4.6,0,0,1,2.368-2.355,2.961,2.961,0,0,1,1.735-.085,3.8,3.8,0,0,1,1.521.822,5.339,5.339,0,0,1,1.675,2.952,11.517,11.517,0,0,1,.171,3.4,33.67,33.67,0,0,1-.453,3.371,23.056,23.056,0,0,1-2.159,6.522,12.671,12.671,0,0,1-4.655,5.154,10.093,10.093,0,0,1-3.287,1.28,7.861,7.861,0,0,1-3.512-.126,7.3,7.3,0,0,1-3.01-1.774,9.378,9.378,0,0,1-1.967-2.846,21.055,21.055,0,0,1-1.636-6.572c-.124-1.114-.194-2.226-.237-3.334a19.369,19.369,0,0,1,.059-3.331,5.475,5.475,0,0,1,1.312-3.068,3.555,3.555,0,0,1,1.405-.963,2.406,2.406,0,0,1,1.717.034,2.873,2.873,0,0,1,1.3,1.09,5.721,5.721,0,0,1,.707,1.494,11.091,11.091,0,0,1,.457,3.189,18.643,18.643,0,0,1-3.429,11.773,11.93,11.93,0,0,1-4.732,3.674,8.939,8.939,0,0,1-5.79.513,7.715,7.715,0,0,1-4.482-3.409,8.781,8.781,0,0,1-1.429-5.285,7.206,7.206,0,0,1,.643-2.633,4.037,4.037,0,0,1,1.814-1.967,2.064,2.064,0,0,1,2.5.6,4.872,4.872,0,0,1,.913,2.4,20.22,20.22,0,0,1-.187,4.9q-.247,2.378-.484,4.651c-1.279,12.114-2.492,21.9-3.454,28.643-.477,3.373-.9,5.984-1.191,7.753q-.232,1.314-.354,2.01c-.083.452-.136.682-.136.682s.026-.234.095-.689.178-1.136.315-2.014c.268-1.773.663-4.387,1.116-7.762.913-6.749,2.084-16.536,3.326-28.651q.229-2.272.47-4.651a20.049,20.049,0,0,0,.176-4.829,4.575,4.575,0,0,0-.849-2.246,1.755,1.755,0,0,0-2.126-.5,3.731,3.731,0,0,0-1.651,1.814,6.9,6.9,0,0,0-.605,2.51,8.447,8.447,0,0,0,1.385,5.078A7.371,7.371,0,0,0,127,137.89a8.574,8.574,0,0,0,5.555-.506,11.552,11.552,0,0,0,4.581-3.566,18.284,18.284,0,0,0,3.338-11.537,10.7,10.7,0,0,0-.442-3.08,3.527,3.527,0,0,0-1.783-2.34,2.42,2.42,0,0,0-2.687.831,5.073,5.073,0,0,0-1.21,2.857,18.946,18.946,0,0,0-.054,3.261c.042,1.1.113,2.2.235,3.306a20.694,20.694,0,0,0,1.6,6.445,8.971,8.971,0,0,0,1.884,2.728,6.89,6.89,0,0,0,2.84,1.676,8.353,8.353,0,0,0,6.482-1.112,12.268,12.268,0,0,0,4.506-5,22.624,22.624,0,0,0,2.121-6.407,17.966,17.966,0,0,0,.288-6.607,4.942,4.942,0,0,0-1.546-2.74,2.854,2.854,0,0,0-2.864-.667A4.23,4.23,0,0,0,147.7,117.6a9.372,9.372,0,0,0-.89,3.032,12.948,12.948,0,0,0,.673,6.192,10.78,10.78,0,0,0,3.537,4.925,10.209,10.209,0,0,0,5.545,2.055,9.432,9.432,0,0,0,5.585-1.377,6.141,6.141,0,0,0,3.018-4.523,4.929,4.929,0,0,0-.541-2.65,3.028,3.028,0,0,0-1.983-1.618,3.253,3.253,0,0,0-2.468.616,5.559,5.559,0,0,0-1.7,1.969,17.209,17.209,0,0,0-1.434,5q-.456,2.55-.895,5-.849,4.911-1.515,9.435c-1.8,12.044-2.7,21.865-3.239,28.653-.26,3.4-.432,6.035-.543,7.824q-.084,1.332-.127,2.037c-.031.458-.057.693-.057.693" transform="translate(-8.478 -8.051)" fill="#fff"/>
            <path id="Trazado_827514" data-name="Trazado 827514" d="M115.132,230.659a16.875,16.875,0,0,1,3.014,3.644,3.632,3.632,0,0,0,2.633,1.8l10.778,1.672a3.676,3.676,0,0,0,3.266-1.124,6.821,6.821,0,0,1,4.128-2.294Z" transform="translate(-8.068 -16.164)" fill="#263238"/>
            <path id="Trazado_827515" data-name="Trazado 827515" d="M107.578,196.441c-.033.217-.145,17.438-.187,24.024a8.019,8.019,0,0,0,3.51,6.789,7.421,7.421,0,0,0,2.962,1.149l23.573,3.656s6.16.956,8.314-3.714c2.268-4.917,8.189-24.713,8.189-24.713Z" transform="translate(-7.526 -13.766)" fill="#e0e0e0"/>
            <path id="Trazado_827516" data-name="Trazado 827516" d="M147.459,227.918l-41.087-6.226a1.183,1.183,0,0,1-.992-1.347l.02-.127a1.181,1.181,0,0,1,1.346-.991l41.088,6.226a1.182,1.182,0,0,1,.991,1.346l-.02.128a1.182,1.182,0,0,1-1.346.991" transform="translate(-7.384 -15.362)" fill="#e0e0e0"/>
            <path id="Trazado_827517" data-name="Trazado 827517" d="M147.444,227.9a1.33,1.33,0,0,0,.85-.246,1.208,1.208,0,0,0,.461-.935,1.117,1.117,0,0,0-.7-1.139c-2.225-.374-5.552-.812-9.6-1.421L106.7,219.411a.98.98,0,0,0-1.1.738,1.458,1.458,0,0,0-.038.5.989.989,0,0,0,.547.743,5.747,5.747,0,0,0,1.067.206l4.457.679,8.424,1.288,14.261,2.2,9.61,1.521,2.609.433.677.123a1.089,1.089,0,0,1,.229.056,1.043,1.043,0,0,1-.235-.015l-.683-.083-2.621-.359-9.629-1.395L120,223.932l-8.428-1.266-4.458-.672-.567-.086a2.033,2.033,0,0,1-.613-.153,1.393,1.393,0,0,1-.771-1.048,1.872,1.872,0,0,1,.045-.653,1.382,1.382,0,0,1,1.553-1.042l31.728,4.867c4.063.65,7.331,1.117,9.62,1.558a1.249,1.249,0,0,1,.763,1.3,1.29,1.29,0,0,1-.533.988,1.034,1.034,0,0,1-.9.181" transform="translate(-7.369 -15.347)" fill="#263238"/>
            <path id="Trazado_827518" data-name="Trazado 827518" d="M149.149,222.339l-42.828-6.49a1.182,1.182,0,0,1-.992-1.346l.02-.128a1.182,1.182,0,0,1,1.346-.991l42.828,6.49a1.182,1.182,0,0,1,.991,1.346l-.02.128a1.182,1.182,0,0,1-1.346.991" transform="translate(-7.38 -14.953)" fill="#e0e0e0"/>
            <path id="Trazado_827519" data-name="Trazado 827519" d="M149.134,222.324a1.313,1.313,0,0,0,.877-.268,1.247,1.247,0,0,0,.441-.988,1.121,1.121,0,0,0-.832-1.106l-9.991-1.457-32.977-4.938a.986.986,0,0,0-.9.344.97.97,0,0,0-.209.45,1.173,1.173,0,0,0-.012.519.98.98,0,0,0,.636.711c.315.082.766.126,1.14.191l4.63.7,8.751,1.338,14.815,2.289,9.983,1.578,2.711.448.7.127a1.115,1.115,0,0,1,.237.057,1.173,1.173,0,0,1-.244-.016l-.71-.087-2.722-.375-10-1.451-14.828-2.2-8.755-1.315-4.63-.7c-.406-.073-.755-.09-1.212-.207a1.38,1.38,0,0,1-.9-1,1.6,1.6,0,0,1,.008-.68,1.356,1.356,0,0,1,.3-.635,1.388,1.388,0,0,1,1.273-.484l32.958,5.054c4.22.662,7.621,1.186,9.99,1.587a1.252,1.252,0,0,1,.91,1.261,1.333,1.333,0,0,1-.511,1.048,1.042,1.042,0,0,1-.926.2" transform="translate(-7.365 -14.938)" fill="#263238"/>
            <path id="Trazado_827520" data-name="Trazado 827520" d="M150.546,216.716l-43.938-6.658a1.182,1.182,0,0,1-.991-1.346l.02-.128a1.182,1.182,0,0,1,1.346-.991l43.938,6.658a1.182,1.182,0,0,1,.991,1.346l-.02.128a1.182,1.182,0,0,1-1.346.991" transform="translate(-7.401 -14.547)" fill="#e0e0e0"/>
            <path id="Trazado_827521" data-name="Trazado 827521" d="M150.531,216.7a1.3,1.3,0,0,0,.894-.282,1.267,1.267,0,0,0,.424-1.022,1.116,1.116,0,0,0-.912-1.075L140.7,212.834l-33.761-5.056a.983.983,0,0,0-1.12.829,1.111,1.111,0,0,0,.007.529.984.984,0,0,0,.693.686c.359.067.794.124,1.186.186l4.74.722,8.96,1.37,15.168,2.342,10.22,1.613,2.776.459.72.129a1.216,1.216,0,0,1,.244.058,1.2,1.2,0,0,1-.249-.017l-.726-.09-2.787-.384-10.239-1.487-15.181-2.257-8.964-1.346-4.741-.716c-.41-.065-.784-.11-1.227-.193a1.39,1.39,0,0,1-.978-.968,1.538,1.538,0,0,1-.018-.7A1.387,1.387,0,0,1,107,207.379l33.743,5.173,10.224,1.616a1.248,1.248,0,0,1,1,1.228,1.349,1.349,0,0,1-.492,1.086,1.049,1.049,0,0,1-.945.219" transform="translate(-7.386 -14.532)" fill="#263238"/>
            <path id="Trazado_827522" data-name="Trazado 827522" d="M152.254,211.141l-45.72-6.928a1.182,1.182,0,0,1-.991-1.346l.02-.128a1.182,1.182,0,0,1,1.346-.991l45.72,6.928a1.182,1.182,0,0,1,.991,1.346l-.02.128a1.182,1.182,0,0,1-1.346.991" transform="translate(-7.395 -14.137)" fill="#e0e0e0"/>
            <path id="Trazado_827523" data-name="Trazado 827523" d="M152.239,211.126a1.215,1.215,0,0,0,1.315-1.381,1.128,1.128,0,0,0-1.046-1.021l-10.622-1.545-35.021-5.248a.989.989,0,0,0-.942.392,1.224,1.224,0,0,0-.149,1.04.991.991,0,0,0,.785.637l1.253.191,4.917.748,9.295,1.42,15.733,2.428,10.6,1.672,2.88.474.747.133a1.273,1.273,0,0,1,.253.06,1.231,1.231,0,0,1-.259-.019l-.753-.094-2.891-.4-10.622-1.545-15.746-2.342-9.3-1.4-4.917-.742-1.254-.19a1.4,1.4,0,0,1-1.1-.9,1.655,1.655,0,0,1,.2-1.414,1.393,1.393,0,0,1,1.328-.553l35,5.364,10.6,1.671a1.263,1.263,0,0,1,1.142,1.168,1.382,1.382,0,0,1-.459,1.147,1.179,1.179,0,0,1-.715.273.772.772,0,0,1-.259-.031" transform="translate(-7.38 -14.122)" fill="#263238"/>
            <path id="Trazado_827524" data-name="Trazado 827524" d="M103.774,173.674c-.068.436-.7,10.9-1.015,16.267a6.451,6.451,0,0,0,2.148,5.2l2.163,1.929,45.577,7.07,2.608-1.166a6.456,6.456,0,0,0,3.64-4.371l3.835-15.784Z" transform="translate(-7.2 -12.171)" fill="#ffae7e"/>
            <g id="Grupo_1076281" data-name="Grupo 1076281" transform="translate(100.531 206.461)" opacity="0.3">
              <g id="Grupo_1076280" data-name="Grupo 1076280">
                <g id="Grupo_1076279" data-name="Grupo 1076279" clip-path="url(#clip-path-7)">
                  <path id="Trazado_827525" data-name="Trazado 827525" d="M108.107,222.02a60.1,60.1,0,0,0,13.421,3.164c3.894.586,7.692,1.285,11.929,1.853,3.1.416,5.977.7,9.083,1.048a8.571,8.571,0,0,0,3.707-.221Z" transform="translate(-108.107 -222.02)"/>
                </g>
              </g>
            </g>
            <g id="Grupo_1076284" data-name="Grupo 1076284" transform="translate(99.731 200.887)" opacity="0.3">
              <g id="Grupo_1076283" data-name="Grupo 1076283">
                <g id="Grupo_1076282" data-name="Grupo 1076282" clip-path="url(#clip-path-8)">
                  <path id="Trazado_827526" data-name="Trazado 827526" d="M107.247,216.026a69.745,69.745,0,0,0,14.481,3.328c4.2.633,8.293,1.378,12.861,2,3.346.454,6.44.774,9.787,1.157a9.85,9.85,0,0,0,3.987-.177Z" transform="translate(-107.247 -216.026)"/>
                </g>
              </g>
            </g>
            <g id="Grupo_1076287" data-name="Grupo 1076287" transform="translate(100.548 195.624)" opacity="0.3">
              <g id="Grupo_1076286" data-name="Grupo 1076286">
                <g id="Grupo_1076285" data-name="Grupo 1076285" clip-path="url(#clip-path-8)">
                  <path id="Trazado_827527" data-name="Trazado 827527" d="M108.125,210.366a69.747,69.747,0,0,0,14.481,3.328c4.2.633,8.293,1.378,12.861,2,3.346.454,6.44.775,9.787,1.157a9.849,9.849,0,0,0,3.987-.177Z" transform="translate(-108.125 -210.366)"/>
                </g>
              </g>
            </g>
            <g id="Grupo_1076290" data-name="Grupo 1076290" transform="translate(101.364 190.36)" opacity="0.3">
              <g id="Grupo_1076289" data-name="Grupo 1076289">
                <g id="Grupo_1076288" data-name="Grupo 1076288" clip-path="url(#clip-path-8)">
                  <path id="Trazado_827528" data-name="Trazado 827528" d="M109,204.706a69.746,69.746,0,0,0,14.481,3.328c4.2.633,8.293,1.379,12.861,2,3.346.454,6.44.775,9.787,1.157a9.849,9.849,0,0,0,3.987-.177Z" transform="translate(-109.003 -204.706)"/>
                </g>
              </g>
            </g>
            <path id="Trazado_827529" data-name="Trazado 827529" d="M115.356,163.006a4.29,4.29,0,0,1-.61-.314c-.388-.226-.982-.525-1.7-.989a48.933,48.933,0,0,1-5.86-4.243,51.939,51.939,0,0,1-7.467-7.706,51.177,51.177,0,0,1-10.457-23.87,51.854,51.854,0,0,1-.6-10.715,48.855,48.855,0,0,1,.855-7.185c.146-.842.328-1.481.426-1.92a4.241,4.241,0,0,1,.182-.661,4.292,4.292,0,0,1-.1.679c-.072.444-.229,1.087-.351,1.931a54,54,0,0,0-.723,7.168,52.8,52.8,0,0,0,18.427,42.063,54.178,54.178,0,0,0,5.76,4.328c.7.482,1.282.8,1.657,1.051a4.436,4.436,0,0,1,.569.384" transform="translate(-6.209 -7.387)" fill="#263238"/>
            <path id="Trazado_827530" data-name="Trazado 827530" d="M94.339,94.508a10.491,10.491,0,0,1-.927,2.737,10.512,10.512,0,0,1-1.3,2.581,10.473,10.473,0,0,1,.928-2.737,10.486,10.486,0,0,1,1.3-2.581" transform="translate(-6.454 -6.623)" fill="#263238"/>
            <path id="Trazado_827531" data-name="Trazado 827531" d="M194.527,136.573a3.269,3.269,0,0,1,.179-.566q.22-.6.585-1.59l.431-1.145c.144-.423.269-.894.421-1.392.284-1,.68-2.128.924-3.42q.213-.962.445-2.011c.15-.7.226-1.444.35-2.206.276-1.52.363-3.169.5-4.9a53.552,53.552,0,0,0-3.526-22.13c-.67-1.6-1.266-3.139-2-4.5-.353-.685-.657-1.368-1.017-1.987l-1.049-1.773c-.634-1.153-1.36-2.1-1.942-2.963-.3-.427-.564-.836-.833-1.193l-.765-.953-1.05-1.331a3.274,3.274,0,0,1-.346-.482,3.292,3.292,0,0,1,.407.429l1.11,1.284q.363.427.8.935c.279.352.553.755.863,1.178a34.6,34.6,0,0,1,2,2.945l1.077,1.771c.37.618.683,1.3,1.045,1.989.752,1.362,1.363,2.908,2.048,4.516a52.558,52.558,0,0,1,3.551,22.285c-.151,1.741-.251,3.4-.543,4.928-.131.765-.216,1.512-.375,2.215s-.323,1.374-.473,2.019a34.72,34.72,0,0,1-.988,3.421c-.163.5-.3.967-.454,1.388l-.466,1.136-.657,1.566a3.234,3.234,0,0,1-.254.535" transform="translate(-13.023 -5.749)" fill="#263238"/>
            <g id="Grupo_1076293" data-name="Grupo 1076293" transform="translate(89.706 63.004)" opacity="0.2">
              <g id="Grupo_1076292" data-name="Grupo 1076292">
                <g id="Grupo_1076291" data-name="Grupo 1076291" clip-path="url(#clip-path-11)">
                  <path id="Trazado_827532" data-name="Trazado 827532" d="M145.328,75.278c-.6-2.464-2.891-4.545-5.786-5.926a17.531,17.531,0,0,0-13.256-.572c-12.762,4.4-20.628,10.868-26.83,23.558-2.1,4.3-3.955,11.649-2.429,16.421a9.054,9.054,0,0,0,4.668,5.541c5.934,2.771,11.809-2.5,14.633-7.97,2.631-5.1,4.223-11.069,8.695-14.662,3.684-2.96,8.624-3.706,12.943-5.625s8.471-6.17,7.362-10.764" transform="translate(-96.466 -67.752)" fill="#fff"/>
                </g>
              </g>
            </g>
            <g id="Grupo_1076296" data-name="Grupo 1076296" transform="translate(145.154 66.42)" opacity="0.2">
              <g id="Grupo_1076295" data-name="Grupo 1076295">
                <g id="Grupo_1076294" data-name="Grupo 1076294" clip-path="url(#clip-path-12)">
                  <path id="Trazado_827533" data-name="Trazado 827533" d="M171.912,76.825c-1.479-3.837-6.349-6.089-9.529-5.211A9.077,9.077,0,0,0,156.571,77a8.312,8.312,0,0,0,2.322,9,7.858,7.858,0,0,0,9.2.544c2.731-1.851,5-6.642,3.816-9.721" transform="translate(-156.093 -71.425)" fill="#fff"/>
                </g>
              </g>
            </g>
            <g id="Grupo_1076299" data-name="Grupo 1076299" transform="translate(95.547 161.581)" opacity="0.3">
              <g id="Grupo_1076298" data-name="Grupo 1076298">
                <g id="Grupo_1076297" data-name="Grupo 1076297" clip-path="url(#clip-path-13)">
                  <path id="Trazado_827534" data-name="Trazado 827534" d="M103.774,173.674c-.068.436-.7,10.9-1.015,16.267a6.451,6.451,0,0,0,2.148,5.2l2.163,1.929,45.577,7.07,2.608-1.166a6.456,6.456,0,0,0,3.64-4.371l3.835-15.784Z" transform="translate(-102.747 -173.674)"/>
                </g>
              </g>
            </g>
            <path id="Trazado_827535" data-name="Trazado 827535" d="M163.173,182.876c-.017.11-13.248-1.851-29.547-4.38s-29.5-4.668-29.486-4.779,13.244,1.851,29.548,4.381,29.5,4.668,29.485,4.778" transform="translate(-7.298 -12.174)" fill="#ffae7e"/>
            <path id="Trazado_827536" data-name="Trazado 827536" d="M157.457,202.02c-.017.11-12.222-1.692-27.256-4.025s-27.215-4.313-27.2-4.424,12.219,1.692,27.259,4.026,27.211,4.313,27.195,4.423" transform="translate(-7.218 -13.565)" fill="#263238"/>
            <rect id="Rectángulo_379916" data-name="Rectángulo 379916" width="99.964" height="122.321" transform="translate(296.742 1.57)" fill="#e0e0e0"/>
            <rect id="Rectángulo_379917" data-name="Rectángulo 379917" width="99.964" height="120.68" transform="translate(291.734 1.57)" fill="#f5f5f5"/>
            <rect id="Rectángulo_379918" data-name="Rectángulo 379918" width="75.125" height="89.294" transform="translate(304.153 17.264)" fill="#fff"/>
            <path id="Trazado_827537" data-name="Trazado 827537" d="M402.178,107.554s-.01-.151-.015-.436-.008-.714-.015-1.263c-.006-1.119-.017-2.758-.03-4.885-.016-4.269-.038-10.489-.067-18.348-.031-15.705-.073-37.946-.123-64.136l.249.2-75.115.018h-.008l.272-.213c-.021,33.6-.04,64.58-.056,89.068l-.216-.17,54.68.089,15.107.044,3.966.019c.9.006,1.371.018,1.371.018s-.443.012-1.325.018l-3.925.019-15.058.044-54.815.089h-.217v-.17c-.015-24.488-.034-55.468-.055-89.068v-.213h.281l75.115.018h.249v.2c-.05,26.243-.092,48.528-.123,64.264-.029,7.839-.051,14.045-.067,18.3-.013,2.111-.023,3.736-.03,4.847-.007.539-.011.952-.015,1.241s-.015.412-.015.412" transform="translate(-22.9 -1.28)" fill="#e0e0e0"/>
            <path id="Trazado_827538" data-name="Trazado 827538" d="M420.492,1.689a17.271,17.271,0,0,1-1.782,2.589c-1.161,1.553-2.809,3.665-4.69,5.949s-3.64,4.307-4.941,5.744a17.34,17.34,0,0,1-2.2,2.245,18.652,18.652,0,0,1,1.907-2.495L413.6,9.881l4.808-5.842a18.71,18.71,0,0,1,2.084-2.351" transform="translate(-28.513 -0.118)" fill="#e0e0e0"/>
            <path id="Trazado_827539" data-name="Trazado 827539" d="M408.272,140.232a93.054,93.054,0,0,0,13.1,16.387" transform="translate(-28.611 -9.827)" fill="#fff"/>
            <path id="Trazado_827540" data-name="Trazado 827540" d="M421.374,156.619a14.878,14.878,0,0,1-2.284-2.078,73.108,73.108,0,0,1-9.295-11.623,14.921,14.921,0,0,1-1.524-2.686,20.97,20.97,0,0,1,1.843,2.47c1.1,1.547,2.65,3.663,4.457,5.925s3.532,4.236,4.8,5.651a20.612,20.612,0,0,1,2,2.342" transform="translate(-28.611 -34.372)" fill="#e0e0e0"/>
            <path id="Trazado_827541" data-name="Trazado 827541" d="M313.7,156.161,326.8,140.006" transform="translate(-21.984 -9.811)" fill="#fff"/>
            <path id="Trazado_827542" data-name="Trazado 827542" d="M326.8,140a99.717,99.717,0,0,1-6.336,8.248,99.739,99.739,0,0,1-6.758,7.906,99.578,99.578,0,0,1,6.336-8.248A99.718,99.718,0,0,1,326.8,140" transform="translate(-21.984 -34.356)" fill="#e0e0e0"/>
            <path id="Trazado_827543" data-name="Trazado 827543" d="M313.719,1.689a90.267,90.267,0,0,1,6.355,7.6A90.2,90.2,0,0,1,326,17.221a90.447,90.447,0,0,1-6.355-7.6,90.17,90.17,0,0,1-5.929-7.934" transform="translate(-21.985 -0.118)" fill="#e0e0e0"/>
            <rect id="Rectángulo_379919" data-name="Rectángulo 379919" width="25.154" height="71.421" transform="translate(330.718 19.565)" fill="#e0e0e0"/>
          </g>
        </g>
      </g>
    </g>
  </g>
</svg>
