<svg xmlns="http://www.w3.org/2000/svg" xmlns:xlink="http://www.w3.org/1999/xlink" width="184.924" height="69.237" viewBox="0 0 184.924 69.237">
  <defs>
    <clipPath id="clip-path">
      <rect id="Rectángulo_380391" data-name="Rectángulo 380391" width="184.924" height="69.237" transform="translate(0 0)" fill="none"/>
    </clipPath>
  </defs>
  <g id="Grupo_1076900" data-name="Grupo 1076900" transform="translate(0 0)" clip-path="url(#clip-path)">
    <path id="Trazado_828374" data-name="Trazado 828374" d="M84.389,55.247c-4.731,2.8-25.245,1.482-32.844-1.466C41.707,49.963,18,49.241,18,49.241l.06,10.742a38.426,38.426,0,0,0,5.2.676l.046-1.221,3.24.124L26.5,60.894c1.708.1,3.725.2,6.1.27l.007-1.236,3.242.019-.008,1.3c1.284.024,2.645.043,4.1.053l.073-4.344c7.207.645,10.162,2.663,16.189,3.8l.4-1.785,2.886.355-.086,1.928c1.448.172,3.9.125,6.194.278l.15-2.085,3.092.132v2.13c2.06.088,4.111.155,6.122.116V59.6l3.1-.132.141,2.2c3.578-.28,6.25-.949,6.491-2.279V55.41a.2.2,0,0,0-.31-.163" fill="#753a21"/>
    <path id="Trazado_828375" data-name="Trazado 828375" d="M84.126,47.646c-2.556-5.5-16.6-4.021-22.581-9.283-4.607-4.054-10.215-11-10.076-18.428.042-2.263.138-5.17.266-8.388H23.959S21.236,25.9,20.982,25.858c-.9,5.658-3.714,10.672-2.136,23.5,0,0,22.341.992,34.988,5.387,6.856,2.382,30.01,3.626,30.865-.111.237-1.036.453-4.775-.573-6.984" fill="#e19143"/>
    <path id="Trazado_828376" data-name="Trazado 828376" d="M43.6,11.548H21.759A3.463,3.463,0,0,0,18.306,15V20.78a3.463,3.463,0,0,0,3.453,3.453h21Z" fill="#b16f45"/>
    <path id="Trazado_828377" data-name="Trazado 828377" d="M66.389,61.247c-4.731,2.8-25.245,1.482-32.844-1.466C23.707,55.963,0,55.241,0,55.241L.06,65.983a38.426,38.426,0,0,0,5.2.676l.046-1.221,3.24.124L8.5,66.894c1.708.1,3.725.2,6.1.27l.007-1.236,3.242.019-.008,1.3c1.284.024,2.645.043,4.1.053l.073-4.344c7.207.645,10.163,2.663,16.189,3.8l.4-1.785,2.886.355-.086,1.928c1.448.172,3.9.125,6.194.278l.15-2.085,3.092.132v2.13c2.06.088,4.111.155,6.122.116V65.6l3.1-.132.141,2.2c3.578-.28,6.25-.949,6.491-2.279V61.41a.2.2,0,0,0-.31-.163" fill="#8b5232"/>
    <path id="Trazado_828378" data-name="Trazado 828378" d="M66.126,53.646c-2.556-5.5-16.6-4.021-22.581-9.283-4.607-4.054-10.215-11-10.076-18.428.042-2.263.138-5.17.266-8.388H5.959S3.236,31.9,2.982,31.858c-.9,5.658-3.714,10.672-2.136,23.5,0,0,22.341.992,34.988,5.387,6.856,2.382,30.01,3.626,30.865-.111.237-1.036.453-4.775-.573-6.984" fill="#f0ae43"/>
    <path id="Trazado_828379" data-name="Trazado 828379" d="M25.6,17.548H3.759A3.463,3.463,0,0,0,.306,21V26.78a3.463,3.463,0,0,0,3.453,3.453h21Z" fill="#bb7b5d"/>
    <path id="Trazado_828380" data-name="Trazado 828380" d="M184.848,55.144c-.319,3.352-4.6,6.715-10.214,7.262-11.479,1.119-11.493-2.084-18.3-2.4-1.2-.055-2.3-.142-3.3-.157l.2-3.6c0-.341-1.583,0-1.923,0h-7.021a.617.617,0,0,0-.617.617v.243h-.048c-1.233,0-2.62-1.336-3.157-.732-.016-.435-.03-.805-.03-.823-.274.027-.124,2.638-.029,3.277v.007a23.253,23.253,0,0,0,.561,3.2,3.754,3.754,0,0,0,2.517,2.91.392.392,0,0,1,.4-.319h.037a.394.394,0,0,1,.382.4v0h1.575a.5.5,0,0,1,.465-.313h.593a.5.5,0,0,1,.464.313h1.882a.5.5,0,0,1,.464-.313h.593a.5.5,0,0,1,.465.313h1.367a.617.617,0,0,0,.617-.617l.174-3.175a11.786,11.786,0,0,1,3.374-.3c4.476.207,4.456,1.385,7.893,3.34a8.084,8.084,0,0,0,3.045.736.5.5,0,0,1,.455-.293h.594a.5.5,0,0,1,.486.383c.907.026,1.872.013,2.845-.029a.5.5,0,0,1,.479-.354h.593a.5.5,0,0,1,.443.266c.495-.035.985-.077,1.464-.124q.411-.039.813-.1a.5.5,0,0,1,.368-.368l.577-.14a.5.5,0,0,1,.535.211,14.477,14.477,0,0,0,2.586-.92.5.5,0,0,1,.269-.588l.537-.253a.5.5,0,0,1,.565.1c2.48-1.549,4.017-3.731,4.039-5.825a13.178,13.178,0,0,0-.075-1.84" fill="#1a2230"/>
    <path id="Trazado_828381" data-name="Trazado 828381" d="M184.784,54.624c-.319,3.352-4.6,6.594-10.214,7.142-11.479,1.119-11.493-2.193-18.3-2.507-5.851-.27-7.425,1.847-12.344.938-2.161-.4-3.419-2.793-3.469-4.544l0-.133c-.29.028-.186.823-.094,1.242.375,1.711,1.6,3.958,3.763,4.357,4.919.909,6.3-1.192,12.147-.922,6.8.314,6.818,3.626,18.3,2.507,5.907-.576,10.252-4.356,10.29-7.888,0-.161,0-.192-.076-.192" fill="#d46b0b"/>
    <path id="Trazado_828382" data-name="Trazado 828382" d="M184.86,54.059c-.158-5.454-3.3-6.869-6.817-6.5-7.363.76-10.109-.22-12.449-3.3-2.627-3.461-.307-29.2,1.024-41.906H138.686c.65,5.994,1.524,14.46,1.894,19.853.309,4.516.55,8.839.754,12.477.28,5.027.785,10.4.807,10.65.3,3.342-1.843,4.667-1.681,10.328.05,1.751,1.308,4.145,3.469,4.544,4.919.909,6.493-1.208,12.344-.938,6.8.314,6.818,3.626,18.3,2.507,5.907-.576,10.392-4.177,10.29-7.707" fill="#eba600"/>
    <path id="Trazado_828383" data-name="Trazado 828383" d="M174.571,61.766c-11.48,1.119-11.493-2.194-18.3-2.507-5.852-.27-7.425,1.847-12.344.938-2.162-.4-3.419-2.793-3.469-4.544-.162-5.661,1.979-6.986,1.681-10.328-.008-.088-.074-.793-.169-1.887-.177-2.055-.456-5.482-.639-8.763-.2-3.638-.444-7.961-.754-12.477-.238-3.477-.686-8.232-1.148-12.778-.255-2.505-.515-4.946-.746-7.075h27.933c-1.331,12.708-3.651,38.445-1.024,41.906,2.34,3.084,5.085,4.063,12.449,3.3,3.52-.364,6.659,1.051,6.817,6.5.1,3.53-4.383,7.131-10.29,7.707" fill="#ff8d23"/>
    <path id="Trazado_828384" data-name="Trazado 828384" d="M165.143,18.55c.449-5.984,1.02-11.857,1.476-16.2H138.686c.517,4.768,1.176,11.1,1.61,16.2Z" fill="#1a2230"/>
    <path id="Trazado_828385" data-name="Trazado 828385" d="M166.619,2.331V.933A.933.933,0,0,0,165.687,0H139.619a.933.933,0,0,0-.933.933v1.4Z" fill="#ff8d23"/>
    <path id="Trazado_828386" data-name="Trazado 828386" d="M150.841,14.235V38.623a4.815,4.815,0,0,1-4.815,4.815h-4.053c-.177-2.055-.456-5.482-.64-8.764-.2-3.637-.444-7.96-.754-12.477-.237-3.477-.686-8.231-1.148-12.777h6.6a4.815,4.815,0,0,1,4.815,4.815" fill="#1a2230"/>
    <path id="Trazado_828387" data-name="Trazado 828387" d="M148.76,35.275a2.842,2.842,0,1,1-5.684,0v-2.4a2.842,2.842,0,1,1,5.684,0Z" fill="#eba600"/>
    <rect id="Rectángulo_380387" data-name="Rectángulo 380387" width="13.167" height="1.991" transform="translate(150.842 14.228)" fill="#ff8d23"/>
    <rect id="Rectángulo_380388" data-name="Rectángulo 380388" width="13.167" height="1.991" transform="translate(150.842 10.305)" fill="#ff8d23"/>
    <path id="Trazado_828388" data-name="Trazado 828388" d="M169.743,59.256c-.319,3.352-4.6,6.715-10.214,7.262-11.48,1.119-11.493-2.084-18.3-2.4-1.2-.055-2.3-.142-3.3-.157l.2-3.6c0-.34-1.583,0-1.924,0h-7.02a.617.617,0,0,0-.617.617v.243h-.048c-1.233,0-2.62-1.336-3.157-.732-.016-.435-.03-.8-.03-.823-.274.027-.124,2.638-.029,3.277v.007a23.256,23.256,0,0,0,.561,3.2,3.752,3.752,0,0,0,2.517,2.91.392.392,0,0,1,.4-.319h.037a.393.393,0,0,1,.381.4h1.575a.5.5,0,0,1,.464-.313h.594a.5.5,0,0,1,.464.313h1.882a.5.5,0,0,1,.464-.313h.593a.5.5,0,0,1,.464.313h1.368a.617.617,0,0,0,.617-.617l.174-3.175a11.782,11.782,0,0,1,3.374-.3c4.476.207,4.456,1.385,7.893,3.34a8.084,8.084,0,0,0,3.045.736.5.5,0,0,1,.455-.293h.594a.5.5,0,0,1,.486.383c.907.026,1.872.013,2.845-.029a.5.5,0,0,1,.479-.354h.593a.5.5,0,0,1,.443.266c.494-.035.985-.077,1.464-.124.274-.026.545-.06.812-.1a.5.5,0,0,1,.369-.369l.577-.14a.5.5,0,0,1,.535.21,14.4,14.4,0,0,0,2.586-.919.5.5,0,0,1,.269-.588l.537-.253a.5.5,0,0,1,.565.1c2.48-1.549,4.017-3.731,4.04-5.825a13.317,13.317,0,0,0-.076-1.84" fill="#1a2230"/>
    <path id="Trazado_828389" data-name="Trazado 828389" d="M169.679,58.736c-.319,3.352-4.6,6.594-10.214,7.142-11.479,1.119-11.493-2.194-18.3-2.507-5.852-.27-7.425,1.847-12.344.938-2.161-.4-3.419-2.793-3.469-4.544l0-.133c-.29.028-.186.823-.094,1.242.375,1.711,1.6,3.958,3.762,4.357,4.92.909,6.3-1.192,12.148-.922,6.8.313,6.818,3.626,18.3,2.507,5.907-.576,10.252-4.356,10.289-7.888,0-.161,0-.192-.075-.192" fill="#ffa200"/>
    <path id="Trazado_828390" data-name="Trazado 828390" d="M169.755,58.17c-.158-5.454-3.3-6.869-6.817-6.5-7.363.761-10.108-.219-12.449-3.3-2.627-3.461-.306-29.2,1.024-41.906H123.581c.65,5.994,1.525,14.461,1.894,19.853.309,4.516.551,8.839.754,12.477.28,5.027.785,10.4.808,10.65.3,3.342-1.844,4.667-1.682,10.328.051,1.751,1.308,4.145,3.469,4.544,4.919.909,6.493-1.208,12.345-.938,6.8.314,6.817,3.626,18.3,2.507,5.907-.576,10.392-4.177,10.29-7.707" fill="#fdb813"/>
    <path id="Trazado_828391" data-name="Trazado 828391" d="M159.465,65.877c-11.48,1.119-11.493-2.194-18.3-2.507-5.852-.27-7.425,1.847-12.344.938-2.162-.4-3.417-2.793-3.469-4.544-.193-6.685,1.979-6.986,1.681-10.328-.008-.088-.073-.793-.168-1.887-.178-2.055-.456-5.482-.639-8.763-.2-3.638-.444-7.961-.755-12.477-.238-3.477-.686-8.232-1.148-12.778-.255-2.505-.514-4.946-.745-7.075h27.932c-1.331,12.708-3.651,38.445-1.024,41.906,2.34,3.084,5.085,4.063,12.449,3.3,3.52-.364,6.659,1.051,6.817,6.5.1,3.53-4.383,7.131-10.29,7.707" fill="#ffca00"/>
    <path id="Trazado_828392" data-name="Trazado 828392" d="M150.038,22.662c.449-5.984,1.021-11.858,1.476-16.205H123.581c.517,4.768,1.177,11.1,1.61,16.205Z" fill="#263248"/>
    <path id="Trazado_828393" data-name="Trazado 828393" d="M151.514,6.442v-1.4a.933.933,0,0,0-.932-.933H124.514a.933.933,0,0,0-.933.933v1.4Z" fill="#ffcd00"/>
    <path id="Trazado_828394" data-name="Trazado 828394" d="M135.736,18.347V42.735a4.815,4.815,0,0,1-4.815,4.815h-4.053c-.177-2.055-.456-5.482-.639-8.764-.2-3.637-.445-7.961-.755-12.477-.237-3.476-.686-8.231-1.148-12.777h6.6a4.815,4.815,0,0,1,4.815,4.815" fill="#263248"/>
    <path id="Trazado_828395" data-name="Trazado 828395" d="M133.654,39.387a2.842,2.842,0,0,1-5.684,0v-2.4a2.842,2.842,0,1,1,5.684,0Z" fill="#ffcd00"/>
    <rect id="Rectángulo_380389" data-name="Rectángulo 380389" width="13.167" height="1.991" transform="translate(135.737 18.339)" fill="#ffcd00"/>
    <rect id="Rectángulo_380390" data-name="Rectángulo 380390" width="13.167" height="1.991" transform="translate(135.737 14.416)" fill="#ffcd00"/>
  </g>
</svg>
