<svg xmlns="http://www.w3.org/2000/svg" xmlns:xlink="http://www.w3.org/1999/xlink" width="195.965" height="176.17" viewBox="0 0 195.965 176.17">
  <defs>
    <clipPath id="clip-path">
      <rect id="Rectángulo_380376" data-name="Rectángulo 380376" width="195.965" height="176.17" fill="none"/>
    </clipPath>
  </defs>
  <g id="Grupo_1076892" data-name="Grupo 1076892" clip-path="url(#clip-path)">
    <path id="Trazado_828299" data-name="Trazado 828299" d="M135.558,148.836c0,13.382,6.817,27.334,24.23,27.334,18.54,0,24.23-13.952,24.23-27.334,0-6.258-3.924-10.7-7.819-18.613-4.433-9.008-9.287-18.033-16.411-18.033s-11.961,9.006-16.394,18c-3.9,7.921-7.836,12.381-7.836,18.648" fill="#cdaecf"/>
    <path id="Trazado_828300" data-name="Trazado 828300" d="M176.2,130.223c-4.382-8.9-9.179-17.807-16.168-18.013v63.954c18.343-.123,23.987-14.005,23.987-27.328,0-6.258-3.924-10.7-7.819-18.613" fill="#c19db6"/>
    <path id="Trazado_828301" data-name="Trazado 828301" d="M166.737,129.517a1,1,0,0,1-.922-.613c-2.253-5.363-4.4-6.051-6.027-6.051-1.973,0-4.259,2.377-5.824,6.055a1,1,0,1,1-1.84-.783c1.937-4.553,4.8-7.272,7.664-7.272,3.284,0,5.786,2.312,7.871,7.276a1,1,0,0,1-.534,1.309.986.986,0,0,1-.388.079" fill="#843968"/>
    <path id="Trazado_828302" data-name="Trazado 828302" d="M158.816,150.359c-5.934,0-11.461-1.633-15.508-2.828a1,1,0,1,1,.567-1.918c3.968,1.172,9.415,2.781,15.115,2.745a51.955,51.955,0,0,0,16.556-2.626,1,1,0,1,1,.668,1.885A54,54,0,0,1,159,150.358h-.186" fill="#843968"/>
    <path id="Trazado_828303" data-name="Trazado 828303" d="M158.686,158.1a54.925,54.925,0,0,1-15.328-2.053,1,1,0,0,1,.566-1.918,53.516,53.516,0,0,0,15.111,1.97,51.266,51.266,0,0,0,16.556-2.627,1,1,0,0,1,.668,1.886,53.293,53.293,0,0,1-17.213,2.741h-.36" fill="#843968"/>
    <path id="Trazado_828304" data-name="Trazado 828304" d="M158.731,165.841a54.932,54.932,0,0,1-15.329-2.053,1,1,0,0,1,.566-1.918,52.926,52.926,0,0,0,14.762,1.971h.35a51.245,51.245,0,0,0,16.555-2.627,1,1,0,1,1,.668,1.886,53.278,53.278,0,0,1-17.212,2.741h-.36" fill="#843968"/>
    <path id="Trazado_828305" data-name="Trazado 828305" d="M137.91,140.507c-8.957-3.739-14.094-9.3-14.094-15.259,0-10.663,16.183-19.337,36.074-19.337s36.075,8.674,36.075,19.337c0,5.7-5.345,11.4-14.3,15.255l-.791-1.837c8.072-3.475,13.087-8.617,13.087-13.418,0-9.56-15.285-17.337-34.075-17.337s-34.074,7.777-34.074,17.337c0,5.036,4.81,10.051,12.865,13.413Z" fill="#843968"/>
    <path id="Trazado_828306" data-name="Trazado 828306" d="M131.917,37.634a62.782,62.782,0,0,0,10.992,24.3c2.948-3.174,7.911-5.264,13.528-5.264,5.642,0,10.626,2.107,13.569,5.305a62.055,62.055,0,0,0,11.231-24.34l-.01-13.67a36,36,0,0,0-2.581-8.077,26.712,26.712,0,0,1-10.969-7.668,24.868,24.868,0,0,1-4.123-7.042,20.531,20.531,0,0,0-14.28.214,34.4,34.4,0,0,1-4.989,8.355,19.7,19.7,0,0,1-9.618,6.4,39.93,39.93,0,0,0-2.214,7.032Z" fill="#b6c567"/>
    <path id="Trazado_828307" data-name="Trazado 828307" d="M181.227,23.964a36.1,36.1,0,0,0-2.581-8.077,26.691,26.691,0,0,1-10.969-7.669,24.83,24.83,0,0,1-4.124-7.041A20.625,20.625,0,0,0,156.74,0V56.683c5.515.075,10.376,2.151,13.266,5.291a62.054,62.054,0,0,0,11.23-24.34Z" fill="#a7af5d"/>
    <path id="Trazado_828308" data-name="Trazado 828308" d="M160.031,30.829c0,6.965,5.155,12.612,11.515,12.612s11.515-5.647,11.515-12.612S177.9,18.217,171.546,18.217s-11.515,5.647-11.515,12.612" fill="#936560"/>
    <path id="Trazado_828309" data-name="Trazado 828309" d="M171.546,40.638c-4.8,0-8.712-4.4-8.712-9.809s3.908-9.809,8.712-9.809,8.712,4.4,8.712,9.809-3.908,9.809-8.712,9.809" fill="#f7e5b1"/>
    <path id="Trazado_828310" data-name="Trazado 828310" d="M130.092,30.829c0,6.965,5.155,12.612,11.515,12.612s11.515-5.647,11.515-12.612-5.155-12.612-11.515-12.612-11.515,5.647-11.515,12.612" fill="#936560"/>
    <path id="Trazado_828311" data-name="Trazado 828311" d="M141.607,40.638c-4.8,0-8.712-4.4-8.712-9.809s3.908-9.809,8.712-9.809,8.712,4.4,8.712,9.809-3.908,9.809-8.712,9.809" fill="#f7e5b1"/>
    <path id="Trazado_828312" data-name="Trazado 828312" d="M170.942,82.189c0,5.608-6.492,10.155-14.506,10.155S141.93,87.8,141.93,82.189V67.684c0-5.608,6.491-10.154,14.506-10.154s14.506,4.546,14.506,10.154Z" fill="#936560"/>
    <path id="Trazado_828313" data-name="Trazado 828313" d="M141.93,82.189c0,5.609,6.5,10.155,14.506,10.155s14.506-4.546,14.506-10.155-6.494-10.154-14.506-10.154S141.93,76.582,141.93,82.189" fill="#caa99a"/>
    <path id="Trazado_828314" data-name="Trazado 828314" d="M156.436,90.541c-7.005,0-12.7-3.746-12.7-8.351s5.7-8.352,12.7-8.352,12.7,3.747,12.7,8.352-5.7,8.351-12.7,8.351m0-14.7c-5.7,0-10.7,2.968-10.7,6.352s5,6.351,10.7,6.351,10.7-2.968,10.7-6.351-5-6.352-10.7-6.352" fill="#936560"/>
    <path id="Trazado_828315" data-name="Trazado 828315" d="M67.343,38.627c-.177-1.393,1.323-3.153,3.814-5.889.493-.541.966-1.06,1.364-1.525l.548-.638c2.127-2.468,3.808-4.417,3.589-6.925-.237-2.73-2.759-2.966-6.3-3a130.094,130.094,0,0,0-13.92.636L56.224,19.3a134.047,134.047,0,0,1,14.092-.649c3,.03,7.922.079,8.335,4.829.291,3.348-1.826,5.8-4.067,8.405l-.543.631c-.41.479-.9,1.014-1.406,1.573-1.143,1.255-3.271,3.591-3.306,4.315Z" fill="#52193a"/>
    <path id="Trazado_828316" data-name="Trazado 828316" d="M23.915,38.627l-1.984-.252c-.037-.7-2.165-3.034-3.308-4.289-.509-.559-1-1.094-1.4-1.572l-.543-.632c-2.241-2.6-4.359-5.056-4.068-8.405.413-4.75,5.331-4.8,8.27-4.828a131.514,131.514,0,0,1,14.157.648l-.217,1.988a131.922,131.922,0,0,0-13.856-.637c-3.6.036-6.124.272-6.361,3-.218,2.509,1.463,4.458,3.59,6.926l.548.638c.4.464.87.983,1.363,1.524,2.491,2.736,3.991,4.5,3.814,5.889" fill="#52193a"/>
    <path id="Trazado_828317" data-name="Trazado 828317" d="M40.082,62.83h12.75L64.718,39.768,56.335,18.05a9.192,9.192,0,0,0-8.576-5.883h-4a9.192,9.192,0,0,0-8.576,5.883l-8.377,21.7Z" fill="#814f4f"/>
    <path id="Trazado_828318" data-name="Trazado 828318" d="M56.335,18.05a9.194,9.194,0,0,0-8.577-5.883H46.086V62.83h6.746L64.718,39.769Z" fill="#703c40"/>
    <path id="Trazado_828319" data-name="Trazado 828319" d="M46.338,51.928a8.416,8.416,0,1,1,8.416-8.416,8.426,8.426,0,0,1-8.416,8.416m0-14.831a6.416,6.416,0,1,0,6.416,6.415A6.423,6.423,0,0,0,46.338,37.1" fill="#e0b399"/>
    <path id="Trazado_828320" data-name="Trazado 828320" d="M19.4,79.081c-7.2,2.053-15.425-4.624-18.36-14.923S1.576,43.853,8.78,41.8c3.654-1.041,8.566-2.417,12.219-3.458,7.2-2.053,15.425,4.624,18.36,14.923s-.532,20.306-7.737,22.358c-3.653,1.041-8.565,2.417-12.219,3.458" fill="#61866d"/>
    <path id="Trazado_828321" data-name="Trazado 828321" d="M8.781,41.8C1.575,43.853-1.889,53.864,1.044,64.159S12.2,81.135,19.4,79.081s10.67-12.064,7.738-22.358S15.986,39.747,8.781,41.8" fill="#456959"/>
    <path id="Trazado_828322" data-name="Trazado 828322" d="M16.712,76.709c-5.267,0-10.868-5.719-13.029-13.3a21.909,21.909,0,0,1-.209-11.928c1.087-3.736,3.239-6.235,6.058-7.038a7.064,7.064,0,0,1,1.939-.268c5.267,0,10.868,5.719,13.029,13.3A21.9,21.9,0,0,1,24.709,69.4c-1.087,3.736-3.239,6.235-6.058,7.038a7.07,7.07,0,0,1-1.939.268M11.471,46.172a5.078,5.078,0,0,0-1.391.191c-2.134.608-3.8,2.623-4.686,5.673a20.179,20.179,0,0,0,.213,10.821C7.5,69.5,12.378,74.709,16.712,74.709a5.078,5.078,0,0,0,1.391-.191c2.134-.608,3.8-2.623,4.686-5.673a20.173,20.173,0,0,0-.213-10.822c-1.893-6.646-6.771-11.851-11.105-11.851" fill="#22312d"/>
    <path id="Trazado_828323" data-name="Trazado 828323" d="M73.468,79.081c7.2,2.053,15.425-4.624,18.36-14.923S91.3,43.853,84.091,41.8c-3.654-1.041-8.565-2.417-12.219-3.458-7.205-2.053-15.425,4.624-18.36,14.923s.532,20.306,7.737,22.358c3.654,1.041,8.565,2.417,12.219,3.458" fill="#61866d"/>
    <path id="Trazado_828324" data-name="Trazado 828324" d="M84.091,41.8c7.206,2.053,10.67,12.064,7.737,22.359S80.674,81.135,73.468,79.081,62.8,67.017,65.731,56.723,76.885,39.747,84.091,41.8" fill="#456959"/>
    <path id="Trazado_828325" data-name="Trazado 828325" d="M76.16,76.709h0a7.07,7.07,0,0,1-1.939-.268c-5.642-1.607-8.32-10.293-5.849-18.967,2.161-7.583,7.762-13.3,13.029-13.3a7.064,7.064,0,0,1,1.939.268c2.819.8,4.971,3.3,6.058,7.038a21.909,21.909,0,0,1-.209,11.928c-2.161,7.583-7.762,13.3-13.028,13.3M81.4,46.172c-4.334,0-9.212,5.2-11.105,11.851-2.137,7.5-.047,15.207,4.473,16.495a5.078,5.078,0,0,0,1.391.191c4.334,0,9.212-5.205,11.105-11.852a20.169,20.169,0,0,0,.213-10.821c-.888-3.05-2.552-5.065-4.686-5.673a5.078,5.078,0,0,0-1.391-.191" fill="#22312d"/>
    <rect id="Rectángulo_380372" data-name="Rectángulo 380372" width="17.165" height="6.884" transform="translate(37.853 150.793)" fill="#fdb813"/>
    <rect id="Rectángulo_380373" data-name="Rectángulo 380373" width="19.137" height="6.884" transform="translate(36.867 149.466)" fill="#07273b"/>
    <path id="Trazado_828326" data-name="Trazado 828326" d="M39.328,112.013l-26.852,31.96c-3.909,4.653-.711,8.46,7.108,8.46H46.436v-43.91a9.273,9.273,0,0,0-7.108,3.49" fill="#dee8ff"/>
    <path id="Trazado_828327" data-name="Trazado 828327" d="M80.4,143.972,53.543,112.013a9.271,9.271,0,0,0-7.107-3.49v43.91H73.287c7.819,0,11.017-3.808,7.109-8.461" fill="#ccdcff"/>
    <path id="Trazado_828328" data-name="Trazado 828328" d="M19.584,153.622c-7.819,0-11.017-2.521-7.108-5.6l26.852-21.16a12.088,12.088,0,0,1,14.216,0L80.4,148.021c3.909,3.08.71,5.6-7.108,5.6Z" fill="#1a2230"/>
    <path id="Trazado_828329" data-name="Trazado 828329" d="M59.125,158.36c-2.351-1.358-.772-8.495,3.527-15.941s9.691-12.383,12.042-11.026.772,8.495-3.527,15.941-9.691,12.383-12.042,11.026" fill="#07273b"/>
    <rect id="Rectángulo_380374" data-name="Rectángulo 380374" width="31.139" height="14.748" transform="matrix(0.5, -0.866, 0.866, 0.5, 59.125, 158.36)" fill="#07273b"/>
    <path id="Trazado_828330" data-name="Trazado 828330" d="M71.9,165.733c-2.351-1.357-.772-8.495,3.527-15.941s9.691-12.383,12.042-11.026.772,8.495-3.527,15.942S74.247,167.091,71.9,165.733" fill="#07273b"/>
    <path id="Trazado_828331" data-name="Trazado 828331" d="M61.253,159.589c-2.351-1.358-.772-8.5,3.527-15.941s9.691-12.383,12.042-11.026.772,8.5-3.527,15.941S63.6,160.946,61.253,159.589" fill="#07273b"/>
    <path id="Trazado_828332" data-name="Trazado 828332" d="M72.851,164.08c-1.714-.989-.045-7.088,3.727-13.621s8.219-11.028,9.933-10.038.045,7.087-3.727,13.621-8.219,11.027-9.933,10.038" fill="#fdb813"/>
    <path id="Trazado_828333" data-name="Trazado 828333" d="M64.773,143.643c4.154-7.2,9.325-12.05,11.8-11.165l-1.879-1.085c-2.352-1.358-7.743,3.579-12.042,11.025S56.773,157,59.124,158.36L61,159.445c-2-1.7-.385-8.607,3.769-15.8" fill="#fdb813"/>
    <path id="Trazado_828334" data-name="Trazado 828334" d="M33.747,158.36c2.351-1.358.772-8.495-3.527-15.941s-9.691-12.383-12.042-11.026-.772,8.495,3.527,15.941S31.4,159.717,33.747,158.36" fill="#07273b"/>
    <rect id="Rectángulo_380375" data-name="Rectángulo 380375" width="14.748" height="31.139" transform="matrix(0.866, -0.5, 0.5, 0.866, 5.406, 138.766)" fill="#07273b"/>
    <path id="Trazado_828335" data-name="Trazado 828335" d="M20.975,165.733c2.351-1.357.772-8.495-3.527-15.941S7.757,137.409,5.406,138.766s-.772,8.495,3.527,15.942,9.691,12.383,12.042,11.025" fill="#07273b"/>
    <path id="Trazado_828336" data-name="Trazado 828336" d="M31.618,159.589c2.351-1.358.772-8.5-3.527-15.941S18.4,131.265,16.049,132.622s-.772,8.5,3.527,15.941,9.691,12.383,12.042,11.026" fill="#07273b"/>
    <path id="Trazado_828337" data-name="Trazado 828337" d="M20.02,164.08c1.714-.989.045-7.088-3.727-13.621S8.074,139.431,6.36,140.421s-.045,7.087,3.727,13.621,8.219,11.027,9.933,10.038" fill="#fdb813"/>
    <path id="Trazado_828338" data-name="Trazado 828338" d="M28.1,143.643c-4.154-7.2-9.325-12.05-11.8-11.165l1.879-1.085c2.352-1.358,7.743,3.579,12.042,11.025S36.1,157,33.747,158.36l-1.88,1.085c2-1.7.385-8.607-3.769-15.8" fill="#fdb813"/>
    <path id="Trazado_828339" data-name="Trazado 828339" d="M58.475,139.692a12.039,12.039,0,1,0-12.039,12.039,12.039,12.039,0,0,0,12.039-12.039" fill="#fff"/>
    <path id="Trazado_828340" data-name="Trazado 828340" d="M57.4,139.692a10.966,10.966,0,1,0-10.967,10.967A10.967,10.967,0,0,0,57.4,139.692" fill="#060f1c"/>
    <path id="Trazado_828341" data-name="Trazado 828341" d="M56.21,139.692a9.774,9.774,0,1,0-9.774,9.774,9.774,9.774,0,0,0,9.774-9.774" fill="#fff"/>
    <path id="Trazado_828342" data-name="Trazado 828342" d="M47.5,139.692a1.062,1.062,0,1,0-1.062,1.062,1.062,1.062,0,0,0,1.062-1.062" fill="#060f1c"/>
    <path id="Trazado_828343" data-name="Trazado 828343" d="M47.5,135.932a1.062,1.062,0,1,0-1.062,1.062,1.062,1.062,0,0,0,1.062-1.062" fill="#060f1c"/>
    <path id="Trazado_828344" data-name="Trazado 828344" d="M47.5,132.171a1.062,1.062,0,1,0-1.062,1.062,1.062,1.062,0,0,0,1.062-1.062" fill="#060f1c"/>
    <path id="Trazado_828345" data-name="Trazado 828345" d="M47.5,147.213a1.062,1.062,0,1,0-1.062,1.062,1.062,1.062,0,0,0,1.062-1.062" fill="#060f1c"/>
    <path id="Trazado_828346" data-name="Trazado 828346" d="M41.869,133.623a1.062,1.062,0,1,0,0,1.5,1.062,1.062,0,0,0,0-1.5" fill="#060f1c"/>
    <path id="Trazado_828347" data-name="Trazado 828347" d="M52.505,144.259a1.062,1.062,0,1,0,0,1.5,1.063,1.063,0,0,0,0-1.5" fill="#060f1c"/>
    <path id="Trazado_828348" data-name="Trazado 828348" d="M38.915,138.63a1.062,1.062,0,1,0,1.062,1.062,1.062,1.062,0,0,0-1.062-1.062" fill="#060f1c"/>
    <path id="Trazado_828349" data-name="Trazado 828349" d="M53.956,138.63a1.062,1.062,0,1,0,1.062,1.062,1.062,1.062,0,0,0-1.062-1.062" fill="#060f1c"/>
    <path id="Trazado_828350" data-name="Trazado 828350" d="M40.367,144.259a1.062,1.062,0,1,0,1.5,0,1.062,1.062,0,0,0-1.5,0" fill="#060f1c"/>
    <path id="Trazado_828351" data-name="Trazado 828351" d="M51,133.623a1.062,1.062,0,1,0,1.5,0,1.062,1.062,0,0,0-1.5,0" fill="#060f1c"/>
    <path id="Trazado_828352" data-name="Trazado 828352" d="M47.5,143.452a1.062,1.062,0,1,0-1.062,1.062,1.062,1.062,0,0,0,1.062-1.062" fill="#060f1c"/>
    <path id="Trazado_828353" data-name="Trazado 828353" d="M44.528,136.282a1.062,1.062,0,1,0,0,1.5,1.062,1.062,0,0,0,0-1.5" fill="#060f1c"/>
    <path id="Trazado_828354" data-name="Trazado 828354" d="M49.846,141.6a1.062,1.062,0,1,0,0,1.5,1.063,1.063,0,0,0,0-1.5" fill="#060f1c"/>
    <path id="Trazado_828355" data-name="Trazado 828355" d="M42.675,138.63a1.062,1.062,0,1,0,1.062,1.062,1.062,1.062,0,0,0-1.062-1.062" fill="#060f1c"/>
    <path id="Trazado_828356" data-name="Trazado 828356" d="M50.2,138.63a1.062,1.062,0,1,0,1.062,1.062A1.062,1.062,0,0,0,50.2,138.63" fill="#060f1c"/>
    <path id="Trazado_828357" data-name="Trazado 828357" d="M43.026,141.6a1.062,1.062,0,1,0,1.5,0,1.062,1.062,0,0,0-1.5,0" fill="#060f1c"/>
    <path id="Trazado_828358" data-name="Trazado 828358" d="M48.344,136.282a1.062,1.062,0,1,0,1.5,0,1.062,1.062,0,0,0-1.5,0" fill="#060f1c"/>
  </g>
</svg>
