<svg xmlns="http://www.w3.org/2000/svg" xmlns:xlink="http://www.w3.org/1999/xlink" width="289.521" height="289.524" viewBox="0 0 289.521 289.524">
  <defs>
    <clipPath id="clip-path">
      <rect id="Rectángulo_378268" data-name="Rectángulo 378268" width="235.363" height="223.178" fill="none"/>
    </clipPath>
    <clipPath id="clip-path-2">
      <rect id="Rectángulo_378267" data-name="Rectángulo 378267" width="235.364" height="223.178" fill="none"/>
    </clipPath>
    <clipPath id="clip-path-3">
      <rect id="Rectángulo_378264" data-name="Rectángulo 378264" width="24.354" height="24.32" fill="none"/>
    </clipPath>
    <clipPath id="clip-path-4">
      <rect id="Rectángulo_378266" data-name="Rectángulo 378266" width="8.679" height="34.043" fill="none"/>
    </clipPath>
  </defs>
  <g id="Grupo_1074068" data-name="Grupo 1074068" transform="translate(-281.038 -3874.375)">
    <path id="Trazado_822782" data-name="Trazado 822782" d="M275.484,137.74a137.742,137.742,0,1,0-137.74,137.74,137.741,137.741,0,0,0,137.74-137.74" transform="translate(295.456 4163.899) rotate(-93)" fill="#c1e29a"/>
    <g id="Grupo_1074269" data-name="Grupo 1074269" transform="translate(300.886 3908.106)">
      <g id="Grupo_1074268" data-name="Grupo 1074268" clip-path="url(#clip-path)">
        <g id="Grupo_1074267" data-name="Grupo 1074267">
          <g id="Grupo_1074266" data-name="Grupo 1074266" clip-path="url(#clip-path-2)">
            <path id="Trazado_824003" data-name="Trazado 824003" d="M59.759,143.051S-15.53,68.46,2.906,40.072c21.412-32.967,56.853,0,56.853,0Z" transform="translate(-0.001 47.758)" fill="#fff8f8"/>
            <path id="Trazado_824004" data-name="Trazado 824004" d="M27.847,175.958S-10.6,18.594,59.864,7.871c83.182-12.661,72.49,77.07,72.49,77.07s35.037-34.867,59.4-15.879C225.563,95.408,170.345,179.3,170.345,179.3Z" transform="translate(32.65 12.488)" fill="#fff8f8"/>
            <path id="Trazado_824005" data-name="Trazado 824005" d="M212.189,72.943c0,4.166-45.335,7.539-101.254,7.539S9.677,77.109,9.677,72.943,55.012,65.4,110.934,65.4s101.254,3.377,101.254,7.542" transform="translate(18.181 122.872)" fill="#dcd6d6"/>
            <path id="Trazado_824006" data-name="Trazado 824006" d="M59.849,188.852H38.641V52.146c0-1.042.225-24.288,16.717-39.517C65.664,3.1,79.629-1.071,96.685.233c24.2,1.868,39.629,16.492,44.537,42.289l.222,2.018V81.285H120.236V45.562c-4.111-19.9-15.018-23.422-25.172-24.2-10.928-.849-19.417,1.416-25.215,6.722-9.7,8.869-10,23.986-10,24.133Z" transform="translate(72.597 0)" fill="#db9ab1"/>
            <rect id="Rectángulo_378263" data-name="Rectángulo 378263" width="111.431" height="14.293" transform="translate(64.398 179.962)" fill="#bd8599"/>
            <path id="Trazado_824007" data-name="Trazado 824007" d="M81.07,77.514A24.356,24.356,0,1,1,56.693,53.2,24.339,24.339,0,0,1,81.07,77.514" transform="translate(60.795 99.955)" fill="#ed9514"/>
            <g id="Grupo_1074259" data-name="Grupo 1074259" transform="translate(105.332 165.966)" opacity="0.2" style="mix-blend-mode: overlay;isolation: isolate">
              <g id="Grupo_1074258" data-name="Grupo 1074258">
                <g id="Grupo_1074257" data-name="Grupo 1074257" clip-path="url(#clip-path-3)">
                  <path id="Trazado_824008" data-name="Trazado 824008" d="M60.943,69.809A12.177,12.177,0,1,1,48.757,57.652,12.17,12.17,0,0,1,60.943,69.809" transform="translate(-36.59 -57.652)" fill="#ffc648"/>
                </g>
              </g>
            </g>
            <path id="Trazado_824009" data-name="Trazado 824009" d="M65.162,79.123a5.626,5.626,0,0,1-.2,7.9,5.565,5.565,0,0,1-7.876-.2l-25.92-27.15a5.577,5.577,0,1,1,8.078-7.692Z" transform="translate(55.662 94.388)" fill="#ed9514"/>
            <path id="Trazado_824010" data-name="Trazado 824010" d="M82.08,30.4S53.312,71.869,70.064,91.137a16.061,16.061,0,0,0,24.032,0C110.847,71.869,82.08,30.4,82.08,30.4" transform="translate(121.788 57.11)" fill="#3ec4d6"/>
            <g id="Grupo_1074265" data-name="Grupo 1074265" transform="translate(191.931 107.624)" opacity="0.3" style="mix-blend-mode: overlay;isolation: isolate">
              <g id="Grupo_1074264" data-name="Grupo 1074264">
                <g id="Grupo_1074263" data-name="Grupo 1074263" clip-path="url(#clip-path-4)">
                  <g id="Grupo_1074262" data-name="Grupo 1074262" style="mix-blend-mode: overlay;isolation: isolate">
                    <g id="Grupo_1074261" data-name="Grupo 1074261">
                      <g id="Grupo_1074260" data-name="Grupo 1074260" clip-path="url(#clip-path-4)">
                        <path id="Trazado_824011" data-name="Trazado 824011" d="M69.355,44.529c1.4-5.314,4.407-12.079,4.736-1.776.15,4.8,1.022,14.82,1.134,20.269.075,3.665.915,7.318-3.023,8.311-3.5.881-5.755-4.491-5.513-9.877a68.6,68.6,0,0,1,2.666-16.927" transform="translate(-66.671 -37.386)" fill="#fef098"/>
                      </g>
                    </g>
                  </g>
                </g>
              </g>
            </g>
            <path id="Trazado_824012" data-name="Trazado 824012" d="M59.854,57.434c.677.392,6.512,6.636,9.048,6.017,1.84-.449,1.983-6.48,1.983-6.48s-2.338,1.105-6.535-4.494c-3.535-4.721-4.5,4.957-4.5,4.957" transform="translate(112.451 96.153)" fill="#fbb99d"/>
            <path id="Trazado_824013" data-name="Trazado 824013" d="M65.027,62.378C69.141,61,78.983,52.507,78.983,52.507l-2.732-.858L62.661,57.72s-1.747,6.031,2.366,4.658" transform="translate(117.031 97.036)" fill="#fbb99d"/>
            <path id="Trazado_824014" data-name="Trazado 824014" d="M67.927,54.446a4.11,4.11,0,0,0-.009-.959,5.039,5.039,0,0,1,.42-1.71c.115-.305,0-1.085.4-1.209.662-.2.5,1.151.573,1.454a.685.685,0,0,0,.558.567.851.851,0,0,0,.512-.2,16.882,16.882,0,0,0,1.365-1.16c.233-.2.478-.392.723-.579.184-.144.374-.4.584-.492a.316.316,0,0,1,.44.2c.032.178-.132.248-.233.36-.23.256-.455.515-.677.78-.049.058-.305.288-.291.368.081.4.78-.207.9-.3a1.835,1.835,0,0,1,.987-.487.172.172,0,0,1,.141.037c.055.06.011.155-.035.219-.276.383-.685.653-.953,1.042a.221.221,0,0,0-.049.213c.141.273.679-.029.867-.112.115-.052.265-.107.36-.017a.208.208,0,0,1,.029.233.632.632,0,0,1-.155.2,5.733,5.733,0,0,1-.547.51c-.095.072-.4.253-.328.4a.119.119,0,0,0,.075.058.635.635,0,0,0,.34-.04.306.306,0,0,1,.325.058c.089.112.012.279-.081.392a5.217,5.217,0,0,1-1.221.976q-.682.462-1.4.858c-.9.5-1.917.806-2.769,1.382a1.882,1.882,0,0,1-.4.233,1.2,1.2,0,0,1-.858-.081,1.893,1.893,0,0,1-1.094-1.2c-.046-.173-.164-.515-.052-.656.081-.1.325-.17.44-.23a3.942,3.942,0,0,0,.489-.285,1.721,1.721,0,0,0,.63-.815" transform="translate(124.598 94.178)" fill="#fbb99d"/>
            <path id="Trazado_824015" data-name="Trazado 824015" d="M62.774,49.889c-2.539-1.641-5.553-2.254-7.073-.147-.864,1.195-.391,4.117.769,5.668,2.228,2.982,8.74,8.844,14.823,10.864,2.228.74,6.7-3.345,4.073-6.394-3.443-4-9.016-7.681-12.592-9.992" transform="translate(103.814 90.925)" fill="#e8a32b"/>
            <path id="Trazado_824016" data-name="Trazado 824016" d="M56.808,73.749s-2.631,3.417-2.671,4.168c-.121,2.234,5.916,6.509,8.731,6.7.394.026,1.045-.334.861-1.428s-3.109-4.223-1.92-5.576-5-3.866-5-3.866" transform="translate(101.705 138.556)" fill="#53424d"/>
            <path id="Trazado_824017" data-name="Trazado 824017" d="M66.588,70.428s-.832,4.232-.533,4.923c.887,2.055,8.2,3.19,10.8,2.1.366-.15.786-.763.132-1.661s-4.664-2.4-4.206-4.137-6.2-1.229-6.2-1.229" transform="translate(123.98 132.185)" fill="#53424d"/>
            <path id="Trazado_824018" data-name="Trazado 824018" d="M89.566,69.7S64,69,60,68.829c-5.878-.248-7.539-2.458-4.5-8.512,2.09-4.163,38.092-5.913,41.943.921,4.724,8.38-7.876,8.466-7.876,8.466" transform="translate(101.463 106.427)" fill="#7816c2"/>
            <path id="Trazado_824019" data-name="Trazado 824019" d="M76.276,94.923c1.416-7.344,2.882-30.348-.2-35.279-3.331-5.329-9.975-.058-10.271,8.21-.19,5.357-.593,23.511-.357,28.439.055,1.2,3.2,1.808,5.078,1.7.046,0,5.34-.944,5.749-3.066" transform="translate(122.827 108.017)" fill="#7816c2"/>
            <path id="Trazado_824020" data-name="Trazado 824020" d="M75.182,80.732s-17.35-6.923-20.716-9.1c-4.943-3.193-6.086-10.571-.4-14.25,3.909-2.528,35.993,14.21,35.694,22.046-.271,7.111-14.581,1.3-14.581,1.3" transform="translate(94.426 107.329)" fill="#7816c2"/>
            <path id="Trazado_824021" data-name="Trazado 824021" d="M64.431,98.066c4.94-5.614,17.863-24.7,17.7-30.515-.17-6.281-8.57-5.1-13.012,1.874C66.242,73.945,56.7,89.392,54.4,93.762c-.558,1.059,1.845,3.181,3.521,4.036.04.02,5.081,1.888,6.509.268" transform="translate(102.053 119.208)" fill="#7816c2"/>
            <path id="Trazado_824022" data-name="Trazado 824022" d="M58.575,60.158a6.6,6.6,0,0,1,4.8,3.7c.21.417.841.049.628-.368a7.25,7.25,0,0,0-5.426-4.059c-.466-.055-.463.674,0,.728" transform="translate(109.392 111.649)" fill="#7816c2"/>
            <path id="Trazado_824023" data-name="Trazado 824023" d="M72.663,51.336c-1.822-4.98-10.818-3.008-16.964-1.77-4.14.832-6.405,2.856-5.827,10.473.227,2.994.478,12.148,2.142,16.691.3.818,1.566,1.508,2.245,2.055,3.889,3.144,23.914-1.209,22.9-5.841a84.669,84.669,0,0,0-4.5-21.608" transform="translate(93.53 90.402)" fill="#feb801"/>
            <path id="Trazado_824024" data-name="Trazado 824024" d="M52.41,49.005s4.5,6.08,9.733,4.358c2.43-.8,2.571-2.971.6-4.376-1.94-1.382-10.332.017-10.332.017" transform="translate(98.466 90.891)" fill="#fbb99d"/>
            <path id="Trazado_824025" data-name="Trazado 824025" d="M63.859,44.7a7.93,7.93,0,0,0-2.122-1.96,6.125,6.125,0,0,0-4.022-.832,7.5,7.5,0,0,0-6.161,6.327A8.311,8.311,0,0,0,53.4,54.2c1.307,1.759,3.414,2.237,5.519,2.372a6.1,6.1,0,0,0,2.559-.291,5.443,5.443,0,0,0,2.476-2.162,8.634,8.634,0,0,0,1.3-3.354A7.937,7.937,0,0,0,63.859,44.7" transform="translate(96.741 78.654)" fill="#53424d"/>
            <path id="Trazado_824026" data-name="Trazado 824026" d="M63.666,55.266a13.245,13.245,0,0,1-2.761-6.874c-.049-.956-1.529-1.033-1.223-1.52s-4.718-1.341-4.718-1.341.881,5.786-2.553,8.829Z" transform="translate(98.466 85.54)" fill="#fbb99d"/>
            <path id="Trazado_824027" data-name="Trazado 824027" d="M59.722,49.757c0-1.172-1.258-2.384-.887-2.98s-5.772-1.641-5.772-1.641a6.571,6.571,0,0,1,1.048,3.057,11.205,11.205,0,0,0,5.971,3.19Z" transform="translate(99.692 84.801)" fill="#dc8162"/>
            <path id="Trazado_824028" data-name="Trazado 824028" d="M58.769,42.807c2.234,1.526,7.168,8.181,4,12.108-1.353,1.678-6.14.259-9.028-2.954-1.186-1.318-1.756-4.563-.783-7.594a3.963,3.963,0,0,1,5.809-1.56" transform="translate(98.569 79.079)" fill="#fbb99d"/>
            <path id="Trazado_824029" data-name="Trazado 824029" d="M55.937,41.8a3.6,3.6,0,0,1,1.428,1.163c.357.489.838,1.367.6,1.975a6.989,6.989,0,0,1-.843,1.212c-.245.36-.4.771-.653,1.128a8.026,8.026,0,0,1-1.693,1.517,1.832,1.832,0,0,1-1.874.124,4.015,4.015,0,0,1-2.525-2.182c-.452-1.157.343-2.4,1.039-3.285a6.266,6.266,0,0,0,.489-.656,3.308,3.308,0,0,1,3.76-1.1,2.831,2.831,0,0,1,.273.107" transform="translate(94.394 77.991)" fill="#53424d"/>
            <path id="Trazado_824030" data-name="Trazado 824030" d="M63.432,45.631c-.288.774-.521-.343-2.34-.777a3.431,3.431,0,0,0-.691-.075,1.579,1.579,0,0,0-.579.075.907.907,0,0,0-.553.921,4,4,0,0,1-.849,2.266,5.671,5.671,0,0,0-1.077,2.467,3.014,3.014,0,0,1-.124.795,2.257,2.257,0,0,0-.153,1c.023.328.118.651.167.976a1.225,1.225,0,0,1-.343,1.175,2.377,2.377,0,0,1-.449.366,2.671,2.671,0,0,1-1.114.415,2.6,2.6,0,0,1-2.361-1,7.1,7.1,0,0,1-1.111-4.488,20.7,20.7,0,0,1,.308-3.184,4.8,4.8,0,0,1,1.321-2.565,6.682,6.682,0,0,1,3.426-1.822,7.035,7.035,0,0,1,1.981-.121c3.138.271,4.77,2.974,4.54,3.584" transform="translate(97.424 78.953)" fill="#53424d"/>
            <path id="Trazado_824031" data-name="Trazado 824031" d="M55.828,45.954s-1.865-1.39-2.772-.867.668,3.043,2.594,2.51.743-1.272.178-1.644" transform="translate(99.184 84.486)" fill="#fbb99d"/>
            <path id="Trazado_824032" data-name="Trazado 824032" d="M54.639,45.175c-.043-.029.049.026.066.035a1.07,1.07,0,0,0,.233.083c.314.06.481-.132.584-.394.063-.164.32-.043.256.121a.837.837,0,0,1-1.327.36c-.15-.1.037-.3.187-.2" transform="translate(102.198 84.207)" fill="#1e100c"/>
            <path id="Trazado_824033" data-name="Trazado 824033" d="M55.717,44.777a.938.938,0,0,0,.248.2c.3.167.489-.009.63-.273.083-.155.34-.035.256.124-.167.311-.435.579-.829.469a1.172,1.172,0,0,1-.541-.366c-.118-.138.118-.291.236-.155" transform="translate(104.175 83.854)" fill="#1e100c"/>
            <path id="Trazado_824034" data-name="Trazado 824034" d="M56.663,44.453a.851.851,0,0,0-1.057.478c-.1.2-.392.02-.294-.176a1.168,1.168,0,0,1,1.445-.628c.207.066.115.394-.095.325" transform="translate(103.882 82.79)" fill="#513d38"/>
            <path id="Trazado_824035" data-name="Trazado 824035" d="M55.716,44.828a.845.845,0,0,0-1.146.17c-.15.164-.383-.083-.236-.248a1.168,1.168,0,0,1,1.56-.213c.184.121.006.412-.178.291" transform="translate(101.993 83.285)" fill="#513d38"/>
            <path id="Trazado_824036" data-name="Trazado 824036" d="M55.4,44.634a1.688,1.688,0,0,0-.04.947c.132.44.628.63.9.993.377.492.006.792-.6.967-.147.04-.219-.141-.072-.184,1.353-.392-.23-1.08-.44-1.644a1.816,1.816,0,0,1,.012-1.12c.037-.124.268-.081.233.04" transform="translate(103.463 83.641)" fill="#dc8162"/>
            <path id="Trazado_824037" data-name="Trazado 824037" d="M54.883,45.77s-.086,1.172.884,1.175S56.844,45.9,56.844,45.9Z" transform="translate(103.109 85.991)" fill="#faffff"/>
            <path id="Trazado_824038" data-name="Trazado 824038" d="M54.254,46.2a.663.663,0,1,0,.415-.841.662.662,0,0,0-.415.841" transform="translate(101.863 85.161)" fill="#f3a498"/>
            <path id="Trazado_824039" data-name="Trazado 824039" d="M56.8,45.321a.67.67,0,1,0,.107.941.669.669,0,0,0-.107-.941" transform="translate(104.659 84.873)" fill="#f3a498"/>
            <path id="Trazado_824040" data-name="Trazado 824040" d="M54.256,45.932c-.518.774-1.416,2.758.345,2.528,1.255-.161.478-1.531.023-2.142-.109-.15.127-.308.236-.161.677.907,1.272,2.594-.455,2.6-1.88,0-.985-2.081-.363-3.005.1-.153.314.035.213.184" transform="translate(100.092 85.843)" fill="#fb8245"/>
            <path id="Trazado_824041" data-name="Trazado 824041" d="M52.959,58.934c.518.584,4.071,8.36,6.673,8.576,1.888.158,3.935-5.516,3.935-5.516S61,62.3,58.8,55.658c-1.857-5.6-5.838,3.276-5.838,3.276" transform="translate(99.497 101.088)" fill="#fbb99d"/>
            <path id="Trazado_824042" data-name="Trazado 824042" d="M56.931,62.9c4.338,0,16.369-4.937,16.369-4.937l-2.32-1.678L56.163,57.728S52.6,62.9,56.931,62.9" transform="translate(102.923 105.742)" fill="#fbb99d"/>
            <path id="Trazado_824043" data-name="Trazado 824043" d="M61.513,58.411a4.153,4.153,0,0,0,.3-.91,5.086,5.086,0,0,1,.938-1.488c.207-.256.343-1.033.766-1.022.691.017.112,1.252.083,1.56a.683.683,0,0,0,.348.714.861.861,0,0,0,.55-.029c.573-.176,1.111-.438,1.661-.668.288-.121.579-.219.872-.322a3.416,3.416,0,0,1,.708-.279.317.317,0,0,1,.354.328c-.026.178-.2.2-.337.271-.3.167-.593.345-.887.524-.066.037-.383.176-.394.259-.052.406.806.049.944,0a1.852,1.852,0,0,1,1.091-.147.174.174,0,0,1,.121.081c.032.075-.037.15-.1.2-.38.276-.855.4-1.232.685-.06.046-.124.112-.112.187.046.3.653.19.855.17.127-.014.288-.017.345.1a.209.209,0,0,1-.043.233.66.66,0,0,1-.21.135,6.569,6.569,0,0,1-.679.311c-.112.035-.458.115-.44.276a.119.119,0,0,0,.052.078.608.608,0,0,0,.337.069c.115.009.25.049.288.158.052.135-.078.271-.2.348a5.348,5.348,0,0,1-1.468.538q-.79.22-1.6.368c-1.013.184-2.073.155-3.063.432a1.9,1.9,0,0,1-.455.092,1.2,1.2,0,0,1-.789-.348,1.9,1.9,0,0,1-.656-1.488c.012-.178.009-.541.158-.639A1.533,1.533,0,0,1,60.1,59.1a4.382,4.382,0,0,0,.553-.118,1.708,1.708,0,0,0,.858-.573" transform="translate(111.69 103.315)" fill="#fbb99d"/>
            <path id="Trazado_824044" data-name="Trazado 824044" d="M57.7,52.7c-1.888-2.361-4.551-3.9-6.661-2.381-1.2.858-1.678,3.78-1.071,5.619,1.169,3.532,5.487,11.158,10.614,15,1.88,1.408,7.413-1.051,5.893-4.773-2-4.888-6.117-10.142-8.774-13.47" transform="translate(93.383 93.396)" fill="#e8a32b"/>
          </g>
        </g>
      </g>
    </g>
  </g>
</svg>
