<svg xmlns="http://www.w3.org/2000/svg" xmlns:xlink="http://www.w3.org/1999/xlink" width="189.799" height="75.589" viewBox="0 0 189.799 75.589">
  <defs>
    <clipPath id="clip-path">
      <rect id="Rectángulo_380341" data-name="Rectángulo 380341" width="189.799" height="75.589" fill="none"/>
    </clipPath>
  </defs>
  <g id="Grupo_1076871" data-name="Grupo 1076871" clip-path="url(#clip-path)">
    <path id="Trazado_828229" data-name="Trazado 828229" d="M25.895,4.308a2.6,2.6,0,0,0-.08.613,2.649,2.649,0,0,0,2.641,2.641H52.125a2.649,2.649,0,0,0,2.641-2.641,2.6,2.6,0,0,0-.08-.613,226.707,226.707,0,0,0-28.791,0" transform="translate(2.84 0.424)" fill="#8b2732"/>
    <path id="Trazado_828230" data-name="Trazado 828230" d="M78.31,39.139l-4.98-.356.208-2.908c.685-9.6-1.845-18.009-7.126-23.68-4.388-4.712-10.486-7.2-17.636-7.2H35.605c-7.159,0-13.266,2.5-17.662,7.22-5.28,5.676-7.806,14.078-7.115,23.662l.2,2.786-4.977.36-.2-2.786c-.794-10.983,2.2-20.721,8.438-27.422C19.653,3.047,27.024,0,35.605,0h13.17c8.57,0,15.933,3.04,21.29,8.794,6.235,6.7,9.236,16.44,8.451,27.437Z" transform="translate(0.63 0)" fill="#db6845"/>
    <path id="Trazado_828231" data-name="Trazado 828231" d="M66.268,8.794C60.911,3.041,53.548,0,44.977,0H40.251V4.992h4.726c7.15,0,13.248,2.491,17.636,7.2,5.281,5.671,7.811,14.081,7.126,23.68l-.208,2.908,4.98.355.206-2.908c.786-11-2.216-20.741-8.451-27.437" transform="translate(4.428 0)" fill="#c3573c"/>
    <path id="Trazado_828232" data-name="Trazado 828232" d="M69.821,34.27l-.26-.019c-1.171-.075-1.9-.117-2.7-.2L64.534,68.378c.879.1,1.672.149,2.575.213l.26.019a9.416,9.416,0,0,0,10.033-8.7L78.518,44.3a9.418,9.418,0,0,0-8.7-10.035" transform="translate(7.1 3.747)" fill="#ff8b4a"/>
    <path id="Trazado_828233" data-name="Trazado 828233" d="M67.5,34.063l-2.136-.079c-1.2-.085-3.367.736-3.452,1.924L59.778,65.817c-.084,1.188,1.943,2.309,3.144,2.394l2.136.175Z" transform="translate(6.576 3.738)" fill="#8b2732"/>
    <path id="Trazado_828234" data-name="Trazado 828234" d="M8.72,34.27l.26-.019c1.171-.075,1.9-.117,2.7-.2l2.329,34.323c-.879.1-1.672.149-2.575.213l-.26.019a9.416,9.416,0,0,1-10.033-8.7L.023,44.3A9.418,9.418,0,0,1,8.72,34.27" transform="translate(0 3.747)" fill="#ff8b4a"/>
    <path id="Trazado_828235" data-name="Trazado 828235" d="M10.417,34.063l2.136-.079c1.2-.085,3.367.736,3.452,1.924l2.136,29.908C18.225,67,16.2,68.125,15,68.211l-2.136.175Z" transform="translate(1.146 3.738)" fill="#8b2732"/>
    <path id="Trazado_828236" data-name="Trazado 828236" d="M176.127,38.532h-3.209c0-18.56-14.539-33.658-32.411-33.658s-32.411,15.1-32.411,33.658h-3.208A37.745,37.745,0,0,1,107.679,24.2a36.837,36.837,0,0,1,7.62-11.716,35.453,35.453,0,0,1,11.323-7.912,34.611,34.611,0,0,1,27.769,0,35.449,35.449,0,0,1,11.322,7.912A36.821,36.821,0,0,1,173.335,24.2a37.745,37.745,0,0,1,2.792,14.331" transform="translate(11.54 0.183)" fill="#263248"/>
    <path id="Trazado_828237" data-name="Trazado 828237" d="M119.087,31.795l-.081.022,9.773,39.789.082-.018a5.124,5.124,0,0,0,3.754-6.2l-7.329-29.841a5.124,5.124,0,0,0-6.2-3.754" transform="translate(13.093 3.482)" fill="#263248"/>
    <path id="Trazado_828238" data-name="Trazado 828238" d="M120.232,31.8c-10.862,2.788-14.171,13-11.489,23.914S119.086,74.148,130,71.587Z" transform="translate(11.867 3.499)" fill="#fdb813"/>
    <rect id="Rectángulo_380337" data-name="Rectángulo 380337" width="2.36" height="14.721" transform="translate(124.424 51.21) rotate(-41.721)" fill="#ccdcff"/>
    <rect id="Rectángulo_380338" data-name="Rectángulo 380338" width="0.845" height="9.558" transform="translate(118.529 43.662) rotate(-41.752)" fill="#263248"/>
    <path id="Trazado_828239" data-name="Trazado 828239" d="M110.2,37.447a3.523,3.523,0,1,0-3.522,3.522,3.522,3.522,0,0,0,3.522-3.522" transform="translate(11.349 3.732)" fill="#ffca00"/>
    <path id="Trazado_828240" data-name="Trazado 828240" d="M108.44,37.288a1.918,1.918,0,1,0-1.918,1.918,1.919,1.919,0,0,0,1.918-1.918" transform="translate(11.508 3.891)" fill="#263248"/>
    <path id="Trazado_828241" data-name="Trazado 828241" d="M156.923,31.795l.081.022-9.773,39.789-.082-.018a5.124,5.124,0,0,1-3.754-6.2l7.329-29.841a5.124,5.124,0,0,1,6.2-3.754" transform="translate(15.76 3.482)" fill="#263248"/>
    <path id="Trazado_828242" data-name="Trazado 828242" d="M156.608,31.8c10.862,2.788,14.17,13,11.489,23.914s-10.342,18.432-21.26,15.871Z" transform="translate(16.155 3.499)" fill="#fdb813"/>
    <path id="Trazado_828243" data-name="Trazado 828243" d="M123.968,55.456a2.244,2.244,0,1,0-2.243,2.244,2.244,2.244,0,0,0,2.243-2.244" transform="translate(13.145 5.855)" fill="#8993ab"/>
    <path id="Trazado_828244" data-name="Trazado 828244" d="M154.9,55.456a2.244,2.244,0,1,0-2.244,2.244,2.244,2.244,0,0,0,2.244-2.244" transform="translate(16.548 5.855)" fill="#8993ab"/>
    <path id="Trazado_828245" data-name="Trazado 828245" d="M122.98,55.367a1.345,1.345,0,1,0-1.344,1.344,1.344,1.344,0,0,0,1.344-1.344" transform="translate(13.234 5.944)" fill="#263248"/>
    <path id="Trazado_828246" data-name="Trazado 828246" d="M153.908,55.367a1.345,1.345,0,1,0-1.344,1.344,1.344,1.344,0,0,0,1.344-1.344" transform="translate(16.637 5.944)" fill="#263248"/>
    <rect id="Rectángulo_380339" data-name="Rectángulo 380339" width="14.721" height="2.36" transform="translate(168.324 60.627) rotate(-48.279)" fill="#ccdcff"/>
    <rect id="Rectángulo_380340" data-name="Rectángulo 380340" width="9.558" height="0.845" transform="matrix(0.666, -0.746, 0.746, 0.666, 178.782, 50.23)" fill="#263248"/>
    <path id="Trazado_828247" data-name="Trazado 828247" d="M164.64,37.447a3.523,3.523,0,1,1,3.522,3.522,3.522,3.522,0,0,1-3.522-3.522" transform="translate(18.114 3.732)" fill="#ffca00"/>
    <path id="Trazado_828248" data-name="Trazado 828248" d="M169.922,37.288A1.918,1.918,0,1,0,168,39.206a1.919,1.919,0,0,0,1.918-1.918" transform="translate(18.273 3.891)" fill="#263248"/>
  </g>
</svg>
