<svg xmlns="http://www.w3.org/2000/svg" width="125" height="91.661" viewBox="0 0 125 91.661">
  <g id="Grupo_1076466" data-name="Grupo 1076466" transform="translate(0 -0.015)">
    <path id="Trazado_827748" data-name="Trazado 827748" d="M45.529,39.264V8.016H28.863V39.264L8.8,83.407a8.562,8.562,0,0,0,7.795,12.1H57.8a8.562,8.562,0,0,0,7.795-12.1Zm0,0" transform="translate(-5.939 -5.918)" fill="#60d1e0"/>
    <path id="Trazado_827749" data-name="Trazado 827749" d="M104.027,143.138l1.23-2.709,3.792,1.723-1.231,2.708Zm0,0" transform="translate(-76.938 -103.851)" fill="#9fe4ed"/>
    <path id="Trazado_827750" data-name="Trazado 827750" d="M86.539,169.2l3.223-7.093,3.791,1.723-3.223,7.093Zm0,0" transform="translate(-64.004 -119.882)" fill="#9fe4ed"/>
    <path id="Trazado_827751" data-name="Trazado 827751" d="M55.945,216.016h-37.5L8.8,237.244a8.562,8.562,0,0,0,7.795,12.1H57.8a8.562,8.562,0,0,0,7.795-12.1Zm0,0" transform="translate(-5.939 -159.755)" fill="#f35244"/>
    <path id="Trazado_827752" data-name="Trazado 827752" d="M56.031,256.016H60.2v4.166H56.031Zm0,0" transform="translate(-41.44 -189.338)" fill="#fc685b"/>
    <path id="Trazado_827753" data-name="Trazado 827753" d="M80.031,304.016H84.2v4.166H80.031Zm0,0" transform="translate(-59.191 -224.839)" fill="#fc685b"/>
    <path id="Trazado_827754" data-name="Trazado 827754" d="M159.61,40.423V8.016H142.945V40.423a31.194,31.194,0,0,0-10.36,55.088H169.97a31.194,31.194,0,0,0-10.36-55.088Zm0,0" transform="translate(-88.773 -5.918)" fill="#55c5d4"/>
    <path id="Trazado_827755" data-name="Trazado 827755" d="M183.231,168.516l-2.583-3.269a24.978,24.978,0,0,1,4.1-2.63l1.9,3.708a20.875,20.875,0,0,0-3.415,2.192Zm0,0" transform="translate(-133.607 -120.26)" fill="#a0d2d9"/>
    <path id="Trazado_827756" data-name="Trazado 827756" d="M148.2,201.6h-4.166a24.968,24.968,0,0,1,6.118-16.343l3.15,2.727a20.8,20.8,0,0,0-5.1,13.616Zm0,0" transform="translate(-106.525 -137.003)" fill="#a0d2d9"/>
    <path id="Trazado_827757" data-name="Trazado 827757" d="M124.664,280.016a31.226,31.226,0,0,0,11.349,16.666H173.4a31.226,31.226,0,0,0,11.349-16.666Zm0,0" transform="translate(-92.201 -207.089)" fill="#348fd9"/>
    <path id="Trazado_827758" data-name="Trazado 827758" d="M184.031,304.016H188.2v4.166h-4.166Zm0,0" transform="translate(-136.109 -224.839)" fill="#62a9e6"/>
    <path id="Trazado_827759" data-name="Trazado 827759" d="M285.529,213.846h-25a6.25,6.25,0,0,1-6.25-6.25V176.349l-6.25-8.333h43.747V207.6A6.25,6.25,0,0,1,285.529,213.846Zm0,0" transform="translate(-183.443 -124.254)" fill="#60d1e0"/>
    <path id="Trazado_827760" data-name="Trazado 827760" d="M272.031,248.016v18.749a6.25,6.25,0,0,0,6.25,6.25h25a6.25,6.25,0,0,0,6.25-6.25V248.016Zm0,0" transform="translate(-201.194 -183.422)" fill="#7eb457"/>
    <path id="Trazado_827761" data-name="Trazado 827761" d="M272.031,208.016h8.333v4.166h-8.333Zm0,0" transform="translate(-201.194 -153.838)" fill="#2a71ad"/>
    <path id="Trazado_827762" data-name="Trazado 827762" d="M272.031,240.016h6.25v4.166h-6.25Zm0,0" transform="translate(-201.194 -177.505)" fill="#2a71ad"/>
    <path id="Trazado_827763" data-name="Trazado 827763" d="M272.031,272.016h8.333v4.166h-8.333Zm0,0" transform="translate(-201.194 -201.172)" fill="#2a71ad"/>
    <path id="Trazado_827764" data-name="Trazado 827764" d="M272.031,304.016h6.25v4.166h-6.25Zm0,0" transform="translate(-201.194 -224.839)" fill="#2a71ad"/>
    <path id="Trazado_827765" data-name="Trazado 827765" d="M384.031,80.016H400.7v60.413H384.031Zm0,0" transform="translate(-284.029 -59.169)" fill="#55c5d4"/>
    <path id="Trazado_827766" data-name="Trazado 827766" d="M384.031,216.016H400.7v25H384.031Zm0,0" transform="translate(-284.029 -159.755)" fill="#ffb531"/>
    <path id="Trazado_827767" data-name="Trazado 827767" d="M389.2,320.349H360.031v-2.083a6.25,6.25,0,0,1,6.25-6.25h16.666a6.25,6.25,0,0,1,6.25,6.25Zm0,0" transform="translate(-266.279 -230.756)" fill="#5ac6d4"/>
    <g id="Grupo_1076465" data-name="Grupo 1076465" transform="translate(100.002 29.18)">
      <path id="Trazado_827768" data-name="Trazado 827768" d="M384.031,176.016h8.333v4.166h-8.333Zm0,0" transform="translate(-384.031 -159.35)" fill="#2a71ad"/>
      <path id="Trazado_827769" data-name="Trazado 827769" d="M384.031,208.016h6.25v4.166h-6.25Zm0,0" transform="translate(-384.031 -183.018)" fill="#2a71ad"/>
      <path id="Trazado_827770" data-name="Trazado 827770" d="M384.031,112.016h8.333v4.166h-8.333Zm0,0" transform="translate(-384.031 -112.016)" fill="#2a71ad"/>
      <path id="Trazado_827771" data-name="Trazado 827771" d="M384.031,144.016h6.25v4.166h-6.25Zm0,0" transform="translate(-384.031 -135.683)" fill="#2a71ad"/>
      <path id="Trazado_827772" data-name="Trazado 827772" d="M384.031,240.016h8.333v4.166h-8.333Zm0,0" transform="translate(-384.031 -206.685)" fill="#2a71ad"/>
      <path id="Trazado_827773" data-name="Trazado 827773" d="M384.031,272.016h6.25v4.166h-6.25Zm0,0" transform="translate(-384.031 -230.352)" fill="#2a71ad"/>
    </g>
    <path id="Trazado_827774" data-name="Trazado 827774" d="M104.027,143.138l1.23-2.709,3.792,1.723-1.231,2.708Zm0,0" transform="translate(-76.938 -103.851)"/>
    <path id="Trazado_827775" data-name="Trazado 827775" d="M86.543,169.2l3.222-7.093,3.792,1.722-3.222,7.094Zm0,0" transform="translate(-64.007 -119.882)"/>
    <path id="Trazado_827776" data-name="Trazado 827776" d="M56.031,256.016H60.2v4.166H56.031Zm0,0" transform="translate(-41.44 -189.338)"/>
    <path id="Trazado_827777" data-name="Trazado 827777" d="M80.031,304.016H84.2v4.166H80.031Zm0,0" transform="translate(-59.191 -224.839)"/>
    <path id="Trazado_827778" data-name="Trazado 827778" d="M186.646,166.282l-1.9-3.709a25.051,25.051,0,0,0-4.1,2.631l2.583,3.268a20.869,20.869,0,0,1,3.415-2.191Zm0,0" transform="translate(-133.607 -120.229)"/>
    <path id="Trazado_827779" data-name="Trazado 827779" d="M144.031,201.6H148.2a20.8,20.8,0,0,1,5.1-13.616l-3.15-2.727a24.968,24.968,0,0,0-6.118,16.343Zm0,0" transform="translate(-106.525 -137.003)"/>
    <path id="Trazado_827780" data-name="Trazado 827780" d="M184.031,304.016H188.2v4.166h-4.166Zm0,0" transform="translate(-136.109 -224.839)"/>
    <path id="Trazado_827781" data-name="Trazado 827781" d="M118.751,79.473V20.847a2.083,2.083,0,0,0-2.083-2.083H100a2.083,2.083,0,0,0-2.083,2.083V41.679H86.67a33.448,33.448,0,0,0-13.749-8.71V2.1A2.083,2.083,0,0,0,70.837.015H54.172A2.083,2.083,0,0,0,52.088,2.1V32.969a33.638,33.638,0,0,0-8.462,4.212l-1.954-4.286V2.1A2.083,2.083,0,0,0,39.589.015H22.924A2.083,2.083,0,0,0,20.84,2.1v30.8l-10.225,22.5L.965,76.628a10.624,10.624,0,0,0,9.689,15.047H122.917A2.083,2.083,0,0,0,125,89.592V87.509a8.333,8.333,0,0,0-6.25-8.037ZM102.085,75.01h4.166V70.844h-4.166V66.677h6.25V62.511h-6.25V58.345h12.5V79.177h-12.5Zm12.5-52.08V54.178h-12.5V50.012h6.25V45.845h-6.25V41.679h4.166V37.513h-4.166V33.346h6.25V29.18h-6.25V22.93ZM97.919,56.261v6.25h-25V58.345h6.25V54.178H72.92V52.095a2.085,2.085,0,0,0-.417-1.25l-3.749-5H97.919ZM54.73,36.521a2.082,2.082,0,0,0,1.525-2.008V4.181h12.5V34.513a2.082,2.082,0,0,0,1.523,2.006,29.353,29.353,0,0,1,10.2,5.16H64.588a2.083,2.083,0,0,0-1.666,3.333l5.833,7.776V70.844H34.021a28.636,28.636,0,0,1-.682-6.25,29.334,29.334,0,0,1,1.042-7.778A28.88,28.88,0,0,1,44.108,42,29.254,29.254,0,0,1,54.73,36.521ZM24.82,34.209a2.051,2.051,0,0,0,.187-.863V4.181h12.5V33.346a2.064,2.064,0,0,0,.187.865l2.566,5.625a32.91,32.91,0,0,0-9.4,14.342H15.745ZM6.071,85.629a6.512,6.512,0,0,1-1.9-4.6,6.6,6.6,0,0,1,.583-2.687l9.094-20H29.774a33.385,33.385,0,0,0-.6,6.25,32.2,32.2,0,0,0,3.085,13.87c.246.533.489,1.042.712,1.458l.036.071c.163.318.342.61.513.912s.292.573.475.856a3.427,3.427,0,0,0,.209.341l.036.051.054.082.783,1.178c.513.758,1.042,1.475,1.606,2.157l.012.017.013.016.024.027a23.658,23.658,0,0,0,1.636,1.875H10.653a6.5,6.5,0,0,1-4.578-1.873ZM44.525,87.5a28.3,28.3,0,0,1-3.015-2.731c-.545-.586-1.072-1.169-1.579-1.789s-.966-1.238-1.419-1.9l-.725-1.091-.082-.135c-.032-.065-.069-.125-.1-.188-.322-.511-.606-1.022-.9-1.583-.231-.443-.443-.888-.666-1.371-.038-.085-.066-.167-.1-.252-.221-.477-.4-.968-.592-1.458H68.754v8.333A8.246,8.246,0,0,0,69.913,87.5H44.529Zm32.562.006a4.167,4.167,0,0,1-4.166-4.166h4.166V79.177H72.921V75.01h6.25V70.844h-6.25V66.677h25v12.8a8.333,8.333,0,0,0-6.25,8.037Zm25,0h-6.25A4.167,4.167,0,0,1,100,83.343h16.666a4.167,4.167,0,0,1,4.166,4.166Zm0,0" transform="translate(0)"/>
  </g>
</svg>
