<svg id="Grupo_1076979" data-name="Grupo 1076979" xmlns="http://www.w3.org/2000/svg" xmlns:xlink="http://www.w3.org/1999/xlink" width="399.784" height="411.849" viewBox="0 0 399.784 411.849">
  <defs>
    <clipPath id="clip-path">
      <rect id="Rectángulo_380468" data-name="Rectángulo 380468" width="399.784" height="411.849" fill="none"/>
    </clipPath>
    <clipPath id="clip-path-7">
      <rect id="Rectángulo_380446" data-name="Rectángulo 380446" width="104.84" height="148.152" fill="none"/>
    </clipPath>
    <clipPath id="clip-path-8">
      <rect id="Rectángulo_380447" data-name="Rectángulo 380447" width="15.975" height="34.144" fill="none"/>
    </clipPath>
    <clipPath id="clip-path-9">
      <rect id="Rectángulo_380448" data-name="Rectángulo 380448" width="13.977" height="10.958" fill="none"/>
    </clipPath>
    <clipPath id="clip-path-10">
      <rect id="Rectángulo_380449" data-name="Rectángulo 380449" width="8.353" height="7.297" fill="none"/>
    </clipPath>
    <clipPath id="clip-path-11">
      <rect id="Rectángulo_380450" data-name="Rectángulo 380450" width="4.735" height="8.802" fill="none"/>
    </clipPath>
    <clipPath id="clip-path-12">
      <rect id="Rectángulo_380451" data-name="Rectángulo 380451" width="20.704" height="22.369" fill="none"/>
    </clipPath>
    <clipPath id="clip-path-13">
      <rect id="Rectángulo_380452" data-name="Rectángulo 380452" width="98.583" height="95.557" fill="none"/>
    </clipPath>
    <clipPath id="clip-path-14">
      <rect id="Rectángulo_380453" data-name="Rectángulo 380453" width="17.324" height="19.633" fill="none"/>
    </clipPath>
    <clipPath id="clip-path-15">
      <rect id="Rectángulo_380454" data-name="Rectángulo 380454" width="5.044" height="5.823" fill="none"/>
    </clipPath>
    <clipPath id="clip-path-16">
      <rect id="Rectángulo_380455" data-name="Rectángulo 380455" width="15.975" height="34.143" fill="none"/>
    </clipPath>
    <clipPath id="clip-path-18">
      <rect id="Rectángulo_380457" data-name="Rectángulo 380457" width="8.352" height="7.297" fill="none"/>
    </clipPath>
    <clipPath id="clip-path-21">
      <rect id="Rectángulo_380466" data-name="Rectángulo 380466" width="113.899" height="22.51" fill="none"/>
    </clipPath>
  </defs>
  <g id="Grupo_1076978" data-name="Grupo 1076978" clip-path="url(#clip-path)">
    <g id="Grupo_1076925" data-name="Grupo 1076925">
      <g id="Grupo_1076924" data-name="Grupo 1076924" clip-path="url(#clip-path)">
        <path id="Trazado_828449" data-name="Trazado 828449" d="M21.425,309.268l12.75.271,6.47.109c2.162.046,4.337.036,6.5.053l.432,0,0-.436.051-10.871,0-.488-.489,0-12.861.061c-4.288,0-8.575.109-12.862.158l-.268,0,0,.262c.018,1.845.084,3.679.127,5.493Zm0,0,.138-5.493c.044-1.81.109-3.6.127-5.378l-.265.265c4.287.05,8.574.154,12.862.159l12.861.061-.484-.486.052,10.871.431-.433c-2.118.017-4.233.008-6.358.053L34.4,309Z" transform="translate(331.595 -8.506)" fill="#ebebeb"/>
        <path id="Trazado_828450" data-name="Trazado 828450" d="M6.654,323.378l12.75.271,6.471.109c2.162.046,4.336.036,6.5.053l.431,0,0-.436.052-10.871,0-.488-.488,0-12.862.061c-4.287,0-8.575.109-12.862.158l-.268,0,0,.261c.018,1.845.084,3.679.127,5.493Zm0,0,.138-5.493c.044-1.809.109-3.6.127-5.378l-.265.265c4.287.05,8.575.154,12.862.159l12.862.061-.485-.486.052,10.871.432-.433c-2.119.017-4.233.008-6.358.053l-6.391.109Z" transform="translate(360.715 -8.909)" fill="#ebebeb"/>
        <path id="Trazado_828451" data-name="Trazado 828451" d="M257.432,184.705l12.75.271,6.471.109c2.162.046,4.336.036,6.5.053l.431,0,0-.436.052-10.87,0-.488-.488,0-12.862.061c-4.287,0-8.575.109-12.862.158l-.268,0,0,.262c.018,1.845.084,3.679.127,5.493Zm0,0,.138-5.493c.044-1.81.109-3.6.127-5.378l-.265.265c4.287.05,8.575.154,12.862.159l12.862.061-.485-.486.052,10.87.432-.433c-2.119.017-4.233.008-6.358.053l-6.391.109Z" transform="translate(-133.681 -4.949)" fill="#ebebeb"/>
        <path id="Trazado_828452" data-name="Trazado 828452" d="M242.66,198.815l12.75.271,6.471.109c2.162.046,4.336.036,6.5.053l.43,0,0-.436.052-10.87,0-.488-.487,0-12.863.061c-4.287,0-8.574.109-12.862.158l-.268,0,0,.261c.018,1.845.084,3.679.127,5.493Zm0,0,.138-5.493c.044-1.809.109-3.6.127-5.378l-.265.265c4.288.05,8.575.154,12.862.159l12.863.061-.486-.486.052,10.87.433-.433c-2.12.017-4.234.008-6.359.053l-6.391.109Z" transform="translate(-104.559 -5.352)" fill="#ebebeb"/>
        <path id="Trazado_828453" data-name="Trazado 828453" d="M227.946,184.705l12.75.271,6.471.109c2.162.046,4.336.036,6.5.053l.431,0,0-.436.052-10.87,0-.488-.488,0-12.862.061c-4.287,0-8.575.109-12.862.158l-.268,0,0,.262c.018,1.845.084,3.679.127,5.493Zm0,0,.138-5.493c.044-1.81.109-3.6.127-5.378l-.265.265c4.287.05,8.575.154,12.862.159l12.862.061-.485-.486.052,10.87.432-.433c-2.119.017-4.233.008-6.358.053l-6.391.109Z" transform="translate(-75.551 -4.949)" fill="#ebebeb"/>
        <path id="Trazado_828454" data-name="Trazado 828454" d="M377.491,323.378l12.75.271,6.471.109c2.162.046,4.336.036,6.5.053l.431,0,0-.436.052-10.871,0-.488-.488,0-12.862.061c-4.287,0-8.575.109-12.862.158l-.268,0,0,.261c.018,1.845.084,3.679.127,5.493Zm0,0,.138-5.493c.044-1.809.109-3.6.127-5.378l-.265.265c4.287.05,8.575.154,12.862.159l12.862.061-.485-.486.052,10.871.432-.433c-2.119.017-4.233.008-6.358.053l-6.391.109Z" transform="translate(-370.371 -8.909)" fill="#ebebeb"/>
        <path id="Trazado_828455" data-name="Trazado 828455" d="M362.719,49.7l12.75.271,6.471.109c2.163.046,4.336.036,6.5.053l.431,0,0-.436.052-10.871,0-.488-.488,0-12.862.061c-4.287,0-8.574.109-12.862.158l-.268,0,0,.262c.018,1.845.084,3.679.127,5.493Zm0,0,.138-5.493c.044-1.81.109-3.6.127-5.378l-.265.265c4.288.05,8.575.154,12.862.159l12.862.061-.485-.486.052,10.871.432-.433c-2.119.017-4.233.008-6.358.053l-6.391.109Z" transform="translate(-341.249 -1.095)" fill="#ebebeb"/>
        <path id="Trazado_828456" data-name="Trazado 828456" d="M377.491,63.809l12.75.271,6.471.109c2.162.046,4.336.036,6.5.053l.431,0,0-.436.052-10.871,0-.488-.488,0-12.862.061c-4.287,0-8.575.109-12.862.158l-.268,0,0,.262c.018,1.845.084,3.679.127,5.493Zm0,0,.138-5.493c.044-1.81.109-3.6.127-5.378l-.265.265c4.287.05,8.575.154,12.862.159l12.862.061-.485-.486.052,10.871.432-.433c-2.119.017-4.233.008-6.358.053l-6.391.109Z" transform="translate(-370.371 -1.498)" fill="#ebebeb"/>
        <path id="Trazado_828457" data-name="Trazado 828457" d="M21.425,49.7l12.75.271,6.47.109c2.162.046,4.337.036,6.5.053l.432,0,0-.436.051-10.871,0-.488-.489,0-12.861.061c-4.288,0-8.575.109-12.862.158l-.268,0,0,.262c.018,1.845.084,3.679.127,5.493Zm0,0,.138-5.493c.044-1.81.109-3.6.127-5.378l-.265.265c4.287.05,8.574.154,12.862.159l12.861.061-.484-.486L46.717,49.7l.431-.433c-2.118.017-4.233.008-6.358.053l-6.39.109Z" transform="translate(331.595 -1.095)" fill="#ebebeb"/>
        <path id="Trazado_828458" data-name="Trazado 828458" d="M142.368,61.374A61.374,61.374,0,1,0,203.742,0a61.375,61.375,0,0,0-61.374,61.374" transform="translate(-3.635)" fill="#eeffde"/>
        <ellipse id="Elipse_5913" data-name="Elipse 5913" cx="50.237" cy="50.237" rx="50.237" ry="50.237" transform="translate(149.87 11.138)" fill="none" stroke="#fff" stroke-miterlimit="10" stroke-width="4"/>
        <path id="Trazado_828459" data-name="Trazado 828459" d="M168.358,65.948c0,3.476,4.139,6.686,8.963,6.686s8.964-3.112,8.964-6.686Z" transform="translate(49.949 -1.883)" fill="#c7c7c7"/>
        <path id="Trazado_828460" data-name="Trazado 828460" d="M170.067,64.519c1.353-3.092,2.633-6.212,3.9-9.338.647-1.557,1.246-3.134,1.868-4.7l1.851-4.707h-.679l1.85,4.707c.623,1.567,1.22,3.144,1.868,4.7,1.268,3.125,2.546,6.246,3.9,9.338-1.071-3.2-2.22-6.372-3.378-9.539-.565-1.589-1.181-3.159-1.772-4.738l-1.789-4.731-.34-.9-.339.9-1.789,4.731c-.592,1.579-1.206,3.149-1.771,4.738-1.159,3.167-2.306,6.339-3.38,9.539" transform="translate(49.948 -1.274)" fill="#263238"/>
        <rect id="Rectángulo_380428" data-name="Rectángulo 380428" width="18.944" height="1.215" transform="translate(217.8 62.85)" fill="#a6a6a6"/>
        <path id="Trazado_828461" data-name="Trazado 828461" d="M224.284,65.948c0,3.476,4.139,6.686,8.963,6.686s8.964-3.112,8.964-6.686Z" transform="translate(-60.306 -1.883)" fill="#c7c7c7"/>
        <path id="Trazado_828462" data-name="Trazado 828462" d="M225.994,64.519c1.353-3.092,2.633-6.212,3.9-9.338.648-1.557,1.247-3.134,1.869-4.7l1.851-4.707h-.679l1.85,4.707c.623,1.567,1.22,3.144,1.868,4.7,1.268,3.125,2.546,6.246,3.9,9.338-1.072-3.2-2.22-6.372-3.378-9.539-.565-1.589-1.181-3.159-1.772-4.738l-1.789-4.731-.34-.9-.339.9-1.789,4.731c-.592,1.579-1.206,3.149-1.771,4.738-1.159,3.167-2.307,6.339-3.38,9.539" transform="translate(-60.31 -1.274)" fill="#263238"/>
        <rect id="Rectángulo_380429" data-name="Rectángulo 380429" width="18.943" height="1.215" transform="translate(163.47 62.85)" fill="#a6a6a6"/>
        <path id="Trazado_828463" data-name="Trazado 828463" d="M176.383,45.524c1.5.119,2.512-.67,4.291-1.214,2.583-.79,12.11-1.094,16.239-.776,1.638.12,5.047,1.582,7.495,1.582s5.858-1.461,7.5-1.582c4.129-.318,13.656-.014,16.246.776,1.772.544,2.78,1.335,4.284,1.214,2.441-.184,2.717-3.634-.374-3.634s-3.988.606-8.06.536c-1.757-.028-12.223-1.242-15.194-1.242a16.844,16.844,0,0,0-4.4.43,16.8,16.8,0,0,0-4.389-.43c-2.978,0-13.437,1.214-15.2,1.242-4.065.07-4.968-.536-8.059-.536s-2.816,3.451-.374,3.634" transform="translate(-4.049 -1.176)" fill="#c7c7c7"/>
        <rect id="Rectángulo_380430" data-name="Rectángulo 380430" width="38.246" height="6.571" transform="translate(181.236 90.215)" fill="#c7c7c7"/>
        <rect id="Rectángulo_380431" data-name="Rectángulo 380431" width="34.281" height="1.616" transform="translate(183.219 88.598)" fill="#a6a6a6"/>
        <path id="Trazado_828464" data-name="Trazado 828464" d="M202.836,89.844h4.715a43.92,43.92,0,0,0,.762-10.8c-.232-6.69-2.216-35.555-2.216-35.555h-1.806s-1.984,28.865-2.217,35.555a43.978,43.978,0,0,0,.762,10.8" transform="translate(-4.836 -1.242)" fill="#c7c7c7"/>
        <path id="Trazado_828465" data-name="Trazado 828465" d="M203.768,38.682c0,2.428.607,3.091.607,3.091h1.736s.607-.664.607-3.091-1.143-10.092-1.143-10.092h-.657s-1.15,7.665-1.15,10.092" transform="translate(-4.884 -0.816)" fill="#c7c7c7"/>
        <path id="Trazado_828466" data-name="Trazado 828466" d="M202.949,43.1a2.271,2.271,0,1,0,2.27-2.27,2.271,2.271,0,0,0-2.27,2.27" transform="translate(-4.861 -1.166)" fill="#a6a6a6"/>
        <path id="Trazado_828467" data-name="Trazado 828467" d="M203.422,28.537a1.811,1.811,0,1,0,1.811-1.812,1.811,1.811,0,0,0-1.811,1.812" transform="translate(-4.874 -0.763)" fill="#a6a6a6"/>
      </g>
    </g>
    <g id="Grupo_1076927" data-name="Grupo 1076927">
      <g id="Grupo_1076926" data-name="Grupo 1076926" clip-path="url(#clip-path)">
        <path id="Trazado_828468" data-name="Trazado 828468" d="M91.563,409.877c0,7.342,49.575,13.294,110.729,13.294s110.729-5.952,110.729-13.294-49.575-13.294-110.729-13.294S91.563,402.535,91.563,409.877" transform="translate(-2.185 -11.323)" fill="#ebebeb"/>
      </g>
    </g>
    <g id="Grupo_1076929" data-name="Grupo 1076929">
      <g id="Grupo_1076928" data-name="Grupo 1076928" clip-path="url(#clip-path)">
        <path id="Trazado_828469" data-name="Trazado 828469" d="M301.169,305.752c0,5.121,6.1,9.852,13.207,9.852s13.206-4.584,13.206-9.852Z" transform="translate(-220.368 -8.73)" fill="#455a64"/>
        <path id="Trazado_828470" data-name="Trazado 828470" d="M303.687,303.661c1.927-4.581,3.781-9.192,5.623-13.806.935-2.3,1.821-4.623,2.731-6.935l2.712-6.941h-.679l2.711,6.942c.91,2.311,1.794,4.633,2.729,6.934,1.843,4.614,3.7,9.225,5.625,13.806-1.647-4.69-3.368-9.351-5.1-14.007-.853-2.334-1.756-4.648-2.634-6.972l-2.651-6.965-.34-.892-.34.892-2.65,6.965c-.878,2.324-1.78,4.639-2.633,6.972-1.734,4.657-3.455,9.318-5.1,14.007" transform="translate(-220.371 -7.847)" fill="#263238"/>
        <rect id="Rectángulo_380434" data-name="Rectángulo 380434" width="27.913" height="1.791" transform="translate(80.053 295.231)" fill="#37474f"/>
        <path id="Trazado_828471" data-name="Trazado 828471" d="M383.575,305.752c0,5.121,6.1,9.852,13.207,9.852s13.206-4.584,13.206-9.852Z" transform="translate(-382.827 -8.73)" fill="#809993"/>
        <path id="Trazado_828472" data-name="Trazado 828472" d="M386.093,303.661c1.927-4.581,3.781-9.192,5.623-13.806.935-2.3,1.821-4.623,2.73-6.935l2.712-6.941h-.679l2.712,6.942c.909,2.311,1.794,4.633,2.729,6.934,1.843,4.614,3.7,9.225,5.625,13.806-1.647-4.69-3.369-9.351-5.1-14.007-.852-2.334-1.755-4.648-2.633-6.972l-2.652-6.965-.339-.892-.34.892-2.65,6.965c-.879,2.324-1.781,4.639-2.634,6.972-1.733,4.657-3.454,9.318-5.1,14.007" transform="translate(-382.83 -7.847)" fill="#263238"/>
        <rect id="Rectángulo_380435" data-name="Rectángulo 380435" width="27.913" height="1.791" transform="translate(0 295.231)" fill="#37474f"/>
        <path id="Trazado_828473" data-name="Trazado 828473" d="M312.994,275.659c2.215.177,3.7-.988,6.322-1.788,3.806-1.165,17.845-1.612,23.928-1.144,2.412.177,7.435,2.33,11.043,2.33s8.631-2.153,11.043-2.33c6.083-.467,20.122-.02,23.938,1.144,2.609.8,4.1,1.965,6.312,1.788,3.6-.27,4-5.356-.551-5.356s-5.875.895-11.875.791c-2.59-.042-18.011-1.83-22.389-1.83a24.8,24.8,0,0,0-6.479.634,24.747,24.747,0,0,0-6.468-.634c-4.388,0-19.8,1.788-22.4,1.83-5.99.1-7.321-.791-11.876-.791s-4.149,5.085-.551,5.356" transform="translate(-299.934 -7.688)" fill="#809993"/>
        <rect id="Rectángulo_380436" data-name="Rectángulo 380436" width="56.355" height="9.682" transform="translate(26.178 335.552)" fill="#809993"/>
        <rect id="Rectángulo_380437" data-name="Rectángulo 380437" width="50.512" height="2.381" transform="translate(29.1 333.171)" fill="#37474f"/>
        <path id="Trazado_828474" data-name="Trazado 828474" d="M351.973,340.961h6.946a64.664,64.664,0,0,0,1.123-15.91c-.343-9.857-3.265-52.389-3.265-52.389h-2.662s-2.922,42.532-3.265,52.389a64.728,64.728,0,0,0,1.123,15.91" transform="translate(-301.093 -7.785)" fill="#809993"/>
        <path id="Trazado_828475" data-name="Trazado 828475" d="M353.346,265.577c0,3.577.895,4.555.895,4.555H356.8s.894-.978.894-4.555-1.684-14.87-1.684-14.87h-.967s-1.7,11.293-1.7,14.87" transform="translate(-301.166 -7.158)" fill="#809993"/>
        <path id="Trazado_828476" data-name="Trazado 828476" d="M352.138,272.091a3.346,3.346,0,1,0,3.346-3.346,3.346,3.346,0,0,0-3.346,3.346" transform="translate(-301.129 -7.673)" fill="#37474f"/>
        <path id="Trazado_828477" data-name="Trazado 828477" d="M352.834,250.629a2.669,2.669,0,1,0,2.669-2.669,2.669,2.669,0,0,0-2.669,2.669" transform="translate(-301.147 -7.08)" fill="#809993"/>
      </g>
    </g>
    <path id="Trazado_828478" data-name="Trazado 828478" d="M299.516,355.207l49.919.085,49.92.236-49.92.236-49.919.085-99.84.163-99.839-.162-49.919-.085L0,355.529l49.919-.238,49.919-.086,99.839-.161Z" transform="translate(0.43 -10.137)" fill="#263238"/>
    <rect id="Rectángulo_380439" data-name="Rectángulo 380439" width="93.16" height="13.735" transform="translate(40.191 360.137)" fill="#809993"/>
    <rect id="Rectángulo_380440" data-name="Rectángulo 380440" width="82.756" height="3.919" transform="translate(45.392 356.219)" fill="#455a64"/>
    <g id="Grupo_1076931" data-name="Grupo 1076931">
      <g id="Grupo_1076930" data-name="Grupo 1076930" clip-path="url(#clip-path)">
        <path id="Trazado_828479" data-name="Trazado 828479" d="M126.472,167.85h112.5a39.816,39.816,0,0,1,39.816,39.816v142.12H86.656V207.666a39.816,39.816,0,0,1,39.816-39.816" transform="translate(36.812 -4.792)" fill="#455a64"/>
        <rect id="Rectángulo_380441" data-name="Rectángulo 380441" width="27.432" height="183.352" transform="translate(305.615 161.642)" fill="#37474f"/>
        <path id="Trazado_828480" data-name="Trazado 828480" d="M73.681,152.464a8.876,8.876,0,1,0,8.876-8.876,8.876,8.876,0,0,0-8.876,8.876" transform="translate(236.774 -4.1)" fill="#37474f"/>
        <rect id="Rectángulo_380442" data-name="Rectángulo 380442" width="20.782" height="4.402" transform="translate(308.939 157.241)" fill="#455a64"/>
        <rect id="Rectángulo_380443" data-name="Rectángulo 380443" width="27.432" height="183.352" transform="translate(106.025 161.642)" fill="#37474f"/>
        <path id="Trazado_828481" data-name="Trazado 828481" d="M279.137,152.464a8.876,8.876,0,1,0,8.876-8.876,8.876,8.876,0,0,0-8.876,8.876" transform="translate(-168.272 -4.1)" fill="#37474f"/>
        <rect id="Rectángulo_380444" data-name="Rectángulo 380444" width="20.782" height="4.402" transform="translate(109.349 157.241)" fill="#455a64"/>
      </g>
    </g>
    <g id="Grupo_1076972" data-name="Grupo 1076972">
      <g id="Grupo_1076971" data-name="Grupo 1076971" clip-path="url(#clip-path)">
        <path id="Trazado_828482" data-name="Trazado 828482" d="M273.761,190.689c-45.317,46.13-77.641,100.92-74.148,113.823,6.5,24.011,38.873,26.6,43.33,20.958,18.03-22.831,35.606-65.723,54.545-113.532,14.807-37.377,2.871-38.058-11.432-26.684-2.043,1.625-10.429,3.536-12.295,5.435" transform="translate(-98.166 -5.105)" fill="#d0adea"/>
        <g id="Grupo_1076934" data-name="Grupo 1076934" transform="translate(101.206 174.728)" opacity="0.1">
          <g id="Grupo_1076933" data-name="Grupo 1076933">
            <g id="Grupo_1076932" data-name="Grupo 1076932" clip-path="url(#clip-path-7)">
              <path id="Trazado_828483" data-name="Trazado 828483" d="M199.675,304.547c6.5,24,38.868,26.6,43.327,20.954,18.03-22.829,35.6-65.728,54.547-113.533,7.169-18.108,8.374-29.171,4.712-32.1L199.724,299.66a11.337,11.337,0,0,0-.049,4.886" transform="translate(-199.432 -179.863)"/>
            </g>
          </g>
        </g>
        <g id="Grupo_1076937" data-name="Grupo 1076937" transform="translate(177.228 186.102)" opacity="0.1">
          <g id="Grupo_1076936" data-name="Grupo 1076936" transform="translate(0)">
            <g id="Grupo_1076935" data-name="Grupo 1076935" clip-path="url(#clip-path-8)">
              <path id="Trazado_828484" data-name="Trazado 828484" d="M212.654,191.572c1.162,1.139,2.305,2.289,3.39,3.492s2.173,2.4,3.174,3.664a32.176,32.176,0,0,1,5.018,8.138,39.651,39.651,0,0,1,1.478,4.576c.442,1.549.774,3.131,1.139,4.707q.517,2.371.937,4.767c.312,1.592.565,3.2.837,4.8-.046-1.627-.2-3.248-.354-4.869q-.286-2.425-.668-4.842a47.873,47.873,0,0,0-2.474-9.495,21.4,21.4,0,0,0-2.338-4.369,37.691,37.691,0,0,0-3.025-3.875,52.076,52.076,0,0,0-7.115-6.694" transform="translate(-212.655 -191.572)"/>
            </g>
          </g>
        </g>
        <g id="Grupo_1076940" data-name="Grupo 1076940" transform="translate(169.808 192.697)" opacity="0.1">
          <g id="Grupo_1076939" data-name="Grupo 1076939" transform="translate(0)">
            <g id="Grupo_1076938" data-name="Grupo 1076938" transform="translate(0)" clip-path="url(#clip-path-9)">
              <path id="Trazado_828485" data-name="Trazado 828485" d="M236.324,198.36a40.26,40.26,0,0,0-4.383,1.329c-.722.255-1.427.544-2.139.861a4.705,4.705,0,0,0-1.082.631c-.333.294-.574.564-.845.849a56.144,56.144,0,0,0-5.528,7.288q1.663-1.584,3.2-3.266l3.046-3.367c.245-.272.511-.57.743-.782a4.579,4.579,0,0,1,.87-.529c.655-.348,1.348-.654,2.027-.988,1.371-.641,2.739-1.311,4.092-2.025" transform="translate(-222.347 -198.36)"/>
            </g>
          </g>
        </g>
        <g id="Grupo_1076943" data-name="Grupo 1076943" transform="translate(177.257 194.958)" opacity="0.1">
          <g id="Grupo_1076942" data-name="Grupo 1076942" transform="translate(0)">
            <g id="Grupo_1076941" data-name="Grupo 1076941" clip-path="url(#clip-path-10)">
              <path id="Trazado_828486" data-name="Trazado 828486" d="M228.821,200.688c-.718.63-1.375,1.293-2.027,1.952s-1.29,1.326-1.965,1.9a5.86,5.86,0,0,1-.5.405c-.151.1-.351.219-.566.346-.4.258-.8.514-1.176.805a14.766,14.766,0,0,0-2.116,1.89c.876-.379,1.7-.813,2.523-1.251l1.222-.643a6.924,6.924,0,0,0,.644-.359,6.491,6.491,0,0,0,.6-.457,13.081,13.081,0,0,0,1.907-2.145,14.022,14.022,0,0,0,1.452-2.44" transform="translate(-220.468 -200.688)"/>
            </g>
          </g>
        </g>
        <g id="Grupo_1076946" data-name="Grupo 1076946" transform="translate(186.167 206.481)" opacity="0.1">
          <g id="Grupo_1076945" data-name="Grupo 1076945" transform="translate(0)">
            <g id="Grupo_1076944" data-name="Grupo 1076944" clip-path="url(#clip-path-11)">
              <path id="Trazado_828487" data-name="Trazado 828487" d="M219.758,212.55a32.062,32.062,0,0,0-2.547,4.325c-.366.744-.739,1.48-1.086,2.231s-.7,1.493-1.1,2.246a7.268,7.268,0,0,0,1.756-1.861,19.175,19.175,0,0,0,2.979-6.941" transform="translate(-215.023 -212.55)"/>
            </g>
          </g>
        </g>
        <g id="Grupo_1076949" data-name="Grupo 1076949" transform="translate(165.764 193.877)" opacity="0.1">
          <g id="Grupo_1076948" data-name="Grupo 1076948" transform="translate(0)">
            <g id="Grupo_1076947" data-name="Grupo 1076947" clip-path="url(#clip-path-12)">
              <path id="Trazado_828488" data-name="Trazado 828488" d="M240.29,201.837s-5.81,10.731-8.8,12.75-10.258,9.126-11.711,6.945,5.572-12.921,8.238-15.385,10.567-6.573,10.567-6.573Z" transform="translate(-219.586 -199.575)"/>
            </g>
          </g>
        </g>
        <path id="Trazado_828489" data-name="Trazado 828489" d="M337.479,321.142c9.227-13.254,4.552-39.613-5.588-102.829-1.4-8.748-67.81-9.433-66.791-.014,1.282,11.862,13.1,58.747,16.184,65.641,15.091,33.744,49.935,46.192,56.194,37.2" transform="translate(-200.176 -6.038)" fill="#f7a9a0"/>
        <path id="Trazado_828490" data-name="Trazado 828490" d="M278.931,192.25c-.894,12.862,7.565,39.882,12.113,45.615s50.961-7.122,53.8-14.071,2.5-50.488-4.991-61.3-60,16.434-60.926,29.759" transform="translate(-217.615 -4.568)" fill="#f7a9a0"/>
        <path id="Trazado_828491" data-name="Trazado 828491" d="M341.91,180.1c-6.156,2.96-8.264-2.245-8.264-2.245s3.52,12.775-2.761,16.966c-6.064,4.024-10.965-5.621-11.325-6.308.181.678,3.108,12.5-3.637,16.064-7.014,3.7-10.27-6.83-10.477-7.512-.031.694-.591,9.851-6.33,11.392-9.865,2.642-9.08-20.813-14.977-26.61,0,0-10.964,8.872-11.337,9.063,0,0,.29-22.332,8.553-29.848a7.133,7.133,0,0,1,8.909-.685s-.7-7.211,4.519-10.183c2.685-1.518,7.5,1.425,7.5,1.425s-.322-5.8,4.489-8.15c3.832-1.891,8.069,1.356,8.069,1.356s-7.542-28.633-.261-31.485c12.54-4.91,25.237,57.251,30.68,59.635,2.7,1.183-.671,5.835-3.352,7.124" transform="translate(-211.487 -3.228)" fill="#f7a9a0"/>
        <path id="Trazado_828492" data-name="Trazado 828492" d="M285.514,146.176a.1.1,0,0,1,.141-.13c8.9,8.638,16.036,20.857,18.192,33.147.07.4-.7,2.147-.8,1.7-2.687-11.16-9.656-24.174-17.53-34.717" transform="translate(-181.407 -4.169)" fill="#263238"/>
        <path id="Trazado_828493" data-name="Trazado 828493" d="M299.789,152.548c-.086-.114.1-.258.211-.151,9.126,8.951,16.783,22.934,17.6,37.394.028.5-.444.97-.52.4-1.272-9.574-10.154-28.191-17.29-37.645" transform="translate(-209.023 -4.35)" fill="#263238"/>
        <path id="Trazado_828494" data-name="Trazado 828494" d="M328.887,199.489c-1.319-13.834-6.94-25.855-14.489-37.371-.1-.15.123-.273.24-.171,5.228,4.627,9.274,12.469,11.907,18.837a36.652,36.652,0,0,1,2.826,18.659c-.029.254-.456.341-.484.046" transform="translate(-235.219 -4.623)" fill="#263238"/>
        <path id="Trazado_828495" data-name="Trazado 828495" d="M334.011,179.863c.084.485-1.249-.236-1.184.252.71,5.291,1.519,14.823-2.655,16.378-3.349,1.238-7.334-2.4-8.317-4.4l-2.47-5.026.573,5.581a22.976,22.976,0,0,1-.382,7.413c-.547,2.367-1.721,4.58-3.67,5.608a4.684,4.684,0,0,1-5.85-.71,14.165,14.165,0,0,1-3.378-6.243l-1.812-6.384-.374,6.6a21.58,21.58,0,0,1-1,5.4,8.874,8.874,0,0,1-2.739,4.326,4.218,4.218,0,0,1-4.416.51,9.33,9.33,0,0,1-3.359-3.994,73.334,73.334,0,0,1-3.971-10.8c-.592-1.85-1.183-3.709-1.865-5.539a13.829,13.829,0,0,0-2.847-5.08,14.934,14.934,0,0,1,2.337,5.25c.534,1.857.98,3.743,1.429,5.632a62.388,62.388,0,0,0,3.481,11.243,10.9,10.9,0,0,0,3.876,4.916,5.984,5.984,0,0,0,6.545-.5,10.858,10.858,0,0,0,3.542-5.276,23.634,23.634,0,0,0,1.2-6l-2.186.212a16.261,16.261,0,0,0,3.916,7.414,6.787,6.787,0,0,0,4.134,2A7.682,7.682,0,0,0,317,207.632c2.732-1.527,4.081-4.447,4.648-7.1a24.856,24.856,0,0,0,.293-8.161l-1.9.555c1.335,2.5,5.346,7.054,10.781,5.787,6.836-2.71,3.9-16.387,3.189-18.851" transform="translate(-211.641 -5.135)" fill="#263238"/>
        <path id="Trazado_828496" data-name="Trazado 828496" d="M289.339,223.663s20.435-29.22,19-41.192-25.618-23.429-35.1-26.2c-13.087-3.824-14.51,5.946-9.952,11.74,5.281,6.711,16.2,13.726,16.949,14.227,0,0-18.36,9.988-19.2,25.189s28.308,16.237,28.308,16.237" transform="translate(-162.105 -4.437)" fill="#f7a9a0"/>
        <path id="Trazado_828497" data-name="Trazado 828497" d="M309.909,164.144c-2.27-1.457-4.631-2.768-7.026-4.017a72.637,72.637,0,0,0-7.377-3.4q-1.891-.759-3.861-1.348a17.516,17.516,0,0,0-4.131-.766,10.39,10.39,0,0,0-4.3.623,6.59,6.59,0,0,0-3.453,2.935,7.215,7.215,0,0,0-.746,4.471,12.174,12.174,0,0,0,1.441,4.106A20.37,20.37,0,0,0,282.9,170.2q1.344,1.555,2.786,3.017a55.36,55.36,0,0,0,13.16,9.772l.044-1.568a33.163,33.163,0,0,0-6.579,4.222,36.243,36.243,0,0,0-5.487,5.47,31.459,31.459,0,0,0-4.1,6.531,30.758,30.758,0,0,0-2.4,7.266,33.819,33.819,0,0,1,7.368-13.056,39.29,39.29,0,0,1,5.53-5.035,35.607,35.607,0,0,1,6.344-3.81l1.6-.725-1.553-.843a52.246,52.246,0,0,1-6.587-4.359,58.465,58.465,0,0,1-5.967-5.237c-.932-.94-1.84-1.9-2.711-2.9a18.526,18.526,0,0,1-2.244-3.109,10.719,10.719,0,0,1-1.264-3.457,5.422,5.422,0,0,1,.463-3.373,4.871,4.871,0,0,1,2.536-2.227,9.191,9.191,0,0,1,3.622-.634,27.6,27.6,0,0,1,7.636,1.7,119.814,119.814,0,0,1,14.81,6.3" transform="translate(-181.105 -4.414)" fill="#263238"/>
        <path id="Trazado_828498" data-name="Trazado 828498" d="M257.97,264.175l85.776-20.051s19.678,68.848,9.912,81.515c-4.366,5.662-18.989,21.5-31.408,17.939-17.272-4.953-44.07-25.9-50.139-42.906-3.289-9.215-14.141-36.5-14.141-36.5" transform="translate(-207.197 -6.97)" fill="#d0adea"/>
        <path id="Trazado_828499" data-name="Trazado 828499" d="M332.5,263.668c-8.137,1.976-16.359,3.517-24.587,5.034s-16.465,3.054-24.731,4.368c-4.67.741-9.339,1.512-14.032,2.09-.122.016-.174-.187-.048-.217,8.121-1.977,16.349-3.553,24.553-5.122q12.336-2.361,24.722-4.472c4.663-.8,9.339-1.51,14.031-2.09.232-.029.329.351.091.409" transform="translate(-194.192 -7.516)" fill="#263238"/>
        <path id="Trazado_828500" data-name="Trazado 828500" d="M260.458,242.558c1.2.127,2.392.379,3.577.6a.539.539,0,0,1,.369.389c1.316,4.475,2.254,9.1,3.183,13.669.918,4.509,1.731,9.041,2.48,13.582.4,2.445.759,4.9,1.037,7.347a26.373,26.373,0,0,1,2.668,9.517c.013.166-.274.2-.294.032a32.739,32.739,0,0,0-2.269-8.557,60.286,60.286,0,0,1-.477,18.022c-.007.038-.063.019-.057-.018,1.517-8.89-.72-18.163-2.184-26.913-.733-4.386-1.559-8.753-2.416-13.116s-1.875-8.674-2.671-13.034c-1.02-.385-2.049-.764-3.033-1.231a.158.158,0,0,1,.086-.29" transform="translate(-126.854 -6.925)" fill="#263238"/>
        <path id="Trazado_828501" data-name="Trazado 828501" d="M220.633,68.928c17.046,13.446,24.325,37.971,24.325,37.971s17.584,23.532,15.065,37.661A25.129,25.129,0,0,1,246.1,163.273l.579-7.741s-3.789,10.3-19.758,16.125-38.276,3.27-50.235-1.141a43.662,43.662,0,0,1-18.291-12.69l5.508,10.516s-16,1.282-27.429-14.576,12.949-43.383,14.647-48.895.208-44.113,41.215-42.163c0,0,16.564-3.038,28.3,6.22" transform="translate(9.889 -1.777)" fill="#99684b"/>
        <path id="Trazado_828502" data-name="Trazado 828502" d="M139.66,162.785c4.3-2.676,7.539-7.732,9.345-12.373a23.506,23.506,0,0,0,.8-15.366c-1.832-6.065-5.729-11.143-9.519-16.107-3.917-5.127-8.221-9.982-12.042-15.173-.21-.286.222-.593.467-.375a143.887,143.887,0,0,1,11.512,12.019,67.773,67.773,0,0,1,9.464,12.6c2.278,4.2,3.863,9.038,3.48,13.875a24.67,24.67,0,0,1-3.806,11.164c-2.535,4.031-6.035,6.836-9.448,10.049-.214.2-.5-.156-.25-.311" transform="translate(122.037 -2.95)" fill="#a6a6a6"/>
        <path id="Trazado_828503" data-name="Trazado 828503" d="M234.217,137.146c3.2-14.641,14.828-25.04,21.113-38.211,3.4-7.132,5.78-14.869,10.544-21.269.129-.172.426.047.305.225-3.854,5.712-5.713,12.262-8.247,18.59-2.575,6.433-6.272,12.207-10.051,17.982-6.869,10.495-15.115,22.906-11.738,36.082,1.559,6.084,6,12.5,12.557,13.7.254.046.152.462-.1.39a19.949,19.949,0,0,1-12.335-9.821,25.4,25.4,0,0,1-2.049-17.668" transform="translate(-93.267 -2.216)" fill="#a6a6a6"/>
        <path id="Trazado_828504" data-name="Trazado 828504" d="M241.782,141.66a26.142,26.142,0,0,1,1.757-15.688c2.259-4.861,6.24-8.641,10.269-12.055,4.646-3.935,9.583-7.725,12.168-13.4.109-.237.455-.038.353.2-4.062,9.338-13.236,14.536-18.911,22.654-6.487,9.281-5.076,21.551,1.167,30.587a42.932,42.932,0,0,0,15.133,13.07c.1.055.016.211-.088.158-10.232-5.155-19.715-13.773-21.848-25.522" transform="translate(-100.981 -2.867)" fill="#a6a6a6"/>
        <path id="Trazado_828505" data-name="Trazado 828505" d="M108.969,349.926l11.194-68.918s-10.686-22.395.765-41.817c5.784-9.84,20.569-45.854,38.139-58.829,20.675-15.267,40.52-1.214,48.24,9.249,15.458,20.949,42,70.221,47.337,160.341Z" transform="translate(39.283 -4.957)" fill="#d0adea"/>
        <path id="Trazado_828506" data-name="Trazado 828506" d="M229.789,276.453a142.493,142.493,0,0,0-21.036,1.02c-3.462.474-6.879,1.105-10.3,1.811-1.706.352-3.413.646-5.129.931a22.472,22.472,0,0,1-5.433.392.125.125,0,0,0-.025.249,38.206,38.206,0,0,0,5.133.494,37.159,37.159,0,0,0,4.989-.359c3.516-.447,7.008-1.058,10.52-1.541,7.083-.976,14.163-1.95,21.3-2.413.328-.021.312-.578-.02-.582" transform="translate(-12.661 -7.892)" fill="#263238"/>
        <path id="Trazado_828507" data-name="Trazado 828507" d="M205.537,284.716a154.085,154.085,0,0,0-17.15-2.806c-2.888-.3-5.768-.424-8.67-.475-1.385-.025-2.771-.025-4.156-.009-1.524.018-3.047.242-4.571.239-.158,0-.187.243-.024.249,1.437.046,2.872.33,4.3.46s2.878.25,4.316.38c2.881.259,5.757.551,8.64.784,5.772.465,11.513.987,17.266,1.651.311.036.338-.409.047-.473" transform="translate(28.066 -8.035)" fill="#263238"/>
        <g id="Grupo_1076952" data-name="Grupo 1076952" transform="translate(167.117 217.353)" opacity="0.1">
          <g id="Grupo_1076951" data-name="Grupo 1076951" transform="translate(0)">
            <g id="Grupo_1076950" data-name="Grupo 1076950" clip-path="url(#clip-path-13)">
              <path id="Trazado_828508" data-name="Trazado 828508" d="M234.777,227.714c-8.048-.665-16.1-1.225-24.163-1.768l-24.182-1.51-12.095-.655c-4.06-.1-8.1,0-12.137.184q-12.111.544-24.175,1.649l12.1-.494c4.032-.167,8.066-.316,12.1-.408,4.032-.069,8.067-.192,12.08-.048l12.087.741,24.183,1.283c8.064.388,16.129.76,24.2,1.025" transform="translate(-136.195 -223.741)"/>
              <path id="Trazado_828509" data-name="Trazado 828509" d="M145.327,226.64c1.206,7.714,2.5,15.41,3.8,23.106l3.951,23.076c.649,3.84,1.384,7.694,1.854,11.528.391,3.858.556,7.767.823,11.654L157.1,319.38q-.112-11.711-.594-23.413c-.149-3.905-.338-7.8-.689-11.71-.451-3.916-1.149-7.741-1.776-11.6-1.359-7.688-2.722-15.373-4.175-23.043s-2.937-15.332-4.537-22.975" transform="translate(-65.608 -223.824)"/>
              <path id="Trazado_828510" data-name="Trazado 828510" d="M158.7,226.64c.275,3.965.638,7.919,1,11.873l1.12,11.851a107.2,107.2,0,0,1,.738,11.847l.135,5.949c.081,1.984.128,3.968.238,5.955.111-1.983.157-3.968.239-5.955l.135-5.962a91.722,91.722,0,0,0-.52-11.926c-.415-3.953-.83-7.9-1.346-11.842s-1.065-7.873-1.738-11.79" transform="translate(-83.866 -223.824)"/>
              <path id="Trazado_828511" data-name="Trazado 828511" d="M239.182,225.082c-2.108,3.6-4.03,7.311-5.822,11.085-.914,1.88-1.732,3.8-2.514,5.748a47.832,47.832,0,0,0-2.032,5.975,29.577,29.577,0,0,0-.6,6.308c-.037,2.092-.061,4.18.007,6.267.1,4.173.3,8.342.657,12.5l.09-12.5c.051-2.081.048-4.162.13-6.237a28.922,28.922,0,0,1,.657-6.106,80.186,80.186,0,0,1,4.281-11.646c.809-1.917,1.67-3.813,2.536-5.706.842-1.907,1.737-3.789,2.607-5.685" transform="translate(-228.18 -223.779)"/>
              <path id="Trazado_828512" data-name="Trazado 828512" d="M231.125,225.082c-.984,2.437-1.855,4.912-2.7,7.4s-1.625,4.986-2.348,7.514a33.5,33.5,0,0,0-.912,3.882c-.158,1.328-.259,2.632-.314,3.947-.129,2.624-.2,5.247-.135,7.876.179-1.3.3-2.607.466-3.909l.413-3.906c.163-1.3.271-2.605.48-3.873a35.726,35.726,0,0,1,.936-3.754l2.125-7.559c.695-2.527,1.385-5.055,1.988-7.613" transform="translate(-216.736 -223.779)"/>
            </g>
          </g>
        </g>
        <path id="Trazado_828513" data-name="Trazado 828513" d="M81.087,190.5c42.093,39.993,96.178,125.232,87.191,143.159-10.01,19.967-68.639-36.107-68.53-39.5.083-2.562-21.591-54.7-37.98-92.6C45.4,163.7,70.678,180.612,81.087,190.5" transform="translate(175.733 -5.084)" fill="#f7a9a0"/>
        <path id="Trazado_828514" data-name="Trazado 828514" d="M88.974,294.219c-1.917-5.587-31.337-74.314-39.817-96.072-7.611-19.532-5.14-26.294,12.61-16.045,2.143,1.238,13.579,4.449,17.132,7.842,21.694,20.708,75.94,80.893,88.192,116.278,11.8,34.087-16.653,37.828-40.558,22.713-19.573-12.374-37.56-34.715-37.56-34.715" transform="translate(186.13 -5.063)" fill="#d0adea"/>
        <path id="Trazado_828515" data-name="Trazado 828515" d="M156.781,304.527q-3.519-9.888-7.379-19.632c-2.549-6.507-5.2-12.97-7.877-19.424-2.708-6.441-5.438-12.872-8.273-19.26q-4.214-9.6-8.776-19.05,3.515,9.888,7.376,19.633c2.55,6.507,5.2,12.97,7.88,19.424,2.71,6.44,5.44,12.871,8.276,19.258q4.216,9.6,8.773,19.051" transform="translate(122.083 -6.486)" fill="#263238"/>
        <path id="Trazado_828516" data-name="Trazado 828516" d="M157.839,242.417a30.1,30.1,0,0,0-2.807-4.761,40.917,40.917,0,0,0-3.464-4.3,13.806,13.806,0,0,0,1.183,2.525c.455.805.965,1.572,1.486,2.33a26.111,26.111,0,0,0,3.6,4.2" transform="translate(94.706 -6.663)" fill="#263238"/>
        <g id="Grupo_1076955" data-name="Grupo 1076955" transform="translate(254.43 190.282)" opacity="0.1">
          <g id="Grupo_1076954" data-name="Grupo 1076954" transform="translate(0)">
            <g id="Grupo_1076953" data-name="Grupo 1076953" transform="translate(0)" clip-path="url(#clip-path-14)">
              <path id="Trazado_828517" data-name="Trazado 828517" d="M133.617,195.874a14.778,14.778,0,0,1,7.2,3.1c3.131,2.67,9.835,13.007,7.978,15.671s-4.555-1.412-7.592-4.4-9.413-12.106-9.413-12.106Z" transform="translate(-131.794 -195.874)"/>
            </g>
          </g>
        </g>
        <g id="Grupo_1076958" data-name="Grupo 1076958" transform="translate(250.023 200.449)" opacity="0.1">
          <g id="Grupo_1076957" data-name="Grupo 1076957" transform="translate(0)">
            <g id="Grupo_1076956" data-name="Grupo 1076956" clip-path="url(#clip-path-15)">
              <path id="Trazado_828518" data-name="Trazado 828518" d="M149.5,206.34a4.3,4.3,0,0,1,2.1.9c.912.777,2.864,3.788,2.323,4.564s-1.917.17-2.8-.7S148.971,207,148.971,207Z" transform="translate(-148.972 -206.34)"/>
            </g>
          </g>
        </g>
        <g id="Grupo_1076961" data-name="Grupo 1076961" transform="translate(246.837 183.687)" opacity="0.1">
          <g id="Grupo_1076960" data-name="Grupo 1076960" transform="translate(0)">
            <g id="Grupo_1076959" data-name="Grupo 1076959" clip-path="url(#clip-path-16)">
              <path id="Trazado_828519" data-name="Trazado 828519" d="M156.973,189.086a52.011,52.011,0,0,0-7.114,6.694,37.692,37.692,0,0,0-3.025,3.875,21.35,21.35,0,0,0-2.338,4.369,47.805,47.805,0,0,0-2.474,9.495q-.386,2.416-.669,4.842c-.152,1.621-.307,3.242-.354,4.869.273-1.6.526-3.207.838-4.8q.421-2.4.938-4.767c.364-1.576.7-3.157,1.139-4.707a39.71,39.71,0,0,1,1.478-4.576,32.147,32.147,0,0,1,5.019-8.138c1-1.266,2.078-2.473,3.174-3.664s2.229-2.353,3.389-3.492" transform="translate(-140.998 -189.086)"/>
            </g>
          </g>
        </g>
        <g id="Grupo_1076964" data-name="Grupo 1076964" transform="translate(256.254 190.282)" opacity="0.1">
          <g id="Grupo_1076963" data-name="Grupo 1076963" transform="translate(0)">
            <g id="Grupo_1076962" data-name="Grupo 1076962" transform="translate(0)" clip-path="url(#clip-path-9)">
              <path id="Trazado_828520" data-name="Trazado 828520" d="M133.361,195.874c1.353.714,2.721,1.384,4.093,2.025.678.334,1.372.641,2.026.988a4.549,4.549,0,0,1,.87.529c.232.213.5.511.743.782l3.046,3.367q1.536,1.682,3.2,3.266a56.145,56.145,0,0,0-5.528-7.288c-.27-.285-.512-.555-.845-.849a4.741,4.741,0,0,0-1.082-.631c-.712-.317-1.417-.606-2.139-.861a40.266,40.266,0,0,0-4.383-1.329" transform="translate(-133.361 -195.874)"/>
            </g>
          </g>
        </g>
        <g id="Grupo_1076967" data-name="Grupo 1076967" transform="translate(254.43 192.543)" opacity="0.1">
          <g id="Grupo_1076966" data-name="Grupo 1076966" transform="translate(0)">
            <g id="Grupo_1076965" data-name="Grupo 1076965" clip-path="url(#clip-path-18)">
              <path id="Trazado_828521" data-name="Trazado 828521" d="M141.029,198.2a14.021,14.021,0,0,0,1.452,2.44,13.124,13.124,0,0,0,1.907,2.145,6.493,6.493,0,0,0,.6.457,7.048,7.048,0,0,0,.644.359l1.222.643c.818.438,1.647.872,2.523,1.251a14.765,14.765,0,0,0-2.116-1.89c-.374-.291-.773-.547-1.176-.805-.216-.127-.416-.241-.566-.346a5.853,5.853,0,0,1-.5-.405c-.674-.571-1.307-1.249-1.965-1.9s-1.31-1.322-2.027-1.952" transform="translate(-141.029 -198.202)"/>
            </g>
          </g>
        </g>
        <g id="Grupo_1076970" data-name="Grupo 1076970" transform="translate(249.138 204.066)" opacity="0.1">
          <g id="Grupo_1076969" data-name="Grupo 1076969" transform="translate(0)">
            <g id="Grupo_1076968" data-name="Grupo 1076968" clip-path="url(#clip-path-11)">
              <path id="Trazado_828522" data-name="Trazado 828522" d="M150.2,210.064a19.174,19.174,0,0,0,2.979,6.941,7.268,7.268,0,0,0,1.756,1.861c-.406-.753-.744-1.5-1.1-2.246s-.72-1.487-1.086-2.231a32.062,32.062,0,0,0-2.547-4.325" transform="translate(-150.199 -210.064)"/>
            </g>
          </g>
        </g>
        <path id="Trazado_828523" data-name="Trazado 828523" d="M247.474,344.143,172.1,298.577l5.144-8.915L254.421,332.1Z" transform="translate(-21.827 -8.27)" fill="#809993"/>
        <rect id="Rectángulo_380459" data-name="Rectángulo 380459" width="49.624" height="53.815" transform="matrix(-0.866, -0.5, 0.5, -0.866, 139.402, 309.156)" fill="#809993"/>
        <rect id="Rectángulo_380460" data-name="Rectángulo 380460" width="57.992" height="12.006" transform="translate(133.324 328.064) rotate(-150.019)" fill="#809993"/>
        <rect id="Rectángulo_380461" data-name="Rectángulo 380461" width="45.138" height="4.508" transform="translate(135.207 311.94) rotate(-150.019)" fill="#263238"/>
        <path id="Trazado_828524" data-name="Trazado 828524" d="M268.115,297.17l7.017.7,39.1,22.556,4.117,5.725Z" transform="translate(-179.023 -8.485)" fill="#455a64"/>
        <rect id="Rectángulo_380462" data-name="Rectángulo 380462" width="57.992" height="12.006" transform="translate(173.621 258.215) rotate(-150.019)" fill="#809993"/>
        <rect id="Rectángulo_380463" data-name="Rectángulo 380463" width="45.138" height="4.508" transform="translate(164.352 261.421) rotate(-150.019)" fill="#263238"/>
        <path id="Trazado_828525" data-name="Trazado 828525" d="M283.042,264.953l-7.017-.7-39.1-22.556-4.117-5.725Z" transform="translate(-109.422 -6.737)" fill="#455a64"/>
        <rect id="Rectángulo_380464" data-name="Rectángulo 380464" width="14.632" height="17.189" transform="translate(161.228 300.605) rotate(-150.019)" fill="#455a64"/>
        <path id="Trazado_828526" data-name="Trazado 828526" d="M182.46,336.131c-9.071,13.2-34.035,15.906-96.251,28.618C77.6,366.508,48.84,309.09,57.938,306.74c11.458-2.961,56.567-11.97,59.949-12.213,28.525-2.043,70.726,32.649,64.573,41.6" transform="translate(162.144 -8.407)" fill="#f7a9a0"/>
        <path id="Trazado_828527" data-name="Trazado 828527" d="M148.476,322.828c-.925,6.634,5.34,9.608,5.34,9.608s-3.549,4-3.312,9.133c.272,5.877,9.607,8.029,9.607,8.029a17.62,17.62,0,0,0-1.957,10.189c.827,5.6,9.937,9.113,9.937,9.113a15.448,15.448,0,0,0,3.921,10.044c6.9,7.129,21.712,3.969,31.15,2.057s34.418-16.178,39.454-18.416L230.861,301.9s-44.766-3.464-55.545.361c-9.08,3.222-25.8,13.12-26.84,20.567" transform="translate(13.021 -8.579)" fill="#f7a9a0"/>
        <path id="Trazado_828528" data-name="Trazado 828528" d="M209.829,331.937c8.831-5.742,18.88-8.56,28.75-11.943a.181.181,0,0,1,.114.343c-9.855,3.25-18.937,8.415-28.643,12.05a.254.254,0,0,1-.221-.45" transform="translate(-42.761 -9.136)" fill="#263238"/>
        <path id="Trazado_828529" data-name="Trazado 828529" d="M203.3,349.954a27.411,27.411,0,0,1,6.749-2.456q3.669-1.056,7.37-1.988c4.941-1.247,9.91-2.382,14.909-3.371.221-.044.343.285.114.344-4.922,1.251-9.824,2.576-14.689,4.034q-3.65,1.094-7.285,2.247a32.655,32.655,0,0,1-6.946,1.85.364.364,0,0,1-.221-.661" transform="translate(-30.13 -9.768)" fill="#263238"/>
        <path id="Trazado_828530" data-name="Trazado 828530" d="M197.451,370.645c1.727-1.147,4.2-1.427,6.193-1.887q3.394-.783,6.78-1.6c4.512-1.093,9.025-2.189,13.5-3.438.222-.062.337.279.113.343-4.537,1.293-9.056,2.647-13.605,3.9q-3.35.924-6.711,1.809c-1.9.5-4.229,1.346-6.221,1.1a.128.128,0,0,1-.046-.229" transform="translate(-16.133 -10.384)" fill="#263238"/>
        <path id="Trazado_828531" data-name="Trazado 828531" d="M48.371,297.651,109.054,380.6s56.079-31.709,61.705-45.653c4.022-9.968-39.753-42.168-71.418-40.925Z" transform="translate(181.776 -8.394)" fill="#d0adea"/>
        <path id="Trazado_828532" data-name="Trazado 828532" d="M121.171,305.8C116.5,301.648,101.6,293.517,83.3,293.966c-.161,0-.191.262-.027.274,13.669.984,32.923,8.159,37.759,11.775.127.094.26-.109.143-.213" transform="translate(197.783 -8.393)" fill="#263238"/>
        <path id="Trazado_828533" data-name="Trazado 828533" d="M150.021,355.122c-4.917-7.536-10.232-14.8-15.567-22.053s-10.664-14.525-16.182-21.648c-3.118-4.024-6.214-8.069-9.473-11.985-.085-.1-.278.015-.2.131,4.906,7.525,10.2,14.821,15.474,22.1q7.934,10.938,16.1,21.722c3.072,4.061,6.216,8.067,9.473,11.984.161.193.524-.026.38-.247" transform="translate(144.249 -8.548)" fill="#263238"/>
        <path id="Trazado_828534" data-name="Trazado 828534" d="M118.21,296.844a77.825,77.825,0,0,1,10.416-1.3c3.492-.3,6.991-.537,10.489-.743,6.959-.411,21.66-2.074,34.3-.769.14.015-.645.621-.783.6-5.989-.93-50,3.32-53.573,3.217a5.684,5.684,0,0,1,.309.759c.055.182-.142.391-.317.246-.414-.343-.692-.748-1.077-1.118a.509.509,0,0,1,.233-.895" transform="translate(111.919 -8.381)" fill="#263238"/>
        <path id="Trazado_828535" data-name="Trazado 828535" d="M214.769,178.515,171.8,222.1l-8.259-38.363s11.2-10.1,25.628-10.1c12.527,0,25.605,4.882,25.605,4.882" transform="translate(26.148 -4.957)" fill="#ebebeb"/>
        <path id="Trazado_828536" data-name="Trazado 828536" d="M214.58,180.411c-.562,2.857-12.164,20.7-25.023,18.363-9.046-1.642-6.383-19.886-6.383-19.886l-6.645-25.354,31.4-21.525s6.868,47.188,6.648,48.4" transform="translate(13.709 -3.769)" fill="#f7a9a0"/>
        <path id="Trazado_828537" data-name="Trazado 828537" d="M214.719,148.588A50.061,50.061,0,0,1,187.2,177.479l-6.281-23.936,31.405-21.53s1.085,7.487,2.4,16.575" transform="translate(9.316 -3.769)" fill="#263238"/>
        <path id="Trazado_828538" data-name="Trazado 828538" d="M170.916,112.064c-5.767,42.548,19.11,50.787,28.3,52.014,8.345,1.113,36.9,3.846,47.04-37.881s-7.854-57.845-26.8-61.4-42.773,4.717-48.539,47.266" transform="translate(-14.604 -1.829)" fill="#f7a9a0"/>
        <path id="Trazado_828539" data-name="Trazado 828539" d="M234.8,108.447a28.177,28.177,0,0,0,2.95-.444,4.833,4.833,0,0,0,2.923-1.026,1.533,1.533,0,0,0,.107-1.87,3.816,3.816,0,0,0-3.7-1.106,5.6,5.6,0,0,0-3.623,1.77,1.635,1.635,0,0,0,1.341,2.675" transform="translate(-67.657 -2.968)" fill="#99684b"/>
        <path id="Trazado_828540" data-name="Trazado 828540" d="M212.931,111.07a28.551,28.551,0,0,1-2.878-.783,4.824,4.824,0,0,1-2.782-1.357,1.53,1.53,0,0,1,.113-1.869,3.815,3.815,0,0,1,3.8-.669,5.6,5.6,0,0,1,3.392,2.175,1.638,1.638,0,0,1-1.646,2.5" transform="translate(-16.186 -3.032)" fill="#99684b"/>
        <path id="Trazado_828541" data-name="Trazado 828541" d="M213.824,120.588c.031-.11.218.156.2.277-.333,2.917-.223,6.316,2.349,7.5.08.037.059.183-.038.161-3.2-.719-3.3-5.231-2.515-7.943" transform="translate(-23.964 -3.442)" fill="#263238"/>
        <path id="Trazado_828542" data-name="Trazado 828542" d="M212.785,117.662c4.745.026,4.337,9.5-.058,9.472-4.325-.025-3.918-9.494.058-9.472" transform="translate(-20.057 -3.359)" fill="#263238"/>
        <path id="Trazado_828543" data-name="Trazado 828543" d="M206.069,118.256c.805.571,1.577,1.551,2.571,1.692,1.151.162,2.066-.792,2.863-1.714.083-.1.16-.009.157.117-.051,1.816-.831,3.648-2.79,3.835-1.788.171-3-1.489-3.371-3.332-.071-.342.246-.829.569-.6" transform="translate(-11.5 -3.375)" fill="#263238"/>
        <path id="Trazado_828544" data-name="Trazado 828544" d="M236.86,119.368c-.019-.113-.234.131-.235.252-.01,2.937-.517,6.3-3.211,7.182-.084.027-.081.175.018.164,3.261-.343,3.89-4.814,3.427-7.6" transform="translate(-63.904 -3.407)" fill="#263238"/>
        <path id="Trazado_828545" data-name="Trazado 828545" d="M237.368,116.12c-4.715-.522-5.419,8.931-1.051,9.413,4.3.476,5-8.975,1.051-9.413" transform="translate(-66.928 -3.315)" fill="#263238"/>
        <path id="Trazado_828546" data-name="Trazado 828546" d="M242.7,116.585c-.786.446-1.593,1.3-2.492,1.294-1.04-.008-1.73-1.087-2.32-2.116-.061-.107-.142-.033-.154.092-.185,1.8.275,3.728,1.988,4.2,1.562.433,2.842-1.032,3.408-2.8.1-.327-.114-.855-.429-.675" transform="translate(-74.281 -3.304)" fill="#263238"/>
        <path id="Trazado_828547" data-name="Trazado 828547" d="M224.216,145.393c-.7.69-1.4,1.638-2.47,1.731a7.8,7.8,0,0,1-3.163-.729.1.1,0,0,0-.127.151,3.963,3.963,0,0,0,3.737,1.583,3.128,3.128,0,0,0,2.306-2.6c.046-.17-.18-.232-.283-.132" transform="translate(-36.921 -4.15)" fill="#263238"/>
        <path id="Trazado_828548" data-name="Trazado 828548" d="M225.337,132.965s-.846,4.346-.96,6.412c-.01.194.486.313,1.186.392.033.012.051.026.081,0a9.86,9.86,0,0,0,9.753-3.148c.154-.194-.1-.423-.291-.3-2.838,1.852-5.88,2.2-9.123,2.083-.115-.58,1.7-7.395,1.372-7.437-1.126-.158-3.4.491-4.757.808,1.5-9.1,4.448-17.893,5.805-26.979a.282.282,0,0,0-.533-.162c-3.744,8.994-5.7,19.432-7.49,28.794-.234,1.165,4.11-.157,4.957-.463" transform="translate(-49.74 -2.983)" fill="#263238"/>
        <path id="Trazado_828549" data-name="Trazado 828549" d="M238.91,128.082c-9.316-4.576-9.561-14.4-9.561-14.4a45.667,45.667,0,0,1-18.371-15.274c.271.879,2.219,7.226,3.314,10.428-26.875-5.474-34.866-26.206-34.866-26.206C170.533,91.2,168.691,96.74,167.378,99.5c0,0,.085-16.514,8.779-27.428C186.8,58.7,222,55.629,237.971,73.554c17.188,19.333.938,54.527.938,54.527" transform="translate(-8.676 -1.744)" fill="#99684b"/>
        <path id="Trazado_828550" data-name="Trazado 828550" d="M231.723,122.73l1.239-1.3c-1.843-1.926-6.243-4.695-9.728-1.408l1.176,1.367c3.118-2.949,7.143,1.167,7.313,1.342" transform="translate(-50.036 -3.383)" fill="#37474f"/>
        <path id="Trazado_828551" data-name="Trazado 828551" d="M194.471,135.835l1.8-.4c-.188-.837-1.935-8.226-5.736-9.917-3.556-1.57-27.982-5.616-29.019-5.786l-.3,1.815c7,1.152,25.826,4.431,28.568,5.651,2.511,1.117,4.236,6.614,4.69,8.637" transform="translate(46.909 -3.418)" fill="#37474f"/>
        <path id="Trazado_828552" data-name="Trazado 828552" d="M209.4,133.066c3.057-.16,5.835-.808,7.428-2.006,4.373-3.286,7.065-15.478,7.178-15.995l.258-1.185h-1.215c-.928,0-22.814.1-27.849,4.933-2.709,2.6-1.295,9.017.521,10.946,2.242,2.383,8.38,3.582,13.679,3.306m12.418-17.22c-.978,3.94-3.337,11.529-6.165,13.654-3.812,2.863-15.88,1.718-18.51-1.078-1.259-1.337-2.337-6.522-.592-8.2,3.488-3.344,18.394-4.264,25.266-4.378" transform="translate(-12.644 -3.251)" fill="#37474f"/>
        <path id="Trazado_828553" data-name="Trazado 828553" d="M242.461,129a8.176,8.176,0,0,0,5.523-2.106,10.889,10.889,0,0,0,1.911-9.97c-2.006-5.407-15.315-7.716-16.826-7.961l-1.154-.187.021,1.169c.01.484.235,11.9,2.1,15.561.889,1.743,3.018,2.976,5.84,3.381a13.425,13.425,0,0,0,2.588.115m-8.54-17.9c4.38.851,12.9,3.149,14.144,6.5a9,9,0,0,1-1.5,7.95c-1.138,1.2-3.784,1.783-6.414,1.4-2.155-.31-3.791-1.182-4.378-2.335-1.232-2.418-1.721-9.726-1.852-13.519" transform="translate(-75.912 -3.106)" fill="#37474f"/>
        <path id="Trazado_828554" data-name="Trazado 828554" d="M164.953,127.114s10.02-12.942,15.943-9.315-2.058,22.695-9.33,25.011a7.271,7.271,0,0,1-9.547-4.359Z" transform="translate(59.43 -3.345)" fill="#f7a9a0"/>
        <path id="Trazado_828555" data-name="Trazado 828555" d="M179.078,123.387a.1.1,0,0,1,.029.192c-5.107,1.788-7.966,6.3-10.044,11.019,1.579-1.78,3.656-2.7,6.053-.81.126.1-.009.3-.149.261a4.478,4.478,0,0,0-4.992,1.323,21.569,21.569,0,0,0-2.546,3.86c-.256.436-1.053.158-.858-.348.015-.038.032-.077.047-.115.18-6.381,5.572-15.066,12.46-15.383" transform="translate(58.823 -3.523)" fill="#263238"/>
        <path id="Trazado_828556" data-name="Trazado 828556" d="M174.264,178.2l8.172,18.113,21.916-24.271,6.8,7.207S190.312,217.22,190.1,215.553l-8.258-15.562-10.5,11.508-.274-27.774Z" transform="translate(22.445 -4.912)" fill="#ebebeb"/>
        <path id="Trazado_828557" data-name="Trazado 828557" d="M170.577,197.987c.109-4.588.089-9.21.41-13.788.012-.162.262-.246.31-.056,1.1,4.379.594,21.919.789,26.112l.047-.051c.437-.5,9.75-10.148,9.853-10,1.752,2.452,7.808,13.782,8.234,14.818,3.3-6.031,17.353-29.853,21.312-35.592a.159.159,0,0,1,.281.149c-2.868,6.343-21,37.761-21.283,37.692a179.074,179.074,0,0,1-8.644-16.456c-1.557,2.083-10.912,12.924-10.974,12.245a143.886,143.886,0,0,1-.334-15.069" transform="translate(22.302 -5.121)" fill="#263238"/>
      </g>
    </g>
    <path id="Trazado_828558" data-name="Trazado 828558" d="M140.887,413.334H266.512l-3.061-30.191h-119.5Z" transform="translate(-3.593 -10.939)" fill="#ffae7e"/>
    <g id="Grupo_1076977" data-name="Grupo 1076977">
      <g id="Grupo_1076976" data-name="Grupo 1076976" clip-path="url(#clip-path)">
        <g id="Grupo_1076975" data-name="Grupo 1076975" transform="translate(143.158 376.045)" opacity="0.1">
          <g id="Grupo_1076974" data-name="Grupo 1076974" transform="translate(0)">
            <g id="Grupo_1076973" data-name="Grupo 1076973" clip-path="url(#clip-path-21)">
              <path id="Trazado_828559" data-name="Trazado 828559" d="M146.923,409.607h113.9L258.628,387.1h-109.5Z" transform="translate(-146.923 -387.097)"/>
            </g>
          </g>
        </g>
      </g>
    </g>
  </g>
</svg>
