<svg xmlns="http://www.w3.org/2000/svg" xmlns:xlink="http://www.w3.org/1999/xlink" width="505" height="479" viewBox="0 0 505 479">
  <defs>
    <clipPath id="clip-path">
      <rect id="Rectángulo_379781" data-name="Rectángulo 379781" width="505" height="479" transform="translate(915 2953)" fill="#fff" stroke="#707070" stroke-width="1"/>
    </clipPath>
    <clipPath id="clip-path-2">
      <rect id="Rectángulo_379780" data-name="Rectángulo 379780" width="531.773" height="474.323" fill="none"/>
    </clipPath>
    <clipPath id="clip-path-5">
      <rect id="Rectángulo_379762" data-name="Rectángulo 379762" width="333.783" height="426.502" fill="#5c6c49"/>
    </clipPath>
    <clipPath id="clip-path-7">
      <rect id="Rectángulo_379764" data-name="Rectángulo 379764" width="306.003" height="392.879" fill="none"/>
    </clipPath>
    <clipPath id="clip-path-9">
      <rect id="Rectángulo_379768" data-name="Rectángulo 379768" width="10.466" height="11.882" fill="none"/>
    </clipPath>
    <clipPath id="clip-path-10">
      <rect id="Rectángulo_379769" data-name="Rectángulo 379769" width="12.542" height="11.882" fill="none"/>
    </clipPath>
    <clipPath id="clip-path-11">
      <rect id="Rectángulo_379774" data-name="Rectángulo 379774" width="8.182" height="29.721" fill="none"/>
    </clipPath>
    <clipPath id="clip-path-12">
      <rect id="Rectángulo_379775" data-name="Rectángulo 379775" width="15.695" height="42.408" fill="none"/>
    </clipPath>
    <clipPath id="clip-path-13">
      <rect id="Rectángulo_379777" data-name="Rectángulo 379777" width="12.591" height="70.868" fill="none"/>
    </clipPath>
  </defs>
  <g id="Enmascarar_grupo_405" data-name="Enmascarar grupo 405" transform="translate(-915 -2953)" clip-path="url(#clip-path)">
    <g id="Grupo_1076139" data-name="Grupo 1076139" transform="translate(888.227 2942.786)">
      <g id="Grupo_1076138" data-name="Grupo 1076138" transform="translate(0 15.333)" clip-path="url(#clip-path-2)">
        <rect id="Rectángulo_379758" data-name="Rectángulo 379758" width="30.755" height="0.338" transform="translate(0 436.239)" fill="#ebebeb"/>
        <rect id="Rectángulo_379759" data-name="Rectángulo 379759" width="36.528" height="0.338" transform="translate(42.85 436.239)" fill="#ebebeb"/>
        <rect id="Rectángulo_379760" data-name="Rectángulo 379760" width="63.631" height="0.34" transform="translate(170.973 430.502)" fill="#ebebeb"/>
        <g id="Grupo_1076092" data-name="Grupo 1076092">
          <g id="Grupo_1076091" data-name="Grupo 1076091" clip-path="url(#clip-path-2)">
            <path id="Trazado_826752" data-name="Trazado 826752" d="M515.167,341.879c0,8.5-114.506,15.383-255.757,15.383S3.652,350.375,3.652,341.879,118.158,326.5,259.409,326.5s255.757,6.888,255.757,15.383" transform="translate(16.606 117.061)" fill="#f5f5f5"/>
          </g>
        </g>
        <path id="Trazado_826753" data-name="Trazado 826753" d="M346.687,20.877H33.521l20.616,426.5H367.3Z" transform="translate(12.018 7.485)" fill="#5c6c49"/>
        <g id="Grupo_1076097" data-name="Grupo 1076097">
          <g id="Grupo_1076096" data-name="Grupo 1076096" clip-path="url(#clip-path-2)">
            <g id="Grupo_1076095" data-name="Grupo 1076095" transform="translate(45.538 28.362)" opacity="0.2">
              <g id="Grupo_1076094" data-name="Grupo 1076094">
                <g id="Grupo_1076093" data-name="Grupo 1076093" clip-path="url(#clip-path-5)">
                  <path id="Trazado_826754" data-name="Trazado 826754" d="M367.3,447.379Z" transform="translate(-33.52 -20.877)" fill="#5c6c49"/>
                </g>
              </g>
            </g>
          </g>
        </g>
        <path id="Trazado_826755" data-name="Trazado 826755" d="M348.82,20.877H35.654l20.616,426.5H369.436Z" transform="translate(12.783 7.485)" fill="#74875c"/>
        <g id="Grupo_1076105" data-name="Grupo 1076105">
          <g id="Grupo_1076104" data-name="Grupo 1076104" clip-path="url(#clip-path-2)">
            <g id="Grupo_1076100" data-name="Grupo 1076100" transform="translate(62.756 42.708)" opacity="0.2">
              <g id="Grupo_1076099" data-name="Grupo 1076099">
                <g id="Grupo_1076098" data-name="Grupo 1076098" clip-path="url(#clip-path-7)">
                  <path id="Trazado_826756" data-name="Trazado 826756" d="M328.5,31.437H46.194L65.919,424.316,311.4,423.99,352.2,387.82Z" transform="translate(-46.194 -31.437)"/>
                </g>
              </g>
            </g>
            <path id="Trazado_826757" data-name="Trazado 826757" d="M330.671,31.435A3199.173,3199.173,0,0,0,359.059,383.1Q325.5,406.18,292.287,429.25H81.211A3204.869,3204.869,0,0,1,46.193,31.435Z" transform="translate(16.562 11.271)" fill="#fff"/>
            <path id="Trazado_826758" data-name="Trazado 826758" d="M294.111,294.246q-33.555,23.082-66.772,46.151,7.269-30.559,15.126-61.145,25.8,7.5,51.646,14.994" transform="translate(81.51 100.123)" fill="#ebebeb"/>
            <path id="Trazado_826759" data-name="Trazado 826759" d="M115.193,59.093q.789,21.58,1.872,43.169H73.895q-1.084-21.589-1.873-43.169Zm4.4-4.552H67.3q.919,26.129,2.267,52.275h52.289q-1.349-26.143-2.266-52.275" transform="translate(24.129 19.555)" fill="#74875c"/>
            <path id="Trazado_826760" data-name="Trazado 826760" d="M271.482,72.395H123.639q-.206-4.879-.393-9.754,73.924,0,147.844,0,.187,4.879.391,9.754" transform="translate(44.188 22.459)" fill="#e0e0e0"/>
            <path id="Trazado_826761" data-name="Trazado 826761" d="M240.021,87.494H124.333q-.236-4.879-.455-9.757H239.566q.22,4.879.455,9.757" transform="translate(44.415 27.872)" fill="#e0e0e0"/>
            <path id="Trazado_826762" data-name="Trazado 826762" d="M118.33,121.335q1.367,21.6,3.027,43.2H78.187q-1.661-21.6-3.027-43.2h43.17m4.275-4.555H70.317q1.616,26.149,3.665,52.309h52.289q-2.048-26.157-3.665-52.309" transform="translate(25.211 41.87)" fill="#74875c"/>
            <path id="Trazado_826763" data-name="Trazado 826763" d="M181.445,134.646H127.132q-.334-4.881-.652-9.762h54.313q.318,4.883.652,9.762" transform="translate(45.348 44.776)" fill="#e0e0e0"/>
            <path id="Trazado_826764" data-name="Trazado 826764" d="M215.523,134.646H175.572q-.334-4.881-.653-9.762h39.952q.318,4.883.652,9.762" transform="translate(62.715 44.776)" fill="#e0e0e0"/>
            <path id="Trazado_826765" data-name="Trazado 826765" d="M257.6,149.754H128.23q-.365-4.881-.716-9.762H256.888q.351,4.881.716,9.762" transform="translate(45.719 50.193)" fill="#e0e0e0"/>
            <path id="Trazado_826766" data-name="Trazado 826766" d="M123.133,183.609q1.944,21.6,4.182,43.2H84.143q-2.235-21.6-4.179-43.2Zm4.154-4.558H75q2.317,26.159,5.065,52.315h52.289q-2.747-26.155-5.062-52.315" transform="translate(26.889 64.197)" fill="#74875c"/>
            <path id="Trazado_826767" data-name="Trazado 826767" d="M280.659,202.267H132.816q.481,4.883.975,9.762H281.636q-.5-4.881-.977-9.762" transform="translate(47.62 72.52)" fill="#e0e0e0"/>
            <path id="Trazado_826768" data-name="Trazado 826768" d="M247.065,187.158H131.376q.45,4.88.913,9.762H247.978q-.465-4.881-.913-9.762" transform="translate(47.103 67.103)" fill="#e0e0e0"/>
            <path id="Trazado_826769" data-name="Trazado 826769" d="M129.6,245.877q2.519,21.595,5.334,43.182H91.763q-2.816-21.588-5.335-43.182H129.6m4.031-4.555H81.34q3.014,26.151,6.46,52.291h52.289q-3.446-26.139-6.458-52.291" transform="translate(29.164 86.523)" fill="#74875c"/>
            <path id="Trazado_826770" data-name="Trazado 826770" d="M286.955,259.186H139.112q-.6-4.878-1.175-9.76H285.781q.579,4.881,1.174,9.76" transform="translate(49.456 89.429)" fill="#e0e0e0"/>
            <path id="Trazado_826771" data-name="Trazado 826771" d="M208.317,274.286h-67.3q-.628-4.876-1.238-9.758h67.3q.609,4.878,1.236,9.758" transform="translate(50.116 94.843)" fill="#e0e0e0"/>
            <path id="Trazado_826772" data-name="Trazado 826772" d="M227.811,274.286H198.749q-.626-4.876-1.236-9.758h29.062q.611,4.878,1.236,9.758" transform="translate(70.816 94.843)" fill="#e0e0e0"/>
            <path id="Trazado_826773" data-name="Trazado 826773" d="M93.146,94.713q-.958-1.526-1.914-3.05c-4.176-6.651-12.719-12.6-15.657-14.327l2.189-3.9A61.622,61.622,0,0,1,93.073,86.575c6.575-8.962,16.29-18.2,29.605-28.158q1.406,1.838,2.818,3.679C111.28,72.729,101.334,82.477,95.062,91.847q-.958,1.435-1.916,2.867" transform="translate(27.097 20.945)" fill="#74875c"/>
            <path id="Trazado_826774" data-name="Trazado 826774" d="M97.1,156.978q-1-1.526-2-3.051c-4.35-6.657-13.053-12.606-16.04-14.335q1.041-1.95,2.084-3.9a64.094,64.094,0,0,1,15.661,13.144c6.334-8.968,15.8-18.208,28.851-28.177l2.917,3.683c-13.928,10.652-23.621,20.389-29.638,29.77q-.921,1.435-1.839,2.868" transform="translate(28.349 43.26)" fill="#74875c"/>
            <path id="Trazado_826775" data-name="Trazado 826775" d="M102.74,219.4q-1.037-1.524-2.077-3.051c-4.528-6.654-13.392-12.6-16.425-14.337q.988-1.948,1.981-3.9a66.774,66.774,0,0,1,16.013,13.147c6.1-8.966,15.316-18.213,28.1-28.182q1.506,1.842,3.016,3.683c-13.644,10.651-23.075,20.4-28.842,29.772q-.88,1.435-1.762,2.868" transform="translate(30.203 65.641)" fill="#74875c"/>
            <path id="Trazado_826776" data-name="Trazado 826776" d="M238.222,310.822c-8.017,0-12.637-2.963-16.71-5.571-3.894-2.5-7.571-4.853-14.341-4.857s-9.787,2.358-12.973,4.857c-3.333,2.608-7.109,5.577-15.121,5.571s-12.639-2.963-16.706-5.571c-3.9-2.5-7.566-4.853-14.341-4.857s-9.784,2.358-12.97,4.857c-3.331,2.608-7.105,5.577-15.116,5.571s-12.632-2.963-16.706-5.571c-3.9-2.5-7.571-4.853-14.339-4.857q-.277-1.954-.546-3.911c8.011,0,12.621,2.958,16.691,5.573,3.891,2.493,7.571,4.859,14.342,4.855s9.777-2.361,12.967-4.855c3.335-2.611,7.116-5.571,15.13-5.573s12.617,2.958,16.692,5.573c3.888,2.493,7.574,4.859,14.343,4.855s9.779-2.361,12.97-4.855c3.332-2.611,7.12-5.571,15.134-5.573s12.622,2.958,16.692,5.573c3.891,2.493,7.571,4.859,14.346,4.855q.277,1.956.56,3.911" transform="translate(31.678 106.301)" fill="#ebebeb"/>
            <path id="Trazado_826777" data-name="Trazado 826777" d="M247.529,38.917c-4.582-12.175-15.194-20.248-26.615-20.248h-23.25a8.845,8.845,0,0,1-8.087-5.373A21.7,21.7,0,0,0,169.786,0a19.247,19.247,0,0,0-18.5,13.3,7.852,7.852,0,0,1-7.568,5.373h-23.25c-11.421,0-21.252,8.072-24.657,20.248l-1.361,4.862H249.36Z" transform="translate(33.863)" fill="#263238"/>
            <path id="Trazado_826778" data-name="Trazado 826778" d="M249.3,38.26H96.839a5.078,5.078,0,0,1-5-4.774,4.519,4.519,0,0,1,4.543-4.775H248.842a5.079,5.079,0,0,1,5,4.775A4.518,4.518,0,0,1,249.3,38.26" transform="translate(32.924 10.294)" fill="#9ab47b"/>
          </g>
        </g>
        <path id="Trazado_826780" data-name="Trazado 826780" d="M311.346,337.9h-9.954l-.99-23.05h9.953Z" transform="translate(107.705 112.884)" fill="#ffc3bd"/>
        <path id="Trazado_826781" data-name="Trazado 826781" d="M356.4,337.9h-9.954l-5-23.05h9.953Z" transform="translate(122.419 112.884)" fill="#ffc3bd"/>
        <g id="Grupo_1076137" data-name="Grupo 1076137">
          <g id="Grupo_1076136" data-name="Grupo 1076136" clip-path="url(#clip-path-2)">
            <path id="Trazado_826782" data-name="Trazado 826782" d="M348.7,330.964h11.182a.868.868,0,0,1,.848.679l1.966,8.848a1.464,1.464,0,0,1-1.456,1.77c-3.9-.068-5.8-.3-10.719-.3-3.025,0-9.258.314-13.436.314-4.086,0-4.724-4.131-3.013-4.5,7.669-1.678,10.557-3.991,13.013-6.2a2.42,2.42,0,0,1,1.615-.611" transform="translate(119.458 118.663)" fill="#263238"/>
            <path id="Trazado_826783" data-name="Trazado 826783" d="M307.524,330.964h10.87a.868.868,0,0,1,.848.679l1.966,8.848a1.447,1.447,0,0,1-1.432,1.77c-3.921-.067-9.587-.3-14.515-.3-5.763,0-10.741.314-17.5.314-4.086,0-5.221-4.131-3.51-4.5,7.787-1.7,14.145-1.886,20.874-6.035a4.607,4.607,0,0,1,2.4-.776" transform="translate(101.64 118.663)" fill="#263238"/>
            <path id="Trazado_826784" data-name="Trazado 826784" d="M321.1,64.5c-1.428,7.282-2.137,16.307,2.958,21.166,0,0-2.926,7.386-16.456,7.386-12.364,0-6.175-7.386-6.175-7.386,8.12-1.939,7.7-11.98,6.282-17.638Z" transform="translate(107.517 23.127)" fill="#ffc3bd"/>
            <path id="Trazado_826785" data-name="Trazado 826785" d="M298.2,82.479c.283-1.811,3.453-3.906,7.075-4.7s17.491-2.547,21.737-.793-.735,6.95-.735,6.95Z" transform="translate(106.915 27.333)" fill="#d0adea"/>
            <g id="Grupo_1076111" data-name="Grupo 1076111" transform="translate(408.109 427.736)" opacity="0.2">
              <g id="Grupo_1076110" data-name="Grupo 1076110">
                <g id="Grupo_1076109" data-name="Grupo 1076109" clip-path="url(#clip-path-9)">
                  <path id="Trazado_826787" data-name="Trazado 826787" d="M300.4,314.85l.509,11.882h9.958l-.509-11.882Z" transform="translate(-300.403 -314.85)"/>
                </g>
              </g>
            </g>
            <g id="Grupo_1076114" data-name="Grupo 1076114" transform="translate(463.857 427.736)" opacity="0.2">
              <g id="Grupo_1076113" data-name="Grupo 1076113">
                <g id="Grupo_1076112" data-name="Grupo 1076112" clip-path="url(#clip-path-10)">
                  <path id="Trazado_826788" data-name="Trazado 826788" d="M351.4,314.85h-9.958l2.584,11.882h9.958Z" transform="translate(-341.438 -314.85)"/>
                </g>
              </g>
            </g>
            <path id="Trazado_826789" data-name="Trazado 826789" d="M336.057,86.683l-11.993,8.041s17.228,30.628,15.781,35.537c-1.968,6.681-4.714,21.3-8.449,28.709.486,1.6,2.971,5.253,4.357,5.888,9.485-7.236,19.123-29.911,18.76-36.234-.825-14.414-18.456-41.941-18.456-41.941" transform="translate(116.189 31.079)" fill="#ffc3bd"/>
            <path id="Trazado_826790" data-name="Trazado 826790" d="M331.96,140.086l-9.468-.734,4.982,10.477s8.3.367,9.685-5.976Z" transform="translate(115.626 49.963)" fill="#b55b52"/>
            <path id="Trazado_826791" data-name="Trazado 826791" d="M416.1,204.142l-.8,1.5-5.384,10.178L218.933,114.837l6.17-11.677Z" transform="translate(78.496 36.987)" fill="#ffae7e"/>
            <path id="Trazado_826792" data-name="Trazado 826792" d="M425.19,186.975l-3.944,7.453-2.229,4.206L228.024,97.652l6.169-11.678Z" transform="translate(81.755 30.825)" fill="#ffae7e"/>
            <rect id="Rectángulo_379770" data-name="Rectángulo 379770" width="13.206" height="216.044" transform="translate(303.634 140.083) rotate(-62.093)" fill="#cc8b64"/>
            <path id="Trazado_826793" data-name="Trazado 826793" d="M214.339,87.52l-5.556,10.508,13.786,22.978,18.522-35.029Z" transform="translate(74.857 30.826)" fill="#ffe3d2"/>
            <path id="Trazado_826795" data-name="Trazado 826795" d="M204.434,87.774l5.908,9.848L215.9,87.113Z" transform="translate(73.297 31.234)" fill="#74875c"/>
            <path id="Trazado_826796" data-name="Trazado 826796" d="M316.827,144.123l4.976,9.268,7.7-3.562-4.982-10.477Z" transform="translate(113.595 49.963)" fill="#b55b52"/>
            <path id="Trazado_826797" data-name="Trazado 826797" d="M334.482,81.787c9.417,1.369,20.2,34,20.2,34l-19.779,11.171S326.195,111.44,321.9,99.915c-4.5-12.076,2.482-19.6,12.583-18.128" transform="translate(114.913 29.258)" fill="#99684b"/>
            <g id="Grupo_1076123" data-name="Grupo 1076123" transform="translate(441.615 121.648)" opacity="0.2">
              <g id="Grupo_1076122" data-name="Grupo 1076122">
                <g id="Grupo_1076121" data-name="Grupo 1076121" clip-path="url(#clip-path-11)">
                  <path id="Trazado_826798" data-name="Trazado 826798" d="M327.369,90.124c-4.279-3.913-1.657,12.838.38,23.557,1.046,2.092,2.038,3.994,2.88,5.584,4.768-8.423,2.636-23.747-3.26-29.141" transform="translate(-325.066 -89.543)"/>
                </g>
              </g>
            </g>
            <path id="Trazado_826799" data-name="Trazado 826799" d="M291.172,82.934s-11.747,30.058-.59,86.034h53.238c.367-8.173-4.767-48.039,3.115-86.547a138.822,138.822,0,0,0-17.823-2.25c-6.8-.327-16.65-.545-22.63,0a99.931,99.931,0,0,0-15.311,2.763" transform="translate(102.46 28.625)" fill="#99684b"/>
            <path id="Trazado_826800" data-name="Trazado 826800" d="M312.829,93.8,299.4,88.488s-15.455,31.559-20.318,33.152c-6.617,2.17-20.211,8.195-28.436,9.325-1.039,1.306-2.641,5.426-2.377,6.927,11.34,3.707,35.482-1.215,40.483-5.1,11.4-8.855,24.075-38.989,24.075-38.989" transform="translate(89.005 31.726)" fill="#ffc3bd"/>
            <g id="Grupo_1076126" data-name="Grupo 1076126" transform="translate(388.234 115.305)" opacity="0.2">
              <g id="Grupo_1076125" data-name="Grupo 1076125">
                <g id="Grupo_1076124" data-name="Grupo 1076124" clip-path="url(#clip-path-12)">
                  <path id="Trazado_826801" data-name="Trazado 826801" d="M300.877,91.513c-2.214-5.108-6.453-7.241-10.923-6.494-1.712,6.263-4.605,20.025-4.13,40.743l3.165,1.522s15.678-27.035,11.887-35.77" transform="translate(-285.773 -84.874)"/>
                </g>
              </g>
            </g>
            <path id="Trazado_826802" data-name="Trazado 826802" d="M307.3,89c3.354,8.905-13.64,35.13-13.64,35.13l-19.907-10.811s4.641-13.08,11.5-23.3C292.3,79.528,303.619,79.231,307.3,89" transform="translate(98.151 29.366)" fill="#99684b"/>
            <path id="Trazado_826803" data-name="Trazado 826803" d="M253.464,119.734,241.607,122.3l6.009,10.963s3.652-1.492,8.894-6.488Z" transform="translate(86.625 42.929)" fill="#ffc3bd"/>
            <path id="Trazado_826804" data-name="Trazado 826804" d="M237.494,124.054l4.728,6.545,6.869,1.986-6.01-10.963Z" transform="translate(85.151 43.606)" fill="#ffc3bd"/>
            <path id="Trazado_826805" data-name="Trazado 826805" d="M299.426,57.191c-.046.8-.508,1.426-1.032,1.4s-.912-.705-.865-1.507.509-1.426,1.032-1.4.912.705.865,1.507" transform="translate(106.674 19.965)" fill="#263238"/>
            <path id="Trazado_826806" data-name="Trazado 826806" d="M300.559,56.84s-2.089,4.518-4.224,6.634c1.341,1.406,3.788.94,3.788.94Z" transform="translate(106.248 20.379)" fill="#ed847e"/>
            <path id="Trazado_826807" data-name="Trazado 826807" d="M298.277,55.526a.456.456,0,0,1-.2-.072.473.473,0,0,1-.14-.652,4.681,4.681,0,0,1,3.683-2.227.472.472,0,0,1,.005.944,3.738,3.738,0,0,0-2.9,1.795.472.472,0,0,1-.451.212" transform="translate(106.795 18.85)" fill="#263238"/>
            <path id="Trazado_826808" data-name="Trazado 826808" d="M326.374,60.3c-1.172,9.809-1.36,15.61-6.623,20.375-7.916,7.169-19.808,1.96-21.59-8-1.6-8.966.583-23.5,10.444-26.862A13.474,13.474,0,0,1,326.374,60.3" transform="translate(106.731 16.153)" fill="#ffc3bd"/>
            <path id="Trazado_826809" data-name="Trazado 826809" d="M308.876,64.067c-3.436.679-8.923-6.952-4.449-13.435-2.267-1.132-9.665,3.322-12.456-.83s4.942-6.377,3.471-9.887c5.247,1.076-3.4,7.62,1.585,6.98s10.735-9.856,16.358-6.074c9.849,6.623,23.265-4.415,17.79,9.4,6.717-1.359,11.306,6.585,4.91,12.075-12.75,10.946-4.91,12.379-12.982,12.944-4.107.288-13.515-4.566-14.227-11.17" transform="translate(104.462 14.31)" fill="#263238"/>
            <path id="Trazado_826810" data-name="Trazado 826810" d="M310.257,61.022a8.293,8.293,0,0,1-4.743,4.2c-2.757.928-4.286-1.5-3.646-4.182.575-2.413,2.7-5.8,5.531-5.569,2.786.231,4.016,3.122,2.858,5.551" transform="translate(108.179 19.884)" fill="#ffc3bd"/>
            <path id="Trazado_826811" data-name="Trazado 826811" d="M303.215,145.445s11.295,76.067,17.5,104.565c6.79,31.207,32.377,135.16,32.377,135.16h18.229s-16.87-101.433-20.745-132.331c-4.206-33.534-13.005-107.394-13.005-107.394Z" transform="translate(108.714 52.148)" fill="#60119b"/>
            <g id="Grupo_1076132" data-name="Grupo 1076132" transform="translate(418.131 222.741)" opacity="0.2">
              <g id="Grupo_1076131" data-name="Grupo 1076131">
                <g id="Grupo_1076130" data-name="Grupo 1076130" clip-path="url(#clip-path-13)">
                  <path id="Trazado_826813" data-name="Trazado 826813" d="M314.994,165.4c-.838-1.191-1.609-1.6-2.315-1.4a1.447,1.447,0,0,0-.145.053,1.751,1.751,0,0,0-.447.266,2.9,2.9,0,0,0-.39.4c-.072.086-.144.177-.216.278-.1.137-.2.287-.291.448a10.54,10.54,0,0,0-.611,1.239c-.106.251-.209.52-.311.8-.122.337-.242.691-.359,1.066q-.232.75-.45,1.589c-.038.145-.075.292-.111.439-.076.307-.151.618-.224.937-.06.266-.12.535-.179.811-.115.538-.227,1.091-.336,1.663q-.173.909-.334,1.865c-.038.221-.076.447-.113.673q-.2,1.225-.382,2.5v.005c3.016,18.935,6.6,40.642,9.551,55.788.144-.49.281-1.011.416-1.556a71.5,71.5,0,0,0,1.363-7.674c2.519-19.528,1.33-52.408-4.115-60.191" transform="translate(-307.78 -163.956)"/>
                </g>
              </g>
            </g>
            <path id="Trazado_826814" data-name="Trazado 826814" d="M289.5,145.445s-1.371,74.421-.288,104.775c1.126,31.573,12.153,134.951,12.153,134.951h16.862s.618-101.533,1.369-132.54c.818-33.8,4.9-107.185,4.9-107.185Z" transform="translate(103.544 52.148)" fill="#60119b"/>
            <path id="Trazado_826816" data-name="Trazado 826816" d="M316.623,318.279c.077,0,0,5.51,0,5.51H297.188l-.818-6.189Z" transform="translate(106.26 113.872)" fill="#263238"/>
            <path id="Trazado_826817" data-name="Trazado 826817" d="M358.862,318.6c.077,0,.909,5.095.909,5.095H339.732l-1.774-5.85Z" transform="translate(121.171 113.961)" fill="#263238"/>
            <path id="Trazado_826818" data-name="Trazado 826818" d="M342.814,332.91a3.019,3.019,0,0,1-1.917-.507,1.419,1.419,0,0,1-.488-1.247.749.749,0,0,1,.4-.667c1.09-.564,4.311,1.407,4.675,1.634a.236.236,0,0,1-.069.429,11.727,11.727,0,0,1-2.6.357m-1.48-2.059a.689.689,0,0,0-.306.058.289.289,0,0,0-.148.277.959.959,0,0,0,.319.856c.543.459,1.844.519,3.534.179a9.516,9.516,0,0,0-3.4-1.371" transform="translate(122.048 118.457)" fill="#407bff"/>
            <path id="Trazado_826819" data-name="Trazado 826819" d="M344.829,333.175a.229.229,0,0,1-.111-.027c-1.031-.56-3.021-2.74-2.811-3.851a.766.766,0,0,1,.75-.617,1.284,1.284,0,0,1,1,.3c1.157.946,1.394,3.819,1.4,3.94a.235.235,0,0,1-.235.254m-2.008-4.035c-.035,0-.071,0-.107.007-.306.038-.333.179-.344.238-.125.656,1.144,2.3,2.167,3.081-.115-.839-.433-2.513-1.174-3.119a.837.837,0,0,0-.542-.207" transform="translate(122.581 117.84)" fill="#407bff"/>
            <path id="Trazado_826820" data-name="Trazado 826820" d="M298.888,332.911a3.775,3.775,0,0,1-2.418-.611,1.323,1.323,0,0,1-.441-1.148.749.749,0,0,1,.388-.626c1.208-.679,5.21,1.354,5.662,1.588a.236.236,0,0,1-.062.442,16.851,16.851,0,0,1-3.129.356m-1.8-2.061a.918.918,0,0,0-.44.087.283.283,0,0,0-.148.251.865.865,0,0,0,.284.759c.613.543,2.251.636,4.448.27a13.017,13.017,0,0,0-4.144-1.368" transform="translate(106.136 118.457)" fill="#407bff"/>
            <path id="Trazado_826821" data-name="Trazado 826821" d="M301.326,333.176a.242.242,0,0,1-.1-.02c-1.2-.539-3.581-2.69-3.4-3.817.043-.264.231-.592.878-.658a1.7,1.7,0,0,1,1.308.4c1.266,1.041,1.534,3.72,1.545,3.835a.235.235,0,0,1-.235.257m-2.428-4.035c-.046,0-.094,0-.141.007-.425.045-.452.211-.461.266-.109.675,1.508,2.367,2.733,3.1a5.529,5.529,0,0,0-1.312-3.069,1.261,1.261,0,0,0-.819-.307" transform="translate(106.78 117.84)" fill="#407bff"/>
          </g>
        </g>
      </g>
    </g>
  </g>
</svg>
