<svg xmlns="http://www.w3.org/2000/svg" xmlns:xlink="http://www.w3.org/1999/xlink" width="400" height="472" viewBox="0 0 400 472">
  <defs>
    <clipPath id="clip-path">
      <rect id="Rectángulo_379824" data-name="Rectángulo 379824" width="400" height="472" transform="translate(180 4764)" fill="#fff" stroke="#707070" stroke-width="1"/>
    </clipPath>
    <clipPath id="clip-path-2">
      <rect id="Rectángulo_379823" data-name="Rectángulo 379823" width="445.874" height="471.661" fill="none"/>
    </clipPath>
    <clipPath id="clip-path-7">
      <rect id="Rectángulo_379805" data-name="Rectángulo 379805" width="273.948" height="391.439" fill="none"/>
    </clipPath>
    <clipPath id="clip-path-8">
      <rect id="Rectángulo_379807" data-name="Rectángulo 379807" width="8.552" height="391.439" fill="none"/>
    </clipPath>
    <clipPath id="clip-path-10">
      <rect id="Rectángulo_379809" data-name="Rectángulo 379809" width="33.954" height="405.917" fill="none"/>
    </clipPath>
    <clipPath id="clip-path-11">
      <rect id="Rectángulo_379811" data-name="Rectángulo 379811" width="109.673" height="105.511" fill="none"/>
    </clipPath>
    <clipPath id="clip-path-12">
      <rect id="Rectángulo_379813" data-name="Rectángulo 379813" width="30.321" height="29.137" fill="none"/>
    </clipPath>
    <clipPath id="clip-path-13">
      <rect id="Rectángulo_379814" data-name="Rectángulo 379814" width="51.602" height="51.603" fill="none"/>
    </clipPath>
    <clipPath id="clip-path-14">
      <rect id="Rectángulo_379815" data-name="Rectángulo 379815" width="35.265" height="35.265" fill="none"/>
    </clipPath>
    <clipPath id="clip-path-15">
      <rect id="Rectángulo_379816" data-name="Rectángulo 379816" width="21.54" height="21.54" fill="none"/>
    </clipPath>
    <clipPath id="clip-path-18">
      <rect id="Rectángulo_379819" data-name="Rectángulo 379819" width="23.977" height="28.882" fill="none"/>
    </clipPath>
    <clipPath id="clip-path-19">
      <rect id="Rectángulo_379820" data-name="Rectángulo 379820" width="55.905" height="58.077" fill="none"/>
    </clipPath>
    <clipPath id="clip-path-20">
      <rect id="Rectángulo_379821" data-name="Rectángulo 379821" width="34.045" height="55.263" fill="none"/>
    </clipPath>
  </defs>
  <g id="Enmascarar_grupo_406" data-name="Enmascarar grupo 406" transform="translate(-180 -4764)" clip-path="url(#clip-path)">
    <g id="Grupo_1076203" data-name="Grupo 1076203" transform="translate(134.126 4764)">
      <g id="Grupo_1076202" data-name="Grupo 1076202" clip-path="url(#clip-path-2)">
        <g id="Grupo_1076156" data-name="Grupo 1076156">
          <g id="Grupo_1076155" data-name="Grupo 1076155" clip-path="url(#clip-path-2)">
            <path id="Trazado_826834" data-name="Trazado 826834" d="M366.677,20.053c8.393-.158,20.619-.488,28.9-.487l.484,0,0,.49.059,12.214,0,.548-.548,0c-8.651-.04-20.676-.082-29.206-.251.022-3.7.236-8.772.3-12.508m0,0c.108,3.574.222,8.71.3,12.214l-.3-.3c8.358-.152,20.422-.225,28.9-.247l-.546.545.059-12.214.487.487c-8.172-.02-20.621-.317-28.9-.487" transform="translate(33.528 1.79)" fill="#ebebeb"/>
            <path id="Trazado_826835" data-name="Trazado 826835" d="M32.2,228.14c8.393-.158,20.619-.488,28.9-.487l.484,0,0,.49.059,12.214,0,.548-.548,0c-8.651-.04-20.677-.082-29.206-.251.022-3.7.236-8.772.3-12.508m0,0c.108,3.574.222,8.71.3,12.214l-.3-.3c8.358-.152,20.422-.225,28.9-.247l-.546.545.059-12.214.487.487c-8.172-.02-20.621-.317-28.9-.487" transform="translate(2.919 20.833)" fill="#ebebeb"/>
            <path id="Trazado_826836" data-name="Trazado 826836" d="M381.449,5.943c8.393-.157,20.619-.487,28.9-.486l.485,0,0,.489.059,12.214,0,.549-.547,0c-8.652-.04-20.676-.082-29.2-.251.021-3.7.235-8.772.3-12.509m0,0c.108,3.575.222,8.711.3,12.214l-.3-.3c8.358-.152,20.422-.225,28.9-.249l-.546.546.059-12.214.487.488c-8.172-.02-20.621-.317-28.9-.488" transform="translate(34.88 0.499)" fill="#ebebeb"/>
            <path id="Trazado_826837" data-name="Trazado 826837" d="M296.164,173.736c8.393-.157,20.619-.487,28.9-.486l.485,0,0,.489.059,12.214,0,.548-.548,0c-8.651-.04-20.675-.082-29.2-.252.022-3.7.236-8.771.3-12.508m0,0c.108,3.574.222,8.711.3,12.214l-.3-.3c8.358-.153,20.422-.225,28.9-.249l-.546.546.059-12.214.486.488c-8.171-.02-20.62-.317-28.9-.488" transform="translate(27.075 15.854)" fill="#ebebeb"/>
            <path id="Trazado_826838" data-name="Trazado 826838" d="M310.935,159.627c8.393-.158,20.619-.488,28.9-.487l.485,0,0,.49.059,12.214,0,.548-.548,0c-8.651-.04-20.675-.082-29.2-.251.022-3.7.236-8.772.3-12.508m0,0c.108,3.574.222,8.71.3,12.214l-.3-.3c8.358-.152,20.422-.225,28.9-.248l-.546.546.059-12.214.486.487c-8.171-.02-20.62-.317-28.9-.487" transform="translate(28.427 14.563)" fill="#ebebeb"/>
            <path id="Trazado_826839" data-name="Trazado 826839" d="M325.649,173.736c8.393-.157,20.619-.487,28.9-.486l.485,0,0,.489.059,12.214,0,.548-.548,0c-8.651-.04-20.675-.082-29.2-.252.022-3.7.236-8.771.3-12.508m0,0c.108,3.574.222,8.711.3,12.214l-.3-.3c8.358-.153,20.422-.225,28.9-.249l-.546.546.059-12.214.486.488c-8.171-.02-20.62-.317-28.9-.488" transform="translate(29.773 15.854)" fill="#ebebeb"/>
            <path id="Trazado_826840" data-name="Trazado 826840" d="M.612,5.943c8.393-.157,20.619-.487,28.9-.486l.485,0,0,.489.059,12.214,0,.549-.548,0c-8.651-.04-20.675-.082-29.2-.251.022-3.7.236-8.772.3-12.509m0,0c.108,3.575.222,8.711.3,12.214l-.3-.3c8.358-.152,20.422-.225,28.9-.249l-.546.546L29.03,5.943l.486.488c-8.171-.02-20.62-.317-28.9-.488" transform="translate(0.028 0.499)" fill="#ebebeb"/>
            <path id="Trazado_826841" data-name="Trazado 826841" d="M15.384,309.054c8.393-.158,20.619-.488,28.9-.487l.485,0,0,.49.059,12.214,0,.548-.548,0c-8.651-.04-20.675-.082-29.2-.251.022-3.7.236-8.772.3-12.508m0,0c.108,3.574.222,8.71.3,12.214l-.3-.3c8.358-.152,20.422-.225,28.9-.248l-.546.546.059-12.214.486.487c-8.171-.02-20.62-.317-28.9-.487" transform="translate(1.38 28.237)" fill="#ebebeb"/>
            <path id="Trazado_826842" data-name="Trazado 826842" d="M.612,294.945c8.393-.158,20.619-.488,28.9-.487l.485,0,0,.49.059,12.214,0,.548-.548,0c-8.651-.04-20.675-.082-29.2-.251.022-3.7.236-8.772.3-12.508m0,0c.108,3.574.222,8.71.3,12.214l-.3-.3c8.358-.152,20.422-.225,28.9-.248l-.546.546.059-12.214.486.487c-8.171-.02-20.62-.317-28.9-.487" transform="translate(0.028 26.946)" fill="#ebebeb"/>
            <path id="Trazado_826843" data-name="Trazado 826843" d="M366.677,309.054c8.393-.158,20.619-.488,28.9-.487l.484,0,0,.49.059,12.214,0,.548-.548,0c-8.651-.04-20.676-.082-29.206-.251.022-3.7.236-8.772.3-12.508m0,0c.108,3.574.222,8.71.3,12.214l-.3-.3c8.358-.152,20.422-.225,28.9-.247l-.546.545.059-12.214.487.487c-8.172-.02-20.621-.317-28.9-.487" transform="translate(33.528 28.237)" fill="#ebebeb"/>
            <rect id="Rectángulo_379787" data-name="Rectángulo 379787" width="61.775" height="74.932" transform="translate(313.05 0.001)" fill="#ebebeb"/>
            <rect id="Rectángulo_379788" data-name="Rectángulo 379788" width="47.658" height="61.255" transform="translate(320.109 6.839)" fill="#fff"/>
            <rect id="Rectángulo_379789" data-name="Rectángulo 379789" width="1.86" height="61.255" transform="translate(320.109 6.839)" fill="#dbdbdb"/>
            <rect id="Rectángulo_379790" data-name="Rectángulo 379790" width="1.86" height="74.932" transform="translate(374.825 0.001)" fill="#dbdbdb"/>
            <rect id="Rectángulo_379791" data-name="Rectángulo 379791" width="11.237" height="33.48" transform="translate(336.081 15.284)" fill="#dbdbdb"/>
            <rect id="Rectángulo_379792" data-name="Rectángulo 379792" width="29.964" height="16.402" transform="translate(331.177 38.081)" fill="none" stroke="#ebebeb" stroke-miterlimit="10" stroke-width="1"/>
            <rect id="Rectángulo_379793" data-name="Rectángulo 379793" width="61.775" height="74.932" transform="translate(364.639 82.934)" fill="#ebebeb"/>
            <rect id="Rectángulo_379794" data-name="Rectángulo 379794" width="47.658" height="61.255" transform="translate(371.698 89.774)" fill="#fff"/>
            <rect id="Rectángulo_379795" data-name="Rectángulo 379795" width="1.86" height="61.255" transform="translate(371.697 89.774)" fill="#dbdbdb"/>
            <rect id="Rectángulo_379796" data-name="Rectángulo 379796" width="1.86" height="74.932" transform="translate(426.413 82.934)" fill="#dbdbdb"/>
            <rect id="Rectángulo_379797" data-name="Rectángulo 379797" width="9.627" height="24.342" transform="translate(390.911 105.607)" fill="#ebebeb"/>
            <rect id="Rectángulo_379798" data-name="Rectángulo 379798" width="25.861" height="16.78" transform="translate(384.813 120.4)" fill="none" stroke="#dbdbdb" stroke-miterlimit="10" stroke-width="1"/>
          </g>
        </g>
        <g id="Grupo_1076158" data-name="Grupo 1076158">
          <g id="Grupo_1076157" data-name="Grupo 1076157" clip-path="url(#clip-path-2)">
            <path id="Trazado_826844" data-name="Trazado 826844" d="M399.853,415.464c0,8.852-71.675,16.028-160.092,16.028S79.669,424.316,79.669,415.464s71.676-16.028,160.092-16.028,160.092,7.176,160.092,16.028" transform="translate(7.291 36.553)" fill="#ebebeb"/>
          </g>
        </g>
        <g id="Grupo_1076160" data-name="Grupo 1076160">
          <g id="Grupo_1076159" data-name="Grupo 1076159" clip-path="url(#clip-path-2)">
            <path id="Trazado_826845" data-name="Trazado 826845" d="M376.676,309.042a69.476,69.476,0,0,0-2.234,12.638c.115.212.092.993-.034.78-.025.694-1.082.568-1.083-.117.011-.446.022-.894.044-1.326-2.469-3.066-6.055-5.009-8.953-7.673a16.751,16.751,0,0,1-4.907-7.809c-2.4-8.285-.151-17.064-3.042-25.326-2.492-7.125-6.963-13.319-10.746-19.775-3.993-6.826-6.94-14-7.235-22-.236-6.122.5-14.281,5.159-18.868,4.942-4.867,11.069-1.22,14.857,3.121,10.973,12.594,16.051,28.509,18.1,44.783,1.132,9.007,2.306,18.068,2.036,27.16a73.217,73.217,0,0,1-1.965,14.409" transform="translate(30.972 19.881)" fill="#74875c"/>
            <path id="Trazado_826846" data-name="Trazado 826846" d="M373.518,323.135a155.22,155.22,0,0,0-.3-25.516c.014-.031.042-.051.043-.093.138-6.9.685-13.766.415-20.671a122.792,122.792,0,0,0-3.037-22.174c-.02-.084-.151-.064-.134.022a144.5,144.5,0,0,1,2.4,21.684q.21,5.845-.093,11.69c-.068,1.267-.184,2.543-.27,3.82v-.011a136.477,136.477,0,0,0-20.52-54.3c-.144-.224-.541.015-.4.246a141.827,141.827,0,0,1,16.7,40.264c-5.276-9.777-13.247-17.817-19.16-27.21-.033-.051-.118,0-.09.055,5.311,10.459,14.088,18.706,19.682,29.01.97,4.2,1.765,8.439,2.357,12.7a142.4,142.4,0,0,1,1.273,17.649c-3.213-6.008-6.551-11.755-9.181-18.109-.07-.169-.312-.053-.255.115,2.238,6.6,5.245,13.712,9.454,19.34.023,4.177-.1,8.357-.347,12.529-.657,11.14-2.558,22.132-3.438,33.234a.256.256,0,0,0,.509.056,255.178,255.178,0,0,0,4.394-34.329" transform="translate(31.944 21.733)" fill="#263238"/>
            <path id="Trazado_826847" data-name="Trazado 826847" d="M360.642,237.251c-.034-.081-.153-.026-.123.056,2.035,5.627,3.184,11.327,4.654,17.094a.213.213,0,0,0,.42-.069c-.6-5.85-2.687-11.688-4.951-17.081" transform="translate(32.991 21.708)" fill="#263238"/>
            <path id="Trazado_826848" data-name="Trazado 826848" d="M411.335,259.383A84.928,84.928,0,0,1,406.656,269c-3.664,6.653-7.486,12.75-8.178,20.5-.309,3.459-.419,6.934-1.474,10.267a30.775,30.775,0,0,1-4.092,8.038c-3.971,5.785-8.934,10.77-12.613,16.772a70.612,70.612,0,0,0-8.382,20.21c-.092.389-.705.284-.613-.1a.351.351,0,0,0,.023-.088.133.133,0,0,1-.036-.082c-.583-16.612.742-33.354,5.809-49.269a170.414,170.414,0,0,1,8.051-20.493c2.713-5.771,6.1-11.319,10.863-15.629,3.091-2.786,9.8-8.063,14.2-5.271,2.113,1.345,1.955,3.464,1.123,5.538" transform="translate(33.966 23.157)" fill="#74875c"/>
            <path id="Trazado_826849" data-name="Trazado 826849" d="M394.991,295.853a136.161,136.161,0,0,1-9.653,13.877c-1.609,2.1-3.24,4.182-4.845,6.284-.759.994-1.609,1.983-2.305,3.05.439-1.746.867-3.5,1.312-5.241,2.143-8.393,4.2-16.859,7.4-24.93a168.129,168.129,0,0,1,11.535-22.612c.111-.192-.2-.332-.312-.145-3.51,5.773-7.073,11.538-10.024,17.624a92.76,92.76,0,0,0-4.254,10.457,161.054,161.054,0,0,1,5.664-22.342c.022-.065-.072-.114-.1-.047a76.455,76.455,0,0,0-5.878,23.24.068.068,0,0,0,.011.037c-.719,2.158-1.381,4.336-2,6.531-2.616,9.294-4.914,18.685-7.045,28.109a100.627,100.627,0,0,1,1.6-18.473c.026-.141-.184-.174-.218-.037a58.581,58.581,0,0,0-1.6,19.474q-1.208,5.375-2.354,10.76c-1.634,7.658-3.64,15.451-4.594,23.227a.156.156,0,0,0,.307.051c1.14-4.191,1.827-8.536,2.759-12.779s1.9-8.506,2.888-12.75c1.443-6.18,2.955-12.344,4.494-18.5,1.029-2.257,3.018-4.261,4.509-6.155,1.635-2.078,3.271-4.156,4.862-6.267a93.546,93.546,0,0,0,7.994-12.37c.049-.093-.095-.157-.147-.069" transform="translate(33.614 24.346)" fill="#263238"/>
            <path id="Trazado_826850" data-name="Trazado 826850" d="M394.113,286.848a86.552,86.552,0,0,0-9.447,15.012c-.033.068.072.139.115.072,3.18-4.983,6.306-10,9.479-14.991.053-.084-.086-.17-.146-.093" transform="translate(35.201 26.247)" fill="#263238"/>
            <path id="Trazado_826851" data-name="Trazado 826851" d="M328.937,274.848c2.152,3.708,4.609,8.16,3.686,12.612-.586,2.818-2.649,5.106-3.021,7.98-.834,6.346,5.489,10.539,10.065,13.537,11.407,7.483,27.051,14.157,29.125,29.44.08.541,1.015.406.947-.124a.3.3,0,0,0-.023-.1c.023-.035.057-.046.057-.091a58.55,58.55,0,0,0-.214-23.343c-1.7-7.878-5.14-14.956-9.2-21.877-6.863-11.711-14.134-23.7-24.514-32.675-2.874-2.48-8.758-6.943-11.046-1.341-2.22,5.445,1.5,11.463,4.137,15.983" transform="translate(29.661 23.442)" fill="#74875c"/>
            <path id="Trazado_826852" data-name="Trazado 826852" d="M338.111,297.391c7.562,8.187,19.586,12.777,26.1,21.948a91.824,91.824,0,0,0-20.057-37.675.3.3,0,0,1,.417-.417,74.268,74.268,0,0,1,16.39,23.738,106.1,106.1,0,0,0-7.058-18.049c-.108-.223.206-.414.334-.2a68.82,68.82,0,0,1,7.608,20.289c8.577,20.766,9.373,45.12,7.575,67.008-.026.311-.5.321-.493,0,.492-17.249.214-34.8-3.921-51.645-.086-.351-.181-.7-.271-1.048-7.082-9.873-19.053-14.448-26.752-23.822-.074-.091.049-.22.131-.131" transform="translate(30.927 25.729)" fill="#263238"/>
            <path id="Trazado_826853" data-name="Trazado 826853" d="M336.515,289.592c3.97,3.642,7.879,7.368,11.855,11.008.04.036-.013.107-.059.075a58.046,58.046,0,0,1-12.033-10.846.168.168,0,0,1,.237-.237" transform="translate(30.769 26.496)" fill="#263238"/>
            <path id="Trazado_826854" data-name="Trazado 826854" d="M335.936,275.135a124.642,124.642,0,0,0,11.878,16.339.07.07,0,0,1-.1.1,57.534,57.534,0,0,1-11.991-16.314.123.123,0,0,1,.213-.124" transform="translate(30.721 25.172)" fill="#263238"/>
            <path id="Trazado_826855" data-name="Trazado 826855" d="M352.293,384.314h34.774l-4.686-46.787H357.649Z" transform="translate(32.239 30.888)" fill="#99684b"/>
            <path id="Trazado_826856" data-name="Trazado 826856" d="M356.4,345.132h26.371l-.763-7.606H357.27Z" transform="translate(32.615 30.888)" fill="#263238"/>
            <rect id="Rectángulo_379801" data-name="Rectángulo 379801" width="32.597" height="7.47" transform="translate(385.62 363.231)" fill="#99684b"/>
          </g>
        </g>
        <path id="Trazado_826857" data-name="Trazado 826857" d="M111.468,380.075l-55.734.1L0,380.437l55.735.265,55.734.1,111.468.183,111.468-.182,55.734-.1,55.735-.267-55.735-.267-55.734-.095-111.468-.181Z" transform="translate(0 34.765)" fill="#263238"/>
        <path id="Trazado_826858" data-name="Trazado 826858" d="M303.12,397.4,46.394,414.333V26.122l256.726-13.7Z" transform="translate(4.246 1.137)" fill="#c1e29a"/>
        <rect id="Rectángulo_379803" data-name="Rectángulo 379803" width="273.949" height="391.439" transform="translate(84.593 41.737)" fill="#c1e29a"/>
        <g id="Grupo_1076168" data-name="Grupo 1076168" transform="translate(0 -25)">
          <g id="Grupo_1076167" data-name="Grupo 1076167" clip-path="url(#clip-path-2)">
            <g id="Grupo_1076163" data-name="Grupo 1076163" transform="translate(84.594 12.737)" opacity="0.2">
              <g id="Grupo_1076162" data-name="Grupo 1076162" transform="translate(0 54)">
                <g id="Grupo_1076161" data-name="Grupo 1076161" clip-path="url(#clip-path-7)">
                  <rect id="Rectángulo_379804" data-name="Rectángulo 379804" width="273.949" height="391.439" transform="translate(0)"/>
                </g>
              </g>
            </g>
            <g id="Grupo_1076166" data-name="Grupo 1076166" transform="translate(84.594 66.737)" opacity="0.1">
              <g id="Grupo_1076165" data-name="Grupo 1076165">
                <g id="Grupo_1076164" data-name="Grupo 1076164" clip-path="url(#clip-path-8)">
                  <rect id="Rectángulo_379806" data-name="Rectángulo 379806" width="8.552" height="391.439" transform="translate(0)"/>
                </g>
              </g>
            </g>
          </g>
        </g>
        <path id="Trazado_826859" data-name="Trazado 826859" d="M80.08,39.818,49.321,26.7l247.564-5.734,50.488,18.849Z" transform="translate(4.513 1.919)" fill="#fff"/>
        <path id="Trazado_826860" data-name="Trazado 826860" d="M51.5,27.621l17.1-.653,17.1-.569,34.2-1,34.206-.815,17.105-.339,17.108-.254-17.1.655-17.1.569-34.2,1-34.207.812L68.6,27.366Z" transform="translate(4.713 2.195)" fill="#ebebeb"/>
        <path id="Trazado_826861" data-name="Trazado 826861" d="M66.044,29.256,95.807,28.4l29.766-.73,59.53-1.455,59.536-1.181,29.769-.587,29.771-.458-29.762.859-29.765.731-59.53,1.453-59.536,1.181L95.815,28.8Z" transform="translate(6.044 2.195)" fill="#ebebeb"/>
        <g id="Grupo_1076188" data-name="Grupo 1076188">
          <g id="Grupo_1076187" data-name="Grupo 1076187" clip-path="url(#clip-path-2)">
            <path id="Trazado_826862" data-name="Trazado 826862" d="M65.456,33.134c11.114-.393,22.23-.666,33.346-.92l33.35-.63,33.353-.378,16.678-.1,16.679.015-16.672.52-16.674.4-33.349.629-33.354.374c-11.118.081-22.237.143-33.358.085" transform="translate(5.99 2.847)" fill="#ebebeb"/>
            <path id="Trazado_826863" data-name="Trazado 826863" d="M70.939,36.083l21.8-.423,21.8-.312,43.6-.444,43.6-.192,21.8-.005,21.8.108-21.8.426-21.8.311-43.6.443-43.6.19-21.8.007Z" transform="translate(6.492 3.176)" fill="#ebebeb"/>
            <path id="Trazado_826864" data-name="Trazado 826864" d="M204.055,32.161c9.652-.225,19.3-.331,28.956-.418l28.957-.127,28.956.124,14.478.153,14.478.267-14.478.267-14.478.153-28.956.124-28.957-.127c-9.651-.087-19.3-.193-28.956-.418" transform="translate(18.673 2.893)" fill="#ebebeb"/>
            <path id="Trazado_826865" data-name="Trazado 826865" d="M196.259,28.373c8.668-.361,17.336-.6,26.006-.825l26.01-.534,26.015-.282,13.009-.051,13.011.063-13,.472-13,.356-26.011.533-26.014.279c-8.672.048-17.345.079-26.019-.011" transform="translate(17.96 2.442)" fill="#ebebeb"/>
            <path id="Trazado_826866" data-name="Trazado 826866" d="M276.13,20.969c4.286,1.36,8.53,2.832,12.768,4.321s8.443,3.065,12.666,4.593c4.193,1.611,8.4,3.177,12.577,4.83l6.258,2.5c2.073.87,4.158,1.706,6.218,2.607-2.147-.669-4.27-1.4-6.4-2.106L313.848,35.5c-4.237-1.489-8.443-3.064-12.665-4.594-4.191-1.614-8.4-3.177-12.578-4.832s-8.348-3.323-12.476-5.1" transform="translate(25.269 1.919)" fill="#ebebeb"/>
            <path id="Trazado_826867" data-name="Trazado 826867" d="M46.394,413.183l33.954,17.708V39.452L46.394,24.974Z" transform="translate(4.246 2.285)" fill="#c1e29a"/>
            <g id="Grupo_1076171" data-name="Grupo 1076171" transform="translate(25.64 27.26)" opacity="0.4">
              <g id="Grupo_1076170" data-name="Grupo 1076170" transform="translate(25)">
                <g id="Grupo_1076169" data-name="Grupo 1076169" clip-path="url(#clip-path-10)">
                  <path id="Trazado_826868" data-name="Trazado 826868" d="M46.394,413.183l33.954,17.708V39.452L46.394,24.974Z" transform="translate(-46.394 -24.974)"/>
                </g>
              </g>
            </g>
            <path id="Trazado_826869" data-name="Trazado 826869" d="M162.48,103.333v22.376a2.139,2.139,0,0,1-2.124,2.087,2.08,2.08,0,0,1-2.086-2.087V109.742l-5.461,7.585a2.069,2.069,0,0,1-1.707.873h-.075a2.139,2.139,0,0,1-1.745-.873l-5.424-7.585v15.967a2.105,2.105,0,0,1-4.21,0V103.333a2.105,2.105,0,0,1,2.087-2.086h.114a2.05,2.05,0,0,1,1.668.872l7.548,10.468,7.548-10.468a2.069,2.069,0,0,1,1.706-.872h.038a2.165,2.165,0,0,1,2.124,2.086" transform="translate(12.779 9.265)" fill="#fff"/>
            <path id="Trazado_826870" data-name="Trazado 826870" d="M180.384,121.534h-9.216l-1.858,4.93a2.128,2.128,0,0,1-1.972,1.327,2.186,2.186,0,0,1-.72-.114,2.151,2.151,0,0,1-1.252-2.73l8.382-22.339a2.123,2.123,0,0,1,2.011-1.328,2.087,2.087,0,0,1,2.009,1.328l8.382,22.339a2.151,2.151,0,0,1-1.252,2.73,2.124,2.124,0,0,1-2.655-1.214Zm-1.554-4.172-3.072-8.154-3.073,8.154Z" transform="translate(15.122 9.268)" fill="#fff"/>
            <path id="Trazado_826871" data-name="Trazado 826871" d="M193.323,125.688a2.067,2.067,0,1,1-4.135,0V103.614a2.054,2.054,0,0,1,.835-1.744,2.09,2.09,0,0,1,2.883.455l12.25,16.953V103.652A2.064,2.064,0,0,1,207.2,101.6a2.1,2.1,0,0,1,2.086,2.048v22.035a2.1,2.1,0,0,1-2.086,2.086,2.054,2.054,0,0,1-1.554-.759.976.976,0,0,1-.19-.227l-12.137-16.84Z" transform="translate(17.313 9.287)" fill="#fff"/>
            <path id="Trazado_826872" data-name="Trazado 826872" d="M225.2,127.8a10.941,10.941,0,0,1-10.961-10.961v-13.5a2.056,2.056,0,0,1,2.086-2.086,2.113,2.113,0,0,1,2.124,2.086v13.5a6.75,6.75,0,1,0,13.5,0v-13.5a2.089,2.089,0,0,1,2.124-2.086,2.056,2.056,0,0,1,2.086,2.086v13.5A10.966,10.966,0,0,1,225.2,127.8" transform="translate(19.605 9.265)" fill="#fff"/>
            <path id="Trazado_826873" data-name="Trazado 826873" d="M254.417,121.534H245.2l-1.858,4.93a2.127,2.127,0,0,1-1.972,1.327,2.184,2.184,0,0,1-.719-.114,2.151,2.151,0,0,1-1.253-2.73l8.382-22.339a2.125,2.125,0,0,1,2.011-1.328,2.088,2.088,0,0,1,2.011,1.328l8.382,22.339a2.151,2.151,0,0,1-1.252,2.73,2.124,2.124,0,0,1-2.655-1.214Zm-1.554-4.172-3.073-8.154-3.072,8.154Z" transform="translate(21.897 9.268)" fill="#fff"/>
            <path id="Trazado_826874" data-name="Trazado 826874" d="M263.186,125.71V103.334a2.079,2.079,0,0,1,2.085-2.086,2.112,2.112,0,0,1,2.124,2.086v20.253h10.279a2.1,2.1,0,0,1,0,4.209h-12.4a2.079,2.079,0,0,1-2.085-2.086" transform="translate(24.085 9.265)" fill="#fff"/>
            <rect id="Rectángulo_379810" data-name="Rectángulo 379810" width="151.417" height="2.181" transform="translate(152.427 145.273)" fill="#fff"/>
            <g id="Grupo_1076174" data-name="Grupo 1076174" transform="translate(166.732 184.701)" opacity="0.1">
              <g id="Grupo_1076173" data-name="Grupo 1076173">
                <g id="Grupo_1076172" data-name="Grupo 1076172" clip-path="url(#clip-path-11)">
                  <path id="Trazado_826875" data-name="Trazado 826875" d="M256.855,199.867a17.731,17.731,0,0,1-18.3,3.746l-51.077,48.213a17.735,17.735,0,0,1-23.1,21.808l10.559-9.968-3.379-7.674-7.471-3.821-10.57,9.979a17.761,17.761,0,0,1,23.121-21.83l51.055-48.2a17.746,17.746,0,0,1,23.112-21.808l-10.571,9.968,3.391,7.676,7.47,3.821,10.57-9.979a17.758,17.758,0,0,1-4.811,18.073" transform="translate(-152.753 -169.216)"/>
                </g>
              </g>
            </g>
            <g id="Grupo_1076177" data-name="Grupo 1076177" transform="translate(207.882 221.497)" opacity="0.1">
              <g id="Grupo_1076176" data-name="Grupo 1076176">
                <g id="Grupo_1076175" data-name="Grupo 1076175" clip-path="url(#clip-path-12)">
                  <rect id="Rectángulo_379812" data-name="Rectángulo 379812" width="35.55" height="6.511" transform="matrix(0.727, -0.686, 0.686, 0.727, 0, 24.402)"/>
                </g>
              </g>
            </g>
            <g id="Grupo_1076180" data-name="Grupo 1076180" transform="translate(242.769 237.345)" opacity="0.1">
              <g id="Grupo_1076179" data-name="Grupo 1076179">
                <g id="Grupo_1076178" data-name="Grupo 1076178" clip-path="url(#clip-path-13)">
                  <path id="Trazado_826876" data-name="Trazado 826876" d="M235.2,242.872a12.642,12.642,0,1,0,12.639-12.646A12.656,12.656,0,0,0,235.2,242.872m2.691,0a9.953,9.953,0,1,1,9.948,9.953,9.95,9.95,0,0,1-9.948-9.953m-2.691,0a12.642,12.642,0,1,0,12.639-12.646A12.656,12.656,0,0,0,235.2,242.872m2.691,0a9.953,9.953,0,1,1,9.948,9.953,9.95,9.95,0,0,1-9.948-9.953m-11.363,0a21.314,21.314,0,1,0,21.311-21.318,21.314,21.314,0,0,0-21.311,21.318m7.458,0a13.857,13.857,0,1,1,13.852,13.858,13.874,13.874,0,0,1-13.852-13.858m1.214,0a12.642,12.642,0,1,0,12.639-12.646A12.656,12.656,0,0,0,235.2,242.872m2.691,0a9.953,9.953,0,1,1,9.948,9.953,9.95,9.95,0,0,1-9.948-9.953" transform="translate(-222.039 -217.07)"/>
                  <path id="Trazado_826877" data-name="Trazado 826877" d="M243.76,222.317h4.88l-.486-4.871h-3.909Z" transform="translate(-220.462 -217.446)"/>
                  <path id="Trazado_826878" data-name="Trazado 826878" d="M253.655,223.665l4.226,2.441,2.015-4.462-3.385-1.955Z" transform="translate(-219.556 -217.241)"/>
                  <path id="Trazado_826879" data-name="Trazado 826879" d="M261.513,229.679l2.441,4.226,3.975-2.856-1.954-3.385Z" transform="translate(-218.837 -216.511)"/>
                  <path id="Trazado_826880" data-name="Trazado 826880" d="M265.228,238.791v4.88l4.871-.486v-3.909Z" transform="translate(-218.497 -215.493)"/>
                  <path id="Trazado_826881" data-name="Trazado 826881" d="M264.011,248.686l-2.441,4.226,4.462,2.015,1.955-3.385Z" transform="translate(-218.832 -214.587)"/>
                  <path id="Trazado_826882" data-name="Trazado 826882" d="M257.981,256.544l-4.226,2.441,2.857,3.975L260,261.006Z" transform="translate(-219.547 -213.868)"/>
                  <path id="Trazado_826883" data-name="Trazado 826883" d="M248.756,260.26h-4.88l.486,4.871h3.909Z" transform="translate(-220.451 -213.528)"/>
                  <path id="Trazado_826884" data-name="Trazado 826884" d="M238.975,259.042l-4.226-2.441-2.015,4.462,3.385,1.955Z" transform="translate(-221.471 -213.863)"/>
                  <path id="Trazado_826885" data-name="Trazado 826885" d="M231.132,253.012l-2.441-4.226-3.975,2.856,1.954,3.385Z" transform="translate(-222.204 -214.578)"/>
                  <path id="Trazado_826886" data-name="Trazado 826886" d="M227.286,243.787v-4.88l-4.871.486V243.3Z" transform="translate(-222.415 -215.482)"/>
                  <path id="Trazado_826887" data-name="Trazado 826887" d="M228.634,234.006l2.441-4.226-4.462-2.015-1.955,3.385Z" transform="translate(-222.21 -216.502)"/>
                  <path id="Trazado_826888" data-name="Trazado 826888" d="M234.648,226.163l4.226-2.441-2.856-3.975-3.385,1.954Z" transform="translate(-221.48 -217.235)"/>
                </g>
              </g>
            </g>
            <g id="Grupo_1076183" data-name="Grupo 1076183" transform="translate(166.731 184.701)" opacity="0.1">
              <g id="Grupo_1076182" data-name="Grupo 1076182">
                <g id="Grupo_1076181" data-name="Grupo 1076181" clip-path="url(#clip-path-14)">
                  <path id="Trazado_826889" data-name="Trazado 826889" d="M169.237,193.441a6.787,6.787,0,1,0-6.126-7.387,6.788,6.788,0,0,0,6.126,7.387m-5.3-7.309a5.958,5.958,0,1,1,5.378,6.484,5.958,5.958,0,0,1-5.378-6.484m5.3,7.309a6.787,6.787,0,1,0-6.126-7.387,6.788,6.788,0,0,0,6.126,7.387m-5.3-7.309a5.958,5.958,0,1,1,5.378,6.484,5.958,5.958,0,0,1-5.378-6.484m5.3,7.309a6.787,6.787,0,1,0-6.126-7.387,6.788,6.788,0,0,0,6.126,7.387m-5.3-7.309a5.958,5.958,0,1,1,5.378,6.484,5.958,5.958,0,0,1-5.378-6.484m4.606,14.8a14.306,14.306,0,1,0-12.915-15.568,14.311,14.311,0,0,0,12.915,15.568m-6.48-14.969a7.841,7.841,0,1,1,7.078,8.531,7.849,7.849,0,0,1-7.078-8.531m1.052.095a6.786,6.786,0,1,0,7.38-6.129,6.787,6.787,0,0,0-7.38,6.129m.822.079a5.958,5.958,0,1,1,5.378,6.484,5.958,5.958,0,0,1-5.378-6.484m5.3,7.309a6.787,6.787,0,1,0-6.126-7.387,6.788,6.788,0,0,0,6.126,7.387m-5.3-7.309a5.958,5.958,0,1,1,5.378,6.484,5.958,5.958,0,0,1-5.378-6.484m5.3,7.309a6.787,6.787,0,1,0-6.126-7.387,6.788,6.788,0,0,0,6.126,7.387m-5.3-7.309a5.958,5.958,0,1,1,5.378,6.484,5.958,5.958,0,0,1-5.378-6.484" transform="translate(-152.495 -168.927)"/>
                  <path id="Trazado_826890" data-name="Trazado 826890" d="M167.321,173.065l5.477.509.057-3.9-4.87-.453Z" transform="translate(-151.419 -169.216)"/>
                  <path id="Trazado_826891" data-name="Trazado 826891" d="M176.715,175.509l3.512,4.233,2.8-2.721-3.124-3.765Z" transform="translate(-150.559 -168.846)"/>
                  <path id="Trazado_826892" data-name="Trazado 826892" d="M181.577,183.785l-.509,5.477,3.9.057.453-4.871Z" transform="translate(-150.161 -167.883)"/>
                  <path id="Trazado_826893" data-name="Trazado 826893" d="M179.311,193.179l-4.233,3.512,2.721,2.8,3.765-3.124Z" transform="translate(-150.709 -167.023)"/>
                  <path id="Trazado_826894" data-name="Trazado 826894" d="M170.955,198.04l-5.477-.509-.057,3.9,4.871.453Z" transform="translate(-151.593 -166.625)"/>
                  <path id="Trazado_826895" data-name="Trazado 826895" d="M161.627,195.775l-3.512-4.233-2.8,2.721,3.124,3.765Z" transform="translate(-152.518 -167.173)"/>
                  <path id="Trazado_826896" data-name="Trazado 826896" d="M156.6,187.419l.509-5.477-3.9-.057-.453,4.871Z" transform="translate(-152.752 -168.057)"/>
                  <path id="Trazado_826897" data-name="Trazado 826897" d="M159.045,178.091l4.233-3.512-2.721-2.8-3.765,3.124Z" transform="translate(-152.382 -168.982)"/>
                </g>
              </g>
            </g>
            <g id="Grupo_1076186" data-name="Grupo 1076186" transform="translate(199.189 204.839)" opacity="0.1">
              <g id="Grupo_1076185" data-name="Grupo 1076185">
                <g id="Grupo_1076184" data-name="Grupo 1076184" clip-path="url(#clip-path-15)">
                  <path id="Trazado_826898" data-name="Trazado 826898" d="M184.386,200.244a8.789,8.789,0,1,0,6.723-10.454,8.79,8.79,0,0,0-6.723,10.454m4.577-.994a4.105,4.105,0,1,1,4.883,3.138,4.105,4.105,0,0,1-4.883-3.138" transform="translate(-182.334 -187.489)"/>
                  <path id="Trazado_826899" data-name="Trazado 826899" d="M189.113,190.681l3.3-.718-.691-2.3-2.937.639Z" transform="translate(-181.913 -187.665)"/>
                  <path id="Trazado_826900" data-name="Trazado 826900" d="M195.067,190.356l2.843,1.828,1.136-2.114-2.528-1.625Z" transform="translate(-181.338 -187.594)"/>
                  <path id="Trazado_826901" data-name="Trazado 826901" d="M199.46,194.288l.717,3.3,2.3-.691-.639-2.937Z" transform="translate(-180.936 -187.089)"/>
                  <path id="Trazado_826902" data-name="Trazado 826902" d="M199.845,200.242l-1.828,2.843,2.114,1.136,1.625-2.528Z" transform="translate(-181.068 -186.514)"/>
                  <path id="Trazado_826903" data-name="Trazado 826903" d="M195.9,204.635l-3.3.718.691,2.3,2.937-.639Z" transform="translate(-181.564 -186.112)"/>
                  <path id="Trazado_826904" data-name="Trazado 826904" d="M189.979,205.021l-2.843-1.828L186,205.307l2.529,1.625Z" transform="translate(-182.168 -186.244)"/>
                  <path id="Trazado_826905" data-name="Trazado 826905" d="M185.505,201.079l-.718-3.3-2.3.691.639,2.937Z" transform="translate(-182.489 -186.74)"/>
                  <path id="Trazado_826906" data-name="Trazado 826906" d="M185.181,195.155l1.828-2.843-2.114-1.136-1.625,2.528Z" transform="translate(-182.418 -187.344)"/>
                  <path id="Trazado_826907" data-name="Trazado 826907" d="M193.989,195.491l-2.8-.134-1.516,2.361,1.285,2.492,2.8.135,1.519-2.36Zm-1.328,3.229a.89.89,0,1,1,.68-1.058.887.887,0,0,1-.68,1.058" transform="translate(-181.832 -186.961)"/>
                </g>
              </g>
            </g>
          </g>
        </g>
        <g id="Grupo_1076190" data-name="Grupo 1076190">
          <g id="Grupo_1076189" data-name="Grupo 1076189" clip-path="url(#clip-path-2)">
            <path id="Trazado_826908" data-name="Trazado 826908" d="M255.3,32.115H284a77.015,77.015,0,0,1,10.9,6.684V93.054l-13.12-8.988-13.7,8.988V38.8Z" transform="translate(23.363 2.939)" fill="#60119b"/>
            <path id="Trazado_826909" data-name="Trazado 826909" d="M143.232,34.724l27.2-.409s-4.1-15.728-6.173-19.561S149.155,0,149.155,0l-1.564,8.907-21.025-3s8.556,7.67,11.354,10.619c2.207,2.326,5.312,18.2,5.312,18.2" transform="translate(11.582)" fill="#ffae7e"/>
            <path id="Trazado_826910" data-name="Trazado 826910" d="M107.552,29.594,131.166,29,129.145,9.347,119.015,17.13,107.071,10.9Z" transform="translate(9.798 0.855)" fill="#aaccc4"/>
          </g>
        </g>
        <g id="Grupo_1076201" data-name="Grupo 1076201">
          <g id="Grupo_1076200" data-name="Grupo 1076200" clip-path="url(#clip-path-2)">
            <path id="Trazado_826911" data-name="Trazado 826911" d="M373.908,416.953c-2.82,1.023-86.394,2.67-89.54.751-.368-.2-1.729-27.844-1.729-27.844.1-.393-1.3-3.058-3.427-6.76-5.959-10.4-17.607-29.022-17.607-29.022l49.6-15,20.377,40.815,5.192,10.414s11.392,4.454,21.329,8.895c.014.013.027.013.028.027,6.122,2.723,11.447,5.22,12.689,6.152,3.2,2.456,5.909,10.575,3.088,11.571" transform="translate(23.94 31.03)" fill="#ffc4c0"/>
            <path id="Trazado_826912" data-name="Trazado 826912" d="M372.432,413.531c-2.82,1.023-86.394,2.67-89.54.751-.368-.2-1.729-27.844-1.729-27.844.1-.393-1.3-3.058-3.427-6.76l52.37-3.206,5.192,10.414s11.392,4.454,21.329,8.895c.014.013.027.013.028.027,6.122,2.723,11.447,5.22,12.689,6.152,3.2,2.456,5.909,10.575,3.088,11.571" transform="translate(25.416 34.451)" fill="#fff"/>
            <path id="Trazado_826913" data-name="Trazado 826913" d="M372.518,413.08c-2.907,1.028-86.589,2.464-89.815.5-1.227-.739-2.7-13.62-1.8-27.907l53.951-.861S366.1,398.625,369.4,401.156c3.29,2.532,6.021,10.9,3.114,11.924" transform="translate(25.68 35.215)" fill="#809993"/>
            <g id="Grupo_1076193" data-name="Grupo 1076193" transform="translate(306.3 420.863)" opacity="0.1">
              <g id="Grupo_1076192" data-name="Grupo 1076192">
                <g id="Grupo_1076191" data-name="Grupo 1076191" clip-path="url(#clip-path-18)">
                  <path id="Trazado_826914" data-name="Trazado 826914" d="M304.6,414.459c-11.911-.053-20.874-.336-21.9-.942-1.225-.74-2.7-13.62-1.8-27.913l1.319-.026Z" transform="translate(-280.62 -385.578)"/>
                </g>
              </g>
            </g>
            <path id="Trazado_826915" data-name="Trazado 826915" d="M370.756,407.663c-14.034-.1-70.646.8-84.526,1.765-.112.008-.111.085,0,.088,13.908.406,70.511-.957,84.529-1.624.3-.013.293-.227,0-.229" transform="translate(26.186 37.305)" fill="#263238"/>
            <path id="Trazado_826916" data-name="Trazado 826916" d="M357.934,397.113a11.265,11.265,0,0,0-8.333,3.569,10.919,10.919,0,0,0-3.007,7.543c0,.083.158.083.17,0a13.021,13.021,0,0,1,11.173-10.934.088.088,0,0,0,0-.176" transform="translate(31.716 36.34)" fill="#263238"/>
            <path id="Trazado_826917" data-name="Trazado 826917" d="M335.663,386.034c-5.616.019-12.092,2.112-15.5,6.764-.132.18.126.365.291.276a77.584,77.584,0,0,1,15.318-6.35.353.353,0,0,0-.108-.69" transform="translate(29.295 35.327)" fill="#263238"/>
            <path id="Trazado_826918" data-name="Trazado 826918" d="M339.66,387.514c-5.616.019-12.091,2.112-15.5,6.764-.132.179.125.365.291.276a77.569,77.569,0,0,1,15.319-6.35.353.353,0,0,0-.109-.69" transform="translate(29.661 35.462)" fill="#263238"/>
            <path id="Trazado_826919" data-name="Trazado 826919" d="M343.658,388.994c-5.616.019-12.092,2.112-15.5,6.763-.132.18.126.366.291.277a77.542,77.542,0,0,1,15.319-6.35.353.353,0,0,0-.109-.69" transform="translate(30.027 35.597)" fill="#263238"/>
            <path id="Trazado_826920" data-name="Trazado 826920" d="M347.655,390.474c-5.616.019-12.092,2.112-15.5,6.764-.132.18.126.365.291.276a77.568,77.568,0,0,1,15.319-6.35.353.353,0,0,0-.109-.69" transform="translate(30.392 35.733)" fill="#263238"/>
            <path id="Trazado_826921" data-name="Trazado 826921" d="M289.675,397.017c-6.3.127-6.114,9.916.2,9.79s6.112-9.916-.2-9.79" transform="translate(26.085 36.331)" fill="#263238"/>
            <path id="Trazado_826922" data-name="Trazado 826922" d="M340.773,372.291c-2.883-2.307-6.424.057-8.134,2.533a29.471,29.471,0,0,0-4.856,14.445.147.147,0,0,0,.178.157.686.686,0,0,0,1.017.437c3.95-2.834,8.525-5.374,11.487-9.335,1.73-2.313,3.033-6.055.308-8.238m-6.684,12.051c-1.909,1.441-3.877,2.779-5.732,4.29a88.123,88.123,0,0,1,3.021-8.373,31.555,31.555,0,0,1,1.985-3.822c1.188-1.876,6.619-6.664,7.281-.564.367,3.363-4.282,6.752-6.557,8.47" transform="translate(29.996 33.983)" fill="#263238"/>
            <path id="Trazado_826923" data-name="Trazado 826923" d="M315.547,390.708c4.9.667,9.921-.811,14.711-1.638a.686.686,0,0,0,.4-1.031.148.148,0,0,0,.013-.237,29.475,29.475,0,0,0-13.7-6.672c-2.965-.518-7.134.347-7.511,4.02-.357,3.474,3.224,5.169,6.085,5.559m-3.444-3.137c-3.881-4.751,3.339-5.263,5.51-4.8a31.8,31.8,0,0,1,4.117,1.267,88.318,88.318,0,0,1,8.087,3.72c-2.378.263-4.712.726-7.078,1.076-2.82.416-8.5,1.351-10.636-1.268" transform="translate(28.317 34.865)" fill="#263238"/>
            <path id="Trazado_826924" data-name="Trazado 826924" d="M281.662,388.022,340.5,379.1s-28.284-56.373-45.793-86.964c-9.735-17.009-36.367-17.842-49.32,2.537-17.3,27.226-30.732,52.736-38.427,66.88L193.616,362.7l2.879,21.806,44.36,9.935c16.992,2.034,28.917-28.217,29.195-27.7,2.151,3.972,11.611,21.287,11.611,21.287" transform="translate(17.718 25.567)" fill="#37474f"/>
            <path id="Trazado_826925" data-name="Trazado 826925" d="M265.819,363.992c-1.674-3.427-2.979-7.064-4.466-10.577-1.438-3.4-2.886-6.79-4.314-10.191-2.887-6.875-5.877-13.716-8.676-20.625-1.571-3.879-3.015-7.806-4.482-11.725a.079.079,0,0,0-.152.045q1.7,5.555,3.558,11.064c-.33-.634-.657-1.267-1-1.883-.944-1.69-1.92-3.359-2.9-5.028-.038-.065-.134,0-.1.06.9,1.677,1.806,3.35,2.743,5.007.467.824.977,1.638,1.469,2.462a258.782,258.782,0,0,0,12.205,30.152c1.871,3.84,4.062,7.517,5.935,11.35.059.122.238.011.179-.11" transform="translate(22.263 28.444)" fill="#263238"/>
            <path id="Trazado_826926" data-name="Trazado 826926" d="M278.212,374.94c-2.837-4.377-9.593-17.628-12.013-22.209-4.894-9.265-9.374-18.721-13.609-28.3-2.393-5.414-4.631-10.878-6.847-16.366-.015-.036-.074-.021-.061.019a311.307,311.307,0,0,0,11.612,29.068c4.315,9.511,18.234,35.131,20.74,37.9.091.1.253,0,.179-.111" transform="translate(22.483 28.189)" fill="#263238"/>
            <path id="Trazado_826927" data-name="Trazado 826927" d="M245.985,314.766c-5.07,9.054-10.251,18.046-15.344,27.088q-3.859,6.854-7.691,13.724c-1.2,2.158-2.361,4.341-3.6,6.473a12.16,12.16,0,0,1-4.651,4.823,36.246,36.246,0,0,1-7.378,2.576c-2.862.837-5.705,1.738-8.58,2.527-.131.036-.07.237.061.2,2.564-.685,5.151-1.276,7.728-1.911a67.4,67.4,0,0,0,7.013-1.892,11.385,11.385,0,0,0,5.2-3.59,41.931,41.931,0,0,0,3.64-6.081q7.631-13.95,15.121-27.977c2.841-5.312,5.657-10.64,8.53-15.937a.026.026,0,0,0-.046-.025" transform="translate(18.18 28.804)" fill="#263238"/>
            <path id="Trazado_826928" data-name="Trazado 826928" d="M273.065,372.054c3.525-.642,7.136-.949,10.69-1.4s7.131-.919,10.694-1.385c7.11-.929,31.315-4.784,33.144-5.39.115-.038.076-.226-.041-.23-1.731-.053-17.582,2.057-21.138,2.58-7.11,1.047-14.172,2.307-21.257,3.5-2.024.342-4.04.726-6.06,1.084s-4.035.792-6.064,1.053c-.124.015-.09.212.034.19" transform="translate(24.978 33.278)" fill="#263238"/>
            <path id="Trazado_826929" data-name="Trazado 826929" d="M315.608,433.266c-.941-2.849-51.385-69.5-54.83-70.783-.394-.168-22.942,15.879-22.942,15.879-.931,1.241-43.793-7.816-43.793-7.816l-.427,51.706,78.078-1.66s10.546,6.2,20.192,11.251c.017,0,.024.012.034,0,5.936,3.129,11.191,5.764,12.69,6.156,3.905,1,11.959-1.9,11-4.737" transform="translate(17.718 33.171)" fill="#ffc4c0"/>
            <path id="Trazado_826930" data-name="Trazado 826930" d="M301.8,438c-1.505-.385-6.754-3.022-12.688-6.157-.012.012-.025,0-.037,0-9.64-5.05-20.189-11.257-20.189-11.257l-17.377.372-27.2-43.9c5.971,1.057,10.424,1.691,10.723,1.293,0,0,22.54-16.046,22.937-15.873,3.446,1.281,53.886,67.929,54.831,70.778s-7.09,5.747-11,4.739" transform="translate(20.527 33.171)" fill="#fff"/>
            <path id="Trazado_826931" data-name="Trazado 826931" d="M312.362,433.354c-.992-2.92-51.663-69.531-55.2-70.851-1.339-.507-12.37,6.307-23.033,15.859l32.719,42.906s30.187,15.991,34.222,17.021,12.284-2.016,11.293-4.935" transform="translate(21.425 33.171)" fill="#809993"/>
            <path id="Trazado_826932" data-name="Trazado 826932" d="M306.969,434.06c-8.768-10.958-43.1-55.98-50.934-67.478-.063-.094,0-.14.071-.053C265.033,377.2,299,422.5,307.152,433.921c.171.241,0,.37-.183.139" transform="translate(23.428 33.537)" fill="#263238"/>
            <path id="Trazado_826933" data-name="Trazado 826933" d="M290.485,431a11.274,11.274,0,0,1-2.355-8.754,10.922,10.922,0,0,1,4.065-7.031c.068-.048.163.073.1.136a13.023,13.023,0,0,0-1.671,15.543.088.088,0,0,1-.14.106" transform="translate(26.354 37.996)" fill="#263238"/>
            <path id="Trazado_826934" data-name="Trazado 826934" d="M267.97,420.15c-3.462-4.422-5.826-10.8-4.283-16.362.06-.215.365-.127.4.058a77.609,77.609,0,0,0,4.495,15.962.353.353,0,0,1-.609.342" transform="translate(24.086 36.94)" fill="#263238"/>
            <path id="Trazado_826935" data-name="Trazado 826935" d="M271.607,422.373c-3.462-4.423-5.825-10.8-4.283-16.362.059-.215.365-.127.4.058a77.611,77.611,0,0,0,4.5,15.962.353.353,0,0,1-.609.342" transform="translate(24.419 37.143)" fill="#263238"/>
            <path id="Trazado_826936" data-name="Trazado 826936" d="M275.244,424.6c-3.461-4.422-5.825-10.8-4.283-16.362.059-.215.365-.127.4.058a77.607,77.607,0,0,0,4.495,15.962.353.353,0,0,1-.609.342" transform="translate(24.752 37.347)" fill="#263238"/>
            <path id="Trazado_826937" data-name="Trazado 826937" d="M278.881,426.82c-3.462-4.422-5.825-10.8-4.283-16.362.06-.215.365-.127.4.058a77.609,77.609,0,0,0,4.495,15.962.353.353,0,0,1-.609.342" transform="translate(25.085 37.55)" fill="#263238"/>
            <path id="Trazado_826938" data-name="Trazado 826938" d="M248.383,377.226c-3.8-5.025,4-10.939,7.81-5.906s-4,10.94-7.81,5.906" transform="translate(22.637 33.805)" fill="#263238"/>
            <path id="Trazado_826939" data-name="Trazado 826939" d="M266.58,427.9c1.278-4.779.441-9.944.22-14.8a.683.683,0,0,0-.97-.529.15.15,0,0,0-.236-.043,29.5,29.5,0,0,0-8.339,12.755c-.886,2.876-.551,7.121,3.046,7.956,3.4.79,5.533-2.55,6.278-5.34m-3.544,3.023c-5.2,3.255-4.8-3.974-4.066-6.068a31.94,31.94,0,0,1,1.774-3.926,88.37,88.37,0,0,1,4.707-7.555c-.039,2.392.128,4.766.178,7.157.06,2.85.274,8.6-2.592,10.392" transform="translate(23.504 37.748)" fill="#263238"/>
            <path id="Trazado_826940" data-name="Trazado 826940" d="M251.3,400.074c-2.651,2.57-.749,6.379,1.494,8.387a29.459,29.459,0,0,0,13.72,6.631.148.148,0,0,0,.179-.157.684.684,0,0,0,.56-.954c-2.315-4.274-4.261-9.132-7.819-12.569-2.078-2.006-5.626-3.769-8.135-1.338m11.118,8.144c1.19,2.075,2.271,4.195,3.536,6.225a87.9,87.9,0,0,1-7.928-4.048,31.865,31.865,0,0,1-3.544-2.449c-1.71-1.415-5.778-7.4.356-7.3,3.383.059,6.162,5.1,7.579,7.569" transform="translate(22.878 36.503)" fill="#263238"/>
            <path id="Trazado_826941" data-name="Trazado 826941" d="M226.3,359.852s-85.55-15.021-109.889-10.085c-33.945,6.884-40.179,47.02-15.006,61.976,31.893,18.95,160.353,15.28,160.353,15.28l-30.681-52s-47.194-9.934-89.992-8.494L226.67,379.6Z" transform="translate(7.872 31.917)" fill="#37474f"/>
            <path id="Trazado_826942" data-name="Trazado 826942" d="M230.3,377.166a1.144,1.144,0,0,1-.064-.266c-.017-.072-.035-.144-.053-.216-.041-.169-.086-.337-.133-.5-.1-.348-.224-.68-.357-1.017s-.277-.664-.431-.99a7.61,7.61,0,0,0-.574-.919c-.021-.032-.055-.037-.082-.057a.4.4,0,0,0-.055-.038.29.29,0,0,0-.076-.032.414.414,0,0,0-.077-.032c-5.19-.966-40.456-6.012-45.7-6.61-5.286-.6-10.589-1.095-15.891-1.54a316.03,316.03,0,0,0-31.825-1.146c-1,.018-1.989.057-2.983.092-.21-.07-.436-.108-.654-.16-.509-.122-1.015-.249-1.53-.347-.957-.184-1.922-.324-2.886-.472-2.008-.308-4.023-.52-6.021-.894-.122-.023-.169.16-.047.188,2.008.445,3.983,1.027,5.993,1.465.58.127,1.159.252,1.741.369-3.892.2-7.778.505-11.663.857-.122.011-.126.2,0,.193,5.286-.311,10.613-.349,15.906-.26,5.258.088,10.511.2,15.761.5,10.618.609,21.229,1.561,31.806,2.669,5.935.62,41.892,5.868,47.854,6.118a.535.535,0,0,0,.073-.012,3.378,3.378,0,0,0,.165.407c.163.324.327.644.5.961s.337.607.532.9q.144.218.293.432c.049.071.1.143.148.214a1.2,1.2,0,0,1,.155.225.1.1,0,1,0,.175-.079" transform="translate(10.692 33.129)" fill="#263238"/>
            <path id="Trazado_826943" data-name="Trazado 826943" d="M239.225,421.564c-1.9-3.039-3.519-6.281-5.257-9.414s-3.49-6.286-5.239-9.425c-3.492-6.264-16.02-27.329-17.259-28.8-.077-.093-.238.014-.2.123.589,1.629,8.41,15.577,10.21,18.688,3.6,6.219,7.383,12.317,11.113,18.457,1.064,1.754,2.167,3.485,3.247,5.229s2.227,3.457,3.219,5.247c.061.109.231.005.165-.1" transform="translate(19.333 34.215)" fill="#263238"/>
            <path id="Trazado_826944" data-name="Trazado 826944" d="M219.363,379.88c-3.132-.751-6.338-1.241-9.5-1.84s-6.345-1.2-9.518-1.785q-9.524-1.768-19.073-3.38c-12.7-2.137-25.452-3.913-38.272-5.142-7.237-.693-14.492-1.152-21.742-1.683-.153-.011-.15.235.007.241,12.914.58,25.808,2.331,38.594,4.167q19,2.729,37.909,5.945,5.342.9,10.679,1.827c3.613.627,7.229,1.4,10.866,1.86.135.016.192-.177.052-.211" transform="translate(11.086 33.498)" fill="#263238"/>
            <path id="Trazado_826945" data-name="Trazado 826945" d="M195.74,285.1c7.959,19.837,24.717,50.033,35.509,48.332,9.853-1.552,29.4-22.176,37.815-29.215,8.465-7.085-15.478-26.723-20.25-22.317-7.394,6.828-18.232,18.681-20.4,18.31-2.7-.462-6.884-6.35-24.265-23-7.11-6.813-11.8-.55-8.411,7.894" transform="translate(17.81 25.103)" fill="#ffc4c0"/>
            <path id="Trazado_826946" data-name="Trazado 826946" d="M252.406,272.469c4.132-2.154,8.7-4.953,13.545-5.546s9.76,5.221,10.019,7.048.046,13.48-4.787,14.163-3.153-8.483-3.478-9.46-.688-2.234-1.586-2.012-15.787,10.05-15.787,10.05Z" transform="translate(22.908 24.423)" fill="#ffc4c0"/>
            <path id="Trazado_826947" data-name="Trazado 826947" d="M252.6,273.209c.274-.038,12.5-6.977,17.346-7.569s9.76,5.22,10.019,7.047.046,13.48-4.787,14.163-3.153-8.483-3.476-9.46-.689-2.234-1.587-2.011-15.787,10.048-15.787,10.048Z" transform="translate(23.116 24.305)" fill="#ffc4c0"/>
            <path id="Trazado_826948" data-name="Trazado 826948" d="M272.68,285.677a5.794,5.794,0,0,1-1.208-2.742,10.011,10.011,0,0,1-.261-3.111,16.774,16.774,0,0,0,.211-2.741,5.394,5.394,0,0,0-1.036-2.46c-.468-.624-1.146-.293-1.726.009a24.579,24.579,0,0,0-2.46,1.559c-.858.588-1.7,1.2-2.553,1.8a25.533,25.533,0,0,0-2.588,1.939c-.059.055,0,.164.077.124a26.441,26.441,0,0,0,2.3-1.45q1.285-.842,2.586-1.658c.81-.508,1.595-1.059,2.414-1.552.288-.174.858-.59,1.219-.561.381.031.691.911.814,1.194a4.582,4.582,0,0,1,.2,2.636,13.9,13.9,0,0,0-.126,2.719,7.123,7.123,0,0,0,.558,2.49,10.05,10.05,0,0,0,1.446,1.917c.07.088.212-.035.133-.111" transform="translate(23.888 25.099)" fill="#263238"/>
            <path id="Trazado_826949" data-name="Trazado 826949" d="M240.2,289.231s11.667-14.1,14.113-16.919c4.9-5.654,27.1-18.608,30.334-19.42s5.371,5.751-9.628,15c-7.906,4.877-8.723,9.914-8.184,12.567s3.8,7.276,8.279,6.519,6.47-7.737,10.5-9.05,2.372,6.647.073,11.438a27.861,27.861,0,0,1-10.768,11.157c-3.684,2.008-14.992,8.9-14.992,8.9Z" transform="translate(21.981 23.136)" fill="#ffc4c0"/>
            <path id="Trazado_826950" data-name="Trazado 826950" d="M278.025,281.777c-1.507,1.552-3.187,3.522-5.405,3.922-2.292.413-4-.872-5.336-2.6a8.608,8.608,0,0,1-2.061-6.054,10.577,10.577,0,0,1,2.369-5.482,25.618,25.618,0,0,1,5.521-4.917c.091-.064-.015-.193-.11-.134-1.94,1.218-8.005,4.766-8.489,10.635a8.826,8.826,0,0,0,2.15,6.162c1.25,1.649,2.945,3.172,5.151,3.04,2.688-.16,4.671-2.645,6.352-4.529.074-.083-.062-.126-.141-.044" transform="translate(24.204 24.388)" fill="#263238"/>
            <path id="Trazado_826951" data-name="Trazado 826951" d="M244.366,285.732,268.8,314S239.533,336.3,230.135,334.7s-26.631-25.458-35.424-47.289,6.319-15.129,12.7-8.9,20.36,20.735,20.968,20.433,15.99-13.215,15.99-13.215" transform="translate(17.573 24.93)" fill="#d0adea"/>
            <path id="Trazado_826952" data-name="Trazado 826952" d="M246.762,312a1.9,1.9,0,0,1-.9-.2,1.638,1.638,0,0,1-.906-1.31,2.164,2.164,0,0,0-1.6-1.779,2.2,2.2,0,0,0-1.168.055c-.338.12-.677.2-1.015.327.36.055.709.055,1.07.1a2.319,2.319,0,0,1,.906.153,1.631,1.631,0,0,1,.95,1.266,2.143,2.143,0,0,0,1.539,1.823,2.014,2.014,0,0,0,1.168-.022,8.513,8.513,0,0,0,1.015-.338c-.36-.055-.71-.055-1.059-.076m-19.309,4.224c-.109-.338-.2-.677-.338-1.015-.055.36-.055.71-.087,1.07a1.822,1.822,0,0,1-.164.906,1.64,1.64,0,0,1-1.255.961,2.158,2.158,0,0,0-1.834,1.528,2.055,2.055,0,0,0,.033,1.179c.12.338.2.677.327,1.015.055-.36.055-.709.1-1.081a1.914,1.914,0,0,1,.186-.884,1.578,1.578,0,0,1,1.31-.906,2.123,2.123,0,0,0,1.779-1.6,2.2,2.2,0,0,0-.055-1.168m18.85-27.834a2.134,2.134,0,0,0-1.266,1.386,2.054,2.054,0,0,0,.033,1.179c.109.338.2.677.327,1.015.055-.36.055-.709.087-1.07a1.833,1.833,0,0,1,.2-.9,1.563,1.563,0,0,1,1.244-.9Zm15.15,28.019c-.109-.338-.2-.677-.338-1.015-.055.36-.055.709-.087,1.07a1.954,1.954,0,0,1-.153.906,1.621,1.621,0,0,1-1.266.95,2.186,2.186,0,0,0-1.834,1.539,1.929,1.929,0,0,0,.044,1.168c.033.109.065.207.1.317a3,3,0,0,0,.306-.207c0-.055.011-.109.011-.164a1.885,1.885,0,0,1,.186-.884,1.593,1.593,0,0,1,1.31-.906,2.149,2.149,0,0,0,1.79-1.6,2.194,2.194,0,0,0-.065-1.168m-50.8-21.437c-.12-.338-.207-.677-.338-1.015-.055.36-.055.709-.1,1.07a1.954,1.954,0,0,1-.153.906,1.611,1.611,0,0,1-1.266.961,2.144,2.144,0,0,0-1.823,1.528,1.885,1.885,0,0,0,.033,1.179c.109.338.186.677.327,1.015.055-.36.055-.709.087-1.07a1.833,1.833,0,0,1,.2-.9,1.564,1.564,0,0,1,1.31-.906,2.152,2.152,0,0,0,1.779-1.594,2.35,2.35,0,0,0-.055-1.179M201.1,274.139h-.022a1.676,1.676,0,0,1-.6-.316c-.011,0-.011-.011-.022-.011s-.011-.011-.022-.011-.011-.011-.022-.011l-.011-.011a1.574,1.574,0,0,0-.655-.306.083.083,0,0,0-.044-.022H199.7a2.022,2.022,0,0,0-1.6.251,1.98,1.98,0,0,0-.786.862c-.164.317-.338.611-.491.95.295-.218.557-.458.83-.688a1.966,1.966,0,0,1,.753-.535,1.617,1.617,0,0,1,1.561.218,2.154,2.154,0,0,0,2.27.273c-.371-.218-.742-.437-1.124-.644m10.9,9.289c-.055.087-.1.175-.142.251-.164.316-.338.622-.491.961.295-.207.546-.458.83-.7a2.1,2.1,0,0,1,.164-.153Zm18.141,17.137a1.871,1.871,0,0,1-.753.491,1.632,1.632,0,0,1-1.572-.284,2.187,2.187,0,0,0-2.4-.131,2.252,2.252,0,0,0-.775.873c-.164.306-.338.611-.491.95.295-.207.546-.458.83-.7a2.018,2.018,0,0,1,.753-.513,1.592,1.592,0,0,1,1.561.207,2.158,2.158,0,0,0,2.379.207,1.951,1.951,0,0,0,.808-.851c.164-.306.338-.611.491-.939a9.532,9.532,0,0,0-.83.688m26.218-.524a.342.342,0,0,0-.109.055,2.09,2.09,0,0,0-.775.873,8.614,8.614,0,0,0-.48.95c.284-.218.535-.469.808-.688a1.966,1.966,0,0,1,.753-.535,3.121,3.121,0,0,1,.306-.076Zm-12.683,28.2a1.788,1.788,0,0,1-.764.513,1.69,1.69,0,0,1-1.572-.284,2.111,2.111,0,0,0-2.39-.131,2,2,0,0,0-.775.862c-.175.317-.349.622-.491.95.295-.218.546-.458.819-.688a2.092,2.092,0,0,1,.753-.535,1.641,1.641,0,0,1,1.572.229,2.158,2.158,0,0,0,2.369.207,2.006,2.006,0,0,0,.808-.851,9.932,9.932,0,0,0,.491-.961c-.295.218-.546.469-.819.688" transform="translate(18.011 25.018)" fill="#fff"/>
            <g id="Grupo_1076196" data-name="Grupo 1076196" transform="translate(209.601 301.638)" opacity="0.1">
              <g id="Grupo_1076195" data-name="Grupo 1076195">
                <g id="Grupo_1076194" data-name="Grupo 1076194" clip-path="url(#clip-path-19)">
                  <path id="Trazado_826953" data-name="Trazado 826953" d="M247.933,327.667c-6.821,3.979-13.628,7.132-17.469,6.724-.119-.01-.227-.034-.333-.045-9.4-1.607-26.624-25.455-35.425-47.288a35.646,35.646,0,0,1-2.607-9.115c-.016-.115-.019-.219-.035-.334-.012-.181-.025-.362-.025-.545a1.348,1.348,0,0,1,0-.22c-.011-.168-.009-.338-.005-.5Z" transform="translate(-192.028 -276.349)"/>
                </g>
              </g>
            </g>
            <path id="Trazado_826954" data-name="Trazado 826954" d="M253.178,310.88q-1.184-1.523-2.388-3.028c-1.6-2.013-11.2-13.94-14.828-17.462-.1-.094-.24.049-.17.156,2.781,4.249,12.633,15.9,14.27,17.816q1.256,1.472,2.526,2.931c.855.978,1.821,1.851,2.67,2.831.083.1.247-.012.166-.116-.79-1.009-1.457-2.114-2.245-3.128" transform="translate(21.576 26.571)" fill="#263238"/>
            <path id="Trazado_826955" data-name="Trazado 826955" d="M156.989,365.231s37.634,6.107,60.265,6.252a27.984,27.984,0,0,0,19.463-7.36c1.026-1.19-23.915-80.266-32.4-91.1-1.816-2.316-13.585-6.606-19.561.058-23.258,25.937-27.769,92.149-27.769,92.149" transform="translate(14.366 24.664)" fill="#d0adea"/>
            <path id="Trazado_826956" data-name="Trazado 826956" d="M195.861,290.053a1.961,1.961,0,0,1-.9-.186,1.65,1.65,0,0,1-.9-1.31,2.152,2.152,0,0,0-1.6-1.779,2,2,0,0,0-1.168.055,8.522,8.522,0,0,0-1.015.338c.349.044.709.055,1.059.076a2,2,0,0,1,.917.175,1.583,1.583,0,0,1,.95,1.244,2.141,2.141,0,0,0,1.539,1.834,2.116,2.116,0,0,0,1.168-.022c.338-.12.677-.2,1.015-.338a8.829,8.829,0,0,0-1.07-.087m33.859,49.162a1.413,1.413,0,0,0-.448-.175,2.2,2.2,0,0,0-1.168.055c-.338.12-.677.2-1.015.327.36.066.709.066,1.059.1a2.376,2.376,0,0,1,.917.153,1.655,1.655,0,0,1,.95,1.266,2.186,2.186,0,0,0,.655,1.31c-.306-.993-.622-2-.95-3.034m-58.56-19.08a1.763,1.763,0,0,1-.884-.2,1.6,1.6,0,0,1-.906-1.3,2.1,2.1,0,0,0-2.762-1.736c-.338.12-.688.2-1.015.338a8.477,8.477,0,0,0,1.059.087,2.1,2.1,0,0,1,.906.164,1.6,1.6,0,0,1,.95,1.255,2.158,2.158,0,0,0,1.539,1.823,1.967,1.967,0,0,0,1.179-.022,9.226,9.226,0,0,0,1.015-.338c-.371-.055-.72-.055-1.081-.076m63.34,44.741a1.978,1.978,0,0,1-.906-.186,1.666,1.666,0,0,1-.9-1.31,2.165,2.165,0,0,0-1.6-1.79,2.309,2.309,0,0,0-1.168.065c-.338.109-.688.2-1.015.327.349.055.72.055,1.07.087a1.978,1.978,0,0,1,.906.164,1.6,1.6,0,0,1,.95,1.266,2.14,2.14,0,0,0,1.539,1.823,2.113,2.113,0,0,0,1.168-.022c.207-.065.415-.131.622-.207.011,0,.011,0,.022-.011a2,2,0,0,1,.175-.142c-.295-.033-.579-.044-.862-.065m-39.054-18.1a2.131,2.131,0,0,1-.906-.175,1.654,1.654,0,0,1-.906-1.31,2.126,2.126,0,0,0-1.594-1.79,2.187,2.187,0,0,0-1.168.065c-.338.109-.688.186-1.015.327.349.055.709.055,1.059.087a2.026,2.026,0,0,1,.917.164,1.6,1.6,0,0,1,.95,1.255,2.088,2.088,0,0,0,2.707,1.812c.338-.12.677-.207,1.015-.338-.36-.055-.709-.055-1.059-.1m-35.4,11.6a1.885,1.885,0,0,1-.884-.186,1.626,1.626,0,0,1-.917-1.3,2.1,2.1,0,0,0-.437-1.037c-.076.644-.153,1.255-.207,1.845a2.07,2.07,0,0,0,1.332,1.124,1.932,1.932,0,0,0,1.168-.022c.338-.109.677-.2,1.015-.338-.36-.055-.709-.055-1.07-.087m49.238-41.925a2.114,2.114,0,0,1-.9-.175,1.671,1.671,0,0,1-.906-1.31,2.153,2.153,0,0,0-1.594-1.8,2.235,2.235,0,0,0-1.179.065c-.338.12-.677.2-1.015.327.36.065.709.065,1.07.1a1.928,1.928,0,0,1,.906.153,1.6,1.6,0,0,1,.95,1.266,2.154,2.154,0,0,0,1.55,1.823,1.932,1.932,0,0,0,1.168-.022c.338-.109.677-.2,1.015-.338-.36-.055-.71-.055-1.07-.087m-17.617,6.767c-.109-.338-.2-.677-.327-1.015-.055.36-.055.709-.087,1.059a2,2,0,0,1-.164.917,1.6,1.6,0,0,1-1.266.95A2.156,2.156,0,0,0,188,326.673a1.924,1.924,0,0,0,.033,1.168c.109.338.2.677.327,1.015.055-.36.055-.71.087-1.059a1.778,1.778,0,0,1,.2-.9,1.622,1.622,0,0,1,1.31-.906,2.164,2.164,0,0,0,1.779-1.6,2.2,2.2,0,0,0-.065-1.168m24.5,26.982c-.12-.338-.207-.677-.338-1.015-.055.36-.055.709-.1,1.07a1.882,1.882,0,0,1-.153.9,1.611,1.611,0,0,1-1.266.961,2.156,2.156,0,0,0-1.823,1.539,1.931,1.931,0,0,0,.033,1.168c.109.338.186.677.327,1.015.055-.36.055-.709.087-1.07a1.763,1.763,0,0,1,.2-.884,1.564,1.564,0,0,1,1.31-.906,2.149,2.149,0,0,0,1.779-1.6,2.314,2.314,0,0,0-.055-1.168m-1.932-55.23c-.12-.338-.207-.677-.338-1.015-.055.36-.055.709-.1,1.07a1.954,1.954,0,0,1-.153.906,1.611,1.611,0,0,1-1.266.961,2.144,2.144,0,0,0-1.823,1.528,1.885,1.885,0,0,0,.033,1.179c.109.338.186.677.327,1.015.055-.36.055-.709.087-1.07a1.833,1.833,0,0,1,.2-.9,1.564,1.564,0,0,1,1.31-.906,2.152,2.152,0,0,0,1.779-1.594,2.35,2.35,0,0,0-.055-1.179m-40.79-2.085a9.134,9.134,0,0,0-.327-1.015c-.055.36-.055.71-.087,1.059a1.866,1.866,0,0,1-.164.917,1.646,1.646,0,0,1-1.015.9c-.131.306-.262.633-.382.95a2.184,2.184,0,0,1,.262-.044,2.109,2.109,0,0,0,1.779-1.6,2.059,2.059,0,0,0-.066-1.157m8.034,67.8a8.508,8.508,0,0,0-.338-1.015c-.055.349-.055.709-.076,1.059a1.949,1.949,0,0,1-.175.906,1.618,1.618,0,0,1-1.244.961,2.088,2.088,0,0,0-1.812,2.707c.109.284.175.568.284.862.022,0,.033.011.055.011.044-.317.055-.622.076-.939a1.918,1.918,0,0,1,.2-.884,1.638,1.638,0,0,1,1.31-.906,2.123,2.123,0,0,0,1.779-1.6,2.055,2.055,0,0,0-.055-1.157M205.3,274.183h-.011a1.616,1.616,0,0,1-1.223-.36,2.11,2.11,0,0,0-2.39-.12,1.98,1.98,0,0,0-.786.862c-.164.317-.338.611-.491.95.295-.218.557-.458.83-.688a1.966,1.966,0,0,1,.753-.535,1.617,1.617,0,0,1,1.561.218,2.2,2.2,0,0,0,2.15.338c-.131-.229-.273-.458-.393-.666m-23.042,2.249a1.83,1.83,0,0,1-.753.491,1.14,1.14,0,0,1-.186.044c-.207.273-.4.557-.6.84a2.022,2.022,0,0,0,1.07-.262,2.1,2.1,0,0,0,.808-.862c.164-.306.338-.6.48-.939-.295.207-.546.458-.819.688m6.669,26.535a1.667,1.667,0,0,1-.753.491,1.65,1.65,0,0,1-1.583-.273,2.128,2.128,0,0,0-2.39-.131,2.075,2.075,0,0,0-.775.862c-.164.327-.338.622-.491.961.295-.218.546-.469.819-.7a1.931,1.931,0,0,1,.753-.524,1.607,1.607,0,0,1,1.572.218,2.175,2.175,0,0,0,2.379.207,2.015,2.015,0,0,0,.808-.851c.164-.317.338-.611.48-.95-.295.207-.546.458-.819.688m-14.594,39.742a1.862,1.862,0,0,1-.753.5,1.655,1.655,0,0,1-1.572-.284,2.147,2.147,0,0,0-2.4-.131,2.267,2.267,0,0,0-.786.862c-.153.317-.338.622-.48.961.295-.218.546-.458.819-.7a2.087,2.087,0,0,1,.764-.524,1.6,1.6,0,0,1,1.55.218,2.158,2.158,0,0,0,2.38.207,2.043,2.043,0,0,0,.819-.851c.153-.317.338-.622.48-.95-.295.207-.535.458-.819.688m39.709-9.19a1.76,1.76,0,0,1-.764.5,1.636,1.636,0,0,1-1.561-.273,2.074,2.074,0,0,0-3.176.731c-.164.317-.349.622-.48.95.295-.218.535-.469.808-.688a1.967,1.967,0,0,1,.753-.535,1.613,1.613,0,0,1,1.572.229,2.157,2.157,0,0,0,2.369.2,1.924,1.924,0,0,0,.808-.84,9.932,9.932,0,0,0,.491-.961c-.295.207-.546.458-.819.688M203,364.156a1.894,1.894,0,0,1-.764.5,1.661,1.661,0,0,1-1.572-.284,2.13,2.13,0,0,0-2.39-.131,2.1,2.1,0,0,0-.786.862c-.164.327-.338.622-.491.961.295-.218.557-.469.83-.688a1.966,1.966,0,0,1,.753-.535,1.622,1.622,0,0,1,1.561.218,2.18,2.18,0,0,0,2.379.218,2.035,2.035,0,0,0,.808-.862c.164-.317.338-.622.491-.95-.295.218-.546.469-.819.688" transform="translate(14.423 25.018)" fill="#fff"/>
            <path id="Trazado_826957" data-name="Trazado 826957" d="M179.613,296.8c6.533,20.445,29.664,57.145,41.644,59.212,13.869,2.394,57.838-18.84,65.939-26.735,3.224-3.144-19.23-23.632-23.472-21.353-17.776,9.551-33.9,15.443-36.544,14.143-4.065-2-22.258-21.529-33.992-33.584-14.744-15.146-16.507-.857-13.576,8.317" transform="translate(16.328 25.793)" fill="#ffc4c0"/>
            <path id="Trazado_826958" data-name="Trazado 826958" d="M307.145,254.207l-24.6-11.053L273.1,289.8l24.126,8.621Z" transform="translate(24.992 22.251)" fill="#7816c2"/>
            <g id="Grupo_1076199" data-name="Grupo 1076199" transform="translate(298.091 265.406)" opacity="0.1">
              <g id="Grupo_1076198" data-name="Grupo 1076198">
                <g id="Grupo_1076197" data-name="Grupo 1076197" clip-path="url(#clip-path-20)">
                  <path id="Trazado_826959" data-name="Trazado 826959" d="M307.145,254.207l-24.6-11.053L273.1,289.8l24.126,8.621Z" transform="translate(-273.099 -243.155)"/>
                </g>
              </g>
            </g>
            <path id="Trazado_826960" data-name="Trazado 826960" d="M304.122,254.4l-20.88-9.187-.578,1.5-7.393,37.469a43.985,43.985,0,0,1,5.312,4.257c2.119,2.1,8.387,8.959,14.287,8.408Z" transform="translate(25.19 22.439)" fill="#fff"/>
            <path id="Trazado_826961" data-name="Trazado 826961" d="M303,256.812s-5.389-1.4-8.318-3.415-5.816-4.317-8.059-5.146-4.514-1.714-4.514-1.714l.512-1.329,20.878,9.187Z" transform="translate(25.816 22.439)" fill="#ebebeb"/>
            <path id="Trazado_826962" data-name="Trazado 826962" d="M265.873,304.473l34.345-6.334,7.587-44.859-36.289,3.984Z" transform="translate(24.33 23.178)" fill="#7816c2"/>
            <path id="Trazado_826963" data-name="Trazado 826963" d="M279.252,331.045c1.946-1.021,14.605-13.254,18.083-18.647a62.365,62.365,0,0,0,8.466-18.348c2.805-10.338,3.765-17.75,2.305-20.8-1.694-3.546-2.114-4.1-9.579,13.453-4.224,9.934-9.339,11.706-13.915,12.266a70.873,70.873,0,0,0-31.378,11.829s18.537,24.174,26.017,20.251" transform="translate(23.174 24.823)" fill="#ffc4c0"/>
            <path id="Trazado_826964" data-name="Trazado 826964" d="M271.321,292.135a37.713,37.713,0,0,0-8.323,4.7,23.019,23.019,0,0,0-5.527,6.862c-.064.11.1.229.164.117,3.192-5.294,8.578-8.482,13.745-11.55a.07.07,0,0,0-.059-.128" transform="translate(23.56 26.733)" fill="#263238"/>
            <path id="Trazado_826965" data-name="Trazado 826965" d="M286.628,297.914c-4.7.737,9.264-10.989,8.736-16.386s-5.514-2.97-9.206.641c-12.817,12.533-23.684,13.547-29.514,24.617s29.984-8.872,29.984-8.872" transform="translate(23.427 25.475)" fill="#ffc4c0"/>
            <path id="Trazado_826966" data-name="Trazado 826966" d="M228.039,320.764c3.8.476,28.342-10.136,28.342-10.136l19.253,32.66s-42.99,16.635-53.875,14.508-32.028-35.1-40.149-54.845c-7.635-18.566-2.867-32.062,13.705-14.053,0,0,30.735,31.617,32.724,31.866" transform="translate(16.295 25.661)" fill="#d0adea"/>
            <path id="Trazado_826967" data-name="Trazado 826967" d="M211.872,332.4a1.76,1.76,0,0,1-.764.5,1.636,1.636,0,0,1-1.561-.273,2.074,2.074,0,0,0-3.176.731c-.164.317-.349.622-.48.95.295-.218.535-.469.808-.688a1.967,1.967,0,0,1,.753-.535,1.613,1.613,0,0,1,1.572.229,2.157,2.157,0,0,0,2.369.2,1.924,1.924,0,0,0,.808-.84,9.932,9.932,0,0,0,.491-.961c-.295.207-.546.458-.819.688m33.226-5.272a1.788,1.788,0,0,1-.764.513,1.69,1.69,0,0,1-1.572-.284,2.111,2.111,0,0,0-2.39-.131,2,2,0,0,0-.775.862c-.175.317-.349.622-.491.95.295-.218.546-.458.819-.688a2.092,2.092,0,0,1,.753-.535,1.641,1.641,0,0,1,1.572.229,2.158,2.158,0,0,0,2.369.207,2.006,2.006,0,0,0,.808-.851,9.932,9.932,0,0,0,.491-.961c-.295.218-.546.469-.819.688m16.613,9.463a2.051,2.051,0,0,1-.764.513,1.684,1.684,0,0,1-1.572-.284,2.132,2.132,0,0,0-2.39-.142,2.09,2.09,0,0,0-.775.873,8.711,8.711,0,0,0-.491.95c.295-.218.546-.469.808-.688a2,2,0,0,1,.764-.535,1.6,1.6,0,0,1,1.561.229,2.157,2.157,0,0,0,2.369.2,1.952,1.952,0,0,0,.819-.84,9.849,9.849,0,0,0,.48-.961c-.295.218-.535.458-.808.688m-74.954-34.743a1.667,1.667,0,0,1-.753.491,1.65,1.65,0,0,1-1.583-.273,2.128,2.128,0,0,0-2.39-.131,1.881,1.881,0,0,0-.666.677c.065.153.131.317.2.469l.022-.022a1.931,1.931,0,0,1,.753-.524,1.607,1.607,0,0,1,1.572.218,2.175,2.175,0,0,0,2.379.207,2.015,2.015,0,0,0,.808-.851c.164-.317.338-.611.48-.95-.295.207-.546.458-.819.688m59.509,44.97c-.109-.338-.207-.677-.338-1.015-.055.36-.055.709-.087,1.07a1.755,1.755,0,0,1-.164.9,1.611,1.611,0,0,1-1.266.961,2.169,2.169,0,0,0-1.823,1.539,2.017,2.017,0,0,0,.033,1.168c.109.338.2.677.327,1.015.055-.36.055-.709.087-1.07a1.763,1.763,0,0,1,.2-.884,1.578,1.578,0,0,1,1.31-.906,2.15,2.15,0,0,0,1.779-1.6,2.314,2.314,0,0,0-.055-1.168m14.08-29.416a2.139,2.139,0,0,0-1.157,1.343,1.929,1.929,0,0,0,.044,1.168c.109.338.186.677.327,1.015.055-.36.055-.709.087-1.07a1.885,1.885,0,0,1,.186-.884,1.614,1.614,0,0,1,.95-.83Zm-35.1.993a.96.96,0,0,0-.055.164,2.055,2.055,0,0,0,.033,1.179c.12.338.2.677.327,1.015.055-.36.055-.709.1-1.081a1.823,1.823,0,0,1,.153-.8c-.175-.142-.36-.306-.557-.48M214,349.089c-.12-.338-.207-.677-.338-1.015-.055.36-.055.709-.1,1.07a1.882,1.882,0,0,1-.153.9,1.611,1.611,0,0,1-1.266.961.066.066,0,0,0-.044.011c.24.24.48.469.709.7h.011a2.135,2.135,0,0,0,1.233-1.452,2.314,2.314,0,0,0-.055-1.168m-6.887-33.75a2.114,2.114,0,0,1-.9-.175,1.671,1.671,0,0,1-.906-1.31,2.153,2.153,0,0,0-1.594-1.8,2.235,2.235,0,0,0-1.179.065c-.338.12-.677.2-1.015.327.36.065.709.065,1.07.1a1.928,1.928,0,0,1,.906.153,1.6,1.6,0,0,1,.95,1.266,2.154,2.154,0,0,0,1.55,1.823,1.932,1.932,0,0,0,1.168-.022c.338-.109.677-.2,1.015-.338-.36-.055-.71-.055-1.07-.087M230.5,341.208a1.9,1.9,0,0,1-.9-.2,1.626,1.626,0,0,1-.917-1.3,2.137,2.137,0,0,0-1.594-1.79,2.2,2.2,0,0,0-1.168.055c-.338.12-.677.2-1.015.327.36.066.709.066,1.059.1a2.376,2.376,0,0,1,.917.153,1.655,1.655,0,0,1,.95,1.266,2.147,2.147,0,0,0,1.528,1.823,1.963,1.963,0,0,0,1.179-.022,8.513,8.513,0,0,0,1.015-.338c-.36-.055-.71-.055-1.059-.076m-36.817-52.272a1.961,1.961,0,0,1-.9-.186,1.65,1.65,0,0,1-.9-1.31,2.152,2.152,0,0,0-1.6-1.779,2,2,0,0,0-1.168.055,8.522,8.522,0,0,0-1.015.338c.349.044.709.055,1.059.076a2,2,0,0,1,.917.175,1.583,1.583,0,0,1,.95,1.244,2.141,2.141,0,0,0,1.539,1.834,2.116,2.116,0,0,0,1.168-.022c.338-.12.677-.2,1.015-.338a8.829,8.829,0,0,0-1.07-.087" transform="translate(16.597 26.135)" fill="#fff"/>
            <path id="Trazado_826968" data-name="Trazado 826968" d="M248.126,344.948c-1.035.342-2.082.685-3.144,1.018" transform="translate(22.419 31.567)" fill="#ebebeb"/>
            <path id="Trazado_826969" data-name="Trazado 826969" d="M228.64,316.439c.949-.3,1.97-.644,3.039-1.017" transform="translate(20.923 28.865)" fill="#ebebeb"/>
            <path id="Trazado_826970" data-name="Trazado 826970" d="M220.84,355c-9.326-3.222-23.344-25.012-26.054-29.292-1.734-2.741-3.362-5.546-4.969-8.364-3.215-5.64-6.252-11.377-9.189-17.164a.085.085,0,0,0-.155.072q2.706,6.8,6.08,13.34a52.121,52.121,0,0,1-3.588-4.9c-.052-.081-.191.005-.144.091a29.538,29.538,0,0,0,4.172,5.657c2.28,4.366,4.764,8.625,7.44,12.743.772,1.188,17.212,27.98,27.3,29.258,3.507.444,14.95-2.025,17.324-2.933.1-.039.11-.174-.009-.159-3.347.393-14.879,2.8-18.212,1.646" transform="translate(16.515 27.466)" fill="#263238"/>
            <path id="Trazado_826971" data-name="Trazado 826971" d="M259.247,337.362q-.9-1.706-1.82-3.4c-1.224-2.264-8.58-15.692-11.53-19.8-.079-.109-.244.005-.194.123,1.991,4.672,9.642,17.87,10.917,20.046q.979,1.67,1.972,3.329c.67,1.113,1.467,2.143,2.131,3.256.065.109.246.032.183-.085-.6-1.131-1.062-2.336-1.66-3.473" transform="translate(22.484 28.746)" fill="#263238"/>
            <path id="Trazado_826972" data-name="Trazado 826972" d="M254.155,309.12c-2.1.392-20.583,7.536-24.666,9.081a8.726,8.726,0,0,1-3.058.871,4.594,4.594,0,0,1-2.769-1.518c-1.589-1.375-19.322-19.014-20.546-19.831-.462-.308-.8-.334-.32.235.816.976,18.1,18.424,19.638,19.772,1.428,1.253,2.792,2.587,4.841,2.211.9-.166,25.85-9.588,27.042-10.3.252-.151.167-.587-.163-.526" transform="translate(18.537 27.225)" fill="#263238"/>
            <path id="Trazado_826973" data-name="Trazado 826973" d="M199.069,286.156c-3.92-.081-12.669-6.51-13.939-12.469-.085-.409,1.562-3.948,3.359-8.344,1.081-2.671,2.22-5.67,3.063-8.483.169-.577,16.355,9.568,16.355,9.568a46.828,46.828,0,0,0-4.938,10.289,6.6,6.6,0,0,0-.225,1.191c-.01.055-.013.123-.032.2-.3,2.3.55,8.136-3.643,8.05" transform="translate(16.941 23.503)" fill="#ffc4c0"/>
            <path id="Trazado_826974" data-name="Trazado 826974" d="M202.183,277.889c-.015.057-.022.129-.039.2a12.232,12.232,0,0,1-1.834-.446c-10.314-3.338-9.161-17.154-8.7-20.606,3,1.387,15.734,9.375,15.734,9.375A46.913,46.913,0,0,0,202.4,276.7a6.6,6.6,0,0,0-.215,1.186" transform="translate(17.508 23.522)" fill="#263238"/>
            <path id="Trazado_826975" data-name="Trazado 826975" d="M189.613,238.013c-2.729,6.257-1.47,25.39,2.659,30.1,5.988,6.828,16.87,8.674,22.945,1.23,5.889-7.216,3.807-32.12-.906-36.512-6.943-6.469-20.667-4.06-24.7,5.181" transform="translate(17.219 20.974)" fill="#ffc4c0"/>
            <path id="Trazado_826976" data-name="Trazado 826976" d="M205.474,249.7c-.013-.048-.1.068-.092.12.119,1.287.039,2.78-1.1,3.279-.035.015-.027.08.015.071,1.411-.286,1.5-2.27,1.178-3.47" transform="translate(18.692 22.85)" fill="#263238"/>
            <path id="Trazado_826977" data-name="Trazado 826977" d="M204.371,248.534c-2.083-.031-1.992,4.137-.062,4.166,1.9.028,1.809-4.14.062-4.166" transform="translate(18.562 22.744)" fill="#263238"/>
            <path id="Trazado_826978" data-name="Trazado 826978" d="M211.908,249.53c.009-.049.1.059.1.111-.012,1.292.191,2.774,1.368,3.177.037.013.035.078-.01.072-1.428-.169-1.678-2.139-1.458-3.361" transform="translate(19.386 22.834)" fill="#263238"/>
            <path id="Trazado_826979" data-name="Trazado 826979" d="M213.029,248.272c2.073-.2,2.326,3.959.406,4.147-1.891.184-2.144-3.977-.406-4.147" transform="translate(19.388 22.719)" fill="#263238"/>
            <path id="Trazado_826980" data-name="Trazado 826980" d="M202.8,247.071a16.08,16.08,0,0,0,1.6-.6,2.764,2.764,0,0,0,1.516-.928.882.882,0,0,0-.166-1.063,2.185,2.185,0,0,0-2.207-.178,3.211,3.211,0,0,0-1.82,1.43.94.94,0,0,0,1.074,1.343" transform="translate(18.448 22.337)" fill="#263238"/>
            <path id="Trazado_826981" data-name="Trazado 826981" d="M214.655,246.546a16.056,16.056,0,0,1-1.666-.394,2.77,2.77,0,0,1-1.622-.725.882.882,0,0,1,.027-1.077,2.185,2.185,0,0,1,2.167-.457,3.211,3.211,0,0,1,1.988,1.184.94.94,0,0,1-.894,1.469" transform="translate(19.327 22.311)" fill="#263238"/>
            <path id="Trazado_826982" data-name="Trazado 826982" d="M204.206,260.49c.315.3.633.705,1.1.733a3.392,3.392,0,0,0,1.381-.355.046.046,0,0,1,.058.065,1.739,1.739,0,0,1-1.624.737,1.377,1.377,0,0,1-1.04-1.12c-.021-.074.077-.1.123-.061" transform="translate(18.676 23.836)" fill="#263238"/>
            <path id="Trazado_826983" data-name="Trazado 826983" d="M205.363,258.1A4.4,4.4,0,0,0,208.34,260a5.533,5.533,0,0,0,1.584.037,1.485,1.485,0,0,0,.3-.042c.094-.013.179-.025.282-.049a.32.32,0,0,0,.252-.295v-.009a.591.591,0,0,0-.015-.132v-.01l0-.114c.005-.994-.124-2.5-.124-2.5.368.174,2.238.966,2.2.448a66.193,66.193,0,0,0-2-13.268.12.12,0,0,0-.236.039c.174,4.14,1.074,8.221,1.314,12.377a7.725,7.725,0,0,0-2.089-.584c-.14.044.3,2.913.264,3.36a.172.172,0,0,1-.007.048,6.094,6.094,0,0,1-4.582-1.314c-.1-.071-.2.017-.118.119" transform="translate(18.79 22.326)" fill="#263238"/>
            <path id="Trazado_826984" data-name="Trazado 826984" d="M209.365,258.361a5.226,5.226,0,0,1-2.053,1.665,2.354,2.354,0,0,1-1.423.12c-1.037-.25-1.083-1.2-.911-2.008a5.629,5.629,0,0,1,.434-1.25,6.761,6.761,0,0,0,3.953,1.474" transform="translate(18.751 23.508)" fill="#263238"/>
            <path id="Trazado_826985" data-name="Trazado 826985" d="M207.312,259.919a2.354,2.354,0,0,1-1.423.12c-1.037-.249-1.084-1.194-.911-2.008a2.425,2.425,0,0,1,2.335,1.888" transform="translate(18.751 23.613)" fill="#ff9bbc"/>
            <path id="Trazado_826986" data-name="Trazado 826986" d="M190.083,255.938c3.547-.4,3.838-9.355,3.838-9.355s4.448-1.551,6.043-9.661c0,0,2.819,8.094,17.555,6.661a12.59,12.59,0,0,0-.888-7.679,53.157,53.157,0,0,1,3.52,8.006s3.8-12.139-6.526-16.69c-4.106-1.81-10.424-1.61-20.122,2.9,0,0-1.7-5.784-2.824-5.056s.878,6.141.878,6.141-4.179-1.4-4.909-.539c-.629.743,3.4,1.9,3.4,1.9a8.346,8.346,0,0,0-5.594,9.356c.823,6.839,3.874,14.21,5.628,14.012" transform="translate(16.872 20.59)" fill="#263238"/>
            <path id="Trazado_826987" data-name="Trazado 826987" d="M191.318,231.868a7.622,7.622,0,0,0-7.931,6.246,14.139,14.139,0,0,0,.74,6.373,26.491,26.491,0,0,0,2.971,6.067c.067.107.224-.014.155-.121a20.142,20.142,0,0,1-2.37-5.711,18.639,18.639,0,0,1-.8-5.861,7.314,7.314,0,0,1,7.231-6.777c.121,0,.12-.207,0-.215" transform="translate(16.771 21.217)" fill="#263238"/>
            <path id="Trazado_826988" data-name="Trazado 826988" d="M204.644,225.013a29.556,29.556,0,0,0-7.26,2.479,21.573,21.573,0,0,0-6.062,4.012.1.1,0,0,0,.122.155,38.717,38.717,0,0,1,12.756-5.534c4.17-1.083,9.069-.965,12.144,2.477a.059.059,0,0,0,.093-.073c-2.732-3.6-7.6-4.294-11.794-3.516" transform="translate(17.505 20.565)" fill="#263238"/>
            <path id="Trazado_826989" data-name="Trazado 826989" d="M202.515,256.887a6.087,6.087,0,1,1,6.744-6.849h0a6.089,6.089,0,0,1-6.744,6.848m1.326-11.284a5.222,5.222,0,0,0-1.311.011,5.269,5.269,0,1,0,1.311-.011" transform="translate(18.04 22.398)" fill="#455a64"/>
            <path id="Trazado_826990" data-name="Trazado 826990" d="M215.209,256.824c-2.313-.273-4.134-2.888-4.134-6.064a7.267,7.267,0,0,1,1.287-4.256,3.792,3.792,0,0,1,6.492,0,7.262,7.262,0,0,1,1.285,4.256c0,3.355-2.033,6.086-4.532,6.086a3.438,3.438,0,0,1-.4-.023m.708-11.319a2.654,2.654,0,0,0-.309-.019,3.246,3.246,0,0,0-2.588,1.5,6.472,6.472,0,0,0-1.132,3.777c0,2.908,1.661,5.276,3.719,5.274s3.717-2.365,3.719-5.272a6.457,6.457,0,0,0-1.131-3.778,3.352,3.352,0,0,0-2.278-1.478" transform="translate(19.316 22.39)" fill="#455a64"/>
            <path id="Trazado_826991" data-name="Trazado 826991" d="M208.1,250.381l-.523-.623c.923-.775,3.058-1.817,4.544-.227l-.595.556c-1.328-1.428-3.341.225-3.426.295" transform="translate(18.996 22.759)" fill="#455a64"/>
            <path id="Trazado_826992" data-name="Trazado 826992" d="M183.268,252.008l-.723-.373c.175-.337,1.756-3.3,3.573-3.6,1.7-.271,12.608.753,13.071.8l-.077.81c-3.127-.3-11.55-1.017-12.862-.8-1.2.194-2.559,2.351-2.981,3.166" transform="translate(16.705 22.694)" fill="#455a64"/>
            <path id="Trazado_826993" data-name="Trazado 826993" d="M192.855,252.41s-3.666-6.476-6.567-5.225-.546,10.357,2.574,11.869a3.3,3.3,0,0,0,4.577-1.348Z" transform="translate(16.927 22.606)" fill="#ffc4c0"/>
            <path id="Trazado_826994" data-name="Trazado 826994" d="M186.86,249.548c-.051-.01-.069.062-.025.085,2.18,1.134,3.174,3.351,3.8,5.611a1.824,1.824,0,0,0-2.67-.755c-.063.036-.015.134.05.127a2.032,2.032,0,0,1,2.159.919,9.772,9.772,0,0,1,.9,1.9c.087.213.464.14.408-.1l-.013-.055c.333-2.886-1.529-7.147-4.606-7.733" transform="translate(17.095 22.836)" fill="#263238"/>
            <path id="Trazado_826995" data-name="Trazado 826995" d="M184.832,276.038a54.118,54.118,0,0,0,5.939,7.011,13.743,13.743,0,0,0,7.153,3.721c2.6.384,5.509-.154,6.206-3.547.454-2.208.3-4.081-.224-7.452-.023-.153.109-.138.142.015.922,4.416,1.24,10.329-2.065,11.6-3.7,1.422-8.662-.767-11.722-3.768a36.1,36.1,0,0,1-5.641-7.381c-.249-.428.176-.243.212-.2" transform="translate(16.888 25.226)" fill="#263238"/>
          </g>
        </g>
      </g>
    </g>
  </g>
</svg>
